<?xml version="1.0" encoding="UTF-8" standalone="no"?>
<!-- Created with Inkscape (http://www.inkscape.org/) -->

<svg
   xmlns:dc="http://purl.org/dc/elements/1.1/"
   xmlns:cc="http://creativecommons.org/ns#"
   xmlns:rdf="http://www.w3.org/1999/02/22-rdf-syntax-ns#"
   xmlns:svg="http://www.w3.org/2000/svg"
   xmlns="http://www.w3.org/2000/svg"
   xmlns:sodipodi="http://sodipodi.sourceforge.net/DTD/sodipodi-0.dtd"
   xmlns:inkscape="http://www.inkscape.org/namespaces/inkscape"
   width="120"
   height="380"
   viewBox="0 0 31.750002 100.54167"
   version="1.1"
   id="svg8"
   inkscape:version="0.92.4 (5da689c313, 2019-01-14)"
   sodipodi:docname="CD4068.svg">
  <defs
     id="defs2" />
  <sodipodi:namedview
     id="base"
     pagecolor="#ffffff"
     bordercolor="#666666"
     borderopacity="1.0"
     inkscape:pageopacity="0.0"
     inkscape:pageshadow="2"
     inkscape:zoom="3.2229183"
     inkscape:cx="-12.726571"
     inkscape:cy="282.79132"
     inkscape:document-units="mm"
     inkscape:current-layer="layer1"
     showgrid="true"
     units="px"
     inkscape:snap-bbox="true"
     inkscape:snap-page="true"
     inkscape:bbox-nodes="true"
     inkscape:snap-bbox-edge-midpoints="true"
     inkscape:window-width="1920"
     inkscape:window-height="1017"
     inkscape:window-x="-8"
     inkscape:window-y="-8"
     inkscape:window-maximized="1">
    <inkscape:grid
       type="xygrid"
       id="grid116" />
  </sodipodi:namedview>
  <metadata
     id="metadata5">
    <rdf:RDF>
      <cc:Work
         rdf:about="">
        <dc:format>image/svg+xml</dc:format>
        <dc:type
           rdf:resource="http://purl.org/dc/dcmitype/StillImage" />
        <dc:title />
      </cc:Work>
    </rdf:RDF>
  </metadata>
  <g
     inkscape:groupmode="layer"
     id="layer3"
     inkscape:label="Panel"
     sodipodi:insensitive="true">
    <path
       sodipodi:type="inkscape:offset"
       inkscape:radius="0"
       inkscape:original="M 0 196.45898 L 0 297 L 15.875 297 L 15.875 196.45898 L 0 196.45898 z "
       style="fill:#672200;fill-opacity:1;stroke-width:0.3310422"
       id="rect3855"
       d="M 0,196.45898 V 297 H 15.875 V 196.45898 Z"
       transform="matrix(2,0,0,1.0000064,0,-196.46023)" />
  </g>
  <g
     inkscape:label="Layer 1"
     inkscape:groupmode="layer"
     id="layer1"
     transform="translate(0,-196.45832)"
     style="display:inline">
    <text
       xml:space="preserve"
       style="font-style:normal;font-weight:normal;font-size:2.82222223px;line-height:1.25;font-family:sans-serif;letter-spacing:0px;word-spacing:0px;fill:#000000;fill-opacity:1;stroke:none;stroke-width:0.26458332"
       x="17.197916"
       y="201.74998"
       id="text3821"><tspan
         sodipodi:role="line"
         id="tspan3819"
         x="17.197916"
         y="204.24699"
         style="stroke-width:0.26458332" /></text>
    <g
       id="g4342">
      <g
         transform="translate(-9.481569,1.7166648)"
         id="text956"
         style="font-style:normal;font-variant:normal;font-weight:normal;font-stretch:normal;font-size:2.82222223px;line-height:1.25;font-family:'Copperplate Gothic Light';-inkscape-font-specification:'Copperplate Gothic Light, ';letter-spacing:0px;word-spacing:0px;fill:#ffffff;fill-opacity:1;stroke:#ffffff;stroke-width:0.2;stroke-miterlimit:4;stroke-dasharray:none;stroke-opacity:1"
         aria-label="/^M^\">
        <path
           inkscape:connector-curvature="0"
           id="path958"
           style="font-style:normal;font-variant:normal;font-weight:normal;font-stretch:normal;font-size:2.82222223px;line-height:1.25;font-family:'Copperplate Gothic Light';-inkscape-font-specification:'Copperplate Gothic Light, ';fill:#ffffff;stroke:#ffffff;stroke-width:0.2;stroke-miterlimit:4;stroke-dasharray:none;stroke-opacity:1"
           d="m 21.203855,291.40545 v 0.0386 h -0.434082 v -0.0386 q 0.09509,-0.006 0.224621,-0.17088 l 1.094162,-1.4621 q 0.07441,-0.1006 0.07441,-0.12402 0,-0.0372 -0.06615,-0.0482 v -0.0372 h 0.423058 v 0.0372 q -0.09508,0.006 -0.22462,0.17087 l -1.08176,1.46348 q -0.07579,0.10197 -0.07579,0.12402 0,0.0358 0.06615,0.0469 z" />
        <path
           inkscape:connector-curvature="0"
           id="path960"
           style="font-style:normal;font-variant:normal;font-weight:normal;font-stretch:normal;font-size:2.82222223px;line-height:1.25;font-family:'Copperplate Gothic Light';-inkscape-font-specification:'Copperplate Gothic Light, ';fill:#ffffff;stroke:#ffffff;stroke-width:0.2;stroke-miterlimit:4;stroke-dasharray:none;stroke-opacity:1"
           d="M 22.940183,290.3857 H 22.73899 l 0.493338,-0.8282 h 0.243912 l 0.493338,0.8282 h -0.20395 l -0.413411,-0.68075 z" />
        <path
           inkscape:connector-curvature="0"
           id="path962"
           style="font-style:normal;font-variant:normal;font-weight:normal;font-stretch:normal;font-size:2.82222223px;line-height:1.25;font-family:'Copperplate Gothic Light';-inkscape-font-specification:'Copperplate Gothic Light, ';fill:#ffffff;stroke:#ffffff;stroke-width:0.2;stroke-miterlimit:4;stroke-dasharray:none;stroke-opacity:1"
           d="m 25.342104,291.44403 -0.789616,-1.58061 v 1.418 q 0,0.0565 0.01791,0.0813 0.01791,0.0234 0.07028,0.0372 v 0.0441 h -0.373449 v -0.0441 q 0.05237,-0.0138 0.07028,-0.0372 0.01792,-0.0234 0.01792,-0.0813 v -1.5558 q 0,-0.0579 -0.01792,-0.0813 -0.01791,-0.0248 -0.07028,-0.0372 v -0.0441 h 0.487826 v 0.0441 q -0.06752,0.0234 -0.06752,0.0579 0,0.0165 0.04547,0.10611 l 0.62563,1.24161 0.628385,-1.25263 q 0.03307,-0.0661 0.03307,-0.0937 0,-0.0358 -0.06752,-0.0593 v -0.0441 h 0.49196 v 0.0441 q -0.05237,0.0138 -0.07028,0.0372 -0.01792,0.0234 -0.01792,0.0813 v 1.5558 q 0,0.0565 0.01792,0.0813 0.01791,0.0234 0.07028,0.0372 v 0.0441 h -0.392741 v -0.0441 q 0.05374,-0.0138 0.07028,-0.0372 0.01791,-0.0234 0.01791,-0.0813 v -1.418 z" />
        <path
           inkscape:connector-curvature="0"
           id="path964"
           style="font-style:normal;font-variant:normal;font-weight:normal;font-stretch:normal;font-size:2.82222223px;line-height:1.25;font-family:'Copperplate Gothic Light';-inkscape-font-specification:'Copperplate Gothic Light, ';fill:#ffffff;stroke:#ffffff;stroke-width:0.2;stroke-miterlimit:4;stroke-dasharray:none;stroke-opacity:1"
           d="m 26.942006,290.3857 h -0.201193 l 0.493338,-0.8282 h 0.243912 l 0.493338,0.8282 h -0.20395 l -0.413411,-0.68075 z" />
        <path
           inkscape:connector-curvature="0"
           id="path966"
           style="font-style:normal;font-variant:normal;font-weight:normal;font-stretch:normal;font-size:2.82222223px;line-height:1.25;font-family:'Copperplate Gothic Light';-inkscape-font-specification:'Copperplate Gothic Light, ';fill:#ffffff;stroke:#ffffff;stroke-width:0.2;stroke-miterlimit:4;stroke-dasharray:none;stroke-opacity:1"
           d="m 28.617701,289.56301 v 0.0372 q -0.06615,0.011 -0.06615,0.0482 0,0.0234 0.07441,0.12402 l 1.092784,1.4621 q 0.129536,0.16536 0.22462,0.17088 v 0.0386 h -0.434082 v -0.0386 q 0.06615,-0.011 0.06615,-0.0469 0,-0.0207 -0.07579,-0.12402 l -1.080382,-1.46348 q -0.129535,-0.16536 -0.22462,-0.17087 v -0.0372 z" />
      </g>
      <g
         id="text924"
         style="font-style:normal;font-variant:normal;font-weight:normal;font-stretch:normal;font-size:2.97226882px;line-height:1.25;font-family:'Yu Gothic UI';-inkscape-font-specification:'Yu Gothic UI';letter-spacing:0px;word-spacing:0px;fill:#ffffff;fill-opacity:1;stroke:none;stroke-width:0.24768905"
         aria-label="LUNETTA">
        <path
           id="path892"
           style="font-size:2.97226882px;fill:#ffffff;stroke-width:0.24768905"
           d="M 11.061028,295.90683 H 9.9812581 v -2.08117 h 0.2438189 v 1.86057 h 0.835951 z"
           inkscape:connector-curvature="0" />
        <path
           id="path894"
           style="font-size:2.97226882px;fill:#ffffff;stroke-width:0.24768905"
           d="m 12.902731,295.06507 q 0,0.87659 -0.79096,0.87659 -0.75758,0 -0.75758,-0.84321 v -1.27279 h 0.243819 v 1.25683 q 0,0.64002 0.539885,0.64002 0.521017,0 0.521017,-0.61825 v -1.2786 h 0.243819 z"
           inkscape:connector-curvature="0" />
        <path
           id="path896"
           style="font-size:2.97226882px;fill:#ffffff;stroke-width:0.24768905"
           d="m 15.101456,295.90683 h -0.298969 l -1.071062,-1.65884 q -0.04064,-0.0624 -0.06676,-0.13062 h -0.0087 q 0.01161,0.0668 0.01161,0.28591 v 1.50355 h -0.243819 v -2.08117 h 0.316384 l 1.042036,1.63272 q 0.06531,0.10159 0.08418,0.13932 h 0.0058 q -0.01451,-0.09 -0.01451,-0.30622 v -1.46582 h 0.243819 z"
           inkscape:connector-curvature="0" />
        <path
           id="path898"
           style="font-size:2.97226882px;fill:#ffffff;stroke-width:0.24768905"
           d="m 16.750136,295.90683 h -1.102991 v -2.08117 h 1.056549 v 0.2206 h -0.81273 v 0.69227 h 0.751775 v 0.21915 h -0.751775 v 0.72855 h 0.859172 z"
           inkscape:connector-curvature="0" />
        <path
           id="path900"
           style="font-size:2.97226882px;fill:#ffffff;stroke-width:0.24768905"
           d="m 18.381401,294.04626 h -0.60084 v 1.86057 h -0.243819 v -1.86057 h -0.599388 v -0.2206 h 1.444047 z"
           inkscape:connector-curvature="0" />
        <path
           id="path902"
           style="font-size:2.97226882px;fill:#ffffff;stroke-width:0.24768905"
           d="m 19.937197,294.04626 h -0.600839 v 1.86057 h -0.243819 v -1.86057 h -0.599388 v -0.2206 h 1.444046 z"
           inkscape:connector-curvature="0" />
        <path
           id="path904"
           style="font-size:2.97226882px;fill:#ffffff;stroke-width:0.24768905"
           d="M 21.768742,295.90683 H 21.4988 l -0.220598,-0.58342 h -0.882393 l -0.207536,0.58342 h -0.271394 l 0.798217,-2.08117 h 0.252527 z m -0.570362,-0.80257 -0.326543,-0.88675 q -0.01596,-0.0435 -0.03193,-0.13932 h -0.0058 q -0.01451,0.0885 -0.03338,0.13932 l -0.323641,0.88675 z"
           inkscape:connector-curvature="0" />
      </g>
    </g>
    <g
       aria-label="A"
       transform="translate(-3.5553389,199.96602)"
       style="font-style:normal;font-variant:normal;font-weight:normal;font-stretch:normal;font-size:2.82222223px;line-height:1.25;font-family:'Yu Gothic UI';-inkscape-font-specification:'Yu Gothic UI';letter-spacing:0px;word-spacing:0px;fill:#ffffff;fill-opacity:1;stroke:none;stroke-width:0.26458332"
       id="text943">
      <path
         d="M 12.372027,9.260417 H 12.115711 L 11.90625,8.7064456 H 11.068402 L 10.871343,9.260417 H 10.61365 L 11.371571,7.2843102 H 11.61135 Z M 11.830458,8.4983619 11.520399,7.6563805 q -0.01516,-0.041341 -0.03032,-0.1322916 h -0.0055 q -0.01378,0.08406 -0.03169,0.1322916 l -0.307302,0.8419814 z"
         style="fill:#ffffff;stroke-width:0.26458332"
         id="path1083"
         inkscape:connector-curvature="0" />
    </g>
    <g
       aria-label="B"
       transform="translate(-3.5133084,202.08713)"
       style="font-style:normal;font-variant:normal;font-weight:normal;font-stretch:normal;font-size:2.82222223px;line-height:1.25;font-family:'Yu Gothic UI';-inkscape-font-specification:'Yu Gothic UI';letter-spacing:0px;word-spacing:0px;fill:#ffffff;fill-opacity:1;stroke:none;stroke-width:0.26458332"
       id="text947">
      <path
         d="m 10.842404,23.8125 v -1.976107 h 0.56224 q 0.256315,0 0.406521,0.125402 0.150206,0.125401 0.150206,0.326595 0,0.16812 -0.09095,0.292144 -0.09095,0.124023 -0.250803,0.176389 v 0.0055 q 0.199815,0.02343 0.319705,0.151584 0.119889,0.12678 0.119889,0.330729 0,0.253559 -0.181901,0.410656 Q 11.69541,23.8125 11.418424,23.8125 Z m 0.231511,-1.766645 v 0.638032 h 0.237022 q 0.190169,0 0.299034,-0.09095 0.108865,-0.09233 0.108865,-0.259071 0,-0.28801 -0.37896,-0.28801 z m 0,0.846115 v 0.711068 h 0.314192 q 0.20395,0 0.315571,-0.09646 0.112999,-0.09646 0.112999,-0.264584 0,-0.350022 -0.476801,-0.350022 z"
         style="fill:#ffffff;stroke-width:0.26458332"
         id="path1074"
         inkscape:connector-curvature="0" />
    </g>
    <g
       aria-label="D"
       transform="translate(-19.575031,234.10463)"
       style="font-style:normal;font-variant:normal;font-weight:normal;font-stretch:normal;font-size:2.82222223px;line-height:1.25;font-family:'Yu Gothic UI';-inkscape-font-specification:'Yu Gothic UI';letter-spacing:0px;word-spacing:0px;fill:#ffffff;fill-opacity:1;stroke:none;stroke-width:0.26458332"
       id="text959">
      <path
         d="m 26.717403,25.135416 v -1.976107 h 0.545703 q 1.044553,0 1.044553,0.963249 0,0.457509 -0.290766,0.735872 -0.289388,0.276986 -0.775835,0.276986 z m 0.231511,-1.766645 v 1.557183 h 0.2949 q 0.388607,0 0.604959,-0.208084 0.216352,-0.208083 0.216352,-0.5898 0,-0.759299 -0.807531,-0.759299 z"
         style="fill:#ffffff;stroke-width:0.26458332"
         id="path1077"
         inkscape:connector-curvature="0" />
    </g>
    <g
       aria-label="E"
       transform="translate(20.383941,154.98686)"
       style="font-style:normal;font-variant:normal;font-weight:normal;font-stretch:normal;font-size:2.82222223px;line-height:1.25;font-family:'Yu Gothic UI';-inkscape-font-specification:'Yu Gothic UI';letter-spacing:0px;word-spacing:0px;fill:#ffffff;fill-opacity:1;stroke:none;stroke-width:0.26458332"
       id="text967">
      <path
         d="M 3.9522135,54.239582 H 2.9049044 v -1.976107 h 1.0032118 v 0.209462 H 3.1364149 v 0.657324 h 0.7138237 v 0.208084 H 3.1364149 v 0.691775 h 0.8157986 z"
         style="fill:#ffffff;stroke-width:0.26458332"
         id="path1062"
         inkscape:connector-curvature="0" />
    </g>
    <g
       aria-label="F"
       transform="translate(20.40599,157.10797)"
       style="font-style:normal;font-variant:normal;font-weight:normal;font-stretch:normal;font-size:2.82222223px;line-height:1.25;font-family:'Yu Gothic UI';-inkscape-font-specification:'Yu Gothic UI';letter-spacing:0px;word-spacing:0px;fill:#ffffff;fill-opacity:1;stroke:none;stroke-width:0.26458332"
       id="text971">
      <path
         d="M 3.9081162,67.025019 H 3.1364149 v 0.683507 H 3.8502386 V 67.91661 H 3.1364149 v 0.875054 H 2.9049044 v -1.976107 h 1.0032118 z"
         style="fill:#ffffff;stroke-width:0.26458332"
         id="path1059"
         inkscape:connector-curvature="0" />
    </g>
    <g
       aria-label="H"
       transform="translate(-4.9705832,205.00046)"
       style="font-style:normal;font-variant:normal;font-weight:normal;font-stretch:normal;font-size:2.82222223px;line-height:1.25;font-family:'Yu Gothic UI';-inkscape-font-specification:'Yu Gothic UI';letter-spacing:0px;word-spacing:0px;fill:#ffffff;fill-opacity:1;stroke:none;stroke-width:0.26458332"
       id="text979">
      <path
         d="m 29.525846,54.239582 h -0.23151 v -0.901237 h -1.022504 v 0.901237 h -0.231511 v -1.976107 h 0.231511 v 0.866786 h 1.022504 v -0.866786 h 0.23151 z"
         style="fill:#ffffff;stroke-width:0.26458332"
         id="path1065"
         inkscape:connector-curvature="0" />
    </g>
    <g
       aria-label="G"
       transform="translate(-4.9016817,175.07608)"
       style="font-style:normal;font-variant:normal;font-weight:normal;font-stretch:normal;font-size:2.82222223px;line-height:1.25;font-family:'Yu Gothic UI';-inkscape-font-specification:'Yu Gothic UI';letter-spacing:0px;word-spacing:0px;fill:#ffffff;fill-opacity:1;stroke:none;stroke-width:0.26458332"
       id="text983">
      <path
         d="m 29.517578,67.333702 q -0.297656,0.168121 -0.661458,0.168121 -0.423058,0 -0.684885,-0.272852 -0.260449,-0.272851 -0.260449,-0.722092 0,-0.458886 0.289388,-0.752409 0.290766,-0.2949 0.735872,-0.2949 0.322461,0 0.541569,0.104731 v 0.256315 q -0.239779,-0.151584 -0.567752,-0.151584 -0.332107,0 -0.544325,0.228754 -0.212218,0.228755 -0.212218,0.592557 0,0.374826 0.19706,0.5898 0.197059,0.213596 0.534679,0.213596 0.23151,0 0.401009,-0.09233 v -0.553972 h -0.432704 v -0.209462 h 0.664214 z"
         style="fill:#ffffff;stroke-width:0.26458332"
         id="path1056"
         inkscape:connector-curvature="0" />
    </g>
    <path
       style="fill:none;stroke:#ffffff;stroke-width:0.26458332px;stroke-linecap:butt;stroke-linejoin:miter;stroke-opacity:1"
       d="m 2.6458333,273.18747 v 11.37708 H 13.229167 v -11.37708 z"
       id="path1087"
       inkscape:connector-curvature="0"
       sodipodi:nodetypes="ccccc" />
    <path
       inkscape:connector-curvature="0"
       id="path1089"
       d="m 18.520833,273.18747 v 11.37708 h 10.583338 l -4e-6,-11.37708 z"
       style="fill:none;stroke:#ffffff;stroke-width:0.26458332px;stroke-linecap:butt;stroke-linejoin:miter;stroke-opacity:1"
       sodipodi:nodetypes="ccccc" />
    <g
       id="g1870"
       style="font-style:normal;font-variant:normal;font-weight:normal;font-stretch:normal;font-size:2.82222223px;line-height:1.25;font-family:'Yu Gothic UI';-inkscape-font-specification:'Yu Gothic UI';letter-spacing:0px;word-spacing:0px;fill:#ffffff;fill-opacity:1;stroke:none;stroke-width:0.26458332"
       transform="translate(-4.3649414,237.61763)"
       aria-label="J">
      <path
         inkscape:connector-curvature="0"
         id="path1868"
         style="fill:#ffffff;stroke-width:0.26458332"
         d="m 10.025228,37.65627 q 0,0.3514 -0.1488279,0.547082 -0.1488282,0.194303 -0.3982531,0.194303 -0.1157552,0 -0.1901693,-0.03307 v -0.228754 q 0.074414,0.05374 0.1929254,0.05374 0.3128147,0 0.3128147,-0.530544 v -1.270552 h 0.2315102 z" />
    </g>
    <g
       id="g1874"
       style="font-style:normal;font-variant:normal;font-weight:normal;font-stretch:normal;font-size:2.82222223px;line-height:1.25;font-family:'Yu Gothic UI';-inkscape-font-specification:'Yu Gothic UI';letter-spacing:0px;word-spacing:0px;fill:#ffffff;fill-opacity:1;stroke:none;stroke-width:0.26458332"
       transform="translate(-6.2383856,236.31125)"
       aria-label="K">
      <path
         inkscape:connector-curvature="0"
         id="path1872"
         style="fill:#ffffff;stroke-width:0.26458332"
         d="m 28.092685,39.6875 h -0.322461 l -0.763433,-0.903993 q -0.04272,-0.05099 -0.05236,-0.0689 h -0.0055 V 39.6875 H 26.71742 v -1.976107 h 0.231511 v 0.928798 h 0.0055 q 0.01929,-0.03032 0.05236,-0.06752 l 0.738629,-0.861274 h 0.28801 l -0.847494,0.948091 z" />
    </g>
    <g
       id="g1878"
       style="font-style:normal;font-variant:normal;font-weight:normal;font-stretch:normal;font-size:2.82222223px;line-height:1.25;font-family:'Yu Gothic UI';-inkscape-font-specification:'Yu Gothic UI';letter-spacing:0px;word-spacing:0px;fill:#ffffff;fill-opacity:1;stroke:none;stroke-width:0.26458332"
       transform="translate(-20.710536,231.9615)"
       aria-label="C">
      <path
         inkscape:connector-curvature="0"
         id="path1876"
         style="fill:#ffffff;stroke-width:0.26458332"
         d="m 29.385286,10.500651 q -0.219108,0.115755 -0.545703,0.115755 -0.421679,0 -0.675238,-0.271474 -0.253559,-0.271473 -0.253559,-0.7124453 0,-0.4740452 0.285253,-0.7661893 0.285254,-0.2921441 0.723471,-0.2921441 0.281119,0 0.465776,0.081304 v 0.2466688 q -0.212217,-0.1185113 -0.468533,-0.1185113 -0.340375,0 -0.552593,0.2273763 -0.21084,0.2273763 -0.21084,0.6077149 0,0.361046 0.19706,0.57602 0.198437,0.213596 0.51952,0.213596 0.297656,0 0.515386,-0.132292 z" />
    </g>
    <g
       aria-label="CD4068"
       style="font-style:normal;font-variant:normal;font-weight:600;font-stretch:normal;font-size:3.52777767px;line-height:1.25;font-family:'Yu Gothic UI';-inkscape-font-specification:'Yu Gothic UI Semi-Bold';letter-spacing:0px;word-spacing:0px;fill:#ffffff;fill-opacity:1;stroke:none;stroke-width:0.26458332"
       id="text922"
       transform="translate(1.0926139,-5.949126)">
      <path
         d="m 10.494105,205.87997 q -0.279053,0.14469 -0.6941869,0.14469 -0.5374348,0 -0.8612738,-0.33934 -0.323839,-0.33934 -0.323839,-0.89056 0,-0.59255 0.3634576,-0.95773 0.3651801,-0.36518 0.921563,-0.36518 0.3582901,0 0.5942791,0.10163 V 203.98 q -0.24977,-0.14814 -0.5512154,-0.14814 -0.4013536,0 -0.651123,0.25666 -0.2480469,0.25666 -0.2480469,0.68557 0,0.40825 0.2325439,0.65113 0.232544,0.24115 0.6115045,0.24115 0.3496769,0 0.6063369,-0.16536 z"
         style="font-style:normal;font-variant:normal;font-weight:600;font-stretch:normal;font-size:3.52777767px;font-family:'Yu Gothic UI';-inkscape-font-specification:'Yu Gothic UI Semi-Bold';fill:#ffffff;stroke-width:0.26458332"
         id="path924"
         inkscape:connector-curvature="0" />
      <path
         d="m 10.962638,205.98332 v -2.47013 h 0.713134 q 1.365981,0 1.365981,1.20406 0,0.57189 -0.378961,0.91984 -0.37896,0.34623 -1.016303,0.34623 z m 0.408244,-2.12218 v 1.77595 h 0.327284 q 0.432359,0 0.671793,-0.23771 0.241157,-0.23771 0.241157,-0.6718 0,-0.86644 -0.897447,-0.86644 z"
         style="font-style:normal;font-variant:normal;font-weight:600;font-stretch:normal;font-size:3.52777767px;font-family:'Yu Gothic UI';-inkscape-font-specification:'Yu Gothic UI Semi-Bold';fill:#ffffff;stroke-width:0.26458332"
         id="path926"
         inkscape:connector-curvature="0" />
      <path
         d="m 14.781526,203.51319 v 1.59508 h 0.366903 v 0.33245 h -0.366903 v 0.5426 h -0.387573 v -0.5426 H 13.27602 v -0.3359 q 0.151584,-0.17053 0.310058,-0.36862 0.160197,-0.19982 0.306614,-0.40652 0.148139,-0.20843 0.273885,-0.41686 0.125746,-0.20843 0.211873,-0.39963 z m -0.387573,1.59508 v -1.03698 q -0.187758,0.33762 -0.37207,0.58912 -0.18259,0.25149 -0.342787,0.44786 z"
         style="font-style:normal;font-variant:normal;font-weight:600;font-stretch:normal;font-size:3.52777767px;font-family:'Yu Gothic UI';-inkscape-font-specification:'Yu Gothic UI Semi-Bold';fill:#ffffff;stroke-width:0.26458332"
         id="path928"
         inkscape:connector-curvature="0" />
      <path
         d="m 16.171622,206.02466 q -0.385851,0 -0.602892,-0.31522 -0.215318,-0.31523 -0.215318,-0.91123 0,-0.65457 0.225654,-0.99047 0.225653,-0.33589 0.651123,-0.33589 0.814765,0 0.814765,1.26607 0,0.62701 -0.230822,0.95774 -0.229098,0.329 -0.64251,0.329 z m 0.03962,-2.23414 q -0.449585,0 -0.449585,0.99046 0,0.92673 0.440972,0.92673 0.434082,0 0.434082,-0.94223 0,-0.97496 -0.425469,-0.97496 z"
         style="font-style:normal;font-variant:normal;font-weight:600;font-stretch:normal;font-size:3.52777767px;font-family:'Yu Gothic UI';-inkscape-font-specification:'Yu Gothic UI Semi-Bold';fill:#ffffff;stroke-width:0.26458332"
         id="path930"
         inkscape:connector-curvature="0" />
      <path
         d="m 19.01038,205.18923 q 0,0.18603 -0.06201,0.33934 -0.06029,0.15331 -0.16881,0.26527 -0.108521,0.11024 -0.258382,0.17226 -0.148139,0.0603 -0.322117,0.0603 -0.186035,0 -0.342787,-0.0724 -0.155029,-0.0724 -0.268717,-0.21532 -0.111966,-0.14297 -0.173977,-0.35484 -0.06201,-0.2136 -0.06201,-0.49438 0,-0.34278 0.08096,-0.60805 0.08268,-0.26528 0.225653,-0.44442 0.142972,-0.17915 0.335897,-0.27216 0.192926,-0.093 0.416857,-0.093 0.139526,0 0.253214,0.019 0.115411,0.0189 0.184313,0.0517 v 0.36001 q -0.08785,-0.0448 -0.187758,-0.0758 -0.09991,-0.031 -0.229099,-0.031 -0.144694,0 -0.266995,0.0586 -0.1223,0.0586 -0.211873,0.17226 -0.08785,0.11196 -0.139526,0.27905 -0.04995,0.16537 -0.05168,0.38241 h 0.01034 q 0.07924,-0.1223 0.213595,-0.19293 0.136082,-0.0706 0.318672,-0.0706 0.161919,0 0.29111,0.0534 0.130914,0.0517 0.222209,0.15158 0.09302,0.0982 0.142971,0.24116 0.04995,0.14125 0.04995,0.31867 z m -0.403076,0.0327 q 0,-0.1068 -0.02584,-0.19465 -0.02412,-0.0879 -0.07579,-0.14986 -0.04995,-0.0637 -0.127469,-0.0982 -0.07579,-0.0344 -0.179145,-0.0344 -0.103352,0 -0.18259,0.0379 -0.07751,0.0362 -0.130913,0.0965 -0.0534,0.0603 -0.08096,0.1378 -0.02584,0.0775 -0.02584,0.15848 0,0.0878 0.02411,0.18086 0.02584,0.0913 0.07752,0.16709 0.05168,0.0758 0.130914,0.12575 0.08096,0.0482 0.191203,0.0482 0.09819,0 0.173977,-0.0362 0.07579,-0.0362 0.125746,-0.0999 0.05168,-0.0637 0.07751,-0.14986 0.02756,-0.0879 0.02756,-0.18948 z"
         style="font-style:normal;font-variant:normal;font-weight:600;font-stretch:normal;font-size:3.52777767px;font-family:'Yu Gothic UI';-inkscape-font-specification:'Yu Gothic UI Semi-Bold';fill:#ffffff;stroke-width:0.26458332"
         id="path932"
         inkscape:connector-curvature="0" />
      <path
         d="m 19.303214,205.2943 q 0,-0.10679 0.02584,-0.2067 0.02756,-0.0999 0.08096,-0.18432 0.0534,-0.0844 0.134359,-0.15158 0.08096,-0.0672 0.18948,-0.10852 -0.160197,-0.0896 -0.254937,-0.2291 -0.09474,-0.14125 -0.09474,-0.31178 0,-0.13608 0.05512,-0.25149 0.05684,-0.11541 0.155029,-0.19982 0.09991,-0.0844 0.234266,-0.13091 0.134359,-0.0482 0.292833,-0.0482 0.160197,0 0.294556,0.0482 0.136081,0.0482 0.234267,0.13264 0.09991,0.0844 0.155029,0.19981 0.05512,0.11541 0.05512,0.24977 0,0.17053 -0.09474,0.31178 -0.09474,0.13953 -0.251492,0.2291 0.106798,0.0413 0.187758,0.10852 0.08268,0.0655 0.137804,0.14986 0.05512,0.0844 0.08268,0.18431 0.02756,0.0999 0.02756,0.20843 0,0.16192 -0.06029,0.29628 -0.06029,0.13436 -0.16881,0.23082 -0.10852,0.0947 -0.260105,0.14814 -0.151584,0.0534 -0.334174,0.0534 -0.180867,0 -0.332452,-0.0534 -0.149861,-0.0534 -0.260104,-0.14814 -0.108521,-0.0965 -0.170533,-0.23082 -0.06029,-0.13436 -0.06029,-0.29628 z m 0.389296,-0.0344 q 0,0.10508 0.03101,0.18948 0.03101,0.0844 0.08785,0.14297 0.05684,0.0586 0.136081,0.0896 0.08096,0.031 0.179145,0.031 0.09474,0 0.173977,-0.031 0.07924,-0.0327 0.136082,-0.0913 0.05857,-0.0603 0.09129,-0.14297 0.03273,-0.0844 0.03273,-0.18776 0,-0.0947 -0.03101,-0.17742 -0.03101,-0.0844 -0.08785,-0.14642 -0.05684,-0.062 -0.137804,-0.0982 -0.07924,-0.0362 -0.177422,-0.0362 -0.09302,0 -0.173977,0.0345 -0.07924,0.0327 -0.137804,0.0947 -0.05684,0.0603 -0.08957,0.14469 -0.03273,0.0844 -0.03273,0.18431 z m 0.08441,-1.11621 q 0,0.0775 0.02756,0.1447 0.02756,0.0654 0.07407,0.11541 0.04651,0.0482 0.108521,0.0758 0.06373,0.0276 0.136081,0.0276 0.07235,0 0.134359,-0.0276 0.06373,-0.0293 0.110243,-0.0775 0.04823,-0.0499 0.07579,-0.11541 0.02756,-0.0672 0.02756,-0.14297 0,-0.0775 -0.02756,-0.14469 -0.02584,-0.0672 -0.07235,-0.11541 -0.04651,-0.0482 -0.110243,-0.0758 -0.06373,-0.0276 -0.137804,-0.0276 -0.07751,0 -0.141249,0.0293 -0.06373,0.0276 -0.110243,0.0775 -0.04479,0.05 -0.07062,0.11713 -0.02412,0.0655 -0.02412,0.13953 z"
         style="font-style:normal;font-variant:normal;font-weight:600;font-stretch:normal;font-size:3.52777767px;font-family:'Yu Gothic UI';-inkscape-font-specification:'Yu Gothic UI Semi-Bold';fill:#ffffff;stroke-width:0.26458332"
         id="path934"
         inkscape:connector-curvature="0" />
    </g>
    <g
       aria-label="8-INPUT AND/NAND GATE"
       style="font-style:normal;font-variant:normal;font-weight:normal;font-stretch:normal;font-size:2.11666656px;line-height:1.25;font-family:'Yu Gothic UI';-inkscape-font-specification:'Yu Gothic UI';letter-spacing:0px;word-spacing:0px;fill:#ffffff;fill-opacity:1;stroke:none;stroke-width:0.26458332"
       id="text939"
       transform="translate(0.08164975,-11.457614)">
      <path
         d="m 3.2680175,213.24282 q 0,-0.0589 0.018603,-0.11782 0.018604,-0.0599 0.05271,-0.11162 0.03514,-0.0517 0.085783,-0.0941 0.051676,-0.0424 0.1167887,-0.0672 -0.096118,-0.0537 -0.1529622,-0.13746 -0.056844,-0.0847 -0.056844,-0.18707 0,-0.0817 0.031006,-0.15089 0.032039,-0.0693 0.08785,-0.11989 0.055811,-0.0507 0.1322916,-0.0786 0.076481,-0.0289 0.1653646,-0.0289 0.089917,0 0.1663981,0.0289 0.076481,0.0289 0.1322917,0.0796 0.05581,0.0506 0.086816,0.11989 0.031006,0.0693 0.031006,0.14986 0,0.10232 -0.056844,0.18707 -0.056844,0.0837 -0.1508952,0.13746 0.064079,0.0248 0.1147217,0.0672 0.050643,0.0424 0.084749,0.0941 0.03514,0.0517 0.053744,0.11162 0.018603,0.0589 0.018603,0.11782 0,0.0971 -0.03514,0.17777 -0.03514,0.0806 -0.099219,0.13849 -0.063045,0.0568 -0.1519287,0.0889 -0.08785,0.032 -0.1943034,0.032 -0.1054199,0 -0.1932698,-0.032 -0.08785,-0.032 -0.1519287,-0.0889 -0.064079,-0.0579 -0.1002523,-0.13849 -0.03514,-0.0806 -0.03514,-0.17777 z m 0.1839681,-0.0145 q 0,0.0692 0.020671,0.12506 0.021704,0.0558 0.059945,0.0951 0.039274,0.0393 0.094051,0.061 0.055811,0.0207 0.1229899,0.0207 0.065112,0 0.1198894,-0.0217 0.054777,-0.0217 0.094051,-0.061 0.040308,-0.0393 0.062012,-0.0951 0.022738,-0.0558 0.022738,-0.12403 0,-0.062 -0.021704,-0.11575 -0.020671,-0.0548 -0.059945,-0.0961 -0.039274,-0.0413 -0.094051,-0.0651 -0.054777,-0.0238 -0.12299,-0.0238 -0.064079,0 -0.1188557,0.0227 -0.053743,0.0217 -0.094051,0.062 -0.039274,0.0393 -0.062012,0.0951 -0.022738,0.0548 -0.022739,0.12092 z m 0.05271,-0.68729 q 0,0.0527 0.018604,0.0982 0.019637,0.0444 0.05271,0.0786 0.034107,0.0331 0.078548,0.0527 0.044442,0.0186 0.095085,0.0186 0.050643,0 0.095085,-0.0196 0.045475,-0.0196 0.078548,-0.0527 0.033073,-0.0341 0.05271,-0.0786 0.019637,-0.0455 0.019637,-0.0971 0,-0.0537 -0.019637,-0.0992 -0.018603,-0.0455 -0.051676,-0.0786 -0.033073,-0.0331 -0.078548,-0.0517 -0.044442,-0.0196 -0.096118,-0.0196 -0.054777,0 -0.1002522,0.0196 -0.044442,0.0196 -0.077515,0.0538 -0.032039,0.0331 -0.049609,0.0785 -0.01757,0.0455 -0.01757,0.0971 z"
         style="font-size:2.11666656px;fill:#ffffff;stroke-width:0.26458332"
         id="path941"
         inkscape:connector-curvature="0" />
      <path
         d="M 5.0291502,213.13327 H 4.4648436 v -0.13333 h 0.5643066 z"
         style="font-size:2.11666656px;fill:#ffffff;stroke-width:0.26458332"
         id="path943"
         inkscape:connector-curvature="0" />
      <path
         d="M 5.5314451,213.65623 H 5.3578123 v -1.48208 h 0.1736328 z"
         style="font-size:2.11666656px;fill:#ffffff;stroke-width:0.26458332"
         id="path945"
         inkscape:connector-curvature="0" />
      <path
         d="M 7.114811,213.65623 H 6.9019041 L 6.13916,212.47491 q -0.028939,-0.0444 -0.047542,-0.093 h -0.0062 q 0.00827,0.0476 0.00827,0.20361 v 1.07073 H 5.9200519 v -1.48208 h 0.2253092 l 0.7420736,1.16272 q 0.046509,0.0724 0.059945,0.0992 h 0.00413 q -0.010335,-0.0641 -0.010335,-0.21807 v -1.04387 H 7.114811 Z"
         style="font-size:2.11666656px;fill:#ffffff;stroke-width:0.26458332"
         id="path947"
         inkscape:connector-curvature="0" />
      <path
         d="m 7.6770504,213.09606 v 0.56017 H 7.5034176 v -1.48208 h 0.4072103 q 0.2377115,0 0.3679361,0.11576 0.1312582,0.11576 0.1312582,0.32659 0,0.21084 -0.1457276,0.3452 -0.144694,0.13436 -0.3917073,0.13436 z m 0,-0.76481 v 0.60772 h 0.181901 q 0.179834,0 0.2738851,-0.0817 0.095085,-0.0827 0.095085,-0.23255 0,-0.29352 -0.3472656,-0.29352 z"
         style="font-size:2.11666656px;fill:#ffffff;stroke-width:0.26458332"
         id="path949"
         inkscape:connector-curvature="0" />
      <path
         d="m 9.7740801,213.05679 q 0,0.62425 -0.5632731,0.62425 -0.5395019,0 -0.5395019,-0.60048 v -0.90641 h 0.1736328 v 0.89504 q 0,0.45579 0.3844726,0.45579 0.3710368,0 0.3710368,-0.44029 v -0.91054 h 0.1736328 z"
         style="font-size:2.11666656px;fill:#ffffff;stroke-width:0.26458332"
         id="path951"
         inkscape:connector-curvature="0" />
      <path
         d="m 11.021549,212.33125 h -0.427881 v 1.32498 h -0.173632 v -1.32498 H 9.9931882 v -0.1571 h 1.0283608 z"
         style="font-size:2.11666656px;fill:#ffffff;stroke-width:0.26458332"
         id="path953"
         inkscape:connector-curvature="0" />
      <path
         d="m 12.979052,213.65623 h -0.192236 l -0.157097,-0.41547 h -0.628385 l -0.147795,0.41547 H 11.66027 l 0.56844,-1.48208 h 0.179834 z m -0.406177,-0.57154 -0.232544,-0.63148 q -0.01137,-0.031 -0.02274,-0.0992 h -0.0041 q -0.01034,0.063 -0.02377,0.0992 l -0.230477,0.63148 z"
         style="font-size:2.11666656px;fill:#ffffff;stroke-width:0.26458332"
         id="path955"
         inkscape:connector-curvature="0" />
      <path
         d="m 14.390852,213.65623 h -0.212907 l -0.762744,-1.18132 q -0.02894,-0.0444 -0.04754,-0.093 h -0.0062 q 0.0083,0.0476 0.0083,0.20361 v 1.07073 h -0.173633 v -1.48208 h 0.225309 l 0.742074,1.16272 q 0.04651,0.0724 0.05995,0.0992 h 0.0041 q -0.01034,-0.0641 -0.01034,-0.21807 v -1.04387 h 0.173633 z"
         style="font-size:2.11666656px;fill:#ffffff;stroke-width:0.26458332"
         id="path959"
         inkscape:connector-curvature="0" />
      <path
         d="m 14.779459,213.65623 v -1.48208 h 0.409277 q 0.783415,0 0.783415,0.72244 0,0.34313 -0.218075,0.55191 -0.217041,0.20773 -0.581877,0.20773 z m 0.173632,-1.32498 v 1.16789 h 0.221176 q 0.291455,0 0.453719,-0.15606 0.162264,-0.15607 0.162264,-0.44235 0,-0.56948 -0.605648,-0.56948 z"
         style="font-size:2.11666656px;fill:#ffffff;stroke-width:0.26458332"
         id="path961"
         inkscape:connector-curvature="0" />
      <path
         d="m 16.909561,212.17415 -0.711068,1.72806 h -0.158129 l 0.709,-1.72806 z"
         style="font-size:2.11666656px;fill:#ffffff;stroke-width:0.26458332"
         id="path963"
         inkscape:connector-curvature="0" />
      <path
         d="m 18.285188,213.65623 h -0.212907 l -0.762744,-1.18132 q -0.02894,-0.0444 -0.04754,-0.093 h -0.0062 q 0.0083,0.0476 0.0083,0.20361 v 1.07073 h -0.173633 v -1.48208 h 0.225309 l 0.742074,1.16272 q 0.04651,0.0724 0.05994,0.0992 h 0.0041 q -0.01034,-0.0641 -0.01034,-0.21807 v -1.04387 h 0.173633 z"
         style="font-size:2.11666656px;fill:#ffffff;stroke-width:0.26458332"
         id="path965"
         inkscape:connector-curvature="0" />
      <path
         d="m 19.821011,213.65623 h -0.192236 l -0.157097,-0.41547 h -0.628385 l -0.147795,0.41547 h -0.193269 l 0.56844,-1.48208 h 0.179834 z m -0.406177,-0.57154 -0.232544,-0.63148 q -0.01137,-0.031 -0.02274,-0.0992 h -0.0041 q -0.01034,0.063 -0.02377,0.0992 l -0.230477,0.63148 z"
         style="font-size:2.11666656px;fill:#ffffff;stroke-width:0.26458332"
         id="path967"
         inkscape:connector-curvature="0" />
      <path
         d="m 21.232811,213.65623 h -0.212907 l -0.762744,-1.18132 q -0.02894,-0.0444 -0.04754,-0.093 h -0.0062 q 0.0083,0.0476 0.0083,0.20361 v 1.07073 h -0.173633 v -1.48208 h 0.225309 l 0.742074,1.16272 q 0.04651,0.0724 0.05995,0.0992 h 0.0041 q -0.01034,-0.0641 -0.01034,-0.21807 v -1.04387 h 0.173633 z"
         style="font-size:2.11666656px;fill:#ffffff;stroke-width:0.26458332"
         id="path969"
         inkscape:connector-curvature="0" />
      <path
         d="m 21.621419,213.65623 v -1.48208 h 0.409277 q 0.783415,0 0.783415,0.72244 0,0.34313 -0.218075,0.55191 -0.217041,0.20773 -0.581877,0.20773 z m 0.173632,-1.32498 v 1.16789 h 0.221175 q 0.291456,0 0.45372,-0.15606 0.162264,-0.15607 0.162264,-0.44235 0,-0.56948 -0.605648,-0.56948 z"
         style="font-size:2.11666656px;fill:#ffffff;stroke-width:0.26458332"
         id="path971"
         inkscape:connector-curvature="0" />
      <path
         d="m 24.792285,213.55495 q -0.223243,0.12609 -0.496094,0.12609 -0.317293,0 -0.513664,-0.20464 -0.195337,-0.20464 -0.195337,-0.54157 0,-0.34416 0.217041,-0.5643 0.218075,-0.22118 0.551905,-0.22118 0.241845,0 0.406176,0.0786 v 0.19223 q -0.179834,-0.11368 -0.425813,-0.11368 -0.249081,0 -0.408244,0.17156 -0.159164,0.17157 -0.159164,0.44442 0,0.28112 0.147795,0.44235 0.147795,0.1602 0.401009,0.1602 0.173633,0 0.300757,-0.0693 v -0.41548 h -0.324528 v -0.15709 h 0.498161 z"
         style="font-size:2.11666656px;fill:#ffffff;stroke-width:0.26458332"
         id="path973"
         inkscape:connector-curvature="0" />
      <path
         d="m 26.282631,213.65623 h -0.192236 l -0.157096,-0.41547 h -0.628386 l -0.147794,0.41547 h -0.19327 l 0.568441,-1.48208 h 0.179834 z m -0.406176,-0.57154 -0.232544,-0.63148 q -0.01137,-0.031 -0.02274,-0.0992 h -0.0041 q -0.01033,0.063 -0.02377,0.0992 l -0.230477,0.63148 z"
         style="font-size:2.11666656px;fill:#ffffff;stroke-width:0.26458332"
         id="path975"
         inkscape:connector-curvature="0" />
      <path
         d="m 27.301691,212.33125 h -0.42788 v 1.32498 h -0.173633 v -1.32498 h -0.426847 v -0.1571 h 1.02836 z"
         style="font-size:2.11666656px;fill:#ffffff;stroke-width:0.26458332"
         id="path978"
         inkscape:connector-curvature="0" />
      <path
         d="m 28.318684,213.65623 h -0.785482 v -1.48208 h 0.752409 v 0.1571 h -0.578776 v 0.49299 h 0.535367 v 0.15607 h -0.535367 v 0.51883 h 0.611849 z"
         style="font-size:2.11666656px;fill:#ffffff;stroke-width:0.26458332"
         id="path980"
         inkscape:connector-curvature="0" />
    </g>
  </g>
  <g
     inkscape:groupmode="layer"
     id="layer2"
     inkscape:label="Grid"
     style="display:none"
     sodipodi:insensitive="true">
    <g
       style="display:inline;stroke:#ffffff"
       id="g2708">
      <path
         style="fill:none;stroke:#ffffff;stroke-width:0.05;stroke-linecap:butt;stroke-linejoin:miter;stroke-miterlimit:4;stroke-dasharray:none;stroke-opacity:1"
         d="M 7.9375007,-5.0001865e-6 7.9374977,100.54166"
         id="path881-8-8-2"
         inkscape:connector-curvature="0"
         sodipodi:nodetypes="cc" />
      <path
         sodipodi:nodetypes="cc"
         inkscape:connector-curvature="0"
         id="path890-2-5-0"
         d="M 3.9687527,4.9998135e-6 3.9687487,100.54167"
         style="fill:none;stroke:#ffffff;stroke-width:0.05;stroke-linecap:butt;stroke-linejoin:miter;stroke-miterlimit:4;stroke-dasharray:none;stroke-opacity:1" />
      <path
         style="fill:none;stroke:#ffffff;stroke-width:0.05;stroke-linecap:butt;stroke-linejoin:miter;stroke-miterlimit:4;stroke-dasharray:none;stroke-opacity:1"
         d="M 11.906254,4.9998135e-6 11.90625,100.54167"
         id="path895-1-5-2"
         inkscape:connector-curvature="0"
         sodipodi:nodetypes="cc" />
      <path
         sodipodi:nodetypes="cc"
         inkscape:connector-curvature="0"
         id="path1107-7"
         d="M 7.2598426e-7,50.270605 15.875001,50.271066"
         style="fill:none;stroke:#ffffff;stroke-width:0.05;stroke-linecap:butt;stroke-linejoin:miter;stroke-miterlimit:4;stroke-dasharray:none;stroke-opacity:1" />
      <circle
         r="4.0999999"
         cy="50.270832"
         cx="7.9523048"
         id="circle1018-7"
         style="display:inline;opacity:1;fill:none;fill-opacity:1;stroke:#ffffff;stroke-width:0.05;stroke-linecap:square;stroke-linejoin:round;stroke-miterlimit:4;stroke-dasharray:none;stroke-dashoffset:0;stroke-opacity:1;paint-order:markers fill stroke" />
      <circle
         style="display:inline;opacity:1;fill:none;fill-opacity:1;stroke:#ffffff;stroke-width:0.05172414;stroke-linecap:square;stroke-linejoin:round;stroke-miterlimit:4;stroke-dasharray:none;stroke-dashoffset:0;stroke-opacity:1;paint-order:markers fill stroke"
         id="circle977-3"
         cx="7.9360805"
         cy="50.270832"
         r="5.4741378" />
      <path
         style="fill:none;stroke:#ffffff;stroke-width:0.05;stroke-linecap:butt;stroke-linejoin:miter;stroke-miterlimit:4;stroke-dasharray:none;stroke-opacity:1"
         d="M 7.2598426e-7,33.601974 15.875001,33.602435"
         id="path1010"
         inkscape:connector-curvature="0"
         sodipodi:nodetypes="cc" />
      <circle
         style="display:inline;opacity:1;fill:none;fill-opacity:1;stroke:#ffffff;stroke-width:0.05;stroke-linecap:square;stroke-linejoin:round;stroke-miterlimit:4;stroke-dasharray:none;stroke-dashoffset:0;stroke-opacity:1;paint-order:markers fill stroke"
         id="circle1012"
         cx="7.9523048"
         cy="33.602142"
         r="4.0999999" />
      <circle
         r="5.4741378"
         cy="33.602142"
         cx="7.9360805"
         id="circle1015"
         style="display:inline;opacity:1;fill:none;fill-opacity:1;stroke:#ffffff;stroke-width:0.05172414;stroke-linecap:square;stroke-linejoin:round;stroke-miterlimit:4;stroke-dasharray:none;stroke-dashoffset:0;stroke-opacity:1;paint-order:markers fill stroke" />
      <path
         style="fill:none;stroke:#ffffff;stroke-width:0.05;stroke-linecap:butt;stroke-linejoin:miter;stroke-miterlimit:4;stroke-dasharray:none;stroke-opacity:1"
         d="M 7.2598426e-7,66.940056 15.875001,66.940517"
         id="path1017"
         inkscape:connector-curvature="0"
         sodipodi:nodetypes="cc" />
      <circle
         style="display:inline;opacity:1;fill:none;fill-opacity:1;stroke:#ffffff;stroke-width:0.05;stroke-linecap:square;stroke-linejoin:round;stroke-miterlimit:4;stroke-dasharray:none;stroke-dashoffset:0;stroke-opacity:1;paint-order:markers fill stroke"
         id="circle1019"
         cx="7.9523048"
         cy="66.940338"
         r="4.0999999" />
      <circle
         r="5.4741378"
         cy="66.940338"
         cx="7.9360805"
         id="circle1021"
         style="display:inline;opacity:1;fill:none;fill-opacity:1;stroke:#ffffff;stroke-width:0.05172414;stroke-linecap:square;stroke-linejoin:round;stroke-miterlimit:4;stroke-dasharray:none;stroke-dashoffset:0;stroke-opacity:1;paint-order:markers fill stroke" />
      <path
         sodipodi:nodetypes="cc"
         inkscape:connector-curvature="0"
         id="path1023"
         d="M 7.2598426e-7,83.608108 15.875001,83.608569"
         style="fill:none;stroke:#ffffff;stroke-width:0.05;stroke-linecap:butt;stroke-linejoin:miter;stroke-miterlimit:4;stroke-dasharray:none;stroke-opacity:1" />
      <circle
         r="4.0999999"
         cy="83.60833"
         cx="7.9523048"
         id="circle1025"
         style="display:inline;opacity:1;fill:none;fill-opacity:1;stroke:#ffffff;stroke-width:0.05;stroke-linecap:square;stroke-linejoin:round;stroke-miterlimit:4;stroke-dasharray:none;stroke-dashoffset:0;stroke-opacity:1;paint-order:markers fill stroke" />
      <circle
         style="display:inline;opacity:1;fill:none;fill-opacity:1;stroke:#ffffff;stroke-width:0.05172414;stroke-linecap:square;stroke-linejoin:round;stroke-miterlimit:4;stroke-dasharray:none;stroke-dashoffset:0;stroke-opacity:1;paint-order:markers fill stroke"
         id="circle1027"
         cx="7.9360805"
         cy="83.60833"
         r="5.4741378" />
      <path
         sodipodi:nodetypes="cc"
         inkscape:connector-curvature="0"
         id="path1029"
         d="M 7.2598426e-7,16.933102 15.875001,16.933563"
         style="fill:none;stroke:#ffffff;stroke-width:0.05;stroke-linecap:butt;stroke-linejoin:miter;stroke-miterlimit:4;stroke-dasharray:none;stroke-opacity:1" />
      <circle
         r="4.0999999"
         cy="16.933331"
         cx="7.9523048"
         id="circle1031"
         style="display:inline;opacity:1;fill:none;fill-opacity:1;stroke:#ffffff;stroke-width:0.05;stroke-linecap:square;stroke-linejoin:round;stroke-miterlimit:4;stroke-dasharray:none;stroke-dashoffset:0;stroke-opacity:1;paint-order:markers fill stroke" />
      <circle
         style="display:inline;opacity:1;fill:none;fill-opacity:1;stroke:#ffffff;stroke-width:0.05172414;stroke-linecap:square;stroke-linejoin:round;stroke-miterlimit:4;stroke-dasharray:none;stroke-dashoffset:0;stroke-opacity:1;paint-order:markers fill stroke"
         id="circle1033"
         cx="7.9360805"
         cy="16.933331"
         r="5.4741378" />
    </g>
    <g
       id="g1866"
       style="display:inline;stroke:#ffffff"
       transform="translate(15.874998)">
      <path
         sodipodi:nodetypes="cc"
         inkscape:connector-curvature="0"
         id="path1830"
         d="M 7.9375007,-5.0001865e-6 7.9374977,100.54166"
         style="fill:none;stroke:#ffffff;stroke-width:0.05;stroke-linecap:butt;stroke-linejoin:miter;stroke-miterlimit:4;stroke-dasharray:none;stroke-opacity:1" />
      <path
         style="fill:none;stroke:#ffffff;stroke-width:0.05;stroke-linecap:butt;stroke-linejoin:miter;stroke-miterlimit:4;stroke-dasharray:none;stroke-opacity:1"
         d="M 3.9687527,4.9998135e-6 3.9687487,100.54167"
         id="path1832"
         inkscape:connector-curvature="0"
         sodipodi:nodetypes="cc" />
      <path
         sodipodi:nodetypes="cc"
         inkscape:connector-curvature="0"
         id="path1834"
         d="M 11.906254,4.9998135e-6 11.90625,100.54167"
         style="fill:none;stroke:#ffffff;stroke-width:0.05;stroke-linecap:butt;stroke-linejoin:miter;stroke-miterlimit:4;stroke-dasharray:none;stroke-opacity:1" />
      <path
         style="fill:none;stroke:#ffffff;stroke-width:0.05;stroke-linecap:butt;stroke-linejoin:miter;stroke-miterlimit:4;stroke-dasharray:none;stroke-opacity:1"
         d="M 7.2598426e-7,50.270605 15.875001,50.271066"
         id="path1836"
         inkscape:connector-curvature="0"
         sodipodi:nodetypes="cc" />
      <circle
         style="display:inline;opacity:1;fill:none;fill-opacity:1;stroke:#ffffff;stroke-width:0.05;stroke-linecap:square;stroke-linejoin:round;stroke-miterlimit:4;stroke-dasharray:none;stroke-dashoffset:0;stroke-opacity:1;paint-order:markers fill stroke"
         id="circle1838"
         cx="7.9523048"
         cy="50.270832"
         r="4.0999999" />
      <circle
         r="5.4741378"
         cy="50.270832"
         cx="7.9360805"
         id="circle1840"
         style="display:inline;opacity:1;fill:none;fill-opacity:1;stroke:#ffffff;stroke-width:0.05172414;stroke-linecap:square;stroke-linejoin:round;stroke-miterlimit:4;stroke-dasharray:none;stroke-dashoffset:0;stroke-opacity:1;paint-order:markers fill stroke" />
      <path
         sodipodi:nodetypes="cc"
         inkscape:connector-curvature="0"
         id="path1842"
         d="M 7.2598426e-7,33.601974 15.875001,33.602435"
         style="fill:none;stroke:#ffffff;stroke-width:0.05;stroke-linecap:butt;stroke-linejoin:miter;stroke-miterlimit:4;stroke-dasharray:none;stroke-opacity:1" />
      <circle
         r="4.0999999"
         cy="33.602142"
         cx="7.9523048"
         id="circle1844"
         style="display:inline;opacity:1;fill:none;fill-opacity:1;stroke:#ffffff;stroke-width:0.05;stroke-linecap:square;stroke-linejoin:round;stroke-miterlimit:4;stroke-dasharray:none;stroke-dashoffset:0;stroke-opacity:1;paint-order:markers fill stroke" />
      <circle
         style="display:inline;opacity:1;fill:none;fill-opacity:1;stroke:#ffffff;stroke-width:0.05172414;stroke-linecap:square;stroke-linejoin:round;stroke-miterlimit:4;stroke-dasharray:none;stroke-dashoffset:0;stroke-opacity:1;paint-order:markers fill stroke"
         id="circle1846"
         cx="7.9360805"
         cy="33.602142"
         r="5.4741378" />
      <path
         sodipodi:nodetypes="cc"
         inkscape:connector-curvature="0"
         id="path1848"
         d="M 7.2598426e-7,66.940056 15.875001,66.940517"
         style="fill:none;stroke:#ffffff;stroke-width:0.05;stroke-linecap:butt;stroke-linejoin:miter;stroke-miterlimit:4;stroke-dasharray:none;stroke-opacity:1" />
      <circle
         r="4.0999999"
         cy="66.940338"
         cx="7.9523048"
         id="circle1850"
         style="display:inline;opacity:1;fill:none;fill-opacity:1;stroke:#ffffff;stroke-width:0.05;stroke-linecap:square;stroke-linejoin:round;stroke-miterlimit:4;stroke-dasharray:none;stroke-dashoffset:0;stroke-opacity:1;paint-order:markers fill stroke" />
      <circle
         style="display:inline;opacity:1;fill:none;fill-opacity:1;stroke:#ffffff;stroke-width:0.05172414;stroke-linecap:square;stroke-linejoin:round;stroke-miterlimit:4;stroke-dasharray:none;stroke-dashoffset:0;stroke-opacity:1;paint-order:markers fill stroke"
         id="circle1852"
         cx="7.9360805"
         cy="66.940338"
         r="5.4741378" />
      <path
         style="fill:none;stroke:#ffffff;stroke-width:0.05;stroke-linecap:butt;stroke-linejoin:miter;stroke-miterlimit:4;stroke-dasharray:none;stroke-opacity:1"
         d="M 7.2598426e-7,83.608108 15.875001,83.608569"
         id="path1854"
         inkscape:connector-curvature="0"
         sodipodi:nodetypes="cc" />
      <circle
         style="display:inline;opacity:1;fill:none;fill-opacity:1;stroke:#ffffff;stroke-width:0.05;stroke-linecap:square;stroke-linejoin:round;stroke-miterlimit:4;stroke-dasharray:none;stroke-dashoffset:0;stroke-opacity:1;paint-order:markers fill stroke"
         id="circle1856"
         cx="7.9523048"
         cy="83.60833"
         r="4.0999999" />
      <circle
         r="5.4741378"
         cy="83.60833"
         cx="7.9360805"
         id="circle1858"
         style="display:inline;opacity:1;fill:none;fill-opacity:1;stroke:#ffffff;stroke-width:0.05172414;stroke-linecap:square;stroke-linejoin:round;stroke-miterlimit:4;stroke-dasharray:none;stroke-dashoffset:0;stroke-opacity:1;paint-order:markers fill stroke" />
      <path
         style="fill:none;stroke:#ffffff;stroke-width:0.05;stroke-linecap:butt;stroke-linejoin:miter;stroke-miterlimit:4;stroke-dasharray:none;stroke-opacity:1"
         d="M 7.2598426e-7,16.933102 15.875001,16.933563"
         id="path1860"
         inkscape:connector-curvature="0"
         sodipodi:nodetypes="cc" />
      <circle
         style="display:inline;opacity:1;fill:none;fill-opacity:1;stroke:#ffffff;stroke-width:0.05;stroke-linecap:square;stroke-linejoin:round;stroke-miterlimit:4;stroke-dasharray:none;stroke-dashoffset:0;stroke-opacity:1;paint-order:markers fill stroke"
         id="circle1862"
         cx="7.9523048"
         cy="16.933331"
         r="4.0999999" />
      <circle
         r="5.4741378"
         cy="16.933331"
         cx="7.9360805"
         id="circle1864"
         style="display:inline;opacity:1;fill:none;fill-opacity:1;stroke:#ffffff;stroke-width:0.05172414;stroke-linecap:square;stroke-linejoin:round;stroke-miterlimit:4;stroke-dasharray:none;stroke-dashoffset:0;stroke-opacity:1;paint-order:markers fill stroke" />
    </g>
  </g>
</svg>
