<?xml version="1.0" encoding="UTF-8" standalone="no"?>
<!-- Created with Inkscape (http://www.inkscape.org/) -->

<svg
   xmlns:dc="http://purl.org/dc/elements/1.1/"
   xmlns:cc="http://creativecommons.org/ns#"
   xmlns:rdf="http://www.w3.org/1999/02/22-rdf-syntax-ns#"
   xmlns:svg="http://www.w3.org/2000/svg"
   xmlns="http://www.w3.org/2000/svg"
   xmlns:sodipodi="http://sodipodi.sourceforge.net/DTD/sodipodi-0.dtd"
   xmlns:inkscape="http://www.inkscape.org/namespaces/inkscape"
   width="180"
   height="380"
   viewBox="0 0 47.625004 100.54167"
   version="1.1"
   id="svg8"
   inkscape:version="0.92.4 (5da689c313, 2019-01-14)"
   sodipodi:docname="CD4042.svg">
  <defs
     id="defs2" />
  <sodipodi:namedview
     id="base"
     pagecolor="#ffffff"
     bordercolor="#666666"
     borderopacity="1.0"
     inkscape:pageopacity="0.0"
     inkscape:pageshadow="2"
     inkscape:zoom="2.2789474"
     inkscape:cx="83.571355"
     inkscape:cy="190.67515"
     inkscape:document-units="mm"
     inkscape:current-layer="layer1"
     showgrid="true"
     units="px"
     inkscape:snap-bbox="true"
     inkscape:snap-page="true"
     inkscape:bbox-nodes="true"
     inkscape:snap-bbox-edge-midpoints="true"
     inkscape:window-width="1920"
     inkscape:window-height="1017"
     inkscape:window-x="-8"
     inkscape:window-y="-8"
     inkscape:window-maximized="1">
    <inkscape:grid
       type="xygrid"
       id="grid116" />
  </sodipodi:namedview>
  <metadata
     id="metadata5">
    <rdf:RDF>
      <cc:Work
         rdf:about="">
        <dc:format>image/svg+xml</dc:format>
        <dc:type
           rdf:resource="http://purl.org/dc/dcmitype/StillImage" />
        <dc:title />
      </cc:Work>
    </rdf:RDF>
  </metadata>
  <g
     inkscape:groupmode="layer"
     id="layer3"
     inkscape:label="Panel"
     sodipodi:insensitive="true">
    <path
       sodipodi:type="inkscape:offset"
       inkscape:radius="0"
       inkscape:original="M 0 196.45898 L 0 297 L 15.875 297 L 15.875 196.45898 L 0 196.45898 z "
       style="fill:#894c26;fill-opacity:1;stroke-width:0.3310422"
       id="rect3855"
       d="M 0,196.45898 V 297 H 15.875 V 196.45898 Z"
       transform="matrix(3,0,0,1.0000064,0,-196.46023)" />
  </g>
  <g
     inkscape:label="Layer 1"
     inkscape:groupmode="layer"
     id="layer1"
     transform="translate(0,-196.45832)"
     style="display:inline">
    <text
       xml:space="preserve"
       style="font-style:normal;font-weight:normal;font-size:2.82222223px;line-height:1.25;font-family:sans-serif;letter-spacing:0px;word-spacing:0px;fill:#000000;fill-opacity:1;stroke:none;stroke-width:0.26458332"
       x="17.197916"
       y="201.74998"
       id="text3821"><tspan
         sodipodi:role="line"
         id="tspan3819"
         x="17.197916"
         y="204.24699"
         style="stroke-width:0.26458332" /></text>
    <g
       id="g4342"
       transform="translate(7.9374999)">
      <g
         transform="translate(-9.481569,1.7166648)"
         id="text956"
         style="font-style:normal;font-variant:normal;font-weight:normal;font-stretch:normal;font-size:2.82222223px;line-height:1.25;font-family:'Copperplate Gothic Light';-inkscape-font-specification:'Copperplate Gothic Light, ';letter-spacing:0px;word-spacing:0px;fill:#ffe4b3;fill-opacity:1;stroke:#ffe4b3;stroke-width:0.2;stroke-miterlimit:4;stroke-dasharray:none;stroke-opacity:1"
         aria-label="/^M^\">
        <path
           inkscape:connector-curvature="0"
           id="path958"
           style="font-style:normal;font-variant:normal;font-weight:normal;font-stretch:normal;font-size:2.82222223px;line-height:1.25;font-family:'Copperplate Gothic Light';-inkscape-font-specification:'Copperplate Gothic Light, ';fill:#ffe4b3;stroke:#ffe4b3;stroke-width:0.2;stroke-miterlimit:4;stroke-dasharray:none;stroke-opacity:1"
           d="m 21.203855,291.40545 v 0.0386 h -0.434082 v -0.0386 q 0.09509,-0.006 0.224621,-0.17088 l 1.094162,-1.4621 q 0.07441,-0.1006 0.07441,-0.12402 0,-0.0372 -0.06615,-0.0482 v -0.0372 h 0.423058 v 0.0372 q -0.09508,0.006 -0.22462,0.17087 l -1.08176,1.46348 q -0.07579,0.10197 -0.07579,0.12402 0,0.0358 0.06615,0.0469 z" />
        <path
           inkscape:connector-curvature="0"
           id="path960"
           style="font-style:normal;font-variant:normal;font-weight:normal;font-stretch:normal;font-size:2.82222223px;line-height:1.25;font-family:'Copperplate Gothic Light';-inkscape-font-specification:'Copperplate Gothic Light, ';fill:#ffe4b3;stroke:#ffe4b3;stroke-width:0.2;stroke-miterlimit:4;stroke-dasharray:none;stroke-opacity:1"
           d="M 22.940183,290.3857 H 22.73899 l 0.493338,-0.8282 h 0.243912 l 0.493338,0.8282 h -0.20395 l -0.413411,-0.68075 z" />
        <path
           inkscape:connector-curvature="0"
           id="path962"
           style="font-style:normal;font-variant:normal;font-weight:normal;font-stretch:normal;font-size:2.82222223px;line-height:1.25;font-family:'Copperplate Gothic Light';-inkscape-font-specification:'Copperplate Gothic Light, ';fill:#ffe4b3;stroke:#ffe4b3;stroke-width:0.2;stroke-miterlimit:4;stroke-dasharray:none;stroke-opacity:1"
           d="m 25.342104,291.44403 -0.789616,-1.58061 v 1.418 q 0,0.0565 0.01791,0.0813 0.01791,0.0234 0.07028,0.0372 v 0.0441 h -0.373449 v -0.0441 q 0.05237,-0.0138 0.07028,-0.0372 0.01792,-0.0234 0.01792,-0.0813 v -1.5558 q 0,-0.0579 -0.01792,-0.0813 -0.01791,-0.0248 -0.07028,-0.0372 v -0.0441 h 0.487826 v 0.0441 q -0.06752,0.0234 -0.06752,0.0579 0,0.0165 0.04547,0.10611 l 0.62563,1.24161 0.628385,-1.25263 q 0.03307,-0.0661 0.03307,-0.0937 0,-0.0358 -0.06752,-0.0593 v -0.0441 h 0.49196 v 0.0441 q -0.05237,0.0138 -0.07028,0.0372 -0.01792,0.0234 -0.01792,0.0813 v 1.5558 q 0,0.0565 0.01792,0.0813 0.01791,0.0234 0.07028,0.0372 v 0.0441 h -0.392741 v -0.0441 q 0.05374,-0.0138 0.07028,-0.0372 0.01791,-0.0234 0.01791,-0.0813 v -1.418 z" />
        <path
           inkscape:connector-curvature="0"
           id="path964"
           style="font-style:normal;font-variant:normal;font-weight:normal;font-stretch:normal;font-size:2.82222223px;line-height:1.25;font-family:'Copperplate Gothic Light';-inkscape-font-specification:'Copperplate Gothic Light, ';fill:#ffe4b3;stroke:#ffe4b3;stroke-width:0.2;stroke-miterlimit:4;stroke-dasharray:none;stroke-opacity:1"
           d="m 26.942006,290.3857 h -0.201193 l 0.493338,-0.8282 h 0.243912 l 0.493338,0.8282 h -0.20395 l -0.413411,-0.68075 z" />
        <path
           inkscape:connector-curvature="0"
           id="path966"
           style="font-style:normal;font-variant:normal;font-weight:normal;font-stretch:normal;font-size:2.82222223px;line-height:1.25;font-family:'Copperplate Gothic Light';-inkscape-font-specification:'Copperplate Gothic Light, ';fill:#ffe4b3;stroke:#ffe4b3;stroke-width:0.2;stroke-miterlimit:4;stroke-dasharray:none;stroke-opacity:1"
           d="m 28.617701,289.56301 v 0.0372 q -0.06615,0.011 -0.06615,0.0482 0,0.0234 0.07441,0.12402 l 1.092784,1.4621 q 0.129536,0.16536 0.22462,0.17088 v 0.0386 h -0.434082 v -0.0386 q 0.06615,-0.011 0.06615,-0.0469 0,-0.0207 -0.07579,-0.12402 l -1.080382,-1.46348 q -0.129535,-0.16536 -0.22462,-0.17087 v -0.0372 z" />
      </g>
      <g
         id="text924"
         style="font-style:normal;font-variant:normal;font-weight:normal;font-stretch:normal;font-size:2.97226882px;line-height:1.25;font-family:'Yu Gothic UI';-inkscape-font-specification:'Yu Gothic UI';letter-spacing:0px;word-spacing:0px;fill:#ffe4b3;fill-opacity:1;stroke:none;stroke-width:0.24768905"
         aria-label="LUNETTA">
        <path
           id="path892"
           style="font-size:2.97226882px;fill:#ffe4b3;stroke-width:0.24768905"
           d="M 11.061028,295.90683 H 9.9812581 v -2.08117 h 0.2438189 v 1.86057 h 0.835951 z"
           inkscape:connector-curvature="0" />
        <path
           id="path894"
           style="font-size:2.97226882px;fill:#ffe4b3;stroke-width:0.24768905"
           d="m 12.902731,295.06507 q 0,0.87659 -0.79096,0.87659 -0.75758,0 -0.75758,-0.84321 v -1.27279 h 0.243819 v 1.25683 q 0,0.64002 0.539885,0.64002 0.521017,0 0.521017,-0.61825 v -1.2786 h 0.243819 z"
           inkscape:connector-curvature="0" />
        <path
           id="path896"
           style="font-size:2.97226882px;fill:#ffe4b3;stroke-width:0.24768905"
           d="m 15.101456,295.90683 h -0.298969 l -1.071062,-1.65884 q -0.04064,-0.0624 -0.06676,-0.13062 h -0.0087 q 0.01161,0.0668 0.01161,0.28591 v 1.50355 h -0.243819 v -2.08117 h 0.316384 l 1.042036,1.63272 q 0.06531,0.10159 0.08418,0.13932 h 0.0058 q -0.01451,-0.09 -0.01451,-0.30622 v -1.46582 h 0.243819 z"
           inkscape:connector-curvature="0" />
        <path
           id="path898"
           style="font-size:2.97226882px;fill:#ffe4b3;stroke-width:0.24768905"
           d="m 16.750136,295.90683 h -1.102991 v -2.08117 h 1.056549 v 0.2206 h -0.81273 v 0.69227 h 0.751775 v 0.21915 h -0.751775 v 0.72855 h 0.859172 z"
           inkscape:connector-curvature="0" />
        <path
           id="path900"
           style="font-size:2.97226882px;fill:#ffe4b3;stroke-width:0.24768905"
           d="m 18.381401,294.04626 h -0.60084 v 1.86057 h -0.243819 v -1.86057 h -0.599388 v -0.2206 h 1.444047 z"
           inkscape:connector-curvature="0" />
        <path
           id="path902"
           style="font-size:2.97226882px;fill:#ffe4b3;stroke-width:0.24768905"
           d="m 19.937197,294.04626 h -0.600839 v 1.86057 h -0.243819 v -1.86057 h -0.599388 v -0.2206 h 1.444046 z"
           inkscape:connector-curvature="0" />
        <path
           id="path904"
           style="font-size:2.97226882px;fill:#ffe4b3;stroke-width:0.24768905"
           d="M 21.768742,295.90683 H 21.4988 l -0.220598,-0.58342 h -0.882393 l -0.207536,0.58342 h -0.271394 l 0.798217,-2.08117 h 0.252527 z m -0.570362,-0.80257 -0.326543,-0.88675 q -0.01596,-0.0435 -0.03193,-0.13932 h -0.0058 q -0.01451,0.0885 -0.03338,0.13932 l -0.323641,0.88675 z"
           inkscape:connector-curvature="0" />
      </g>
    </g>
    <path
       style="fill:none;stroke:#ffe4b3;stroke-width:0.26458332px;stroke-linecap:butt;stroke-linejoin:miter;stroke-opacity:1"
       d="M 2.6458333,220.5354 H 44.979167"
       id="path1198"
       inkscape:connector-curvature="0"
       sodipodi:nodetypes="cc" />
    <text
       xml:space="preserve"
       style="font-style:normal;font-variant:normal;font-weight:normal;font-stretch:normal;font-size:2.82222223px;line-height:1.25;font-family:'Yu Gothic UI';-inkscape-font-specification:'Yu Gothic UI';letter-spacing:0px;word-spacing:0px;fill:#000000;fill-opacity:1;stroke:none;stroke-width:0.26458332"
       x="5.2916665"
       y="283.77081"
       id="text1036"><tspan
         sodipodi:role="line"
         id="tspan1034"
         x="5.2916665"
         y="286.31293"
         style="stroke-width:0.26458332" /></text>
    <path
       sodipodi:nodetypes="cc"
       inkscape:connector-curvature="0"
       id="path2035"
       d="M 2.6458333,237.20416 H 44.979167"
       style="fill:none;stroke:#ffe4b3;stroke-width:0.26458332px;stroke-linecap:butt;stroke-linejoin:miter;stroke-opacity:1" />
    <path
       style="fill:none;stroke:#ffe4b3;stroke-width:0.26458332px;stroke-linecap:butt;stroke-linejoin:miter;stroke-opacity:1"
       d="M 2.6458333,253.8729 H 44.979167"
       id="path2037"
       inkscape:connector-curvature="0"
       sodipodi:nodetypes="cc" />
    <path
       sodipodi:nodetypes="cc"
       inkscape:connector-curvature="0"
       id="path2189"
       d="M 2.6458333,270.54187 H 44.979167"
       style="fill:none;stroke:#ffe4b3;stroke-width:0.26458332px;stroke-linecap:butt;stroke-linejoin:miter;stroke-opacity:1" />
    <g
       aria-label="QUAD CLOCKED &quot;D&quot; LATCH"
       style="font-style:normal;font-variant:normal;font-weight:normal;font-stretch:normal;font-size:2.11666656px;line-height:1.25;font-family:'Yu Gothic UI';-inkscape-font-specification:'Yu Gothic UI';letter-spacing:0px;word-spacing:0px;fill:#ffe4b3;fill-opacity:1;stroke:none;stroke-width:0.26458332"
       id="text987"
       transform="translate(1.6288417,-3.5201764)">
      <path
         d="m 10.0521,205.74354 q -0.3141928,0 -0.5053956,-0.20774 -0.1891357,-0.20774 -0.1891357,-0.54054 0,-0.35863 0.1932698,-0.5705 0.1943034,-0.21291 0.5260665,-0.21291 0.305924,0 0.494026,0.20671 0.188102,0.2067 0.188102,0.54053 0,0.36277 -0.192236,0.57361 -0.04547,0.0506 -0.09715,0.0868 l 0.416512,0.29869 h -0.315226 l -0.279052,-0.20878 q -0.109555,0.0341 -0.239779,0.0341 z m 0.0124,-1.37459 q -0.2335772,0 -0.3793048,0.16846 -0.1457275,0.16847 -0.1457275,0.44235 0,0.27285 0.1415934,0.44132 0.142627,0.1664 0.3710369,0.1664 0.243913,0 0.384473,-0.15917 0.140559,-0.15916 0.140559,-0.44545 0,-0.29455 -0.136425,-0.45372 -0.136426,-0.16019 -0.376205,-0.16019 z"
         style="font-size:2.11666656px;fill:#ffe4b3;stroke-width:0.26458332"
         id="path989"
         inkscape:connector-curvature="0" />
      <path
         d="m 12.13466,205.11929 q 0,0.62425 -0.563273,0.62425 -0.539502,0 -0.539502,-0.60048 v -0.90641 h 0.173633 v 0.89504 q 0,0.45579 0.384472,0.45579 0.371037,0 0.371037,-0.44029 v -0.91054 h 0.173633 z"
         style="font-size:2.11666656px;fill:#ffe4b3;stroke-width:0.26458332"
         id="path991"
         inkscape:connector-curvature="0" />
      <path
         d="m 13.652913,205.71873 h -0.192236 l -0.157096,-0.41547 h -0.628386 l -0.147794,0.41547 h -0.19327 l 0.568441,-1.48208 h 0.179834 z m -0.406176,-0.57154 -0.232544,-0.63148 q -0.01137,-0.031 -0.02274,-0.0992 h -0.0041 q -0.01033,0.063 -0.02377,0.0992 l -0.230477,0.63148 z"
         style="font-size:2.11666656px;fill:#ffe4b3;stroke-width:0.26458332"
         id="path993"
         inkscape:connector-curvature="0" />
      <path
         d="m 13.869954,205.71873 v -1.48208 h 0.409278 q 0.783414,0 0.783414,0.72244 0,0.34313 -0.218074,0.55191 -0.217041,0.20773 -0.581877,0.20773 z m 0.173633,-1.32498 v 1.16789 h 0.221175 q 0.291455,0 0.453719,-0.15606 0.162264,-0.15607 0.162264,-0.44235 0,-0.56948 -0.605647,-0.56948 z"
         style="font-size:2.11666656px;fill:#ffe4b3;stroke-width:0.26458332"
         id="path995"
         inkscape:connector-curvature="0" />
      <path
         d="m 16.941601,205.65672 q -0.164331,0.0868 -0.409277,0.0868 -0.31626,0 -0.506429,-0.20361 -0.190169,-0.2036 -0.190169,-0.53433 0,-0.35553 0.21394,-0.57464 0.213941,-0.21911 0.542603,-0.21911 0.210839,0 0.349332,0.061 v 0.185 q -0.159163,-0.0889 -0.351399,-0.0889 -0.255282,0 -0.414445,0.17053 -0.15813,0.17053 -0.15813,0.45578 0,0.27079 0.147794,0.43202 0.148828,0.1602 0.389641,0.1602 0.223242,0 0.386539,-0.0992 z"
         style="font-size:2.11666656px;fill:#ffe4b3;stroke-width:0.26458332"
         id="path997"
         inkscape:connector-curvature="0" />
      <path
         d="m 18.012337,205.71873 h -0.768945 v -1.48208 h 0.173633 v 1.32499 h 0.595312 z"
         style="font-size:2.11666656px;fill:#ffe4b3;stroke-width:0.26458332"
         id="path999"
         inkscape:connector-curvature="0" />
      <path
         d="m 18.816422,205.74354 q -0.315226,0 -0.505395,-0.20774 -0.189136,-0.20774 -0.189136,-0.54054 0,-0.3576 0.19327,-0.5705 0.19327,-0.21291 0.526066,-0.21291 0.306958,0 0.494027,0.20671 0.188102,0.2067 0.188102,0.54053 0,0.36277 -0.192237,0.57361 -0.192236,0.21084 -0.514697,0.21084 z m 0.0124,-1.37459 q -0.233578,0 -0.379305,0.16846 -0.145728,0.16847 -0.145728,0.44235 0,0.27389 0.141593,0.44132 0.142627,0.1664 0.371037,0.1664 0.243913,0 0.384473,-0.15917 0.14056,-0.15916 0.14056,-0.44545 0,-0.29352 -0.136426,-0.45372 -0.136426,-0.16019 -0.376204,-0.16019 z"
         style="font-size:2.11666656px;fill:#ffe4b3;stroke-width:0.26458332"
         id="path1001"
         inkscape:connector-curvature="0" />
      <path
         d="m 20.823535,205.65672 q -0.164332,0.0868 -0.409278,0.0868 -0.31626,0 -0.506429,-0.20361 -0.190169,-0.2036 -0.190169,-0.53433 0,-0.35553 0.21394,-0.57464 0.213941,-0.21911 0.542603,-0.21911 0.21084,0 0.349333,0.061 v 0.185 q -0.159164,-0.0889 -0.3514,-0.0889 -0.255282,0 -0.414445,0.17053 -0.15813,0.17053 -0.15813,0.45578 0,0.27079 0.147795,0.43202 0.148828,0.1602 0.38964,0.1602 0.223242,0 0.38654,-0.0992 z"
         style="font-size:2.11666656px;fill:#ffe4b3;stroke-width:0.26458332"
         id="path1003"
         inkscape:connector-curvature="0" />
      <path
         d="m 22.156787,205.71873 h -0.241846 l -0.572575,-0.67799 q -0.03204,-0.0382 -0.03927,-0.0517 h -0.0041 v 0.72967 h -0.173633 v -1.48208 h 0.173633 v 0.6966 h 0.0041 q 0.01447,-0.0227 0.03927,-0.0506 l 0.553971,-0.64596 h 0.216008 l -0.63562,0.71107 z"
         style="font-size:2.11666656px;fill:#ffe4b3;stroke-width:0.26458332"
         id="path1005"
         inkscape:connector-curvature="0" />
      <path
         d="m 23.138639,205.71873 h -0.785482 v -1.48208 h 0.752409 v 0.1571 H 22.52679 v 0.49299 h 0.535368 v 0.15607 H 22.52679 v 0.51883 h 0.611849 z"
         style="font-size:2.11666656px;fill:#ffe4b3;stroke-width:0.26458332"
         id="path1007"
         inkscape:connector-curvature="0" />
      <path
         d="m 23.423893,205.71873 v -1.48208 h 0.409277 q 0.783415,0 0.783415,0.72244 0,0.34313 -0.218075,0.55191 -0.217041,0.20773 -0.581876,0.20773 z m 0.173633,-1.32498 v 1.16789 h 0.221175 q 0.291455,0 0.453719,-0.15606 0.162264,-0.15607 0.162264,-0.44235 0,-0.56948 -0.605648,-0.56948 z"
         style="font-size:2.11666656px;fill:#ffe4b3;stroke-width:0.26458332"
         id="path1009"
         inkscape:connector-curvature="0" />
      <path
         d="m 25.610839,204.23665 v 0.46199 h -0.149862 v -0.46199 z m 0.343131,0 v 0.46199 h -0.149861 v -0.46199 z"
         style="font-size:2.11666656px;fill:#ffe4b3;stroke-width:0.26458332"
         id="path1011"
         inkscape:connector-curvature="0" />
      <path
         d="m 26.317773,205.71873 v -1.48208 h 0.409277 q 0.783415,0 0.783415,0.72244 0,0.34313 -0.218075,0.55191 -0.217041,0.20773 -0.581876,0.20773 z m 0.173633,-1.32498 v 1.16789 h 0.221175 q 0.291455,0 0.453719,-0.15606 0.162264,-0.15607 0.162264,-0.44235 0,-0.56948 -0.605648,-0.56948 z"
         style="font-size:2.11666656px;fill:#ffe4b3;stroke-width:0.26458332"
         id="path1013"
         inkscape:connector-curvature="0" />
      <path
         d="m 27.925942,204.23665 v 0.46199 h -0.149861 v -0.46199 z m 0.343132,0 v 0.46199 h -0.149862 v -0.46199 z"
         style="font-size:2.11666656px;fill:#ffe4b3;stroke-width:0.26458332"
         id="path1015"
         inkscape:connector-curvature="0" />
      <path
         d="m 29.980599,205.71873 h -0.768945 v -1.48208 h 0.173632 v 1.32499 h 0.595313 z"
         style="font-size:2.11666656px;fill:#ffe4b3;stroke-width:0.26458332"
         id="path1018"
         inkscape:connector-curvature="0" />
      <path
         d="m 31.355191,205.71873 h -0.192236 l -0.157097,-0.41547 h -0.628385 l -0.147795,0.41547 h -0.193269 l 0.56844,-1.48208 h 0.179834 z m -0.406177,-0.57154 -0.232544,-0.63148 q -0.01137,-0.031 -0.02274,-0.0992 h -0.0041 q -0.01034,0.063 -0.02377,0.0992 l -0.230476,0.63148 z"
         style="font-size:2.11666656px;fill:#ffe4b3;stroke-width:0.26458332"
         id="path1020"
         inkscape:connector-curvature="0" />
      <path
         d="M 32.374251,204.39375 H 31.94637 v 1.32498 h -0.173633 v -1.32498 H 31.34589 v -0.1571 h 1.028361 z"
         style="font-size:2.11666656px;fill:#ffe4b3;stroke-width:0.26458332"
         id="path1022"
         inkscape:connector-curvature="0" />
      <path
         d="m 33.593813,205.65672 q -0.164331,0.0868 -0.409277,0.0868 -0.31626,0 -0.506429,-0.20361 -0.190169,-0.2036 -0.190169,-0.53433 0,-0.35553 0.21394,-0.57464 0.213941,-0.21911 0.542603,-0.21911 0.21084,0 0.349332,0.061 v 0.185 q -0.159163,-0.0889 -0.351399,-0.0889 -0.255282,0 -0.414445,0.17053 -0.15813,0.17053 -0.15813,0.45578 0,0.27079 0.147794,0.43202 0.148829,0.1602 0.389641,0.1602 0.223242,0 0.386539,-0.0992 z"
         style="font-size:2.11666656px;fill:#ffe4b3;stroke-width:0.26458332"
         id="path1024"
         inkscape:connector-curvature="0" />
      <path
         d="m 35.009748,205.71873 h -0.173633 v -0.67592 h -0.766878 v 0.67592 h -0.173633 v -1.48208 h 0.173633 v 0.65009 h 0.766878 v -0.65009 h 0.173633 z"
         style="font-size:2.11666656px;fill:#ffe4b3;stroke-width:0.26458332"
         id="path1026"
         inkscape:connector-curvature="0" />
    </g>
    <g
       aria-label="CD4042"
       style="font-style:normal;font-variant:normal;font-weight:600;font-stretch:normal;font-size:3.52777767px;line-height:1.25;font-family:'Yu Gothic UI';-inkscape-font-specification:'Yu Gothic UI Semi-Bold';letter-spacing:0px;word-spacing:0px;fill:#ffe4b3;fill-opacity:1;stroke:none;stroke-width:0.26458332"
       id="text1031"
       transform="translate(2.955892,-5.68365)">
      <path
         d="m 16.579522,205.61538 q -0.279053,0.1447 -0.694187,0.1447 -0.537435,0 -0.861274,-0.33935 -0.323839,-0.33934 -0.323839,-0.89055 0,-0.59256 0.363458,-0.95774 0.36518,-0.36518 0.921563,-0.36518 0.35829,0 0.594279,0.10163 v 0.40652 q -0.24977,-0.14814 -0.551216,-0.14814 -0.401353,0 -0.651123,0.25666 -0.248047,0.25666 -0.248047,0.68558 0,0.40824 0.232544,0.65112 0.232544,0.24116 0.611505,0.24116 0.349677,0 0.606337,-0.16537 z"
         style="font-style:normal;font-variant:normal;font-weight:600;font-stretch:normal;font-size:3.52777767px;font-family:'Yu Gothic UI';-inkscape-font-specification:'Yu Gothic UI Semi-Bold';fill:#ffe4b3;stroke-width:0.26458332"
         id="path1033"
         inkscape:connector-curvature="0" />
      <path
         d="m 17.048055,205.71873 v -2.47013 h 0.713134 q 1.365981,0 1.365981,1.20406 0,0.57189 -0.378961,0.91984 -0.37896,0.34623 -1.016303,0.34623 z m 0.408243,-2.12217 v 1.77594 h 0.327284 q 0.43236,0 0.671794,-0.23771 0.241157,-0.23771 0.241157,-0.67179 0,-0.86644 -0.897448,-0.86644 z"
         style="font-style:normal;font-variant:normal;font-weight:600;font-stretch:normal;font-size:3.52777767px;font-family:'Yu Gothic UI';-inkscape-font-specification:'Yu Gothic UI Semi-Bold';fill:#ffe4b3;stroke-width:0.26458332"
         id="path1035"
         inkscape:connector-curvature="0" />
      <path
         d="m 20.866943,203.2486 v 1.59508 h 0.366903 v 0.33245 h -0.366903 v 0.5426 H 20.47937 v -0.5426 h -1.117934 v -0.33589 q 0.151585,-0.17054 0.310059,-0.36863 0.160197,-0.19982 0.306613,-0.40652 0.14814,-0.20843 0.273886,-0.41686 0.125746,-0.20843 0.211873,-0.39963 z m -0.387573,1.59508 v -1.03697 q -0.187758,0.33762 -0.37207,0.58911 -0.18259,0.25149 -0.342787,0.44786 z"
         style="font-style:normal;font-variant:normal;font-weight:600;font-stretch:normal;font-size:3.52777767px;font-family:'Yu Gothic UI';-inkscape-font-specification:'Yu Gothic UI Semi-Bold';fill:#ffe4b3;stroke-width:0.26458332"
         id="path1037"
         inkscape:connector-curvature="0" />
      <path
         d="m 22.257039,205.76008 q -0.385851,0 -0.602892,-0.31523 -0.215318,-0.31523 -0.215318,-0.91123 0,-0.65457 0.225654,-0.99046 0.225653,-0.3359 0.651123,-0.3359 0.814765,0 0.814765,1.26607 0,0.62701 -0.230822,0.95774 -0.229099,0.32901 -0.64251,0.32901 z m 0.03962,-2.23415 q -0.449585,0 -0.449585,0.99047 0,0.92673 0.440972,0.92673 0.434082,0 0.434082,-0.94224 0,-0.97496 -0.425469,-0.97496 z"
         style="font-style:normal;font-variant:normal;font-weight:600;font-stretch:normal;font-size:3.52777767px;font-family:'Yu Gothic UI';-inkscape-font-specification:'Yu Gothic UI Semi-Bold';fill:#ffe4b3;stroke-width:0.26458332"
         id="path1039"
         inkscape:connector-curvature="0" />
      <path
         d="m 24.856363,203.2486 v 1.59508 h 0.366903 v 0.33245 h -0.366903 v 0.5426 H 24.46879 v -0.5426 h -1.117934 v -0.33589 q 0.151585,-0.17054 0.310059,-0.36863 0.160197,-0.19982 0.306613,-0.40652 0.14814,-0.20843 0.273886,-0.41686 0.125745,-0.20843 0.211873,-0.39963 z m -0.387573,1.59508 v -1.03697 q -0.187758,0.33762 -0.37207,0.58911 -0.182591,0.25149 -0.342787,0.44786 z"
         style="font-style:normal;font-variant:normal;font-weight:600;font-stretch:normal;font-size:3.52777767px;font-family:'Yu Gothic UI';-inkscape-font-specification:'Yu Gothic UI Semi-Bold';fill:#ffe4b3;stroke-width:0.26458332"
         id="path1041"
         inkscape:connector-curvature="0" />
      <path
         d="m 27.012994,205.71873 h -1.550293 v -0.1912 q 0,-0.11713 0.03273,-0.21876 0.03273,-0.10335 0.08785,-0.19293 0.05512,-0.0913 0.129191,-0.17053 0.07407,-0.081 0.158474,-0.15503 0.0844,-0.0758 0.172255,-0.14469 0.08785,-0.0706 0.172255,-0.14125 0.07924,-0.0672 0.144694,-0.13092 0.06546,-0.0654 0.111966,-0.13435 0.04651,-0.0689 0.07235,-0.1447 0.02584,-0.0775 0.02584,-0.16708 0,-0.0982 -0.03101,-0.17054 -0.02928,-0.0741 -0.08441,-0.1223 -0.0534,-0.0499 -0.127468,-0.0741 -0.07407,-0.0258 -0.16192,-0.0258 -0.151584,0 -0.308336,0.0706 -0.156752,0.0706 -0.301446,0.21187 v -0.38413 q 0.07579,-0.0568 0.153307,-0.0982 0.07751,-0.0431 0.160197,-0.0706 0.08268,-0.0293 0.173977,-0.0431 0.09129,-0.0138 0.194648,-0.0138 0.167087,0 0.303168,0.0448 0.136082,0.0431 0.232544,0.12919 0.09646,0.0844 0.14814,0.21187 0.0534,0.12747 0.0534,0.29283 0,0.14987 -0.0379,0.27044 -0.03617,0.11886 -0.105075,0.22221 -0.06718,0.10336 -0.163642,0.19637 -0.09646,0.093 -0.215318,0.19121 -0.09991,0.081 -0.199816,0.15847 -0.09819,0.0758 -0.177422,0.14986 -0.07924,0.0724 -0.129191,0.14642 -0.04823,0.0724 -0.04823,0.14642 v 0.009 h 1.114489 z"
         style="font-style:normal;font-variant:normal;font-weight:600;font-stretch:normal;font-size:3.52777767px;font-family:'Yu Gothic UI';-inkscape-font-specification:'Yu Gothic UI Semi-Bold';fill:#ffe4b3;stroke-width:0.26458332"
         id="path1043"
         inkscape:connector-curvature="0" />
    </g>
    <path
       inkscape:connector-curvature="0"
       id="path1046"
       d="m 18.520833,256.52202 v 11.37708 h 10.583338 l -4e-6,-11.37708 z"
       style="fill:none;stroke:#ffe4b3;stroke-width:0.26458332px;stroke-linecap:butt;stroke-linejoin:miter;stroke-opacity:1"
       sodipodi:nodetypes="ccccc" />
    <path
       sodipodi:nodetypes="ccccc"
       style="fill:none;stroke:#ffe4b3;stroke-width:0.26499999;stroke-linecap:butt;stroke-linejoin:miter;stroke-miterlimit:4;stroke-dasharray:none;stroke-opacity:1"
       d="M 18.520833,206.50892 V 217.886 h 10.583334 v -11.37708 z"
       id="path1048"
       inkscape:connector-curvature="0" />
    <path
       sodipodi:nodetypes="ccccc"
       style="fill:none;stroke:#ffe4b3;stroke-width:0.26458332px;stroke-linecap:butt;stroke-linejoin:miter;stroke-opacity:1"
       d="m 18.520833,223.1775 v 11.37708 h 10.583338 l -4e-6,-11.37708 z"
       id="path1050"
       inkscape:connector-curvature="0" />
    <path
       sodipodi:nodetypes="ccccc"
       style="fill:none;stroke:#ffe4b3;stroke-width:0.26458332px;stroke-linecap:butt;stroke-linejoin:miter;stroke-opacity:1"
       d="m 18.520833,239.87151 v 11.37708 h 10.583338 l -4e-6,-11.37708 z"
       id="path1052"
       inkscape:connector-curvature="0" />
    <g
       aria-label="D1"
       style="font-style:normal;font-variant:normal;font-weight:normal;font-stretch:normal;font-size:2.82222223px;line-height:1.25;font-family:'Yu Gothic UI';-inkscape-font-specification:'Yu Gothic UI';letter-spacing:0px;word-spacing:0px;fill:#ffe4b3;fill-opacity:1;stroke:none;stroke-width:0.26458332"
       id="g1082"
       transform="translate(-22.784483,-4.385595)">
      <path
         d="m 29.363237,213.65623 v -1.9761 h 0.545703 q 1.044553,0 1.044553,0.96325 0,0.45751 -0.290766,0.73587 -0.289388,0.27698 -0.775835,0.27698 z m 0.231511,-1.76664 v 1.55718 h 0.2949 q 0.388607,0 0.604959,-0.20808 0.216352,-0.20808 0.216352,-0.5898 0,-0.7593 -0.807531,-0.7593 z"
         style="fill:#ffe4b3;stroke-width:0.26458332"
         id="path1078"
         inkscape:connector-curvature="0" />
      <path
         d="M 32.080729,213.65623 H 31.85473 v -1.70738 q -0.02618,0.0262 -0.07717,0.0606 -0.04961,0.0331 -0.112999,0.0661 -0.06201,0.0331 -0.132292,0.062 -0.0689,0.0289 -0.135047,0.0455 v -0.22875 q 0.07441,-0.0207 0.157096,-0.0551 0.08406,-0.0358 0.163987,-0.0785 0.0813,-0.0441 0.152962,-0.091 0.07166,-0.0482 0.124023,-0.0937 h 0.08544 z"
         style="fill:#ffe4b3;stroke-width:0.26458332"
         id="path1080"
         inkscape:connector-curvature="0" />
    </g>
    <g
       aria-label="D2"
       style="font-style:normal;font-variant:normal;font-weight:normal;font-stretch:normal;font-size:2.82222223px;line-height:1.25;font-family:'Yu Gothic UI';-inkscape-font-specification:'Yu Gothic UI';letter-spacing:0px;word-spacing:0px;fill:#ffe4b3;fill-opacity:1;stroke:none;stroke-width:0.26458332"
       id="g1088"
       transform="translate(-22.970523,-4.93179)">
      <path
         d="m 29.363237,230.85416 v -1.97611 h 0.545703 q 1.044553,0 1.044553,0.96325 0,0.45751 -0.290766,0.73587 -0.289388,0.27699 -0.775835,0.27699 z m 0.231511,-1.76665 v 1.55718 h 0.2949 q 0.388607,0 0.604959,-0.20808 0.216352,-0.20808 0.216352,-0.5898 0,-0.7593 -0.807531,-0.7593 z"
         style="fill:#ffe4b3;stroke-width:0.26458332"
         id="path1084"
         inkscape:connector-curvature="0" />
      <path
         d="m 32.146874,229.39619 q 0,-0.0909 -0.02894,-0.15847 -0.02756,-0.0675 -0.07717,-0.11162 -0.04823,-0.0455 -0.114377,-0.0675 -0.06615,-0.0221 -0.143316,-0.0221 -0.06615,0 -0.129535,0.0179 -0.06339,0.0179 -0.124024,0.0496 -0.05926,0.0317 -0.115755,0.0758 -0.05512,0.0441 -0.103353,0.0978 v -0.24253 q 0.09509,-0.0923 0.212218,-0.14056 0.118511,-0.0496 0.28801,-0.0496 0.121267,0 0.22462,0.0358 0.103353,0.0344 0.179145,0.10197 0.07579,0.0675 0.118512,0.16674 0.0441,0.0992 0.0441,0.22738 0,0.11713 -0.02756,0.21222 -0.02618,0.0951 -0.0813,0.17914 -0.05374,0.0841 -0.136426,0.16123 -0.08268,0.0772 -0.194303,0.1571 -0.139182,0.0992 -0.230133,0.1695 -0.08957,0.0703 -0.143316,0.13229 -0.05236,0.0606 -0.07441,0.12264 -0.02067,0.0606 -0.02067,0.14056 h 0.983919 v 0.20258 h -1.219564 v -0.0978 q 0,-0.12678 0.02756,-0.22325 0.02756,-0.0965 0.09095,-0.18328 0.06339,-0.0868 0.165365,-0.17363 0.103353,-0.0868 0.252181,-0.19568 0.107487,-0.0772 0.179145,-0.14745 0.07304,-0.0703 0.117133,-0.14056 0.0441,-0.0703 0.06201,-0.14194 0.01929,-0.073 0.01929,-0.15434 z"
         style="fill:#ffe4b3;stroke-width:0.26458332"
         id="path1086"
         inkscape:connector-curvature="0" />
    </g>
    <g
       aria-label="D3"
       style="font-style:normal;font-variant:normal;font-weight:normal;font-stretch:normal;font-size:2.82222223px;line-height:1.25;font-family:'Yu Gothic UI';-inkscape-font-specification:'Yu Gothic UI';letter-spacing:0px;word-spacing:0px;fill:#ffe4b3;fill-opacity:1;stroke:none;stroke-width:0.26458332"
       id="g1094"
       transform="translate(-22.942267,-6.819945)">
      <path
         d="m 29.363237,249.37498 v -1.9761 h 0.545703 q 1.044553,0 1.044553,0.96325 0,0.45751 -0.290766,0.73587 -0.289388,0.27698 -0.775835,0.27698 z m 0.231511,-1.76664 v 1.55718 h 0.2949 q 0.388607,0 0.604959,-0.20808 0.216352,-0.20808 0.216352,-0.5898 0,-0.7593 -0.807531,-0.7593 z"
         style="fill:#ffe4b3;stroke-width:0.26458332"
         id="path1090"
         inkscape:connector-curvature="0" />
      <path
         d="m 32.396299,248.8155 q 0,0.13367 -0.05099,0.24391 -0.04961,0.10887 -0.141938,0.18742 -0.09095,0.0772 -0.219108,0.11989 -0.128158,0.0427 -0.282498,0.0427 -0.282498,0 -0.44924,-0.10749 v -0.24254 q 0.199815,0.1571 0.457508,0.1571 0.103353,0 0.186035,-0.0262 0.08406,-0.0262 0.143316,-0.0758 0.06063,-0.0496 0.09233,-0.11989 0.03307,-0.0703 0.03307,-0.15848 0,-0.38723 -0.551215,-0.38723 h -0.163987 v -0.19154 H 31.6053 q 0.487826,0 0.487826,-0.36381 0,-0.33624 -0.37207,-0.33624 -0.209462,0 -0.392741,0.14056 v -0.21911 q 0.188791,-0.11299 0.44924,-0.11299 0.124024,0 0.22462,0.0344 0.100597,0.0344 0.172255,0.0965 0.07166,0.062 0.110243,0.14883 0.03996,0.0868 0.03996,0.19154 0,0.38999 -0.394119,0.50161 v 0.006 q 0.100597,0.011 0.186036,0.0496 0.08544,0.0372 0.14745,0.0978 0.06201,0.0606 0.09646,0.14332 0.03583,0.0813 0.03583,0.18052 z"
         style="fill:#ffe4b3;stroke-width:0.26458332"
         id="path1092"
         inkscape:connector-curvature="0" />
    </g>
    <g
       aria-label="D4"
       style="font-style:normal;font-variant:normal;font-weight:normal;font-stretch:normal;font-size:2.82222223px;line-height:1.25;font-family:'Yu Gothic UI';-inkscape-font-specification:'Yu Gothic UI';letter-spacing:0px;word-spacing:0px;fill:#ffe4b3;fill-opacity:1;stroke:none;stroke-width:0.26458332"
       id="g1100"
       transform="translate(-22.998078,-7.35646)">
      <path
         d="m 29.363237,266.57291 v -1.97611 h 0.545703 q 1.044553,0 1.044553,0.96325 0,0.45751 -0.290766,0.73587 -0.289388,0.27699 -0.775835,0.27699 z m 0.231511,-1.76665 v 1.55718 h 0.2949 q 0.388607,0 0.604959,-0.20808 0.216352,-0.20808 0.216352,-0.5898 0,-0.7593 -0.807531,-0.7593 z"
         style="fill:#ffe4b3;stroke-width:0.26458332"
         id="path1096"
         inkscape:connector-curvature="0" />
      <path
         d="m 32.254361,264.5968 v 1.305 h 0.253559 v 0.20671 h -0.253559 v 0.4644 h -0.223242 v -0.4644 h -0.928798 v -0.19568 q 0.129536,-0.14608 0.261828,-0.31144 0.132291,-0.16674 0.252181,-0.33762 0.121267,-0.17088 0.223242,-0.34038 0.103353,-0.17087 0.173633,-0.32659 z m -0.897102,1.305 h 0.67386 v -0.96738 q -0.103353,0.18052 -0.195681,0.32246 -0.09233,0.14194 -0.176389,0.25769 -0.08268,0.11576 -0.158475,0.20946 -0.07579,0.0937 -0.143315,0.17777 z"
         style="fill:#ffe4b3;stroke-width:0.26458332"
         id="path1098"
         inkscape:connector-curvature="0" />
    </g>
    <g
       aria-label="Q1"
       style="font-style:normal;font-variant:normal;font-weight:normal;font-stretch:normal;font-size:2.82222223px;line-height:1.25;font-family:'Yu Gothic UI';-inkscape-font-specification:'Yu Gothic UI';letter-spacing:0px;word-spacing:0px;fill:#ffe4b3;fill-opacity:1;stroke:none;stroke-width:0.26458332"
       id="text1104"
       transform="translate(6.3258992,-8.354345)">
      <path
         d="m 14.284743,217.65806 q -0.418923,0 -0.67386,-0.27699 -0.252181,-0.27698 -0.252181,-0.72071 0,-0.47818 0.257693,-0.76068 0.259071,-0.28387 0.701421,-0.28387 0.4079,0 0.658702,0.2756 0.250803,0.27561 0.250803,0.72072 0,0.48369 -0.256315,0.76481 -0.06063,0.0675 -0.129535,0.11575 l 0.555349,0.39826 h -0.420302 l -0.37207,-0.27837 q -0.146072,0.0455 -0.319705,0.0455 z m 0.01654,-1.83279 q -0.311437,0 -0.50574,0.22462 -0.194304,0.22462 -0.194304,0.5898 0,0.3638 0.188792,0.58842 0.190169,0.22186 0.494715,0.22186 0.325217,0 0.512631,-0.21221 0.187413,-0.21222 0.187413,-0.59394 0,-0.39274 -0.181901,-0.60496 -0.181901,-0.21359 -0.501606,-0.21359 z"
         style="fill:#ffe4b3;stroke-width:0.26458332"
         id="path1133"
         inkscape:connector-curvature="0" />
      <path
         d="m 16.354557,217.62498 h -0.225999 v -1.70738 q -0.02618,0.0262 -0.07717,0.0606 -0.04961,0.0331 -0.112999,0.0661 -0.06201,0.0331 -0.132291,0.062 -0.0689,0.0289 -0.135048,0.0455 v -0.22875 q 0.07441,-0.0207 0.157096,-0.0551 0.08406,-0.0358 0.163987,-0.0785 0.0813,-0.0441 0.152962,-0.091 0.07166,-0.0482 0.124023,-0.0937 h 0.08544 z"
         style="fill:#ffe4b3;stroke-width:0.26458332"
         id="path1135"
         inkscape:connector-curvature="0" />
    </g>
    <g
       aria-label="Q2"
       style="font-style:normal;font-variant:normal;font-weight:normal;font-stretch:normal;font-size:2.82222223px;line-height:1.25;font-family:'Yu Gothic UI';-inkscape-font-specification:'Yu Gothic UI';letter-spacing:0px;word-spacing:0px;fill:#ffe4b3;fill-opacity:1;stroke:none;stroke-width:0.26458332"
       id="text1108"
       transform="translate(6.4388949,-8.90054)">
      <path
         d="m 14.284743,234.85598 q -0.418923,0 -0.67386,-0.27699 -0.252181,-0.27698 -0.252181,-0.72071 0,-0.47818 0.257693,-0.76068 0.259071,-0.28387 0.701421,-0.28387 0.4079,0 0.658702,0.2756 0.250803,0.27561 0.250803,0.72072 0,0.48369 -0.256315,0.76481 -0.06063,0.0675 -0.129535,0.11575 l 0.555349,0.39826 h -0.420302 l -0.37207,-0.27837 q -0.146072,0.0455 -0.319705,0.0455 z m 0.01654,-1.83279 q -0.311437,0 -0.50574,0.22462 -0.194304,0.22462 -0.194304,0.5898 0,0.3638 0.188792,0.58842 0.190169,0.22187 0.494715,0.22187 0.325217,0 0.512631,-0.21222 0.187413,-0.21222 0.187413,-0.59394 0,-0.39274 -0.181901,-0.60496 -0.181901,-0.21359 -0.501606,-0.21359 z"
         style="fill:#ffe4b3;stroke-width:0.26458332"
         id="path1128"
         inkscape:connector-curvature="0" />
      <path
         d="m 16.420703,233.36494 q 0,-0.0909 -0.02894,-0.15847 -0.02756,-0.0675 -0.07717,-0.11162 -0.04823,-0.0455 -0.114378,-0.0675 -0.06615,-0.0221 -0.143316,-0.0221 -0.06614,0 -0.129535,0.0179 -0.06339,0.0179 -0.124024,0.0496 -0.05926,0.0317 -0.115755,0.0758 -0.05512,0.0441 -0.103353,0.0978 v -0.24253 q 0.09509,-0.0923 0.212218,-0.14056 0.118512,-0.0496 0.28801,-0.0496 0.121268,0 0.22462,0.0358 0.103353,0.0344 0.179145,0.10197 0.07579,0.0675 0.118512,0.16674 0.0441,0.0992 0.0441,0.22738 0,0.11713 -0.02756,0.21222 -0.02618,0.0951 -0.0813,0.17914 -0.05374,0.0841 -0.136426,0.16123 -0.08268,0.0772 -0.194303,0.1571 -0.139182,0.0992 -0.230133,0.1695 -0.08957,0.0703 -0.143316,0.13229 -0.05236,0.0606 -0.07441,0.12264 -0.02067,0.0606 -0.02067,0.14056 h 0.983919 v 0.20258 h -1.219564 v -0.0978 q 0,-0.12678 0.02756,-0.22325 0.02756,-0.0965 0.09095,-0.18328 0.06339,-0.0868 0.165364,-0.17363 0.103353,-0.0868 0.252181,-0.19568 0.107487,-0.0772 0.179145,-0.14745 0.07304,-0.0703 0.117133,-0.14056 0.0441,-0.0703 0.06201,-0.14194 0.01929,-0.073 0.01929,-0.15434 z"
         style="fill:#ffe4b3;stroke-width:0.26458332"
         id="path1130"
         inkscape:connector-curvature="0" />
    </g>
    <g
       aria-label="Q3"
       style="font-style:normal;font-variant:normal;font-weight:normal;font-stretch:normal;font-size:2.82222223px;line-height:1.25;font-family:'Yu Gothic UI';-inkscape-font-specification:'Yu Gothic UI';letter-spacing:0px;word-spacing:0px;fill:#ffe4b3;fill-opacity:1;stroke:none;stroke-width:0.26458332"
       id="text1112"
       transform="translate(6.1522742,-8.142865)">
      <path
         d="m 14.284743,250.73098 q -0.418923,0 -0.67386,-0.27699 -0.252181,-0.27698 -0.252181,-0.72071 0,-0.47818 0.257693,-0.76068 0.259071,-0.28387 0.701421,-0.28387 0.4079,0 0.658702,0.2756 0.250803,0.27561 0.250803,0.72072 0,0.48369 -0.256315,0.76481 -0.06063,0.0675 -0.129535,0.11575 l 0.555349,0.39826 h -0.420302 l -0.37207,-0.27837 q -0.146072,0.0455 -0.319705,0.0455 z m 0.01654,-1.83279 q -0.311437,0 -0.50574,0.22462 -0.194304,0.22462 -0.194304,0.5898 0,0.3638 0.188792,0.58842 0.190169,0.22187 0.494715,0.22187 0.325217,0 0.512631,-0.21222 0.187413,-0.21222 0.187413,-0.59394 0,-0.39274 -0.181901,-0.60496 -0.181901,-0.21359 -0.501606,-0.21359 z"
         style="fill:#ffe4b3;stroke-width:0.26458332"
         id="path1123"
         inkscape:connector-curvature="0" />
      <path
         d="m 16.670127,250.13842 q 0,0.13367 -0.05099,0.24392 -0.04961,0.10886 -0.141938,0.18741 -0.09095,0.0772 -0.219108,0.11989 -0.128158,0.0427 -0.282498,0.0427 -0.282498,0 -0.44924,-0.10749 v -0.24253 q 0.199815,0.15709 0.457508,0.15709 0.103353,0 0.186036,-0.0262 0.08406,-0.0262 0.143316,-0.0758 0.06063,-0.0496 0.09233,-0.11989 0.03307,-0.0703 0.03307,-0.15848 0,-0.38723 -0.551215,-0.38723 h -0.163987 v -0.19154 h 0.155719 q 0.487825,0 0.487825,-0.3638 0,-0.33625 -0.37207,-0.33625 -0.209462,0 -0.392741,0.14056 v -0.2191 q 0.188791,-0.113 0.44924,-0.113 0.124024,0 0.224621,0.0345 0.100596,0.0344 0.172254,0.0965 0.07166,0.062 0.110243,0.14883 0.03996,0.0868 0.03996,0.19155 0,0.38998 -0.394118,0.5016 v 0.006 q 0.100596,0.011 0.186035,0.0496 0.08544,0.0372 0.14745,0.0978 0.06201,0.0606 0.09646,0.14332 0.03583,0.0813 0.03583,0.18052 z"
         style="fill:#ffe4b3;stroke-width:0.26458332"
         id="path1125"
         inkscape:connector-curvature="0" />
    </g>
    <g
       aria-label="Q4"
       style="font-style:normal;font-variant:normal;font-weight:normal;font-stretch:normal;font-size:2.82222223px;line-height:1.25;font-family:'Yu Gothic UI';-inkscape-font-specification:'Yu Gothic UI';letter-spacing:0px;word-spacing:0px;fill:#ffe4b3;fill-opacity:1;stroke:none;stroke-width:0.26458332"
       id="text1116"
       transform="translate(6.3693047,-7.32339)">
      <path
         d="m 14.284743,266.60598 q -0.418923,0 -0.67386,-0.27699 -0.252181,-0.27698 -0.252181,-0.72071 0,-0.47818 0.257693,-0.76068 0.259071,-0.28387 0.701421,-0.28387 0.4079,0 0.658702,0.2756 0.250803,0.27561 0.250803,0.72072 0,0.48369 -0.256315,0.76481 -0.06063,0.0675 -0.129535,0.11575 l 0.555349,0.39826 h -0.420302 l -0.37207,-0.27837 q -0.146072,0.0455 -0.319705,0.0455 z m 0.01654,-1.83279 q -0.311437,0 -0.50574,0.22462 -0.194304,0.22462 -0.194304,0.5898 0,0.3638 0.188792,0.58842 0.190169,0.22187 0.494715,0.22187 0.325217,0 0.512631,-0.21222 0.187413,-0.21222 0.187413,-0.59394 0,-0.39274 -0.181901,-0.60496 -0.181901,-0.21359 -0.501606,-0.21359 z"
         style="fill:#ffe4b3;stroke-width:0.26458332"
         id="path1118"
         inkscape:connector-curvature="0" />
      <path
         d="m 16.52819,264.5968 v 1.305 h 0.253559 v 0.20671 H 16.52819 v 0.4644 h -0.223243 v -0.4644 H 15.37615 v -0.19568 q 0.129535,-0.14608 0.261827,-0.31144 0.132292,-0.16674 0.252181,-0.33762 0.121267,-0.17088 0.223242,-0.34038 0.103353,-0.17087 0.173633,-0.32659 z m -0.897103,1.305 h 0.67386 v -0.96738 q -0.103353,0.18052 -0.195681,0.32246 -0.09233,0.14194 -0.176389,0.25769 -0.08268,0.11576 -0.158474,0.20946 -0.07579,0.0937 -0.143316,0.17777 z"
         style="fill:#ffe4b3;stroke-width:0.26458332"
         id="path1120"
         inkscape:connector-curvature="0" />
    </g>
    <path
       sodipodi:nodetypes="ccccc"
       style="fill:none;stroke:#ffe4b3;stroke-width:0.26458332px;stroke-linecap:butt;stroke-linejoin:miter;stroke-opacity:1"
       d="m 34.395843,256.52202 v 11.37708 h 10.583338 l -4e-6,-11.37708 z"
       id="path1138"
       inkscape:connector-curvature="0" />
    <path
       inkscape:connector-curvature="0"
       id="path1140"
       d="M 34.395843,206.50892 V 217.886 h 10.583334 v -11.37708 z"
       style="fill:none;stroke:#ffe4b3;stroke-width:0.26499999;stroke-linecap:butt;stroke-linejoin:miter;stroke-miterlimit:4;stroke-dasharray:none;stroke-opacity:1"
       sodipodi:nodetypes="ccccc" />
    <path
       inkscape:connector-curvature="0"
       id="path1142"
       d="m 34.395843,223.1775 v 11.37708 h 10.583338 l -4e-6,-11.37708 z"
       style="fill:none;stroke:#ffe4b3;stroke-width:0.26458332px;stroke-linecap:butt;stroke-linejoin:miter;stroke-opacity:1"
       sodipodi:nodetypes="ccccc" />
    <path
       inkscape:connector-curvature="0"
       id="path1144"
       d="m 34.395843,239.87151 v 11.37708 h 10.583338 l -4e-6,-11.37708 z"
       style="fill:none;stroke:#ffe4b3;stroke-width:0.26458332px;stroke-linecap:butt;stroke-linejoin:miter;stroke-opacity:1"
       sodipodi:nodetypes="ccccc" />
    <g
       transform="translate(22.244313,-8.354345)"
       id="g1150"
       style="font-style:normal;font-variant:normal;font-weight:normal;font-stretch:normal;font-size:2.82222223px;line-height:1.25;font-family:'Yu Gothic UI';-inkscape-font-specification:'Yu Gothic UI';letter-spacing:0px;word-spacing:0px;fill:#ffe4b3;fill-opacity:1;stroke:none;stroke-width:0.26458332"
       aria-label="Q1">
      <path
         inkscape:connector-curvature="0"
         id="path1146"
         style="fill:#ffe4b3;stroke-width:0.26458332"
         d="m 14.284743,217.65806 q -0.418923,0 -0.67386,-0.27699 -0.252181,-0.27698 -0.252181,-0.72071 0,-0.47818 0.257693,-0.76068 0.259071,-0.28387 0.701421,-0.28387 0.4079,0 0.658702,0.2756 0.250803,0.27561 0.250803,0.72072 0,0.48369 -0.256315,0.76481 -0.06063,0.0675 -0.129535,0.11575 l 0.555349,0.39826 h -0.420302 l -0.37207,-0.27837 q -0.146072,0.0455 -0.319705,0.0455 z m 0.01654,-1.83279 q -0.311437,0 -0.50574,0.22462 -0.194304,0.22462 -0.194304,0.5898 0,0.3638 0.188792,0.58842 0.190169,0.22186 0.494715,0.22186 0.325217,0 0.512631,-0.21221 0.187413,-0.21222 0.187413,-0.59394 0,-0.39274 -0.181901,-0.60496 -0.181901,-0.21359 -0.501606,-0.21359 z" />
      <path
         inkscape:connector-curvature="0"
         id="path1148"
         style="fill:#ffe4b3;stroke-width:0.26458332"
         d="m 16.354557,217.62498 h -0.225999 v -1.70738 q -0.02618,0.0262 -0.07717,0.0606 -0.04961,0.0331 -0.112999,0.0661 -0.06201,0.0331 -0.132291,0.062 -0.0689,0.0289 -0.135048,0.0455 v -0.22875 q 0.07441,-0.0207 0.157096,-0.0551 0.08406,-0.0358 0.163987,-0.0785 0.0813,-0.0441 0.152962,-0.091 0.07166,-0.0482 0.124023,-0.0937 h 0.08544 z" />
    </g>
    <g
       transform="translate(22.244313,-8.90054)"
       id="g1156"
       style="font-style:normal;font-variant:normal;font-weight:normal;font-stretch:normal;font-size:2.82222223px;line-height:1.25;font-family:'Yu Gothic UI';-inkscape-font-specification:'Yu Gothic UI';letter-spacing:0px;word-spacing:0px;fill:#ffe4b3;fill-opacity:1;stroke:none;stroke-width:0.26458332"
       aria-label="Q2">
      <path
         inkscape:connector-curvature="0"
         id="path1152"
         style="fill:#ffe4b3;stroke-width:0.26458332"
         d="m 14.284743,234.85598 q -0.418923,0 -0.67386,-0.27699 -0.252181,-0.27698 -0.252181,-0.72071 0,-0.47818 0.257693,-0.76068 0.259071,-0.28387 0.701421,-0.28387 0.4079,0 0.658702,0.2756 0.250803,0.27561 0.250803,0.72072 0,0.48369 -0.256315,0.76481 -0.06063,0.0675 -0.129535,0.11575 l 0.555349,0.39826 h -0.420302 l -0.37207,-0.27837 q -0.146072,0.0455 -0.319705,0.0455 z m 0.01654,-1.83279 q -0.311437,0 -0.50574,0.22462 -0.194304,0.22462 -0.194304,0.5898 0,0.3638 0.188792,0.58842 0.190169,0.22187 0.494715,0.22187 0.325217,0 0.512631,-0.21222 0.187413,-0.21222 0.187413,-0.59394 0,-0.39274 -0.181901,-0.60496 -0.181901,-0.21359 -0.501606,-0.21359 z" />
      <path
         inkscape:connector-curvature="0"
         id="path1154"
         style="fill:#ffe4b3;stroke-width:0.26458332"
         d="m 16.420703,233.36494 q 0,-0.0909 -0.02894,-0.15847 -0.02756,-0.0675 -0.07717,-0.11162 -0.04823,-0.0455 -0.114378,-0.0675 -0.06615,-0.0221 -0.143316,-0.0221 -0.06614,0 -0.129535,0.0179 -0.06339,0.0179 -0.124024,0.0496 -0.05926,0.0317 -0.115755,0.0758 -0.05512,0.0441 -0.103353,0.0978 v -0.24253 q 0.09509,-0.0923 0.212218,-0.14056 0.118512,-0.0496 0.28801,-0.0496 0.121268,0 0.22462,0.0358 0.103353,0.0344 0.179145,0.10197 0.07579,0.0675 0.118512,0.16674 0.0441,0.0992 0.0441,0.22738 0,0.11713 -0.02756,0.21222 -0.02618,0.0951 -0.0813,0.17914 -0.05374,0.0841 -0.136426,0.16123 -0.08268,0.0772 -0.194303,0.1571 -0.139182,0.0992 -0.230133,0.1695 -0.08957,0.0703 -0.143316,0.13229 -0.05236,0.0606 -0.07441,0.12264 -0.02067,0.0606 -0.02067,0.14056 h 0.983919 v 0.20258 h -1.219564 v -0.0978 q 0,-0.12678 0.02756,-0.22325 0.02756,-0.0965 0.09095,-0.18328 0.06339,-0.0868 0.165364,-0.17363 0.103353,-0.0868 0.252181,-0.19568 0.107487,-0.0772 0.179145,-0.14745 0.07304,-0.0703 0.117133,-0.14056 0.0441,-0.0703 0.06201,-0.14194 0.01929,-0.073 0.01929,-0.15434 z" />
    </g>
    <g
       transform="translate(22.244313,-8.142865)"
       id="g1162"
       style="font-style:normal;font-variant:normal;font-weight:normal;font-stretch:normal;font-size:2.82222223px;line-height:1.25;font-family:'Yu Gothic UI';-inkscape-font-specification:'Yu Gothic UI';letter-spacing:0px;word-spacing:0px;fill:#ffe4b3;fill-opacity:1;stroke:none;stroke-width:0.26458332"
       aria-label="Q3">
      <path
         inkscape:connector-curvature="0"
         id="path1158"
         style="fill:#ffe4b3;stroke-width:0.26458332"
         d="m 14.284743,250.73098 q -0.418923,0 -0.67386,-0.27699 -0.252181,-0.27698 -0.252181,-0.72071 0,-0.47818 0.257693,-0.76068 0.259071,-0.28387 0.701421,-0.28387 0.4079,0 0.658702,0.2756 0.250803,0.27561 0.250803,0.72072 0,0.48369 -0.256315,0.76481 -0.06063,0.0675 -0.129535,0.11575 l 0.555349,0.39826 h -0.420302 l -0.37207,-0.27837 q -0.146072,0.0455 -0.319705,0.0455 z m 0.01654,-1.83279 q -0.311437,0 -0.50574,0.22462 -0.194304,0.22462 -0.194304,0.5898 0,0.3638 0.188792,0.58842 0.190169,0.22187 0.494715,0.22187 0.325217,0 0.512631,-0.21222 0.187413,-0.21222 0.187413,-0.59394 0,-0.39274 -0.181901,-0.60496 -0.181901,-0.21359 -0.501606,-0.21359 z" />
      <path
         inkscape:connector-curvature="0"
         id="path1160"
         style="fill:#ffe4b3;stroke-width:0.26458332"
         d="m 16.670127,250.13842 q 0,0.13367 -0.05099,0.24392 -0.04961,0.10886 -0.141938,0.18741 -0.09095,0.0772 -0.219108,0.11989 -0.128158,0.0427 -0.282498,0.0427 -0.282498,0 -0.44924,-0.10749 v -0.24253 q 0.199815,0.15709 0.457508,0.15709 0.103353,0 0.186036,-0.0262 0.08406,-0.0262 0.143316,-0.0758 0.06063,-0.0496 0.09233,-0.11989 0.03307,-0.0703 0.03307,-0.15848 0,-0.38723 -0.551215,-0.38723 h -0.163987 v -0.19154 h 0.155719 q 0.487825,0 0.487825,-0.3638 0,-0.33625 -0.37207,-0.33625 -0.209462,0 -0.392741,0.14056 v -0.2191 q 0.188791,-0.113 0.44924,-0.113 0.124024,0 0.224621,0.0345 0.100596,0.0344 0.172254,0.0965 0.07166,0.062 0.110243,0.14883 0.03996,0.0868 0.03996,0.19155 0,0.38998 -0.394118,0.5016 v 0.006 q 0.100596,0.011 0.186035,0.0496 0.08544,0.0372 0.14745,0.0978 0.06201,0.0606 0.09646,0.14332 0.03583,0.0813 0.03583,0.18052 z" />
    </g>
    <g
       transform="translate(22.244313,-7.32339)"
       id="g1168"
       style="font-style:normal;font-variant:normal;font-weight:normal;font-stretch:normal;font-size:2.82222223px;line-height:1.25;font-family:'Yu Gothic UI';-inkscape-font-specification:'Yu Gothic UI';letter-spacing:0px;word-spacing:0px;fill:#ffe4b3;fill-opacity:1;stroke:none;stroke-width:0.26458332"
       aria-label="Q4">
      <path
         inkscape:connector-curvature="0"
         id="path1164"
         style="fill:#ffe4b3;stroke-width:0.26458332"
         d="m 14.284743,266.60598 q -0.418923,0 -0.67386,-0.27699 -0.252181,-0.27698 -0.252181,-0.72071 0,-0.47818 0.257693,-0.76068 0.259071,-0.28387 0.701421,-0.28387 0.4079,0 0.658702,0.2756 0.250803,0.27561 0.250803,0.72072 0,0.48369 -0.256315,0.76481 -0.06063,0.0675 -0.129535,0.11575 l 0.555349,0.39826 h -0.420302 l -0.37207,-0.27837 q -0.146072,0.0455 -0.319705,0.0455 z m 0.01654,-1.83279 q -0.311437,0 -0.50574,0.22462 -0.194304,0.22462 -0.194304,0.5898 0,0.3638 0.188792,0.58842 0.190169,0.22187 0.494715,0.22187 0.325217,0 0.512631,-0.21222 0.187413,-0.21222 0.187413,-0.59394 0,-0.39274 -0.181901,-0.60496 -0.181901,-0.21359 -0.501606,-0.21359 z" />
      <path
         inkscape:connector-curvature="0"
         id="path1166"
         style="fill:#ffe4b3;stroke-width:0.26458332"
         d="m 16.52819,264.5968 v 1.305 h 0.253559 v 0.20671 H 16.52819 v 0.4644 h -0.223243 v -0.4644 H 15.37615 v -0.19568 q 0.129535,-0.14608 0.261827,-0.31144 0.132292,-0.16674 0.252181,-0.33762 0.121267,-0.17088 0.223242,-0.34038 0.103353,-0.17087 0.173633,-0.32659 z m -0.897103,1.305 h 0.67386 v -0.96738 q -0.103353,0.18052 -0.195681,0.32246 -0.09233,0.14194 -0.176389,0.25769 -0.08268,0.11576 -0.158474,0.20946 -0.07579,0.0937 -0.143316,0.17777 z" />
    </g>
    <path
       style="fill:none;stroke:#ffe4b3;stroke-width:0.2;stroke-linecap:butt;stroke-linejoin:miter;stroke-miterlimit:4;stroke-dasharray:none;stroke-opacity:1"
       d="m 35.645735,207.03171 h 2.910416"
       id="path1170"
       inkscape:connector-curvature="0" />
    <path
       inkscape:connector-curvature="0"
       id="path1172"
       d="m 35.831775,223.68893 h 2.910416"
       style="fill:none;stroke:#ffe4b3;stroke-width:0.2;stroke-linecap:butt;stroke-linejoin:miter;stroke-miterlimit:4;stroke-dasharray:none;stroke-opacity:1" />
    <path
       style="fill:none;stroke:#ffe4b3;stroke-width:0.2;stroke-linecap:butt;stroke-linejoin:miter;stroke-miterlimit:4;stroke-dasharray:none;stroke-opacity:1"
       d="m 35.803519,240.32162 h 2.910416"
       id="path1174"
       inkscape:connector-curvature="0" />
    <path
       inkscape:connector-curvature="0"
       id="path1176"
       d="m 35.85933,257.01612 h 2.910416"
       style="fill:none;stroke:#ffe4b3;stroke-width:0.2;stroke-linecap:butt;stroke-linejoin:miter;stroke-miterlimit:4;stroke-dasharray:none;stroke-opacity:1" />
    <g
       aria-label="CLOCK"
       style="font-style:normal;font-variant:normal;font-weight:normal;font-stretch:normal;font-size:2.82222223px;line-height:1.25;font-family:'Yu Gothic UI';-inkscape-font-specification:'Yu Gothic UI';letter-spacing:0px;word-spacing:0px;fill:#ffe4b3;fill-opacity:1;stroke:none;stroke-width:0.26458332"
       id="text1180"
       transform="translate(6.2397582,2.696325)">
      <path
         d="m 6.895703,273.10482 q -0.2191081,0.11575 -0.5457032,0.11575 -0.4216796,0 -0.6752387,-0.27147 -0.253559,-0.27147 -0.253559,-0.71245 0,-0.47404 0.2852539,-0.76619 0.2852539,-0.29214 0.7234701,-0.29214 0.2811198,0 0.4657769,0.0813 v 0.24667 q -0.2122179,-0.11851 -0.468533,-0.11851 -0.3403755,0 -0.5525933,0.22738 -0.2108399,0.22737 -0.2108399,0.60771 0,0.36105 0.1970595,0.57602 0.1984375,0.2136 0.5195204,0.2136 0.2976562,0 0.5153863,-0.13229 z"
         style="fill:#ffe4b3;stroke-width:0.26458332"
         id="path1204"
         inkscape:connector-curvature="0" />
      <path
         d="M 8.3233506,273.1875 H 7.2980902 v -1.97611 h 0.2315104 v 1.76665 h 0.79375 z"
         style="fill:#ffe4b3;stroke-width:0.26458332"
         id="path1206"
         inkscape:connector-curvature="0" />
      <path
         d="m 9.3954644,273.22057 q -0.4203016,0 -0.6738607,-0.27698 -0.252181,-0.27699 -0.252181,-0.72072 0,-0.4768 0.2576932,-0.76067 0.2576931,-0.28388 0.7014214,-0.28388 0.4092774,0 0.6587027,0.27561 0.250803,0.27561 0.250803,0.72071 0,0.48369 -0.256316,0.76481 -0.2563147,0.28112 -0.6862626,0.28112 z m 0.016537,-1.83279 q -0.3114367,0 -0.5057401,0.22462 -0.1943033,0.22462 -0.1943033,0.5898 0,0.36518 0.1887912,0.58842 0.1901693,0.22187 0.4947157,0.22187 0.325217,0 0.5126302,-0.21222 0.1874139,-0.21222 0.1874139,-0.59393 0,-0.39137 -0.1819017,-0.60496 -0.1819011,-0.2136 -0.5016059,-0.2136 z"
         style="fill:#ffe4b3;stroke-width:0.26458332"
         id="path1208"
         inkscape:connector-curvature="0" />
      <path
         d="m 12.071614,273.10482 q -0.219108,0.11575 -0.545703,0.11575 -0.421679,0 -0.675238,-0.27147 -0.253559,-0.27147 -0.253559,-0.71245 0,-0.47404 0.285253,-0.76619 0.285254,-0.29214 0.72347,-0.29214 0.28112,0 0.465777,0.0813 v 0.24667 q -0.212217,-0.11851 -0.468533,-0.11851 -0.340375,0 -0.552593,0.22738 -0.21084,0.22737 -0.21084,0.60771 0,0.36105 0.19706,0.57602 0.198437,0.2136 0.51952,0.2136 0.297656,0 0.515386,-0.13229 z"
         style="fill:#ffe4b3;stroke-width:0.26458332"
         id="path1210"
         inkscape:connector-curvature="0" />
      <path
         d="m 13.849284,273.1875 h -0.322461 l -0.763433,-0.90399 q -0.04272,-0.051 -0.05237,-0.0689 h -0.0055 v 0.97289 h -0.23151 v -1.97611 h 0.23151 v 0.9288 h 0.0055 q 0.01929,-0.0303 0.05237,-0.0675 l 0.738628,-0.86128 h 0.28801 l -0.847493,0.94809 z"
         style="fill:#ffe4b3;stroke-width:0.26458332"
         id="path1212"
         inkscape:connector-curvature="0" />
    </g>
    <g
       aria-label="POLARITY"
       style="font-style:normal;font-variant:normal;font-weight:normal;font-stretch:normal;font-size:2.82222223px;line-height:1.25;font-family:'Yu Gothic UI';-inkscape-font-specification:'Yu Gothic UI';letter-spacing:0px;word-spacing:0px;fill:#ffe4b3;fill-opacity:1;stroke:none;stroke-width:0.26458332"
       id="text1184"
       transform="translate(4.2967253,1.339675)">
      <path
         d="m 21.657248,273.76351 v 0.7469 h -0.231511 v -1.97611 h 0.542947 q 0.316949,0 0.490582,0.15434 0.175011,0.15434 0.175011,0.43546 0,0.28112 -0.194304,0.46026 -0.192925,0.17915 -0.522276,0.17915 z m 0,-1.01975 v 0.81029 h 0.242534 q 0.239779,0 0.36518,-0.10887 0.12678,-0.11024 0.12678,-0.31006 0,-0.39136 -0.463021,-0.39136 z"
         style="fill:#ffe4b3;stroke-width:0.26458332"
         id="path1186"
         inkscape:connector-curvature="0" />
      <path
         d="m 23.804231,274.54348 q -0.420302,0 -0.673861,-0.27699 -0.252181,-0.27698 -0.252181,-0.72071 0,-0.4768 0.257694,-0.76068 0.257693,-0.28387 0.701421,-0.28387 0.409277,0 0.658702,0.2756 0.250803,0.27561 0.250803,0.72072 0,0.48369 -0.256315,0.76481 -0.256315,0.28112 -0.686263,0.28112 z m 0.01654,-1.83279 q -0.311437,0 -0.50574,0.22462 -0.194304,0.22462 -0.194304,0.5898 0,0.36518 0.188791,0.58842 0.19017,0.22187 0.494716,0.22187 0.325217,0 0.51263,-0.21222 0.187414,-0.21222 0.187414,-0.59394 0,-0.39136 -0.181901,-0.60496 -0.181902,-0.21359 -0.501606,-0.21359 z"
         style="fill:#ffe4b3;stroke-width:0.26458332"
         id="path1188"
         inkscape:connector-curvature="0" />
      <path
         d="m 26.160677,274.51041 h -1.025261 v -1.97611 h 0.231511 v 1.76664 h 0.79375 z"
         style="fill:#ffe4b3;stroke-width:0.26458332"
         id="path1190"
         inkscape:connector-curvature="0" />
      <path
         d="m 27.993467,274.51041 h -0.256315 l -0.209461,-0.55397 h -0.837848 l -0.197059,0.55397 h -0.257693 l 0.757921,-1.97611 h 0.239778 z m -0.541569,-0.76206 -0.310058,-0.84198 q -0.01516,-0.0413 -0.03032,-0.13229 h -0.0055 q -0.01378,0.0841 -0.03169,0.13229 l -0.307303,0.84198 z"
         style="fill:#ffe4b3;stroke-width:0.26458332"
         id="path1192"
         inkscape:connector-curvature="0" />
      <path
         d="m 29.699479,274.51041 h -0.275608 l -0.330729,-0.55397 q -0.04547,-0.0772 -0.08819,-0.13092 -0.04272,-0.0551 -0.08819,-0.0896 -0.0441,-0.0344 -0.09646,-0.0496 -0.05099,-0.0165 -0.115755,-0.0165 h -0.190169 v 0.84061 h -0.231511 v -1.97611 h 0.589801 q 0.129535,0 0.2384,0.0331 0.110243,0.0317 0.19017,0.0978 0.0813,0.0661 0.126779,0.16537 0.04547,0.0978 0.04547,0.23013 0,0.10335 -0.03169,0.19017 -0.03032,0.0854 -0.08819,0.15296 -0.0565,0.0675 -0.137804,0.11576 -0.07993,0.0468 -0.180523,0.073 v 0.006 q 0.04961,0.022 0.08544,0.051 0.03721,0.0276 0.07028,0.0661 0.03307,0.0386 0.06477,0.0882 0.03307,0.0482 0.07304,0.113 z m -1.185113,-1.76665 v 0.71658 h 0.314192 q 0.08682,0 0.159853,-0.0262 0.07441,-0.0262 0.128157,-0.0744 0.05374,-0.0496 0.08406,-0.11988 0.03032,-0.0717 0.03032,-0.15986 0,-0.15847 -0.103353,-0.24667 -0.101975,-0.0896 -0.296278,-0.0896 z"
         style="fill:#ffe4b3;stroke-width:0.26458332"
         id="path1194"
         inkscape:connector-curvature="0" />
      <path
         d="m 30.201084,274.51041 h -0.23151 v -1.97611 h 0.23151 z"
         style="fill:#ffe4b3;stroke-width:0.26458332"
         id="path1196"
         inkscape:connector-curvature="0" />
      <path
         d="m 31.887803,272.74376 h -0.570508 v 1.76665 h -0.23151 v -1.76665 h -0.56913 v -0.20946 h 1.371148 z"
         style="fill:#ffe4b3;stroke-width:0.26458332"
         id="path1199"
         inkscape:connector-curvature="0" />
      <path
         d="m 33.480815,272.5343 -0.651812,1.24575 v 0.73036 h -0.23151 v -0.72485 l -0.635276,-1.25126 h 0.263205 l 0.442351,0.89297 q 0.0083,0.0165 0.04823,0.12127 h 0.0041 q 0.01378,-0.0469 0.05237,-0.12127 l 0.463021,-0.89297 z"
         style="fill:#ffe4b3;stroke-width:0.26458332"
         id="path1201"
         inkscape:connector-curvature="0" />
    </g>
  </g>
  <g
     inkscape:groupmode="layer"
     id="layer2"
     inkscape:label="Grid"
     style="display:none"
     sodipodi:insensitive="true">
    <g
       style="display:inline;stroke:#ffe4b3"
       id="g2708">
      <path
         style="fill:none;stroke:#ffe4b3;stroke-width:0.05;stroke-linecap:butt;stroke-linejoin:miter;stroke-miterlimit:4;stroke-dasharray:none;stroke-opacity:1"
         d="M 7.9375007,-5.0001865e-6 7.9374977,100.54166"
         id="path881-8-8-2"
         inkscape:connector-curvature="0"
         sodipodi:nodetypes="cc" />
      <path
         sodipodi:nodetypes="cc"
         inkscape:connector-curvature="0"
         id="path890-2-5-0"
         d="M 3.9687527,4.9998135e-6 3.9687487,100.54167"
         style="fill:none;stroke:#ffe4b3;stroke-width:0.05;stroke-linecap:butt;stroke-linejoin:miter;stroke-miterlimit:4;stroke-dasharray:none;stroke-opacity:1" />
      <path
         style="fill:none;stroke:#ffe4b3;stroke-width:0.05;stroke-linecap:butt;stroke-linejoin:miter;stroke-miterlimit:4;stroke-dasharray:none;stroke-opacity:1"
         d="M 11.906254,4.9998135e-6 11.90625,100.54167"
         id="path895-1-5-2"
         inkscape:connector-curvature="0"
         sodipodi:nodetypes="cc" />
      <path
         sodipodi:nodetypes="cc"
         inkscape:connector-curvature="0"
         id="path1107-7"
         d="M 7.2598426e-7,50.270605 15.875001,50.271066"
         style="fill:none;stroke:#ffe4b3;stroke-width:0.05;stroke-linecap:butt;stroke-linejoin:miter;stroke-miterlimit:4;stroke-dasharray:none;stroke-opacity:1" />
      <circle
         r="4.0999999"
         cy="50.270832"
         cx="7.9523048"
         id="circle1018-7"
         style="display:inline;opacity:1;fill:none;fill-opacity:1;stroke:#ffe4b3;stroke-width:0.05;stroke-linecap:square;stroke-linejoin:round;stroke-miterlimit:4;stroke-dasharray:none;stroke-dashoffset:0;stroke-opacity:1;paint-order:markers fill stroke" />
      <circle
         style="display:inline;opacity:1;fill:none;fill-opacity:1;stroke:#ffe4b3;stroke-width:0.05172414;stroke-linecap:square;stroke-linejoin:round;stroke-miterlimit:4;stroke-dasharray:none;stroke-dashoffset:0;stroke-opacity:1;paint-order:markers fill stroke"
         id="circle977-3"
         cx="7.9360805"
         cy="50.270832"
         r="5.4741378" />
      <path
         style="fill:none;stroke:#ffe4b3;stroke-width:0.05;stroke-linecap:butt;stroke-linejoin:miter;stroke-miterlimit:4;stroke-dasharray:none;stroke-opacity:1"
         d="M 7.2598426e-7,33.601974 15.875001,33.602435"
         id="path1010"
         inkscape:connector-curvature="0"
         sodipodi:nodetypes="cc" />
      <circle
         style="display:inline;opacity:1;fill:none;fill-opacity:1;stroke:#ffe4b3;stroke-width:0.05;stroke-linecap:square;stroke-linejoin:round;stroke-miterlimit:4;stroke-dasharray:none;stroke-dashoffset:0;stroke-opacity:1;paint-order:markers fill stroke"
         id="circle1012"
         cx="7.9523048"
         cy="33.602142"
         r="4.0999999" />
      <circle
         r="5.4741378"
         cy="33.602142"
         cx="7.9360805"
         id="circle1015"
         style="display:inline;opacity:1;fill:none;fill-opacity:1;stroke:#ffe4b3;stroke-width:0.05172414;stroke-linecap:square;stroke-linejoin:round;stroke-miterlimit:4;stroke-dasharray:none;stroke-dashoffset:0;stroke-opacity:1;paint-order:markers fill stroke" />
      <path
         style="fill:none;stroke:#ffe4b3;stroke-width:0.05;stroke-linecap:butt;stroke-linejoin:miter;stroke-miterlimit:4;stroke-dasharray:none;stroke-opacity:1"
         d="M 7.2598426e-7,66.940056 15.875001,66.940517"
         id="path1017"
         inkscape:connector-curvature="0"
         sodipodi:nodetypes="cc" />
      <circle
         style="display:inline;opacity:1;fill:none;fill-opacity:1;stroke:#ffe4b3;stroke-width:0.05;stroke-linecap:square;stroke-linejoin:round;stroke-miterlimit:4;stroke-dasharray:none;stroke-dashoffset:0;stroke-opacity:1;paint-order:markers fill stroke"
         id="circle1019"
         cx="7.9523048"
         cy="66.940338"
         r="4.0999999" />
      <circle
         r="5.4741378"
         cy="66.940338"
         cx="7.9360805"
         id="circle1021"
         style="display:inline;opacity:1;fill:none;fill-opacity:1;stroke:#ffe4b3;stroke-width:0.05172414;stroke-linecap:square;stroke-linejoin:round;stroke-miterlimit:4;stroke-dasharray:none;stroke-dashoffset:0;stroke-opacity:1;paint-order:markers fill stroke" />
      <path
         sodipodi:nodetypes="cc"
         inkscape:connector-curvature="0"
         id="path1023"
         d="M 7.2598426e-7,83.608108 15.875001,83.608569"
         style="fill:none;stroke:#ffe4b3;stroke-width:0.05;stroke-linecap:butt;stroke-linejoin:miter;stroke-miterlimit:4;stroke-dasharray:none;stroke-opacity:1" />
      <circle
         r="4.0999999"
         cy="83.60833"
         cx="7.9523048"
         id="circle1025"
         style="display:inline;opacity:1;fill:none;fill-opacity:1;stroke:#ffe4b3;stroke-width:0.05;stroke-linecap:square;stroke-linejoin:round;stroke-miterlimit:4;stroke-dasharray:none;stroke-dashoffset:0;stroke-opacity:1;paint-order:markers fill stroke" />
      <circle
         style="display:inline;opacity:1;fill:none;fill-opacity:1;stroke:#ffe4b3;stroke-width:0.05172414;stroke-linecap:square;stroke-linejoin:round;stroke-miterlimit:4;stroke-dasharray:none;stroke-dashoffset:0;stroke-opacity:1;paint-order:markers fill stroke"
         id="circle1027"
         cx="7.9360805"
         cy="83.60833"
         r="5.4741378" />
      <path
         sodipodi:nodetypes="cc"
         inkscape:connector-curvature="0"
         id="path1029"
         d="M 7.2598426e-7,16.933102 15.875001,16.933563"
         style="fill:none;stroke:#ffe4b3;stroke-width:0.05;stroke-linecap:butt;stroke-linejoin:miter;stroke-miterlimit:4;stroke-dasharray:none;stroke-opacity:1" />
      <circle
         r="4.0999999"
         cy="16.933331"
         cx="7.9523048"
         id="circle1031"
         style="display:inline;opacity:1;fill:none;fill-opacity:1;stroke:#ffe4b3;stroke-width:0.05;stroke-linecap:square;stroke-linejoin:round;stroke-miterlimit:4;stroke-dasharray:none;stroke-dashoffset:0;stroke-opacity:1;paint-order:markers fill stroke" />
      <circle
         style="display:inline;opacity:1;fill:none;fill-opacity:1;stroke:#ffe4b3;stroke-width:0.05172414;stroke-linecap:square;stroke-linejoin:round;stroke-miterlimit:4;stroke-dasharray:none;stroke-dashoffset:0;stroke-opacity:1;paint-order:markers fill stroke"
         id="circle1033"
         cx="7.9360805"
         cy="16.933331"
         r="5.4741378" />
    </g>
    <g
       id="g1987"
       style="display:inline;stroke:#ffe4b3"
       transform="translate(15.875004)">
      <path
         sodipodi:nodetypes="cc"
         inkscape:connector-curvature="0"
         id="path1951"
         d="M 7.9375007,-5.0001865e-6 7.9374977,100.54166"
         style="fill:none;stroke:#ffe4b3;stroke-width:0.05;stroke-linecap:butt;stroke-linejoin:miter;stroke-miterlimit:4;stroke-dasharray:none;stroke-opacity:1" />
      <path
         style="fill:none;stroke:#ffe4b3;stroke-width:0.05;stroke-linecap:butt;stroke-linejoin:miter;stroke-miterlimit:4;stroke-dasharray:none;stroke-opacity:1"
         d="M 3.9687527,4.9998135e-6 3.9687487,100.54167"
         id="path1953"
         inkscape:connector-curvature="0"
         sodipodi:nodetypes="cc" />
      <path
         sodipodi:nodetypes="cc"
         inkscape:connector-curvature="0"
         id="path1955"
         d="M 11.906254,4.9998135e-6 11.90625,100.54167"
         style="fill:none;stroke:#ffe4b3;stroke-width:0.05;stroke-linecap:butt;stroke-linejoin:miter;stroke-miterlimit:4;stroke-dasharray:none;stroke-opacity:1" />
      <path
         style="fill:none;stroke:#ffe4b3;stroke-width:0.05;stroke-linecap:butt;stroke-linejoin:miter;stroke-miterlimit:4;stroke-dasharray:none;stroke-opacity:1"
         d="M 7.2598426e-7,50.270605 15.875001,50.271066"
         id="path1957"
         inkscape:connector-curvature="0"
         sodipodi:nodetypes="cc" />
      <circle
         style="display:inline;opacity:1;fill:none;fill-opacity:1;stroke:#ffe4b3;stroke-width:0.05;stroke-linecap:square;stroke-linejoin:round;stroke-miterlimit:4;stroke-dasharray:none;stroke-dashoffset:0;stroke-opacity:1;paint-order:markers fill stroke"
         id="circle1959"
         cx="7.9523048"
         cy="50.270832"
         r="4.0999999" />
      <circle
         r="5.4741378"
         cy="50.270832"
         cx="7.9360805"
         id="circle1961"
         style="display:inline;opacity:1;fill:none;fill-opacity:1;stroke:#ffe4b3;stroke-width:0.05172414;stroke-linecap:square;stroke-linejoin:round;stroke-miterlimit:4;stroke-dasharray:none;stroke-dashoffset:0;stroke-opacity:1;paint-order:markers fill stroke" />
      <path
         sodipodi:nodetypes="cc"
         inkscape:connector-curvature="0"
         id="path1963"
         d="M 7.2598426e-7,33.601974 15.875001,33.602435"
         style="fill:none;stroke:#ffe4b3;stroke-width:0.05;stroke-linecap:butt;stroke-linejoin:miter;stroke-miterlimit:4;stroke-dasharray:none;stroke-opacity:1" />
      <circle
         r="4.0999999"
         cy="33.602142"
         cx="7.9523048"
         id="circle1965"
         style="display:inline;opacity:1;fill:none;fill-opacity:1;stroke:#ffe4b3;stroke-width:0.05;stroke-linecap:square;stroke-linejoin:round;stroke-miterlimit:4;stroke-dasharray:none;stroke-dashoffset:0;stroke-opacity:1;paint-order:markers fill stroke" />
      <circle
         style="display:inline;opacity:1;fill:none;fill-opacity:1;stroke:#ffe4b3;stroke-width:0.05172414;stroke-linecap:square;stroke-linejoin:round;stroke-miterlimit:4;stroke-dasharray:none;stroke-dashoffset:0;stroke-opacity:1;paint-order:markers fill stroke"
         id="circle1967"
         cx="7.9360805"
         cy="33.602142"
         r="5.4741378" />
      <path
         sodipodi:nodetypes="cc"
         inkscape:connector-curvature="0"
         id="path1969"
         d="M 7.2598426e-7,66.940056 15.875001,66.940517"
         style="fill:none;stroke:#ffe4b3;stroke-width:0.05;stroke-linecap:butt;stroke-linejoin:miter;stroke-miterlimit:4;stroke-dasharray:none;stroke-opacity:1" />
      <circle
         r="4.0999999"
         cy="66.940338"
         cx="7.9523048"
         id="circle1971"
         style="display:inline;opacity:1;fill:none;fill-opacity:1;stroke:#ffe4b3;stroke-width:0.05;stroke-linecap:square;stroke-linejoin:round;stroke-miterlimit:4;stroke-dasharray:none;stroke-dashoffset:0;stroke-opacity:1;paint-order:markers fill stroke" />
      <circle
         style="display:inline;opacity:1;fill:none;fill-opacity:1;stroke:#ffe4b3;stroke-width:0.05172414;stroke-linecap:square;stroke-linejoin:round;stroke-miterlimit:4;stroke-dasharray:none;stroke-dashoffset:0;stroke-opacity:1;paint-order:markers fill stroke"
         id="circle1973"
         cx="7.9360805"
         cy="66.940338"
         r="5.4741378" />
      <path
         style="fill:none;stroke:#ffe4b3;stroke-width:0.05;stroke-linecap:butt;stroke-linejoin:miter;stroke-miterlimit:4;stroke-dasharray:none;stroke-opacity:1"
         d="M 7.2598426e-7,83.608108 15.875001,83.608569"
         id="path1975"
         inkscape:connector-curvature="0"
         sodipodi:nodetypes="cc" />
      <circle
         style="display:inline;opacity:1;fill:none;fill-opacity:1;stroke:#ffe4b3;stroke-width:0.05;stroke-linecap:square;stroke-linejoin:round;stroke-miterlimit:4;stroke-dasharray:none;stroke-dashoffset:0;stroke-opacity:1;paint-order:markers fill stroke"
         id="circle1977"
         cx="7.9523048"
         cy="83.60833"
         r="4.0999999" />
      <circle
         r="5.4741378"
         cy="83.60833"
         cx="7.9360805"
         id="circle1979"
         style="display:inline;opacity:1;fill:none;fill-opacity:1;stroke:#ffe4b3;stroke-width:0.05172414;stroke-linecap:square;stroke-linejoin:round;stroke-miterlimit:4;stroke-dasharray:none;stroke-dashoffset:0;stroke-opacity:1;paint-order:markers fill stroke" />
      <path
         style="fill:none;stroke:#ffe4b3;stroke-width:0.05;stroke-linecap:butt;stroke-linejoin:miter;stroke-miterlimit:4;stroke-dasharray:none;stroke-opacity:1"
         d="M 7.2598426e-7,16.933102 15.875001,16.933563"
         id="path1981"
         inkscape:connector-curvature="0"
         sodipodi:nodetypes="cc" />
      <circle
         style="display:inline;opacity:1;fill:none;fill-opacity:1;stroke:#ffe4b3;stroke-width:0.05;stroke-linecap:square;stroke-linejoin:round;stroke-miterlimit:4;stroke-dasharray:none;stroke-dashoffset:0;stroke-opacity:1;paint-order:markers fill stroke"
         id="circle1983"
         cx="7.9523048"
         cy="16.933331"
         r="4.0999999" />
      <circle
         r="5.4741378"
         cy="16.933331"
         cx="7.9360805"
         id="circle1985"
         style="display:inline;opacity:1;fill:none;fill-opacity:1;stroke:#ffe4b3;stroke-width:0.05172414;stroke-linecap:square;stroke-linejoin:round;stroke-miterlimit:4;stroke-dasharray:none;stroke-dashoffset:0;stroke-opacity:1;paint-order:markers fill stroke" />
    </g>
    <g
       transform="translate(31.750014)"
       style="display:inline;stroke:#ffe4b3"
       id="g2025">
      <path
         style="fill:none;stroke:#ffe4b3;stroke-width:0.05;stroke-linecap:butt;stroke-linejoin:miter;stroke-miterlimit:4;stroke-dasharray:none;stroke-opacity:1"
         d="M 7.9375007,-5.0001865e-6 7.9374977,100.54166"
         id="path1989"
         inkscape:connector-curvature="0"
         sodipodi:nodetypes="cc" />
      <path
         sodipodi:nodetypes="cc"
         inkscape:connector-curvature="0"
         id="path1991"
         d="M 3.9687527,4.9998135e-6 3.9687487,100.54167"
         style="fill:none;stroke:#ffe4b3;stroke-width:0.05;stroke-linecap:butt;stroke-linejoin:miter;stroke-miterlimit:4;stroke-dasharray:none;stroke-opacity:1" />
      <path
         style="fill:none;stroke:#ffe4b3;stroke-width:0.05;stroke-linecap:butt;stroke-linejoin:miter;stroke-miterlimit:4;stroke-dasharray:none;stroke-opacity:1"
         d="M 11.906254,4.9998135e-6 11.90625,100.54167"
         id="path1993"
         inkscape:connector-curvature="0"
         sodipodi:nodetypes="cc" />
      <path
         sodipodi:nodetypes="cc"
         inkscape:connector-curvature="0"
         id="path1995"
         d="M 7.2598426e-7,50.270605 15.875001,50.271066"
         style="fill:none;stroke:#ffe4b3;stroke-width:0.05;stroke-linecap:butt;stroke-linejoin:miter;stroke-miterlimit:4;stroke-dasharray:none;stroke-opacity:1" />
      <circle
         r="4.0999999"
         cy="50.270832"
         cx="7.9523048"
         id="circle1997"
         style="display:inline;opacity:1;fill:none;fill-opacity:1;stroke:#ffe4b3;stroke-width:0.05;stroke-linecap:square;stroke-linejoin:round;stroke-miterlimit:4;stroke-dasharray:none;stroke-dashoffset:0;stroke-opacity:1;paint-order:markers fill stroke" />
      <circle
         style="display:inline;opacity:1;fill:none;fill-opacity:1;stroke:#ffe4b3;stroke-width:0.05172414;stroke-linecap:square;stroke-linejoin:round;stroke-miterlimit:4;stroke-dasharray:none;stroke-dashoffset:0;stroke-opacity:1;paint-order:markers fill stroke"
         id="circle1999"
         cx="7.9360805"
         cy="50.270832"
         r="5.4741378" />
      <path
         style="fill:none;stroke:#ffe4b3;stroke-width:0.05;stroke-linecap:butt;stroke-linejoin:miter;stroke-miterlimit:4;stroke-dasharray:none;stroke-opacity:1"
         d="M 7.2598426e-7,33.601974 15.875001,33.602435"
         id="path2001"
         inkscape:connector-curvature="0"
         sodipodi:nodetypes="cc" />
      <circle
         style="display:inline;opacity:1;fill:none;fill-opacity:1;stroke:#ffe4b3;stroke-width:0.05;stroke-linecap:square;stroke-linejoin:round;stroke-miterlimit:4;stroke-dasharray:none;stroke-dashoffset:0;stroke-opacity:1;paint-order:markers fill stroke"
         id="circle2003"
         cx="7.9523048"
         cy="33.602142"
         r="4.0999999" />
      <circle
         r="5.4741378"
         cy="33.602142"
         cx="7.9360805"
         id="circle2005"
         style="display:inline;opacity:1;fill:none;fill-opacity:1;stroke:#ffe4b3;stroke-width:0.05172414;stroke-linecap:square;stroke-linejoin:round;stroke-miterlimit:4;stroke-dasharray:none;stroke-dashoffset:0;stroke-opacity:1;paint-order:markers fill stroke" />
      <path
         style="fill:none;stroke:#ffe4b3;stroke-width:0.05;stroke-linecap:butt;stroke-linejoin:miter;stroke-miterlimit:4;stroke-dasharray:none;stroke-opacity:1"
         d="M 7.2598426e-7,66.940056 15.875001,66.940517"
         id="path2007"
         inkscape:connector-curvature="0"
         sodipodi:nodetypes="cc" />
      <circle
         style="display:inline;opacity:1;fill:none;fill-opacity:1;stroke:#ffe4b3;stroke-width:0.05;stroke-linecap:square;stroke-linejoin:round;stroke-miterlimit:4;stroke-dasharray:none;stroke-dashoffset:0;stroke-opacity:1;paint-order:markers fill stroke"
         id="circle2009"
         cx="7.9523048"
         cy="66.940338"
         r="4.0999999" />
      <circle
         r="5.4741378"
         cy="66.940338"
         cx="7.9360805"
         id="circle2011"
         style="display:inline;opacity:1;fill:none;fill-opacity:1;stroke:#ffe4b3;stroke-width:0.05172414;stroke-linecap:square;stroke-linejoin:round;stroke-miterlimit:4;stroke-dasharray:none;stroke-dashoffset:0;stroke-opacity:1;paint-order:markers fill stroke" />
      <path
         sodipodi:nodetypes="cc"
         inkscape:connector-curvature="0"
         id="path2013"
         d="M 7.2598426e-7,83.608108 15.875001,83.608569"
         style="fill:none;stroke:#ffe4b3;stroke-width:0.05;stroke-linecap:butt;stroke-linejoin:miter;stroke-miterlimit:4;stroke-dasharray:none;stroke-opacity:1" />
      <circle
         r="4.0999999"
         cy="83.60833"
         cx="7.9523048"
         id="circle2015"
         style="display:inline;opacity:1;fill:none;fill-opacity:1;stroke:#ffe4b3;stroke-width:0.05;stroke-linecap:square;stroke-linejoin:round;stroke-miterlimit:4;stroke-dasharray:none;stroke-dashoffset:0;stroke-opacity:1;paint-order:markers fill stroke" />
      <circle
         style="display:inline;opacity:1;fill:none;fill-opacity:1;stroke:#ffe4b3;stroke-width:0.05172414;stroke-linecap:square;stroke-linejoin:round;stroke-miterlimit:4;stroke-dasharray:none;stroke-dashoffset:0;stroke-opacity:1;paint-order:markers fill stroke"
         id="circle2017"
         cx="7.9360805"
         cy="83.60833"
         r="5.4741378" />
      <path
         sodipodi:nodetypes="cc"
         inkscape:connector-curvature="0"
         id="path2019"
         d="M 7.2598426e-7,16.933102 15.875001,16.933563"
         style="fill:none;stroke:#ffe4b3;stroke-width:0.05;stroke-linecap:butt;stroke-linejoin:miter;stroke-miterlimit:4;stroke-dasharray:none;stroke-opacity:1" />
      <circle
         r="4.0999999"
         cy="16.933331"
         cx="7.9523048"
         id="circle2021"
         style="display:inline;opacity:1;fill:none;fill-opacity:1;stroke:#ffe4b3;stroke-width:0.05;stroke-linecap:square;stroke-linejoin:round;stroke-miterlimit:4;stroke-dasharray:none;stroke-dashoffset:0;stroke-opacity:1;paint-order:markers fill stroke" />
      <circle
         style="display:inline;opacity:1;fill:none;fill-opacity:1;stroke:#ffe4b3;stroke-width:0.05172414;stroke-linecap:square;stroke-linejoin:round;stroke-miterlimit:4;stroke-dasharray:none;stroke-dashoffset:0;stroke-opacity:1;paint-order:markers fill stroke"
         id="circle2023"
         cx="7.9360805"
         cy="16.933331"
         r="5.4741378" />
    </g>
  </g>
</svg>
