<?xml version="1.0" encoding="UTF-8" standalone="no"?>
<!-- Created with Inkscape (http://www.inkscape.org/) -->

<svg
   xmlns:dc="http://purl.org/dc/elements/1.1/"
   xmlns:cc="http://creativecommons.org/ns#"
   xmlns:rdf="http://www.w3.org/1999/02/22-rdf-syntax-ns#"
   xmlns:svg="http://www.w3.org/2000/svg"
   xmlns="http://www.w3.org/2000/svg"
   xmlns:sodipodi="http://sodipodi.sourceforge.net/DTD/sodipodi-0.dtd"
   xmlns:inkscape="http://www.inkscape.org/namespaces/inkscape"
   width="120"
   height="380"
   viewBox="0 0 31.750002 100.54167"
   version="1.1"
   id="svg8"
   inkscape:version="0.92.4 (5da689c313, 2019-01-14)"
   sodipodi:docname="CD4086.svg">
  <defs
     id="defs2" />
  <sodipodi:namedview
     id="base"
     pagecolor="#ffffff"
     bordercolor="#666666"
     borderopacity="1.0"
     inkscape:pageopacity="0.0"
     inkscape:pageshadow="2"
     inkscape:zoom="2"
     inkscape:cx="64.625196"
     inkscape:cy="195.92979"
     inkscape:document-units="mm"
     inkscape:current-layer="layer1"
     showgrid="true"
     units="px"
     inkscape:snap-bbox="true"
     inkscape:snap-page="true"
     inkscape:bbox-nodes="true"
     inkscape:snap-bbox-edge-midpoints="true"
     inkscape:window-width="1920"
     inkscape:window-height="1017"
     inkscape:window-x="-8"
     inkscape:window-y="-8"
     inkscape:window-maximized="1">
    <inkscape:grid
       type="xygrid"
       id="grid116" />
  </sodipodi:namedview>
  <metadata
     id="metadata5">
    <rdf:RDF>
      <cc:Work
         rdf:about="">
        <dc:format>image/svg+xml</dc:format>
        <dc:type
           rdf:resource="http://purl.org/dc/dcmitype/StillImage" />
        <dc:title />
      </cc:Work>
    </rdf:RDF>
  </metadata>
  <g
     inkscape:groupmode="layer"
     id="layer3"
     inkscape:label="Panel"
     sodipodi:insensitive="true">
    <path
       sodipodi:type="inkscape:offset"
       inkscape:radius="0"
       inkscape:original="M 0 196.45898 L 0 297 L 15.875 297 L 15.875 196.45898 L 0 196.45898 z "
       style="fill:#894c26;fill-opacity:1;stroke-width:0.3310422"
       id="rect3855"
       d="M 0,196.45898 V 297 H 15.875 V 196.45898 Z"
       transform="matrix(2,0,0,1.0000064,0,-196.46023)" />
  </g>
  <g
     inkscape:label="Layer 1"
     inkscape:groupmode="layer"
     id="layer1"
     transform="translate(0,-196.45832)"
     style="display:inline">
    <text
       xml:space="preserve"
       style="font-style:normal;font-weight:normal;font-size:2.82222223px;line-height:1.25;font-family:sans-serif;letter-spacing:0px;word-spacing:0px;fill:#000000;fill-opacity:1;stroke:none;stroke-width:0.26458332"
       x="17.197916"
       y="201.74998"
       id="text3821"><tspan
         sodipodi:role="line"
         id="tspan3819"
         x="17.197916"
         y="204.24699"
         style="stroke-width:0.26458332" /></text>
    <g
       id="g4342">
      <g
         transform="translate(-9.481569,1.7166648)"
         id="text956"
         style="font-style:normal;font-variant:normal;font-weight:normal;font-stretch:normal;font-size:2.82222223px;line-height:1.25;font-family:'Copperplate Gothic Light';-inkscape-font-specification:'Copperplate Gothic Light, ';letter-spacing:0px;word-spacing:0px;fill:#ffe4b3;fill-opacity:1;stroke:#ffe4b3;stroke-width:0.2;stroke-miterlimit:4;stroke-dasharray:none;stroke-opacity:1"
         aria-label="/^M^\">
        <path
           inkscape:connector-curvature="0"
           id="path958"
           style="font-style:normal;font-variant:normal;font-weight:normal;font-stretch:normal;font-size:2.82222223px;line-height:1.25;font-family:'Copperplate Gothic Light';-inkscape-font-specification:'Copperplate Gothic Light, ';fill:#ffe4b3;stroke:#ffe4b3;stroke-width:0.2;stroke-miterlimit:4;stroke-dasharray:none;stroke-opacity:1"
           d="m 21.203855,291.40545 v 0.0386 h -0.434082 v -0.0386 q 0.09509,-0.006 0.224621,-0.17088 l 1.094162,-1.4621 q 0.07441,-0.1006 0.07441,-0.12402 0,-0.0372 -0.06615,-0.0482 v -0.0372 h 0.423058 v 0.0372 q -0.09508,0.006 -0.22462,0.17087 l -1.08176,1.46348 q -0.07579,0.10197 -0.07579,0.12402 0,0.0358 0.06615,0.0469 z" />
        <path
           inkscape:connector-curvature="0"
           id="path960"
           style="font-style:normal;font-variant:normal;font-weight:normal;font-stretch:normal;font-size:2.82222223px;line-height:1.25;font-family:'Copperplate Gothic Light';-inkscape-font-specification:'Copperplate Gothic Light, ';fill:#ffe4b3;stroke:#ffe4b3;stroke-width:0.2;stroke-miterlimit:4;stroke-dasharray:none;stroke-opacity:1"
           d="M 22.940183,290.3857 H 22.73899 l 0.493338,-0.8282 h 0.243912 l 0.493338,0.8282 h -0.20395 l -0.413411,-0.68075 z" />
        <path
           inkscape:connector-curvature="0"
           id="path962"
           style="font-style:normal;font-variant:normal;font-weight:normal;font-stretch:normal;font-size:2.82222223px;line-height:1.25;font-family:'Copperplate Gothic Light';-inkscape-font-specification:'Copperplate Gothic Light, ';fill:#ffe4b3;stroke:#ffe4b3;stroke-width:0.2;stroke-miterlimit:4;stroke-dasharray:none;stroke-opacity:1"
           d="m 25.342104,291.44403 -0.789616,-1.58061 v 1.418 q 0,0.0565 0.01791,0.0813 0.01791,0.0234 0.07028,0.0372 v 0.0441 h -0.373449 v -0.0441 q 0.05237,-0.0138 0.07028,-0.0372 0.01792,-0.0234 0.01792,-0.0813 v -1.5558 q 0,-0.0579 -0.01792,-0.0813 -0.01791,-0.0248 -0.07028,-0.0372 v -0.0441 h 0.487826 v 0.0441 q -0.06752,0.0234 -0.06752,0.0579 0,0.0165 0.04547,0.10611 l 0.62563,1.24161 0.628385,-1.25263 q 0.03307,-0.0661 0.03307,-0.0937 0,-0.0358 -0.06752,-0.0593 v -0.0441 h 0.49196 v 0.0441 q -0.05237,0.0138 -0.07028,0.0372 -0.01792,0.0234 -0.01792,0.0813 v 1.5558 q 0,0.0565 0.01792,0.0813 0.01791,0.0234 0.07028,0.0372 v 0.0441 h -0.392741 v -0.0441 q 0.05374,-0.0138 0.07028,-0.0372 0.01791,-0.0234 0.01791,-0.0813 v -1.418 z" />
        <path
           inkscape:connector-curvature="0"
           id="path964"
           style="font-style:normal;font-variant:normal;font-weight:normal;font-stretch:normal;font-size:2.82222223px;line-height:1.25;font-family:'Copperplate Gothic Light';-inkscape-font-specification:'Copperplate Gothic Light, ';fill:#ffe4b3;stroke:#ffe4b3;stroke-width:0.2;stroke-miterlimit:4;stroke-dasharray:none;stroke-opacity:1"
           d="m 26.942006,290.3857 h -0.201193 l 0.493338,-0.8282 h 0.243912 l 0.493338,0.8282 h -0.20395 l -0.413411,-0.68075 z" />
        <path
           inkscape:connector-curvature="0"
           id="path966"
           style="font-style:normal;font-variant:normal;font-weight:normal;font-stretch:normal;font-size:2.82222223px;line-height:1.25;font-family:'Copperplate Gothic Light';-inkscape-font-specification:'Copperplate Gothic Light, ';fill:#ffe4b3;stroke:#ffe4b3;stroke-width:0.2;stroke-miterlimit:4;stroke-dasharray:none;stroke-opacity:1"
           d="m 28.617701,289.56301 v 0.0372 q -0.06615,0.011 -0.06615,0.0482 0,0.0234 0.07441,0.12402 l 1.092784,1.4621 q 0.129536,0.16536 0.22462,0.17088 v 0.0386 h -0.434082 v -0.0386 q 0.06615,-0.011 0.06615,-0.0469 0,-0.0207 -0.07579,-0.12402 l -1.080382,-1.46348 q -0.129535,-0.16536 -0.22462,-0.17087 v -0.0372 z" />
      </g>
      <g
         id="text924"
         style="font-style:normal;font-variant:normal;font-weight:normal;font-stretch:normal;font-size:2.97226882px;line-height:1.25;font-family:'Yu Gothic UI';-inkscape-font-specification:'Yu Gothic UI';letter-spacing:0px;word-spacing:0px;fill:#ffe4b3;fill-opacity:1;stroke:none;stroke-width:0.24768905"
         aria-label="LUNETTA">
        <path
           id="path892"
           style="font-size:2.97226882px;fill:#ffe4b3;stroke-width:0.24768905"
           d="M 11.061028,295.90683 H 9.9812581 v -2.08117 h 0.2438189 v 1.86057 h 0.835951 z"
           inkscape:connector-curvature="0" />
        <path
           id="path894"
           style="font-size:2.97226882px;fill:#ffe4b3;stroke-width:0.24768905"
           d="m 12.902731,295.06507 q 0,0.87659 -0.79096,0.87659 -0.75758,0 -0.75758,-0.84321 v -1.27279 h 0.243819 v 1.25683 q 0,0.64002 0.539885,0.64002 0.521017,0 0.521017,-0.61825 v -1.2786 h 0.243819 z"
           inkscape:connector-curvature="0" />
        <path
           id="path896"
           style="font-size:2.97226882px;fill:#ffe4b3;stroke-width:0.24768905"
           d="m 15.101456,295.90683 h -0.298969 l -1.071062,-1.65884 q -0.04064,-0.0624 -0.06676,-0.13062 h -0.0087 q 0.01161,0.0668 0.01161,0.28591 v 1.50355 h -0.243819 v -2.08117 h 0.316384 l 1.042036,1.63272 q 0.06531,0.10159 0.08418,0.13932 h 0.0058 q -0.01451,-0.09 -0.01451,-0.30622 v -1.46582 h 0.243819 z"
           inkscape:connector-curvature="0" />
        <path
           id="path898"
           style="font-size:2.97226882px;fill:#ffe4b3;stroke-width:0.24768905"
           d="m 16.750136,295.90683 h -1.102991 v -2.08117 h 1.056549 v 0.2206 h -0.81273 v 0.69227 h 0.751775 v 0.21915 h -0.751775 v 0.72855 h 0.859172 z"
           inkscape:connector-curvature="0" />
        <path
           id="path900"
           style="font-size:2.97226882px;fill:#ffe4b3;stroke-width:0.24768905"
           d="m 18.381401,294.04626 h -0.60084 v 1.86057 h -0.243819 v -1.86057 h -0.599388 v -0.2206 h 1.444047 z"
           inkscape:connector-curvature="0" />
        <path
           id="path902"
           style="font-size:2.97226882px;fill:#ffe4b3;stroke-width:0.24768905"
           d="m 19.937197,294.04626 h -0.600839 v 1.86057 h -0.243819 v -1.86057 h -0.599388 v -0.2206 h 1.444046 z"
           inkscape:connector-curvature="0" />
        <path
           id="path904"
           style="font-size:2.97226882px;fill:#ffe4b3;stroke-width:0.24768905"
           d="M 21.768742,295.90683 H 21.4988 l -0.220598,-0.58342 h -0.882393 l -0.207536,0.58342 h -0.271394 l 0.798217,-2.08117 h 0.252527 z m -0.570362,-0.80257 -0.326543,-0.88675 q -0.01596,-0.0435 -0.03193,-0.13932 h -0.0058 q -0.01451,0.0885 -0.03338,0.13932 l -0.323641,0.88675 z"
           inkscape:connector-curvature="0" />
      </g>
    </g>
    <g
       aria-label="A"
       transform="translate(-3.5553388,197.0812)"
       style="font-style:normal;font-variant:normal;font-weight:normal;font-stretch:normal;font-size:2.82222223px;line-height:1.25;font-family:'Yu Gothic UI';-inkscape-font-specification:'Yu Gothic UI';letter-spacing:0px;word-spacing:0px;fill:#ffe4b3;fill-opacity:1;stroke:none;stroke-width:0.26458332"
       id="text943">
      <path
         d="M 12.372027,9.260417 H 12.115711 L 11.90625,8.7064456 H 11.068402 L 10.871343,9.260417 H 10.61365 L 11.371571,7.2843102 H 11.61135 Z M 11.830458,8.4983619 11.520399,7.6563805 q -0.01516,-0.041341 -0.03032,-0.1322916 h -0.0055 q -0.01378,0.08406 -0.03169,0.1322916 l -0.307302,0.8419814 z"
         style="fill:#ffe4b3;stroke-width:0.26458332"
         id="path1083"
         inkscape:connector-curvature="0" />
    </g>
    <g
       aria-label="B"
       transform="translate(12.361694,182.52912)"
       style="font-style:normal;font-variant:normal;font-weight:normal;font-stretch:normal;font-size:2.82222223px;line-height:1.25;font-family:'Yu Gothic UI';-inkscape-font-specification:'Yu Gothic UI';letter-spacing:0px;word-spacing:0px;fill:#ffe4b3;fill-opacity:1;stroke:none;stroke-width:0.26458332"
       id="text947">
      <path
         d="m 10.842404,23.8125 v -1.976107 h 0.56224 q 0.256315,0 0.406521,0.125402 0.150206,0.125401 0.150206,0.326595 0,0.16812 -0.09095,0.292144 -0.09095,0.124023 -0.250803,0.176389 v 0.0055 q 0.199815,0.02343 0.319705,0.151584 0.119889,0.12678 0.119889,0.330729 0,0.253559 -0.181901,0.410656 Q 11.69541,23.8125 11.418424,23.8125 Z m 0.231511,-1.766645 v 0.638032 h 0.237022 q 0.190169,0 0.299034,-0.09095 0.108865,-0.09233 0.108865,-0.259071 0,-0.28801 -0.37896,-0.28801 z m 0,0.846115 v 0.711068 h 0.314192 q 0.20395,0 0.315571,-0.09646 0.112999,-0.09646 0.112999,-0.264584 0,-0.350022 -0.476801,-0.350022 z"
         style="fill:#ffe4b3;stroke-width:0.26458332"
         id="path1074"
         inkscape:connector-curvature="0" />
    </g>
    <g
       aria-label="C"
       transform="translate(-20.710536,210.29886)"
       style="font-style:normal;font-variant:normal;font-weight:normal;font-stretch:normal;font-size:2.82222223px;line-height:1.25;font-family:'Yu Gothic UI';-inkscape-font-specification:'Yu Gothic UI';letter-spacing:0px;word-spacing:0px;fill:#ffe4b3;fill-opacity:1;stroke:none;stroke-width:0.26458332"
       id="text955">
      <path
         d="m 29.385286,10.500651 q -0.219108,0.115755 -0.545703,0.115755 -0.421679,0 -0.675238,-0.271474 -0.253559,-0.271473 -0.253559,-0.7124453 0,-0.4740452 0.285253,-0.7661893 0.285254,-0.2921441 0.723471,-0.2921441 0.281119,0 0.465776,0.081304 v 0.2466688 q -0.212217,-0.1185113 -0.468533,-0.1185113 -0.340375,0 -0.552593,0.2273763 -0.21084,0.2273763 -0.21084,0.6077149 0,0.361046 0.19706,0.57602 0.198437,0.213596 0.51952,0.213596 0.297656,0 0.515386,-0.132292 z"
         style="fill:#ffe4b3;stroke-width:0.26458332"
         id="path1080"
         inkscape:connector-curvature="0" />
    </g>
    <g
       aria-label="D"
       transform="translate(-3.7000296,195.74677)"
       style="font-style:normal;font-variant:normal;font-weight:normal;font-stretch:normal;font-size:2.82222223px;line-height:1.25;font-family:'Yu Gothic UI';-inkscape-font-specification:'Yu Gothic UI';letter-spacing:0px;word-spacing:0px;fill:#ffe4b3;fill-opacity:1;stroke:none;stroke-width:0.26458332"
       id="text959">
      <path
         d="m 26.717403,25.135416 v -1.976107 h 0.545703 q 1.044553,0 1.044553,0.963249 0,0.457509 -0.290766,0.735872 -0.289388,0.276986 -0.775835,0.276986 z m 0.231511,-1.766645 v 1.557183 h 0.2949 q 0.388607,0 0.604959,-0.208084 0.216352,-0.208083 0.216352,-0.5898 0,-0.759299 -0.807531,-0.759299 z"
         style="fill:#ffe4b3;stroke-width:0.26458332"
         id="path1077"
         inkscape:connector-curvature="0" />
    </g>
    <g
       aria-label="E"
       transform="translate(4.5089411,181.29195)"
       style="font-style:normal;font-variant:normal;font-weight:normal;font-stretch:normal;font-size:2.82222223px;line-height:1.25;font-family:'Yu Gothic UI';-inkscape-font-specification:'Yu Gothic UI';letter-spacing:0px;word-spacing:0px;fill:#ffe4b3;fill-opacity:1;stroke:none;stroke-width:0.26458332"
       id="text967">
      <path
         d="M 3.9522135,54.239582 H 2.9049044 v -1.976107 h 1.0032118 v 0.209462 H 3.1364149 v 0.657324 h 0.7138237 v 0.208084 H 3.1364149 v 0.691775 h 0.8157986 z"
         style="fill:#ffe4b3;stroke-width:0.26458332"
         id="path1062"
         inkscape:connector-curvature="0" />
    </g>
    <g
       aria-label="F"
       transform="translate(20.405991,166.73987)"
       style="font-style:normal;font-variant:normal;font-weight:normal;font-stretch:normal;font-size:2.82222223px;line-height:1.25;font-family:'Yu Gothic UI';-inkscape-font-specification:'Yu Gothic UI';letter-spacing:0px;word-spacing:0px;fill:#ffe4b3;fill-opacity:1;stroke:none;stroke-width:0.26458332"
       id="text971">
      <path
         d="M 3.9081162,67.025019 H 3.1364149 v 0.683507 H 3.8502386 V 67.91661 H 3.1364149 v 0.875054 H 2.9049044 v -1.976107 h 1.0032118 z"
         style="fill:#ffe4b3;stroke-width:0.26458332"
         id="path1059"
         inkscape:connector-curvature="0" />
    </g>
    <path
       inkscape:connector-curvature="0"
       id="path1089"
       d="m 2.6458272,276.36249 v 11.37708 H 13.229161 l -4e-6,-11.37708 z"
       style="fill:none;stroke:#ffe4b3;stroke-width:0.26458332px;stroke-linecap:butt;stroke-linejoin:miter;stroke-opacity:1"
       sodipodi:nodetypes="ccccc" />
    <path
       style="fill:none;stroke:#ffe4b3;stroke-width:0.26458332px;stroke-linecap:butt;stroke-linejoin:miter;stroke-opacity:1"
       d="M 2.6458333,260.22309 H 29.104166"
       id="path1210"
       inkscape:connector-curvature="0" />
    <path
       style="fill:none;stroke:#ffe4b3;stroke-width:0.26458332px;stroke-linecap:butt;stroke-linejoin:miter;stroke-opacity:1"
       d="M 2.6458333,274.77535 H 29.104166"
       id="path1212"
       inkscape:connector-curvature="0" />
    <g
       aria-label="G"
       style="font-style:normal;font-variant:normal;font-weight:normal;font-stretch:normal;font-size:2.82222223px;line-height:1.25;font-family:'Yu Gothic UI';-inkscape-font-specification:'Yu Gothic UI';letter-spacing:0px;word-spacing:0px;fill:#ffe4b3;fill-opacity:1;stroke:none;stroke-width:0.26458332"
       id="text921"
       transform="translate(-0.9329318,-20.588673)">
      <path
         d="m 9.6738281,270.40661 q -0.2976562,0.16812 -0.6614583,0.16812 -0.4230577,0 -0.684885,-0.27285 -0.2604492,-0.27285 -0.2604492,-0.72209 0,-0.45889 0.289388,-0.75241 0.2907661,-0.2949 0.7358724,-0.2949 0.3224609,0 0.541569,0.10473 v 0.25631 q -0.2397786,-0.15158 -0.5677517,-0.15158 -0.3321072,0 -0.5443251,0.22875 -0.2122179,0.22876 -0.2122179,0.59256 0,0.37483 0.1970595,0.5898 0.1970594,0.2136 0.5346788,0.2136 0.2315104,0 0.4010091,-0.0923 v -0.55397 h -0.432704 v -0.20947 h 0.6642144 z"
         style="fill:#ffe4b3;stroke-width:0.26458332"
         id="path942"
         inkscape:connector-curvature="0" />
    </g>
    <g
       aria-label="H"
       style="font-style:normal;font-variant:normal;font-weight:normal;font-stretch:normal;font-size:2.82222223px;line-height:1.25;font-family:'Yu Gothic UI';-inkscape-font-specification:'Yu Gothic UI';letter-spacing:0px;word-spacing:0px;fill:#ffe4b3;fill-opacity:1;stroke:none;stroke-width:0.26458332"
       id="text925"
       transform="translate(4.2898338,-21.911578)">
      <path
         d="m 20.26543,271.86456 h -0.23151 v -0.90123 h -1.022504 v 0.90123 h -0.231511 v -1.9761 h 0.231511 v 0.86678 h 1.022504 v -0.86678 h 0.23151 z"
         style="fill:#ffe4b3;stroke-width:0.26458332"
         id="path939"
         inkscape:connector-curvature="0" />
    </g>
    <g
       aria-label="J"
       style="font-style:normal;font-variant:normal;font-weight:normal;font-stretch:normal;font-size:2.82222223px;line-height:1.25;font-family:'Yu Gothic UI';-inkscape-font-specification:'Yu Gothic UI';letter-spacing:0px;word-spacing:0px;fill:#ffe4b3;fill-opacity:1;stroke:none;stroke-width:0.26458332"
       id="text929"
       transform="translate(-2.2482716,-7.2593895)">
      <path
         d="m 7.3793942,285.70834 q 0,0.3514 -0.1488281,0.54709 -0.1488281,0.1943 -0.398253,0.1943 -0.1157553,0 -0.1901693,-0.0331 v -0.22876 q 0.074414,0.0537 0.1929253,0.0537 0.3128147,0 0.3128147,-0.53055 v -1.27055 h 0.2315104 z"
         style="fill:#ffe4b3;stroke-width:0.26458332"
         id="path959"
         inkscape:connector-curvature="0" />
    </g>
    <g
       aria-label="EN/EXP"
       style="font-style:normal;font-variant:normal;font-weight:normal;font-stretch:normal;font-size:2.82222223px;line-height:1.25;font-family:'Yu Gothic UI';-inkscape-font-specification:'Yu Gothic UI';letter-spacing:0px;word-spacing:0px;fill:#ffe4b3;fill-opacity:1;stroke:none;stroke-width:0.26458332"
       id="text933"
       transform="translate(-0.76136605,-15.265479)">
      <path
         d="m 5.2751302,279.80206 h -1.047309 v -1.9761 H 5.231033 v 0.20946 H 4.4593316 v 0.65732 h 0.7138238 v 0.20809 H 4.4593316 v 0.69177 h 0.8157986 z"
         style="fill:#ffe4b3;stroke-width:0.26458332"
         id="path945"
         inkscape:connector-curvature="0" />
      <path
         d="M 7.2484809,279.80206 H 6.9646051 l -1.0169922,-1.57509 q -0.038585,-0.0593 -0.06339,-0.12403 h -0.00827 q 0.011024,0.0634 0.011024,0.27148 v 1.42764 H 5.6554688 v -1.9761 h 0.3004123 l 0.9894314,1.55029 q 0.062012,0.0965 0.079926,0.13229 h 0.00551 q -0.01378,-0.0854 -0.01378,-0.29077 v -1.39181 h 0.2315104 z"
         style="fill:#ffe4b3;stroke-width:0.26458332"
         id="path947"
         inkscape:connector-curvature="0" />
      <path
         d="m 8.6278972,277.82596 -0.9480903,2.30408 H 7.4689671 l 0.9453342,-2.30408 z"
         style="fill:#ffe4b3;stroke-width:0.26458332"
         id="path949"
         inkscape:connector-curvature="0" />
      <path
         d="m 9.9163627,279.80206 h -1.047309 v -1.9761 h 1.0032118 v 0.20946 H 9.1005641 v 0.65732 h 0.7138238 v 0.20809 H 9.1005641 v 0.69177 h 0.8157986 z"
         style="fill:#ffe4b3;stroke-width:0.26458332"
         id="path951"
         inkscape:connector-curvature="0" />
      <path
         d="m 11.660959,279.80206 h -0.282498 l -0.454752,-0.75654 q -0.02067,-0.0344 -0.04548,-0.0978 h -0.0055 q -0.01378,0.0317 -0.04685,0.0978 l -0.468533,0.75654 H 10.07347 l 0.661458,-0.99356 -0.609092,-0.98254 H 10.4097 l 0.403766,0.69453 q 0.03996,0.0689 0.07028,0.1378 h 0.0055 q 0.0441,-0.091 0.07717,-0.14331 l 0.420301,-0.68902 h 0.265962 l -0.621495,0.97978 z"
         style="fill:#ffe4b3;stroke-width:0.26458332"
         id="path953"
         inkscape:connector-curvature="0" />
      <path
         d="m 12.192882,279.05517 v 0.74689 h -0.23151 v -1.9761 h 0.542947 q 0.316949,0 0.490581,0.15434 0.175011,0.15434 0.175011,0.43546 0,0.28112 -0.194303,0.46026 -0.192926,0.17915 -0.522277,0.17915 z m 0,-1.01975 v 0.81028 h 0.242535 q 0.239779,0 0.36518,-0.10886 0.12678,-0.11024 0.12678,-0.31006 0,-0.39136 -0.463021,-0.39136 z"
         style="fill:#ffe4b3;stroke-width:0.26458332"
         id="path955"
         inkscape:connector-curvature="0" />
    </g>
    <g
       aria-label="INH/EXP"
       style="font-style:normal;font-variant:normal;font-weight:normal;font-stretch:normal;font-size:2.82222223px;line-height:1.25;font-family:'Yu Gothic UI';-inkscape-font-specification:'Yu Gothic UI';letter-spacing:0px;word-spacing:0px;fill:#ffe4b3;fill-opacity:1;stroke:none;stroke-width:0.26458332"
       id="text937"
       transform="translate(15.772338,-27.171729)">
      <path
         d="M 3.1364149,291.70831 H 2.9049044 v -1.9761 h 0.2315105 z"
         style="fill:#ffe4b3;stroke-width:0.26458332"
         id="path963"
         inkscape:connector-curvature="0" />
      <path
         d="M 5.2475694,291.70831 H 4.9636935 l -1.0169922,-1.57509 q -0.038585,-0.0593 -0.06339,-0.12403 h -0.00827 q 0.011024,0.0634 0.011024,0.27148 v 1.42764 H 3.6545572 v -1.9761 h 0.3004124 l 0.9894314,1.55029 q 0.062012,0.0965 0.079926,0.13229 h 0.00551 q -0.01378,-0.0854 -0.01378,-0.29077 v -1.39181 h 0.2315104 z"
         style="fill:#ffe4b3;stroke-width:0.26458332"
         id="path965"
         inkscape:connector-curvature="0" />
      <path
         d="M 7.251237,291.70831 H 7.0197266 v -0.90123 H 5.9972223 v 0.90123 H 5.7657119 v -1.9761 h 0.2315104 v 0.86678 h 1.0225043 v -0.86678 H 7.251237 Z"
         style="fill:#ffe4b3;stroke-width:0.26458332"
         id="path967"
         inkscape:connector-curvature="0" />
      <path
         d="m 8.6334092,289.73221 -0.9480903,2.30408 H 7.4744791 l 0.9453342,-2.30408 z"
         style="fill:#ffe4b3;stroke-width:0.26458332"
         id="path969"
         inkscape:connector-curvature="0" />
      <path
         d="M 9.9218752,291.70831 H 8.8745661 v -1.9761 H 9.877778 v 0.20946 H 9.1060766 v 0.65732 h 0.7138238 v 0.20809 H 9.1060766 v 0.69177 h 0.8157986 z"
         style="fill:#ffe4b3;stroke-width:0.26458332"
         id="path971"
         inkscape:connector-curvature="0" />
      <path
         d="m 11.666472,291.70831 h -0.282498 l -0.454753,-0.75654 q -0.02067,-0.0344 -0.04547,-0.0978 h -0.0055 q -0.01378,0.0317 -0.04685,0.0978 l -0.468533,0.75654 h -0.283875 l 0.661458,-0.99356 -0.609093,-0.98254 h 0.283876 l 0.403765,0.69453 q 0.03996,0.0689 0.07028,0.1378 h 0.0055 q 0.0441,-0.091 0.07717,-0.14331 l 0.420302,-0.68902 h 0.265961 l -0.621495,0.97978 z"
         style="fill:#ffe4b3;stroke-width:0.26458332"
         id="path973"
         inkscape:connector-curvature="0" />
      <path
         d="m 12.198394,290.96142 v 0.74689 h -0.23151 v -1.9761 h 0.542947 q 0.316949,0 0.490581,0.15434 0.175011,0.15434 0.175011,0.43546 0,0.28112 -0.194303,0.46026 -0.192926,0.17915 -0.522277,0.17915 z m 0,-1.01975 v 0.81028 h 0.242535 q 0.239779,0 0.36518,-0.10886 0.12678,-0.11024 0.12678,-0.31006 0,-0.39136 -0.463021,-0.39136 z"
         style="fill:#ffe4b3;stroke-width:0.26458332"
         id="path975"
         inkscape:connector-curvature="0" />
    </g>
    <g
       aria-label="CD4086"
       style="font-style:normal;font-variant:normal;font-weight:600;font-stretch:normal;font-size:3.52777767px;line-height:1.25;font-family:'Yu Gothic UI';-inkscape-font-specification:'Yu Gothic UI Semi-Bold';letter-spacing:0px;word-spacing:0px;fill:#ffe4b3;fill-opacity:1;stroke:none;stroke-width:0.26458332"
       id="text980"
       transform="translate(-5.0014175,-13.622036)">
      <path
         d="m 16.579522,213.55288 q -0.279053,0.1447 -0.694187,0.1447 -0.537435,0 -0.861274,-0.33935 -0.323839,-0.33934 -0.323839,-0.89055 0,-0.59256 0.363458,-0.95774 0.36518,-0.36518 0.921563,-0.36518 0.35829,0 0.594279,0.10163 v 0.40652 q -0.24977,-0.14814 -0.551216,-0.14814 -0.401353,0 -0.651123,0.25666 -0.248047,0.25666 -0.248047,0.68558 0,0.40824 0.232544,0.65112 0.232544,0.24116 0.611505,0.24116 0.349677,0 0.606337,-0.16537 z"
         style="font-style:normal;font-variant:normal;font-weight:600;font-stretch:normal;font-size:3.52777767px;font-family:'Yu Gothic UI';-inkscape-font-specification:'Yu Gothic UI Semi-Bold';fill:#ffe4b3;stroke-width:0.26458332"
         id="path982"
         inkscape:connector-curvature="0" />
      <path
         d="m 17.048055,213.65623 v -2.47013 h 0.713134 q 1.365981,0 1.365981,1.20406 0,0.57189 -0.378961,0.91984 -0.37896,0.34623 -1.016303,0.34623 z m 0.408243,-2.12217 V 213.31 h 0.327284 q 0.43236,0 0.671794,-0.23771 0.241157,-0.23771 0.241157,-0.67179 0,-0.86644 -0.897448,-0.86644 z"
         style="font-style:normal;font-variant:normal;font-weight:600;font-stretch:normal;font-size:3.52777767px;font-family:'Yu Gothic UI';-inkscape-font-specification:'Yu Gothic UI Semi-Bold';fill:#ffe4b3;stroke-width:0.26458332"
         id="path984"
         inkscape:connector-curvature="0" />
      <path
         d="m 20.866943,211.1861 v 1.59508 h 0.366903 v 0.33245 h -0.366903 v 0.5426 H 20.47937 v -0.5426 h -1.117934 v -0.33589 q 0.151585,-0.17054 0.310059,-0.36863 0.160197,-0.19982 0.306613,-0.40652 0.14814,-0.20843 0.273886,-0.41686 0.125746,-0.20843 0.211873,-0.39963 z m -0.387573,1.59508 v -1.03697 q -0.187758,0.33762 -0.37207,0.58911 -0.18259,0.25149 -0.342787,0.44786 z"
         style="font-style:normal;font-variant:normal;font-weight:600;font-stretch:normal;font-size:3.52777767px;font-family:'Yu Gothic UI';-inkscape-font-specification:'Yu Gothic UI Semi-Bold';fill:#ffe4b3;stroke-width:0.26458332"
         id="path986"
         inkscape:connector-curvature="0" />
      <path
         d="m 22.257039,213.69758 q -0.385851,0 -0.602892,-0.31523 -0.215318,-0.31523 -0.215318,-0.91123 0,-0.65457 0.225654,-0.99046 0.225653,-0.3359 0.651123,-0.3359 0.814765,0 0.814765,1.26607 0,0.62701 -0.230822,0.95774 -0.229099,0.32901 -0.64251,0.32901 z m 0.03962,-2.23415 q -0.449585,0 -0.449585,0.99047 0,0.92673 0.440972,0.92673 0.434082,0 0.434082,-0.94224 0,-0.97496 -0.425469,-0.97496 z"
         style="font-style:normal;font-variant:normal;font-weight:600;font-stretch:normal;font-size:3.52777767px;font-family:'Yu Gothic UI';-inkscape-font-specification:'Yu Gothic UI Semi-Bold';fill:#ffe4b3;stroke-width:0.26458332"
         id="path988"
         inkscape:connector-curvature="0" />
      <path
         d="m 23.418036,212.96722 q 0,-0.1068 0.02584,-0.20671 0.02756,-0.0999 0.08096,-0.18431 0.0534,-0.0844 0.134358,-0.15159 0.08096,-0.0672 0.189481,-0.10852 -0.160197,-0.0896 -0.254937,-0.2291 -0.09474,-0.14125 -0.09474,-0.31178 0,-0.13608 0.05512,-0.25149 0.05684,-0.11541 0.155029,-0.19981 0.09991,-0.0844 0.234267,-0.13092 0.134358,-0.0482 0.292833,-0.0482 0.160197,0 0.294556,0.0482 0.136081,0.0482 0.234266,0.13264 0.09991,0.0844 0.155029,0.19981 0.05512,0.11541 0.05512,0.24977 0,0.17053 -0.09474,0.31178 -0.09474,0.13953 -0.251492,0.2291 0.106798,0.0413 0.187757,0.10852 0.08268,0.0655 0.137804,0.14986 0.05512,0.0844 0.08268,0.18432 0.02756,0.0999 0.02756,0.20843 0,0.16192 -0.06029,0.29627 -0.06029,0.13436 -0.16881,0.23083 -0.10852,0.0947 -0.260104,0.14813 -0.151584,0.0534 -0.334174,0.0534 -0.180868,0 -0.332452,-0.0534 -0.149862,-0.0534 -0.260105,-0.14813 -0.10852,-0.0965 -0.170532,-0.23083 -0.06029,-0.13435 -0.06029,-0.29627 z m 0.389295,-0.0345 q 0,0.10508 0.03101,0.18948 0.03101,0.0844 0.08785,0.14298 0.05684,0.0586 0.136082,0.0896 0.08096,0.031 0.179145,0.031 0.09474,0 0.173977,-0.031 0.07924,-0.0327 0.136081,-0.0913 0.05857,-0.0603 0.09129,-0.14297 0.03273,-0.0844 0.03273,-0.18776 0,-0.0947 -0.03101,-0.17742 -0.03101,-0.0844 -0.08785,-0.14641 -0.05684,-0.062 -0.137804,-0.0982 -0.07924,-0.0362 -0.177422,-0.0362 -0.09302,0 -0.173978,0.0344 -0.07924,0.0327 -0.137804,0.0947 -0.05684,0.0603 -0.08957,0.14469 -0.03273,0.0844 -0.03273,0.18431 z m 0.08441,-1.11621 q 0,0.0775 0.02756,0.1447 0.02756,0.0654 0.07407,0.11541 0.04651,0.0482 0.10852,0.0758 0.06373,0.0276 0.136081,0.0276 0.07235,0 0.134359,-0.0276 0.06373,-0.0293 0.110243,-0.0775 0.04823,-0.05 0.07579,-0.11541 0.02756,-0.0672 0.02756,-0.14298 0,-0.0775 -0.02756,-0.14469 -0.02584,-0.0672 -0.07235,-0.11541 -0.04651,-0.0482 -0.110243,-0.0758 -0.06373,-0.0276 -0.137804,-0.0276 -0.07751,0 -0.141248,0.0293 -0.06374,0.0276 -0.110244,0.0775 -0.04479,0.05 -0.07062,0.11714 -0.02412,0.0654 -0.02412,0.13952 z"
         style="font-style:normal;font-variant:normal;font-weight:600;font-stretch:normal;font-size:3.52777767px;font-family:'Yu Gothic UI';-inkscape-font-specification:'Yu Gothic UI Semi-Bold';fill:#ffe4b3;stroke-width:0.26458332"
         id="path990"
         inkscape:connector-curvature="0" />
      <path
         d="m 27.052612,212.86214 q 0,0.18604 -0.06201,0.33934 -0.06029,0.15331 -0.168809,0.26527 -0.108521,0.11025 -0.258383,0.17226 -0.148139,0.0603 -0.322116,0.0603 -0.186035,0 -0.342787,-0.0724 -0.155029,-0.0724 -0.268717,-0.21532 -0.111966,-0.14297 -0.173978,-0.35484 -0.06201,-0.2136 -0.06201,-0.49437 0,-0.34279 0.08096,-0.60806 0.08268,-0.26527 0.225654,-0.44442 0.142971,-0.17914 0.335897,-0.27216 0.192925,-0.093 0.416856,-0.093 0.139527,0 0.253215,0.019 0.115411,0.0189 0.184312,0.0517 v 0.36002 q -0.08785,-0.0448 -0.187757,-0.0758 -0.09991,-0.031 -0.229099,-0.031 -0.144694,0 -0.266995,0.0586 -0.122301,0.0586 -0.211873,0.17225 -0.08785,0.11197 -0.139527,0.27905 -0.04995,0.16537 -0.05168,0.38241 h 0.01034 q 0.07924,-0.1223 0.213596,-0.19293 0.136081,-0.0706 0.318671,-0.0706 0.16192,0 0.291111,0.0534 0.130914,0.0517 0.222209,0.15158 0.09302,0.0982 0.142971,0.24116 0.04995,0.14125 0.04995,0.31867 z m -0.403076,0.0327 q 0,-0.1068 -0.02584,-0.19465 -0.02412,-0.0879 -0.07579,-0.14986 -0.04995,-0.0637 -0.127468,-0.0982 -0.07579,-0.0344 -0.179145,-0.0344 -0.103353,0 -0.18259,0.0379 -0.07752,0.0362 -0.130914,0.0965 -0.0534,0.0603 -0.08096,0.13781 -0.02584,0.0775 -0.02584,0.15847 0,0.0878 0.02412,0.18087 0.02584,0.0913 0.07751,0.16708 0.05168,0.0758 0.130913,0.12575 0.08096,0.0482 0.191203,0.0482 0.09819,0 0.173977,-0.0362 0.07579,-0.0362 0.125746,-0.0999 0.05168,-0.0637 0.07751,-0.14986 0.02756,-0.0879 0.02756,-0.18948 z"
         style="font-style:normal;font-variant:normal;font-weight:600;font-stretch:normal;font-size:3.52777767px;font-family:'Yu Gothic UI';-inkscape-font-specification:'Yu Gothic UI Semi-Bold';fill:#ffe4b3;stroke-width:0.26458332"
         id="path992"
         inkscape:connector-curvature="0" />
    </g>
    <g
       aria-label="EXPANDABLE  4-WIDE 2-INPUT"
       style="font-style:normal;font-variant:normal;font-weight:normal;font-stretch:normal;font-size:2.11666656px;line-height:1.25;font-family:'Yu Gothic UI';-inkscape-font-specification:'Yu Gothic UI';letter-spacing:0px;word-spacing:0px;fill:#ffe4b3;fill-opacity:1;stroke:none;stroke-width:0.26458332"
       id="text997">
      <path
         d="M 2.2220873,201.94659 H 1.4366056 v -1.48208 h 0.7524088 v 0.1571 h -0.578776 v 0.49299 h 0.5353678 v 0.15607 H 1.6102384 v 0.51883 h 0.6118489 z"
         style="font-size:2.11666656px;fill:#ffe4b3;stroke-width:0.26458332"
         id="path1081" />
      <path
         d="M 3.5305344,201.94659 H 3.3186611 l -0.3410645,-0.5674 q -0.015503,-0.0258 -0.034106,-0.0734 h -0.00413 q -0.010335,0.0238 -0.03514,0.0734 l -0.3513997,0.5674 H 2.3399095 l 0.4960937,-0.74517 -0.4568196,-0.73691 h 0.2129069 l 0.3028239,0.5209 q 0.029972,0.0517 0.05271,0.10336 h 0.00413 q 0.033073,-0.0682 0.057878,-0.10749 l 0.3152262,-0.51677 h 0.1994711 l -0.4661214,0.73484 z"
         style="font-size:2.11666656px;fill:#ffe4b3;stroke-width:0.26458332"
         id="path1084" />
      <path
         d="m 3.9294765,201.38642 v 0.56017 H 3.7558437 v -1.48208 H 4.163054 q 0.2377116,0 0.3679362,0.11576 0.1312581,0.11575 0.1312581,0.32659 0,0.21084 -0.1457275,0.3452 -0.144694,0.13436 -0.3917074,0.13436 z m 0,-0.76481 v 0.60772 h 0.1819011 q 0.179834,0 0.2738851,-0.0816 0.095085,-0.0827 0.095085,-0.23255 0,-0.29352 -0.3472656,-0.29352 z"
         style="font-size:2.11666656px;fill:#ffe4b3;stroke-width:0.26458332"
         id="path1086" />
      <path
         d="M 6.0275393,201.94659 H 5.835303 L 5.6782066,201.53112 H 5.0498212 l -0.1477945,0.41547 H 4.7087568 l 0.5684407,-1.48208 h 0.179834 z m -0.4061767,-0.57154 -0.232544,-0.63148 q -0.011369,-0.031 -0.022738,-0.0992 h -0.00413 q -0.010335,0.063 -0.023771,0.0992 l -0.2304769,0.63148 z"
         style="font-size:2.11666656px;fill:#ffe4b3;stroke-width:0.26458332"
         id="path1088" />
      <path
         d="M 7.4393394,201.94659 H 7.2264325 l -0.7627441,-1.18132 q -0.028939,-0.0444 -0.047542,-0.093 h -0.0062 q 0.00827,0.0476 0.00827,0.20361 v 1.07073 H 6.2445804 v -1.48208 h 0.2253092 l 0.7420735,1.16272 q 0.046509,0.0724 0.059945,0.0992 h 0.00413 q -0.010335,-0.0641 -0.010335,-0.21807 v -1.04387 h 0.1736328 z"
         style="font-size:2.11666656px;fill:#ffe4b3;stroke-width:0.26458332"
         id="path1090" />
      <path
         d="m 7.8279463,201.94659 v -1.48208 h 0.4092773 q 0.7834147,0 0.7834147,0.72244 0,0.34313 -0.2180746,0.5519 -0.217041,0.20774 -0.5818765,0.20774 z m 0.1736328,-1.32498 v 1.16789 h 0.2211751 q 0.2914551,0 0.4537191,-0.15606 0.1622639,-0.15607 0.1622639,-0.44236 0,-0.56947 -0.6056477,-0.56947 z"
         style="font-size:2.11666656px;fill:#ffe4b3;stroke-width:0.26458332"
         id="path1092" />
      <path
         d="m 10.426237,201.94659 h -0.192236 l -0.157097,-0.41547 H 9.4485191 l -0.1477946,0.41547 H 9.1074547 l 0.5684407,-1.48208 h 0.179834 z m -0.406177,-0.57154 -0.2325435,-0.63148 q -0.011369,-0.031 -0.022738,-0.0992 h -0.00413 q -0.010335,0.063 -0.023771,0.0992 l -0.2304769,0.63148 z"
         style="font-size:2.11666656px;fill:#ffe4b3;stroke-width:0.26458332"
         id="path1094" />
      <path
         d="m 10.643278,201.94659 v -1.48208 h 0.42168 q 0.192236,0 0.304891,0.0941 0.112654,0.0941 0.112654,0.24494 0,0.12609 -0.06821,0.21911 -0.06821,0.093 -0.188103,0.13229 v 0.004 q 0.149862,0.0176 0.239779,0.11368 0.08992,0.0951 0.08992,0.24805 0,0.19017 -0.136426,0.30799 -0.136426,0.11782 -0.344165,0.11782 z m 0.173633,-1.32498 v 0.47852 h 0.177767 q 0.142627,0 0.224276,-0.0682 0.08165,-0.0692 0.08165,-0.1943 0,-0.21601 -0.28422,-0.21601 z m 0,0.63459 v 0.5333 h 0.235645 q 0.152962,0 0.236678,-0.0724 0.08475,-0.0724 0.08475,-0.19844 0,-0.26251 -0.357601,-0.26251 z"
         style="font-size:2.11666656px;fill:#ffe4b3;stroke-width:0.26458332"
         id="path1096" />
      <path
         d="m 12.627653,201.94659 h -0.768945 v -1.48208 h 0.173632 v 1.32499 h 0.595313 z"
         style="font-size:2.11666656px;fill:#ffe4b3;stroke-width:0.26458332"
         id="path1098" />
      <path
         d="m 13.640511,201.94659 h -0.785482 v -1.48208 h 0.752409 v 0.1571 h -0.578776 v 0.49299 h 0.535368 v 0.15607 h -0.535368 v 0.51883 h 0.611849 z"
         style="font-size:2.11666656px;fill:#ffe4b3;stroke-width:0.26458332"
         id="path1100" />
      <path
         d="m 15.767513,200.46451 v 0.97876 h 0.190169 v 0.15503 h -0.190169 v 0.34829 h -0.167432 v -0.34829 h -0.696598 v -0.14677 q 0.09715,-0.10955 0.19637,-0.23357 0.09922,-0.12506 0.189136,-0.25322 0.09095,-0.12816 0.167432,-0.25528 0.07751,-0.12816 0.130224,-0.24495 z m -0.672827,0.97876 h 0.505395 v -0.72554 q -0.07751,0.13539 -0.146761,0.24184 -0.06925,0.10646 -0.132292,0.19327 -0.06201,0.0868 -0.118855,0.1571 -0.05684,0.0703 -0.107487,0.13333 z"
         style="font-size:2.11666656px;fill:#ffe4b3;stroke-width:0.26458332"
         id="path1102" />
      <path
         d="m 16.743163,201.42363 h -0.564306 v -0.13333 h 0.564306 z"
         style="font-size:2.11666656px;fill:#ffe4b3;stroke-width:0.26458332"
         id="path1104" />
      <path
         d="m 18.746142,200.46451 -0.418579,1.48208 h -0.203605 l -0.304891,-1.08313 q -0.01964,-0.0693 -0.02377,-0.1509 h -0.0041 q -0.0062,0.0765 -0.02687,0.14883 l -0.306958,1.0852 h -0.201538 l -0.434082,-1.48208 h 0.191203 l 0.315226,1.13689 q 0.01964,0.0713 0.02481,0.14882 h 0.0052 q 0.0052,-0.0548 0.03204,-0.14882 l 0.327628,-1.13689 h 0.166398 l 0.314193,1.14515 q 0.01654,0.0589 0.02481,0.1385 h 0.0041 q 0.0041,-0.0538 0.02791,-0.14263 l 0.302824,-1.14102 z"
         style="font-size:2.11666656px;fill:#ffe4b3;stroke-width:0.26458332"
         id="path1106" />
      <path
         d="M 19.138883,201.94659 H 18.96525 v -1.48208 h 0.173633 z"
         style="font-size:2.11666656px;fill:#ffe4b3;stroke-width:0.26458332"
         id="path1108" />
      <path
         d="m 19.527489,201.94659 v -1.48208 h 0.409277 q 0.783415,0 0.783415,0.72244 0,0.34313 -0.218075,0.5519 -0.217041,0.20774 -0.581876,0.20774 z m 0.173633,-1.32498 v 1.16789 h 0.221175 q 0.291455,0 0.453719,-0.15606 0.162264,-0.15607 0.162264,-0.44236 0,-0.56947 -0.605648,-0.56947 z"
         style="font-size:2.11666656px;fill:#ffe4b3;stroke-width:0.26458332"
         id="path1110" />
      <path
         d="m 21.797119,201.94659 h -0.785482 v -1.48208 h 0.752409 v 0.1571 H 21.18527 v 0.49299 h 0.535367 v 0.15607 H 21.18527 v 0.51883 h 0.611849 z"
         style="font-size:2.11666656px;fill:#ffe4b3;stroke-width:0.26458332"
         id="path1112" />
      <path
         d="m 23.264729,200.85312 q 0,-0.0682 -0.0217,-0.11885 -0.02067,-0.0507 -0.05788,-0.0837 -0.03617,-0.0341 -0.08578,-0.0506 -0.04961,-0.0165 -0.107487,-0.0165 -0.04961,0 -0.09715,0.0134 -0.04754,0.0134 -0.09302,0.0372 -0.04444,0.0238 -0.08682,0.0568 -0.04134,0.0331 -0.07751,0.0734 v -0.1819 q 0.07131,-0.0692 0.159163,-0.10542 0.08888,-0.0372 0.216008,-0.0372 0.09095,0 0.168465,0.0269 0.07751,0.0258 0.134359,0.0765 0.05684,0.0506 0.08888,0.12506 0.03307,0.0744 0.03307,0.17053 0,0.0879 -0.02067,0.15916 -0.01964,0.0713 -0.06098,0.13436 -0.04031,0.0631 -0.102319,0.12093 -0.06201,0.0579 -0.145727,0.11782 -0.104387,0.0744 -0.1726,0.12712 -0.06718,0.0527 -0.107487,0.0992 -0.03927,0.0455 -0.05581,0.092 -0.0155,0.0455 -0.0155,0.10542 h 0.737939 v 0.15192 h -0.914673 v -0.0734 q 0,-0.0951 0.02067,-0.16743 0.02067,-0.0723 0.06821,-0.13746 0.04754,-0.0651 0.124023,-0.13022 0.07752,-0.0651 0.189136,-0.14676 0.08061,-0.0579 0.134359,-0.11059 0.05478,-0.0527 0.08785,-0.10542 0.03307,-0.0527 0.04651,-0.10645 0.01447,-0.0548 0.01447,-0.11576 z"
         style="font-size:2.11666656px;fill:#ffe4b3;stroke-width:0.26458332"
         id="path1114" />
      <path
         d="m 24.320996,201.42363 h -0.564307 v -0.13333 h 0.564307 z"
         style="font-size:2.11666656px;fill:#ffe4b3;stroke-width:0.26458332"
         id="path1116" />
      <path
         d="m 24.823289,201.94659 h -0.173633 v -1.48208 h 0.173633 z"
         style="font-size:2.11666656px;fill:#ffe4b3;stroke-width:0.26458332"
         id="path1118" />
      <path
         d="m 26.406656,201.94659 h -0.212907 l -0.762744,-1.18132 q -0.02894,-0.0444 -0.04754,-0.093 h -0.0062 q 0.0083,0.0476 0.0083,0.20361 v 1.07073 h -0.173633 v -1.48208 h 0.225309 l 0.742074,1.16272 q 0.04651,0.0724 0.05994,0.0992 h 0.0041 q -0.01034,-0.0641 -0.01034,-0.21807 v -1.04387 h 0.173633 z"
         style="font-size:2.11666656px;fill:#ffe4b3;stroke-width:0.26458332"
         id="path1120" />
      <path
         d="m 26.968896,201.38642 v 0.56017 h -0.173633 v -1.48208 h 0.407211 q 0.237711,0 0.367936,0.11576 0.131258,0.11575 0.131258,0.32659 0,0.21084 -0.145728,0.3452 -0.144694,0.13436 -0.391707,0.13436 z m 0,-0.76481 v 0.60772 h 0.181901 q 0.179834,0 0.273885,-0.0816 0.09509,-0.0827 0.09509,-0.23255 0,-0.29352 -0.347266,-0.29352 z"
         style="font-size:2.11666656px;fill:#ffe4b3;stroke-width:0.26458332"
         id="path1122" />
      <path
         d="m 29.065924,201.34715 q 0,0.62425 -0.563273,0.62425 -0.539502,0 -0.539502,-0.60048 v -0.90641 h 0.173633 v 0.89504 q 0,0.45579 0.384472,0.45579 0.371037,0 0.371037,-0.44029 v -0.91054 h 0.173633 z"
         style="font-size:2.11666656px;fill:#ffe4b3;stroke-width:0.26458332"
         id="path1124" />
      <path
         d="m 30.313394,200.62161 h -0.42788 v 1.32498 h -0.173633 v -1.32498 h -0.426847 v -0.1571 h 1.02836 z"
         style="font-size:2.11666656px;fill:#ffe4b3;stroke-width:0.26458332"
         id="path1126" />
    </g>
    <g
       aria-label="AND-OR-INVERT GATE"
       style="font-style:normal;font-variant:normal;font-weight:normal;font-stretch:normal;font-size:2.11666656px;line-height:1.25;font-family:'Yu Gothic UI';-inkscape-font-specification:'Yu Gothic UI';letter-spacing:0px;word-spacing:0px;fill:#ffe4b3;fill-opacity:1;stroke:none;stroke-width:0.26458332"
       id="text1001">
      <path
         d="M 6.9008706,203.86684 H 6.7086343 L 6.5515379,203.45136 H 5.9231526 L 5.775358,203.86684 H 5.5820881 l 0.5684407,-1.48208 h 0.179834 z m -0.4061767,-0.57154 -0.232544,-0.63149 q -0.011369,-0.031 -0.022738,-0.0992 h -0.00413 q -0.010335,0.0631 -0.023771,0.0992 l -0.2304768,0.63149 z"
         style="font-size:2.11666656px;fill:#ffe4b3;stroke-width:0.26458332"
         id="path1043" />
      <path
         d="M 8.3126706,203.86684 H 8.0997637 l -0.7627441,-1.18133 q -0.028939,-0.0444 -0.047542,-0.093 h -0.0062 q 0.00827,0.0475 0.00827,0.2036 v 1.07074 H 7.1179116 v -1.48208 h 0.2253092 l 0.7420735,1.16272 q 0.046509,0.0723 0.059945,0.0992 h 0.00413 q -0.010335,-0.0641 -0.010335,-0.21807 v -1.04386 h 0.1736328 z"
         style="font-size:2.11666656px;fill:#ffe4b3;stroke-width:0.26458332"
         id="path1045" />
      <path
         d="m 8.7012774,203.86684 v -1.48208 h 0.4092773 q 0.7834147,0 0.7834147,0.72243 0,0.34313 -0.2180746,0.55191 -0.217041,0.20774 -0.5818766,0.20774 z m 0.1736328,-1.32499 v 1.16789 h 0.2211751 q 0.291455,0 0.453719,-0.15606 0.162264,-0.15607 0.162264,-0.44235 0,-0.56948 -0.6056477,-0.56948 z"
         style="font-size:2.11666656px;fill:#ffe4b3;stroke-width:0.26458332"
         id="path1047" />
      <path
         d="m 10.704256,203.34387 h -0.564307 v -0.13332 h 0.564307 z"
         style="font-size:2.11666656px;fill:#ffe4b3;stroke-width:0.26458332"
         id="path1049" />
      <path
         d="m 11.630297,203.89164 q -0.315226,0 -0.505395,-0.20774 -0.189136,-0.20774 -0.189136,-0.54053 0,-0.3576 0.19327,-0.57051 0.19327,-0.21291 0.526066,-0.21291 0.306958,0 0.494027,0.20671 0.188102,0.2067 0.188102,0.54053 0,0.36277 -0.192236,0.57361 -0.192237,0.21084 -0.514698,0.21084 z m 0.0124,-1.37459 q -0.233578,0 -0.379305,0.16846 -0.145728,0.16847 -0.145728,0.44235 0,0.27389 0.141594,0.44132 0.142627,0.1664 0.371036,0.1664 0.243913,0 0.384473,-0.15916 0.14056,-0.15917 0.14056,-0.44546 0,-0.29352 -0.136426,-0.45371 -0.136426,-0.1602 -0.376204,-0.1602 z"
         style="font-size:2.11666656px;fill:#ffe4b3;stroke-width:0.26458332"
         id="path1051" />
      <path
         d="m 13.691153,203.86684 h -0.206706 l -0.248046,-0.41548 q -0.03411,-0.0579 -0.06615,-0.0982 -0.03204,-0.0413 -0.06615,-0.0672 -0.03307,-0.0258 -0.07235,-0.0372 -0.03824,-0.0124 -0.08682,-0.0124 h -0.142627 v 0.63046 h -0.173633 v -1.48208 h 0.44235 q 0.09715,0 0.1788,0.0248 0.08268,0.0238 0.142627,0.0734 0.06098,0.0496 0.09509,0.12403 0.03411,0.0734 0.03411,0.17259 0,0.0775 -0.02377,0.14263 -0.02274,0.0641 -0.06615,0.11472 -0.04237,0.0506 -0.103353,0.0868 -0.05995,0.0351 -0.135393,0.0548 v 0.004 q 0.03721,0.0165 0.06408,0.0382 0.02791,0.0207 0.05271,0.0496 0.02481,0.0289 0.04858,0.0661 0.02481,0.0362 0.05478,0.0848 z m -0.888834,-1.32499 v 0.53744 h 0.235644 q 0.06511,0 0.119889,-0.0196 0.05581,-0.0196 0.09612,-0.0558 0.04031,-0.0372 0.06305,-0.0899 0.02274,-0.0537 0.02274,-0.11989 0,-0.11885 -0.07751,-0.185 -0.07648,-0.0672 -0.222209,-0.0672 z"
         style="font-size:2.11666656px;fill:#ffe4b3;stroke-width:0.26458332"
         id="path1053" />
      <path
         d="M 14.412556,203.34387 H 13.84825 v -0.13332 h 0.564306 z"
         style="font-size:2.11666656px;fill:#ffe4b3;stroke-width:0.26458332"
         id="path1055" />
      <path
         d="m 14.914851,203.86684 h -0.173633 v -1.48208 h 0.173633 z"
         style="font-size:2.11666656px;fill:#ffe4b3;stroke-width:0.26458332"
         id="path1057" />
      <path
         d="M 16.498217,203.86684 H 16.28531 l -0.762744,-1.18133 q -0.02894,-0.0444 -0.04754,-0.093 h -0.0062 q 0.0083,0.0475 0.0083,0.2036 v 1.07074 h -0.173632 v -1.48208 h 0.225309 l 0.742073,1.16272 q 0.04651,0.0723 0.05994,0.0992 h 0.0041 q -0.01033,-0.0641 -0.01033,-0.21807 v -1.04386 h 0.173633 z"
         style="font-size:2.11666656px;fill:#ffe4b3;stroke-width:0.26458332"
         id="path1060" />
      <path
         d="m 17.988565,202.38476 -0.548803,1.48208 h -0.191203 l -0.537435,-1.48208 h 0.19327 l 0.410311,1.17512 q 0.01964,0.0568 0.02997,0.13126 h 0.0041 q 0.0083,-0.062 0.03411,-0.13333 l 0.418579,-1.17305 z"
         style="font-size:2.11666656px;fill:#ffe4b3;stroke-width:0.26458332"
         id="path1063" />
      <path
         d="m 18.986954,203.86684 h -0.785481 v -1.48208 h 0.752408 v 0.15709 h -0.578776 v 0.493 h 0.535368 v 0.15606 h -0.535368 v 0.51883 h 0.611849 z"
         style="font-size:2.11666656px;fill:#ffe4b3;stroke-width:0.26458332"
         id="path1065" />
      <path
         d="m 20.334675,203.86684 h -0.206706 l -0.248047,-0.41548 q -0.03411,-0.0579 -0.06614,-0.0982 -0.03204,-0.0413 -0.06615,-0.0672 -0.03307,-0.0258 -0.07235,-0.0372 -0.03824,-0.0124 -0.08682,-0.0124 H 19.44584 v 0.63046 h -0.173632 v -1.48208 h 0.44235 q 0.09715,0 0.1788,0.0248 0.08268,0.0238 0.142627,0.0734 0.06098,0.0496 0.09509,0.12403 0.03411,0.0734 0.03411,0.17259 0,0.0775 -0.02377,0.14263 -0.02274,0.0641 -0.06615,0.11472 -0.04237,0.0506 -0.103353,0.0868 -0.05994,0.0351 -0.135392,0.0548 v 0.004 q 0.03721,0.0165 0.06408,0.0382 0.02791,0.0207 0.05271,0.0496 0.02481,0.0289 0.04858,0.0661 0.0248,0.0362 0.05478,0.0848 z m -0.888835,-1.32499 v 0.53744 h 0.235645 q 0.06511,0 0.119889,-0.0196 0.05581,-0.0196 0.09612,-0.0558 0.04031,-0.0372 0.06305,-0.0899 0.02274,-0.0537 0.02274,-0.11989 0,-0.11885 -0.07751,-0.185 -0.07648,-0.0672 -0.222209,-0.0672 z"
         style="font-size:2.11666656px;fill:#ffe4b3;stroke-width:0.26458332"
         id="path1067" />
      <path
         d="m 21.413679,202.54185 h -0.427881 v 1.32499 h -0.173632 v -1.32499 h -0.426848 v -0.15709 h 1.028361 z"
         style="font-size:2.11666656px;fill:#ffe4b3;stroke-width:0.26458332"
         id="path1069" />
      <path
         d="m 23.331909,203.76555 q -0.223243,0.12609 -0.496094,0.12609 -0.317293,0 -0.513664,-0.20464 -0.195337,-0.20464 -0.195337,-0.54157 0,-0.34416 0.217041,-0.5643 0.218075,-0.22118 0.551905,-0.22118 0.241845,0 0.406176,0.0786 v 0.19224 q -0.179834,-0.11369 -0.425813,-0.11369 -0.249081,0 -0.408244,0.17156 -0.159164,0.17157 -0.159164,0.44442 0,0.28112 0.147795,0.44235 0.147795,0.1602 0.401009,0.1602 0.173633,0 0.300757,-0.0693 v -0.41548 h -0.324528 v -0.15709 h 0.498161 z"
         style="font-size:2.11666656px;fill:#ffe4b3;stroke-width:0.26458332"
         id="path1071" />
      <path
         d="m 24.822255,203.86684 h -0.192236 l -0.157096,-0.41548 h -0.628386 l -0.147794,0.41548 h -0.19327 l 0.568441,-1.48208 h 0.179834 z m -0.406176,-0.57154 -0.232544,-0.63149 q -0.01137,-0.031 -0.02274,-0.0992 h -0.0041 q -0.01034,0.0631 -0.02377,0.0992 l -0.230477,0.63149 z"
         style="font-size:2.11666656px;fill:#ffe4b3;stroke-width:0.26458332"
         id="path1073" />
      <path
         d="m 25.841315,202.54185 h -0.42788 v 1.32499 h -0.173633 v -1.32499 h -0.426848 v -0.15709 h 1.028361 z"
         style="font-size:2.11666656px;fill:#ffe4b3;stroke-width:0.26458332"
         id="path1075" />
      <path
         d="m 26.858308,203.86684 h -0.785482 v -1.48208 h 0.752409 v 0.15709 h -0.578776 v 0.493 h 0.535367 v 0.15606 h -0.535367 v 0.51883 h 0.611849 z"
         style="font-size:2.11666656px;fill:#ffe4b3;stroke-width:0.26458332"
         id="path1078" />
    </g>
    <path
       style="fill:none;stroke:#ffe4b3;stroke-width:0.2;stroke-linecap:butt;stroke-linejoin:miter;stroke-opacity:1;stroke-miterlimit:4;stroke-dasharray:none"
       d="m 24.60625,262.07499 h 4.233333"
       id="path1005"
       inkscape:connector-curvature="0" />
    <g
       aria-label="ENABLE"
       style="font-style:normal;font-variant:normal;font-weight:normal;font-stretch:normal;font-size:2.11666656px;line-height:1.25;font-family:'Yu Gothic UI';-inkscape-font-specification:'Yu Gothic UI';letter-spacing:0px;word-spacing:0px;fill:#ffe4b3;fill-opacity:1;stroke:none;stroke-width:0.26458332"
       id="text1009"
       transform="translate(-2.3791825,0.21144156)">
      <path
         d="m 23.469369,278.47916 h -0.785482 v -1.48208 h 0.752409 v 0.15709 H 22.85752 v 0.493 h 0.535368 v 0.15606 H 22.85752 v 0.51883 h 0.611849 z"
         style="font-size:2.11666656px;fill:#ffe4b3;stroke-width:0.26458332"
         id="path1011"
         inkscape:connector-curvature="0" />
      <path
         d="m 24.949382,278.47916 h -0.212907 l -0.762744,-1.18133 q -0.02894,-0.0444 -0.04754,-0.093 h -0.0062 q 0.0083,0.0475 0.0083,0.2036 v 1.07074 h -0.173633 v -1.48208 h 0.225309 l 0.742074,1.16272 q 0.04651,0.0723 0.05994,0.0992 h 0.0041 q -0.01033,-0.0641 -0.01033,-0.21807 v -1.04386 h 0.173633 z"
         style="font-size:2.11666656px;fill:#ffe4b3;stroke-width:0.26458332"
         id="path1013"
         inkscape:connector-curvature="0" />
      <path
         d="m 26.485205,278.47916 h -0.192236 l -0.157096,-0.41548 h -0.628386 l -0.147794,0.41548 h -0.19327 l 0.568441,-1.48208 h 0.179834 z m -0.406176,-0.57154 -0.232544,-0.63149 q -0.01137,-0.031 -0.02274,-0.0992 h -0.0041 q -0.01034,0.063 -0.02377,0.0992 l -0.230477,0.63149 z"
         style="font-size:2.11666656px;fill:#ffe4b3;stroke-width:0.26458332"
         id="path1015"
         inkscape:connector-curvature="0" />
      <path
         d="m 26.702247,278.47916 v -1.48208 h 0.421679 q 0.192237,0 0.304891,0.0941 0.112655,0.094 0.112655,0.24494 0,0.12609 -0.06821,0.21911 -0.06821,0.093 -0.188102,0.13229 v 0.004 q 0.149861,0.0176 0.239778,0.11369 0.08992,0.0951 0.08992,0.24804 0,0.19017 -0.136425,0.30799 -0.136426,0.11783 -0.344166,0.11783 z m 0.173632,-1.32499 v 0.47853 h 0.177767 q 0.142627,0 0.224276,-0.0682 0.08165,-0.0692 0.08165,-0.1943 0,-0.21601 -0.284221,-0.21601 z m 0,0.63459 v 0.5333 h 0.235645 q 0.152962,0 0.236678,-0.0724 0.08475,-0.0723 0.08475,-0.19843 0,-0.26252 -0.357601,-0.26252 z"
         style="font-size:2.11666656px;fill:#ffe4b3;stroke-width:0.26458332"
         id="path1017"
         inkscape:connector-curvature="0" />
      <path
         d="m 28.686621,278.47916 h -0.768945 v -1.48208 h 0.173633 v 1.32498 h 0.595312 z"
         style="font-size:2.11666656px;fill:#ffe4b3;stroke-width:0.26458332"
         id="path1019"
         inkscape:connector-curvature="0" />
      <path
         d="m 29.699479,278.47916 h -0.785481 v -1.48208 h 0.752408 v 0.15709 H 29.08763 v 0.493 h 0.535368 v 0.15606 H 29.08763 v 0.51883 h 0.611849 z"
         style="font-size:2.11666656px;fill:#ffe4b3;stroke-width:0.26458332"
         id="path1021"
         inkscape:connector-curvature="0" />
    </g>
    <g
       aria-label="INHIBIT"
       style="font-style:normal;font-variant:normal;font-weight:normal;font-stretch:normal;font-size:2.11666656px;line-height:1.25;font-family:'Yu Gothic UI';-inkscape-font-specification:'Yu Gothic UI';letter-spacing:0px;word-spacing:0px;fill:#ffe4b3;fill-opacity:1;stroke:none;stroke-width:0.26458332"
       id="text1026"
       transform="translate(1.6639813,-0.58143533)">
      <path
         d="m 18.88877,285.09375 h -0.173633 v -1.48208 h 0.173633 z"
         style="font-size:2.11666656px;fill:#ffe4b3;stroke-width:0.26458332"
         id="path1028"
         inkscape:connector-curvature="0" />
      <path
         d="m 20.472136,285.09375 h -0.212907 l -0.762744,-1.18132 q -0.02894,-0.0444 -0.04754,-0.093 h -0.0062 q 0.0083,0.0475 0.0083,0.2036 v 1.07074 h -0.173633 v -1.48208 h 0.225309 l 0.742074,1.16272 q 0.04651,0.0724 0.05994,0.0992 h 0.0041 q -0.01034,-0.0641 -0.01034,-0.21808 v -1.04386 h 0.173633 z"
         style="font-size:2.11666656px;fill:#ffe4b3;stroke-width:0.26458332"
         id="path1030"
         inkscape:connector-curvature="0" />
      <path
         d="m 21.974886,285.09375 h -0.173632 v -0.67593 h -0.766879 v 0.67593 h -0.173632 v -1.48208 h 0.173632 v 0.65009 h 0.766879 v -0.65009 h 0.173632 z"
         style="font-size:2.11666656px;fill:#ffe4b3;stroke-width:0.26458332"
         id="path1032"
         inkscape:connector-curvature="0" />
      <path
         d="M 22.539193,285.09375 H 22.36556 v -1.48208 h 0.173633 z"
         style="font-size:2.11666656px;fill:#ffe4b3;stroke-width:0.26458332"
         id="path1034"
         inkscape:connector-curvature="0" />
      <path
         d="m 22.9278,285.09375 v -1.48208 h 0.42168 q 0.192236,0 0.304891,0.094 0.112654,0.0941 0.112654,0.24495 0,0.12609 -0.06821,0.21911 -0.06821,0.093 -0.188102,0.13229 v 0.004 q 0.149862,0.0176 0.239779,0.11369 0.08992,0.0951 0.08992,0.24805 0,0.19017 -0.136426,0.30799 -0.136426,0.11782 -0.344165,0.11782 z m 0.173633,-1.32498 v 0.47852 H 23.2792 q 0.142627,0 0.224275,-0.0682 0.08165,-0.0693 0.08165,-0.19431 0,-0.216 -0.28422,-0.216 z m 0,0.63458 v 0.5333 h 0.235644 q 0.152963,0 0.236678,-0.0723 0.08475,-0.0723 0.08475,-0.19844 0,-0.26252 -0.357601,-0.26252 z"
         style="font-size:2.11666656px;fill:#ffe4b3;stroke-width:0.26458332"
         id="path1036"
         inkscape:connector-curvature="0" />
      <path
         d="m 24.316862,285.09375 h -0.173633 v -1.48208 h 0.173633 z"
         style="font-size:2.11666656px;fill:#ffe4b3;stroke-width:0.26458332"
         id="path1038"
         inkscape:connector-curvature="0" />
      <path
         d="M 25.581901,283.76877 H 25.15402 v 1.32498 h -0.173632 v -1.32498 H 24.55354 v -0.1571 h 1.028361 z"
         style="font-size:2.11666656px;fill:#ffe4b3;stroke-width:0.26458332"
         id="path1040"
         inkscape:connector-curvature="0" />
    </g>
    <path
       inkscape:connector-curvature="0"
       id="path1129"
       d="M 2.6458333,232.17708 H 29.104166"
       style="fill:none;stroke:#ffe4b3;stroke-width:0.26458332px;stroke-linecap:butt;stroke-linejoin:miter;stroke-opacity:1" />
    <path
       inkscape:connector-curvature="0"
       id="path1131"
       d="M 2.6458333,246.72934 H 29.104166"
       style="fill:none;stroke:#ffe4b3;stroke-width:0.26458332px;stroke-linecap:butt;stroke-linejoin:miter;stroke-opacity:1" />
    <path
       style="fill:none;stroke:#ffe4b3;stroke-width:0.26458332px;stroke-linecap:butt;stroke-linejoin:miter;stroke-opacity:1"
       d="M 2.6458333,217.62499 H 29.104166"
       id="path1133"
       inkscape:connector-curvature="0" />
  </g>
  <g
     inkscape:groupmode="layer"
     id="layer2"
     inkscape:label="Grid"
     style="display:none"
     sodipodi:insensitive="true">
    <g
       transform="translate(7.2598426e-7,3.333209e-6)"
       style="display:inline;stroke:#ffe4b3"
       id="g1112">
      <path
         style="fill:none;stroke:#ffe4b3;stroke-width:0.05;stroke-linecap:butt;stroke-linejoin:miter;stroke-miterlimit:4;stroke-dasharray:none;stroke-opacity:1"
         d="m 7.9375,-1e-5 -3e-6,100.54167"
         id="path881-8-8"
         inkscape:connector-curvature="0"
         sodipodi:nodetypes="cc" />
      <path
         sodipodi:nodetypes="cc"
         inkscape:connector-curvature="0"
         id="path890-2-5"
         d="m 3.968752,0 -4e-6,100.54167"
         style="fill:none;stroke:#ffe4b3;stroke-width:0.05;stroke-linecap:butt;stroke-linejoin:miter;stroke-miterlimit:4;stroke-dasharray:none;stroke-opacity:1" />
      <path
         style="fill:none;stroke:#ffe4b3;stroke-width:0.05;stroke-linecap:butt;stroke-linejoin:miter;stroke-miterlimit:4;stroke-dasharray:none;stroke-opacity:1"
         d="m 11.906253,0 -4e-6,100.54167"
         id="path895-1-5"
         inkscape:connector-curvature="0"
         sodipodi:nodetypes="cc" />
      <path
         sodipodi:nodetypes="cc"
         inkscape:connector-curvature="0"
         id="path905-6-4"
         d="m 0,14.022551 15.875,3.66e-4"
         style="fill:none;stroke:#ffe4b3;stroke-width:0.05;stroke-linecap:butt;stroke-linejoin:miter;stroke-miterlimit:4;stroke-dasharray:none;stroke-opacity:1" />
      <path
         sodipodi:nodetypes="cc"
         style="fill:none;stroke:#ffe4b3;stroke-width:0.05;stroke-linecap:butt;stroke-linejoin:miter;stroke-miterlimit:4;stroke-dasharray:none;stroke-opacity:1"
         d="M 0,28.57465 15.875,28.575"
         id="path1103"
         inkscape:connector-curvature="0" />
      <path
         sodipodi:nodetypes="cc"
         inkscape:connector-curvature="0"
         id="path1107"
         d="m 0,43.126622 15.875,4.61e-4"
         style="fill:none;stroke:#ffe4b3;stroke-width:0.05;stroke-linecap:butt;stroke-linejoin:miter;stroke-miterlimit:4;stroke-dasharray:none;stroke-opacity:1" />
      <path
         sodipodi:nodetypes="cc"
         style="fill:none;stroke:#ffe4b3;stroke-width:0.05;stroke-linecap:butt;stroke-linejoin:miter;stroke-miterlimit:4;stroke-dasharray:none;stroke-opacity:1"
         d="m 0,57.678723 15.875,4.44e-4"
         id="path1111"
         inkscape:connector-curvature="0" />
      <path
         sodipodi:nodetypes="cc"
         inkscape:connector-curvature="0"
         id="path1115"
         d="m 0,72.230955 15.875,2.95e-4"
         style="fill:none;stroke:#ffe4b3;stroke-width:0.05;stroke-linecap:butt;stroke-linejoin:miter;stroke-miterlimit:4;stroke-dasharray:none;stroke-opacity:1" />
      <path
         sodipodi:nodetypes="cc"
         style="fill:none;stroke:#ffe4b3;stroke-width:0.05;stroke-linecap:butt;stroke-linejoin:miter;stroke-miterlimit:4;stroke-dasharray:none;stroke-opacity:1"
         d="m 0,86.782927 15.875,4.06e-4"
         id="path1119"
         inkscape:connector-curvature="0" />
      <circle
         r="4.0999999"
         cy="28.574995"
         cx="7.9523039"
         id="circle1014"
         style="display:inline;opacity:1;fill:none;fill-opacity:1;stroke:#ffe4b3;stroke-width:0.05;stroke-linecap:square;stroke-linejoin:round;stroke-miterlimit:4;stroke-dasharray:none;stroke-dashoffset:0;stroke-opacity:1;paint-order:markers fill stroke" />
      <circle
         r="4.0999999"
         cy="43.127026"
         cx="7.9523039"
         id="circle1018"
         style="display:inline;opacity:1;fill:none;fill-opacity:1;stroke:#ffe4b3;stroke-width:0.05;stroke-linecap:square;stroke-linejoin:round;stroke-miterlimit:4;stroke-dasharray:none;stroke-dashoffset:0;stroke-opacity:1;paint-order:markers fill stroke" />
      <circle
         style="display:inline;opacity:1;fill:none;fill-opacity:1;stroke:#ffe4b3;stroke-width:0.05;stroke-linecap:square;stroke-linejoin:round;stroke-miterlimit:4;stroke-dasharray:none;stroke-dashoffset:0;stroke-opacity:1;paint-order:markers fill stroke"
         id="circle1022"
         cx="7.9523039"
         cy="57.679188"
         r="4.0999999" />
      <circle
         style="display:inline;opacity:1;fill:none;fill-opacity:1;stroke:#ffe4b3;stroke-width:0.05;stroke-linecap:square;stroke-linejoin:round;stroke-miterlimit:4;stroke-dasharray:none;stroke-dashoffset:0;stroke-opacity:1;paint-order:markers fill stroke"
         id="circle1026"
         cx="7.9523039"
         cy="72.231216"
         r="4.0999999" />
      <circle
         r="4.0999999"
         cy="86.783379"
         cx="7.9523039"
         id="circle1030"
         style="display:inline;opacity:1;fill:none;fill-opacity:1;stroke:#ffe4b3;stroke-width:0.05;stroke-linecap:square;stroke-linejoin:round;stroke-miterlimit:4;stroke-dasharray:none;stroke-dashoffset:0;stroke-opacity:1;paint-order:markers fill stroke" />
      <circle
         r="5.4741378"
         cy="14.023303"
         cx="7.9360795"
         id="circle943"
         style="display:inline;opacity:1;fill:none;fill-opacity:1;stroke:#ffe4b3;stroke-width:0.05172414;stroke-linecap:square;stroke-linejoin:round;stroke-miterlimit:4;stroke-dasharray:none;stroke-dashoffset:0;stroke-opacity:1;paint-order:markers fill stroke" />
      <circle
         style="display:inline;opacity:1;fill:none;fill-opacity:1;stroke:#ffe4b3;stroke-width:0.05172414;stroke-linecap:square;stroke-linejoin:round;stroke-miterlimit:4;stroke-dasharray:none;stroke-dashoffset:0;stroke-opacity:1;paint-order:markers fill stroke"
         id="circle975"
         cx="7.9360795"
         cy="28.575275"
         r="5.4741378" />
      <circle
         style="display:inline;opacity:1;fill:none;fill-opacity:1;stroke:#ffe4b3;stroke-width:0.05172414;stroke-linecap:square;stroke-linejoin:round;stroke-miterlimit:4;stroke-dasharray:none;stroke-dashoffset:0;stroke-opacity:1;paint-order:markers fill stroke"
         id="circle977"
         cx="7.9360795"
         cy="43.127495"
         r="5.4741378" />
      <circle
         r="5.4741378"
         cy="57.67947"
         cx="7.9360795"
         id="circle979"
         style="display:inline;opacity:1;fill:none;fill-opacity:1;stroke:#ffe4b3;stroke-width:0.05172414;stroke-linecap:square;stroke-linejoin:round;stroke-miterlimit:4;stroke-dasharray:none;stroke-dashoffset:0;stroke-opacity:1;paint-order:markers fill stroke" />
      <circle
         r="5.4741378"
         cy="72.231689"
         cx="7.9360795"
         id="circle981"
         style="display:inline;opacity:1;fill:none;fill-opacity:1;stroke:#ffe4b3;stroke-width:0.05172414;stroke-linecap:square;stroke-linejoin:round;stroke-miterlimit:4;stroke-dasharray:none;stroke-dashoffset:0;stroke-opacity:1;paint-order:markers fill stroke" />
      <circle
         style="display:inline;opacity:1;fill:none;fill-opacity:1;stroke:#ffe4b3;stroke-width:0.05172414;stroke-linecap:square;stroke-linejoin:round;stroke-miterlimit:4;stroke-dasharray:none;stroke-dashoffset:0;stroke-opacity:1;paint-order:markers fill stroke"
         id="circle983"
         cx="7.9360795"
         cy="86.783661"
         r="5.4741378" />
      <circle
         style="display:inline;opacity:1;fill:none;fill-opacity:1;stroke:#ffe4b3;stroke-width:0.05;stroke-linecap:square;stroke-linejoin:round;stroke-miterlimit:4;stroke-dasharray:none;stroke-dashoffset:0;stroke-opacity:1;paint-order:markers fill stroke"
         id="circle1089"
         cx="7.9523039"
         cy="14.022678"
         r="4.0999999" />
    </g>
    <g
       id="g4009"
       style="display:inline;stroke:#ffe4b3"
       transform="translate(15.874999,3.333209e-6)">
      <path
         sodipodi:nodetypes="cc"
         inkscape:connector-curvature="0"
         id="path3967"
         d="m 7.9375,-1e-5 -3e-6,100.54167"
         style="fill:none;stroke:#ffe4b3;stroke-width:0.05;stroke-linecap:butt;stroke-linejoin:miter;stroke-miterlimit:4;stroke-dasharray:none;stroke-opacity:1" />
      <path
         style="fill:none;stroke:#ffe4b3;stroke-width:0.05;stroke-linecap:butt;stroke-linejoin:miter;stroke-miterlimit:4;stroke-dasharray:none;stroke-opacity:1"
         d="m 3.968752,0 -4e-6,100.54167"
         id="path3969"
         inkscape:connector-curvature="0"
         sodipodi:nodetypes="cc" />
      <path
         sodipodi:nodetypes="cc"
         inkscape:connector-curvature="0"
         id="path3971"
         d="m 11.906253,0 -4e-6,100.54167"
         style="fill:none;stroke:#ffe4b3;stroke-width:0.05;stroke-linecap:butt;stroke-linejoin:miter;stroke-miterlimit:4;stroke-dasharray:none;stroke-opacity:1" />
      <path
         style="fill:none;stroke:#ffe4b3;stroke-width:0.05;stroke-linecap:butt;stroke-linejoin:miter;stroke-miterlimit:4;stroke-dasharray:none;stroke-opacity:1"
         d="m 0,14.022551 15.875,3.66e-4"
         id="path3973"
         inkscape:connector-curvature="0"
         sodipodi:nodetypes="cc" />
      <path
         inkscape:connector-curvature="0"
         id="path3975"
         d="M 0,28.57465 15.875,28.575"
         style="fill:none;stroke:#ffe4b3;stroke-width:0.05;stroke-linecap:butt;stroke-linejoin:miter;stroke-miterlimit:4;stroke-dasharray:none;stroke-opacity:1"
         sodipodi:nodetypes="cc" />
      <path
         style="fill:none;stroke:#ffe4b3;stroke-width:0.05;stroke-linecap:butt;stroke-linejoin:miter;stroke-miterlimit:4;stroke-dasharray:none;stroke-opacity:1"
         d="m 0,43.126622 15.875,4.61e-4"
         id="path3977"
         inkscape:connector-curvature="0"
         sodipodi:nodetypes="cc" />
      <path
         inkscape:connector-curvature="0"
         id="path3979"
         d="m 0,57.678723 15.875,4.44e-4"
         style="fill:none;stroke:#ffe4b3;stroke-width:0.05;stroke-linecap:butt;stroke-linejoin:miter;stroke-miterlimit:4;stroke-dasharray:none;stroke-opacity:1"
         sodipodi:nodetypes="cc" />
      <path
         style="fill:none;stroke:#ffe4b3;stroke-width:0.05;stroke-linecap:butt;stroke-linejoin:miter;stroke-miterlimit:4;stroke-dasharray:none;stroke-opacity:1"
         d="m 0,72.230955 15.875,2.95e-4"
         id="path3981"
         inkscape:connector-curvature="0"
         sodipodi:nodetypes="cc" />
      <path
         inkscape:connector-curvature="0"
         id="path3983"
         d="m 0,86.782927 15.875,4.06e-4"
         style="fill:none;stroke:#ffe4b3;stroke-width:0.05;stroke-linecap:butt;stroke-linejoin:miter;stroke-miterlimit:4;stroke-dasharray:none;stroke-opacity:1"
         sodipodi:nodetypes="cc" />
      <circle
         style="display:inline;opacity:1;fill:none;fill-opacity:1;stroke:#ffe4b3;stroke-width:0.05;stroke-linecap:square;stroke-linejoin:round;stroke-miterlimit:4;stroke-dasharray:none;stroke-dashoffset:0;stroke-opacity:1;paint-order:markers fill stroke"
         id="circle3985"
         cx="7.9523039"
         cy="28.574995"
         r="4.0999999" />
      <circle
         style="display:inline;opacity:1;fill:none;fill-opacity:1;stroke:#ffe4b3;stroke-width:0.05;stroke-linecap:square;stroke-linejoin:round;stroke-miterlimit:4;stroke-dasharray:none;stroke-dashoffset:0;stroke-opacity:1;paint-order:markers fill stroke"
         id="circle3987"
         cx="7.9523039"
         cy="43.127026"
         r="4.0999999" />
      <circle
         r="4.0999999"
         cy="57.679188"
         cx="7.9523039"
         id="circle3989"
         style="display:inline;opacity:1;fill:none;fill-opacity:1;stroke:#ffe4b3;stroke-width:0.05;stroke-linecap:square;stroke-linejoin:round;stroke-miterlimit:4;stroke-dasharray:none;stroke-dashoffset:0;stroke-opacity:1;paint-order:markers fill stroke" />
      <circle
         r="4.0999999"
         cy="72.231216"
         cx="7.9523039"
         id="circle3991"
         style="display:inline;opacity:1;fill:none;fill-opacity:1;stroke:#ffe4b3;stroke-width:0.05;stroke-linecap:square;stroke-linejoin:round;stroke-miterlimit:4;stroke-dasharray:none;stroke-dashoffset:0;stroke-opacity:1;paint-order:markers fill stroke" />
      <circle
         style="display:inline;opacity:1;fill:none;fill-opacity:1;stroke:#ffe4b3;stroke-width:0.05;stroke-linecap:square;stroke-linejoin:round;stroke-miterlimit:4;stroke-dasharray:none;stroke-dashoffset:0;stroke-opacity:1;paint-order:markers fill stroke"
         id="circle3993"
         cx="7.9523039"
         cy="86.783379"
         r="4.0999999" />
      <circle
         style="display:inline;opacity:1;fill:none;fill-opacity:1;stroke:#ffe4b3;stroke-width:0.05172414;stroke-linecap:square;stroke-linejoin:round;stroke-miterlimit:4;stroke-dasharray:none;stroke-dashoffset:0;stroke-opacity:1;paint-order:markers fill stroke"
         id="circle3995"
         cx="7.9360795"
         cy="14.023303"
         r="5.4741378" />
      <circle
         r="5.4741378"
         cy="28.575275"
         cx="7.9360795"
         id="circle3997"
         style="display:inline;opacity:1;fill:none;fill-opacity:1;stroke:#ffe4b3;stroke-width:0.05172414;stroke-linecap:square;stroke-linejoin:round;stroke-miterlimit:4;stroke-dasharray:none;stroke-dashoffset:0;stroke-opacity:1;paint-order:markers fill stroke" />
      <circle
         r="5.4741378"
         cy="43.127495"
         cx="7.9360795"
         id="circle3999"
         style="display:inline;opacity:1;fill:none;fill-opacity:1;stroke:#ffe4b3;stroke-width:0.05172414;stroke-linecap:square;stroke-linejoin:round;stroke-miterlimit:4;stroke-dasharray:none;stroke-dashoffset:0;stroke-opacity:1;paint-order:markers fill stroke" />
      <circle
         style="display:inline;opacity:1;fill:none;fill-opacity:1;stroke:#ffe4b3;stroke-width:0.05172414;stroke-linecap:square;stroke-linejoin:round;stroke-miterlimit:4;stroke-dasharray:none;stroke-dashoffset:0;stroke-opacity:1;paint-order:markers fill stroke"
         id="circle4001"
         cx="7.9360795"
         cy="57.67947"
         r="5.4741378" />
      <circle
         style="display:inline;opacity:1;fill:none;fill-opacity:1;stroke:#ffe4b3;stroke-width:0.05172414;stroke-linecap:square;stroke-linejoin:round;stroke-miterlimit:4;stroke-dasharray:none;stroke-dashoffset:0;stroke-opacity:1;paint-order:markers fill stroke"
         id="circle4003"
         cx="7.9360795"
         cy="72.231689"
         r="5.4741378" />
      <circle
         r="5.4741378"
         cy="86.783661"
         cx="7.9360795"
         id="circle4005"
         style="display:inline;opacity:1;fill:none;fill-opacity:1;stroke:#ffe4b3;stroke-width:0.05172414;stroke-linecap:square;stroke-linejoin:round;stroke-miterlimit:4;stroke-dasharray:none;stroke-dashoffset:0;stroke-opacity:1;paint-order:markers fill stroke" />
      <circle
         r="4.0999999"
         cy="14.022678"
         cx="7.9523039"
         id="circle4007"
         style="display:inline;opacity:1;fill:none;fill-opacity:1;stroke:#ffe4b3;stroke-width:0.05;stroke-linecap:square;stroke-linejoin:round;stroke-miterlimit:4;stroke-dasharray:none;stroke-dashoffset:0;stroke-opacity:1;paint-order:markers fill stroke" />
    </g>
  </g>
</svg>
