<?xml version="1.0" encoding="UTF-8" standalone="no"?>
<!-- Created with Inkscape (http://www.inkscape.org/) -->

<svg
   xmlns:dc="http://purl.org/dc/elements/1.1/"
   xmlns:cc="http://creativecommons.org/ns#"
   xmlns:rdf="http://www.w3.org/1999/02/22-rdf-syntax-ns#"
   xmlns:svg="http://www.w3.org/2000/svg"
   xmlns="http://www.w3.org/2000/svg"
   xmlns:sodipodi="http://sodipodi.sourceforge.net/DTD/sodipodi-0.dtd"
   xmlns:inkscape="http://www.inkscape.org/namespaces/inkscape"
   width="120"
   height="380"
   viewBox="0 0 31.750003 100.54167"
   version="1.1"
   id="svg8"
   inkscape:version="0.92.4 (5da689c313, 2019-01-14)"
   sodipodi:docname="CD4063.svg">
  <defs
     id="defs2" />
  <sodipodi:namedview
     id="base"
     pagecolor="#ffffff"
     bordercolor="#666666"
     borderopacity="1.0"
     inkscape:pageopacity="0.0"
     inkscape:pageshadow="2"
     inkscape:zoom="1.6114592"
     inkscape:cx="69.058577"
     inkscape:cy="145.93861"
     inkscape:document-units="mm"
     inkscape:current-layer="layer1"
     showgrid="true"
     units="px"
     inkscape:snap-bbox="true"
     inkscape:snap-page="true"
     inkscape:bbox-nodes="true"
     inkscape:snap-bbox-edge-midpoints="true"
     inkscape:window-width="1920"
     inkscape:window-height="1017"
     inkscape:window-x="-8"
     inkscape:window-y="-8"
     inkscape:window-maximized="1">
    <inkscape:grid
       type="xygrid"
       id="grid116" />
  </sodipodi:namedview>
  <metadata
     id="metadata5">
    <rdf:RDF>
      <cc:Work
         rdf:about="">
        <dc:format>image/svg+xml</dc:format>
        <dc:type
           rdf:resource="http://purl.org/dc/dcmitype/StillImage" />
        <dc:title></dc:title>
      </cc:Work>
    </rdf:RDF>
  </metadata>
  <g
     inkscape:groupmode="layer"
     id="layer3"
     inkscape:label="Panel">
    <path
       sodipodi:type="inkscape:offset"
       inkscape:radius="0"
       inkscape:original="M 0 196.45898 L 0 297 L 15.875 297 L 15.875 196.45898 L 0 196.45898 z "
       style="fill:#672200;fill-opacity:1;stroke-width:0.3310422"
       id="rect3855"
       d="M 0,196.45898 V 297 H 15.875 V 196.45898 Z"
       transform="matrix(2,0,0,1.0000064,0,-196.46023)" />
  </g>
  <g
     inkscape:label="Layer 1"
     inkscape:groupmode="layer"
     id="layer1"
     transform="translate(0,-196.45832)"
     style="display:inline">
    <text
       xml:space="preserve"
       style="font-style:normal;font-weight:normal;font-size:2.82222223px;line-height:1.25;font-family:sans-serif;letter-spacing:0px;word-spacing:0px;fill:#000000;fill-opacity:1;stroke:none;stroke-width:0.26458332"
       x="17.197916"
       y="201.74998"
       id="text3821"><tspan
         sodipodi:role="line"
         id="tspan3819"
         x="17.197916"
         y="204.24699"
         style="stroke-width:0.26458332" /></text>
    <g
       id="g4342">
      <g
         transform="translate(-9.481569,1.7166648)"
         id="text956"
         style="font-style:normal;font-variant:normal;font-weight:normal;font-stretch:normal;font-size:2.82222223px;line-height:1.25;font-family:'Copperplate Gothic Light';-inkscape-font-specification:'Copperplate Gothic Light, ';letter-spacing:0px;word-spacing:0px;fill:#ffffff;fill-opacity:1;stroke:#ffffff;stroke-width:0.2;stroke-miterlimit:4;stroke-dasharray:none;stroke-opacity:1"
         aria-label="/^M^\">
        <path
           inkscape:connector-curvature="0"
           id="path958"
           style="font-style:normal;font-variant:normal;font-weight:normal;font-stretch:normal;font-size:2.82222223px;line-height:1.25;font-family:'Copperplate Gothic Light';-inkscape-font-specification:'Copperplate Gothic Light, ';fill:#ffffff;stroke:#ffffff;stroke-width:0.2;stroke-miterlimit:4;stroke-dasharray:none;stroke-opacity:1"
           d="m 21.203855,291.40545 v 0.0386 h -0.434082 v -0.0386 q 0.09509,-0.006 0.224621,-0.17088 l 1.094162,-1.4621 q 0.07441,-0.1006 0.07441,-0.12402 0,-0.0372 -0.06615,-0.0482 v -0.0372 h 0.423058 v 0.0372 q -0.09508,0.006 -0.22462,0.17087 l -1.08176,1.46348 q -0.07579,0.10197 -0.07579,0.12402 0,0.0358 0.06615,0.0469 z" />
        <path
           inkscape:connector-curvature="0"
           id="path960"
           style="font-style:normal;font-variant:normal;font-weight:normal;font-stretch:normal;font-size:2.82222223px;line-height:1.25;font-family:'Copperplate Gothic Light';-inkscape-font-specification:'Copperplate Gothic Light, ';fill:#ffffff;stroke:#ffffff;stroke-width:0.2;stroke-miterlimit:4;stroke-dasharray:none;stroke-opacity:1"
           d="M 22.940183,290.3857 H 22.73899 l 0.493338,-0.8282 h 0.243912 l 0.493338,0.8282 h -0.20395 l -0.413411,-0.68075 z" />
        <path
           inkscape:connector-curvature="0"
           id="path962"
           style="font-style:normal;font-variant:normal;font-weight:normal;font-stretch:normal;font-size:2.82222223px;line-height:1.25;font-family:'Copperplate Gothic Light';-inkscape-font-specification:'Copperplate Gothic Light, ';fill:#ffffff;stroke:#ffffff;stroke-width:0.2;stroke-miterlimit:4;stroke-dasharray:none;stroke-opacity:1"
           d="m 25.342104,291.44403 -0.789616,-1.58061 v 1.418 q 0,0.0565 0.01791,0.0813 0.01791,0.0234 0.07028,0.0372 v 0.0441 h -0.373449 v -0.0441 q 0.05237,-0.0138 0.07028,-0.0372 0.01792,-0.0234 0.01792,-0.0813 v -1.5558 q 0,-0.0579 -0.01792,-0.0813 -0.01791,-0.0248 -0.07028,-0.0372 v -0.0441 h 0.487826 v 0.0441 q -0.06752,0.0234 -0.06752,0.0579 0,0.0165 0.04547,0.10611 l 0.62563,1.24161 0.628385,-1.25263 q 0.03307,-0.0661 0.03307,-0.0937 0,-0.0358 -0.06752,-0.0593 v -0.0441 h 0.49196 v 0.0441 q -0.05237,0.0138 -0.07028,0.0372 -0.01792,0.0234 -0.01792,0.0813 v 1.5558 q 0,0.0565 0.01792,0.0813 0.01791,0.0234 0.07028,0.0372 v 0.0441 h -0.392741 v -0.0441 q 0.05374,-0.0138 0.07028,-0.0372 0.01791,-0.0234 0.01791,-0.0813 v -1.418 z" />
        <path
           inkscape:connector-curvature="0"
           id="path964"
           style="font-style:normal;font-variant:normal;font-weight:normal;font-stretch:normal;font-size:2.82222223px;line-height:1.25;font-family:'Copperplate Gothic Light';-inkscape-font-specification:'Copperplate Gothic Light, ';fill:#ffffff;stroke:#ffffff;stroke-width:0.2;stroke-miterlimit:4;stroke-dasharray:none;stroke-opacity:1"
           d="m 26.942006,290.3857 h -0.201193 l 0.493338,-0.8282 h 0.243912 l 0.493338,0.8282 h -0.20395 l -0.413411,-0.68075 z" />
        <path
           inkscape:connector-curvature="0"
           id="path966"
           style="font-style:normal;font-variant:normal;font-weight:normal;font-stretch:normal;font-size:2.82222223px;line-height:1.25;font-family:'Copperplate Gothic Light';-inkscape-font-specification:'Copperplate Gothic Light, ';fill:#ffffff;stroke:#ffffff;stroke-width:0.2;stroke-miterlimit:4;stroke-dasharray:none;stroke-opacity:1"
           d="m 28.617701,289.56301 v 0.0372 q -0.06615,0.011 -0.06615,0.0482 0,0.0234 0.07441,0.12402 l 1.092784,1.4621 q 0.129536,0.16536 0.22462,0.17088 v 0.0386 h -0.434082 v -0.0386 q 0.06615,-0.011 0.06615,-0.0469 0,-0.0207 -0.07579,-0.12402 l -1.080382,-1.46348 q -0.129535,-0.16536 -0.22462,-0.17087 v -0.0372 z" />
      </g>
      <g
         id="text924"
         style="font-style:normal;font-variant:normal;font-weight:normal;font-stretch:normal;font-size:2.97226882px;line-height:1.25;font-family:'Yu Gothic UI';-inkscape-font-specification:'Yu Gothic UI';letter-spacing:0px;word-spacing:0px;fill:#ffffff;fill-opacity:1;stroke:none;stroke-width:0.24768905"
         aria-label="LUNETTA">
        <path
           id="path892"
           style="font-size:2.97226882px;fill:#ffffff;stroke-width:0.24768905"
           d="M 11.061028,295.90683 H 9.9812581 v -2.08117 h 0.2438189 v 1.86057 h 0.835951 z"
           inkscape:connector-curvature="0" />
        <path
           id="path894"
           style="font-size:2.97226882px;fill:#ffffff;stroke-width:0.24768905"
           d="m 12.902731,295.06507 q 0,0.87659 -0.79096,0.87659 -0.75758,0 -0.75758,-0.84321 v -1.27279 h 0.243819 v 1.25683 q 0,0.64002 0.539885,0.64002 0.521017,0 0.521017,-0.61825 v -1.2786 h 0.243819 z"
           inkscape:connector-curvature="0" />
        <path
           id="path896"
           style="font-size:2.97226882px;fill:#ffffff;stroke-width:0.24768905"
           d="m 15.101456,295.90683 h -0.298969 l -1.071062,-1.65884 q -0.04064,-0.0624 -0.06676,-0.13062 h -0.0087 q 0.01161,0.0668 0.01161,0.28591 v 1.50355 h -0.243819 v -2.08117 h 0.316384 l 1.042036,1.63272 q 0.06531,0.10159 0.08418,0.13932 h 0.0058 q -0.01451,-0.09 -0.01451,-0.30622 v -1.46582 h 0.243819 z"
           inkscape:connector-curvature="0" />
        <path
           id="path898"
           style="font-size:2.97226882px;fill:#ffffff;stroke-width:0.24768905"
           d="m 16.750136,295.90683 h -1.102991 v -2.08117 h 1.056549 v 0.2206 h -0.81273 v 0.69227 h 0.751775 v 0.21915 h -0.751775 v 0.72855 h 0.859172 z"
           inkscape:connector-curvature="0" />
        <path
           id="path900"
           style="font-size:2.97226882px;fill:#ffffff;stroke-width:0.24768905"
           d="m 18.381401,294.04626 h -0.60084 v 1.86057 h -0.243819 v -1.86057 h -0.599388 v -0.2206 h 1.444047 z"
           inkscape:connector-curvature="0" />
        <path
           id="path902"
           style="font-size:2.97226882px;fill:#ffffff;stroke-width:0.24768905"
           d="m 19.937197,294.04626 h -0.600839 v 1.86057 h -0.243819 v -1.86057 h -0.599388 v -0.2206 h 1.444046 z"
           inkscape:connector-curvature="0" />
        <path
           id="path904"
           style="font-size:2.97226882px;fill:#ffffff;stroke-width:0.24768905"
           d="M 21.768742,295.90683 H 21.4988 l -0.220598,-0.58342 h -0.882393 l -0.207536,0.58342 h -0.271394 l 0.798217,-2.08117 h 0.252527 z m -0.570362,-0.80257 -0.326543,-0.88675 q -0.01596,-0.0435 -0.03193,-0.13932 h -0.0058 q -0.01451,0.0885 -0.03338,0.13932 l -0.323641,0.88675 z"
           inkscape:connector-curvature="0" />
      </g>
    </g>
    <path
       sodipodi:nodetypes="ccccc"
       style="fill:none;stroke:#ffffff;stroke-width:0.26458332px;stroke-linecap:butt;stroke-linejoin:miter;stroke-opacity:1"
       d="m 18.520833,275.86915 v 11.37708 h 10.583338 l -4e-6,-11.37708 z"
       id="path939"
       inkscape:connector-curvature="0" />
    <path
       inkscape:connector-curvature="0"
       id="path943"
       d="m 18.520833,251.4915 v 11.37708 h 10.583338 l -4e-6,-11.37708 z"
       style="fill:none;stroke:#ffffff;stroke-width:0.26458332px;stroke-linecap:butt;stroke-linejoin:miter;stroke-opacity:1"
       sodipodi:nodetypes="ccccc" />
    <g
       aria-label="A3"
       style="font-style:normal;font-variant:normal;font-weight:normal;font-stretch:normal;font-size:2.82222223px;line-height:1.25;font-family:'Yu Gothic UI';-inkscape-font-specification:'Yu Gothic UI';letter-spacing:0px;word-spacing:0px;fill:#ffffff;fill-opacity:1;stroke:none;stroke-width:0.26458332"
       id="text986"
       transform="translate(0,-29.335213)">
      <path
         d="M 8.1448957,259.19025 H 7.8885806 L 7.6791188,258.63628 H 6.8412716 l -0.1970595,0.55397 H 6.386519 l 0.757921,-1.97611 h 0.2397786 z m -0.541569,-0.76206 -0.3100586,-0.84198 q -0.015158,-0.0413 -0.030317,-0.13229 h -0.00551 q -0.01378,0.0841 -0.031695,0.13229 l -0.3073025,0.84198 z"
         style="fill:#ffffff;stroke-width:0.26458332"
         id="path2067"
         inkscape:connector-curvature="0" />
      <path
         d="m 9.4884829,258.63076 q 0,0.13367 -0.050987,0.24392 -0.049609,0.10886 -0.1419379,0.18741 -0.090951,0.0772 -0.2191081,0.11989 -0.1281576,0.0427 -0.2824978,0.0427 -0.2824979,0 -0.4492405,-0.10749 v -0.24253 q 0.1998155,0.15709 0.4575087,0.15709 0.1033528,0 0.1860351,-0.0262 0.08406,-0.0262 0.143316,-0.0758 0.060634,-0.0496 0.092329,-0.11989 0.033073,-0.0703 0.033073,-0.15848 0,-0.38723 -0.5512153,-0.38723 H 8.5417707 v -0.19154 H 8.697489 q 0.4878255,0 0.4878255,-0.3638 0,-0.33625 -0.3720703,-0.33625 -0.2094618,0 -0.3927409,0.14056 v -0.2191 q 0.1887912,-0.113 0.4492405,-0.113 0.1240234,0 0.2246202,0.0345 0.1005968,0.0344 0.1722548,0.0965 0.071658,0.062 0.110243,0.14883 0.039963,0.0868 0.039963,0.19155 0,0.38998 -0.3941189,0.5016 v 0.006 q 0.1005968,0.011 0.1860352,0.0496 0.085438,0.0372 0.14745,0.0978 0.062012,0.0606 0.096463,0.14332 0.035829,0.0813 0.035829,0.18052 z"
         style="fill:#ffffff;stroke-width:0.26458332"
         id="path2069"
         inkscape:connector-curvature="0" />
    </g>
    <g
       aria-label="B3 "
       style="font-style:normal;font-variant:normal;font-weight:normal;font-stretch:normal;font-size:2.82222223px;line-height:1.25;font-family:'Yu Gothic UI';-inkscape-font-specification:'Yu Gothic UI';letter-spacing:0px;word-spacing:0px;fill:#ffffff;fill-opacity:1;stroke:none;stroke-width:0.26458332"
       id="text990"
       transform="translate(0,-29.354683)">
      <path
         d="m 22.475115,259.20972 v -1.97611 h 0.562239 q 0.256315,0 0.406522,0.1254 0.150206,0.1254 0.150206,0.3266 0,0.16812 -0.09095,0.29214 -0.09095,0.12402 -0.250803,0.17639 v 0.006 q 0.199816,0.0234 0.319705,0.15159 0.119889,0.12678 0.119889,0.33073 0,0.25355 -0.181901,0.41065 -0.181901,0.1571 -0.458886,0.1571 z m 0.23151,-1.76665 v 0.63803 h 0.237023 q 0.190169,0 0.299034,-0.0909 0.108865,-0.0923 0.108865,-0.25907 0,-0.28801 -0.378961,-0.28801 z m 0,0.84612 v 0.71106 h 0.314193 q 0.203949,0 0.315571,-0.0965 0.112999,-0.0965 0.112999,-0.26458 0,-0.35002 -0.476802,-0.35002 z"
         style="fill:#ffffff;stroke-width:0.26458332"
         id="path2062"
         inkscape:connector-curvature="0" />
      <path
         d="m 25.149887,258.65023 q 0,0.13367 -0.05099,0.24392 -0.04961,0.10886 -0.141938,0.18741 -0.09095,0.0772 -0.219108,0.11989 -0.128157,0.0427 -0.282497,0.0427 -0.282498,0 -0.449241,-0.10749 v -0.24253 q 0.199816,0.15709 0.457509,0.15709 0.103353,0 0.186035,-0.0262 0.08406,-0.0262 0.143316,-0.0758 0.06063,-0.0496 0.09233,-0.11989 0.03307,-0.0703 0.03307,-0.15848 0,-0.38722 -0.551215,-0.38722 h -0.163986 v -0.19155 h 0.155718 q 0.487825,0 0.487825,-0.3638 0,-0.33625 -0.37207,-0.33625 -0.209462,0 -0.392741,0.14056 v -0.2191 q 0.188791,-0.113 0.449241,-0.113 0.124023,0 0.22462,0.0344 0.100597,0.0344 0.172255,0.0965 0.07166,0.062 0.110243,0.14883 0.03996,0.0868 0.03996,0.19155 0,0.38998 -0.394119,0.5016 v 0.006 q 0.100597,0.011 0.186035,0.0496 0.08544,0.0372 0.14745,0.0978 0.06201,0.0606 0.09646,0.14332 0.03583,0.0813 0.03583,0.18052 z"
         style="fill:#ffffff;stroke-width:0.26458332"
         id="path2064"
         inkscape:connector-curvature="0" />
    </g>
    <g
       aria-label="A2"
       style="font-style:normal;font-variant:normal;font-weight:normal;font-stretch:normal;font-size:2.82222223px;line-height:1.25;font-family:'Yu Gothic UI';-inkscape-font-specification:'Yu Gothic UI';letter-spacing:0px;word-spacing:0px;fill:#ffffff;fill-opacity:1;stroke:none;stroke-width:0.26458332"
       id="text1000"
       transform="translate(0,-24.836026)">
      <path
         d="M 8.1166469,242.55289 H 7.8603318 L 7.65087,241.99892 H 6.8130228 l -0.1970595,0.55397 H 6.3582702 l 0.757921,-1.97611 h 0.2397786 z m -0.541569,-0.76206 -0.3100586,-0.84198 q -0.015158,-0.0413 -0.030317,-0.13229 h -0.00551 q -0.01378,0.0841 -0.031695,0.13229 l -0.3073025,0.84198 z"
         style="fill:#ffffff;stroke-width:0.26458332"
         id="path2082"
         inkscape:connector-curvature="0" />
      <path
         d="m 9.2108092,241.09492 q 0,-0.0909 -0.028939,-0.15847 -0.027561,-0.0675 -0.07717,-0.11162 -0.048231,-0.0455 -0.1143772,-0.0675 -0.066146,-0.022 -0.143316,-0.022 -0.066146,0 -0.1295356,0.0179 -0.06339,0.0179 -0.1240234,0.0496 -0.059256,0.0317 -0.1157552,0.0758 -0.055121,0.0441 -0.1033529,0.0978 v -0.24253 q 0.095085,-0.0923 0.2122179,-0.14056 0.1185113,-0.0496 0.28801,-0.0496 0.1212673,0 0.2246202,0.0358 0.1033529,0.0344 0.179145,0.10197 0.075792,0.0675 0.1185113,0.16674 0.044097,0.0992 0.044097,0.22738 0,0.11713 -0.027561,0.21222 -0.026183,0.0951 -0.081304,0.17914 -0.053744,0.0841 -0.1364258,0.16123 -0.082682,0.0772 -0.1943034,0.1571 -0.1391819,0.0992 -0.2301324,0.1695 -0.089572,0.0703 -0.143316,0.13229 -0.052365,0.0606 -0.074414,0.12265 -0.020671,0.0606 -0.020671,0.14056 H 9.516733 v 0.20257 H 8.2971699 v -0.0978 q 0,-0.12678 0.027561,-0.22325 0.027561,-0.0965 0.090951,-0.18328 0.06339,-0.0868 0.1653645,-0.17363 0.1033529,-0.0868 0.252181,-0.19568 0.107487,-0.0772 0.179145,-0.14745 0.073036,-0.0703 0.1171333,-0.14056 0.044097,-0.0703 0.062012,-0.14194 0.019293,-0.073 0.019293,-0.15434 z"
         style="fill:#ffffff;stroke-width:0.26458332"
         id="path2084"
         inkscape:connector-curvature="0" />
    </g>
    <g
       aria-label="B2"
       style="font-style:normal;font-variant:normal;font-weight:normal;font-stretch:normal;font-size:2.82222223px;line-height:1.25;font-family:'Yu Gothic UI';-inkscape-font-specification:'Yu Gothic UI';letter-spacing:0px;word-spacing:0px;fill:#ffffff;fill-opacity:1;stroke:none;stroke-width:0.26458332"
       id="text1004"
       transform="translate(0,-24.862851)">
      <path
         d="m 22.446865,242.57947 v -1.97611 h 0.562239 q 0.256316,0 0.406522,0.1254 0.150206,0.1254 0.150206,0.3266 0,0.16812 -0.09095,0.29214 -0.09095,0.12403 -0.250803,0.17639 v 0.006 q 0.199816,0.0234 0.319705,0.15159 0.11989,0.12678 0.11989,0.33073 0,0.25356 -0.181901,0.41065 -0.181901,0.1571 -0.458887,0.1571 z m 0.23151,-1.76665 v 0.63803 h 0.237023 q 0.190169,0 0.299034,-0.0909 0.108865,-0.0923 0.108865,-0.25907 0,-0.28801 -0.37896,-0.28801 z m 0,0.84612 v 0.71107 h 0.314193 q 0.20395,0 0.315571,-0.0965 0.112999,-0.0965 0.112999,-0.26458 0,-0.35002 -0.476801,-0.35002 z"
         style="fill:#ffffff;stroke-width:0.26458332"
         id="path2077"
         inkscape:connector-curvature="0" />
      <path
         d="m 24.872212,241.1215 q 0,-0.0909 -0.02894,-0.15847 -0.02756,-0.0675 -0.07717,-0.11162 -0.04823,-0.0455 -0.114377,-0.0675 -0.06615,-0.022 -0.143316,-0.022 -0.06615,0 -0.129536,0.0179 -0.06339,0.0179 -0.124023,0.0496 -0.05926,0.0317 -0.115755,0.0758 -0.05512,0.0441 -0.103353,0.0978 v -0.24253 q 0.09509,-0.0923 0.212218,-0.14056 0.118511,-0.0496 0.28801,-0.0496 0.121267,0 0.22462,0.0358 0.103353,0.0344 0.179145,0.10197 0.07579,0.0675 0.118511,0.16674 0.0441,0.0992 0.0441,0.22738 0,0.11713 -0.02756,0.21222 -0.02618,0.0951 -0.0813,0.17914 -0.05374,0.0841 -0.136426,0.16123 -0.08268,0.0772 -0.194304,0.1571 -0.139182,0.0992 -0.230132,0.1695 -0.08957,0.0703 -0.143316,0.13229 -0.05236,0.0606 -0.07441,0.12265 -0.02067,0.0606 -0.02067,0.14056 h 0.98392 v 0.20257 h -1.219564 v -0.0978 q 0,-0.12678 0.02756,-0.22325 0.02756,-0.0965 0.09095,-0.18327 0.06339,-0.0868 0.165365,-0.17364 0.103353,-0.0868 0.252181,-0.19568 0.107487,-0.0772 0.179145,-0.14745 0.07304,-0.0703 0.117133,-0.14056 0.0441,-0.0703 0.06201,-0.14194 0.01929,-0.073 0.01929,-0.15434 z"
         style="fill:#ffffff;stroke-width:0.26458332"
         id="path2079"
         inkscape:connector-curvature="0" />
    </g>
    <g
       aria-label="A1"
       style="font-style:normal;font-variant:normal;font-weight:normal;font-stretch:normal;font-size:2.82222223px;line-height:1.25;font-family:'Yu Gothic UI';-inkscape-font-specification:'Yu Gothic UI';letter-spacing:0px;word-spacing:0px;fill:#ffffff;fill-opacity:1;stroke:none;stroke-width:0.26458332"
       id="text1012"
       transform="translate(0,-20.331849)">
      <path
         d="M 8.3026797,225.89832 H 8.0463646 L 7.8369028,225.34434 H 6.9990556 l -0.1970595,0.55398 H 6.544303 l 0.757921,-1.97611 h 0.2397786 z m -0.541569,-0.76206 -0.3100586,-0.84198 q -0.015158,-0.0413 -0.030317,-0.13229 h -0.00551 q -0.01378,0.0841 -0.031695,0.13229 l -0.3073025,0.84198 z"
         style="fill:#ffffff;stroke-width:0.26458332"
         id="path2097"
         inkscape:connector-curvature="0" />
      <path
         d="M 9.3306961,225.89832 H 9.1046979 v -1.70739 q -0.026183,0.0262 -0.07717,0.0606 -0.049609,0.0331 -0.1129991,0.0661 -0.062012,0.0331 -0.1322917,0.062 -0.068902,0.0289 -0.1350477,0.0455 v -0.22875 q 0.074414,-0.0207 0.1570964,-0.0551 0.08406,-0.0358 0.1639865,-0.0786 0.081304,-0.0441 0.1529622,-0.0909 0.071658,-0.0482 0.1240235,-0.0937 h 0.085438 z"
         style="fill:#ffffff;stroke-width:0.26458332"
         id="path2099"
         inkscape:connector-curvature="0" />
    </g>
    <g
       aria-label="B1"
       style="font-style:normal;font-variant:normal;font-weight:normal;font-stretch:normal;font-size:2.82222223px;line-height:1.25;font-family:'Yu Gothic UI';-inkscape-font-specification:'Yu Gothic UI';letter-spacing:0px;word-spacing:0px;fill:#ffffff;fill-opacity:1;stroke:none;stroke-width:0.26458332"
       id="text1016"
       transform="translate(0,-20.315499)">
      <path
         d="m 22.6329,225.88173 v -1.97611 h 0.56224 q 0.256315,0 0.406521,0.1254 0.150206,0.12541 0.150206,0.3266 0,0.16812 -0.09095,0.29214 -0.09095,0.12403 -0.250803,0.17639 v 0.006 q 0.199815,0.0234 0.319704,0.15159 0.11989,0.12678 0.11989,0.33073 0,0.25356 -0.181901,0.41065 -0.181901,0.1571 -0.458887,0.1571 z m 0.23151,-1.76665 v 0.63804 h 0.237023 q 0.190169,0 0.299034,-0.0909 0.108865,-0.0923 0.108865,-0.25908 0,-0.28801 -0.37896,-0.28801 z m 0,0.84612 v 0.71107 h 0.314193 q 0.20395,0 0.315571,-0.0965 0.112999,-0.0965 0.112999,-0.26458 0,-0.35002 -0.476801,-0.35002 z"
         style="fill:#ffffff;stroke-width:0.26458332"
         id="path2092"
         inkscape:connector-curvature="0" />
      <path
         d="m 24.992101,225.88173 h -0.225998 v -1.70739 q -0.02618,0.0262 -0.07717,0.0606 -0.04961,0.0331 -0.112999,0.0661 -0.06201,0.0331 -0.132292,0.062 -0.0689,0.0289 -0.135047,0.0455 v -0.22876 q 0.07441,-0.0207 0.157096,-0.0551 0.08406,-0.0358 0.163986,-0.0786 0.08131,-0.0441 0.152963,-0.0909 0.07166,-0.0482 0.124023,-0.0937 h 0.08544 z"
         style="fill:#ffffff;stroke-width:0.26458332"
         id="path2094"
         inkscape:connector-curvature="0" />
    </g>
    <text
       xml:space="preserve"
       style="font-style:normal;font-variant:normal;font-weight:normal;font-stretch:normal;font-size:2.82222223px;line-height:1.25;font-family:'Yu Gothic UI';-inkscape-font-specification:'Yu Gothic UI';letter-spacing:0px;word-spacing:0px;fill:#000000;fill-opacity:1;stroke:none;stroke-width:0.26458332"
       x="5.2916665"
       y="283.77081"
       id="text1036"><tspan
         sodipodi:role="line"
         id="tspan1034"
         x="5.2916665"
         y="286.31293"
         style="stroke-width:0.26458332" /></text>
    <path
       inkscape:connector-curvature="0"
       id="path2027"
       d="m 18.520833,263.68416 v 11.37708 h 10.583338 l -4e-6,-11.37708 z"
       style="fill:none;stroke:#ffffff;stroke-width:0.26458332px;stroke-linecap:butt;stroke-linejoin:miter;stroke-opacity:1"
       sodipodi:nodetypes="ccccc" />
    <path
       style="fill:none;stroke:#ffffff;stroke-width:0.26458332px;stroke-linecap:butt;stroke-linejoin:miter;stroke-opacity:1"
       d="m 2.6458333,250.69788 26.4583337,2e-5"
       id="path2037"
       inkscape:connector-curvature="0"
       sodipodi:nodetypes="cc" />
    <g
       aria-label="A4"
       style="font-style:normal;font-variant:normal;font-weight:normal;font-stretch:normal;font-size:2.82222223px;line-height:1.25;font-family:'Yu Gothic UI';-inkscape-font-specification:'Yu Gothic UI';letter-spacing:0px;word-spacing:0px;fill:#ffffff;fill-opacity:1;stroke:none;stroke-width:0.26458332"
       id="text2119"
       transform="translate(-5.6058585,-25.834015)">
      <path
         d="m 13.694944,267.89581 h -0.256316 l -0.209461,-0.55397 h -0.837848 l -0.197059,0.55397 h -0.257693 l 0.757921,-1.9761 h 0.239778 z m -0.541569,-0.76205 -0.310059,-0.84198 q -0.01516,-0.0413 -0.03032,-0.1323 h -0.0055 q -0.01378,0.0841 -0.0317,0.1323 l -0.307302,0.84198 z"
         style="fill:#ffffff;stroke-width:0.26458332"
         id="path2121"
         inkscape:connector-curvature="0" />
      <path
         d="m 14.896593,265.91971 v 1.305 h 0.253559 v 0.2067 h -0.253559 v 0.4644 h -0.223242 v -0.4644 h -0.928798 v -0.19568 q 0.129536,-0.14607 0.261827,-0.31143 0.132292,-0.16675 0.252181,-0.33762 0.121268,-0.17088 0.223242,-0.34038 0.103353,-0.17088 0.173633,-0.32659 z m -0.897103,1.305 h 0.673861 v -0.96738 q -0.103353,0.18052 -0.195682,0.32246 -0.09233,0.14193 -0.176389,0.25769 -0.08268,0.11575 -0.158474,0.20946 -0.07579,0.0937 -0.143316,0.17777 z"
         style="fill:#ffffff;stroke-width:0.26458332"
         id="path2123"
         inkscape:connector-curvature="0" />
    </g>
    <g
       aria-label="B4"
       style="font-style:normal;font-variant:normal;font-weight:normal;font-stretch:normal;font-size:2.82222223px;line-height:1.25;font-family:'Yu Gothic UI';-inkscape-font-specification:'Yu Gothic UI';letter-spacing:0px;word-spacing:0px;fill:#ffffff;fill-opacity:1;stroke:none;stroke-width:0.26458332"
       id="text2128"
       transform="translate(-0.3293505,-24.511354)">
      <path
         d="m 22.748655,266.57291 v -1.97611 h 0.56224 q 0.256315,0 0.406521,0.1254 0.150206,0.1254 0.150206,0.3266 0,0.16812 -0.09095,0.29214 -0.09095,0.12402 -0.250803,0.17639 v 0.006 q 0.199815,0.0234 0.319705,0.15159 0.119889,0.12678 0.119889,0.33072 0,0.25356 -0.181901,0.41066 -0.181901,0.1571 -0.458887,0.1571 z m 0.231511,-1.76665 v 0.63803 h 0.237022 q 0.190169,0 0.299034,-0.091 0.108865,-0.0923 0.108865,-0.25907 0,-0.28801 -0.37896,-0.28801 z m 0,0.84612 v 0.71106 h 0.314192 q 0.20395,0 0.315571,-0.0965 0.112999,-0.0965 0.112999,-0.26458 0,-0.35002 -0.476801,-0.35002 z"
         style="fill:#ffffff;stroke-width:0.26458332"
         id="path2130"
         inkscape:connector-curvature="0" />
      <path
         d="m 25.281489,264.5968 v 1.305 h 0.253559 v 0.20671 h -0.253559 v 0.4644 h -0.223242 v -0.4644 h -0.928798 v -0.19568 q 0.129536,-0.14608 0.261828,-0.31144 0.132291,-0.16674 0.252181,-0.33762 0.121267,-0.17088 0.223242,-0.34038 0.103353,-0.17087 0.173633,-0.32659 z m -0.897103,1.305 h 0.673861 v -0.96738 q -0.103353,0.18052 -0.195681,0.32246 -0.09233,0.14194 -0.176389,0.25769 -0.08268,0.11576 -0.158475,0.20946 -0.07579,0.0937 -0.143316,0.17777 z"
         style="fill:#ffffff;stroke-width:0.26458332"
         id="path2132"
         inkscape:connector-curvature="0" />
    </g>
    <g
       aria-label="A&lt;B"
       style="font-style:normal;font-variant:normal;font-weight:normal;font-stretch:normal;font-size:2.82222223px;line-height:1.25;font-family:'Yu Gothic UI';-inkscape-font-specification:'Yu Gothic UI';letter-spacing:0px;word-spacing:0px;fill:#ffffff;fill-opacity:1;stroke:none;stroke-width:0.26458332"
       id="text1959"
       transform="translate(5.3357734,8.159913)">
      <path
         d="m 16.359382,246.05943 h -0.256315 l -0.209462,-0.55397 h -0.837847 l -0.19706,0.55397 h -0.257693 l 0.757921,-1.9761 h 0.239779 z m -0.541569,-0.76205 -0.310059,-0.84198 q -0.01516,-0.0413 -0.03032,-0.1323 h -0.0055 q -0.01378,0.0841 -0.0317,0.1323 l -0.307302,0.84198 z"
         style="fill:#ffffff;stroke-width:0.26458332"
         id="path1983"
         inkscape:connector-curvature="0" />
      <path
         d="m 17.949638,245.88442 -1.185113,-0.59531 v -0.0813 l 1.185113,-0.66422 v 0.20671 l -0.884701,0.49058 v 0.006 l 0.884701,0.4327 z"
         style="fill:#ffffff;stroke-width:0.26458332"
         id="path1985"
         inkscape:connector-curvature="0" />
      <path
         d="m 18.578023,246.05943 v -1.9761 h 0.56224 q 0.256315,0 0.406521,0.1254 0.150206,0.1254 0.150206,0.32659 0,0.16812 -0.09095,0.29215 -0.09095,0.12402 -0.250803,0.17639 v 0.006 q 0.199815,0.0234 0.319705,0.15158 0.119889,0.12678 0.119889,0.33073 0,0.25356 -0.181901,0.41066 -0.181901,0.15709 -0.458887,0.15709 z m 0.231511,-1.76664 v 0.63803 h 0.237022 q 0.19017,0 0.299035,-0.091 0.108865,-0.0923 0.108865,-0.25907 0,-0.28801 -0.378961,-0.28801 z m 0,0.84611 v 0.71107 h 0.314192 q 0.20395,0 0.315571,-0.0965 0.112999,-0.0965 0.112999,-0.26458 0,-0.35003 -0.476801,-0.35003 z"
         style="fill:#ffffff;stroke-width:0.26458332"
         id="path1987"
         inkscape:connector-curvature="0" />
    </g>
    <g
       aria-label="A=B"
       style="font-style:normal;font-variant:normal;font-weight:normal;font-stretch:normal;font-size:2.82222223px;line-height:1.25;font-family:'Yu Gothic UI';-inkscape-font-specification:'Yu Gothic UI';letter-spacing:0px;word-spacing:0px;fill:#ffffff;fill-opacity:1;stroke:none;stroke-width:0.26458332"
       id="text1963"
       transform="translate(-5.5341793,20.308525)">
      <path
         d="m 26.942714,246.05943 h -0.256315 l -0.209462,-0.55397 H 25.63909 l -0.19706,0.55397 h -0.257693 l 0.757921,-1.9761 h 0.239779 z m -0.541569,-0.76205 -0.310059,-0.84198 q -0.01516,-0.0413 -0.03032,-0.1323 h -0.0055 q -0.01378,0.0841 -0.0317,0.1323 l -0.307302,0.84198 z"
         style="fill:#ffffff;stroke-width:0.26458332"
         id="path1976"
         inkscape:connector-curvature="0" />
      <path
         d="m 28.588091,245.03417 h -1.295355 v -0.1819 h 1.295355 z m 0,0.58705 h -1.295355 v -0.1819 h 1.295355 z"
         style="fill:#ffffff;stroke-width:0.26458332"
         id="path1978"
         inkscape:connector-curvature="0" />
      <path
         d="m 29.161355,246.05943 v -1.9761 h 0.56224 q 0.256315,0 0.406521,0.1254 0.150206,0.1254 0.150206,0.32659 0,0.16812 -0.09095,0.29215 -0.09095,0.12402 -0.250803,0.17639 v 0.006 q 0.199815,0.0234 0.319705,0.15158 0.119889,0.12678 0.119889,0.33073 0,0.25356 -0.181901,0.41066 -0.181901,0.15709 -0.458887,0.15709 z m 0.231511,-1.76664 v 0.63803 h 0.237022 q 0.19017,0 0.299035,-0.091 0.108865,-0.0923 0.108865,-0.25907 0,-0.28801 -0.378961,-0.28801 z m 0,0.84611 v 0.71107 h 0.314192 q 0.20395,0 0.315571,-0.0965 0.112999,-0.0965 0.112999,-0.26458 0,-0.35003 -0.476801,-0.35003 z"
         style="fill:#ffffff;stroke-width:0.26458332"
         id="path1980"
         inkscape:connector-curvature="0" />
    </g>
    <g
       aria-label="A&gt;B"
       style="font-style:normal;font-variant:normal;font-weight:normal;font-stretch:normal;font-size:2.82222223px;line-height:1.25;font-family:'Yu Gothic UI';-inkscape-font-specification:'Yu Gothic UI';letter-spacing:0px;word-spacing:0px;fill:#ffffff;fill-opacity:1;stroke:none;stroke-width:0.26458332"
       id="text1967"
       transform="translate(-6.6400663,28.534997)">
      <path
         d="m 28.265632,250.02818 h -0.256315 l -0.209462,-0.55397 h -0.837847 l -0.19706,0.55397 h -0.257693 l 0.757921,-1.9761 h 0.239779 z m -0.541569,-0.76205 -0.310059,-0.84198 q -0.01516,-0.0413 -0.03032,-0.1323 h -0.0055 q -0.01378,0.0841 -0.03169,0.1323 l -0.307302,0.84198 z"
         style="fill:#ffffff;stroke-width:0.26458332"
         id="path1969"
         inkscape:connector-curvature="0" />
      <path
         d="m 29.855888,249.25786 -1.185113,0.59531 v -0.20533 l 0.887457,-0.42994 v -0.008 l -0.887457,-0.49058 v -0.20671 l 1.185113,0.66422 z"
         style="fill:#ffffff;stroke-width:0.26458332"
         id="path1971"
         inkscape:connector-curvature="0" />
      <path
         d="m 30.484273,250.02818 v -1.9761 h 0.56224 q 0.256315,0 0.406521,0.1254 0.150206,0.1254 0.150206,0.32659 0,0.16812 -0.09095,0.29215 -0.09095,0.12402 -0.250803,0.17639 v 0.006 q 0.199815,0.0234 0.319705,0.15158 0.119889,0.12678 0.119889,0.33073 0,0.25356 -0.181901,0.41066 -0.181901,0.15709 -0.458887,0.15709 z m 0.231511,-1.76664 v 0.63803 h 0.237022 q 0.19017,0 0.299035,-0.091 0.108865,-0.0923 0.108865,-0.25907 0,-0.28801 -0.378961,-0.28801 z m 0,0.84611 v 0.71107 h 0.314192 q 0.20395,0 0.315571,-0.0965 0.112999,-0.0965 0.112999,-0.26458 0,-0.35003 -0.476801,-0.35003 z"
         style="fill:#ffffff;stroke-width:0.26458332"
         id="path1973"
         inkscape:connector-curvature="0" />
    </g>
    <g
       transform="translate(-9.260417,8.159913)"
       id="g1996"
       style="font-style:normal;font-variant:normal;font-weight:normal;font-stretch:normal;font-size:2.82222223px;line-height:1.25;font-family:'Yu Gothic UI';-inkscape-font-specification:'Yu Gothic UI';letter-spacing:0px;word-spacing:0px;fill:#ffffff;fill-opacity:1;stroke:none;stroke-width:0.26458332"
       aria-label="A&lt;B">
      <path
         inkscape:connector-curvature="0"
         id="path1990"
         style="fill:#ffffff;stroke-width:0.26458332"
         d="m 16.359382,246.05943 h -0.256315 l -0.209462,-0.55397 h -0.837847 l -0.19706,0.55397 h -0.257693 l 0.757921,-1.9761 h 0.239779 z m -0.541569,-0.76205 -0.310059,-0.84198 q -0.01516,-0.0413 -0.03032,-0.1323 h -0.0055 q -0.01378,0.0841 -0.0317,0.1323 l -0.307302,0.84198 z" />
      <path
         inkscape:connector-curvature="0"
         id="path1992"
         style="fill:#ffffff;stroke-width:0.26458332"
         d="m 17.949638,245.88442 -1.185113,-0.59531 v -0.0813 l 1.185113,-0.66422 v 0.20671 l -0.884701,0.49058 v 0.006 l 0.884701,0.4327 z" />
      <path
         inkscape:connector-curvature="0"
         id="path1994"
         style="fill:#ffffff;stroke-width:0.26458332"
         d="m 18.578023,246.05943 v -1.9761 h 0.56224 q 0.256315,0 0.406521,0.1254 0.150206,0.1254 0.150206,0.32659 0,0.16812 -0.09095,0.29215 -0.09095,0.12402 -0.250803,0.17639 v 0.006 q 0.199815,0.0234 0.319705,0.15158 0.119889,0.12678 0.119889,0.33073 0,0.25356 -0.181901,0.41066 -0.181901,0.15709 -0.458887,0.15709 z m 0.231511,-1.76664 v 0.63803 h 0.237022 q 0.19017,0 0.299035,-0.091 0.108865,-0.0923 0.108865,-0.25907 0,-0.28801 -0.378961,-0.28801 z m 0,0.84611 v 0.71107 h 0.314192 q 0.20395,0 0.315571,-0.0965 0.112999,-0.0965 0.112999,-0.26458 0,-0.35003 -0.476801,-0.35003 z" />
    </g>
    <g
       transform="translate(-19.843749,20.308525)"
       id="g2004"
       style="font-style:normal;font-variant:normal;font-weight:normal;font-stretch:normal;font-size:2.82222223px;line-height:1.25;font-family:'Yu Gothic UI';-inkscape-font-specification:'Yu Gothic UI';letter-spacing:0px;word-spacing:0px;fill:#ffffff;fill-opacity:1;stroke:none;stroke-width:0.26458332"
       aria-label="A=B">
      <path
         inkscape:connector-curvature="0"
         id="path1998"
         style="fill:#ffffff;stroke-width:0.26458332"
         d="m 26.942714,246.05943 h -0.256315 l -0.209462,-0.55397 H 25.63909 l -0.19706,0.55397 h -0.257693 l 0.757921,-1.9761 h 0.239779 z m -0.541569,-0.76205 -0.310059,-0.84198 q -0.01516,-0.0413 -0.03032,-0.1323 h -0.0055 q -0.01378,0.0841 -0.0317,0.1323 l -0.307302,0.84198 z" />
      <path
         inkscape:connector-curvature="0"
         id="path2000"
         style="fill:#ffffff;stroke-width:0.26458332"
         d="m 28.588091,245.03417 h -1.295355 v -0.1819 h 1.295355 z m 0,0.58705 h -1.295355 v -0.1819 h 1.295355 z" />
      <path
         inkscape:connector-curvature="0"
         id="path2002"
         style="fill:#ffffff;stroke-width:0.26458332"
         d="m 29.161355,246.05943 v -1.9761 h 0.56224 q 0.256315,0 0.406521,0.1254 0.150206,0.1254 0.150206,0.32659 0,0.16812 -0.09095,0.29215 -0.09095,0.12402 -0.250803,0.17639 v 0.006 q 0.199815,0.0234 0.319705,0.15158 0.119889,0.12678 0.119889,0.33073 0,0.25356 -0.181901,0.41066 -0.181901,0.15709 -0.458887,0.15709 z m 0.231511,-1.76664 v 0.63803 h 0.237022 q 0.19017,0 0.299035,-0.091 0.108865,-0.0923 0.108865,-0.25907 0,-0.28801 -0.378961,-0.28801 z m 0,0.84611 v 0.71107 h 0.314192 q 0.20395,0 0.315571,-0.0965 0.112999,-0.0965 0.112999,-0.26458 0,-0.35003 -0.476801,-0.35003 z" />
    </g>
    <g
       transform="translate(-21.166667,28.534997)"
       id="g2012"
       style="font-style:normal;font-variant:normal;font-weight:normal;font-stretch:normal;font-size:2.82222223px;line-height:1.25;font-family:'Yu Gothic UI';-inkscape-font-specification:'Yu Gothic UI';letter-spacing:0px;word-spacing:0px;fill:#ffffff;fill-opacity:1;stroke:none;stroke-width:0.26458332"
       aria-label="A&gt;B">
      <path
         inkscape:connector-curvature="0"
         id="path2006"
         style="fill:#ffffff;stroke-width:0.26458332"
         d="m 28.265632,250.02818 h -0.256315 l -0.209462,-0.55397 h -0.837847 l -0.19706,0.55397 h -0.257693 l 0.757921,-1.9761 h 0.239779 z m -0.541569,-0.76205 -0.310059,-0.84198 q -0.01516,-0.0413 -0.03032,-0.1323 h -0.0055 q -0.01378,0.0841 -0.03169,0.1323 l -0.307302,0.84198 z" />
      <path
         inkscape:connector-curvature="0"
         id="path2008"
         style="fill:#ffffff;stroke-width:0.26458332"
         d="m 29.855888,249.25786 -1.185113,0.59531 v -0.20533 l 0.887457,-0.42994 v -0.008 l -0.887457,-0.49058 v -0.20671 l 1.185113,0.66422 z" />
      <path
         inkscape:connector-curvature="0"
         id="path2010"
         style="fill:#ffffff;stroke-width:0.26458332"
         d="m 30.484273,250.02818 v -1.9761 h 0.56224 q 0.256315,0 0.406521,0.1254 0.150206,0.1254 0.150206,0.32659 0,0.16812 -0.09095,0.29215 -0.09095,0.12402 -0.250803,0.17639 v 0.006 q 0.199815,0.0234 0.319705,0.15158 0.119889,0.12678 0.119889,0.33073 0,0.25356 -0.181901,0.41066 -0.181901,0.15709 -0.458887,0.15709 z m 0.231511,-1.76664 v 0.63803 h 0.237022 q 0.19017,0 0.299035,-0.091 0.108865,-0.0923 0.108865,-0.25907 0,-0.28801 -0.378961,-0.28801 z m 0,0.84611 v 0.71107 h 0.314192 q 0.20395,0 0.315571,-0.0965 0.112999,-0.0965 0.112999,-0.26458 0,-0.35003 -0.476801,-0.35003 z" />
    </g>
    <g
       aria-label="4-BIT MAGNITUDE COMPARATOR"
       style="font-style:normal;font-variant:normal;font-weight:normal;font-stretch:normal;font-size:2.11666656px;line-height:1.25;font-family:'Yu Gothic UI';-inkscape-font-specification:'Yu Gothic UI';letter-spacing:0px;word-spacing:0px;fill:#ffffff;fill-opacity:1;stroke:none;stroke-width:0.26458332"
       id="text2016"
       transform="matrix(0.91648769,0,0,1,-5.9488632,0)">
      <path
         d="m 8.7984298,200.80358 v 0.97875 H 8.988599 v 0.15503 H 8.7984298 v 0.3483 H 8.6309981 v -0.3483 H 7.9343999 v -0.14676 q 0.097152,-0.10955 0.1963704,-0.23358 0.099219,-0.12505 0.1891357,-0.25321 0.09095,-0.12816 0.1674317,-0.25528 0.077515,-0.12816 0.1302246,-0.24495 z m -0.6728272,0.97875 h 0.5053955 v -0.72554 q -0.077515,0.1354 -0.146761,0.24185 -0.069246,0.10645 -0.1322917,0.19327 -0.062012,0.0868 -0.1188558,0.1571 -0.056844,0.0703 -0.107487,0.13332 z"
         style="font-size:2.11666656px;fill:#ffffff;stroke-width:0.26458332"
         id="path2035"
         inkscape:connector-curvature="0" />
      <path
         d="M 9.7740807,201.76269 H 9.2097741 v -0.13332 h 0.5643066 z"
         style="font-size:2.11666656px;fill:#ffffff;stroke-width:0.26458332"
         id="path2038"
         inkscape:connector-curvature="0" />
      <path
         d="m 10.102743,202.28566 v -1.48208 h 0.421679 q 0.192237,0 0.304891,0.094 0.112655,0.0941 0.112655,0.24495 0,0.12609 -0.06821,0.21911 -0.06821,0.093 -0.188102,0.13229 v 0.004 q 0.149862,0.0176 0.239779,0.11369 0.08992,0.0951 0.08992,0.24805 0,0.19017 -0.136426,0.30799 -0.136426,0.11782 -0.344165,0.11782 z m 0.173633,-1.32498 v 0.47852 h 0.177766 q 0.142627,0 0.224276,-0.0682 0.08165,-0.0693 0.08165,-0.19431 0,-0.216 -0.28422,-0.216 z m 0,0.63458 v 0.5333 h 0.235644 q 0.152962,0 0.236678,-0.0723 0.08475,-0.0724 0.08475,-0.19844 0,-0.26252 -0.3576,-0.26252 z"
         style="font-size:2.11666656px;fill:#ffffff;stroke-width:0.26458332"
         id="path2040"
         inkscape:connector-curvature="0" />
      <path
         d="m 11.491805,202.28566 h -0.173632 v -1.48208 h 0.173632 z"
         style="font-size:2.11666656px;fill:#ffffff;stroke-width:0.26458332"
         id="path2042"
         inkscape:connector-curvature="0" />
      <path
         d="m 12.756844,200.96068 h -0.427881 v 1.32498 h -0.173632 v -1.32498 h -0.426848 v -0.1571 h 1.028361 z"
         style="font-size:2.11666656px;fill:#ffffff;stroke-width:0.26458332"
         id="path2044"
         inkscape:connector-curvature="0" />
      <path
         d="m 15.07815,202.28566 h -0.1726 v -0.99425 q 0,-0.11783 0.01447,-0.28836 h -0.0041 q -0.02481,0.10025 -0.04444,0.14366 l -0.506429,1.13895 h -0.08475 l -0.505396,-1.13068 q -0.0217,-0.0496 -0.04444,-0.15193 h -0.0041 q 0.0083,0.0889 0.0083,0.29042 v 0.99219 h -0.167432 v -1.48208 h 0.229443 l 0.454753,1.03353 q 0.05271,0.11885 0.06821,0.17777 h 0.0062 q 0.04444,-0.12196 0.07131,-0.18191 l 0.464055,-1.02939 h 0.217041 z"
         style="font-size:2.11666656px;fill:#ffffff;stroke-width:0.26458332"
         id="path2046"
         inkscape:connector-curvature="0" />
      <path
         d="m 16.61604,202.28566 h -0.192236 l -0.157097,-0.41548 h -0.628385 l -0.147795,0.41548 h -0.193269 l 0.56844,-1.48208 h 0.179834 z m -0.406177,-0.57154 -0.232544,-0.63149 q -0.01137,-0.031 -0.02274,-0.0992 h -0.0041 q -0.01034,0.0631 -0.02377,0.0992 l -0.230476,0.63149 z"
         style="font-size:2.11666656px;fill:#ffffff;stroke-width:0.26458332"
         id="path2048"
         inkscape:connector-curvature="0" />
      <path
         d="m 17.907951,202.18437 q -0.223242,0.12609 -0.496093,0.12609 -0.317294,0 -0.513664,-0.20463 -0.195337,-0.20464 -0.195337,-0.54157 0,-0.34417 0.217041,-0.56431 0.218074,-0.22117 0.551904,-0.22117 0.241846,0 0.406177,0.0785 v 0.19224 q -0.179834,-0.11369 -0.425814,-0.11369 -0.24908,0 -0.408244,0.17157 -0.159163,0.17156 -0.159163,0.44441 0,0.28112 0.147795,0.44235 0.147794,0.1602 0.401009,0.1602 0.173632,0 0.300756,-0.0692 v -0.41548 h -0.324527 v -0.1571 h 0.49816 z"
         style="font-size:2.11666656px;fill:#ffffff;stroke-width:0.26458332"
         id="path2050"
         inkscape:connector-curvature="0" />
      <path
         d="m 19.445841,202.28566 h -0.212907 l -0.762744,-1.18132 q -0.02894,-0.0445 -0.04754,-0.093 h -0.0062 q 0.0083,0.0475 0.0083,0.2036 v 1.07074 h -0.173633 v -1.48208 h 0.22531 l 0.742073,1.16272 q 0.04651,0.0724 0.05995,0.0992 h 0.0041 q -0.01034,-0.0641 -0.01034,-0.21808 v -1.04386 h 0.173632 z"
         style="font-size:2.11666656px;fill:#ffffff;stroke-width:0.26458332"
         id="path2052"
         inkscape:connector-curvature="0" />
      <path
         d="m 20.008081,202.28566 h -0.173633 v -1.48208 h 0.173633 z"
         style="font-size:2.11666656px;fill:#ffffff;stroke-width:0.26458332"
         id="path2054"
         inkscape:connector-curvature="0" />
      <path
         d="m 21.27312,200.96068 h -0.427881 v 1.32498 h -0.173633 v -1.32498 h -0.426847 v -0.1571 h 1.028361 z"
         style="font-size:2.11666656px;fill:#ffffff;stroke-width:0.26458332"
         id="path2056"
         inkscape:connector-curvature="0" />
      <path
         d="m 22.588801,201.68621 q 0,0.62425 -0.563273,0.62425 -0.539502,0 -0.539502,-0.60048 v -0.9064 h 0.173633 v 0.89504 q 0,0.45578 0.384473,0.45578 0.371037,0 0.371037,-0.44028 v -0.91054 h 0.173632 z"
         style="font-size:2.11666656px;fill:#ffffff;stroke-width:0.26458332"
         id="path2058"
         inkscape:connector-curvature="0" />
      <path
         d="m 22.959839,202.28566 v -1.48208 h 0.409277 q 0.783415,0 0.783415,0.72244 0,0.34313 -0.218075,0.5519 -0.217041,0.20774 -0.581876,0.20774 z m 0.173633,-1.32498 v 1.16788 h 0.221175 q 0.291455,0 0.453719,-0.15606 0.162264,-0.15606 0.162264,-0.44235 0,-0.56947 -0.605648,-0.56947 z"
         style="font-size:2.11666656px;fill:#ffffff;stroke-width:0.26458332"
         id="path2060"
         inkscape:connector-curvature="0" />
      <path
         d="m 25.229468,202.28566 h -0.785482 v -1.48208 h 0.752409 v 0.1571 h -0.578776 v 0.49299 h 0.535367 v 0.15606 h -0.535367 v 0.51883 h 0.611849 z"
         style="font-size:2.11666656px;fill:#ffffff;stroke-width:0.26458332"
         id="path2063"
         inkscape:connector-curvature="0" />
      <path
         d="m 27.102221,202.22365 q -0.164331,0.0868 -0.409277,0.0868 -0.31626,0 -0.506429,-0.2036 -0.19017,-0.20361 -0.19017,-0.53433 0,-0.35554 0.213941,-0.57465 0.21394,-0.2191 0.542602,-0.2191 0.21084,0 0.349333,0.061 v 0.185 q -0.159163,-0.0889 -0.3514,-0.0889 -0.255281,0 -0.414445,0.17053 -0.15813,0.17054 -0.15813,0.45579 0,0.27078 0.147795,0.43201 0.148828,0.1602 0.38964,0.1602 0.223243,0 0.38654,-0.0992 z"
         style="font-size:2.11666656px;fill:#ffffff;stroke-width:0.26458332"
         id="path2065"
         inkscape:connector-curvature="0" />
      <path
         d="m 28.001391,202.31046 q -0.315226,0 -0.505395,-0.20773 -0.189136,-0.20774 -0.189136,-0.54054 0,-0.3576 0.19327,-0.57051 0.19327,-0.2129 0.526066,-0.2129 0.306958,0 0.494026,0.2067 0.188103,0.20671 0.188103,0.54054 0,0.36276 -0.192237,0.5736 -0.192236,0.21084 -0.514697,0.21084 z m 0.0124,-1.37459 q -0.233577,0 -0.379305,0.16847 -0.145727,0.16846 -0.145727,0.44235 0,0.27388 0.141593,0.44131 0.142627,0.1664 0.371037,0.1664 0.243913,0 0.384473,-0.15916 0.14056,-0.15917 0.14056,-0.44545 0,-0.29352 -0.136426,-0.45372 -0.136426,-0.1602 -0.376205,-0.1602 z"
         style="font-size:2.11666656px;fill:#ffffff;stroke-width:0.26458332"
         id="path2068"
         inkscape:connector-curvature="0" />
      <path
         d="m 30.510798,202.28566 h -0.172599 v -0.99425 q 0,-0.11783 0.01447,-0.28836 h -0.0041 q -0.0248,0.10025 -0.04444,0.14366 l -0.506429,1.13895 h -0.08475 l -0.505395,-1.13068 q -0.0217,-0.0496 -0.04444,-0.15193 h -0.0041 q 0.0083,0.0889 0.0083,0.29042 v 0.99219 H 28.99978 v -1.48208 h 0.229443 l 0.454752,1.03353 q 0.05271,0.11885 0.06821,0.17777 h 0.0062 q 0.04444,-0.12196 0.07131,-0.18191 l 0.464054,-1.02939 h 0.217041 z"
         style="font-size:2.11666656px;fill:#ffffff;stroke-width:0.26458332"
         id="path2070"
         inkscape:connector-curvature="0" />
      <path
         d="m 31.075106,201.72549 v 0.56017 h -0.173633 v -1.48208 h 0.40721 q 0.237712,0 0.367936,0.11575 0.131258,0.11576 0.131258,0.3266 0,0.21084 -0.145727,0.3452 -0.144694,0.13436 -0.391707,0.13436 z m 0,-0.76481 v 0.60771 h 0.181901 q 0.179834,0 0.273885,-0.0816 0.09508,-0.0827 0.09508,-0.23254 0,-0.29352 -0.347265,-0.29352 z"
         style="font-size:2.11666656px;fill:#ffffff;stroke-width:0.26458332"
         id="path2072"
         inkscape:connector-curvature="0" />
      <path
         d="m 33.173169,202.28566 h -0.192236 l -0.157097,-0.41548 h -0.628385 l -0.147795,0.41548 h -0.19327 l 0.568441,-1.48208 h 0.179834 z m -0.406177,-0.57154 -0.232544,-0.63149 q -0.01137,-0.031 -0.02274,-0.0992 h -0.0041 q -0.01034,0.0631 -0.02377,0.0992 l -0.230477,0.63149 z"
         style="font-size:2.11666656px;fill:#ffffff;stroke-width:0.26458332"
         id="path2074"
         inkscape:connector-curvature="0" />
      <path
         d="M 34.452675,202.28566 H 34.24597 l -0.248047,-0.41548 q -0.03411,-0.0579 -0.06615,-0.0982 -0.03204,-0.0413 -0.06615,-0.0672 -0.03307,-0.0258 -0.07235,-0.0372 -0.03824,-0.0124 -0.08682,-0.0124 h -0.142627 v 0.63045 h -0.173633 v -1.48208 h 0.44235 q 0.09715,0 0.178801,0.0248 0.08268,0.0238 0.142627,0.0734 0.06098,0.0496 0.09508,0.12402 0.03411,0.0734 0.03411,0.1726 0,0.0775 -0.02377,0.14262 -0.02274,0.0641 -0.06615,0.11473 -0.04237,0.0506 -0.103353,0.0868 -0.05994,0.0351 -0.135392,0.0548 v 0.004 q 0.03721,0.0165 0.06408,0.0382 0.02791,0.0207 0.05271,0.0496 0.02481,0.0289 0.04858,0.0661 0.02481,0.0362 0.05478,0.0848 z m -0.888834,-1.32498 v 0.53743 h 0.235644 q 0.06511,0 0.11989,-0.0196 0.05581,-0.0196 0.09612,-0.0558 0.04031,-0.0372 0.06305,-0.0899 0.02274,-0.0538 0.02274,-0.11989 0,-0.11886 -0.07751,-0.185 -0.07648,-0.0672 -0.222209,-0.0672 z"
         style="font-size:2.11666656px;fill:#ffffff;stroke-width:0.26458332"
         id="path2076"
         inkscape:connector-curvature="0" />
      <path
         d="m 35.802464,202.28566 h -0.192236 l -0.157096,-0.41548 h -0.628386 l -0.147794,0.41548 h -0.19327 l 0.568441,-1.48208 h 0.179834 z m -0.406176,-0.57154 -0.232544,-0.63149 q -0.01137,-0.031 -0.02274,-0.0992 h -0.0041 q -0.01033,0.0631 -0.02377,0.0992 l -0.230477,0.63149 z"
         style="font-size:2.11666656px;fill:#ffffff;stroke-width:0.26458332"
         id="path2078"
         inkscape:connector-curvature="0" />
      <path
         d="m 36.821524,200.96068 h -0.427881 v 1.32498 h -0.173632 v -1.32498 h -0.426848 v -0.1571 h 1.028361 z"
         style="font-size:2.11666656px;fill:#ffffff;stroke-width:0.26458332"
         id="path2080"
         inkscape:connector-curvature="0" />
      <path
         d="m 37.629742,202.31046 q -0.315226,0 -0.505395,-0.20773 -0.189136,-0.20774 -0.189136,-0.54054 0,-0.3576 0.19327,-0.57051 0.19327,-0.2129 0.526066,-0.2129 0.306958,0 0.494027,0.2067 0.188102,0.20671 0.188102,0.54054 0,0.36276 -0.192236,0.5736 -0.192237,0.21084 -0.514698,0.21084 z m 0.0124,-1.37459 q -0.233578,0 -0.379305,0.16847 -0.145728,0.16846 -0.145728,0.44235 0,0.27388 0.141594,0.44131 0.142627,0.1664 0.371036,0.1664 0.243913,0 0.384473,-0.15916 0.14056,-0.15917 0.14056,-0.44545 0,-0.29352 -0.136426,-0.45372 -0.136426,-0.1602 -0.376204,-0.1602 z"
         style="font-size:2.11666656px;fill:#ffffff;stroke-width:0.26458332"
         id="path2083"
         inkscape:connector-curvature="0" />
      <path
         d="m 39.6906,202.28566 h -0.206706 l -0.248047,-0.41548 q -0.03411,-0.0579 -0.06614,-0.0982 -0.03204,-0.0413 -0.06615,-0.0672 -0.03307,-0.0258 -0.07235,-0.0372 -0.03824,-0.0124 -0.08682,-0.0124 H 38.80176 v 0.63045 h -0.173632 v -1.48208 h 0.44235 q 0.09715,0 0.1788,0.0248 0.08268,0.0238 0.142627,0.0734 0.06098,0.0496 0.09508,0.12402 0.03411,0.0734 0.03411,0.1726 0,0.0775 -0.02377,0.14262 -0.02274,0.0641 -0.06615,0.11473 -0.04237,0.0506 -0.103352,0.0868 -0.05994,0.0351 -0.135393,0.0548 v 0.004 q 0.03721,0.0165 0.06408,0.0382 0.0279,0.0207 0.05271,0.0496 0.02481,0.0289 0.04858,0.0661 0.02481,0.0362 0.05478,0.0848 z m -0.888835,-1.32498 v 0.53743 h 0.235645 q 0.06511,0 0.119889,-0.0196 0.05581,-0.0196 0.09612,-0.0558 0.04031,-0.0372 0.06305,-0.0899 0.02274,-0.0538 0.02274,-0.11989 0,-0.11886 -0.07751,-0.185 -0.07648,-0.0672 -0.222209,-0.0672 z"
         style="font-size:2.11666656px;fill:#ffffff;stroke-width:0.26458332"
         id="path2085"
         inkscape:connector-curvature="0" />
    </g>
    <g
       aria-label="CD4063"
       style="font-style:normal;font-variant:normal;font-weight:600;font-stretch:normal;font-size:3.52777767px;line-height:1.25;font-family:'Yu Gothic UI';-inkscape-font-specification:'Yu Gothic UI Semi-Bold';letter-spacing:0px;word-spacing:0px;fill:#ffffff;fill-opacity:1;stroke:none;stroke-width:0.26458332"
       id="text2020"
       transform="translate(-3.6207948,-24.20537)">
      <path
         d="m 15.256605,224.13621 q -0.279053,0.14469 -0.694187,0.14469 -0.537435,0 -0.861274,-0.33934 -0.323839,-0.33934 -0.323839,-0.89055 0,-0.59256 0.363458,-0.95774 0.36518,-0.36518 0.921563,-0.36518 0.35829,0 0.594279,0.10163 v 0.40652 q -0.24977,-0.14814 -0.551216,-0.14814 -0.401353,0 -0.651123,0.25666 -0.248046,0.25666 -0.248046,0.68557 0,0.40825 0.232543,0.65113 0.232544,0.24115 0.611505,0.24115 0.349677,0 0.606337,-0.16536 z"
         style="font-style:normal;font-variant:normal;font-weight:600;font-stretch:normal;font-size:3.52777767px;font-family:'Yu Gothic UI';-inkscape-font-specification:'Yu Gothic UI Semi-Bold';fill:#ffffff;stroke-width:0.26458332"
         id="path2022"
         inkscape:connector-curvature="0" />
      <path
         d="m 15.725138,224.23956 v -2.47013 h 0.713134 q 1.365981,0 1.365981,1.20406 0,0.57189 -0.378961,0.91984 -0.37896,0.34623 -1.016303,0.34623 z m 0.408243,-2.12218 v 1.77595 h 0.327284 q 0.43236,0 0.671794,-0.23771 0.241157,-0.23771 0.241157,-0.67179 0,-0.86645 -0.897448,-0.86645 z"
         style="font-style:normal;font-variant:normal;font-weight:600;font-stretch:normal;font-size:3.52777767px;font-family:'Yu Gothic UI';-inkscape-font-specification:'Yu Gothic UI Semi-Bold';fill:#ffffff;stroke-width:0.26458332"
         id="path2024"
         inkscape:connector-curvature="0" />
      <path
         d="m 19.544026,221.76943 v 1.59508 h 0.366903 v 0.33245 h -0.366903 v 0.5426 h -0.387573 v -0.5426 h -1.117934 v -0.3359 q 0.151585,-0.17053 0.310059,-0.36862 0.160197,-0.19982 0.306614,-0.40652 0.148139,-0.20843 0.273885,-0.41686 0.125746,-0.20843 0.211873,-0.39963 z m -0.387573,1.59508 v -1.03697 q -0.187758,0.33761 -0.37207,0.58911 -0.18259,0.25149 -0.342787,0.44786 z"
         style="font-style:normal;font-variant:normal;font-weight:600;font-stretch:normal;font-size:3.52777767px;font-family:'Yu Gothic UI';-inkscape-font-specification:'Yu Gothic UI Semi-Bold';fill:#ffffff;stroke-width:0.26458332"
         id="path2026"
         inkscape:connector-curvature="0" />
      <path
         d="m 20.934122,224.2809 q -0.385851,0 -0.602892,-0.31522 -0.215318,-0.31523 -0.215318,-0.91123 0,-0.65457 0.225654,-0.99046 0.225653,-0.3359 0.651123,-0.3359 0.814765,0 0.814765,1.26607 0,0.62701 -0.230822,0.95774 -0.229099,0.329 -0.64251,0.329 z m 0.03962,-2.23414 q -0.449585,0 -0.449585,0.99046 0,0.92674 0.440972,0.92674 0.434082,0 0.434082,-0.94224 0,-0.97496 -0.425469,-0.97496 z"
         style="font-style:normal;font-variant:normal;font-weight:600;font-stretch:normal;font-size:3.52777767px;font-family:'Yu Gothic UI';-inkscape-font-specification:'Yu Gothic UI Semi-Bold';fill:#ffffff;stroke-width:0.26458332"
         id="path2028"
         inkscape:connector-curvature="0" />
      <path
         d="m 23.77288,223.44547 q 0,0.18603 -0.06201,0.33934 -0.06029,0.15331 -0.168809,0.26527 -0.108521,0.11025 -0.258382,0.17226 -0.148139,0.0603 -0.322117,0.0603 -0.186035,0 -0.342787,-0.0724 -0.155029,-0.0724 -0.268717,-0.21532 -0.111966,-0.14297 -0.173978,-0.35484 -0.06201,-0.2136 -0.06201,-0.49437 0,-0.34279 0.08096,-0.60806 0.08268,-0.26528 0.225654,-0.44442 0.142972,-0.17915 0.335897,-0.27216 0.192925,-0.093 0.416857,-0.093 0.139526,0 0.253214,0.0189 0.115411,0.0189 0.184313,0.0517 v 0.36002 q -0.08785,-0.0448 -0.187758,-0.0758 -0.09991,-0.031 -0.229099,-0.031 -0.144694,0 -0.266995,0.0586 -0.122301,0.0586 -0.211873,0.17226 -0.08785,0.11196 -0.139526,0.27905 -0.04995,0.16537 -0.05168,0.38241 h 0.01034 q 0.07924,-0.1223 0.213596,-0.19293 0.136082,-0.0706 0.318672,-0.0706 0.161919,0 0.29111,0.0534 0.130914,0.0517 0.222209,0.15158 0.09302,0.0982 0.142971,0.24116 0.04995,0.14125 0.04995,0.31867 z m -0.403076,0.0327 q 0,-0.1068 -0.02584,-0.19465 -0.02412,-0.0879 -0.07579,-0.14986 -0.04995,-0.0637 -0.127469,-0.0982 -0.07579,-0.0345 -0.179145,-0.0345 -0.103353,0 -0.18259,0.0379 -0.07751,0.0362 -0.130913,0.0965 -0.0534,0.0603 -0.08096,0.1378 -0.02584,0.0775 -0.02584,0.15848 0,0.0879 0.02411,0.18087 0.02584,0.0913 0.07752,0.16708 0.05168,0.0758 0.130914,0.12575 0.08096,0.0482 0.191202,0.0482 0.09819,0 0.173978,-0.0362 0.07579,-0.0362 0.125746,-0.0999 0.05168,-0.0637 0.07751,-0.14986 0.02756,-0.0879 0.02756,-0.18948 z"
         style="font-style:normal;font-variant:normal;font-weight:600;font-stretch:normal;font-size:3.52777767px;font-family:'Yu Gothic UI';-inkscape-font-specification:'Yu Gothic UI Semi-Bold';fill:#ffffff;stroke-width:0.26458332"
         id="path2030"
         inkscape:connector-curvature="0" />
      <path
         d="m 24.120836,224.14827 v -0.37552 q 0.241156,0.19121 0.544325,0.19121 0.246324,0 0.392741,-0.11197 0.148139,-0.11197 0.148139,-0.30317 0,-0.4203 -0.642511,-0.4203 h -0.191202 v -0.32039 h 0.18259 q 0.570163,0 0.570163,-0.39619 0,-0.36518 -0.444417,-0.36518 -0.248047,0 -0.466811,0.17742 v -0.35484 q 0.251492,-0.14125 0.594279,-0.14125 0.329007,0 0.5271,0.16536 0.198093,0.16537 0.198093,0.42375 0,0.48748 -0.496094,0.62701 v 0.007 q 0.266995,0.0258 0.422024,0.18776 0.155029,0.16019 0.155029,0.40135 0,0.33245 -0.249769,0.53743 -0.249769,0.20326 -0.658013,0.20326 -0.366903,0 -0.585666,-0.13263 z"
         style="font-style:normal;font-variant:normal;font-weight:600;font-stretch:normal;font-size:3.52777767px;font-family:'Yu Gothic UI';-inkscape-font-specification:'Yu Gothic UI Semi-Bold';fill:#ffffff;stroke-width:0.26458332"
         id="path2032"
         inkscape:connector-curvature="0" />
    </g>
  </g>
  <g
     inkscape:groupmode="layer"
     id="layer2"
     inkscape:label="Grid"
     style="display:none"
     sodipodi:insensitive="true">
    <g
       transform="translate(3.1496063e-6,3.333209e-6)"
       style="display:inline;stroke:#ffffff"
       id="g953">
      <circle
         style="display:inline;opacity:1;fill:none;fill-opacity:1;stroke:#ffffff;stroke-width:0.05172414;stroke-linecap:square;stroke-linejoin:round;stroke-miterlimit:4;stroke-dasharray:none;stroke-dashoffset:0;stroke-opacity:1;paint-order:markers fill stroke"
         id="circle1336"
         cx="7.9360795"
         cy="13.229558"
         r="5.4741378" />
      <circle
         r="5.4741378"
         cy="25.400398"
         cx="7.9360795"
         id="circle881"
         style="display:inline;opacity:1;fill:none;fill-opacity:1;stroke:#ffffff;stroke-width:0.05172414;stroke-linecap:square;stroke-linejoin:round;stroke-miterlimit:4;stroke-dasharray:none;stroke-dashoffset:0;stroke-opacity:1;paint-order:markers fill stroke" />
      <circle
         style="display:inline;opacity:1;fill:none;fill-opacity:1;stroke:#ffffff;stroke-width:0.05172414;stroke-linecap:square;stroke-linejoin:round;stroke-miterlimit:4;stroke-dasharray:none;stroke-dashoffset:0;stroke-opacity:1;paint-order:markers fill stroke"
         id="circle883"
         cx="7.9360795"
         cy="37.571243"
         r="5.4741378" />
      <circle
         r="5.4741378"
         cy="49.742088"
         cx="7.9360795"
         id="circle885"
         style="display:inline;opacity:1;fill:none;fill-opacity:1;stroke:#ffffff;stroke-width:0.05172414;stroke-linecap:square;stroke-linejoin:round;stroke-miterlimit:4;stroke-dasharray:none;stroke-dashoffset:0;stroke-opacity:1;paint-order:markers fill stroke" />
      <circle
         style="display:inline;opacity:1;fill:none;fill-opacity:1;stroke:#ffffff;stroke-width:0.05172414;stroke-linecap:square;stroke-linejoin:round;stroke-miterlimit:4;stroke-dasharray:none;stroke-dashoffset:0;stroke-opacity:1;paint-order:markers fill stroke"
         id="circle887"
         cx="7.9360795"
         cy="61.912933"
         r="5.4741378" />
      <circle
         r="5.4741378"
         cy="74.083778"
         cx="7.9360795"
         id="circle889"
         style="display:inline;opacity:1;fill:none;fill-opacity:1;stroke:#ffffff;stroke-width:0.05172414;stroke-linecap:square;stroke-linejoin:round;stroke-miterlimit:4;stroke-dasharray:none;stroke-dashoffset:0;stroke-opacity:1;paint-order:markers fill stroke" />
      <circle
         style="display:inline;opacity:1;fill:none;fill-opacity:1;stroke:#ffffff;stroke-width:0.05172414;stroke-linecap:square;stroke-linejoin:round;stroke-miterlimit:4;stroke-dasharray:none;stroke-dashoffset:0;stroke-opacity:1;paint-order:markers fill stroke"
         id="circle891"
         cx="7.9360795"
         cy="86.254623"
         r="5.4741378" />
      <text
         id="text3821-7"
         y="5.2916646"
         x="17.197916"
         style="font-style:normal;font-weight:normal;font-size:2.82222223px;line-height:1.25;font-family:sans-serif;letter-spacing:0px;word-spacing:0px;display:inline;fill:#000000;fill-opacity:1;stroke:#ffffff;stroke-width:0.26458332"
         xml:space="preserve"><tspan
           style="stroke:#ffffff;stroke-width:0.26458332"
           y="7.7886696"
           x="17.197916"
           id="tspan3819-3"
           sodipodi:role="line" /></text>
      <path
         style="display:inline;fill:none;stroke:#ffffff;stroke-width:0.05;stroke-linecap:butt;stroke-linejoin:miter;stroke-miterlimit:4;stroke-dasharray:none;stroke-opacity:1"
         d="m 7.9375,-1e-5 -3e-6,100.54167"
         id="path881-8"
         inkscape:connector-curvature="0"
         sodipodi:nodetypes="cc" />
      <path
         sodipodi:nodetypes="cc"
         inkscape:connector-curvature="0"
         id="path890-2"
         d="m 3.968752,0 -4e-6,100.54167"
         style="display:inline;fill:none;stroke:#ffffff;stroke-width:0.05;stroke-linecap:butt;stroke-linejoin:miter;stroke-miterlimit:4;stroke-dasharray:none;stroke-opacity:1" />
      <path
         style="display:inline;fill:none;stroke:#ffffff;stroke-width:0.05;stroke-linecap:butt;stroke-linejoin:miter;stroke-miterlimit:4;stroke-dasharray:none;stroke-opacity:1"
         d="m 11.906253,0 -4e-6,100.54167"
         id="path895-1"
         inkscape:connector-curvature="0"
         sodipodi:nodetypes="cc" />
      <path
         sodipodi:nodetypes="cc"
         inkscape:connector-curvature="0"
         id="path905-6"
         d="m 0,13.22881 15.875,3.6e-4"
         style="display:inline;fill:none;stroke:#ffffff;stroke-width:0.05;stroke-linecap:butt;stroke-linejoin:miter;stroke-miterlimit:4;stroke-dasharray:none;stroke-opacity:1" />
      <path
         sodipodi:nodetypes="cc"
         style="display:inline;fill:none;stroke:#ffffff;stroke-width:0.05;stroke-linecap:butt;stroke-linejoin:miter;stroke-miterlimit:4;stroke-dasharray:none;stroke-opacity:1"
         d="M 0,25.40004 15.875,25.4"
         id="path931-4"
         inkscape:connector-curvature="0" />
      <path
         sodipodi:nodetypes="cc"
         inkscape:connector-curvature="0"
         id="path933-5"
         d="m 0,37.56925 15.875,0.002"
         style="display:inline;fill:none;stroke:#ffffff;stroke-width:0.05;stroke-linecap:butt;stroke-linejoin:miter;stroke-miterlimit:4;stroke-dasharray:none;stroke-opacity:1" />
      <path
         sodipodi:nodetypes="cc"
         inkscape:connector-curvature="0"
         id="path940"
         d="m 0,49.74009 15.875,0.002"
         style="display:inline;fill:none;stroke:#ffffff;stroke-width:0.05;stroke-linecap:butt;stroke-linejoin:miter;stroke-miterlimit:4;stroke-dasharray:none;stroke-opacity:1" />
      <path
         sodipodi:nodetypes="cc"
         style="display:inline;fill:none;stroke:#ffffff;stroke-width:0.05;stroke-linecap:butt;stroke-linejoin:miter;stroke-miterlimit:4;stroke-dasharray:none;stroke-opacity:1"
         d="m 0,61.91093 15.875,0.002"
         id="path950-7"
         inkscape:connector-curvature="0" />
      <path
         sodipodi:nodetypes="cc"
         inkscape:connector-curvature="0"
         id="path973-9"
         d="m 0,74.08177 15.875,0.002"
         style="display:inline;fill:none;stroke:#ffffff;stroke-width:0.05;stroke-linecap:butt;stroke-linejoin:miter;stroke-miterlimit:4;stroke-dasharray:none;stroke-opacity:1" />
      <path
         sodipodi:nodetypes="cc"
         style="display:inline;fill:none;stroke:#ffffff;stroke-width:0.05;stroke-linecap:butt;stroke-linejoin:miter;stroke-miterlimit:4;stroke-dasharray:none;stroke-opacity:1"
         d="m 0,86.25261 15.875,0.002"
         id="path1013"
         inkscape:connector-curvature="0" />
      <circle
         r="4.0999999"
         cy="13.227975"
         cx="7.9523039"
         id="circle958"
         style="display:inline;opacity:1;fill:none;fill-opacity:1;stroke:#ffffff;stroke-width:0.05;stroke-linecap:square;stroke-linejoin:round;stroke-miterlimit:4;stroke-dasharray:none;stroke-dashoffset:0;stroke-opacity:1;paint-order:markers fill stroke" />
      <circle
         style="display:inline;opacity:1;fill:none;fill-opacity:1;stroke:#ffffff;stroke-width:0.05;stroke-linecap:square;stroke-linejoin:round;stroke-miterlimit:4;stroke-dasharray:none;stroke-dashoffset:0;stroke-opacity:1;paint-order:markers fill stroke"
         id="circle964"
         cx="7.9523039"
         cy="25.398811"
         r="4.0999999" />
      <circle
         r="4.0999999"
         cy="37.569649"
         cx="7.9523039"
         id="circle972"
         style="display:inline;opacity:1;fill:none;fill-opacity:1;stroke:#ffffff;stroke-width:0.05;stroke-linecap:square;stroke-linejoin:round;stroke-miterlimit:4;stroke-dasharray:none;stroke-dashoffset:0;stroke-opacity:1;paint-order:markers fill stroke" />
      <circle
         style="display:inline;opacity:1;fill:none;fill-opacity:1;stroke:#ffffff;stroke-width:0.05;stroke-linecap:square;stroke-linejoin:round;stroke-miterlimit:4;stroke-dasharray:none;stroke-dashoffset:0;stroke-opacity:1;paint-order:markers fill stroke"
         id="circle980"
         cx="7.9523039"
         cy="49.740501"
         r="4.0999999" />
      <circle
         r="4.0999999"
         cy="61.911339"
         cx="7.9523039"
         id="circle988"
         style="display:inline;opacity:1;fill:none;fill-opacity:1;stroke:#ffffff;stroke-width:0.05;stroke-linecap:square;stroke-linejoin:round;stroke-miterlimit:4;stroke-dasharray:none;stroke-dashoffset:0;stroke-opacity:1;paint-order:markers fill stroke" />
      <circle
         style="display:inline;opacity:1;fill:none;fill-opacity:1;stroke:#ffffff;stroke-width:0.05;stroke-linecap:square;stroke-linejoin:round;stroke-miterlimit:4;stroke-dasharray:none;stroke-dashoffset:0;stroke-opacity:1;paint-order:markers fill stroke"
         id="circle996"
         cx="7.9523039"
         cy="74.082176"
         r="4.0999999" />
      <circle
         r="4.0999999"
         cy="86.253014"
         cx="7.9523039"
         id="circle1004"
         style="display:inline;opacity:1;fill:none;fill-opacity:1;stroke:#ffffff;stroke-width:0.05;stroke-linecap:square;stroke-linejoin:round;stroke-miterlimit:4;stroke-dasharray:none;stroke-dashoffset:0;stroke-opacity:1;paint-order:markers fill stroke" />
    </g>
    <g
       id="g1901"
       style="display:inline;stroke:#ffffff"
       transform="translate(15.875,3.333209e-6)">
      <circle
         r="5.4741378"
         cy="13.229558"
         cx="7.9360795"
         id="circle1849"
         style="display:inline;opacity:1;fill:none;fill-opacity:1;stroke:#ffffff;stroke-width:0.05172414;stroke-linecap:square;stroke-linejoin:round;stroke-miterlimit:4;stroke-dasharray:none;stroke-dashoffset:0;stroke-opacity:1;paint-order:markers fill stroke" />
      <circle
         style="display:inline;opacity:1;fill:none;fill-opacity:1;stroke:#ffffff;stroke-width:0.05172414;stroke-linecap:square;stroke-linejoin:round;stroke-miterlimit:4;stroke-dasharray:none;stroke-dashoffset:0;stroke-opacity:1;paint-order:markers fill stroke"
         id="circle1851"
         cx="7.9360795"
         cy="25.400398"
         r="5.4741378" />
      <circle
         r="5.4741378"
         cy="37.571243"
         cx="7.9360795"
         id="circle1853"
         style="display:inline;opacity:1;fill:none;fill-opacity:1;stroke:#ffffff;stroke-width:0.05172414;stroke-linecap:square;stroke-linejoin:round;stroke-miterlimit:4;stroke-dasharray:none;stroke-dashoffset:0;stroke-opacity:1;paint-order:markers fill stroke" />
      <circle
         style="display:inline;opacity:1;fill:none;fill-opacity:1;stroke:#ffffff;stroke-width:0.05172414;stroke-linecap:square;stroke-linejoin:round;stroke-miterlimit:4;stroke-dasharray:none;stroke-dashoffset:0;stroke-opacity:1;paint-order:markers fill stroke"
         id="circle1855"
         cx="7.9360795"
         cy="49.742088"
         r="5.4741378" />
      <circle
         r="5.4741378"
         cy="61.912933"
         cx="7.9360795"
         id="circle1857"
         style="display:inline;opacity:1;fill:none;fill-opacity:1;stroke:#ffffff;stroke-width:0.05172414;stroke-linecap:square;stroke-linejoin:round;stroke-miterlimit:4;stroke-dasharray:none;stroke-dashoffset:0;stroke-opacity:1;paint-order:markers fill stroke" />
      <circle
         style="display:inline;opacity:1;fill:none;fill-opacity:1;stroke:#ffffff;stroke-width:0.05172414;stroke-linecap:square;stroke-linejoin:round;stroke-miterlimit:4;stroke-dasharray:none;stroke-dashoffset:0;stroke-opacity:1;paint-order:markers fill stroke"
         id="circle1859"
         cx="7.9360795"
         cy="74.083778"
         r="5.4741378" />
      <circle
         r="5.4741378"
         cy="86.254623"
         cx="7.9360795"
         id="circle1861"
         style="display:inline;opacity:1;fill:none;fill-opacity:1;stroke:#ffffff;stroke-width:0.05172414;stroke-linecap:square;stroke-linejoin:round;stroke-miterlimit:4;stroke-dasharray:none;stroke-dashoffset:0;stroke-opacity:1;paint-order:markers fill stroke" />
      <text
         xml:space="preserve"
         style="font-style:normal;font-weight:normal;font-size:2.82222223px;line-height:1.25;font-family:sans-serif;letter-spacing:0px;word-spacing:0px;display:inline;fill:#000000;fill-opacity:1;stroke:#ffffff;stroke-width:0.26458332"
         x="17.197916"
         y="5.2916646"
         id="text1865"><tspan
           sodipodi:role="line"
           id="tspan1863"
           x="17.197916"
           y="7.7886696"
           style="stroke:#ffffff;stroke-width:0.26458332" /></text>
      <path
         sodipodi:nodetypes="cc"
         inkscape:connector-curvature="0"
         id="path1867"
         d="m 7.9375,-1e-5 -3e-6,100.54167"
         style="display:inline;fill:none;stroke:#ffffff;stroke-width:0.05;stroke-linecap:butt;stroke-linejoin:miter;stroke-miterlimit:4;stroke-dasharray:none;stroke-opacity:1" />
      <path
         style="display:inline;fill:none;stroke:#ffffff;stroke-width:0.05;stroke-linecap:butt;stroke-linejoin:miter;stroke-miterlimit:4;stroke-dasharray:none;stroke-opacity:1"
         d="m 3.968752,0 -4e-6,100.54167"
         id="path1869"
         inkscape:connector-curvature="0"
         sodipodi:nodetypes="cc" />
      <path
         sodipodi:nodetypes="cc"
         inkscape:connector-curvature="0"
         id="path1871"
         d="m 11.906253,0 -4e-6,100.54167"
         style="display:inline;fill:none;stroke:#ffffff;stroke-width:0.05;stroke-linecap:butt;stroke-linejoin:miter;stroke-miterlimit:4;stroke-dasharray:none;stroke-opacity:1" />
      <path
         style="display:inline;fill:none;stroke:#ffffff;stroke-width:0.05;stroke-linecap:butt;stroke-linejoin:miter;stroke-miterlimit:4;stroke-dasharray:none;stroke-opacity:1"
         d="m 0,13.22881 15.875,3.6e-4"
         id="path1873"
         inkscape:connector-curvature="0"
         sodipodi:nodetypes="cc" />
      <path
         inkscape:connector-curvature="0"
         id="path1875"
         d="M 0,25.40004 15.875,25.4"
         style="display:inline;fill:none;stroke:#ffffff;stroke-width:0.05;stroke-linecap:butt;stroke-linejoin:miter;stroke-miterlimit:4;stroke-dasharray:none;stroke-opacity:1"
         sodipodi:nodetypes="cc" />
      <path
         style="display:inline;fill:none;stroke:#ffffff;stroke-width:0.05;stroke-linecap:butt;stroke-linejoin:miter;stroke-miterlimit:4;stroke-dasharray:none;stroke-opacity:1"
         d="m 0,37.56925 15.875,0.002"
         id="path1877"
         inkscape:connector-curvature="0"
         sodipodi:nodetypes="cc" />
      <path
         style="display:inline;fill:none;stroke:#ffffff;stroke-width:0.05;stroke-linecap:butt;stroke-linejoin:miter;stroke-miterlimit:4;stroke-dasharray:none;stroke-opacity:1"
         d="m 0,49.74009 15.875,0.002"
         id="path1879"
         inkscape:connector-curvature="0"
         sodipodi:nodetypes="cc" />
      <path
         inkscape:connector-curvature="0"
         id="path1881"
         d="m 0,61.91093 15.875,0.002"
         style="display:inline;fill:none;stroke:#ffffff;stroke-width:0.05;stroke-linecap:butt;stroke-linejoin:miter;stroke-miterlimit:4;stroke-dasharray:none;stroke-opacity:1"
         sodipodi:nodetypes="cc" />
      <path
         style="display:inline;fill:none;stroke:#ffffff;stroke-width:0.05;stroke-linecap:butt;stroke-linejoin:miter;stroke-miterlimit:4;stroke-dasharray:none;stroke-opacity:1"
         d="m 0,74.08177 15.875,0.002"
         id="path1883"
         inkscape:connector-curvature="0"
         sodipodi:nodetypes="cc" />
      <path
         inkscape:connector-curvature="0"
         id="path1885"
         d="m 0,86.25261 15.875,0.002"
         style="display:inline;fill:none;stroke:#ffffff;stroke-width:0.05;stroke-linecap:butt;stroke-linejoin:miter;stroke-miterlimit:4;stroke-dasharray:none;stroke-opacity:1"
         sodipodi:nodetypes="cc" />
      <circle
         style="display:inline;opacity:1;fill:none;fill-opacity:1;stroke:#ffffff;stroke-width:0.05;stroke-linecap:square;stroke-linejoin:round;stroke-miterlimit:4;stroke-dasharray:none;stroke-dashoffset:0;stroke-opacity:1;paint-order:markers fill stroke"
         id="circle1887"
         cx="7.9523039"
         cy="13.227975"
         r="4.0999999" />
      <circle
         r="4.0999999"
         cy="25.398811"
         cx="7.9523039"
         id="circle1889"
         style="display:inline;opacity:1;fill:none;fill-opacity:1;stroke:#ffffff;stroke-width:0.05;stroke-linecap:square;stroke-linejoin:round;stroke-miterlimit:4;stroke-dasharray:none;stroke-dashoffset:0;stroke-opacity:1;paint-order:markers fill stroke" />
      <circle
         style="display:inline;opacity:1;fill:none;fill-opacity:1;stroke:#ffffff;stroke-width:0.05;stroke-linecap:square;stroke-linejoin:round;stroke-miterlimit:4;stroke-dasharray:none;stroke-dashoffset:0;stroke-opacity:1;paint-order:markers fill stroke"
         id="circle1891"
         cx="7.9523039"
         cy="37.569649"
         r="4.0999999" />
      <circle
         r="4.0999999"
         cy="49.740501"
         cx="7.9523039"
         id="circle1893"
         style="display:inline;opacity:1;fill:none;fill-opacity:1;stroke:#ffffff;stroke-width:0.05;stroke-linecap:square;stroke-linejoin:round;stroke-miterlimit:4;stroke-dasharray:none;stroke-dashoffset:0;stroke-opacity:1;paint-order:markers fill stroke" />
      <circle
         style="display:inline;opacity:1;fill:none;fill-opacity:1;stroke:#ffffff;stroke-width:0.05;stroke-linecap:square;stroke-linejoin:round;stroke-miterlimit:4;stroke-dasharray:none;stroke-dashoffset:0;stroke-opacity:1;paint-order:markers fill stroke"
         id="circle1895"
         cx="7.9523039"
         cy="61.911339"
         r="4.0999999" />
      <circle
         r="4.0999999"
         cy="74.082176"
         cx="7.9523039"
         id="circle1897"
         style="display:inline;opacity:1;fill:none;fill-opacity:1;stroke:#ffffff;stroke-width:0.05;stroke-linecap:square;stroke-linejoin:round;stroke-miterlimit:4;stroke-dasharray:none;stroke-dashoffset:0;stroke-opacity:1;paint-order:markers fill stroke" />
      <circle
         style="display:inline;opacity:1;fill:none;fill-opacity:1;stroke:#ffffff;stroke-width:0.05;stroke-linecap:square;stroke-linejoin:round;stroke-miterlimit:4;stroke-dasharray:none;stroke-dashoffset:0;stroke-opacity:1;paint-order:markers fill stroke"
         id="circle1899"
         cx="7.9523039"
         cy="86.253014"
         r="4.0999999" />
    </g>
  </g>
</svg>
