<?xml version="1.0" encoding="UTF-8" standalone="no"?>
<!-- Created with Inkscape (http://www.inkscape.org/) -->

<svg
   xmlns:dc="http://purl.org/dc/elements/1.1/"
   xmlns:cc="http://creativecommons.org/ns#"
   xmlns:rdf="http://www.w3.org/1999/02/22-rdf-syntax-ns#"
   xmlns:svg="http://www.w3.org/2000/svg"
   xmlns="http://www.w3.org/2000/svg"
   xmlns:sodipodi="http://sodipodi.sourceforge.net/DTD/sodipodi-0.dtd"
   xmlns:inkscape="http://www.inkscape.org/namespaces/inkscape"
   width="120"
   height="380"
   viewBox="0 0 31.750003 100.54167"
   version="1.1"
   id="svg8"
   inkscape:version="0.92.4 (5da689c313, 2019-01-14)"
   sodipodi:docname="CD4015.svg">
  <defs
     id="defs2" />
  <sodipodi:namedview
     id="base"
     pagecolor="#ffffff"
     bordercolor="#666666"
     borderopacity="1.0"
     inkscape:pageopacity="0.0"
     inkscape:pageshadow="2"
     inkscape:zoom="2.2789474"
     inkscape:cx="60"
     inkscape:cy="190"
     inkscape:document-units="mm"
     inkscape:current-layer="layer1"
     showgrid="true"
     units="px"
     inkscape:snap-bbox="true"
     inkscape:snap-page="true"
     inkscape:bbox-nodes="true"
     inkscape:snap-bbox-edge-midpoints="true"
     inkscape:window-width="1920"
     inkscape:window-height="1017"
     inkscape:window-x="-8"
     inkscape:window-y="-8"
     inkscape:window-maximized="1">
    <inkscape:grid
       type="xygrid"
       id="grid116" />
  </sodipodi:namedview>
  <metadata
     id="metadata5">
    <rdf:RDF>
      <cc:Work
         rdf:about="">
        <dc:format>image/svg+xml</dc:format>
        <dc:type
           rdf:resource="http://purl.org/dc/dcmitype/StillImage" />
        <dc:title />
      </cc:Work>
    </rdf:RDF>
  </metadata>
  <g
     inkscape:groupmode="layer"
     id="layer3"
     inkscape:label="Panel"
     sodipodi:insensitive="true">
    <path
       sodipodi:type="inkscape:offset"
       inkscape:radius="0"
       inkscape:original="M 0 196.45898 L 0 297 L 15.875 297 L 15.875 196.45898 L 0 196.45898 z "
       style="fill:#672200;fill-opacity:1;stroke-width:0.3310422"
       id="rect3855"
       d="M 0,196.45898 V 297 H 15.875 V 196.45898 Z"
       transform="matrix(2,0,0,1.0000064,0,-196.46023)" />
  </g>
  <g
     inkscape:label="Layer 1"
     inkscape:groupmode="layer"
     id="layer1"
     transform="translate(0,-196.45832)"
     style="display:inline">
    <text
       xml:space="preserve"
       style="font-style:normal;font-weight:normal;font-size:2.82222223px;line-height:1.25;font-family:sans-serif;letter-spacing:0px;word-spacing:0px;fill:#000000;fill-opacity:1;stroke:none;stroke-width:0.26458332"
       x="17.197916"
       y="201.74998"
       id="text3821"><tspan
         sodipodi:role="line"
         id="tspan3819"
         x="17.197916"
         y="204.24699"
         style="stroke-width:0.26458332" /></text>
    <g
       id="g4342">
      <g
         transform="translate(-9.481569,1.7166648)"
         id="text956"
         style="font-style:normal;font-variant:normal;font-weight:normal;font-stretch:normal;font-size:2.82222223px;line-height:1.25;font-family:'Copperplate Gothic Light';-inkscape-font-specification:'Copperplate Gothic Light, ';letter-spacing:0px;word-spacing:0px;fill:#ffffff;fill-opacity:1;stroke:#ffffff;stroke-width:0.2;stroke-miterlimit:4;stroke-dasharray:none;stroke-opacity:1"
         aria-label="/^M^\">
        <path
           inkscape:connector-curvature="0"
           id="path958"
           style="font-style:normal;font-variant:normal;font-weight:normal;font-stretch:normal;font-size:2.82222223px;line-height:1.25;font-family:'Copperplate Gothic Light';-inkscape-font-specification:'Copperplate Gothic Light, ';fill:#ffffff;stroke:#ffffff;stroke-width:0.2;stroke-miterlimit:4;stroke-dasharray:none;stroke-opacity:1"
           d="m 21.203855,291.40545 v 0.0386 h -0.434082 v -0.0386 q 0.09509,-0.006 0.224621,-0.17088 l 1.094162,-1.4621 q 0.07441,-0.1006 0.07441,-0.12402 0,-0.0372 -0.06615,-0.0482 v -0.0372 h 0.423058 v 0.0372 q -0.09508,0.006 -0.22462,0.17087 l -1.08176,1.46348 q -0.07579,0.10197 -0.07579,0.12402 0,0.0358 0.06615,0.0469 z" />
        <path
           inkscape:connector-curvature="0"
           id="path960"
           style="font-style:normal;font-variant:normal;font-weight:normal;font-stretch:normal;font-size:2.82222223px;line-height:1.25;font-family:'Copperplate Gothic Light';-inkscape-font-specification:'Copperplate Gothic Light, ';fill:#ffffff;stroke:#ffffff;stroke-width:0.2;stroke-miterlimit:4;stroke-dasharray:none;stroke-opacity:1"
           d="M 22.940183,290.3857 H 22.73899 l 0.493338,-0.8282 h 0.243912 l 0.493338,0.8282 h -0.20395 l -0.413411,-0.68075 z" />
        <path
           inkscape:connector-curvature="0"
           id="path962"
           style="font-style:normal;font-variant:normal;font-weight:normal;font-stretch:normal;font-size:2.82222223px;line-height:1.25;font-family:'Copperplate Gothic Light';-inkscape-font-specification:'Copperplate Gothic Light, ';fill:#ffffff;stroke:#ffffff;stroke-width:0.2;stroke-miterlimit:4;stroke-dasharray:none;stroke-opacity:1"
           d="m 25.342104,291.44403 -0.789616,-1.58061 v 1.418 q 0,0.0565 0.01791,0.0813 0.01791,0.0234 0.07028,0.0372 v 0.0441 h -0.373449 v -0.0441 q 0.05237,-0.0138 0.07028,-0.0372 0.01792,-0.0234 0.01792,-0.0813 v -1.5558 q 0,-0.0579 -0.01792,-0.0813 -0.01791,-0.0248 -0.07028,-0.0372 v -0.0441 h 0.487826 v 0.0441 q -0.06752,0.0234 -0.06752,0.0579 0,0.0165 0.04547,0.10611 l 0.62563,1.24161 0.628385,-1.25263 q 0.03307,-0.0661 0.03307,-0.0937 0,-0.0358 -0.06752,-0.0593 v -0.0441 h 0.49196 v 0.0441 q -0.05237,0.0138 -0.07028,0.0372 -0.01792,0.0234 -0.01792,0.0813 v 1.5558 q 0,0.0565 0.01792,0.0813 0.01791,0.0234 0.07028,0.0372 v 0.0441 h -0.392741 v -0.0441 q 0.05374,-0.0138 0.07028,-0.0372 0.01791,-0.0234 0.01791,-0.0813 v -1.418 z" />
        <path
           inkscape:connector-curvature="0"
           id="path964"
           style="font-style:normal;font-variant:normal;font-weight:normal;font-stretch:normal;font-size:2.82222223px;line-height:1.25;font-family:'Copperplate Gothic Light';-inkscape-font-specification:'Copperplate Gothic Light, ';fill:#ffffff;stroke:#ffffff;stroke-width:0.2;stroke-miterlimit:4;stroke-dasharray:none;stroke-opacity:1"
           d="m 26.942006,290.3857 h -0.201193 l 0.493338,-0.8282 h 0.243912 l 0.493338,0.8282 h -0.20395 l -0.413411,-0.68075 z" />
        <path
           inkscape:connector-curvature="0"
           id="path966"
           style="font-style:normal;font-variant:normal;font-weight:normal;font-stretch:normal;font-size:2.82222223px;line-height:1.25;font-family:'Copperplate Gothic Light';-inkscape-font-specification:'Copperplate Gothic Light, ';fill:#ffffff;stroke:#ffffff;stroke-width:0.2;stroke-miterlimit:4;stroke-dasharray:none;stroke-opacity:1"
           d="m 28.617701,289.56301 v 0.0372 q -0.06615,0.011 -0.06615,0.0482 0,0.0234 0.07441,0.12402 l 1.092784,1.4621 q 0.129536,0.16536 0.22462,0.17088 v 0.0386 h -0.434082 v -0.0386 q 0.06615,-0.011 0.06615,-0.0469 0,-0.0207 -0.07579,-0.12402 l -1.080382,-1.46348 q -0.129535,-0.16536 -0.22462,-0.17087 v -0.0372 z" />
      </g>
      <g
         id="text924"
         style="font-style:normal;font-variant:normal;font-weight:normal;font-stretch:normal;font-size:2.97226882px;line-height:1.25;font-family:'Yu Gothic UI';-inkscape-font-specification:'Yu Gothic UI';letter-spacing:0px;word-spacing:0px;fill:#ffffff;fill-opacity:1;stroke:none;stroke-width:0.24768905"
         aria-label="LUNETTA">
        <path
           id="path892"
           style="font-size:2.97226882px;fill:#ffffff;stroke-width:0.24768905"
           d="M 11.061028,295.90683 H 9.9812581 v -2.08117 h 0.2438189 v 1.86057 h 0.835951 z"
           inkscape:connector-curvature="0" />
        <path
           id="path894"
           style="font-size:2.97226882px;fill:#ffffff;stroke-width:0.24768905"
           d="m 12.902731,295.06507 q 0,0.87659 -0.79096,0.87659 -0.75758,0 -0.75758,-0.84321 v -1.27279 h 0.243819 v 1.25683 q 0,0.64002 0.539885,0.64002 0.521017,0 0.521017,-0.61825 v -1.2786 h 0.243819 z"
           inkscape:connector-curvature="0" />
        <path
           id="path896"
           style="font-size:2.97226882px;fill:#ffffff;stroke-width:0.24768905"
           d="m 15.101456,295.90683 h -0.298969 l -1.071062,-1.65884 q -0.04064,-0.0624 -0.06676,-0.13062 h -0.0087 q 0.01161,0.0668 0.01161,0.28591 v 1.50355 h -0.243819 v -2.08117 h 0.316384 l 1.042036,1.63272 q 0.06531,0.10159 0.08418,0.13932 h 0.0058 q -0.01451,-0.09 -0.01451,-0.30622 v -1.46582 h 0.243819 z"
           inkscape:connector-curvature="0" />
        <path
           id="path898"
           style="font-size:2.97226882px;fill:#ffffff;stroke-width:0.24768905"
           d="m 16.750136,295.90683 h -1.102991 v -2.08117 h 1.056549 v 0.2206 h -0.81273 v 0.69227 h 0.751775 v 0.21915 h -0.751775 v 0.72855 h 0.859172 z"
           inkscape:connector-curvature="0" />
        <path
           id="path900"
           style="font-size:2.97226882px;fill:#ffffff;stroke-width:0.24768905"
           d="m 18.381401,294.04626 h -0.60084 v 1.86057 h -0.243819 v -1.86057 h -0.599388 v -0.2206 h 1.444047 z"
           inkscape:connector-curvature="0" />
        <path
           id="path902"
           style="font-size:2.97226882px;fill:#ffffff;stroke-width:0.24768905"
           d="m 19.937197,294.04626 h -0.600839 v 1.86057 h -0.243819 v -1.86057 h -0.599388 v -0.2206 h 1.444046 z"
           inkscape:connector-curvature="0" />
        <path
           id="path904"
           style="font-size:2.97226882px;fill:#ffffff;stroke-width:0.24768905"
           d="M 21.768742,295.90683 H 21.4988 l -0.220598,-0.58342 h -0.882393 l -0.207536,0.58342 h -0.271394 l 0.798217,-2.08117 h 0.252527 z m -0.570362,-0.80257 -0.326543,-0.88675 q -0.01596,-0.0435 -0.03193,-0.13932 h -0.0058 q -0.01451,0.0885 -0.03338,0.13932 l -0.323641,0.88675 z"
           inkscape:connector-curvature="0" />
      </g>
    </g>
    <text
       xml:space="preserve"
       style="font-style:normal;font-variant:normal;font-weight:normal;font-stretch:normal;font-size:2.82222223px;line-height:1.25;font-family:'Yu Gothic UI';-inkscape-font-specification:'Yu Gothic UI';letter-spacing:0px;word-spacing:0px;fill:#000000;fill-opacity:1;stroke:none;stroke-width:0.26458332"
       x="5.2916665"
       y="283.77081"
       id="text1036"><tspan
         sodipodi:role="line"
         id="tspan1034"
         x="5.2916665"
         y="286.31293"
         style="stroke-width:0.26458332" /></text>
    <g
       aria-label="CD4015"
       style="font-style:normal;font-variant:normal;font-weight:600;font-stretch:normal;font-size:3.52777767px;line-height:1.25;font-family:'Yu Gothic UI';-inkscape-font-specification:'Yu Gothic UI Semi-Bold';letter-spacing:0px;word-spacing:0px;fill:#ffffff;fill-opacity:1;stroke:none;stroke-width:0.26458332"
       id="text975"
       transform="translate(1.9361432,-12.29302)">
      <path
         d="m 9.9649386,212.22996 q -0.2790527,0.14469 -0.6941867,0.14469 -0.5374349,0 -0.8612738,-0.33934 -0.323839,-0.33934 -0.323839,-0.89055 0,-0.59256 0.3634576,-0.95774 0.3651801,-0.36518 0.921563,-0.36518 0.3582899,0 0.5942789,0.10163 v 0.40652 q -0.2497694,-0.14814 -0.5512152,-0.14814 -0.4013536,0 -0.6511231,0.25666 -0.2480468,0.25666 -0.2480468,0.68557 0,0.40825 0.2325439,0.65113 0.232544,0.24115 0.6115044,0.24115 0.3496772,0 0.6063368,-0.16536 z"
         style="font-style:normal;font-variant:normal;font-weight:600;font-stretch:normal;font-size:3.52777767px;font-family:'Yu Gothic UI';-inkscape-font-specification:'Yu Gothic UI Semi-Bold';fill:#ffffff;stroke-width:0.26458332"
         id="path977"
         inkscape:connector-curvature="0" />
      <path
         d="m 10.433472,212.33331 v -2.47013 h 0.713134 q 1.365981,0 1.365981,1.20406 0,0.57189 -0.378961,0.91984 -0.37896,0.34623 -1.016303,0.34623 z m 0.408243,-2.12218 v 1.77595 h 0.327284 q 0.43236,0 0.671794,-0.23771 0.241157,-0.23771 0.241157,-0.67179 0,-0.86645 -0.897448,-0.86645 z"
         style="font-style:normal;font-variant:normal;font-weight:600;font-stretch:normal;font-size:3.52777767px;font-family:'Yu Gothic UI';-inkscape-font-specification:'Yu Gothic UI Semi-Bold';fill:#ffffff;stroke-width:0.26458332"
         id="path979"
         inkscape:connector-curvature="0" />
      <path
         d="m 14.25236,209.86318 v 1.59508 h 0.366903 v 0.33245 H 14.25236 v 0.5426 h -0.387573 v -0.5426 h -1.117934 v -0.3359 q 0.151585,-0.17053 0.310059,-0.36862 0.160197,-0.19982 0.306613,-0.40652 0.14814,-0.20843 0.273886,-0.41686 0.125746,-0.20843 0.211873,-0.39963 z m -0.387573,1.59508 v -1.03697 q -0.187758,0.33761 -0.37207,0.58911 -0.182591,0.25149 -0.342787,0.44786 z"
         style="font-style:normal;font-variant:normal;font-weight:600;font-stretch:normal;font-size:3.52777767px;font-family:'Yu Gothic UI';-inkscape-font-specification:'Yu Gothic UI Semi-Bold';fill:#ffffff;stroke-width:0.26458332"
         id="path981"
         inkscape:connector-curvature="0" />
      <path
         d="m 15.642456,212.37465 q -0.385851,0 -0.602892,-0.31522 -0.215318,-0.31523 -0.215318,-0.91123 0,-0.65457 0.225654,-0.99046 0.225653,-0.3359 0.651123,-0.3359 0.814765,0 0.814765,1.26607 0,0.62701 -0.230822,0.95774 -0.229099,0.329 -0.64251,0.329 z m 0.03962,-2.23414 q -0.449585,0 -0.449585,0.99046 0,0.92674 0.440972,0.92674 0.434082,0 0.434082,-0.94224 0,-0.97496 -0.425469,-0.97496 z"
         style="font-style:normal;font-variant:normal;font-weight:600;font-stretch:normal;font-size:3.52777767px;font-family:'Yu Gothic UI';-inkscape-font-specification:'Yu Gothic UI Semi-Bold';fill:#ffffff;stroke-width:0.26458332"
         id="path983"
         inkscape:connector-curvature="0" />
      <path
         d="m 17.706068,209.80806 v 2.52525 h -0.399631 v -2.03605 q -0.108521,0.0775 -0.234267,0.13264 -0.124023,0.0534 -0.28422,0.0947 v -0.34107 q 0.09991,-0.0327 0.192925,-0.0689 0.09302,-0.0362 0.18259,-0.081 0.0913,-0.0448 0.18259,-0.0999 0.09302,-0.0551 0.191203,-0.12574 z"
         style="font-style:normal;font-variant:normal;font-weight:600;font-stretch:normal;font-size:3.52777767px;font-family:'Yu Gothic UI';-inkscape-font-specification:'Yu Gothic UI Semi-Bold';fill:#ffffff;stroke-width:0.26458332"
         id="path985"
         inkscape:connector-curvature="0" />
      <path
         d="m 18.333075,212.27647 v -0.38413 q 0.242879,0.16364 0.492649,0.16364 0.251492,0 0.404798,-0.12747 0.153307,-0.12919 0.153307,-0.34278 0,-0.21015 -0.156752,-0.32729 -0.155029,-0.11713 -0.44614,-0.11713 -0.09991,0 -0.404798,0.0207 l 0.08785,-1.2988 h 1.216118 v 0.34106 H 18.79644 l -0.04134,0.6184 q 0.118856,-0.007 0.215319,-0.007 0.392741,0 0.606336,0.20154 0.215319,0.20153 0.215319,0.55121 0,0.3669 -0.246324,0.58911 -0.244602,0.22049 -0.673517,0.22049 -0.361735,0 -0.539157,-0.10163 z"
         style="font-style:normal;font-variant:normal;font-weight:600;font-stretch:normal;font-size:3.52777767px;font-family:'Yu Gothic UI';-inkscape-font-specification:'Yu Gothic UI Semi-Bold';fill:#ffffff;stroke-width:0.26458332"
         id="path987"
         inkscape:connector-curvature="0" />
    </g>
    <g
       aria-label="DUAL 4-STAGE STATIC SHIFT REGISTER"
       style="font-style:normal;font-variant:normal;font-weight:normal;font-stretch:normal;font-size:2.11666656px;line-height:1.25;font-family:'Yu Gothic UI';-inkscape-font-specification:'Yu Gothic UI';letter-spacing:0px;word-spacing:0px;fill:#ffffff;fill-opacity:1;stroke:none;stroke-width:0.26458332"
       id="text992"
       transform="matrix(0.84452099,0,0,1,-1.7370968,-8.72454)">
      <path
         d="m 2.8401366,211.01041 v -1.48208 H 3.249414 q 0.7834146,0 0.7834146,0.72243 0,0.34313 -0.2180745,0.55191 -0.217041,0.20774 -0.5818766,0.20774 z m 0.1736328,-1.32499 v 1.16789 h 0.2211752 q 0.291455,0 0.453719,-0.15606 0.162264,-0.15607 0.162264,-0.44235 0,-0.56948 -0.6056478,-0.56948 z"
         style="font-size:2.11666656px;fill:#ffffff;stroke-width:0.26458332"
         id="path994"
         inkscape:connector-curvature="0" />
      <path
         d="m 5.4084552,210.41096 q 0,0.62425 -0.5632731,0.62425 -0.5395019,0 -0.5395019,-0.60048 v -0.9064 H 4.479313 v 0.89503 q 0,0.45579 0.3844726,0.45579 0.3710368,0 0.3710368,-0.44028 v -0.91054 h 0.1736328 z"
         style="font-size:2.11666656px;fill:#ffffff;stroke-width:0.26458332"
         id="path996"
         inkscape:connector-curvature="0" />
      <path
         d="M 6.9267087,211.01041 H 6.7344724 L 6.5773761,210.59493 H 5.9489907 l -0.1477946,0.41548 H 5.6079263 L 6.176367,209.52833 H 6.356201 Z M 6.520532,210.43887 6.2879881,209.80738 q -0.011369,-0.031 -0.022738,-0.0992 h -0.00413 q -0.010335,0.0631 -0.023771,0.0992 l -0.2304769,0.63149 z"
         style="font-size:2.11666656px;fill:#ffffff;stroke-width:0.26458332"
         id="path998"
         inkscape:connector-curvature="0" />
      <path
         d="M 7.9126951,211.01041 H 7.1437498 v -1.48208 h 0.1736328 v 1.32498 h 0.5953125 z"
         style="font-size:2.11666656px;fill:#ffffff;stroke-width:0.26458332"
         id="path1000"
         inkscape:connector-curvature="0" />
      <path
         d="m 9.4030433,209.52833 v 0.97875 h 0.1901693 v 0.15503 H 9.4030433 v 0.3483 H 9.2356117 v -0.3483 H 8.5390134 v -0.14676 q 0.097152,-0.10956 0.1963704,-0.23358 0.099219,-0.12506 0.1891358,-0.25322 0.09095,-0.12815 0.1674316,-0.25528 0.077515,-0.12815 0.1302246,-0.24494 z m -0.6728271,0.97875 h 0.5053955 v -0.72554 q -0.077515,0.13539 -0.1467611,0.24185 -0.069246,0.10645 -0.1322916,0.19327 -0.062012,0.0868 -0.1188558,0.15709 -0.056844,0.0703 -0.107487,0.13333 z"
         style="font-size:2.11666656px;fill:#ffffff;stroke-width:0.26458332"
         id="path1002"
         inkscape:connector-curvature="0" />
      <path
         d="M 10.378694,210.48744 H 9.8143876 v -0.13332 h 0.5643064 z"
         style="font-size:2.11666656px;fill:#ffffff;stroke-width:0.26458332"
         id="path1004"
         inkscape:connector-curvature="0" />
      <path
         d="m 10.63811,210.95046 v -0.20464 q 0.03514,0.031 0.08372,0.0558 0.04961,0.0248 0.103353,0.0424 0.05478,0.0165 0.109554,0.0258 0.05478,0.009 0.101286,0.009 0.160197,0 0.238745,-0.0589 0.07958,-0.06 0.07958,-0.17157 0,-0.0599 -0.02687,-0.10438 -0.02584,-0.0444 -0.07235,-0.0806 -0.04651,-0.0372 -0.110587,-0.0703 -0.06305,-0.0341 -0.136426,-0.0713 -0.07752,-0.0393 -0.144694,-0.0796 -0.06718,-0.0403 -0.116789,-0.0889 -0.04961,-0.0486 -0.07855,-0.10955 -0.02791,-0.062 -0.02791,-0.1447 0,-0.10128 0.04444,-0.1757 0.04444,-0.0754 0.116789,-0.12402 0.07235,-0.0486 0.164331,-0.0724 0.09302,-0.0238 0.189136,-0.0238 0.219108,0 0.31936,0.0527 v 0.19534 q -0.131258,-0.0909 -0.33693,-0.0909 -0.05684,0 -0.113688,0.0124 -0.05684,0.0114 -0.101286,0.0382 -0.04444,0.0269 -0.07235,0.0692 -0.02791,0.0424 -0.02791,0.10335 0,0.0568 0.02067,0.0982 0.0217,0.0413 0.06305,0.0754 0.04134,0.0341 0.100252,0.0661 0.05994,0.032 0.137459,0.0703 0.07958,0.0393 0.150895,0.0827 0.07131,0.0434 0.125057,0.0961 0.05374,0.0527 0.08475,0.11679 0.03204,0.0641 0.03204,0.14676 0,0.10955 -0.04341,0.18603 -0.04238,0.0754 -0.115755,0.12299 -0.07235,0.0476 -0.167432,0.0682 -0.09508,0.0217 -0.200505,0.0217 -0.03514,0 -0.08682,-0.006 -0.05168,-0.005 -0.10542,-0.0165 -0.05374,-0.0103 -0.102319,-0.0258 -0.04754,-0.0165 -0.07648,-0.0362 z"
         style="font-size:2.11666656px;fill:#ffffff;stroke-width:0.26458332"
         id="path1006"
         inkscape:connector-curvature="0" />
      <path
         d="m 12.687597,209.68542 h -0.427881 v 1.32499 h -0.173632 v -1.32499 h -0.426848 v -0.15709 h 1.028361 z"
         style="font-size:2.11666656px;fill:#ffffff;stroke-width:0.26458332"
         id="path1008"
         inkscape:connector-curvature="0" />
      <path
         d="m 13.99191,211.01041 h -0.192236 l -0.157097,-0.41548 h -0.628385 l -0.147795,0.41548 h -0.193269 l 0.56844,-1.48208 h 0.179834 z m -0.406177,-0.57154 -0.232544,-0.63149 q -0.01137,-0.031 -0.02274,-0.0992 h -0.0041 q -0.01034,0.0631 -0.02377,0.0992 l -0.230476,0.63149 z"
         style="font-size:2.11666656px;fill:#ffffff;stroke-width:0.26458332"
         id="path1010"
         inkscape:connector-curvature="0" />
      <path
         d="m 15.283821,210.90912 q -0.223242,0.12609 -0.496093,0.12609 -0.317294,0 -0.513664,-0.20464 -0.195337,-0.20464 -0.195337,-0.54157 0,-0.34416 0.217041,-0.5643 0.218074,-0.22118 0.551904,-0.22118 0.241846,0 0.406177,0.0785 v 0.19224 q -0.179834,-0.11369 -0.425814,-0.11369 -0.24908,0 -0.408244,0.17156 -0.159163,0.17157 -0.159163,0.44442 0,0.28112 0.147795,0.44235 0.147794,0.1602 0.401009,0.1602 0.173632,0 0.300756,-0.0693 v -0.41548 H 14.78566 v -0.15709 h 0.498161 z"
         style="font-size:2.11666656px;fill:#ffffff;stroke-width:0.26458332"
         id="path1012"
         inkscape:connector-curvature="0" />
      <path
         d="m 16.412434,211.01041 h -0.785482 v -1.48208 h 0.752409 v 0.15709 h -0.578776 v 0.493 h 0.535368 v 0.15606 h -0.535368 v 0.51883 h 0.611849 z"
         style="font-size:2.11666656px;fill:#ffffff;stroke-width:0.26458332"
         id="path1014"
         inkscape:connector-curvature="0" />
      <path
         d="m 17.207217,210.95046 v -0.20464 q 0.03514,0.031 0.08372,0.0558 0.04961,0.0248 0.103353,0.0424 0.05478,0.0165 0.109554,0.0258 0.05478,0.009 0.101286,0.009 0.160197,0 0.238745,-0.0589 0.07958,-0.06 0.07958,-0.17157 0,-0.0599 -0.02687,-0.10438 -0.02584,-0.0444 -0.07235,-0.0806 -0.04651,-0.0372 -0.110588,-0.0703 -0.06304,-0.0341 -0.136426,-0.0713 -0.07751,-0.0393 -0.144694,-0.0796 -0.06718,-0.0403 -0.116788,-0.0889 -0.04961,-0.0486 -0.07855,-0.10955 -0.02791,-0.062 -0.02791,-0.1447 0,-0.10128 0.04444,-0.1757 0.04444,-0.0754 0.116789,-0.12402 0.07235,-0.0486 0.164331,-0.0724 0.09302,-0.0238 0.189135,-0.0238 0.219109,0 0.319361,0.0527 v 0.19534 q -0.131258,-0.0909 -0.33693,-0.0909 -0.05684,0 -0.113689,0.0124 -0.05684,0.0114 -0.101285,0.0382 -0.04444,0.0269 -0.07235,0.0692 -0.02791,0.0424 -0.02791,0.10335 0,0.0568 0.02067,0.0982 0.0217,0.0413 0.06304,0.0754 0.04134,0.0341 0.100252,0.0661 0.05994,0.032 0.13746,0.0703 0.07958,0.0393 0.150895,0.0827 0.07131,0.0434 0.125057,0.0961 0.05374,0.0527 0.08475,0.11679 0.03204,0.0641 0.03204,0.14676 0,0.10955 -0.04341,0.18603 -0.04237,0.0754 -0.115755,0.12299 -0.07235,0.0476 -0.167431,0.0682 -0.09509,0.0217 -0.200505,0.0217 -0.03514,0 -0.08682,-0.006 -0.05168,-0.005 -0.10542,-0.0165 -0.05374,-0.0103 -0.10232,-0.0258 -0.04754,-0.0165 -0.07648,-0.0362 z"
         style="font-size:2.11666656px;fill:#ffffff;stroke-width:0.26458332"
         id="path1016"
         inkscape:connector-curvature="0" />
      <path
         d="m 19.256704,209.68542 h -0.427881 v 1.32499 h -0.173632 v -1.32499 h -0.426848 v -0.15709 h 1.028361 z"
         style="font-size:2.11666656px;fill:#ffffff;stroke-width:0.26458332"
         id="path1018"
         inkscape:connector-curvature="0" />
      <path
         d="m 20.561017,211.01041 h -0.192236 l -0.157097,-0.41548 h -0.628385 l -0.147795,0.41548 h -0.193269 l 0.56844,-1.48208 h 0.179834 z m -0.406177,-0.57154 -0.232544,-0.63149 q -0.01137,-0.031 -0.02274,-0.0992 h -0.0041 q -0.01034,0.0631 -0.02377,0.0992 l -0.230477,0.63149 z"
         style="font-size:2.11666656px;fill:#ffffff;stroke-width:0.26458332"
         id="path1020"
         inkscape:connector-curvature="0" />
      <path
         d="m 21.580077,209.68542 h -0.427881 v 1.32499 h -0.173633 v -1.32499 h -0.426847 v -0.15709 h 1.028361 z"
         style="font-size:2.11666656px;fill:#ffffff;stroke-width:0.26458332"
         id="path1022"
         inkscape:connector-curvature="0" />
      <path
         d="m 21.98522,211.01041 h -0.173633 v -1.48208 h 0.173633 z"
         style="font-size:2.11666656px;fill:#ffffff;stroke-width:0.26458332"
         id="path1024"
         inkscape:connector-curvature="0" />
      <path
         d="m 23.38255,210.94839 q -0.164331,0.0868 -0.409277,0.0868 -0.31626,0 -0.506429,-0.2036 -0.19017,-0.20361 -0.19017,-0.53434 0,-0.35553 0.213941,-0.57464 0.21394,-0.21911 0.542602,-0.21911 0.21084,0 0.349333,0.061 v 0.185 q -0.159163,-0.0889 -0.3514,-0.0889 -0.255281,0 -0.414445,0.17053 -0.15813,0.17053 -0.15813,0.45579 0,0.27078 0.147795,0.43201 0.148828,0.1602 0.38964,0.1602 0.223243,0 0.38654,-0.0992 z"
         style="font-size:2.11666656px;fill:#ffffff;stroke-width:0.26458332"
         id="path1026"
         inkscape:connector-curvature="0" />
      <path
         d="m 24.193871,210.95046 v -0.20464 q 0.03514,0.031 0.08372,0.0558 0.04961,0.0248 0.103353,0.0424 0.05478,0.0165 0.109554,0.0258 0.05478,0.009 0.101286,0.009 0.160197,0 0.238745,-0.0589 0.07958,-0.06 0.07958,-0.17157 0,-0.0599 -0.02687,-0.10438 -0.02584,-0.0444 -0.07235,-0.0806 -0.04651,-0.0372 -0.110588,-0.0703 -0.06304,-0.0341 -0.136425,-0.0713 -0.07751,-0.0393 -0.144694,-0.0796 -0.06718,-0.0403 -0.116789,-0.0889 -0.04961,-0.0486 -0.07855,-0.10955 -0.02791,-0.062 -0.02791,-0.1447 0,-0.10128 0.04444,-0.1757 0.04444,-0.0754 0.116789,-0.12402 0.07235,-0.0486 0.164331,-0.0724 0.09302,-0.0238 0.189136,-0.0238 0.219108,0 0.31936,0.0527 v 0.19534 q -0.131258,-0.0909 -0.33693,-0.0909 -0.05684,0 -0.113688,0.0124 -0.05684,0.0114 -0.101286,0.0382 -0.04444,0.0269 -0.07235,0.0692 -0.02791,0.0424 -0.02791,0.10335 0,0.0568 0.02067,0.0982 0.0217,0.0413 0.06304,0.0754 0.04134,0.0341 0.100253,0.0661 0.05994,0.032 0.137459,0.0703 0.07958,0.0393 0.150895,0.0827 0.07131,0.0434 0.125057,0.0961 0.05374,0.0527 0.08475,0.11679 0.03204,0.0641 0.03204,0.14676 0,0.10955 -0.04341,0.18603 -0.04237,0.0754 -0.115756,0.12299 -0.07235,0.0476 -0.167431,0.0682 -0.09508,0.0217 -0.200505,0.0217 -0.03514,0 -0.08682,-0.006 -0.05168,-0.005 -0.10542,-0.0165 -0.05374,-0.0103 -0.102319,-0.0258 -0.04754,-0.0165 -0.07648,-0.0362 z"
         style="font-size:2.11666656px;fill:#ffffff;stroke-width:0.26458332"
         id="path1028"
         inkscape:connector-curvature="0" />
      <path
         d="m 26.501739,211.01041 h -0.173633 v -0.67593 h -0.766878 v 0.67593 h -0.173633 v -1.48208 h 0.173633 v 0.65009 h 0.766878 v -0.65009 h 0.173633 z"
         style="font-size:2.11666656px;fill:#ffffff;stroke-width:0.26458332"
         id="path1030"
         inkscape:connector-curvature="0" />
      <path
         d="m 27.066046,211.01041 h -0.173633 v -1.48208 h 0.173633 z"
         style="font-size:2.11666656px;fill:#ffffff;stroke-width:0.26458332"
         id="path1032"
         inkscape:connector-curvature="0" />
      <path
         d="m 28.207063,209.68542 h -0.578776 v 0.51263 h 0.535367 v 0.15607 h -0.535367 v 0.65629 h -0.173633 v -1.48208 h 0.752409 z"
         style="font-size:2.11666656px;fill:#ffffff;stroke-width:0.26458332"
         id="path1034"
         inkscape:connector-curvature="0" />
      <path
         d="m 29.364613,209.68542 h -0.42788 v 1.32499 H 28.7631 v -1.32499 h -0.426847 v -0.15709 h 1.02836 z"
         style="font-size:2.11666656px;fill:#ffffff;stroke-width:0.26458332"
         id="path1036"
         inkscape:connector-curvature="0" />
      <path
         d="m 31.237369,211.01041 h -0.206706 l -0.248047,-0.41548 q -0.03411,-0.0579 -0.06615,-0.0982 -0.03204,-0.0413 -0.06615,-0.0672 -0.03307,-0.0258 -0.07235,-0.0372 -0.03824,-0.0124 -0.08682,-0.0124 h -0.142627 v 0.63046 h -0.173633 v -1.48208 h 0.44235 q 0.09715,0 0.178801,0.0248 0.08268,0.0238 0.142627,0.0734 0.06098,0.0496 0.09508,0.12403 0.03411,0.0734 0.03411,0.17259 0,0.0775 -0.02377,0.14263 -0.02274,0.0641 -0.06615,0.11472 -0.04237,0.0507 -0.103353,0.0868 -0.05995,0.0351 -0.135392,0.0548 v 0.004 q 0.03721,0.0165 0.06408,0.0382 0.02791,0.0207 0.05271,0.0496 0.02481,0.0289 0.04858,0.0661 0.0248,0.0362 0.05478,0.0848 z m -0.888835,-1.32499 v 0.53744 h 0.235644 q 0.06511,0 0.11989,-0.0196 0.05581,-0.0196 0.09612,-0.0558 0.04031,-0.0372 0.06304,-0.0899 0.02274,-0.0537 0.02274,-0.11989 0,-0.11885 -0.07751,-0.185 -0.07648,-0.0672 -0.222209,-0.0672 z"
         style="font-size:2.11666656px;fill:#ffffff;stroke-width:0.26458332"
         id="path1038"
         inkscape:connector-curvature="0" />
      <path
         d="m 32.22542,211.01041 h -0.785481 v -1.48208 h 0.752408 v 0.15709 h -0.578776 v 0.493 h 0.535368 v 0.15606 h -0.535368 v 0.51883 h 0.611849 z"
         style="font-size:2.11666656px;fill:#ffffff;stroke-width:0.26458332"
         id="path1040"
         inkscape:connector-curvature="0" />
      <path
         d="m 33.618617,210.90912 q -0.223242,0.12609 -0.496093,0.12609 -0.317294,0 -0.513664,-0.20464 -0.195337,-0.20464 -0.195337,-0.54157 0,-0.34416 0.217041,-0.5643 0.218074,-0.22118 0.551904,-0.22118 0.241846,0 0.406177,0.0785 v 0.19224 q -0.179834,-0.11369 -0.425814,-0.11369 -0.24908,0 -0.408244,0.17156 -0.159163,0.17157 -0.159163,0.44442 0,0.28112 0.147795,0.44235 0.147794,0.1602 0.401009,0.1602 0.173632,0 0.300756,-0.0693 v -0.41548 h -0.324528 v -0.15709 h 0.498161 z"
         style="font-size:2.11666656px;fill:#ffffff;stroke-width:0.26458332"
         id="path1042"
         inkscape:connector-curvature="0" />
      <path
         d="m 34.135382,211.01041 h -0.173633 v -1.48208 h 0.173633 z"
         style="font-size:2.11666656px;fill:#ffffff;stroke-width:0.26458332"
         id="path1044"
         inkscape:connector-curvature="0" />
      <path
         d="m 34.454741,210.95046 v -0.20464 q 0.03514,0.031 0.08372,0.0558 0.04961,0.0248 0.103353,0.0424 0.05478,0.0165 0.109554,0.0258 0.05478,0.009 0.101286,0.009 0.160197,0 0.238745,-0.0589 0.07958,-0.06 0.07958,-0.17157 0,-0.0599 -0.02687,-0.10438 -0.02584,-0.0444 -0.07235,-0.0806 -0.04651,-0.0372 -0.110588,-0.0703 -0.06305,-0.0341 -0.136425,-0.0713 -0.07751,-0.0393 -0.144694,-0.0796 -0.06718,-0.0403 -0.116789,-0.0889 -0.04961,-0.0486 -0.07855,-0.10955 -0.0279,-0.062 -0.0279,-0.1447 0,-0.10128 0.04444,-0.1757 0.04444,-0.0754 0.116789,-0.12402 0.07235,-0.0486 0.164331,-0.0724 0.09302,-0.0238 0.189136,-0.0238 0.219108,0 0.31936,0.0527 v 0.19534 q -0.131258,-0.0909 -0.33693,-0.0909 -0.05684,0 -0.113688,0.0124 -0.05684,0.0114 -0.101286,0.0382 -0.04444,0.0269 -0.07235,0.0692 -0.0279,0.0424 -0.0279,0.10335 0,0.0568 0.02067,0.0982 0.0217,0.0413 0.06305,0.0754 0.04134,0.0341 0.100253,0.0661 0.05994,0.032 0.137459,0.0703 0.07958,0.0393 0.150895,0.0827 0.07131,0.0434 0.125057,0.0961 0.05374,0.0527 0.08475,0.11679 0.03204,0.0641 0.03204,0.14676 0,0.10955 -0.04341,0.18603 -0.04237,0.0754 -0.115756,0.12299 -0.07235,0.0476 -0.167431,0.0682 -0.09508,0.0217 -0.200505,0.0217 -0.03514,0 -0.08682,-0.006 -0.05168,-0.005 -0.10542,-0.0165 -0.05374,-0.0103 -0.102319,-0.0258 -0.04754,-0.0165 -0.07648,-0.0362 z"
         style="font-size:2.11666656px;fill:#ffffff;stroke-width:0.26458332"
         id="path1046"
         inkscape:connector-curvature="0" />
      <path
         d="m 36.504231,209.68542 h -0.42788 v 1.32499 h -0.173633 v -1.32499 H 35.47587 v -0.15709 h 1.028361 z"
         style="font-size:2.11666656px;fill:#ffffff;stroke-width:0.26458332"
         id="path1048"
         inkscape:connector-curvature="0" />
      <path
         d="M 37.521222,211.01041 H 36.73574 v -1.48208 h 0.752409 v 0.15709 h -0.578776 v 0.493 h 0.535367 v 0.15606 h -0.535367 v 0.51883 h 0.611849 z"
         style="font-size:2.11666656px;fill:#ffffff;stroke-width:0.26458332"
         id="path1050"
         inkscape:connector-curvature="0" />
      <path
         d="m 38.868943,211.01041 h -0.206706 l -0.248046,-0.41548 q -0.03411,-0.0579 -0.06615,-0.0982 -0.03204,-0.0413 -0.06615,-0.0672 -0.03307,-0.0258 -0.07235,-0.0372 -0.03824,-0.0124 -0.08682,-0.0124 h -0.142626 v 0.63046 h -0.173633 v -1.48208 h 0.44235 q 0.09715,0 0.1788,0.0248 0.08268,0.0238 0.142627,0.0734 0.06098,0.0496 0.09508,0.12403 0.03411,0.0734 0.03411,0.17259 0,0.0775 -0.02377,0.14263 -0.02274,0.0641 -0.06615,0.11472 -0.04237,0.0507 -0.103352,0.0868 -0.05994,0.0351 -0.135393,0.0548 v 0.004 q 0.03721,0.0165 0.06408,0.0382 0.02791,0.0207 0.05271,0.0496 0.02481,0.0289 0.04858,0.0661 0.02481,0.0362 0.05478,0.0848 z m -0.888834,-1.32499 v 0.53744 h 0.235644 q 0.06511,0 0.119889,-0.0196 0.05581,-0.0196 0.09612,-0.0558 0.04031,-0.0372 0.06304,-0.0899 0.02274,-0.0537 0.02274,-0.11989 0,-0.11885 -0.07751,-0.185 -0.07648,-0.0672 -0.222209,-0.0672 z"
         style="font-size:2.11666656px;fill:#ffffff;stroke-width:0.26458332"
         id="path1052"
         inkscape:connector-curvature="0" />
    </g>
    <path
       inkscape:connector-curvature="0"
       id="path1065"
       d="m 2.6458272,275.86915 v 11.37708 H 13.229161 l -4e-6,-11.37708 z"
       style="fill:none;stroke:#ffffff;stroke-width:0.26458332px;stroke-linecap:butt;stroke-linejoin:miter;stroke-opacity:1"
       sodipodi:nodetypes="ccccc" />
    <path
       sodipodi:nodetypes="ccccc"
       style="fill:none;stroke:#ffffff;stroke-width:0.26458332px;stroke-linecap:butt;stroke-linejoin:miter;stroke-opacity:1"
       d="m 2.6458272,251.4915 v 11.37708 H 13.229161 l -4e-6,-11.37708 z"
       id="path1067"
       inkscape:connector-curvature="0" />
    <path
       sodipodi:nodetypes="ccccc"
       style="fill:none;stroke:#ffffff;stroke-width:0.26458332px;stroke-linecap:butt;stroke-linejoin:miter;stroke-opacity:1"
       d="m 2.6458272,263.68416 v 11.37708 H 13.229161 l -4e-6,-11.37708 z"
       id="path1069"
       inkscape:connector-curvature="0" />
    <path
       inkscape:connector-curvature="0"
       id="path1095"
       d="m 2.6458272,239.32059 v 11.37708 H 13.229161 l -4e-6,-11.37708 z"
       style="fill:none;stroke:#ffffff;stroke-width:0.26458332px;stroke-linecap:butt;stroke-linejoin:miter;stroke-opacity:1"
       sodipodi:nodetypes="ccccc" />
    <g
       aria-label="CLOCK"
       style="font-style:normal;font-variant:normal;font-weight:normal;font-stretch:normal;font-size:2.82222223px;line-height:1.25;font-family:'Yu Gothic UI';-inkscape-font-specification:'Yu Gothic UI';letter-spacing:0px;word-spacing:0px;fill:#ffffff;fill-opacity:1;stroke:none;stroke-width:0.26458332"
       id="text1107"
       transform="translate(-1.6977435,-6.788909)">
      <path
         d="m 6.895703,212.25063 q -0.2191081,0.11576 -0.5457032,0.11576 -0.4216796,0 -0.6752387,-0.27148 -0.253559,-0.27147 -0.253559,-0.71244 0,-0.47405 0.2852539,-0.76619 0.2852539,-0.29215 0.7234701,-0.29215 0.2811198,0 0.4657769,0.0813 v 0.24667 q -0.2122179,-0.1185 -0.468533,-0.1185 -0.3403755,0 -0.5525933,0.22737 -0.2108399,0.22738 -0.2108399,0.60772 0,0.36104 0.1970595,0.57602 0.1984375,0.21359 0.5195204,0.21359 0.2976562,0 0.5153863,-0.13229 z"
         style="fill:#ffffff;stroke-width:0.26458332"
         id="path1117"
         inkscape:connector-curvature="0" />
      <path
         d="M 8.3233506,212.33331 H 7.2980902 v -1.9761 h 0.2315104 v 1.76664 h 0.79375 z"
         style="fill:#ffffff;stroke-width:0.26458332"
         id="path1119"
         inkscape:connector-curvature="0" />
      <path
         d="m 9.3954644,212.36639 q -0.4203016,0 -0.6738607,-0.27699 -0.252181,-0.27699 -0.252181,-0.72071 0,-0.4768 0.2576932,-0.76068 0.2576931,-0.28388 0.7014214,-0.28388 0.4092774,0 0.6587027,0.27561 0.250803,0.27561 0.250803,0.72071 0,0.4837 -0.256316,0.76482 -0.2563147,0.28112 -0.6862626,0.28112 z m 0.016537,-1.83279 q -0.3114367,0 -0.5057401,0.22462 -0.1943033,0.22462 -0.1943033,0.5898 0,0.36518 0.1887912,0.58842 0.1901693,0.22186 0.4947157,0.22186 0.325217,0 0.5126302,-0.21222 0.1874139,-0.21221 0.1874139,-0.59393 0,-0.39136 -0.1819017,-0.60496 -0.1819011,-0.21359 -0.5016059,-0.21359 z"
         style="fill:#ffffff;stroke-width:0.26458332"
         id="path1121"
         inkscape:connector-curvature="0" />
      <path
         d="m 12.071614,212.25063 q -0.219108,0.11576 -0.545703,0.11576 -0.421679,0 -0.675238,-0.27148 -0.253559,-0.27147 -0.253559,-0.71244 0,-0.47405 0.285253,-0.76619 0.285254,-0.29215 0.72347,-0.29215 0.28112,0 0.465777,0.0813 v 0.24667 q -0.212217,-0.11851 -0.468533,-0.11851 -0.340375,0 -0.552593,0.22737 -0.21084,0.22738 -0.21084,0.60772 0,0.36104 0.19706,0.57602 0.198437,0.21359 0.51952,0.21359 0.297656,0 0.515386,-0.13229 z"
         style="fill:#ffffff;stroke-width:0.26458332"
         id="path1123"
         inkscape:connector-curvature="0" />
      <path
         d="m 13.849284,212.33331 h -0.322461 l -0.763433,-0.90399 q -0.04272,-0.051 -0.05237,-0.0689 h -0.0055 v 0.97289 h -0.23151 v -1.9761 h 0.23151 v 0.92879 h 0.0055 q 0.01929,-0.0303 0.05237,-0.0675 l 0.738628,-0.86127 h 0.28801 l -0.847493,0.94809 z"
         style="fill:#ffffff;stroke-width:0.26458332"
         id="path1125"
         inkscape:connector-curvature="0" />
    </g>
    <g
       aria-label="RESET"
       style="font-style:normal;font-variant:normal;font-weight:normal;font-stretch:normal;font-size:2.82222223px;line-height:1.25;font-family:'Yu Gothic UI';-inkscape-font-specification:'Yu Gothic UI';letter-spacing:0px;word-spacing:0px;fill:#ffffff;fill-opacity:1;stroke:none;stroke-width:0.26458332"
       id="text1111"
       transform="translate(-2.5411005,-3.893261)">
      <path
         d="M 8.2902775,221.59373 H 8.0146698 l -0.3307291,-0.55397 q -0.045475,-0.0772 -0.088195,-0.13091 -0.042719,-0.0551 -0.088194,-0.0896 -0.044097,-0.0344 -0.096463,-0.0496 -0.050987,-0.0165 -0.1157552,-0.0165 H 7.1051646 v 0.8406 H 6.8736542 v -1.9761 h 0.5898003 q 0.1295356,0 0.2384007,0.0331 0.110243,0.0317 0.1901692,0.0978 0.081304,0.0662 0.1267795,0.16537 0.045475,0.0978 0.045475,0.23013 0,0.10335 -0.031695,0.19017 -0.030317,0.0854 -0.088194,0.15296 -0.0565,0.0675 -0.1378038,0.11576 -0.079926,0.0469 -0.180523,0.073 v 0.006 q 0.049609,0.0221 0.085438,0.051 0.037207,0.0276 0.07028,0.0661 0.033073,0.0386 0.064768,0.0882 0.033073,0.0482 0.073036,0.113 z m -1.1851129,-1.76664 v 0.71658 h 0.3141927 q 0.086816,0 0.1598525,-0.0262 0.074414,-0.0262 0.1281575,-0.0744 0.053744,-0.0496 0.08406,-0.11989 0.030317,-0.0717 0.030317,-0.15985 0,-0.15847 -0.1033529,-0.24667 -0.1019748,-0.0896 -0.2962782,-0.0896 z"
         style="fill:#ffffff;stroke-width:0.26458332"
         id="path1128"
         inkscape:connector-curvature="0" />
      <path
         d="m 9.6076819,221.59373 h -1.047309 v -1.9761 h 1.0032118 v 0.20946 H 8.7918833 v 0.65732 h 0.7138238 v 0.20809 H 8.7918833 v 0.69177 h 0.8157986 z"
         style="fill:#ffffff;stroke-width:0.26458332"
         id="path1130"
         inkscape:connector-curvature="0" />
      <path
         d="m 9.8956919,221.51381 v -0.27285 q 0.046853,0.0413 0.1116211,0.0744 0.06615,0.0331 0.137804,0.0565 0.07304,0.0221 0.146072,0.0344 0.07304,0.0124 0.135048,0.0124 0.213596,0 0.318326,-0.0785 0.106109,-0.0799 0.106109,-0.22876 0,-0.0799 -0.03583,-0.13918 -0.03445,-0.0593 -0.09646,-0.10749 -0.06201,-0.0496 -0.14745,-0.0937 -0.08406,-0.0455 -0.181901,-0.0951 -0.103353,-0.0524 -0.192926,-0.10611 -0.08957,-0.0537 -0.155718,-0.11851 -0.066146,-0.0648 -0.104731,-0.14607 -0.037207,-0.0827 -0.037207,-0.19293 0,-0.13504 0.059256,-0.23426 0.059255,-0.1006 0.155718,-0.16537 0.09646,-0.0648 0.219108,-0.0965 0.124023,-0.0317 0.252181,-0.0317 0.292144,0 0.425814,0.0703 v 0.26045 q -0.175011,-0.12126 -0.449241,-0.12126 -0.07579,0 -0.151584,0.0165 -0.07579,0.0152 -0.135048,0.051 -0.05926,0.0358 -0.09646,0.0923 -0.03721,0.0565 -0.03721,0.1378 0,0.0758 0.02756,0.13092 0.02894,0.0551 0.08406,0.10059 0.05512,0.0455 0.13367,0.0882 0.07993,0.0427 0.183279,0.0937 0.106109,0.0524 0.201193,0.11025 0.09508,0.0579 0.166743,0.12816 0.07166,0.0703 0.112999,0.15571 0.04272,0.0854 0.04272,0.19568 0,0.14608 -0.05788,0.24805 -0.0565,0.1006 -0.154341,0.16399 -0.09646,0.0634 -0.223242,0.0909 -0.126779,0.0289 -0.267339,0.0289 -0.04685,0 -0.115756,-0.008 -0.0689,-0.007 -0.140559,-0.0221 -0.07166,-0.0138 -0.1364258,-0.0344 -0.06339,-0.0221 -0.1019749,-0.0482 z"
         style="fill:#ffffff;stroke-width:0.26458332"
         id="path1132"
         inkscape:connector-curvature="0" />
      <path
         d="m 12.534635,221.59373 h -1.047309 v -1.9761 h 1.003212 v 0.20946 h -0.771702 v 0.65732 h 0.713824 v 0.20809 h -0.713824 v 0.69177 h 0.815799 z"
         style="fill:#ffffff;stroke-width:0.26458332"
         id="path1134"
         inkscape:connector-curvature="0" />
      <path
         d="m 14.08355,219.82709 h -0.570508 v 1.76664 h -0.23151 v -1.76664 h -0.56913 v -0.20946 h 1.371148 z"
         style="fill:#ffffff;stroke-width:0.26458332"
         id="path1136"
         inkscape:connector-curvature="0" />
    </g>
    <g
       aria-label="DATA"
       style="font-style:normal;font-variant:normal;font-weight:normal;font-stretch:normal;font-size:2.82222223px;line-height:1.25;font-family:'Yu Gothic UI';-inkscape-font-specification:'Yu Gothic UI';letter-spacing:0px;word-spacing:0px;fill:#ffffff;fill-opacity:1;stroke:none;stroke-width:0.26458332"
       id="text1115"
       transform="translate(-2.2172621,-4.967218)">
      <path
         d="m 6.8736542,234.82291 v -1.97611 h 0.5457031 q 1.044553,0 1.044553,0.96325 0,0.45751 -0.2907661,0.73587 -0.289388,0.27699 -0.7758355,0.27699 z m 0.2315104,-1.76665 v 1.55718 h 0.2949002 q 0.3886068,0 0.6049588,-0.20808 0.216352,-0.20808 0.216352,-0.5898 0,-0.7593 -0.8075304,-0.7593 z"
         style="fill:#ffffff;stroke-width:0.26458332"
         id="path1139"
         inkscape:connector-curvature="0" />
      <path
         d="M 10.338042,234.82291 H 10.081727 L 9.8722653,234.26894 H 9.034418 l -0.1970594,0.55397 H 8.5796654 l 0.757921,-1.97611 h 0.2397787 z m -0.5415688,-0.76206 -0.3100586,-0.84198 q -0.015159,-0.0413 -0.030317,-0.13229 h -0.00551 q -0.01378,0.0841 -0.031695,0.13229 l -0.3073025,0.84198 z"
         style="fill:#ffffff;stroke-width:0.26458332"
         id="path1141"
         inkscape:connector-curvature="0" />
      <path
         d="M 11.696788,233.05626 H 11.12628 v 1.76665 h -0.23151 v -1.76665 h -0.56913 v -0.20946 h 1.371148 z"
         style="fill:#ffffff;stroke-width:0.26458332"
         id="path1143"
         inkscape:connector-curvature="0" />
      <path
         d="m 13.435872,234.82291 h -0.256315 l -0.209462,-0.55397 h -0.837847 l -0.197059,0.55397 h -0.257694 l 0.757922,-1.97611 h 0.239778 z m -0.541569,-0.76206 -0.310058,-0.84198 q -0.01516,-0.0413 -0.03032,-0.13229 h -0.0055 q -0.01378,0.0841 -0.03169,0.13229 l -0.307303,0.84198 z"
         style="fill:#ffffff;stroke-width:0.26458332"
         id="path1145"
         inkscape:connector-curvature="0" />
    </g>
    <g
       aria-label="Q1"
       style="font-style:normal;font-variant:normal;font-weight:normal;font-stretch:normal;font-size:2.82222223px;line-height:1.25;font-family:'Yu Gothic UI';-inkscape-font-specification:'Yu Gothic UI';letter-spacing:0px;word-spacing:0px;fill:#ffffff;fill-opacity:1;stroke:none;stroke-width:0.26458332"
       id="text1150"
       transform="translate(-0.0365086,-4.6365109)">
      <path
         d="m 5.0243273,246.76223 q -0.4189237,0 -0.6738607,-0.27699 -0.252181,-0.27698 -0.252181,-0.72071 0,-0.47818 0.2576931,-0.76068 0.2590712,-0.28387 0.7014215,-0.28387 0.4078993,0 0.6587022,0.2756 0.250803,0.27561 0.250803,0.72072 0,0.48369 -0.2563151,0.76481 -0.060634,0.0675 -0.1295356,0.11575 l 0.5553494,0.39826 H 5.7161024 l -0.3720703,-0.27837 q -0.146072,0.0455 -0.3197048,0.0455 z m 0.016536,-1.83279 q -0.3114366,0 -0.50574,0.22462 -0.1943034,0.22462 -0.1943034,0.5898 0,0.3638 0.1887912,0.58842 0.1901693,0.22187 0.4947158,0.22187 0.325217,0 0.5126302,-0.21222 0.1874132,-0.21222 0.1874132,-0.59394 0,-0.39274 -0.1819011,-0.60496 -0.181901,-0.21359 -0.5016059,-0.21359 z"
         style="fill:#ffffff;stroke-width:0.26458332"
         id="path1199"
         inkscape:connector-curvature="0" />
      <path
         d="M 7.0941407,246.72916 H 6.8681424 v -1.70739 q -0.026183,0.0262 -0.07717,0.0606 -0.049609,0.0331 -0.1129991,0.0661 -0.062012,0.0331 -0.1322917,0.062 -0.068902,0.0289 -0.1350478,0.0455 v -0.22875 q 0.074414,-0.0207 0.1570964,-0.0551 0.08406,-0.0358 0.1639865,-0.0786 0.081304,-0.0441 0.1529623,-0.0909 0.071658,-0.0482 0.1240234,-0.0937 h 0.085438 z"
         style="fill:#ffffff;stroke-width:0.26458332"
         id="path1201"
         inkscape:connector-curvature="0" />
    </g>
    <g
       aria-label="Q2"
       style="font-style:normal;font-variant:normal;font-weight:normal;font-stretch:normal;font-size:2.82222223px;line-height:1.25;font-family:'Yu Gothic UI';-inkscape-font-specification:'Yu Gothic UI';letter-spacing:0px;word-spacing:0px;fill:#ffffff;fill-opacity:1;stroke:none;stroke-width:0.26458332"
       id="text1154"
       transform="translate(-1.3594251,-5.705807)">
      <path
         d="m 6.3472438,259.99139 q -0.4189236,0 -0.6738607,-0.27699 -0.252181,-0.27699 -0.252181,-0.72071 0,-0.47818 0.2576931,-0.76068 0.2590712,-0.28388 0.7014215,-0.28388 0.4078993,0 0.6587022,0.27561 0.250803,0.27561 0.250803,0.72071 0,0.4837 -0.2563151,0.76482 -0.060634,0.0675 -0.1295356,0.11575 l 0.5553494,0.39825 H 7.0390189 l -0.3720703,-0.27836 q -0.146072,0.0455 -0.3197048,0.0455 z m 0.016536,-1.83279 q -0.3114366,0 -0.50574,0.22462 -0.1943034,0.22462 -0.1943034,0.5898 0,0.3638 0.1887913,0.58842 0.1901692,0.22186 0.4947157,0.22186 0.325217,0 0.5126302,-0.21222 0.1874132,-0.21221 0.1874132,-0.59393 0,-0.39274 -0.1819011,-0.60496 -0.181901,-0.21359 -0.5016059,-0.21359 z"
         style="fill:#ffffff;stroke-width:0.26458332"
         id="path1194"
         inkscape:connector-curvature="0" />
      <path
         d="m 8.483203,258.50035 q 0,-0.091 -0.028939,-0.15848 -0.027561,-0.0675 -0.07717,-0.11162 -0.048231,-0.0455 -0.1143772,-0.0675 -0.066146,-0.0221 -0.143316,-0.0221 -0.066146,0 -0.1295355,0.0179 -0.06339,0.0179 -0.1240235,0.0496 -0.059256,0.0317 -0.1157552,0.0758 -0.055121,0.0441 -0.1033529,0.0978 v -0.24254 q 0.095085,-0.0923 0.2122179,-0.14056 0.1185113,-0.0496 0.28801,-0.0496 0.1212674,0 0.2246202,0.0358 0.1033529,0.0344 0.179145,0.10198 0.075792,0.0675 0.1185113,0.16674 0.044097,0.0992 0.044097,0.22738 0,0.11713 -0.027561,0.21221 -0.026183,0.0951 -0.081304,0.17915 -0.053743,0.0841 -0.1364258,0.16123 -0.082682,0.0772 -0.1943034,0.1571 -0.1391818,0.0992 -0.2301324,0.16949 -0.089572,0.0703 -0.1433159,0.1323 -0.052366,0.0606 -0.074414,0.12264 -0.020671,0.0606 -0.020671,0.14056 h 0.9839193 v 0.20257 H 7.5695637 v -0.0978 q 0,-0.12678 0.027561,-0.22324 0.027561,-0.0965 0.090951,-0.18328 0.06339,-0.0868 0.1653646,-0.17363 0.1033528,-0.0868 0.252181,-0.19568 0.1074869,-0.0772 0.1791449,-0.14745 0.073036,-0.0703 0.1171333,-0.14056 0.044097,-0.0703 0.062012,-0.14194 0.019292,-0.073 0.019292,-0.15434 z"
         style="fill:#ffffff;stroke-width:0.26458332"
         id="path1196"
         inkscape:connector-curvature="0" />
    </g>
    <g
       aria-label="Q3"
       style="font-style:normal;font-variant:normal;font-weight:normal;font-stretch:normal;font-size:2.82222223px;line-height:1.25;font-family:'Yu Gothic UI';-inkscape-font-specification:'Yu Gothic UI';letter-spacing:0px;word-spacing:0px;fill:#ffffff;fill-opacity:1;stroke:none;stroke-width:0.26458332"
       id="text1158"
       transform="translate(-1.6460521,-5.463485)">
      <path
         d="m 6.3472438,271.89764 q -0.4189236,0 -0.6738607,-0.27699 -0.252181,-0.27699 -0.252181,-0.72071 0,-0.47818 0.2576931,-0.76068 0.2590712,-0.28388 0.7014215,-0.28388 0.4078993,0 0.6587022,0.27561 0.250803,0.27561 0.250803,0.72071 0,0.4837 -0.2563151,0.76482 -0.060634,0.0675 -0.1295356,0.11575 l 0.5553494,0.39825 H 7.0390189 l -0.3720703,-0.27836 q -0.146072,0.0455 -0.3197048,0.0455 z m 0.016536,-1.83279 q -0.3114366,0 -0.50574,0.22462 -0.1943034,0.22462 -0.1943034,0.5898 0,0.3638 0.1887913,0.58842 0.1901692,0.22186 0.4947157,0.22186 0.325217,0 0.5126302,-0.21222 0.1874132,-0.21221 0.1874132,-0.59393 0,-0.39274 -0.1819011,-0.60496 -0.181901,-0.21359 -0.5016059,-0.21359 z"
         style="fill:#ffffff;stroke-width:0.26458332"
         id="path1189"
         inkscape:connector-curvature="0" />
      <path
         d="m 8.7326279,271.30508 q 0,0.13367 -0.050987,0.24391 -0.049609,0.10887 -0.1419379,0.18742 -0.09095,0.0772 -0.2191081,0.11988 -0.1281575,0.0427 -0.2824978,0.0427 -0.2824978,0 -0.4492405,-0.10748 v -0.24254 q 0.1998156,0.1571 0.4575087,0.1571 0.1033529,0 0.1860352,-0.0262 0.08406,-0.0262 0.1433159,-0.0758 0.060634,-0.0496 0.092329,-0.11989 0.033073,-0.0703 0.033073,-0.15847 0,-0.38723 -0.5512153,-0.38723 H 7.7859157 v -0.19155 H 7.941634 q 0.4878255,0 0.4878255,-0.3638 0,-0.33624 -0.3720703,-0.33624 -0.2094618,0 -0.3927409,0.14056 v -0.21911 q 0.1887913,-0.113 0.4492405,-0.113 0.1240234,0 0.2246202,0.0344 0.1005968,0.0345 0.1722548,0.0965 0.071658,0.062 0.110243,0.14883 0.039963,0.0868 0.039963,0.19154 0,0.38999 -0.394119,0.50161 v 0.006 q 0.1005968,0.011 0.1860352,0.0496 0.085438,0.0372 0.1474501,0.0978 0.062012,0.0606 0.096463,0.14332 0.035829,0.0813 0.035829,0.18052 z"
         style="fill:#ffffff;stroke-width:0.26458332"
         id="path1191"
         inkscape:connector-curvature="0" />
    </g>
    <g
       aria-label="Q4"
       style="font-style:normal;font-variant:normal;font-weight:normal;font-stretch:normal;font-size:2.82222223px;line-height:1.25;font-family:'Yu Gothic UI';-inkscape-font-specification:'Yu Gothic UI';letter-spacing:0px;word-spacing:0px;fill:#ffffff;fill-opacity:1;stroke:none;stroke-width:0.26458332"
       id="text1162"
       transform="translate(-2.7519376,-5.174553)">
      <path
         d="m 7.6701603,283.80389 q -0.4189236,0 -0.6738607,-0.27699 -0.252181,-0.27699 -0.252181,-0.72071 0,-0.47818 0.2576931,-0.76068 0.2590712,-0.28388 0.7014215,-0.28388 0.4078993,0 0.6587023,0.27561 0.2508029,0.27561 0.2508029,0.72071 0,0.4837 -0.2563151,0.76482 -0.060634,0.0675 -0.1295356,0.11575 l 0.5553494,0.39825 H 8.3619355 l -0.3720704,-0.27836 q -0.146072,0.0455 -0.3197048,0.0455 z m 0.016536,-1.83279 q -0.3114366,0 -0.50574,0.22462 -0.1943034,0.22462 -0.1943034,0.5898 0,0.3638 0.1887913,0.58842 0.1901692,0.22186 0.4947157,0.22186 0.325217,0 0.5126302,-0.21222 0.1874132,-0.21221 0.1874132,-0.59393 0,-0.39274 -0.1819011,-0.60496 -0.181901,-0.21359 -0.5016059,-0.21359 z"
         style="fill:#ffffff;stroke-width:0.26458332"
         id="path1184"
         inkscape:connector-curvature="0" />
      <path
         d="m 9.9136065,281.79471 v 1.305 h 0.2535595 v 0.2067 H 9.9136065 v 0.4644 H 9.6903643 v -0.4644 H 8.7615666 v -0.19568 q 0.1295356,-0.14607 0.2618272,-0.31143 0.1322917,-0.16675 0.252181,-0.33762 0.1212674,-0.17088 0.2232422,-0.34038 0.1033529,-0.17088 0.1736328,-0.32659 z m -0.8971029,1.305 h 0.6738607 v -0.96738 q -0.1033528,0.18052 -0.1956814,0.32246 -0.092329,0.14193 -0.1763889,0.25769 -0.082682,0.11575 -0.1584744,0.20946 -0.075792,0.0937 -0.143316,0.17777 z"
         style="fill:#ffffff;stroke-width:0.26458332"
         id="path1186"
         inkscape:connector-curvature="0" />
    </g>
    <path
       style="fill:none;stroke:#ffffff;stroke-width:0.26458332px;stroke-linecap:butt;stroke-linejoin:miter;stroke-opacity:1"
       d="M 15.875,287.2104 V 203.33749"
       id="path1204"
       inkscape:connector-curvature="0" />
    <path
       sodipodi:nodetypes="ccccc"
       style="fill:none;stroke:#ffffff;stroke-width:0.26458332px;stroke-linecap:butt;stroke-linejoin:miter;stroke-opacity:1"
       d="m 18.520833,275.86915 v 11.37708 h 10.583338 l -4e-6,-11.37708 z"
       id="path1206"
       inkscape:connector-curvature="0" />
    <path
       inkscape:connector-curvature="0"
       id="path1208"
       d="m 18.520833,251.4915 v 11.37708 h 10.583338 l -4e-6,-11.37708 z"
       style="fill:none;stroke:#ffffff;stroke-width:0.26458332px;stroke-linecap:butt;stroke-linejoin:miter;stroke-opacity:1"
       sodipodi:nodetypes="ccccc" />
    <path
       inkscape:connector-curvature="0"
       id="path1210"
       d="m 18.520833,263.68416 v 11.37708 h 10.583338 l -4e-6,-11.37708 z"
       style="fill:none;stroke:#ffffff;stroke-width:0.26458332px;stroke-linecap:butt;stroke-linejoin:miter;stroke-opacity:1"
       sodipodi:nodetypes="ccccc" />
    <path
       sodipodi:nodetypes="ccccc"
       style="fill:none;stroke:#ffffff;stroke-width:0.26458332px;stroke-linecap:butt;stroke-linejoin:miter;stroke-opacity:1"
       d="m 18.520833,239.32059 v 11.37708 h 10.583338 l -4e-6,-11.37708 z"
       id="path1212"
       inkscape:connector-curvature="0" />
    <g
       transform="translate(14.177259,-6.788909)"
       id="g1224"
       style="font-style:normal;font-variant:normal;font-weight:normal;font-stretch:normal;font-size:2.82222223px;line-height:1.25;font-family:'Yu Gothic UI';-inkscape-font-specification:'Yu Gothic UI';letter-spacing:0px;word-spacing:0px;fill:#ffffff;fill-opacity:1;stroke:none;stroke-width:0.26458332"
       aria-label="CLOCK">
      <path
         inkscape:connector-curvature="0"
         id="path1214"
         style="fill:#ffffff;stroke-width:0.26458332"
         d="m 6.895703,212.25063 q -0.2191081,0.11576 -0.5457032,0.11576 -0.4216796,0 -0.6752387,-0.27148 -0.253559,-0.27147 -0.253559,-0.71244 0,-0.47405 0.2852539,-0.76619 0.2852539,-0.29215 0.7234701,-0.29215 0.2811198,0 0.4657769,0.0813 v 0.24667 q -0.2122179,-0.1185 -0.468533,-0.1185 -0.3403755,0 -0.5525933,0.22737 -0.2108399,0.22738 -0.2108399,0.60772 0,0.36104 0.1970595,0.57602 0.1984375,0.21359 0.5195204,0.21359 0.2976562,0 0.5153863,-0.13229 z" />
      <path
         inkscape:connector-curvature="0"
         id="path1216"
         style="fill:#ffffff;stroke-width:0.26458332"
         d="M 8.3233506,212.33331 H 7.2980902 v -1.9761 h 0.2315104 v 1.76664 h 0.79375 z" />
      <path
         inkscape:connector-curvature="0"
         id="path1218"
         style="fill:#ffffff;stroke-width:0.26458332"
         d="m 9.3954644,212.36639 q -0.4203016,0 -0.6738607,-0.27699 -0.252181,-0.27699 -0.252181,-0.72071 0,-0.4768 0.2576932,-0.76068 0.2576931,-0.28388 0.7014214,-0.28388 0.4092774,0 0.6587027,0.27561 0.250803,0.27561 0.250803,0.72071 0,0.4837 -0.256316,0.76482 -0.2563147,0.28112 -0.6862626,0.28112 z m 0.016537,-1.83279 q -0.3114367,0 -0.5057401,0.22462 -0.1943033,0.22462 -0.1943033,0.5898 0,0.36518 0.1887912,0.58842 0.1901693,0.22186 0.4947157,0.22186 0.325217,0 0.5126302,-0.21222 0.1874139,-0.21221 0.1874139,-0.59393 0,-0.39136 -0.1819017,-0.60496 -0.1819011,-0.21359 -0.5016059,-0.21359 z" />
      <path
         inkscape:connector-curvature="0"
         id="path1220"
         style="fill:#ffffff;stroke-width:0.26458332"
         d="m 12.071614,212.25063 q -0.219108,0.11576 -0.545703,0.11576 -0.421679,0 -0.675238,-0.27148 -0.253559,-0.27147 -0.253559,-0.71244 0,-0.47405 0.285253,-0.76619 0.285254,-0.29215 0.72347,-0.29215 0.28112,0 0.465777,0.0813 v 0.24667 q -0.212217,-0.11851 -0.468533,-0.11851 -0.340375,0 -0.552593,0.22737 -0.21084,0.22738 -0.21084,0.60772 0,0.36104 0.19706,0.57602 0.198437,0.21359 0.51952,0.21359 0.297656,0 0.515386,-0.13229 z" />
      <path
         inkscape:connector-curvature="0"
         id="path1222"
         style="fill:#ffffff;stroke-width:0.26458332"
         d="m 13.849284,212.33331 h -0.322461 l -0.763433,-0.90399 q -0.04272,-0.051 -0.05237,-0.0689 h -0.0055 v 0.97289 h -0.23151 v -1.9761 h 0.23151 v 0.92879 h 0.0055 q 0.01929,-0.0303 0.05237,-0.0675 l 0.738628,-0.86127 h 0.28801 l -0.847493,0.94809 z" />
    </g>
    <g
       transform="translate(13.333902,-3.893261)"
       id="g1236"
       style="font-style:normal;font-variant:normal;font-weight:normal;font-stretch:normal;font-size:2.82222223px;line-height:1.25;font-family:'Yu Gothic UI';-inkscape-font-specification:'Yu Gothic UI';letter-spacing:0px;word-spacing:0px;fill:#ffffff;fill-opacity:1;stroke:none;stroke-width:0.26458332"
       aria-label="RESET">
      <path
         inkscape:connector-curvature="0"
         id="path1226"
         style="fill:#ffffff;stroke-width:0.26458332"
         d="M 8.2902775,221.59373 H 8.0146698 l -0.3307291,-0.55397 q -0.045475,-0.0772 -0.088195,-0.13091 -0.042719,-0.0551 -0.088194,-0.0896 -0.044097,-0.0344 -0.096463,-0.0496 -0.050987,-0.0165 -0.1157552,-0.0165 H 7.1051646 v 0.8406 H 6.8736542 v -1.9761 h 0.5898003 q 0.1295356,0 0.2384007,0.0331 0.110243,0.0317 0.1901692,0.0978 0.081304,0.0662 0.1267795,0.16537 0.045475,0.0978 0.045475,0.23013 0,0.10335 -0.031695,0.19017 -0.030317,0.0854 -0.088194,0.15296 -0.0565,0.0675 -0.1378038,0.11576 -0.079926,0.0469 -0.180523,0.073 v 0.006 q 0.049609,0.0221 0.085438,0.051 0.037207,0.0276 0.07028,0.0661 0.033073,0.0386 0.064768,0.0882 0.033073,0.0482 0.073036,0.113 z m -1.1851129,-1.76664 v 0.71658 h 0.3141927 q 0.086816,0 0.1598525,-0.0262 0.074414,-0.0262 0.1281575,-0.0744 0.053744,-0.0496 0.08406,-0.11989 0.030317,-0.0717 0.030317,-0.15985 0,-0.15847 -0.1033529,-0.24667 -0.1019748,-0.0896 -0.2962782,-0.0896 z" />
      <path
         inkscape:connector-curvature="0"
         id="path1228"
         style="fill:#ffffff;stroke-width:0.26458332"
         d="m 9.6076819,221.59373 h -1.047309 v -1.9761 h 1.0032118 v 0.20946 H 8.7918833 v 0.65732 h 0.7138238 v 0.20809 H 8.7918833 v 0.69177 h 0.8157986 z" />
      <path
         inkscape:connector-curvature="0"
         id="path1230"
         style="fill:#ffffff;stroke-width:0.26458332"
         d="m 9.8956919,221.51381 v -0.27285 q 0.046853,0.0413 0.1116211,0.0744 0.06615,0.0331 0.137804,0.0565 0.07304,0.0221 0.146072,0.0344 0.07304,0.0124 0.135048,0.0124 0.213596,0 0.318326,-0.0785 0.106109,-0.0799 0.106109,-0.22876 0,-0.0799 -0.03583,-0.13918 -0.03445,-0.0593 -0.09646,-0.10749 -0.06201,-0.0496 -0.14745,-0.0937 -0.08406,-0.0455 -0.181901,-0.0951 -0.103353,-0.0524 -0.192926,-0.10611 -0.08957,-0.0537 -0.155718,-0.11851 -0.066146,-0.0648 -0.104731,-0.14607 -0.037207,-0.0827 -0.037207,-0.19293 0,-0.13504 0.059256,-0.23426 0.059255,-0.1006 0.155718,-0.16537 0.09646,-0.0648 0.219108,-0.0965 0.124023,-0.0317 0.252181,-0.0317 0.292144,0 0.425814,0.0703 v 0.26045 q -0.175011,-0.12126 -0.449241,-0.12126 -0.07579,0 -0.151584,0.0165 -0.07579,0.0152 -0.135048,0.051 -0.05926,0.0358 -0.09646,0.0923 -0.03721,0.0565 -0.03721,0.1378 0,0.0758 0.02756,0.13092 0.02894,0.0551 0.08406,0.10059 0.05512,0.0455 0.13367,0.0882 0.07993,0.0427 0.183279,0.0937 0.106109,0.0524 0.201193,0.11025 0.09508,0.0579 0.166743,0.12816 0.07166,0.0703 0.112999,0.15571 0.04272,0.0854 0.04272,0.19568 0,0.14608 -0.05788,0.24805 -0.0565,0.1006 -0.154341,0.16399 -0.09646,0.0634 -0.223242,0.0909 -0.126779,0.0289 -0.267339,0.0289 -0.04685,0 -0.115756,-0.008 -0.0689,-0.007 -0.140559,-0.0221 -0.07166,-0.0138 -0.1364258,-0.0344 -0.06339,-0.0221 -0.1019749,-0.0482 z" />
      <path
         inkscape:connector-curvature="0"
         id="path1232"
         style="fill:#ffffff;stroke-width:0.26458332"
         d="m 12.534635,221.59373 h -1.047309 v -1.9761 h 1.003212 v 0.20946 h -0.771702 v 0.65732 h 0.713824 v 0.20809 h -0.713824 v 0.69177 h 0.815799 z" />
      <path
         inkscape:connector-curvature="0"
         id="path1234"
         style="fill:#ffffff;stroke-width:0.26458332"
         d="m 14.08355,219.82709 h -0.570508 v 1.76664 h -0.23151 v -1.76664 h -0.56913 v -0.20946 h 1.371148 z" />
    </g>
    <g
       transform="translate(13.65774,-4.967218)"
       id="g1246"
       style="font-style:normal;font-variant:normal;font-weight:normal;font-stretch:normal;font-size:2.82222223px;line-height:1.25;font-family:'Yu Gothic UI';-inkscape-font-specification:'Yu Gothic UI';letter-spacing:0px;word-spacing:0px;fill:#ffffff;fill-opacity:1;stroke:none;stroke-width:0.26458332"
       aria-label="DATA">
      <path
         inkscape:connector-curvature="0"
         id="path1238"
         style="fill:#ffffff;stroke-width:0.26458332"
         d="m 6.8736542,234.82291 v -1.97611 h 0.5457031 q 1.044553,0 1.044553,0.96325 0,0.45751 -0.2907661,0.73587 -0.289388,0.27699 -0.7758355,0.27699 z m 0.2315104,-1.76665 v 1.55718 h 0.2949002 q 0.3886068,0 0.6049588,-0.20808 0.216352,-0.20808 0.216352,-0.5898 0,-0.7593 -0.8075304,-0.7593 z" />
      <path
         inkscape:connector-curvature="0"
         id="path1240"
         style="fill:#ffffff;stroke-width:0.26458332"
         d="M 10.338042,234.82291 H 10.081727 L 9.8722653,234.26894 H 9.034418 l -0.1970594,0.55397 H 8.5796654 l 0.757921,-1.97611 h 0.2397787 z m -0.5415688,-0.76206 -0.3100586,-0.84198 q -0.015159,-0.0413 -0.030317,-0.13229 h -0.00551 q -0.01378,0.0841 -0.031695,0.13229 l -0.3073025,0.84198 z" />
      <path
         inkscape:connector-curvature="0"
         id="path1242"
         style="fill:#ffffff;stroke-width:0.26458332"
         d="M 11.696788,233.05626 H 11.12628 v 1.76665 h -0.23151 v -1.76665 h -0.56913 v -0.20946 h 1.371148 z" />
      <path
         inkscape:connector-curvature="0"
         id="path1244"
         style="fill:#ffffff;stroke-width:0.26458332"
         d="m 13.435872,234.82291 h -0.256315 l -0.209462,-0.55397 h -0.837847 l -0.197059,0.55397 h -0.257694 l 0.757922,-1.97611 h 0.239778 z m -0.541569,-0.76206 -0.310058,-0.84198 q -0.01516,-0.0413 -0.03032,-0.13229 h -0.0055 q -0.01378,0.0841 -0.03169,0.13229 l -0.307303,0.84198 z" />
    </g>
    <g
       transform="translate(15.838496,-4.6365109)"
       id="g1252"
       style="font-style:normal;font-variant:normal;font-weight:normal;font-stretch:normal;font-size:2.82222223px;line-height:1.25;font-family:'Yu Gothic UI';-inkscape-font-specification:'Yu Gothic UI';letter-spacing:0px;word-spacing:0px;fill:#ffffff;fill-opacity:1;stroke:none;stroke-width:0.26458332"
       aria-label="Q1">
      <path
         inkscape:connector-curvature="0"
         id="path1248"
         style="fill:#ffffff;stroke-width:0.26458332"
         d="m 5.0243273,246.76223 q -0.4189237,0 -0.6738607,-0.27699 -0.252181,-0.27698 -0.252181,-0.72071 0,-0.47818 0.2576931,-0.76068 0.2590712,-0.28387 0.7014215,-0.28387 0.4078993,0 0.6587022,0.2756 0.250803,0.27561 0.250803,0.72072 0,0.48369 -0.2563151,0.76481 -0.060634,0.0675 -0.1295356,0.11575 l 0.5553494,0.39826 H 5.7161024 l -0.3720703,-0.27837 q -0.146072,0.0455 -0.3197048,0.0455 z m 0.016536,-1.83279 q -0.3114366,0 -0.50574,0.22462 -0.1943034,0.22462 -0.1943034,0.5898 0,0.3638 0.1887912,0.58842 0.1901693,0.22187 0.4947158,0.22187 0.325217,0 0.5126302,-0.21222 0.1874132,-0.21222 0.1874132,-0.59394 0,-0.39274 -0.1819011,-0.60496 -0.181901,-0.21359 -0.5016059,-0.21359 z" />
      <path
         inkscape:connector-curvature="0"
         id="path1250"
         style="fill:#ffffff;stroke-width:0.26458332"
         d="M 7.0941407,246.72916 H 6.8681424 v -1.70739 q -0.026183,0.0262 -0.07717,0.0606 -0.049609,0.0331 -0.1129991,0.0661 -0.062012,0.0331 -0.1322917,0.062 -0.068902,0.0289 -0.1350478,0.0455 v -0.22875 q 0.074414,-0.0207 0.1570964,-0.0551 0.08406,-0.0358 0.1639865,-0.0786 0.081304,-0.0441 0.1529623,-0.0909 0.071658,-0.0482 0.1240234,-0.0937 h 0.085438 z" />
    </g>
    <g
       transform="translate(14.515578,-5.705807)"
       id="g1258"
       style="font-style:normal;font-variant:normal;font-weight:normal;font-stretch:normal;font-size:2.82222223px;line-height:1.25;font-family:'Yu Gothic UI';-inkscape-font-specification:'Yu Gothic UI';letter-spacing:0px;word-spacing:0px;fill:#ffffff;fill-opacity:1;stroke:none;stroke-width:0.26458332"
       aria-label="Q2">
      <path
         inkscape:connector-curvature="0"
         id="path1254"
         style="fill:#ffffff;stroke-width:0.26458332"
         d="m 6.3472438,259.99139 q -0.4189236,0 -0.6738607,-0.27699 -0.252181,-0.27699 -0.252181,-0.72071 0,-0.47818 0.2576931,-0.76068 0.2590712,-0.28388 0.7014215,-0.28388 0.4078993,0 0.6587022,0.27561 0.250803,0.27561 0.250803,0.72071 0,0.4837 -0.2563151,0.76482 -0.060634,0.0675 -0.1295356,0.11575 l 0.5553494,0.39825 H 7.0390189 l -0.3720703,-0.27836 q -0.146072,0.0455 -0.3197048,0.0455 z m 0.016536,-1.83279 q -0.3114366,0 -0.50574,0.22462 -0.1943034,0.22462 -0.1943034,0.5898 0,0.3638 0.1887913,0.58842 0.1901692,0.22186 0.4947157,0.22186 0.325217,0 0.5126302,-0.21222 0.1874132,-0.21221 0.1874132,-0.59393 0,-0.39274 -0.1819011,-0.60496 -0.181901,-0.21359 -0.5016059,-0.21359 z" />
      <path
         inkscape:connector-curvature="0"
         id="path1256"
         style="fill:#ffffff;stroke-width:0.26458332"
         d="m 8.483203,258.50035 q 0,-0.091 -0.028939,-0.15848 -0.027561,-0.0675 -0.07717,-0.11162 -0.048231,-0.0455 -0.1143772,-0.0675 -0.066146,-0.0221 -0.143316,-0.0221 -0.066146,0 -0.1295355,0.0179 -0.06339,0.0179 -0.1240235,0.0496 -0.059256,0.0317 -0.1157552,0.0758 -0.055121,0.0441 -0.1033529,0.0978 v -0.24254 q 0.095085,-0.0923 0.2122179,-0.14056 0.1185113,-0.0496 0.28801,-0.0496 0.1212674,0 0.2246202,0.0358 0.1033529,0.0344 0.179145,0.10198 0.075792,0.0675 0.1185113,0.16674 0.044097,0.0992 0.044097,0.22738 0,0.11713 -0.027561,0.21221 -0.026183,0.0951 -0.081304,0.17915 -0.053743,0.0841 -0.1364258,0.16123 -0.082682,0.0772 -0.1943034,0.1571 -0.1391818,0.0992 -0.2301324,0.16949 -0.089572,0.0703 -0.1433159,0.1323 -0.052366,0.0606 -0.074414,0.12264 -0.020671,0.0606 -0.020671,0.14056 h 0.9839193 v 0.20257 H 7.5695637 v -0.0978 q 0,-0.12678 0.027561,-0.22324 0.027561,-0.0965 0.090951,-0.18328 0.06339,-0.0868 0.1653646,-0.17363 0.1033528,-0.0868 0.252181,-0.19568 0.1074869,-0.0772 0.1791449,-0.14745 0.073036,-0.0703 0.1171333,-0.14056 0.044097,-0.0703 0.062012,-0.14194 0.019292,-0.073 0.019292,-0.15434 z" />
    </g>
    <g
       transform="translate(14.228951,-5.463485)"
       id="g1264"
       style="font-style:normal;font-variant:normal;font-weight:normal;font-stretch:normal;font-size:2.82222223px;line-height:1.25;font-family:'Yu Gothic UI';-inkscape-font-specification:'Yu Gothic UI';letter-spacing:0px;word-spacing:0px;fill:#ffffff;fill-opacity:1;stroke:none;stroke-width:0.26458332"
       aria-label="Q3">
      <path
         inkscape:connector-curvature="0"
         id="path1260"
         style="fill:#ffffff;stroke-width:0.26458332"
         d="m 6.3472438,271.89764 q -0.4189236,0 -0.6738607,-0.27699 -0.252181,-0.27699 -0.252181,-0.72071 0,-0.47818 0.2576931,-0.76068 0.2590712,-0.28388 0.7014215,-0.28388 0.4078993,0 0.6587022,0.27561 0.250803,0.27561 0.250803,0.72071 0,0.4837 -0.2563151,0.76482 -0.060634,0.0675 -0.1295356,0.11575 l 0.5553494,0.39825 H 7.0390189 l -0.3720703,-0.27836 q -0.146072,0.0455 -0.3197048,0.0455 z m 0.016536,-1.83279 q -0.3114366,0 -0.50574,0.22462 -0.1943034,0.22462 -0.1943034,0.5898 0,0.3638 0.1887913,0.58842 0.1901692,0.22186 0.4947157,0.22186 0.325217,0 0.5126302,-0.21222 0.1874132,-0.21221 0.1874132,-0.59393 0,-0.39274 -0.1819011,-0.60496 -0.181901,-0.21359 -0.5016059,-0.21359 z" />
      <path
         inkscape:connector-curvature="0"
         id="path1262"
         style="fill:#ffffff;stroke-width:0.26458332"
         d="m 8.7326279,271.30508 q 0,0.13367 -0.050987,0.24391 -0.049609,0.10887 -0.1419379,0.18742 -0.09095,0.0772 -0.2191081,0.11988 -0.1281575,0.0427 -0.2824978,0.0427 -0.2824978,0 -0.4492405,-0.10748 v -0.24254 q 0.1998156,0.1571 0.4575087,0.1571 0.1033529,0 0.1860352,-0.0262 0.08406,-0.0262 0.1433159,-0.0758 0.060634,-0.0496 0.092329,-0.11989 0.033073,-0.0703 0.033073,-0.15847 0,-0.38723 -0.5512153,-0.38723 H 7.7859157 v -0.19155 H 7.941634 q 0.4878255,0 0.4878255,-0.3638 0,-0.33624 -0.3720703,-0.33624 -0.2094618,0 -0.3927409,0.14056 v -0.21911 q 0.1887913,-0.113 0.4492405,-0.113 0.1240234,0 0.2246202,0.0344 0.1005968,0.0345 0.1722548,0.0965 0.071658,0.062 0.110243,0.14883 0.039963,0.0868 0.039963,0.19154 0,0.38999 -0.394119,0.50161 v 0.006 q 0.1005968,0.011 0.1860352,0.0496 0.085438,0.0372 0.1474501,0.0978 0.062012,0.0606 0.096463,0.14332 0.035829,0.0813 0.035829,0.18052 z" />
    </g>
    <g
       transform="translate(13.123065,-5.174553)"
       id="g1270"
       style="font-style:normal;font-variant:normal;font-weight:normal;font-stretch:normal;font-size:2.82222223px;line-height:1.25;font-family:'Yu Gothic UI';-inkscape-font-specification:'Yu Gothic UI';letter-spacing:0px;word-spacing:0px;fill:#ffffff;fill-opacity:1;stroke:none;stroke-width:0.26458332"
       aria-label="Q4">
      <path
         inkscape:connector-curvature="0"
         id="path1266"
         style="fill:#ffffff;stroke-width:0.26458332"
         d="m 7.6701603,283.80389 q -0.4189236,0 -0.6738607,-0.27699 -0.252181,-0.27699 -0.252181,-0.72071 0,-0.47818 0.2576931,-0.76068 0.2590712,-0.28388 0.7014215,-0.28388 0.4078993,0 0.6587023,0.27561 0.2508029,0.27561 0.2508029,0.72071 0,0.4837 -0.2563151,0.76482 -0.060634,0.0675 -0.1295356,0.11575 l 0.5553494,0.39825 H 8.3619355 l -0.3720704,-0.27836 q -0.146072,0.0455 -0.3197048,0.0455 z m 0.016536,-1.83279 q -0.3114366,0 -0.50574,0.22462 -0.1943034,0.22462 -0.1943034,0.5898 0,0.3638 0.1887913,0.58842 0.1901692,0.22186 0.4947157,0.22186 0.325217,0 0.5126302,-0.21222 0.1874132,-0.21221 0.1874132,-0.59393 0,-0.39274 -0.1819011,-0.60496 -0.181901,-0.21359 -0.5016059,-0.21359 z" />
      <path
         inkscape:connector-curvature="0"
         id="path1268"
         style="fill:#ffffff;stroke-width:0.26458332"
         d="m 9.9136065,281.79471 v 1.305 h 0.2535595 v 0.2067 H 9.9136065 v 0.4644 H 9.6903643 v -0.4644 H 8.7615666 v -0.19568 q 0.1295356,-0.14607 0.2618272,-0.31143 0.1322917,-0.16675 0.252181,-0.33762 0.1212674,-0.17088 0.2232422,-0.34038 0.1033529,-0.17088 0.1736328,-0.32659 z m -0.8971029,1.305 h 0.6738607 v -0.96738 q -0.1033528,0.18052 -0.1956814,0.32246 -0.092329,0.14193 -0.1763889,0.25769 -0.082682,0.11575 -0.1584744,0.20946 -0.075792,0.0937 -0.143316,0.17777 z" />
    </g>
  </g>
  <g
     inkscape:groupmode="layer"
     id="layer2"
     inkscape:label="Grid"
     style="display:none"
     sodipodi:insensitive="true">
    <g
       transform="translate(3.1496063e-6,3.333209e-6)"
       style="display:inline;stroke:#ffffff"
       id="g953">
      <circle
         style="display:inline;opacity:1;fill:none;fill-opacity:1;stroke:#ffffff;stroke-width:0.05172414;stroke-linecap:square;stroke-linejoin:round;stroke-miterlimit:4;stroke-dasharray:none;stroke-dashoffset:0;stroke-opacity:1;paint-order:markers fill stroke"
         id="circle1336"
         cx="7.9360795"
         cy="13.229558"
         r="5.4741378" />
      <circle
         r="5.4741378"
         cy="25.400398"
         cx="7.9360795"
         id="circle881"
         style="display:inline;opacity:1;fill:none;fill-opacity:1;stroke:#ffffff;stroke-width:0.05172414;stroke-linecap:square;stroke-linejoin:round;stroke-miterlimit:4;stroke-dasharray:none;stroke-dashoffset:0;stroke-opacity:1;paint-order:markers fill stroke" />
      <circle
         style="display:inline;opacity:1;fill:none;fill-opacity:1;stroke:#ffffff;stroke-width:0.05172414;stroke-linecap:square;stroke-linejoin:round;stroke-miterlimit:4;stroke-dasharray:none;stroke-dashoffset:0;stroke-opacity:1;paint-order:markers fill stroke"
         id="circle883"
         cx="7.9360795"
         cy="37.571243"
         r="5.4741378" />
      <circle
         r="5.4741378"
         cy="49.742088"
         cx="7.9360795"
         id="circle885"
         style="display:inline;opacity:1;fill:none;fill-opacity:1;stroke:#ffffff;stroke-width:0.05172414;stroke-linecap:square;stroke-linejoin:round;stroke-miterlimit:4;stroke-dasharray:none;stroke-dashoffset:0;stroke-opacity:1;paint-order:markers fill stroke" />
      <circle
         style="display:inline;opacity:1;fill:none;fill-opacity:1;stroke:#ffffff;stroke-width:0.05172414;stroke-linecap:square;stroke-linejoin:round;stroke-miterlimit:4;stroke-dasharray:none;stroke-dashoffset:0;stroke-opacity:1;paint-order:markers fill stroke"
         id="circle887"
         cx="7.9360795"
         cy="61.912933"
         r="5.4741378" />
      <circle
         r="5.4741378"
         cy="74.083778"
         cx="7.9360795"
         id="circle889"
         style="display:inline;opacity:1;fill:none;fill-opacity:1;stroke:#ffffff;stroke-width:0.05172414;stroke-linecap:square;stroke-linejoin:round;stroke-miterlimit:4;stroke-dasharray:none;stroke-dashoffset:0;stroke-opacity:1;paint-order:markers fill stroke" />
      <circle
         style="display:inline;opacity:1;fill:none;fill-opacity:1;stroke:#ffffff;stroke-width:0.05172414;stroke-linecap:square;stroke-linejoin:round;stroke-miterlimit:4;stroke-dasharray:none;stroke-dashoffset:0;stroke-opacity:1;paint-order:markers fill stroke"
         id="circle891"
         cx="7.9360795"
         cy="86.254623"
         r="5.4741378" />
      <text
         id="text3821-7"
         y="5.2916646"
         x="17.197916"
         style="font-style:normal;font-weight:normal;font-size:2.82222223px;line-height:1.25;font-family:sans-serif;letter-spacing:0px;word-spacing:0px;display:inline;fill:#000000;fill-opacity:1;stroke:#ffffff;stroke-width:0.26458332"
         xml:space="preserve"><tspan
           style="stroke:#ffffff;stroke-width:0.26458332"
           y="7.7886696"
           x="17.197916"
           id="tspan3819-3"
           sodipodi:role="line" /></text>
      <path
         style="display:inline;fill:none;stroke:#ffffff;stroke-width:0.05;stroke-linecap:butt;stroke-linejoin:miter;stroke-miterlimit:4;stroke-dasharray:none;stroke-opacity:1"
         d="m 7.9375,-1e-5 -3e-6,100.54167"
         id="path881-8"
         inkscape:connector-curvature="0"
         sodipodi:nodetypes="cc" />
      <path
         sodipodi:nodetypes="cc"
         inkscape:connector-curvature="0"
         id="path890-2"
         d="m 3.968752,0 -4e-6,100.54167"
         style="display:inline;fill:none;stroke:#ffffff;stroke-width:0.05;stroke-linecap:butt;stroke-linejoin:miter;stroke-miterlimit:4;stroke-dasharray:none;stroke-opacity:1" />
      <path
         style="display:inline;fill:none;stroke:#ffffff;stroke-width:0.05;stroke-linecap:butt;stroke-linejoin:miter;stroke-miterlimit:4;stroke-dasharray:none;stroke-opacity:1"
         d="m 11.906253,0 -4e-6,100.54167"
         id="path895-1"
         inkscape:connector-curvature="0"
         sodipodi:nodetypes="cc" />
      <path
         sodipodi:nodetypes="cc"
         inkscape:connector-curvature="0"
         id="path905-6"
         d="m 0,13.22881 15.875,3.6e-4"
         style="display:inline;fill:none;stroke:#ffffff;stroke-width:0.05;stroke-linecap:butt;stroke-linejoin:miter;stroke-miterlimit:4;stroke-dasharray:none;stroke-opacity:1" />
      <path
         sodipodi:nodetypes="cc"
         style="display:inline;fill:none;stroke:#ffffff;stroke-width:0.05;stroke-linecap:butt;stroke-linejoin:miter;stroke-miterlimit:4;stroke-dasharray:none;stroke-opacity:1"
         d="M 0,25.40004 15.875,25.4"
         id="path931-4"
         inkscape:connector-curvature="0" />
      <path
         sodipodi:nodetypes="cc"
         inkscape:connector-curvature="0"
         id="path933-5"
         d="m 0,37.56925 15.875,0.002"
         style="display:inline;fill:none;stroke:#ffffff;stroke-width:0.05;stroke-linecap:butt;stroke-linejoin:miter;stroke-miterlimit:4;stroke-dasharray:none;stroke-opacity:1" />
      <path
         sodipodi:nodetypes="cc"
         inkscape:connector-curvature="0"
         id="path940"
         d="m 0,49.74009 15.875,0.002"
         style="display:inline;fill:none;stroke:#ffffff;stroke-width:0.05;stroke-linecap:butt;stroke-linejoin:miter;stroke-miterlimit:4;stroke-dasharray:none;stroke-opacity:1" />
      <path
         sodipodi:nodetypes="cc"
         style="display:inline;fill:none;stroke:#ffffff;stroke-width:0.05;stroke-linecap:butt;stroke-linejoin:miter;stroke-miterlimit:4;stroke-dasharray:none;stroke-opacity:1"
         d="m 0,61.91093 15.875,0.002"
         id="path950-7"
         inkscape:connector-curvature="0" />
      <path
         sodipodi:nodetypes="cc"
         inkscape:connector-curvature="0"
         id="path973-9"
         d="m 0,74.08177 15.875,0.002"
         style="display:inline;fill:none;stroke:#ffffff;stroke-width:0.05;stroke-linecap:butt;stroke-linejoin:miter;stroke-miterlimit:4;stroke-dasharray:none;stroke-opacity:1" />
      <path
         sodipodi:nodetypes="cc"
         style="display:inline;fill:none;stroke:#ffffff;stroke-width:0.05;stroke-linecap:butt;stroke-linejoin:miter;stroke-miterlimit:4;stroke-dasharray:none;stroke-opacity:1"
         d="m 0,86.25261 15.875,0.002"
         id="path1013"
         inkscape:connector-curvature="0" />
      <circle
         r="4.0999999"
         cy="13.227975"
         cx="7.9523039"
         id="circle958"
         style="display:inline;opacity:1;fill:none;fill-opacity:1;stroke:#ffffff;stroke-width:0.05;stroke-linecap:square;stroke-linejoin:round;stroke-miterlimit:4;stroke-dasharray:none;stroke-dashoffset:0;stroke-opacity:1;paint-order:markers fill stroke" />
      <circle
         style="display:inline;opacity:1;fill:none;fill-opacity:1;stroke:#ffffff;stroke-width:0.05;stroke-linecap:square;stroke-linejoin:round;stroke-miterlimit:4;stroke-dasharray:none;stroke-dashoffset:0;stroke-opacity:1;paint-order:markers fill stroke"
         id="circle964"
         cx="7.9523039"
         cy="25.398811"
         r="4.0999999" />
      <circle
         r="4.0999999"
         cy="37.569649"
         cx="7.9523039"
         id="circle972"
         style="display:inline;opacity:1;fill:none;fill-opacity:1;stroke:#ffffff;stroke-width:0.05;stroke-linecap:square;stroke-linejoin:round;stroke-miterlimit:4;stroke-dasharray:none;stroke-dashoffset:0;stroke-opacity:1;paint-order:markers fill stroke" />
      <circle
         style="display:inline;opacity:1;fill:none;fill-opacity:1;stroke:#ffffff;stroke-width:0.05;stroke-linecap:square;stroke-linejoin:round;stroke-miterlimit:4;stroke-dasharray:none;stroke-dashoffset:0;stroke-opacity:1;paint-order:markers fill stroke"
         id="circle980"
         cx="7.9523039"
         cy="49.740501"
         r="4.0999999" />
      <circle
         r="4.0999999"
         cy="61.911339"
         cx="7.9523039"
         id="circle988"
         style="display:inline;opacity:1;fill:none;fill-opacity:1;stroke:#ffffff;stroke-width:0.05;stroke-linecap:square;stroke-linejoin:round;stroke-miterlimit:4;stroke-dasharray:none;stroke-dashoffset:0;stroke-opacity:1;paint-order:markers fill stroke" />
      <circle
         style="display:inline;opacity:1;fill:none;fill-opacity:1;stroke:#ffffff;stroke-width:0.05;stroke-linecap:square;stroke-linejoin:round;stroke-miterlimit:4;stroke-dasharray:none;stroke-dashoffset:0;stroke-opacity:1;paint-order:markers fill stroke"
         id="circle996"
         cx="7.9523039"
         cy="74.082176"
         r="4.0999999" />
      <circle
         r="4.0999999"
         cy="86.253014"
         cx="7.9523039"
         id="circle1004"
         style="display:inline;opacity:1;fill:none;fill-opacity:1;stroke:#ffffff;stroke-width:0.05;stroke-linecap:square;stroke-linejoin:round;stroke-miterlimit:4;stroke-dasharray:none;stroke-dashoffset:0;stroke-opacity:1;paint-order:markers fill stroke" />
    </g>
    <g
       id="g1901"
       style="display:inline;stroke:#ffffff"
       transform="translate(15.875,3.333209e-6)">
      <circle
         r="5.4741378"
         cy="13.229558"
         cx="7.9360795"
         id="circle1849"
         style="display:inline;opacity:1;fill:none;fill-opacity:1;stroke:#ffffff;stroke-width:0.05172414;stroke-linecap:square;stroke-linejoin:round;stroke-miterlimit:4;stroke-dasharray:none;stroke-dashoffset:0;stroke-opacity:1;paint-order:markers fill stroke" />
      <circle
         style="display:inline;opacity:1;fill:none;fill-opacity:1;stroke:#ffffff;stroke-width:0.05172414;stroke-linecap:square;stroke-linejoin:round;stroke-miterlimit:4;stroke-dasharray:none;stroke-dashoffset:0;stroke-opacity:1;paint-order:markers fill stroke"
         id="circle1851"
         cx="7.9360795"
         cy="25.400398"
         r="5.4741378" />
      <circle
         r="5.4741378"
         cy="37.571243"
         cx="7.9360795"
         id="circle1853"
         style="display:inline;opacity:1;fill:none;fill-opacity:1;stroke:#ffffff;stroke-width:0.05172414;stroke-linecap:square;stroke-linejoin:round;stroke-miterlimit:4;stroke-dasharray:none;stroke-dashoffset:0;stroke-opacity:1;paint-order:markers fill stroke" />
      <circle
         style="display:inline;opacity:1;fill:none;fill-opacity:1;stroke:#ffffff;stroke-width:0.05172414;stroke-linecap:square;stroke-linejoin:round;stroke-miterlimit:4;stroke-dasharray:none;stroke-dashoffset:0;stroke-opacity:1;paint-order:markers fill stroke"
         id="circle1855"
         cx="7.9360795"
         cy="49.742088"
         r="5.4741378" />
      <circle
         r="5.4741378"
         cy="61.912933"
         cx="7.9360795"
         id="circle1857"
         style="display:inline;opacity:1;fill:none;fill-opacity:1;stroke:#ffffff;stroke-width:0.05172414;stroke-linecap:square;stroke-linejoin:round;stroke-miterlimit:4;stroke-dasharray:none;stroke-dashoffset:0;stroke-opacity:1;paint-order:markers fill stroke" />
      <circle
         style="display:inline;opacity:1;fill:none;fill-opacity:1;stroke:#ffffff;stroke-width:0.05172414;stroke-linecap:square;stroke-linejoin:round;stroke-miterlimit:4;stroke-dasharray:none;stroke-dashoffset:0;stroke-opacity:1;paint-order:markers fill stroke"
         id="circle1859"
         cx="7.9360795"
         cy="74.083778"
         r="5.4741378" />
      <circle
         r="5.4741378"
         cy="86.254623"
         cx="7.9360795"
         id="circle1861"
         style="display:inline;opacity:1;fill:none;fill-opacity:1;stroke:#ffffff;stroke-width:0.05172414;stroke-linecap:square;stroke-linejoin:round;stroke-miterlimit:4;stroke-dasharray:none;stroke-dashoffset:0;stroke-opacity:1;paint-order:markers fill stroke" />
      <text
         xml:space="preserve"
         style="font-style:normal;font-weight:normal;font-size:2.82222223px;line-height:1.25;font-family:sans-serif;letter-spacing:0px;word-spacing:0px;display:inline;fill:#000000;fill-opacity:1;stroke:#ffffff;stroke-width:0.26458332"
         x="17.197916"
         y="5.2916646"
         id="text1865"><tspan
           sodipodi:role="line"
           id="tspan1863"
           x="17.197916"
           y="7.7886696"
           style="stroke:#ffffff;stroke-width:0.26458332" /></text>
      <path
         sodipodi:nodetypes="cc"
         inkscape:connector-curvature="0"
         id="path1867"
         d="m 7.9375,-1e-5 -3e-6,100.54167"
         style="display:inline;fill:none;stroke:#ffffff;stroke-width:0.05;stroke-linecap:butt;stroke-linejoin:miter;stroke-miterlimit:4;stroke-dasharray:none;stroke-opacity:1" />
      <path
         style="display:inline;fill:none;stroke:#ffffff;stroke-width:0.05;stroke-linecap:butt;stroke-linejoin:miter;stroke-miterlimit:4;stroke-dasharray:none;stroke-opacity:1"
         d="m 3.968752,0 -4e-6,100.54167"
         id="path1869"
         inkscape:connector-curvature="0"
         sodipodi:nodetypes="cc" />
      <path
         sodipodi:nodetypes="cc"
         inkscape:connector-curvature="0"
         id="path1871"
         d="m 11.906253,0 -4e-6,100.54167"
         style="display:inline;fill:none;stroke:#ffffff;stroke-width:0.05;stroke-linecap:butt;stroke-linejoin:miter;stroke-miterlimit:4;stroke-dasharray:none;stroke-opacity:1" />
      <path
         style="display:inline;fill:none;stroke:#ffffff;stroke-width:0.05;stroke-linecap:butt;stroke-linejoin:miter;stroke-miterlimit:4;stroke-dasharray:none;stroke-opacity:1"
         d="m 0,13.22881 15.875,3.6e-4"
         id="path1873"
         inkscape:connector-curvature="0"
         sodipodi:nodetypes="cc" />
      <path
         inkscape:connector-curvature="0"
         id="path1875"
         d="M 0,25.40004 15.875,25.4"
         style="display:inline;fill:none;stroke:#ffffff;stroke-width:0.05;stroke-linecap:butt;stroke-linejoin:miter;stroke-miterlimit:4;stroke-dasharray:none;stroke-opacity:1"
         sodipodi:nodetypes="cc" />
      <path
         style="display:inline;fill:none;stroke:#ffffff;stroke-width:0.05;stroke-linecap:butt;stroke-linejoin:miter;stroke-miterlimit:4;stroke-dasharray:none;stroke-opacity:1"
         d="m 0,37.56925 15.875,0.002"
         id="path1877"
         inkscape:connector-curvature="0"
         sodipodi:nodetypes="cc" />
      <path
         style="display:inline;fill:none;stroke:#ffffff;stroke-width:0.05;stroke-linecap:butt;stroke-linejoin:miter;stroke-miterlimit:4;stroke-dasharray:none;stroke-opacity:1"
         d="m 0,49.74009 15.875,0.002"
         id="path1879"
         inkscape:connector-curvature="0"
         sodipodi:nodetypes="cc" />
      <path
         inkscape:connector-curvature="0"
         id="path1881"
         d="m 0,61.91093 15.875,0.002"
         style="display:inline;fill:none;stroke:#ffffff;stroke-width:0.05;stroke-linecap:butt;stroke-linejoin:miter;stroke-miterlimit:4;stroke-dasharray:none;stroke-opacity:1"
         sodipodi:nodetypes="cc" />
      <path
         style="display:inline;fill:none;stroke:#ffffff;stroke-width:0.05;stroke-linecap:butt;stroke-linejoin:miter;stroke-miterlimit:4;stroke-dasharray:none;stroke-opacity:1"
         d="m 0,74.08177 15.875,0.002"
         id="path1883"
         inkscape:connector-curvature="0"
         sodipodi:nodetypes="cc" />
      <path
         inkscape:connector-curvature="0"
         id="path1885"
         d="m 0,86.25261 15.875,0.002"
         style="display:inline;fill:none;stroke:#ffffff;stroke-width:0.05;stroke-linecap:butt;stroke-linejoin:miter;stroke-miterlimit:4;stroke-dasharray:none;stroke-opacity:1"
         sodipodi:nodetypes="cc" />
      <circle
         style="display:inline;opacity:1;fill:none;fill-opacity:1;stroke:#ffffff;stroke-width:0.05;stroke-linecap:square;stroke-linejoin:round;stroke-miterlimit:4;stroke-dasharray:none;stroke-dashoffset:0;stroke-opacity:1;paint-order:markers fill stroke"
         id="circle1887"
         cx="7.9523039"
         cy="13.227975"
         r="4.0999999" />
      <circle
         r="4.0999999"
         cy="25.398811"
         cx="7.9523039"
         id="circle1889"
         style="display:inline;opacity:1;fill:none;fill-opacity:1;stroke:#ffffff;stroke-width:0.05;stroke-linecap:square;stroke-linejoin:round;stroke-miterlimit:4;stroke-dasharray:none;stroke-dashoffset:0;stroke-opacity:1;paint-order:markers fill stroke" />
      <circle
         style="display:inline;opacity:1;fill:none;fill-opacity:1;stroke:#ffffff;stroke-width:0.05;stroke-linecap:square;stroke-linejoin:round;stroke-miterlimit:4;stroke-dasharray:none;stroke-dashoffset:0;stroke-opacity:1;paint-order:markers fill stroke"
         id="circle1891"
         cx="7.9523039"
         cy="37.569649"
         r="4.0999999" />
      <circle
         r="4.0999999"
         cy="49.740501"
         cx="7.9523039"
         id="circle1893"
         style="display:inline;opacity:1;fill:none;fill-opacity:1;stroke:#ffffff;stroke-width:0.05;stroke-linecap:square;stroke-linejoin:round;stroke-miterlimit:4;stroke-dasharray:none;stroke-dashoffset:0;stroke-opacity:1;paint-order:markers fill stroke" />
      <circle
         style="display:inline;opacity:1;fill:none;fill-opacity:1;stroke:#ffffff;stroke-width:0.05;stroke-linecap:square;stroke-linejoin:round;stroke-miterlimit:4;stroke-dasharray:none;stroke-dashoffset:0;stroke-opacity:1;paint-order:markers fill stroke"
         id="circle1895"
         cx="7.9523039"
         cy="61.911339"
         r="4.0999999" />
      <circle
         r="4.0999999"
         cy="74.082176"
         cx="7.9523039"
         id="circle1897"
         style="display:inline;opacity:1;fill:none;fill-opacity:1;stroke:#ffffff;stroke-width:0.05;stroke-linecap:square;stroke-linejoin:round;stroke-miterlimit:4;stroke-dasharray:none;stroke-dashoffset:0;stroke-opacity:1;paint-order:markers fill stroke" />
      <circle
         style="display:inline;opacity:1;fill:none;fill-opacity:1;stroke:#ffffff;stroke-width:0.05;stroke-linecap:square;stroke-linejoin:round;stroke-miterlimit:4;stroke-dasharray:none;stroke-dashoffset:0;stroke-opacity:1;paint-order:markers fill stroke"
         id="circle1899"
         cx="7.9523039"
         cy="86.253014"
         r="4.0999999" />
    </g>
  </g>
</svg>
