<?xml version="1.0" encoding="UTF-8" standalone="no"?>
<!-- Created with Inkscape (http://www.inkscape.org/) -->

<svg
   xmlns:dc="http://purl.org/dc/elements/1.1/"
   xmlns:cc="http://creativecommons.org/ns#"
   xmlns:rdf="http://www.w3.org/1999/02/22-rdf-syntax-ns#"
   xmlns:svg="http://www.w3.org/2000/svg"
   xmlns="http://www.w3.org/2000/svg"
   xmlns:sodipodi="http://sodipodi.sourceforge.net/DTD/sodipodi-0.dtd"
   xmlns:inkscape="http://www.inkscape.org/namespaces/inkscape"
   width="120"
   height="380"
   viewBox="0 0 31.750002 100.54167"
   version="1.1"
   id="svg8"
   inkscape:version="0.92.4 (5da689c313, 2019-01-14)"
   sodipodi:docname="CD4031.svg">
  <defs
     id="defs2">
    <pattern
       y="0"
       x="0"
       height="6"
       width="6"
       patternUnits="userSpaceOnUse"
       id="EMFhbasepattern" />
  </defs>
  <sodipodi:namedview
     id="base"
     pagecolor="#ffffff"
     bordercolor="#666666"
     borderopacity="1.0"
     inkscape:pageopacity="0.0"
     inkscape:pageshadow="2"
     inkscape:zoom="16.000001"
     inkscape:cx="73.280231"
     inkscape:cy="255.81877"
     inkscape:document-units="mm"
     inkscape:current-layer="layer1"
     showgrid="true"
     units="px"
     inkscape:snap-bbox="true"
     inkscape:snap-page="true"
     inkscape:bbox-nodes="true"
     inkscape:snap-bbox-edge-midpoints="true"
     inkscape:window-width="1920"
     inkscape:window-height="1017"
     inkscape:window-x="-8"
     inkscape:window-y="-8"
     inkscape:window-maximized="1">
    <inkscape:grid
       type="xygrid"
       id="grid116" />
  </sodipodi:namedview>
  <metadata
     id="metadata5">
    <rdf:RDF>
      <cc:Work
         rdf:about="">
        <dc:format>image/svg+xml</dc:format>
        <dc:type
           rdf:resource="http://purl.org/dc/dcmitype/StillImage" />
        <dc:title />
      </cc:Work>
    </rdf:RDF>
  </metadata>
  <g
     inkscape:groupmode="layer"
     id="layer3"
     inkscape:label="Panel"
     style="display:inline"
     sodipodi:insensitive="true">
    <path
       sodipodi:type="inkscape:offset"
       inkscape:radius="0"
       inkscape:original="M 0 196.45898 L 0 297 L 15.875 297 L 15.875 196.45898 L 0 196.45898 z "
       style="fill:#894c26;fill-opacity:1;stroke-width:0.3310422"
       id="rect3855"
       d="M 0,196.45898 V 297 H 15.875 V 196.45898 Z"
       transform="matrix(2,0,0,1.0000064,0,-196.46023)" />
  </g>
  <g
     inkscape:label="Layer 1"
     inkscape:groupmode="layer"
     id="layer1"
     transform="translate(0,-196.45832)"
     style="display:inline">
    <text
       xml:space="preserve"
       style="font-style:normal;font-weight:normal;font-size:2.82222223px;line-height:1.25;font-family:sans-serif;letter-spacing:0px;word-spacing:0px;fill:#000000;fill-opacity:1;stroke:none;stroke-width:0.26458332"
       x="17.197916"
       y="201.74998"
       id="text3821"><tspan
         sodipodi:role="line"
         id="tspan3819"
         x="17.197916"
         y="204.24699"
         style="stroke-width:0.26458332" /></text>
    <g
       id="g4342">
      <g
         transform="translate(-9.481569,1.7166648)"
         id="text956"
         style="font-style:normal;font-variant:normal;font-weight:normal;font-stretch:normal;font-size:2.82222223px;line-height:1.25;font-family:'Copperplate Gothic Light';-inkscape-font-specification:'Copperplate Gothic Light, ';letter-spacing:0px;word-spacing:0px;fill:#ffe4b3;fill-opacity:1;stroke:#ffe4b3;stroke-width:0.2;stroke-miterlimit:4;stroke-dasharray:none;stroke-opacity:1"
         aria-label="/^M^\">
        <path
           inkscape:connector-curvature="0"
           id="path958"
           style="font-style:normal;font-variant:normal;font-weight:normal;font-stretch:normal;font-size:2.82222223px;line-height:1.25;font-family:'Copperplate Gothic Light';-inkscape-font-specification:'Copperplate Gothic Light, ';fill:#ffe4b3;stroke:#ffe4b3;stroke-width:0.2;stroke-miterlimit:4;stroke-dasharray:none;stroke-opacity:1"
           d="m 21.203855,291.40545 v 0.0386 h -0.434082 v -0.0386 q 0.09509,-0.006 0.224621,-0.17088 l 1.094162,-1.4621 q 0.07441,-0.1006 0.07441,-0.12402 0,-0.0372 -0.06615,-0.0482 v -0.0372 h 0.423058 v 0.0372 q -0.09508,0.006 -0.22462,0.17087 l -1.08176,1.46348 q -0.07579,0.10197 -0.07579,0.12402 0,0.0358 0.06615,0.0469 z" />
        <path
           inkscape:connector-curvature="0"
           id="path960"
           style="font-style:normal;font-variant:normal;font-weight:normal;font-stretch:normal;font-size:2.82222223px;line-height:1.25;font-family:'Copperplate Gothic Light';-inkscape-font-specification:'Copperplate Gothic Light, ';fill:#ffe4b3;stroke:#ffe4b3;stroke-width:0.2;stroke-miterlimit:4;stroke-dasharray:none;stroke-opacity:1"
           d="M 22.940183,290.3857 H 22.73899 l 0.493338,-0.8282 h 0.243912 l 0.493338,0.8282 h -0.20395 l -0.413411,-0.68075 z" />
        <path
           inkscape:connector-curvature="0"
           id="path962"
           style="font-style:normal;font-variant:normal;font-weight:normal;font-stretch:normal;font-size:2.82222223px;line-height:1.25;font-family:'Copperplate Gothic Light';-inkscape-font-specification:'Copperplate Gothic Light, ';fill:#ffe4b3;stroke:#ffe4b3;stroke-width:0.2;stroke-miterlimit:4;stroke-dasharray:none;stroke-opacity:1"
           d="m 25.342104,291.44403 -0.789616,-1.58061 v 1.418 q 0,0.0565 0.01791,0.0813 0.01791,0.0234 0.07028,0.0372 v 0.0441 h -0.373449 v -0.0441 q 0.05237,-0.0138 0.07028,-0.0372 0.01792,-0.0234 0.01792,-0.0813 v -1.5558 q 0,-0.0579 -0.01792,-0.0813 -0.01791,-0.0248 -0.07028,-0.0372 v -0.0441 h 0.487826 v 0.0441 q -0.06752,0.0234 -0.06752,0.0579 0,0.0165 0.04547,0.10611 l 0.62563,1.24161 0.628385,-1.25263 q 0.03307,-0.0661 0.03307,-0.0937 0,-0.0358 -0.06752,-0.0593 v -0.0441 h 0.49196 v 0.0441 q -0.05237,0.0138 -0.07028,0.0372 -0.01792,0.0234 -0.01792,0.0813 v 1.5558 q 0,0.0565 0.01792,0.0813 0.01791,0.0234 0.07028,0.0372 v 0.0441 h -0.392741 v -0.0441 q 0.05374,-0.0138 0.07028,-0.0372 0.01791,-0.0234 0.01791,-0.0813 v -1.418 z" />
        <path
           inkscape:connector-curvature="0"
           id="path964"
           style="font-style:normal;font-variant:normal;font-weight:normal;font-stretch:normal;font-size:2.82222223px;line-height:1.25;font-family:'Copperplate Gothic Light';-inkscape-font-specification:'Copperplate Gothic Light, ';fill:#ffe4b3;stroke:#ffe4b3;stroke-width:0.2;stroke-miterlimit:4;stroke-dasharray:none;stroke-opacity:1"
           d="m 26.942006,290.3857 h -0.201193 l 0.493338,-0.8282 h 0.243912 l 0.493338,0.8282 h -0.20395 l -0.413411,-0.68075 z" />
        <path
           inkscape:connector-curvature="0"
           id="path966"
           style="font-style:normal;font-variant:normal;font-weight:normal;font-stretch:normal;font-size:2.82222223px;line-height:1.25;font-family:'Copperplate Gothic Light';-inkscape-font-specification:'Copperplate Gothic Light, ';fill:#ffe4b3;stroke:#ffe4b3;stroke-width:0.2;stroke-miterlimit:4;stroke-dasharray:none;stroke-opacity:1"
           d="m 28.617701,289.56301 v 0.0372 q -0.06615,0.011 -0.06615,0.0482 0,0.0234 0.07441,0.12402 l 1.092784,1.4621 q 0.129536,0.16536 0.22462,0.17088 v 0.0386 h -0.434082 v -0.0386 q 0.06615,-0.011 0.06615,-0.0469 0,-0.0207 -0.07579,-0.12402 l -1.080382,-1.46348 q -0.129535,-0.16536 -0.22462,-0.17087 v -0.0372 z" />
      </g>
      <g
         id="text924"
         style="font-style:normal;font-variant:normal;font-weight:normal;font-stretch:normal;font-size:2.97226882px;line-height:1.25;font-family:'Yu Gothic UI';-inkscape-font-specification:'Yu Gothic UI';letter-spacing:0px;word-spacing:0px;fill:#ffe4b3;fill-opacity:1;stroke:none;stroke-width:0.24768905"
         aria-label="LUNETTA">
        <path
           id="path892"
           style="font-size:2.97226882px;fill:#ffe4b3;stroke-width:0.24768905"
           d="M 11.061028,295.90683 H 9.9812581 v -2.08117 h 0.2438189 v 1.86057 h 0.835951 z"
           inkscape:connector-curvature="0" />
        <path
           id="path894"
           style="font-size:2.97226882px;fill:#ffe4b3;stroke-width:0.24768905"
           d="m 12.902731,295.06507 q 0,0.87659 -0.79096,0.87659 -0.75758,0 -0.75758,-0.84321 v -1.27279 h 0.243819 v 1.25683 q 0,0.64002 0.539885,0.64002 0.521017,0 0.521017,-0.61825 v -1.2786 h 0.243819 z"
           inkscape:connector-curvature="0" />
        <path
           id="path896"
           style="font-size:2.97226882px;fill:#ffe4b3;stroke-width:0.24768905"
           d="m 15.101456,295.90683 h -0.298969 l -1.071062,-1.65884 q -0.04064,-0.0624 -0.06676,-0.13062 h -0.0087 q 0.01161,0.0668 0.01161,0.28591 v 1.50355 h -0.243819 v -2.08117 h 0.316384 l 1.042036,1.63272 q 0.06531,0.10159 0.08418,0.13932 h 0.0058 q -0.01451,-0.09 -0.01451,-0.30622 v -1.46582 h 0.243819 z"
           inkscape:connector-curvature="0" />
        <path
           id="path898"
           style="font-size:2.97226882px;fill:#ffe4b3;stroke-width:0.24768905"
           d="m 16.750136,295.90683 h -1.102991 v -2.08117 h 1.056549 v 0.2206 h -0.81273 v 0.69227 h 0.751775 v 0.21915 h -0.751775 v 0.72855 h 0.859172 z"
           inkscape:connector-curvature="0" />
        <path
           id="path900"
           style="font-size:2.97226882px;fill:#ffe4b3;stroke-width:0.24768905"
           d="m 18.381401,294.04626 h -0.60084 v 1.86057 h -0.243819 v -1.86057 h -0.599388 v -0.2206 h 1.444047 z"
           inkscape:connector-curvature="0" />
        <path
           id="path902"
           style="font-size:2.97226882px;fill:#ffe4b3;stroke-width:0.24768905"
           d="m 19.937197,294.04626 h -0.600839 v 1.86057 h -0.243819 v -1.86057 h -0.599388 v -0.2206 h 1.444046 z"
           inkscape:connector-curvature="0" />
        <path
           id="path904"
           style="font-size:2.97226882px;fill:#ffe4b3;stroke-width:0.24768905"
           d="M 21.768742,295.90683 H 21.4988 l -0.220598,-0.58342 h -0.882393 l -0.207536,0.58342 h -0.271394 l 0.798217,-2.08117 h 0.252527 z m -0.570362,-0.80257 -0.326543,-0.88675 q -0.01596,-0.0435 -0.03193,-0.13932 h -0.0058 q -0.01451,0.0885 -0.03338,0.13932 l -0.323641,0.88675 z"
           inkscape:connector-curvature="0" />
      </g>
    </g>
    <text
       xml:space="preserve"
       style="font-style:normal;font-variant:normal;font-weight:normal;font-stretch:normal;font-size:2.82222223px;line-height:1.25;font-family:'Yu Gothic UI';-inkscape-font-specification:'Yu Gothic UI';letter-spacing:0px;word-spacing:0px;fill:#000000;fill-opacity:1;stroke:none;stroke-width:0.26458332"
       x="6.614583"
       y="273.1875"
       id="text1005"><tspan
         sodipodi:role="line"
         id="tspan1003"
         x="6.614583"
         y="275.72961"
         style="stroke-width:0.26458332" /></text>
    <path
       style="display:inline;fill:none;stroke:#ffe4b3;stroke-width:0.26458332px;stroke-linecap:butt;stroke-linejoin:miter;stroke-opacity:1"
       d="m 2.6458332,272.82044 -1.7e-5,11.64149 H 13.229146 l 2.1e-5,-11.64149 z"
       id="path1208"
       inkscape:connector-curvature="0"
       sodipodi:nodetypes="ccccc" />
    <g
       aria-label="CLOCK"
       style="font-style:normal;font-variant:normal;font-weight:normal;font-stretch:normal;font-size:2.82222223px;line-height:1.25;font-family:'Yu Gothic UI';-inkscape-font-specification:'Yu Gothic UI';letter-spacing:0px;word-spacing:0px;fill:#ffe4b3;fill-opacity:1;stroke:none;stroke-width:0.26458332"
       id="text977"
       transform="translate(-0.37482666,-34.895987)">
      <path
         d="m 5.5727865,244.00063 q -0.2191081,0.11576 -0.5457032,0.11576 -0.4216797,0 -0.6752387,-0.27148 -0.253559,-0.27147 -0.253559,-0.71244 0,-0.47405 0.2852539,-0.76619 0.2852539,-0.29215 0.7234701,-0.29215 0.2811197,0 0.4657769,0.0813 v 0.24667 q -0.2122179,-0.11851 -0.468533,-0.11851 -0.3403755,0 -0.5525933,0.22737 -0.2108399,0.22738 -0.2108399,0.60772 0,0.36104 0.1970595,0.57602 0.1984375,0.21359 0.5195204,0.21359 0.2976562,0 0.5153863,-0.13229 z"
         style="fill:#ffe4b3;stroke-width:0.26458332"
         id="path980"
         inkscape:connector-curvature="0" />
      <path
         d="M 7.0004341,244.08331 H 5.9751737 v -1.9761 h 0.2315104 v 1.76664 h 0.79375 z"
         style="fill:#ffe4b3;stroke-width:0.26458332"
         id="path982"
         inkscape:connector-curvature="0" />
      <path
         d="m 8.0725479,244.11639 q -0.4203017,0 -0.6738607,-0.27699 -0.252181,-0.27699 -0.252181,-0.72071 0,-0.4768 0.2576932,-0.76068 0.2576931,-0.28388 0.7014214,-0.28388 0.4092774,0 0.6587023,0.27561 0.2508029,0.27561 0.2508029,0.72071 0,0.4837 -0.2563151,0.76482 -0.2563151,0.28112 -0.686263,0.28112 z m 0.016537,-1.83279 q -0.3114367,0 -0.5057401,0.22462 -0.1943034,0.22462 -0.1943034,0.5898 0,0.36518 0.1887913,0.58842 0.1901693,0.22186 0.4947157,0.22186 0.325217,0 0.5126302,-0.21222 0.1874132,-0.21221 0.1874132,-0.59393 0,-0.39136 -0.181901,-0.60496 -0.1819011,-0.21359 -0.5016059,-0.21359 z"
         style="fill:#ffe4b3;stroke-width:0.26458332"
         id="path984"
         inkscape:connector-curvature="0" />
      <path
         d="m 10.748698,244.00063 q -0.219108,0.11576 -0.545703,0.11576 -0.4216799,0 -0.675239,-0.27148 -0.253559,-0.27147 -0.253559,-0.71244 0,-0.47405 0.2852539,-0.76619 0.2852539,-0.29215 0.7234701,-0.29215 0.28112,0 0.465777,0.0813 v 0.24667 q -0.212218,-0.11851 -0.468533,-0.11851 -0.3403755,0 -0.5525934,0.22737 -0.2108399,0.22738 -0.2108399,0.60772 0,0.36104 0.1970595,0.57602 0.1984375,0.21359 0.5195208,0.21359 0.297656,0 0.515386,-0.13229 z"
         style="fill:#ffe4b3;stroke-width:0.26458332"
         id="path991"
         inkscape:connector-curvature="0" />
      <path
         d="m 12.526367,244.08331 h -0.322461 l -0.763433,-0.90399 q -0.04272,-0.051 -0.05236,-0.0689 h -0.0055 v 0.97289 h -0.231511 v -1.9761 h 0.231511 v 0.92879 h 0.0055 q 0.01929,-0.0303 0.05236,-0.0675 l 0.738629,-0.86127 h 0.28801 l -0.847494,0.94809 z"
         style="fill:#ffe4b3;stroke-width:0.26458332"
         id="path993"
         inkscape:connector-curvature="0" />
    </g>
    <g
       aria-label="RECIRCULATE"
       style="font-style:normal;font-variant:normal;font-weight:normal;font-stretch:normal;font-size:2.82222223px;line-height:1.25;font-family:'Yu Gothic UI';-inkscape-font-specification:'Yu Gothic UI';letter-spacing:0px;word-spacing:0px;fill:#ffe4b3;fill-opacity:1;stroke:none;stroke-width:0.26458332"
       id="text998"
       transform="translate(2.0587891,-27.191818)">
      <path
         d="M 6.967361,286.41666 H 6.6917533 l -0.3307291,-0.55397 q -0.045475,-0.0772 -0.088195,-0.13092 -0.042719,-0.0551 -0.088194,-0.0896 -0.044097,-0.0344 -0.096463,-0.0496 -0.050987,-0.0165 -0.1157552,-0.0165 H 5.7822481 v 0.84061 H 5.5507377 v -1.97611 H 6.140538 q 0.1295356,0 0.2384006,0.0331 0.1102431,0.0317 0.1901693,0.0978 0.081304,0.0661 0.1267795,0.16537 0.045475,0.0978 0.045475,0.23013 0,0.10335 -0.031695,0.19017 -0.030317,0.0854 -0.088194,0.15296 -0.0565,0.0675 -0.1378038,0.11576 -0.079926,0.0468 -0.1805231,0.073 v 0.006 q 0.049609,0.022 0.085438,0.051 0.037207,0.0276 0.07028,0.0661 0.033073,0.0386 0.064768,0.0882 0.033073,0.0482 0.073036,0.113 z m -1.1851129,-1.76665 v 0.71658 h 0.3141927 q 0.086816,0 0.1598524,-0.0262 0.074414,-0.0262 0.1281576,-0.0744 0.053744,-0.0496 0.08406,-0.11988 0.030317,-0.0717 0.030317,-0.15986 0,-0.15847 -0.1033529,-0.24667 -0.1019748,-0.0896 -0.2962782,-0.0896 z"
         style="fill:#ffe4b3;stroke-width:0.26458332"
         id="path1001"
         inkscape:connector-curvature="0" />
      <path
         d="m 8.2847654,286.41666 h -1.047309 v -1.97611 h 1.0032118 v 0.20946 H 7.4689668 v 0.65733 h 0.7138238 v 0.20808 H 7.4689668 v 0.69177 h 0.8157986 z"
         style="fill:#ffe4b3;stroke-width:0.26458332"
         id="path1003"
         inkscape:connector-curvature="0" />
      <path
         d="m 10.010069,286.33397 q -0.2191078,0.11576 -0.5457029,0.11576 -0.4216797,0 -0.6752387,-0.27147 -0.253559,-0.27148 -0.253559,-0.71245 0,-0.47405 0.2852539,-0.76619 0.2852539,-0.29214 0.7234701,-0.29214 0.2811197,0 0.4657766,0.0813 v 0.24667 q -0.2122176,-0.11851 -0.4685327,-0.11851 -0.3403755,0 -0.5525933,0.22737 -0.2108399,0.22738 -0.2108399,0.60772 0,0.36105 0.1970595,0.57602 0.1984375,0.2136 0.5195204,0.2136 0.2976562,0 0.515386,-0.1323 z"
         style="fill:#ffe4b3;stroke-width:0.26458332"
         id="path1005"
         inkscape:connector-curvature="0" />
      <path
         d="m 10.643967,286.41666 h -0.231511 v -1.97611 h 0.231511 z"
         style="fill:#ffe4b3;stroke-width:0.26458332"
         id="path1007"
         inkscape:connector-curvature="0" />
      <path
         d="m 12.578732,286.41666 h -0.275607 l -0.330729,-0.55397 q -0.04548,-0.0772 -0.0882,-0.13092 -0.04272,-0.0551 -0.08819,-0.0896 -0.0441,-0.0344 -0.09646,-0.0496 -0.05099,-0.0165 -0.115755,-0.0165 H 11.39362 v 0.84061 h -0.231511 v -1.97611 h 0.589801 q 0.129535,0 0.2384,0.0331 0.110243,0.0317 0.190169,0.0978 0.08131,0.0661 0.12678,0.16537 0.04547,0.0978 0.04547,0.23013 0,0.10335 -0.03169,0.19017 -0.03032,0.0854 -0.08819,0.15296 -0.0565,0.0675 -0.137804,0.11576 -0.07993,0.0468 -0.180523,0.073 v 0.006 q 0.04961,0.022 0.08544,0.051 0.03721,0.0276 0.07028,0.0661 0.03307,0.0386 0.06477,0.0882 0.03307,0.0482 0.07304,0.113 z m -1.185112,-1.76665 v 0.71658 h 0.314192 q 0.08682,0 0.159853,-0.0262 0.07441,-0.0262 0.128157,-0.0744 0.05374,-0.0496 0.08406,-0.11988 0.03032,-0.0717 0.03032,-0.15986 0,-0.15847 -0.103352,-0.24667 -0.101975,-0.0896 -0.296279,-0.0896 z"
         style="fill:#ffe4b3;stroke-width:0.26458332"
         id="path1009"
         inkscape:connector-curvature="0" />
      <path
         d="m 14.166233,286.33397 q -0.219108,0.11576 -0.545703,0.11576 -0.42168,0 -0.675239,-0.27147 -0.253559,-0.27148 -0.253559,-0.71245 0,-0.47405 0.285254,-0.76619 0.285254,-0.29214 0.72347,-0.29214 0.28112,0 0.465777,0.0813 v 0.24667 q -0.212218,-0.11851 -0.468533,-0.11851 -0.340376,0 -0.552594,0.22737 -0.210839,0.22738 -0.210839,0.60772 0,0.36105 0.197059,0.57602 0.198438,0.2136 0.51952,0.2136 0.297657,0 0.515387,-0.1323 z"
         style="fill:#ffe4b3;stroke-width:0.26458332"
         id="path1011"
         inkscape:connector-curvature="0" />
      <path
         d="m 16.014182,285.61739 q 0,0.83234 -0.751031,0.83234 -0.719336,0 -0.719336,-0.80064 v -1.20854 h 0.231511 v 1.19338 q 0,0.60772 0.51263,0.60772 0.494716,0 0.494716,-0.58705 v -1.21405 h 0.23151 z"
         style="fill:#ffe4b3;stroke-width:0.26458332"
         id="path1013"
         inkscape:connector-curvature="0" />
      <path
         d="m 17.534158,286.41666 h -1.025261 v -1.97611 h 0.231511 v 1.76664 h 0.79375 z"
         style="fill:#ffe4b3;stroke-width:0.26458332"
         id="path1015"
         inkscape:connector-curvature="0" />
      <path
         d="m 19.366949,286.41666 h -0.256315 l -0.209462,-0.55397 h -0.837847 l -0.19706,0.55397 h -0.257693 l 0.757921,-1.97611 h 0.239779 z m -0.541569,-0.76206 -0.310059,-0.84198 q -0.01516,-0.0413 -0.03032,-0.13229 h -0.0055 q -0.01378,0.0841 -0.03169,0.13229 l -0.307302,0.84198 z"
         style="fill:#ffe4b3;stroke-width:0.26458332"
         id="path1017"
         inkscape:connector-curvature="0" />
      <path
         d="m 20.725694,284.65001 h -0.570508 v 1.76665 h -0.23151 v -1.76665 h -0.56913 v -0.20946 h 1.371148 z"
         style="fill:#ffe4b3;stroke-width:0.26458332"
         id="path1019"
         inkscape:connector-curvature="0" />
      <path
         d="m 22.081684,286.41666 h -1.047309 v -1.97611 h 1.003211 v 0.20946 h -0.771701 v 0.65733 h 0.713824 v 0.20808 h -0.713824 v 0.69177 h 0.815799 z"
         style="fill:#ffe4b3;stroke-width:0.26458332"
         id="path1021"
         inkscape:connector-curvature="0" />
    </g>
    <g
       aria-label="MODE"
       style="font-style:normal;font-variant:normal;font-weight:normal;font-stretch:normal;font-size:2.82222223px;line-height:1.25;font-family:'Yu Gothic UI';-inkscape-font-specification:'Yu Gothic UI';letter-spacing:0px;word-spacing:0px;fill:#ffe4b3;fill-opacity:1;stroke:none;stroke-width:0.26458332"
       id="text1026"
       transform="translate(2.5107854,-64.494723)">
      <path
         d="m 11.53418,290.38541 h -0.230132 v -1.32568 q 0,-0.15709 0.01929,-0.38447 h -0.0055 q -0.03307,0.13367 -0.05926,0.19155 l -0.675238,1.5186 h -0.112999 l -0.6738612,-1.50758 q -0.028939,-0.0661 -0.059256,-0.20257 h -0.00551 q 0.011024,0.11851 0.011024,0.38723 v 1.32292 H 9.5194882 v -1.97611 h 0.3059244 l 0.6063364,1.37804 q 0.07028,0.15847 0.09095,0.23702 h 0.0083 q 0.05926,-0.16261 0.09509,-0.24253 l 0.618739,-1.37253 h 0.289388 z"
         style="fill:#ffe4b3;stroke-width:0.26458332"
         id="path1028"
         inkscape:connector-curvature="0" />
      <path
         d="m 12.851584,290.41848 q -0.420301,0 -0.67386,-0.27699 -0.252181,-0.27698 -0.252181,-0.72071 0,-0.4768 0.257693,-0.76068 0.257693,-0.28387 0.701421,-0.28387 0.409278,0 0.658703,0.2756 0.250803,0.27561 0.250803,0.72072 0,0.48369 -0.256316,0.76481 -0.256315,0.28112 -0.686263,0.28112 z m 0.01654,-1.83279 q -0.311437,0 -0.50574,0.22462 -0.194304,0.22462 -0.194304,0.5898 0,0.36518 0.188792,0.58842 0.190169,0.22187 0.494715,0.22187 0.325217,0 0.512631,-0.21222 0.187413,-0.21222 0.187413,-0.59394 0,-0.39136 -0.181901,-0.60496 -0.181901,-0.21359 -0.501606,-0.21359 z"
         style="fill:#ffe4b3;stroke-width:0.26458332"
         id="path1030"
         inkscape:connector-curvature="0" />
      <path
         d="m 14.18277,290.38541 v -1.97611 h 0.545703 q 1.044553,0 1.044553,0.96325 0,0.45751 -0.290766,0.73587 -0.289388,0.27699 -0.775836,0.27699 z m 0.23151,-1.76665 v 1.55718 h 0.2949 q 0.388607,0 0.604959,-0.20808 0.216352,-0.20808 0.216352,-0.5898 0,-0.7593 -0.80753,-0.7593 z"
         style="fill:#ffe4b3;stroke-width:0.26458332"
         id="path1032"
         inkscape:connector-curvature="0" />
      <path
         d="m 17.208941,290.38541 h -1.047309 v -1.97611 h 1.003212 v 0.20946 h -0.771701 v 0.65733 h 0.713824 v 0.20808 h -0.713824 v 0.69177 h 0.815798 z"
         style="fill:#ffe4b3;stroke-width:0.26458332"
         id="path1034"
         inkscape:connector-curvature="0" />
    </g>
    <g
       aria-label="DATA"
       style="font-style:normal;font-variant:normal;font-weight:normal;font-stretch:normal;font-size:2.82222223px;line-height:1.25;font-family:'Yu Gothic UI';-inkscape-font-specification:'Yu Gothic UI';letter-spacing:0px;word-spacing:0px;fill:#ffe4b3;fill-opacity:1;stroke:none;stroke-width:0.26458332"
       id="text1039"
       transform="translate(7.0431531,9.0829079)">
      <path
         d="m 5.5507377,233.49998 v -1.9761 h 0.5457031 q 1.044553,0 1.044553,0.96325 0,0.45751 -0.2907661,0.73587 -0.289388,0.27698 -0.7758355,0.27698 z m 0.2315104,-1.76664 v 1.55718 h 0.2949002 q 0.3886068,0 0.6049588,-0.20808 0.2163519,-0.20808 0.2163519,-0.5898 0,-0.7593 -0.8075303,-0.7593 z"
         style="fill:#ffe4b3;stroke-width:0.26458332"
         id="path1041"
         inkscape:connector-curvature="0" />
      <path
         d="M 9.0151257,233.49998 H 8.7588106 L 8.5493488,232.94601 H 7.7115015 l -0.1970594,0.55397 H 7.2567489 l 0.757921,-1.9761 h 0.2397787 z m -0.541569,-0.76205 -0.3100586,-0.84198 q -0.015159,-0.0413 -0.030317,-0.13229 h -0.00551 q -0.01378,0.0841 -0.031695,0.13229 l -0.3073025,0.84198 z"
         style="fill:#ffe4b3;stroke-width:0.26458332"
         id="path1043"
         inkscape:connector-curvature="0" />
      <path
         d="M 10.373871,231.73334 H 9.8033635 v 1.76664 H 9.5718531 v -1.76664 H 9.0027233 v -0.20946 h 1.3711477 z"
         style="fill:#ffe4b3;stroke-width:0.26458332"
         id="path1045"
         inkscape:connector-curvature="0" />
      <path
         d="m 12.112956,233.49998 h -0.256315 l -0.209462,-0.55397 h -0.837847 l -0.19706,0.55397 h -0.257693 l 0.757921,-1.9761 h 0.239779 z m -0.541569,-0.76205 -0.310059,-0.84198 q -0.01516,-0.0413 -0.03032,-0.13229 h -0.0055 q -0.01378,0.0841 -0.03169,0.13229 l -0.307302,0.84198 z"
         style="fill:#ffe4b3;stroke-width:0.26458332"
         id="path1047"
         inkscape:connector-curvature="0" />
    </g>
    <g
       aria-label="Q"
       style="font-style:normal;font-variant:normal;font-weight:normal;font-stretch:normal;font-size:2.82222223px;line-height:1.25;font-family:'Yu Gothic UI';-inkscape-font-specification:'Yu Gothic UI';letter-spacing:0px;word-spacing:0px;fill:#ffe4b3;fill-opacity:1;stroke:none;stroke-width:0.26458332"
       id="text1052"
       transform="translate(-5.1173504,49.008941)">
      <path
         d="m 10.315994,226.91848 q -0.4189234,0 -0.6738604,-0.27699 -0.252181,-0.27698 -0.252181,-0.72071 0,-0.47818 0.2576931,-0.76068 0.2590712,-0.28387 0.7014213,-0.28387 0.407899,0 0.658702,0.2756 0.250803,0.27561 0.250803,0.72072 0,0.48369 -0.256315,0.76481 -0.06063,0.0675 -0.129535,0.11575 l 0.555349,0.39826 h -0.420302 l -0.37207,-0.27837 q -0.146072,0.0455 -0.319705,0.0455 z m 0.01654,-1.83279 q -0.311437,0 -0.5057403,0.22462 -0.1943034,0.22462 -0.1943034,0.5898 0,0.3638 0.1887912,0.58842 0.1901695,0.22187 0.4947155,0.22187 0.325217,0 0.51263,-0.21222 0.187414,-0.21222 0.187414,-0.59394 0,-0.39274 -0.181901,-0.60496 -0.181901,-0.21359 -0.501606,-0.21359 z"
         style="fill:#ffe4b3;stroke-width:0.26458332"
         id="path1054"
         inkscape:connector-curvature="0" />
    </g>
    <path
       sodipodi:nodetypes="ccccc"
       inkscape:connector-curvature="0"
       id="path2086"
       d="m 18.520839,206.11306 -1.7e-5,11.64149 h 10.583334 l 2.1e-5,-11.64149 z"
       style="display:inline;fill:none;stroke:#ffe4b3;stroke-width:0.265;stroke-linecap:butt;stroke-linejoin:miter;stroke-opacity:1;stroke-miterlimit:4;stroke-dasharray:none" />
    <path
       sodipodi:nodetypes="ccccc"
       inkscape:connector-curvature="0"
       id="path2237"
       d="m 18.520839,272.82044 -1.7e-5,11.64149 h 10.583334 l 2.1e-5,-11.64149 z"
       style="display:inline;fill:none;stroke:#ffe4b3;stroke-width:0.26458332px;stroke-linecap:butt;stroke-linejoin:miter;stroke-opacity:1" />
    <g
       transform="translate(10.757651,49.008941)"
       id="g2241"
       style="font-style:normal;font-variant:normal;font-weight:normal;font-stretch:normal;font-size:2.82222223px;line-height:1.25;font-family:'Yu Gothic UI';-inkscape-font-specification:'Yu Gothic UI';letter-spacing:0px;word-spacing:0px;fill:#ffe4b3;fill-opacity:1;stroke:none;stroke-width:0.26458332"
       aria-label="Q">
      <path
         inkscape:connector-curvature="0"
         id="path2239"
         style="fill:#ffe4b3;stroke-width:0.26458332"
         d="m 10.315994,226.91848 q -0.4189234,0 -0.6738604,-0.27699 -0.252181,-0.27698 -0.252181,-0.72071 0,-0.47818 0.2576931,-0.76068 0.2590712,-0.28387 0.7014213,-0.28387 0.407899,0 0.658702,0.2756 0.250803,0.27561 0.250803,0.72072 0,0.48369 -0.256315,0.76481 -0.06063,0.0675 -0.129535,0.11575 l 0.555349,0.39826 h -0.420302 l -0.37207,-0.27837 q -0.146072,0.0455 -0.319705,0.0455 z m 0.01654,-1.83279 q -0.311437,0 -0.5057403,0.22462 -0.1943034,0.22462 -0.1943034,0.5898 0,0.3638 0.1887912,0.58842 0.1901695,0.22187 0.4947155,0.22187 0.325217,0 0.51263,-0.21222 0.187414,-0.21222 0.187414,-0.59394 0,-0.39274 -0.181901,-0.60496 -0.181901,-0.21359 -0.501606,-0.21359 z" />
    </g>
    <g
       aria-label="CD4031"
       style="font-style:normal;font-variant:normal;font-weight:600;font-stretch:normal;font-size:3.52777767px;line-height:1.25;font-family:'Yu Gothic UI';-inkscape-font-specification:'Yu Gothic UI Semi-Bold';letter-spacing:0px;word-spacing:0px;fill:#ffe4b3;fill-opacity:1;stroke:none;stroke-width:0.26458332"
       id="text2256"
       transform="translate(3.3236568,-24.197636)">
      <path
         d="m 8.6420216,224.13621 q -0.2790527,0.14469 -0.6941867,0.14469 -0.5374349,0 -0.8612738,-0.33934 -0.323839,-0.33934 -0.323839,-0.89055 0,-0.59256 0.3634576,-0.95774 0.3651801,-0.36518 0.921563,-0.36518 0.3582899,0 0.5942789,0.10163 v 0.40652 q -0.2497694,-0.14814 -0.5512152,-0.14814 -0.4013536,0 -0.651123,0.25666 -0.2480469,0.25666 -0.2480469,0.68557 0,0.40825 0.2325439,0.65113 0.232544,0.24115 0.6115045,0.24115 0.3496771,0 0.6063367,-0.16536 z"
         style="font-style:normal;font-variant:normal;font-weight:600;font-stretch:normal;font-size:3.52777767px;font-family:'Yu Gothic UI';-inkscape-font-specification:'Yu Gothic UI Semi-Bold';fill:#ffe4b3;stroke-width:0.26458332"
         id="path2258"
         inkscape:connector-curvature="0" />
      <path
         d="m 9.1105545,224.23956 v -2.47013 h 0.7131348 q 1.3659807,0 1.3659807,1.20406 0,0.57189 -0.378961,0.91984 -0.37896,0.34623 -1.016303,0.34623 z m 0.4082438,-2.12218 v 1.77595 h 0.3272841 q 0.4323596,0 0.6717936,-0.23771 0.241157,-0.23771 0.241157,-0.67179 0,-0.86645 -0.8974477,-0.86645 z"
         style="font-style:normal;font-variant:normal;font-weight:600;font-stretch:normal;font-size:3.52777767px;font-family:'Yu Gothic UI';-inkscape-font-specification:'Yu Gothic UI Semi-Bold';fill:#ffe4b3;stroke-width:0.26458332"
         id="path2260"
         inkscape:connector-curvature="0" />
      <path
         d="m 12.929443,221.76943 v 1.59508 h 0.366903 v 0.33245 h -0.366903 v 0.5426 H 12.54187 v -0.5426 h -1.117934 v -0.3359 q 0.151585,-0.17053 0.310059,-0.36862 0.160197,-0.19982 0.306613,-0.40652 0.14814,-0.20843 0.273886,-0.41686 0.125746,-0.20843 0.211873,-0.39963 z m -0.387573,1.59508 v -1.03697 q -0.187758,0.33761 -0.37207,0.58911 -0.18259,0.25149 -0.342787,0.44786 z"
         style="font-style:normal;font-variant:normal;font-weight:600;font-stretch:normal;font-size:3.52777767px;font-family:'Yu Gothic UI';-inkscape-font-specification:'Yu Gothic UI Semi-Bold';fill:#ffe4b3;stroke-width:0.26458332"
         id="path2262"
         inkscape:connector-curvature="0" />
      <path
         d="m 14.319539,224.2809 q -0.385851,0 -0.602892,-0.31522 -0.215318,-0.31523 -0.215318,-0.91123 0,-0.65457 0.225654,-0.99046 0.225653,-0.3359 0.651123,-0.3359 0.814765,0 0.814765,1.26607 0,0.62701 -0.230822,0.95774 -0.229099,0.329 -0.64251,0.329 z m 0.03962,-2.23414 q -0.449585,0 -0.449585,0.99046 0,0.92674 0.440972,0.92674 0.434082,0 0.434082,-0.94224 0,-0.97496 -0.425469,-0.97496 z"
         style="font-style:normal;font-variant:normal;font-weight:600;font-stretch:normal;font-size:3.52777767px;font-family:'Yu Gothic UI';-inkscape-font-specification:'Yu Gothic UI Semi-Bold';fill:#ffe4b3;stroke-width:0.26458332"
         id="path2264"
         inkscape:connector-curvature="0" />
      <path
         d="m 15.535657,224.14827 v -0.37552 q 0.241157,0.19121 0.544325,0.19121 0.246325,0 0.392741,-0.11197 0.148139,-0.11197 0.148139,-0.30317 0,-0.4203 -0.64251,-0.4203 h -0.191203 v -0.32039 h 0.18259 q 0.570164,0 0.570164,-0.39619 0,-0.36518 -0.444418,-0.36518 -0.248047,0 -0.46681,0.17742 v -0.35484 q 0.251492,-0.14125 0.594279,-0.14125 0.329006,0 0.527099,0.16536 0.198093,0.16537 0.198093,0.42375 0,0.48748 -0.496093,0.62701 v 0.007 q 0.266995,0.0258 0.422024,0.18776 0.155029,0.16019 0.155029,0.40135 0,0.33245 -0.249769,0.53743 -0.24977,0.20326 -0.658014,0.20326 -0.366902,0 -0.585666,-0.13263 z"
         style="font-style:normal;font-variant:normal;font-weight:600;font-stretch:normal;font-size:3.52777767px;font-family:'Yu Gothic UI';-inkscape-font-specification:'Yu Gothic UI Semi-Bold';fill:#ffe4b3;stroke-width:0.26458332"
         id="path2266"
         inkscape:connector-curvature="0" />
      <path
         d="m 18.339965,221.71431 v 2.52525 h -0.399631 v -2.03605 q -0.10852,0.0775 -0.234266,0.13264 -0.124024,0.0534 -0.28422,0.0947 v -0.34107 q 0.09991,-0.0327 0.192925,-0.0689 0.09302,-0.0362 0.18259,-0.081 0.09129,-0.0448 0.18259,-0.0999 0.09302,-0.0551 0.191203,-0.12574 z"
         style="font-style:normal;font-variant:normal;font-weight:600;font-stretch:normal;font-size:3.52777767px;font-family:'Yu Gothic UI';-inkscape-font-specification:'Yu Gothic UI Semi-Bold';fill:#ffe4b3;stroke-width:0.26458332"
         id="path2268"
         inkscape:connector-curvature="0" />
    </g>
    <g
       aria-label="64 STAGE STATIC SHIFT REGISTER"
       style="font-style:normal;font-variant:normal;font-weight:normal;font-stretch:normal;font-size:2.11666656px;line-height:1.25;font-family:'Yu Gothic UI';-inkscape-font-specification:'Yu Gothic UI';letter-spacing:0px;word-spacing:0px;fill:#ffe4b3;fill-opacity:1;stroke:none;stroke-width:0.26458332"
       id="text2273"
       transform="matrix(0.96979368,0,0,1,-0.60046215,-2.6394416)">
      <path
         d="m 2.3791828,204.45473 q 0,0.10852 -0.03514,0.19947 -0.03514,0.0909 -0.097152,0.1571 -0.062012,0.0662 -0.1477946,0.10335 -0.085783,0.0362 -0.1860351,0.0362 -0.1116211,0 -0.2005046,-0.0465 -0.08785,-0.0465 -0.1498616,-0.13333 -0.060978,-0.0879 -0.093018,-0.21394 -0.032039,-0.12609 -0.032039,-0.28422 0,-0.19327 0.042375,-0.35036 0.043408,-0.15813 0.1219563,-0.26976 0.079582,-0.11265 0.1912028,-0.17363 0.1116211,-0.061 0.2490804,-0.061 0.1529623,0 0.2459798,0.0424 v 0.16019 q -0.1147216,-0.0589 -0.2418457,-0.0589 -0.099219,0 -0.1788004,0.0445 -0.079582,0.0444 -0.1364258,0.12609 -0.056844,0.0806 -0.08785,0.19533 -0.029972,0.11472 -0.029972,0.25528 h 0.00413 q 0.1023193,-0.185 0.3379638,-0.185 0.097152,0 0.1746664,0.0331 0.078548,0.0331 0.1333251,0.0941 0.055811,0.0599 0.085783,0.14366 0.029972,0.0837 0.029972,0.18603 z m -0.1736328,0.0217 q 0,-0.0775 -0.019637,-0.13953 -0.019637,-0.062 -0.056844,-0.10542 -0.036173,-0.0434 -0.089917,-0.0662 -0.053743,-0.0238 -0.1219563,-0.0238 -0.063045,0 -0.1167888,0.0238 -0.053743,0.0238 -0.093017,0.0651 -0.039274,0.0403 -0.062012,0.0951 -0.021704,0.0537 -0.021704,0.11472 0,0.0765 0.021704,0.14366 0.021704,0.0661 0.060978,0.11576 0.039274,0.0496 0.093018,0.0786 0.054777,0.0279 0.1209229,0.0279 0.064079,0 0.1167887,-0.0238 0.05271,-0.0248 0.089917,-0.0682 0.037207,-0.0434 0.057878,-0.10335 0.020671,-0.061 0.020671,-0.13436 z"
         style="font-size:2.11666656px;fill:#ffe4b3;stroke-width:0.26458332"
         id="path2275"
         inkscape:connector-curvature="0" />
      <path
         d="m 3.3424315,203.44291 v 0.97875 h 0.1901692 v 0.15503 H 3.3424315 v 0.3483 H 3.1749998 v -0.3483 H 2.4784016 v -0.14676 q 0.097152,-0.10956 0.1963704,-0.23358 0.099219,-0.12506 0.1891357,-0.25321 0.09095,-0.12816 0.1674317,-0.25529 0.077515,-0.12815 0.1302246,-0.24494 z m -0.6728272,0.97875 h 0.5053955 v -0.72554 q -0.077515,0.13539 -0.146761,0.24185 -0.069246,0.10645 -0.1322917,0.19327 -0.062012,0.0868 -0.1188558,0.15709 -0.056844,0.0703 -0.107487,0.13333 z"
         style="font-size:2.11666656px;fill:#ffe4b3;stroke-width:0.26458332"
         id="path2277"
         inkscape:connector-curvature="0" />
      <path
         d="m 4.3087805,204.86504 v -0.20464 q 0.03514,0.031 0.083716,0.0558 0.049609,0.0248 0.1033529,0.0424 0.054777,0.0165 0.109554,0.0258 0.054777,0.009 0.1012858,0.009 0.160197,0 0.2387451,-0.0589 0.079582,-0.06 0.079582,-0.17157 0,-0.0599 -0.026872,-0.10438 -0.025838,-0.0444 -0.072347,-0.0806 -0.046509,-0.0372 -0.1105876,-0.0703 -0.063045,-0.0341 -0.1364257,-0.0713 -0.077515,-0.0393 -0.144694,-0.0796 -0.067179,-0.0403 -0.1167888,-0.0889 -0.049609,-0.0486 -0.078548,-0.10955 -0.027905,-0.062 -0.027905,-0.1447 0,-0.10128 0.044442,-0.1757 0.044442,-0.0754 0.1167887,-0.12402 0.072347,-0.0486 0.1643311,-0.0724 0.093018,-0.0238 0.1891357,-0.0238 0.2191081,0 0.3193604,0.0527 v 0.19534 q -0.1312582,-0.0909 -0.3369304,-0.0909 -0.056844,0 -0.1136881,0.0124 -0.056844,0.0114 -0.1012858,0.0382 -0.044442,0.0269 -0.072347,0.0692 -0.027905,0.0424 -0.027905,0.10335 0,0.0568 0.020671,0.0982 0.021704,0.0413 0.063045,0.0754 0.041341,0.0341 0.1002523,0.0661 0.059945,0.032 0.1374593,0.0703 0.079582,0.0393 0.1508952,0.0827 0.071314,0.0434 0.1250569,0.0961 0.053743,0.0527 0.084749,0.11679 0.032039,0.0641 0.032039,0.14676 0,0.10955 -0.043408,0.18604 -0.042375,0.0754 -0.1157552,0.12299 -0.072347,0.0475 -0.1674317,0.0682 -0.095085,0.0217 -0.2005045,0.0217 -0.03514,0 -0.086816,-0.006 -0.051676,-0.005 -0.1054199,-0.0165 -0.053743,-0.0103 -0.1023194,-0.0258 -0.047542,-0.0165 -0.076481,-0.0362 z"
         style="font-size:2.11666656px;fill:#ffe4b3;stroke-width:0.26458332"
         id="path2279"
         inkscape:connector-curvature="0" />
      <path
         d="M 6.3582678,203.6 H 5.930387 v 1.32499 H 5.7567542 V 203.6 H 5.3299069 v -0.15709 h 1.0283609 z"
         style="font-size:2.11666656px;fill:#ffe4b3;stroke-width:0.26458332"
         id="path2281"
         inkscape:connector-curvature="0" />
      <path
         d="M 7.6625809,204.92499 H 7.4703446 L 7.3132482,204.50951 H 6.6848628 l -0.1477945,0.41548 H 6.3437984 l 0.5684407,-1.48208 h 0.179834 z m -0.4061767,-0.57154 -0.232544,-0.63149 q -0.011369,-0.031 -0.022738,-0.0992 h -0.00413 q -0.010335,0.0631 -0.023771,0.0992 l -0.2304769,0.63149 z"
         style="font-size:2.11666656px;fill:#ffe4b3;stroke-width:0.26458332"
         id="path2283"
         inkscape:connector-curvature="0" />
      <path
         d="m 8.9544917,204.8237 q -0.2232422,0.12609 -0.4960938,0.12609 -0.3172932,0 -0.5136637,-0.20464 -0.1953369,-0.20463 -0.1953369,-0.54157 0,-0.34416 0.217041,-0.5643 0.2180746,-0.22118 0.5519043,-0.22118 0.2418457,0 0.4061767,0.0785 v 0.19224 q -0.1798339,-0.11369 -0.4258137,-0.11369 -0.2490804,0 -0.4082438,0.17157 -0.1591634,0.17156 -0.1591634,0.44441 0,0.28112 0.1477945,0.44235 0.1477946,0.1602 0.4010091,0.1602 0.1736328,0 0.3007569,-0.0693 V 204.309 h -0.324528 v -0.15709 h 0.4981608 z"
         style="font-size:2.11666656px;fill:#ffe4b3;stroke-width:0.26458332"
         id="path2285"
         inkscape:connector-curvature="0" />
      <path
         d="M 10.083105,204.92499 H 9.2976231 v -1.48208 H 10.050032 V 203.6 H 9.4712559 v 0.493 h 0.5353681 v 0.15606 H 9.4712559 v 0.51883 h 0.6118491 z"
         style="font-size:2.11666656px;fill:#ffe4b3;stroke-width:0.26458332"
         id="path2287"
         inkscape:connector-curvature="0" />
      <path
         d="m 10.877888,204.86504 v -0.20464 q 0.03514,0.031 0.08372,0.0558 0.04961,0.0248 0.103353,0.0424 0.05478,0.0165 0.109554,0.0258 0.05478,0.009 0.101286,0.009 0.160197,0 0.238745,-0.0589 0.07958,-0.06 0.07958,-0.17157 0,-0.0599 -0.02687,-0.10438 -0.02584,-0.0444 -0.07235,-0.0806 -0.04651,-0.0372 -0.110588,-0.0703 -0.06304,-0.0341 -0.136426,-0.0713 -0.07751,-0.0393 -0.144694,-0.0796 -0.06718,-0.0403 -0.116788,-0.0889 -0.04961,-0.0486 -0.07855,-0.10955 -0.0279,-0.062 -0.0279,-0.1447 0,-0.10128 0.04444,-0.1757 0.04444,-0.0754 0.116789,-0.12402 0.07235,-0.0486 0.164331,-0.0724 0.09302,-0.0238 0.189135,-0.0238 0.219108,0 0.319361,0.0527 v 0.19534 q -0.131258,-0.0909 -0.336931,-0.0909 -0.05684,0 -0.113688,0.0124 -0.05684,0.0114 -0.101286,0.0382 -0.04444,0.0269 -0.07235,0.0692 -0.0279,0.0424 -0.0279,0.10335 0,0.0568 0.02067,0.0982 0.0217,0.0413 0.06304,0.0754 0.04134,0.0341 0.100252,0.0661 0.05994,0.032 0.13746,0.0703 0.07958,0.0393 0.150895,0.0827 0.07131,0.0434 0.125057,0.0961 0.05374,0.0527 0.08475,0.11679 0.03204,0.0641 0.03204,0.14676 0,0.10955 -0.04341,0.18604 -0.04237,0.0754 -0.115755,0.12299 -0.07235,0.0475 -0.167432,0.0682 -0.09508,0.0217 -0.200504,0.0217 -0.03514,0 -0.08682,-0.006 -0.05168,-0.005 -0.105419,-0.0165 -0.05374,-0.0103 -0.10232,-0.0258 -0.04754,-0.0165 -0.07648,-0.0362 z"
         style="font-size:2.11666656px;fill:#ffe4b3;stroke-width:0.26458332"
         id="path2289"
         inkscape:connector-curvature="0" />
      <path
         d="m 12.927375,203.6 h -0.427881 v 1.32499 H 12.325861 V 203.6 h -0.426847 v -0.15709 h 1.028361 z"
         style="font-size:2.11666656px;fill:#ffe4b3;stroke-width:0.26458332"
         id="path2291"
         inkscape:connector-curvature="0" />
      <path
         d="m 14.231689,204.92499 h -0.192236 l -0.157097,-0.41548 h -0.628385 l -0.147795,0.41548 h -0.19327 l 0.568441,-1.48208 h 0.179834 z m -0.406177,-0.57154 -0.232544,-0.63149 q -0.01137,-0.031 -0.02274,-0.0992 h -0.0041 q -0.01033,0.0631 -0.02377,0.0992 l -0.230477,0.63149 z"
         style="font-size:2.11666656px;fill:#ffe4b3;stroke-width:0.26458332"
         id="path2293"
         inkscape:connector-curvature="0" />
      <path
         d="m 15.250748,203.6 h -0.427881 v 1.32499 H 14.649234 V 203.6 h -0.426847 v -0.15709 h 1.028361 z"
         style="font-size:2.11666656px;fill:#ffe4b3;stroke-width:0.26458332"
         id="path2295"
         inkscape:connector-curvature="0" />
      <path
         d="m 15.655891,204.92499 h -0.173633 v -1.48208 h 0.173633 z"
         style="font-size:2.11666656px;fill:#ffe4b3;stroke-width:0.26458332"
         id="path2297"
         inkscape:connector-curvature="0" />
      <path
         d="m 17.053222,204.86298 q -0.164331,0.0868 -0.409277,0.0868 -0.31626,0 -0.506429,-0.2036 -0.19017,-0.20361 -0.19017,-0.53434 0,-0.35553 0.213941,-0.57464 0.21394,-0.21911 0.542602,-0.21911 0.21084,0 0.349333,0.061 v 0.185 q -0.159164,-0.0889 -0.3514,-0.0889 -0.255281,0 -0.414445,0.17053 -0.15813,0.17053 -0.15813,0.45579 0,0.27078 0.147795,0.43201 0.148828,0.1602 0.38964,0.1602 0.223242,0 0.38654,-0.0992 z"
         style="font-size:2.11666656px;fill:#ffe4b3;stroke-width:0.26458332"
         id="path2299"
         inkscape:connector-curvature="0" />
      <path
         d="m 17.864542,204.86504 v -0.20464 q 0.03514,0.031 0.08372,0.0558 0.04961,0.0248 0.103353,0.0424 0.05478,0.0165 0.109554,0.0258 0.05478,0.009 0.101286,0.009 0.160197,0 0.238745,-0.0589 0.07958,-0.06 0.07958,-0.17157 0,-0.0599 -0.02687,-0.10438 -0.02584,-0.0444 -0.07235,-0.0806 -0.04651,-0.0372 -0.110588,-0.0703 -0.06305,-0.0341 -0.136425,-0.0713 -0.07752,-0.0393 -0.144694,-0.0796 -0.06718,-0.0403 -0.116789,-0.0889 -0.04961,-0.0486 -0.07855,-0.10955 -0.02791,-0.062 -0.02791,-0.1447 0,-0.10128 0.04444,-0.1757 0.04444,-0.0754 0.116789,-0.12402 0.07235,-0.0486 0.164331,-0.0724 0.09302,-0.0238 0.189136,-0.0238 0.219108,0 0.31936,0.0527 v 0.19534 q -0.131258,-0.0909 -0.33693,-0.0909 -0.05684,0 -0.113688,0.0124 -0.05684,0.0114 -0.101286,0.0382 -0.04444,0.0269 -0.07235,0.0692 -0.02791,0.0424 -0.02791,0.10335 0,0.0568 0.02067,0.0982 0.0217,0.0413 0.06304,0.0754 0.04134,0.0341 0.100253,0.0661 0.05994,0.032 0.137459,0.0703 0.07958,0.0393 0.150895,0.0827 0.07131,0.0434 0.125057,0.0961 0.05374,0.0527 0.08475,0.11679 0.03204,0.0641 0.03204,0.14676 0,0.10955 -0.04341,0.18604 -0.04237,0.0754 -0.115755,0.12299 -0.07235,0.0475 -0.167431,0.0682 -0.09509,0.0217 -0.200505,0.0217 -0.03514,0 -0.08682,-0.006 -0.05168,-0.005 -0.10542,-0.0165 -0.05374,-0.0103 -0.10232,-0.0258 -0.04754,-0.0165 -0.07648,-0.0362 z"
         style="font-size:2.11666656px;fill:#ffe4b3;stroke-width:0.26458332"
         id="path2301"
         inkscape:connector-curvature="0" />
      <path
         d="m 20.17241,204.92499 h -0.173633 v -0.67593 h -0.766878 v 0.67593 h -0.173633 v -1.48208 h 0.173633 v 0.65009 h 0.766878 v -0.65009 h 0.173633 z"
         style="font-size:2.11666656px;fill:#ffe4b3;stroke-width:0.26458332"
         id="path2303"
         inkscape:connector-curvature="0" />
      <path
         d="m 20.736717,204.92499 h -0.173633 v -1.48208 h 0.173633 z"
         style="font-size:2.11666656px;fill:#ffe4b3;stroke-width:0.26458332"
         id="path2305"
         inkscape:connector-curvature="0" />
      <path
         d="m 21.877734,203.6 h -0.578776 v 0.51263 h 0.535367 v 0.15607 h -0.535367 v 0.65629 h -0.173633 v -1.48208 h 0.752409 z"
         style="font-size:2.11666656px;fill:#ffe4b3;stroke-width:0.26458332"
         id="path2307"
         inkscape:connector-curvature="0" />
      <path
         d="m 23.035284,203.6 h -0.427881 v 1.32499 H 22.433771 V 203.6 h -0.426848 v -0.15709 h 1.028361 z"
         style="font-size:2.11666656px;fill:#ffe4b3;stroke-width:0.26458332"
         id="path2309"
         inkscape:connector-curvature="0" />
      <path
         d="m 24.908039,204.92499 h -0.206705 l -0.248047,-0.41548 q -0.03411,-0.0579 -0.06615,-0.0982 -0.03204,-0.0413 -0.06615,-0.0672 -0.03307,-0.0258 -0.07235,-0.0372 -0.03824,-0.0124 -0.08682,-0.0124 H 24.01919 v 0.63045 h -0.173633 v -1.48208 h 0.44235 q 0.09715,0 0.178801,0.0248 0.08268,0.0238 0.142627,0.0734 0.06098,0.0496 0.09508,0.12403 0.03411,0.0734 0.03411,0.1726 0,0.0775 -0.02377,0.14262 -0.02274,0.0641 -0.06615,0.11472 -0.04238,0.0507 -0.103353,0.0868 -0.05994,0.0351 -0.135392,0.0548 v 0.004 q 0.03721,0.0165 0.06408,0.0382 0.02791,0.0207 0.05271,0.0496 0.02481,0.0289 0.04858,0.0661 0.02481,0.0362 0.05478,0.0847 z M 24.019205,203.6 v 0.53744 h 0.235644 q 0.06511,0 0.11989,-0.0196 0.05581,-0.0196 0.09612,-0.0558 0.04031,-0.0372 0.06305,-0.0899 0.02274,-0.0537 0.02274,-0.11988 0,-0.11886 -0.07752,-0.18501 Q 24.402644,203.6 24.256916,203.6 Z"
         style="font-size:2.11666656px;fill:#ffe4b3;stroke-width:0.26458332"
         id="path2311"
         inkscape:connector-curvature="0" />
      <path
         d="M 25.896091,204.92499 H 25.11061 v -1.48208 h 0.752408 V 203.6 h -0.578776 v 0.493 h 0.535368 v 0.15606 h -0.535368 v 0.51883 h 0.611849 z"
         style="font-size:2.11666656px;fill:#ffe4b3;stroke-width:0.26458332"
         id="path2313"
         inkscape:connector-curvature="0" />
      <path
         d="m 27.289288,204.8237 q -0.223242,0.12609 -0.496094,0.12609 -0.317293,0 -0.513663,-0.20464 -0.195337,-0.20463 -0.195337,-0.54157 0,-0.34416 0.217041,-0.5643 0.218074,-0.22118 0.551904,-0.22118 0.241846,0 0.406177,0.0785 v 0.19224 q -0.179834,-0.11369 -0.425814,-0.11369 -0.24908,0 -0.408244,0.17157 -0.159163,0.17156 -0.159163,0.44441 0,0.28112 0.147794,0.44235 0.147795,0.1602 0.401009,0.1602 0.173633,0 0.300757,-0.0693 V 204.309 h -0.324528 v -0.15709 h 0.498161 z"
         style="font-size:2.11666656px;fill:#ffe4b3;stroke-width:0.26458332"
         id="path2315"
         inkscape:connector-curvature="0" />
      <path
         d="M 27.806053,204.92499 H 27.63242 v -1.48208 h 0.173633 z"
         style="font-size:2.11666656px;fill:#ffe4b3;stroke-width:0.26458332"
         id="path2317"
         inkscape:connector-curvature="0" />
      <path
         d="m 28.125412,204.86504 v -0.20464 q 0.03514,0.031 0.08372,0.0558 0.04961,0.0248 0.103353,0.0424 0.05478,0.0165 0.109554,0.0258 0.05478,0.009 0.101286,0.009 0.160197,0 0.238745,-0.0589 0.07958,-0.06 0.07958,-0.17157 0,-0.0599 -0.02687,-0.10438 -0.02584,-0.0444 -0.07235,-0.0806 -0.04651,-0.0372 -0.110588,-0.0703 -0.06305,-0.0341 -0.136425,-0.0713 -0.07751,-0.0393 -0.144694,-0.0796 -0.06718,-0.0403 -0.116789,-0.0889 -0.04961,-0.0486 -0.07855,-0.10955 -0.02791,-0.062 -0.02791,-0.1447 0,-0.10128 0.04444,-0.1757 0.04444,-0.0754 0.116789,-0.12402 0.07235,-0.0486 0.164331,-0.0724 0.09302,-0.0238 0.189136,-0.0238 0.219108,0 0.31936,0.0527 v 0.19534 q -0.131258,-0.0909 -0.33693,-0.0909 -0.05684,0 -0.113689,0.0124 -0.05684,0.0114 -0.101285,0.0382 -0.04444,0.0269 -0.07235,0.0692 -0.02791,0.0424 -0.02791,0.10335 0,0.0568 0.02067,0.0982 0.0217,0.0413 0.06304,0.0754 0.04134,0.0341 0.100253,0.0661 0.05994,0.032 0.137459,0.0703 0.07958,0.0393 0.150895,0.0827 0.07131,0.0434 0.125057,0.0961 0.05374,0.0527 0.08475,0.11679 0.03204,0.0641 0.03204,0.14676 0,0.10955 -0.04341,0.18604 -0.04237,0.0754 -0.115755,0.12299 -0.07235,0.0475 -0.167431,0.0682 -0.09509,0.0217 -0.200505,0.0217 -0.03514,0 -0.08682,-0.006 -0.05168,-0.005 -0.10542,-0.0165 -0.05374,-0.0103 -0.10232,-0.0258 -0.04754,-0.0165 -0.07648,-0.0362 z"
         style="font-size:2.11666656px;fill:#ffe4b3;stroke-width:0.26458332"
         id="path2319"
         inkscape:connector-curvature="0" />
      <path
         d="m 30.1749,203.6 h -0.42788 v 1.32499 H 29.573387 V 203.6 h -0.426848 v -0.15709 H 30.1749 Z"
         style="font-size:2.11666656px;fill:#ffe4b3;stroke-width:0.26458332"
         id="path2321"
         inkscape:connector-curvature="0" />
      <path
         d="m 31.191892,204.92499 h -0.785481 v -1.48208 h 0.752408 V 203.6 h -0.578776 v 0.493 h 0.535368 v 0.15606 h -0.535368 v 0.51883 h 0.611849 z"
         style="font-size:2.11666656px;fill:#ffe4b3;stroke-width:0.26458332"
         id="path2323"
         inkscape:connector-curvature="0" />
      <path
         d="m 32.539614,204.92499 h -0.206706 l -0.248047,-0.41548 q -0.03411,-0.0579 -0.06614,-0.0982 -0.03204,-0.0413 -0.06615,-0.0672 -0.03307,-0.0258 -0.07235,-0.0372 -0.03824,-0.0124 -0.08682,-0.0124 h -0.142627 v 0.63045 h -0.173632 v -1.48208 h 0.44235 q 0.09715,0 0.1788,0.0248 0.08268,0.0238 0.142627,0.0734 0.06098,0.0496 0.09508,0.12403 0.03411,0.0734 0.03411,0.1726 0,0.0775 -0.02377,0.14262 -0.02274,0.0641 -0.06615,0.11472 -0.04237,0.0507 -0.103353,0.0868 -0.05994,0.0351 -0.135392,0.0548 v 0.004 q 0.03721,0.0165 0.06408,0.0382 0.02791,0.0207 0.05271,0.0496 0.02481,0.0289 0.04858,0.0661 0.0248,0.0362 0.05478,0.0847 z M 31.650779,203.6 v 0.53744 h 0.235645 q 0.06511,0 0.119889,-0.0196 0.05581,-0.0196 0.09612,-0.0558 0.04031,-0.0372 0.06305,-0.0899 0.02274,-0.0537 0.02274,-0.11988 0,-0.11886 -0.07751,-0.18501 Q 32.034219,203.6 31.888491,203.6 Z"
         style="font-size:2.11666656px;fill:#ffe4b3;stroke-width:0.26458332"
         id="path2325"
         inkscape:connector-curvature="0" />
    </g>
    <g
       aria-label="DATA"
       style="font-style:normal;font-variant:normal;font-weight:normal;font-stretch:normal;font-size:2.11666656px;line-height:1.25;font-family:'Yu Gothic UI';-inkscape-font-specification:'Yu Gothic UI';letter-spacing:0px;word-spacing:0px;fill:#ffe4b3;fill-opacity:1;stroke:none;stroke-width:0.26458332"
       id="text2343"
       transform="translate(-2.6458335,1.7996237)">
      <path
         d="m 18.715137,226.88541 v -1.48208 h 0.409278 q 0.783414,0 0.783414,0.72243 0,0.34313 -0.218074,0.55191 -0.217041,0.20774 -0.581877,0.20774 z m 0.173633,-1.32499 v 1.16789 h 0.221175 q 0.291455,0 0.453719,-0.15606 0.162264,-0.15607 0.162264,-0.44235 0,-0.56948 -0.605647,-0.56948 z"
         style="font-size:2.11666656px;fill:#ffe4b3;stroke-width:0.26458332"
         id="path2345"
         inkscape:connector-curvature="0" />
      <path
         d="m 21.313428,226.88541 h -0.192236 l -0.157096,-0.41548 H 20.33571 l -0.147794,0.41548 h -0.19327 l 0.56844,-1.48208 h 0.179834 z m -0.406177,-0.57154 -0.232543,-0.63149 q -0.01137,-0.031 -0.02274,-0.0992 h -0.0041 q -0.01034,0.0631 -0.02377,0.0992 l -0.230477,0.63149 z"
         style="font-size:2.11666656px;fill:#ffe4b3;stroke-width:0.26458332"
         id="path2347"
         inkscape:connector-curvature="0" />
      <path
         d="m 22.332487,225.56042 h -0.427881 v 1.32499 h -0.173632 v -1.32499 h -0.426848 v -0.15709 h 1.028361 z"
         style="font-size:2.11666656px;fill:#ffe4b3;stroke-width:0.26458332"
         id="path2349"
         inkscape:connector-curvature="0" />
      <path
         d="m 23.636801,226.88541 h -0.192237 l -0.157096,-0.41548 h -0.628385 l -0.147795,0.41548 h -0.19327 l 0.568441,-1.48208 h 0.179834 z m -0.406177,-0.57154 -0.232544,-0.63149 q -0.01137,-0.031 -0.02274,-0.0992 h -0.0041 q -0.01034,0.0631 -0.02377,0.0992 l -0.230477,0.63149 z"
         style="font-size:2.11666656px;fill:#ffe4b3;stroke-width:0.26458332"
         id="path2351"
         inkscape:connector-curvature="0" />
    </g>
    <path
       style="fill:none;stroke:#ffe4b3;stroke-width:0.2;stroke-linecap:butt;stroke-linejoin:miter;stroke-miterlimit:4;stroke-dasharray:none;stroke-opacity:1"
       d="m 20.162075,273.53074 h 1.852083"
       id="path2413"
       inkscape:connector-curvature="0" />
    <g
       aria-label="RECIRCULATE"
       style="font-style:normal;font-variant:normal;font-weight:normal;font-stretch:normal;font-size:2.11666656px;line-height:1.25;font-family:'Yu Gothic UI';-inkscape-font-specification:'Yu Gothic UI';letter-spacing:0px;word-spacing:0px;fill:#ffe4b3;fill-opacity:1;stroke:none;stroke-width:0.26458332"
       id="text2417"
       transform="translate(-7.9374946,-5.8732777)">
      <path
         d="m 25.069271,238.79166 h -0.206706 l -0.248047,-0.41548 q -0.03411,-0.0579 -0.06615,-0.0982 -0.03204,-0.0413 -0.06614,-0.0672 -0.03307,-0.0258 -0.07235,-0.0372 -0.03824,-0.0124 -0.08682,-0.0124 h -0.142627 v 0.63046 h -0.173633 v -1.48208 h 0.442351 q 0.09715,0 0.1788,0.0248 0.08268,0.0238 0.142627,0.0734 0.06098,0.0496 0.09509,0.12403 0.03411,0.0734 0.03411,0.17259 0,0.0775 -0.02377,0.14263 -0.02274,0.0641 -0.06615,0.11472 -0.04237,0.0507 -0.103353,0.0868 -0.05994,0.0351 -0.135392,0.0548 v 0.004 q 0.03721,0.0165 0.06408,0.0382 0.02791,0.0207 0.05271,0.0496 0.0248,0.0289 0.04858,0.0661 0.0248,0.0362 0.05478,0.0848 z m -0.888835,-1.32499 v 0.53744 h 0.235645 q 0.06511,0 0.119889,-0.0196 0.05581,-0.0196 0.09612,-0.0558 0.04031,-0.0372 0.06304,-0.0899 0.02274,-0.0537 0.02274,-0.11989 0,-0.11885 -0.07751,-0.185 -0.07648,-0.0672 -0.222208,-0.0672 z"
         style="font-size:2.11666656px;fill:#ffe4b3;stroke-width:0.26458332"
         id="path2419"
         inkscape:connector-curvature="0" />
      <path
         d="m 26.057324,238.79166 h -0.785482 v -1.48208 h 0.752409 v 0.15709 h -0.578776 v 0.493 h 0.535368 v 0.15606 h -0.535368 v 0.51883 h 0.611849 z"
         style="font-size:2.11666656px;fill:#ffe4b3;stroke-width:0.26458332"
         id="path2421"
         inkscape:connector-curvature="0" />
      <path
         d="m 27.351302,238.72964 q -0.164331,0.0868 -0.409278,0.0868 -0.316259,0 -0.506429,-0.2036 -0.190169,-0.20361 -0.190169,-0.53434 0,-0.35553 0.213941,-0.57464 0.21394,-0.21911 0.542602,-0.21911 0.21084,0 0.349333,0.061 v 0.185 q -0.159164,-0.0889 -0.3514,-0.0889 -0.255282,0 -0.414445,0.17053 -0.15813,0.17053 -0.15813,0.45579 0,0.27078 0.147795,0.43201 0.148828,0.1602 0.38964,0.1602 0.223242,0 0.38654,-0.0992 z"
         style="font-size:2.11666656px;fill:#ffe4b3;stroke-width:0.26458332"
         id="path2423"
         inkscape:connector-curvature="0" />
      <path
         d="m 27.826725,238.79166 h -0.173633 v -1.48208 h 0.173633 z"
         style="font-size:2.11666656px;fill:#ffe4b3;stroke-width:0.26458332"
         id="path2425"
         inkscape:connector-curvature="0" />
      <path
         d="m 29.277799,238.79166 h -0.206705 l -0.248047,-0.41548 q -0.03411,-0.0579 -0.06615,-0.0982 -0.03204,-0.0413 -0.06615,-0.0672 -0.03307,-0.0258 -0.07235,-0.0372 -0.03824,-0.0124 -0.08682,-0.0124 H 28.38895 v 0.63046 h -0.173633 v -1.48208 h 0.44235 q 0.09715,0 0.178801,0.0248 0.08268,0.0238 0.142627,0.0734 0.06098,0.0496 0.09508,0.12403 0.03411,0.0734 0.03411,0.17259 0,0.0775 -0.02377,0.14263 -0.02274,0.0641 -0.06614,0.11472 -0.04237,0.0507 -0.103353,0.0868 -0.05994,0.0351 -0.135392,0.0548 v 0.004 q 0.03721,0.0165 0.06408,0.0382 0.02791,0.0207 0.05271,0.0496 0.02481,0.0289 0.04858,0.0661 0.02481,0.0362 0.05478,0.0848 z m -0.888834,-1.32499 v 0.53744 h 0.235644 q 0.06511,0 0.11989,-0.0196 0.05581,-0.0196 0.09612,-0.0558 0.04031,-0.0372 0.06304,-0.0899 0.02274,-0.0537 0.02274,-0.11989 0,-0.11885 -0.07752,-0.185 -0.07648,-0.0672 -0.222209,-0.0672 z"
         style="font-size:2.11666656px;fill:#ffe4b3;stroke-width:0.26458332"
         id="path2427"
         inkscape:connector-curvature="0" />
      <path
         d="m 30.468424,238.72964 q -0.164331,0.0868 -0.409277,0.0868 -0.31626,0 -0.506429,-0.2036 -0.19017,-0.20361 -0.19017,-0.53434 0,-0.35553 0.213941,-0.57464 0.21394,-0.21911 0.542602,-0.21911 0.21084,0 0.349333,0.061 v 0.185 q -0.159164,-0.0889 -0.3514,-0.0889 -0.255281,0 -0.414445,0.17053 -0.15813,0.17053 -0.15813,0.45579 0,0.27078 0.147795,0.43201 0.148828,0.1602 0.38964,0.1602 0.223242,0 0.38654,-0.0992 z"
         style="font-size:2.11666656px;fill:#ffe4b3;stroke-width:0.26458332"
         id="path2429"
         inkscape:connector-curvature="0" />
      <path
         d="m 31.854386,238.19221 q 0,0.62425 -0.563273,0.62425 -0.539502,0 -0.539502,-0.60048 v -0.9064 h 0.173633 v 0.89503 q 0,0.45579 0.384472,0.45579 0.371037,0 0.371037,-0.44028 v -0.91054 h 0.173633 z"
         style="font-size:2.11666656px;fill:#ffe4b3;stroke-width:0.26458332"
         id="path2431"
         inkscape:connector-curvature="0" />
      <path
         d="m 32.994368,238.79166 h -0.768945 v -1.48208 h 0.173633 v 1.32498 h 0.595312 z"
         style="font-size:2.11666656px;fill:#ffe4b3;stroke-width:0.26458332"
         id="path2433"
         inkscape:connector-curvature="0" />
      <path
         d="m 34.368961,238.79166 h -0.192236 l -0.157097,-0.41548 h -0.628385 l -0.147794,0.41548 h -0.19327 l 0.56844,-1.48208 h 0.179834 z m -0.406177,-0.57154 -0.232544,-0.63149 q -0.01137,-0.031 -0.02274,-0.0992 h -0.0041 q -0.01034,0.0631 -0.02377,0.0992 l -0.230477,0.63149 z"
         style="font-size:2.11666656px;fill:#ffe4b3;stroke-width:0.26458332"
         id="path2435"
         inkscape:connector-curvature="0" />
      <path
         d="m 35.38802,237.46667 h -0.427881 v 1.32499 h -0.173632 v -1.32499 h -0.426848 v -0.15709 h 1.028361 z"
         style="font-size:2.11666656px;fill:#ffe4b3;stroke-width:0.26458332"
         id="path2437"
         inkscape:connector-curvature="0" />
      <path
         d="m 36.405012,238.79166 h -0.785481 v -1.48208 h 0.752408 v 0.15709 h -0.578776 v 0.493 h 0.535368 v 0.15606 h -0.535368 v 0.51883 h 0.611849 z"
         style="font-size:2.11666656px;fill:#ffe4b3;stroke-width:0.26458332"
         id="path2439"
         inkscape:connector-curvature="0" />
    </g>
    <g
       aria-label="DLY"
       style="font-style:normal;font-variant:normal;font-weight:normal;font-stretch:normal;font-size:2.82222223px;line-height:1.25;font-family:'Yu Gothic UI';-inkscape-font-specification:'Yu Gothic UI';letter-spacing:0px;word-spacing:0px;fill:#ffe4b3;fill-opacity:1;stroke:none;stroke-width:0.26458332"
       id="text2457"
       transform="translate(-3.533293,-11.760734)">
      <path
         d="m 23.013237,221.06458 v -1.97611 h 0.545703 q 1.044553,0 1.044553,0.96325 0,0.45751 -0.290766,0.73587 -0.289388,0.27699 -0.775836,0.27699 z m 0.23151,-1.76665 v 1.55718 h 0.2949 q 0.388607,0 0.604959,-0.20808 0.216352,-0.20808 0.216352,-0.5898 0,-0.7593 -0.80753,-0.7593 z"
         style="fill:#ffe4b3;stroke-width:0.26458332"
         id="path2459"
         inkscape:connector-curvature="0" />
      <path
         d="M 26.01736,221.06458 H 24.9921 v -1.97611 h 0.23151 v 1.76664 h 0.79375 z"
         style="fill:#ffe4b3;stroke-width:0.26458332"
         id="path2461"
         inkscape:connector-curvature="0" />
      <path
         d="m 27.494617,219.08847 -0.651812,1.24574 v 0.73037 h -0.23151 v -0.72485 l -0.635276,-1.25126 h 0.263205 l 0.442351,0.89297 q 0.0083,0.0165 0.04823,0.12126 h 0.0041 q 0.01378,-0.0469 0.05236,-0.12126 l 0.463021,-0.89297 z"
         style="fill:#ffe4b3;stroke-width:0.26458332"
         id="path2463"
         inkscape:connector-curvature="0" />
    </g>
    <path
       style="fill:none;stroke:#ffe4b3;stroke-width:0.26458332px;stroke-linecap:butt;stroke-linejoin:miter;stroke-opacity:1"
       d="m 11.1125,213.39165 6.879167,0"
       id="path2466"
       inkscape:connector-curvature="0"
       sodipodi:nodetypes="cc" />
    <path
       style="fill:none;stroke:#ffe4b3;stroke-width:0.26458332px;stroke-linecap:butt;stroke-linejoin:miter;stroke-opacity:1"
       d="m 16.805171,212.06874 1.322917,1.32291 -1.322917,1.32292"
       id="path2468"
       inkscape:connector-curvature="0" />
  </g>
  <g
     inkscape:groupmode="layer"
     id="layer2"
     inkscape:label="Grid"
     style="display:none"
     sodipodi:insensitive="true">
    <g
       transform="translate(7.9374991)"
       style="display:inline;stroke:#ffe4b3"
       id="g2708">
      <path
         style="fill:none;stroke:#ffe4b3;stroke-width:0.05;stroke-linecap:butt;stroke-linejoin:miter;stroke-miterlimit:4;stroke-dasharray:none;stroke-opacity:1"
         d="M 7.9375007,-5.0001865e-6 7.9374977,100.54166"
         id="path881-8-8-2"
         inkscape:connector-curvature="0"
         sodipodi:nodetypes="cc" />
      <path
         sodipodi:nodetypes="cc"
         inkscape:connector-curvature="0"
         id="path890-2-5-0"
         d="M 3.9687527,4.9998135e-6 3.9687487,100.54167"
         style="fill:none;stroke:#ffe4b3;stroke-width:0.05;stroke-linecap:butt;stroke-linejoin:miter;stroke-miterlimit:4;stroke-dasharray:none;stroke-opacity:1" />
      <path
         style="fill:none;stroke:#ffe4b3;stroke-width:0.05;stroke-linecap:butt;stroke-linejoin:miter;stroke-miterlimit:4;stroke-dasharray:none;stroke-opacity:1"
         d="M 11.906254,4.9998135e-6 11.90625,100.54167"
         id="path895-1-5-2"
         inkscape:connector-curvature="0"
         sodipodi:nodetypes="cc" />
      <path
         sodipodi:nodetypes="cc"
         inkscape:connector-curvature="0"
         id="path1107-7"
         d="M 7.2598426e-7,50.270605 15.875001,50.271066"
         style="fill:none;stroke:#ffe4b3;stroke-width:0.05;stroke-linecap:butt;stroke-linejoin:miter;stroke-miterlimit:4;stroke-dasharray:none;stroke-opacity:1" />
      <circle
         r="4.0999999"
         cy="50.270832"
         cx="7.9523048"
         id="circle1018-7"
         style="display:inline;opacity:1;fill:none;fill-opacity:1;stroke:#ffe4b3;stroke-width:0.05;stroke-linecap:square;stroke-linejoin:round;stroke-miterlimit:4;stroke-dasharray:none;stroke-dashoffset:0;stroke-opacity:1;paint-order:markers fill stroke" />
      <circle
         style="display:inline;opacity:1;fill:none;fill-opacity:1;stroke:#ffe4b3;stroke-width:0.05172414;stroke-linecap:square;stroke-linejoin:round;stroke-miterlimit:4;stroke-dasharray:none;stroke-dashoffset:0;stroke-opacity:1;paint-order:markers fill stroke"
         id="circle977-3"
         cx="7.9360805"
         cy="50.270832"
         r="5.4741378" />
      <path
         style="fill:none;stroke:#ffe4b3;stroke-width:0.05;stroke-linecap:butt;stroke-linejoin:miter;stroke-miterlimit:4;stroke-dasharray:none;stroke-opacity:1"
         d="M 7.2598426e-7,33.601974 15.875001,33.602435"
         id="path1010"
         inkscape:connector-curvature="0"
         sodipodi:nodetypes="cc" />
      <circle
         style="display:inline;opacity:1;fill:none;fill-opacity:1;stroke:#ffe4b3;stroke-width:0.05;stroke-linecap:square;stroke-linejoin:round;stroke-miterlimit:4;stroke-dasharray:none;stroke-dashoffset:0;stroke-opacity:1;paint-order:markers fill stroke"
         id="circle1012"
         cx="7.9523048"
         cy="33.602142"
         r="4.0999999" />
      <circle
         r="5.4741378"
         cy="33.602142"
         cx="7.9360805"
         id="circle1015"
         style="display:inline;opacity:1;fill:none;fill-opacity:1;stroke:#ffe4b3;stroke-width:0.05172414;stroke-linecap:square;stroke-linejoin:round;stroke-miterlimit:4;stroke-dasharray:none;stroke-dashoffset:0;stroke-opacity:1;paint-order:markers fill stroke" />
      <path
         style="fill:none;stroke:#ffe4b3;stroke-width:0.05;stroke-linecap:butt;stroke-linejoin:miter;stroke-miterlimit:4;stroke-dasharray:none;stroke-opacity:1"
         d="M 7.2598426e-7,66.940056 15.875001,66.940517"
         id="path1017-7"
         inkscape:connector-curvature="0"
         sodipodi:nodetypes="cc" />
      <circle
         style="display:inline;opacity:1;fill:none;fill-opacity:1;stroke:#ffe4b3;stroke-width:0.05;stroke-linecap:square;stroke-linejoin:round;stroke-miterlimit:4;stroke-dasharray:none;stroke-dashoffset:0;stroke-opacity:1;paint-order:markers fill stroke"
         id="circle1019"
         cx="7.9523048"
         cy="66.940338"
         r="4.0999999" />
      <circle
         r="5.4741378"
         cy="66.940338"
         cx="7.9360805"
         id="circle1021"
         style="display:inline;opacity:1;fill:none;fill-opacity:1;stroke:#ffe4b3;stroke-width:0.05172414;stroke-linecap:square;stroke-linejoin:round;stroke-miterlimit:4;stroke-dasharray:none;stroke-dashoffset:0;stroke-opacity:1;paint-order:markers fill stroke" />
      <path
         sodipodi:nodetypes="cc"
         inkscape:connector-curvature="0"
         id="path1023"
         d="M 7.2598426e-7,83.608108 15.875001,83.608569"
         style="fill:none;stroke:#ffe4b3;stroke-width:0.05;stroke-linecap:butt;stroke-linejoin:miter;stroke-miterlimit:4;stroke-dasharray:none;stroke-opacity:1" />
      <circle
         r="4.0999999"
         cy="83.60833"
         cx="7.9523048"
         id="circle1025"
         style="display:inline;opacity:1;fill:none;fill-opacity:1;stroke:#ffe4b3;stroke-width:0.05;stroke-linecap:square;stroke-linejoin:round;stroke-miterlimit:4;stroke-dasharray:none;stroke-dashoffset:0;stroke-opacity:1;paint-order:markers fill stroke" />
      <circle
         style="display:inline;opacity:1;fill:none;fill-opacity:1;stroke:#ffe4b3;stroke-width:0.05172414;stroke-linecap:square;stroke-linejoin:round;stroke-miterlimit:4;stroke-dasharray:none;stroke-dashoffset:0;stroke-opacity:1;paint-order:markers fill stroke"
         id="circle1027"
         cx="7.9360805"
         cy="83.60833"
         r="5.4741378" />
      <path
         sodipodi:nodetypes="cc"
         inkscape:connector-curvature="0"
         id="path1029"
         d="M 7.2598426e-7,16.933102 15.875001,16.933563"
         style="fill:none;stroke:#ffe4b3;stroke-width:0.05;stroke-linecap:butt;stroke-linejoin:miter;stroke-miterlimit:4;stroke-dasharray:none;stroke-opacity:1" />
      <circle
         r="4.0999999"
         cy="16.933331"
         cx="7.9523048"
         id="circle1031"
         style="display:inline;opacity:1;fill:none;fill-opacity:1;stroke:#ffe4b3;stroke-width:0.05;stroke-linecap:square;stroke-linejoin:round;stroke-miterlimit:4;stroke-dasharray:none;stroke-dashoffset:0;stroke-opacity:1;paint-order:markers fill stroke" />
      <circle
         style="display:inline;opacity:1;fill:none;fill-opacity:1;stroke:#ffe4b3;stroke-width:0.05172414;stroke-linecap:square;stroke-linejoin:round;stroke-miterlimit:4;stroke-dasharray:none;stroke-dashoffset:0;stroke-opacity:1;paint-order:markers fill stroke"
         id="circle1033"
         cx="7.9360805"
         cy="16.933331"
         r="5.4741378" />
    </g>
    <g
       id="g2197"
       style="display:inline;stroke:#ffe4b3">
      <path
         sodipodi:nodetypes="cc"
         inkscape:connector-curvature="0"
         id="path2161"
         d="M 7.9375007,-5.0001865e-6 7.9374977,100.54166"
         style="fill:none;stroke:#ffe4b3;stroke-width:0.05;stroke-linecap:butt;stroke-linejoin:miter;stroke-miterlimit:4;stroke-dasharray:none;stroke-opacity:1" />
      <path
         style="fill:none;stroke:#ffe4b3;stroke-width:0.05;stroke-linecap:butt;stroke-linejoin:miter;stroke-miterlimit:4;stroke-dasharray:none;stroke-opacity:1"
         d="M 3.9687527,4.9998135e-6 3.9687487,100.54167"
         id="path2163"
         inkscape:connector-curvature="0"
         sodipodi:nodetypes="cc" />
      <path
         sodipodi:nodetypes="cc"
         inkscape:connector-curvature="0"
         id="path2165"
         d="M 11.906254,4.9998135e-6 11.90625,100.54167"
         style="fill:none;stroke:#ffe4b3;stroke-width:0.05;stroke-linecap:butt;stroke-linejoin:miter;stroke-miterlimit:4;stroke-dasharray:none;stroke-opacity:1" />
      <path
         style="fill:none;stroke:#ffe4b3;stroke-width:0.05;stroke-linecap:butt;stroke-linejoin:miter;stroke-miterlimit:4;stroke-dasharray:none;stroke-opacity:1"
         d="M 7.2598426e-7,50.270605 15.875001,50.271066"
         id="path2167"
         inkscape:connector-curvature="0"
         sodipodi:nodetypes="cc" />
      <circle
         style="display:inline;opacity:1;fill:none;fill-opacity:1;stroke:#ffe4b3;stroke-width:0.05;stroke-linecap:square;stroke-linejoin:round;stroke-miterlimit:4;stroke-dasharray:none;stroke-dashoffset:0;stroke-opacity:1;paint-order:markers fill stroke"
         id="circle2169"
         cx="7.9523048"
         cy="50.270832"
         r="4.0999999" />
      <circle
         r="5.4741378"
         cy="50.270832"
         cx="7.9360805"
         id="circle2171"
         style="display:inline;opacity:1;fill:none;fill-opacity:1;stroke:#ffe4b3;stroke-width:0.05172414;stroke-linecap:square;stroke-linejoin:round;stroke-miterlimit:4;stroke-dasharray:none;stroke-dashoffset:0;stroke-opacity:1;paint-order:markers fill stroke" />
      <path
         sodipodi:nodetypes="cc"
         inkscape:connector-curvature="0"
         id="path2173"
         d="M 7.2598426e-7,33.601974 15.875001,33.602435"
         style="fill:none;stroke:#ffe4b3;stroke-width:0.05;stroke-linecap:butt;stroke-linejoin:miter;stroke-miterlimit:4;stroke-dasharray:none;stroke-opacity:1" />
      <circle
         r="4.0999999"
         cy="33.602142"
         cx="7.9523048"
         id="circle2175"
         style="display:inline;opacity:1;fill:none;fill-opacity:1;stroke:#ffe4b3;stroke-width:0.05;stroke-linecap:square;stroke-linejoin:round;stroke-miterlimit:4;stroke-dasharray:none;stroke-dashoffset:0;stroke-opacity:1;paint-order:markers fill stroke" />
      <circle
         style="display:inline;opacity:1;fill:none;fill-opacity:1;stroke:#ffe4b3;stroke-width:0.05172414;stroke-linecap:square;stroke-linejoin:round;stroke-miterlimit:4;stroke-dasharray:none;stroke-dashoffset:0;stroke-opacity:1;paint-order:markers fill stroke"
         id="circle2177"
         cx="7.9360805"
         cy="33.602142"
         r="5.4741378" />
      <path
         sodipodi:nodetypes="cc"
         inkscape:connector-curvature="0"
         id="path2179"
         d="M 7.2598426e-7,66.940056 15.875001,66.940517"
         style="fill:none;stroke:#ffe4b3;stroke-width:0.05;stroke-linecap:butt;stroke-linejoin:miter;stroke-miterlimit:4;stroke-dasharray:none;stroke-opacity:1" />
      <circle
         r="4.0999999"
         cy="66.940338"
         cx="7.9523048"
         id="circle2181"
         style="display:inline;opacity:1;fill:none;fill-opacity:1;stroke:#ffe4b3;stroke-width:0.05;stroke-linecap:square;stroke-linejoin:round;stroke-miterlimit:4;stroke-dasharray:none;stroke-dashoffset:0;stroke-opacity:1;paint-order:markers fill stroke" />
      <circle
         style="display:inline;opacity:1;fill:none;fill-opacity:1;stroke:#ffe4b3;stroke-width:0.05172414;stroke-linecap:square;stroke-linejoin:round;stroke-miterlimit:4;stroke-dasharray:none;stroke-dashoffset:0;stroke-opacity:1;paint-order:markers fill stroke"
         id="circle2183"
         cx="7.9360805"
         cy="66.940338"
         r="5.4741378" />
      <path
         style="fill:none;stroke:#ffe4b3;stroke-width:0.05;stroke-linecap:butt;stroke-linejoin:miter;stroke-miterlimit:4;stroke-dasharray:none;stroke-opacity:1"
         d="M 7.2598426e-7,83.608108 15.875001,83.608569"
         id="path2185"
         inkscape:connector-curvature="0"
         sodipodi:nodetypes="cc" />
      <circle
         style="display:inline;opacity:1;fill:none;fill-opacity:1;stroke:#ffe4b3;stroke-width:0.05;stroke-linecap:square;stroke-linejoin:round;stroke-miterlimit:4;stroke-dasharray:none;stroke-dashoffset:0;stroke-opacity:1;paint-order:markers fill stroke"
         id="circle2187"
         cx="7.9523048"
         cy="83.60833"
         r="4.0999999" />
      <circle
         r="5.4741378"
         cy="83.60833"
         cx="7.9360805"
         id="circle2189"
         style="display:inline;opacity:1;fill:none;fill-opacity:1;stroke:#ffe4b3;stroke-width:0.05172414;stroke-linecap:square;stroke-linejoin:round;stroke-miterlimit:4;stroke-dasharray:none;stroke-dashoffset:0;stroke-opacity:1;paint-order:markers fill stroke" />
      <path
         style="fill:none;stroke:#ffe4b3;stroke-width:0.05;stroke-linecap:butt;stroke-linejoin:miter;stroke-miterlimit:4;stroke-dasharray:none;stroke-opacity:1"
         d="M 7.2598426e-7,16.933102 15.875001,16.933563"
         id="path2191"
         inkscape:connector-curvature="0"
         sodipodi:nodetypes="cc" />
      <circle
         style="display:inline;opacity:1;fill:none;fill-opacity:1;stroke:#ffe4b3;stroke-width:0.05;stroke-linecap:square;stroke-linejoin:round;stroke-miterlimit:4;stroke-dasharray:none;stroke-dashoffset:0;stroke-opacity:1;paint-order:markers fill stroke"
         id="circle2193"
         cx="7.9523048"
         cy="16.933331"
         r="4.0999999" />
      <circle
         r="5.4741378"
         cy="16.933331"
         cx="7.9360805"
         id="circle2195"
         style="display:inline;opacity:1;fill:none;fill-opacity:1;stroke:#ffe4b3;stroke-width:0.05172414;stroke-linecap:square;stroke-linejoin:round;stroke-miterlimit:4;stroke-dasharray:none;stroke-dashoffset:0;stroke-opacity:1;paint-order:markers fill stroke" />
    </g>
    <g
       id="g2235"
       style="display:inline;stroke:#ffe4b3"
       transform="translate(15.874998)">
      <path
         sodipodi:nodetypes="cc"
         inkscape:connector-curvature="0"
         id="path2199"
         d="M 7.9375007,-5.0001865e-6 7.9374977,100.54166"
         style="fill:none;stroke:#ffe4b3;stroke-width:0.05;stroke-linecap:butt;stroke-linejoin:miter;stroke-miterlimit:4;stroke-dasharray:none;stroke-opacity:1" />
      <path
         style="fill:none;stroke:#ffe4b3;stroke-width:0.05;stroke-linecap:butt;stroke-linejoin:miter;stroke-miterlimit:4;stroke-dasharray:none;stroke-opacity:1"
         d="M 3.9687527,4.9998135e-6 3.9687487,100.54167"
         id="path2201"
         inkscape:connector-curvature="0"
         sodipodi:nodetypes="cc" />
      <path
         sodipodi:nodetypes="cc"
         inkscape:connector-curvature="0"
         id="path2203"
         d="M 11.906254,4.9998135e-6 11.90625,100.54167"
         style="fill:none;stroke:#ffe4b3;stroke-width:0.05;stroke-linecap:butt;stroke-linejoin:miter;stroke-miterlimit:4;stroke-dasharray:none;stroke-opacity:1" />
      <path
         style="fill:none;stroke:#ffe4b3;stroke-width:0.05;stroke-linecap:butt;stroke-linejoin:miter;stroke-miterlimit:4;stroke-dasharray:none;stroke-opacity:1"
         d="M 7.2598426e-7,50.270605 15.875001,50.271066"
         id="path2205"
         inkscape:connector-curvature="0"
         sodipodi:nodetypes="cc" />
      <circle
         style="display:inline;opacity:1;fill:none;fill-opacity:1;stroke:#ffe4b3;stroke-width:0.05;stroke-linecap:square;stroke-linejoin:round;stroke-miterlimit:4;stroke-dasharray:none;stroke-dashoffset:0;stroke-opacity:1;paint-order:markers fill stroke"
         id="circle2207"
         cx="7.9523048"
         cy="50.270832"
         r="4.0999999" />
      <circle
         r="5.4741378"
         cy="50.270832"
         cx="7.9360805"
         id="circle2209"
         style="display:inline;opacity:1;fill:none;fill-opacity:1;stroke:#ffe4b3;stroke-width:0.05172414;stroke-linecap:square;stroke-linejoin:round;stroke-miterlimit:4;stroke-dasharray:none;stroke-dashoffset:0;stroke-opacity:1;paint-order:markers fill stroke" />
      <path
         sodipodi:nodetypes="cc"
         inkscape:connector-curvature="0"
         id="path2211"
         d="M 7.2598426e-7,33.601974 15.875001,33.602435"
         style="fill:none;stroke:#ffe4b3;stroke-width:0.05;stroke-linecap:butt;stroke-linejoin:miter;stroke-miterlimit:4;stroke-dasharray:none;stroke-opacity:1" />
      <circle
         r="4.0999999"
         cy="33.602142"
         cx="7.9523048"
         id="circle2213"
         style="display:inline;opacity:1;fill:none;fill-opacity:1;stroke:#ffe4b3;stroke-width:0.05;stroke-linecap:square;stroke-linejoin:round;stroke-miterlimit:4;stroke-dasharray:none;stroke-dashoffset:0;stroke-opacity:1;paint-order:markers fill stroke" />
      <circle
         style="display:inline;opacity:1;fill:none;fill-opacity:1;stroke:#ffe4b3;stroke-width:0.05172414;stroke-linecap:square;stroke-linejoin:round;stroke-miterlimit:4;stroke-dasharray:none;stroke-dashoffset:0;stroke-opacity:1;paint-order:markers fill stroke"
         id="circle2215"
         cx="7.9360805"
         cy="33.602142"
         r="5.4741378" />
      <path
         sodipodi:nodetypes="cc"
         inkscape:connector-curvature="0"
         id="path2217"
         d="M 7.2598426e-7,66.940056 15.875001,66.940517"
         style="fill:none;stroke:#ffe4b3;stroke-width:0.05;stroke-linecap:butt;stroke-linejoin:miter;stroke-miterlimit:4;stroke-dasharray:none;stroke-opacity:1" />
      <circle
         r="4.0999999"
         cy="66.940338"
         cx="7.9523048"
         id="circle2219"
         style="display:inline;opacity:1;fill:none;fill-opacity:1;stroke:#ffe4b3;stroke-width:0.05;stroke-linecap:square;stroke-linejoin:round;stroke-miterlimit:4;stroke-dasharray:none;stroke-dashoffset:0;stroke-opacity:1;paint-order:markers fill stroke" />
      <circle
         style="display:inline;opacity:1;fill:none;fill-opacity:1;stroke:#ffe4b3;stroke-width:0.05172414;stroke-linecap:square;stroke-linejoin:round;stroke-miterlimit:4;stroke-dasharray:none;stroke-dashoffset:0;stroke-opacity:1;paint-order:markers fill stroke"
         id="circle2221"
         cx="7.9360805"
         cy="66.940338"
         r="5.4741378" />
      <path
         style="fill:none;stroke:#ffe4b3;stroke-width:0.05;stroke-linecap:butt;stroke-linejoin:miter;stroke-miterlimit:4;stroke-dasharray:none;stroke-opacity:1"
         d="M 7.2598426e-7,83.608108 15.875001,83.608569"
         id="path2223"
         inkscape:connector-curvature="0"
         sodipodi:nodetypes="cc" />
      <circle
         style="display:inline;opacity:1;fill:none;fill-opacity:1;stroke:#ffe4b3;stroke-width:0.05;stroke-linecap:square;stroke-linejoin:round;stroke-miterlimit:4;stroke-dasharray:none;stroke-dashoffset:0;stroke-opacity:1;paint-order:markers fill stroke"
         id="circle2225"
         cx="7.9523048"
         cy="83.60833"
         r="4.0999999" />
      <circle
         r="5.4741378"
         cy="83.60833"
         cx="7.9360805"
         id="circle2227"
         style="display:inline;opacity:1;fill:none;fill-opacity:1;stroke:#ffe4b3;stroke-width:0.05172414;stroke-linecap:square;stroke-linejoin:round;stroke-miterlimit:4;stroke-dasharray:none;stroke-dashoffset:0;stroke-opacity:1;paint-order:markers fill stroke" />
      <path
         style="fill:none;stroke:#ffe4b3;stroke-width:0.05;stroke-linecap:butt;stroke-linejoin:miter;stroke-miterlimit:4;stroke-dasharray:none;stroke-opacity:1"
         d="M 7.2598426e-7,16.933102 15.875001,16.933563"
         id="path2229"
         inkscape:connector-curvature="0"
         sodipodi:nodetypes="cc" />
      <circle
         style="display:inline;opacity:1;fill:none;fill-opacity:1;stroke:#ffe4b3;stroke-width:0.05;stroke-linecap:square;stroke-linejoin:round;stroke-miterlimit:4;stroke-dasharray:none;stroke-dashoffset:0;stroke-opacity:1;paint-order:markers fill stroke"
         id="circle2231"
         cx="7.9523048"
         cy="16.933331"
         r="4.0999999" />
      <circle
         r="5.4741378"
         cy="16.933331"
         cx="7.9360805"
         id="circle2233"
         style="display:inline;opacity:1;fill:none;fill-opacity:1;stroke:#ffe4b3;stroke-width:0.05172414;stroke-linecap:square;stroke-linejoin:round;stroke-miterlimit:4;stroke-dasharray:none;stroke-dashoffset:0;stroke-opacity:1;paint-order:markers fill stroke" />
    </g>
  </g>
</svg>
