<?xml version="1.0" encoding="UTF-8" standalone="no"?>
<!-- Created with Inkscape (http://www.inkscape.org/) -->

<svg
   xmlns:dc="http://purl.org/dc/elements/1.1/"
   xmlns:cc="http://creativecommons.org/ns#"
   xmlns:rdf="http://www.w3.org/1999/02/22-rdf-syntax-ns#"
   xmlns:svg="http://www.w3.org/2000/svg"
   xmlns="http://www.w3.org/2000/svg"
   xmlns:sodipodi="http://sodipodi.sourceforge.net/DTD/sodipodi-0.dtd"
   xmlns:inkscape="http://www.inkscape.org/namespaces/inkscape"
   width="180"
   height="380"
   viewBox="0 0 47.625004 100.54167"
   version="1.1"
   id="svg8"
   inkscape:version="0.92.4 (5da689c313, 2019-01-14)"
   sodipodi:docname="CD4019.svg">
  <defs
     id="defs2" />
  <sodipodi:namedview
     id="base"
     pagecolor="#ffffff"
     bordercolor="#666666"
     borderopacity="1.0"
     inkscape:pageopacity="0.0"
     inkscape:pageshadow="2"
     inkscape:zoom="9.1157896"
     inkscape:cx="154.59871"
     inkscape:cy="87.084873"
     inkscape:document-units="mm"
     inkscape:current-layer="layer1"
     showgrid="true"
     units="px"
     inkscape:snap-bbox="true"
     inkscape:snap-page="true"
     inkscape:bbox-nodes="true"
     inkscape:snap-bbox-edge-midpoints="true"
     inkscape:window-width="1920"
     inkscape:window-height="1017"
     inkscape:window-x="-8"
     inkscape:window-y="-8"
     inkscape:window-maximized="1">
    <inkscape:grid
       type="xygrid"
       id="grid116" />
  </sodipodi:namedview>
  <metadata
     id="metadata5">
    <rdf:RDF>
      <cc:Work
         rdf:about="">
        <dc:format>image/svg+xml</dc:format>
        <dc:type
           rdf:resource="http://purl.org/dc/dcmitype/StillImage" />
        <dc:title></dc:title>
      </cc:Work>
    </rdf:RDF>
  </metadata>
  <g
     inkscape:groupmode="layer"
     id="layer3"
     inkscape:label="Panel"
     sodipodi:insensitive="true">
    <path
       sodipodi:type="inkscape:offset"
       inkscape:radius="0"
       inkscape:original="M 0 196.45898 L 0 297 L 15.875 297 L 15.875 196.45898 L 0 196.45898 z "
       style="fill:#672200;fill-opacity:1;stroke-width:0.3310422"
       id="rect3855"
       d="M 0,196.45898 V 297 H 15.875 V 196.45898 Z"
       transform="matrix(3,0,0,1.0000064,0,-196.46023)" />
  </g>
  <g
     inkscape:label="Layer 1"
     inkscape:groupmode="layer"
     id="layer1"
     transform="translate(0,-196.45832)"
     style="display:inline">
    <text
       xml:space="preserve"
       style="font-style:normal;font-weight:normal;font-size:2.82222223px;line-height:1.25;font-family:sans-serif;letter-spacing:0px;word-spacing:0px;fill:#000000;fill-opacity:1;stroke:none;stroke-width:0.26458332"
       x="17.197916"
       y="201.74998"
       id="text3821"><tspan
         sodipodi:role="line"
         id="tspan3819"
         x="17.197916"
         y="204.24699"
         style="stroke-width:0.26458332" /></text>
    <g
       id="g4342"
       transform="translate(7.9374999)">
      <g
         transform="translate(-9.481569,1.7166648)"
         id="text956"
         style="font-style:normal;font-variant:normal;font-weight:normal;font-stretch:normal;font-size:2.82222223px;line-height:1.25;font-family:'Copperplate Gothic Light';-inkscape-font-specification:'Copperplate Gothic Light, ';letter-spacing:0px;word-spacing:0px;fill:#ffffff;fill-opacity:1;stroke:#ffffff;stroke-width:0.2;stroke-miterlimit:4;stroke-dasharray:none;stroke-opacity:1"
         aria-label="/^M^\">
        <path
           inkscape:connector-curvature="0"
           id="path958"
           style="font-style:normal;font-variant:normal;font-weight:normal;font-stretch:normal;font-size:2.82222223px;line-height:1.25;font-family:'Copperplate Gothic Light';-inkscape-font-specification:'Copperplate Gothic Light, ';fill:#ffffff;stroke:#ffffff;stroke-width:0.2;stroke-miterlimit:4;stroke-dasharray:none;stroke-opacity:1"
           d="m 21.203855,291.40545 v 0.0386 h -0.434082 v -0.0386 q 0.09509,-0.006 0.224621,-0.17088 l 1.094162,-1.4621 q 0.07441,-0.1006 0.07441,-0.12402 0,-0.0372 -0.06615,-0.0482 v -0.0372 h 0.423058 v 0.0372 q -0.09508,0.006 -0.22462,0.17087 l -1.08176,1.46348 q -0.07579,0.10197 -0.07579,0.12402 0,0.0358 0.06615,0.0469 z" />
        <path
           inkscape:connector-curvature="0"
           id="path960"
           style="font-style:normal;font-variant:normal;font-weight:normal;font-stretch:normal;font-size:2.82222223px;line-height:1.25;font-family:'Copperplate Gothic Light';-inkscape-font-specification:'Copperplate Gothic Light, ';fill:#ffffff;stroke:#ffffff;stroke-width:0.2;stroke-miterlimit:4;stroke-dasharray:none;stroke-opacity:1"
           d="M 22.940183,290.3857 H 22.73899 l 0.493338,-0.8282 h 0.243912 l 0.493338,0.8282 h -0.20395 l -0.413411,-0.68075 z" />
        <path
           inkscape:connector-curvature="0"
           id="path962"
           style="font-style:normal;font-variant:normal;font-weight:normal;font-stretch:normal;font-size:2.82222223px;line-height:1.25;font-family:'Copperplate Gothic Light';-inkscape-font-specification:'Copperplate Gothic Light, ';fill:#ffffff;stroke:#ffffff;stroke-width:0.2;stroke-miterlimit:4;stroke-dasharray:none;stroke-opacity:1"
           d="m 25.342104,291.44403 -0.789616,-1.58061 v 1.418 q 0,0.0565 0.01791,0.0813 0.01791,0.0234 0.07028,0.0372 v 0.0441 h -0.373449 v -0.0441 q 0.05237,-0.0138 0.07028,-0.0372 0.01792,-0.0234 0.01792,-0.0813 v -1.5558 q 0,-0.0579 -0.01792,-0.0813 -0.01791,-0.0248 -0.07028,-0.0372 v -0.0441 h 0.487826 v 0.0441 q -0.06752,0.0234 -0.06752,0.0579 0,0.0165 0.04547,0.10611 l 0.62563,1.24161 0.628385,-1.25263 q 0.03307,-0.0661 0.03307,-0.0937 0,-0.0358 -0.06752,-0.0593 v -0.0441 h 0.49196 v 0.0441 q -0.05237,0.0138 -0.07028,0.0372 -0.01792,0.0234 -0.01792,0.0813 v 1.5558 q 0,0.0565 0.01792,0.0813 0.01791,0.0234 0.07028,0.0372 v 0.0441 h -0.392741 v -0.0441 q 0.05374,-0.0138 0.07028,-0.0372 0.01791,-0.0234 0.01791,-0.0813 v -1.418 z" />
        <path
           inkscape:connector-curvature="0"
           id="path964"
           style="font-style:normal;font-variant:normal;font-weight:normal;font-stretch:normal;font-size:2.82222223px;line-height:1.25;font-family:'Copperplate Gothic Light';-inkscape-font-specification:'Copperplate Gothic Light, ';fill:#ffffff;stroke:#ffffff;stroke-width:0.2;stroke-miterlimit:4;stroke-dasharray:none;stroke-opacity:1"
           d="m 26.942006,290.3857 h -0.201193 l 0.493338,-0.8282 h 0.243912 l 0.493338,0.8282 h -0.20395 l -0.413411,-0.68075 z" />
        <path
           inkscape:connector-curvature="0"
           id="path966"
           style="font-style:normal;font-variant:normal;font-weight:normal;font-stretch:normal;font-size:2.82222223px;line-height:1.25;font-family:'Copperplate Gothic Light';-inkscape-font-specification:'Copperplate Gothic Light, ';fill:#ffffff;stroke:#ffffff;stroke-width:0.2;stroke-miterlimit:4;stroke-dasharray:none;stroke-opacity:1"
           d="m 28.617701,289.56301 v 0.0372 q -0.06615,0.011 -0.06615,0.0482 0,0.0234 0.07441,0.12402 l 1.092784,1.4621 q 0.129536,0.16536 0.22462,0.17088 v 0.0386 h -0.434082 v -0.0386 q 0.06615,-0.011 0.06615,-0.0469 0,-0.0207 -0.07579,-0.12402 l -1.080382,-1.46348 q -0.129535,-0.16536 -0.22462,-0.17087 v -0.0372 z" />
      </g>
      <g
         id="text924"
         style="font-style:normal;font-variant:normal;font-weight:normal;font-stretch:normal;font-size:2.97226882px;line-height:1.25;font-family:'Yu Gothic UI';-inkscape-font-specification:'Yu Gothic UI';letter-spacing:0px;word-spacing:0px;fill:#ffffff;fill-opacity:1;stroke:none;stroke-width:0.24768905"
         aria-label="LUNETTA">
        <path
           id="path892"
           style="font-size:2.97226882px;fill:#ffffff;stroke-width:0.24768905"
           d="M 11.061028,295.90683 H 9.9812581 v -2.08117 h 0.2438189 v 1.86057 h 0.835951 z"
           inkscape:connector-curvature="0" />
        <path
           id="path894"
           style="font-size:2.97226882px;fill:#ffffff;stroke-width:0.24768905"
           d="m 12.902731,295.06507 q 0,0.87659 -0.79096,0.87659 -0.75758,0 -0.75758,-0.84321 v -1.27279 h 0.243819 v 1.25683 q 0,0.64002 0.539885,0.64002 0.521017,0 0.521017,-0.61825 v -1.2786 h 0.243819 z"
           inkscape:connector-curvature="0" />
        <path
           id="path896"
           style="font-size:2.97226882px;fill:#ffffff;stroke-width:0.24768905"
           d="m 15.101456,295.90683 h -0.298969 l -1.071062,-1.65884 q -0.04064,-0.0624 -0.06676,-0.13062 h -0.0087 q 0.01161,0.0668 0.01161,0.28591 v 1.50355 h -0.243819 v -2.08117 h 0.316384 l 1.042036,1.63272 q 0.06531,0.10159 0.08418,0.13932 h 0.0058 q -0.01451,-0.09 -0.01451,-0.30622 v -1.46582 h 0.243819 z"
           inkscape:connector-curvature="0" />
        <path
           id="path898"
           style="font-size:2.97226882px;fill:#ffffff;stroke-width:0.24768905"
           d="m 16.750136,295.90683 h -1.102991 v -2.08117 h 1.056549 v 0.2206 h -0.81273 v 0.69227 h 0.751775 v 0.21915 h -0.751775 v 0.72855 h 0.859172 z"
           inkscape:connector-curvature="0" />
        <path
           id="path900"
           style="font-size:2.97226882px;fill:#ffffff;stroke-width:0.24768905"
           d="m 18.381401,294.04626 h -0.60084 v 1.86057 h -0.243819 v -1.86057 h -0.599388 v -0.2206 h 1.444047 z"
           inkscape:connector-curvature="0" />
        <path
           id="path902"
           style="font-size:2.97226882px;fill:#ffffff;stroke-width:0.24768905"
           d="m 19.937197,294.04626 h -0.600839 v 1.86057 h -0.243819 v -1.86057 h -0.599388 v -0.2206 h 1.444046 z"
           inkscape:connector-curvature="0" />
        <path
           id="path904"
           style="font-size:2.97226882px;fill:#ffffff;stroke-width:0.24768905"
           d="M 21.768742,295.90683 H 21.4988 l -0.220598,-0.58342 h -0.882393 l -0.207536,0.58342 h -0.271394 l 0.798217,-2.08117 h 0.252527 z m -0.570362,-0.80257 -0.326543,-0.88675 q -0.01596,-0.0435 -0.03193,-0.13932 h -0.0058 q -0.01451,0.0885 -0.03338,0.13932 l -0.323641,0.88675 z"
           inkscape:connector-curvature="0" />
      </g>
    </g>
    <path
       sodipodi:nodetypes="ccccc"
       style="fill:none;stroke:#ffffff;stroke-width:0.26458332px;stroke-linecap:butt;stroke-linejoin:miter;stroke-opacity:1"
       d="m 34.395843,256.52202 v 11.37708 h 10.583338 l -4e-6,-11.37708 z"
       id="path939"
       inkscape:connector-curvature="0" />
    <path
       inkscape:connector-curvature="0"
       id="path941"
       d="M 34.395843,206.50892 V 217.886 h 10.583334 v -11.37708 z"
       style="fill:none;stroke:#ffffff;stroke-width:0.26499999;stroke-linecap:butt;stroke-linejoin:miter;stroke-miterlimit:4;stroke-dasharray:none;stroke-opacity:1"
       sodipodi:nodetypes="ccccc" />
    <path
       inkscape:connector-curvature="0"
       id="path943"
       d="m 34.395843,223.1775 v 11.37708 h 10.583338 l -4e-6,-11.37708 z"
       style="fill:none;stroke:#ffffff;stroke-width:0.26458332px;stroke-linecap:butt;stroke-linejoin:miter;stroke-opacity:1"
       sodipodi:nodetypes="ccccc" />
    <path
       style="fill:none;stroke:#ffffff;stroke-width:0.26458332px;stroke-linecap:butt;stroke-linejoin:miter;stroke-opacity:1"
       d="M 2.6458333,220.5354 H 44.979167"
       id="path1198"
       inkscape:connector-curvature="0"
       sodipodi:nodetypes="cc" />
    <g
       aria-label="CD4019"
       style="font-style:normal;font-variant:normal;font-weight:600;font-stretch:normal;font-size:3.52777767px;line-height:1.25;font-family:'Yu Gothic UI';-inkscape-font-specification:'Yu Gothic UI Semi-Bold';letter-spacing:0px;word-spacing:0px;fill:#ffffff;fill-opacity:1;stroke:none;stroke-width:0.26458332"
       id="text921"
       transform="translate(9.8348864)">
      <path
         d="m 9.9649386,199.93774 q -0.2790527,0.14469 -0.6941867,0.14469 -0.5374349,0 -0.8612738,-0.33934 -0.323839,-0.33934 -0.323839,-0.89056 0,-0.59255 0.3634576,-0.95773 0.3651801,-0.36518 0.921563,-0.36518 0.3582899,0 0.5942789,0.10163 v 0.40652 q -0.2497694,-0.14814 -0.5512152,-0.14814 -0.4013536,0 -0.6511231,0.25666 -0.2480468,0.25666 -0.2480468,0.68557 0,0.40825 0.2325439,0.65113 0.232544,0.24115 0.6115044,0.24115 0.3496772,0 0.6063368,-0.16536 z"
         style="font-style:normal;font-variant:normal;font-weight:600;font-stretch:normal;font-size:3.52777767px;font-family:'Yu Gothic UI';-inkscape-font-specification:'Yu Gothic UI Semi-Bold';fill:#ffffff;stroke-width:0.26458332"
         id="path927"
         inkscape:connector-curvature="0" />
      <path
         d="m 10.433472,200.04109 v -2.47013 h 0.713134 q 1.365981,0 1.365981,1.20406 0,0.57189 -0.378961,0.91984 -0.37896,0.34623 -1.016303,0.34623 z m 0.408243,-2.12218 v 1.77595 h 0.327284 q 0.43236,0 0.671794,-0.23771 0.241157,-0.23771 0.241157,-0.6718 0,-0.86644 -0.897448,-0.86644 z"
         style="font-style:normal;font-variant:normal;font-weight:600;font-stretch:normal;font-size:3.52777767px;font-family:'Yu Gothic UI';-inkscape-font-specification:'Yu Gothic UI Semi-Bold';fill:#ffffff;stroke-width:0.26458332"
         id="path929"
         inkscape:connector-curvature="0" />
      <path
         d="m 14.25236,197.57096 v 1.59508 h 0.366903 v 0.33245 H 14.25236 v 0.5426 h -0.387573 v -0.5426 h -1.117934 v -0.3359 q 0.151585,-0.17053 0.310059,-0.36862 0.160197,-0.19982 0.306613,-0.40652 0.14814,-0.20843 0.273886,-0.41686 0.125746,-0.20843 0.211873,-0.39963 z m -0.387573,1.59508 v -1.03698 q -0.187758,0.33762 -0.37207,0.58912 -0.182591,0.25149 -0.342787,0.44786 z"
         style="font-style:normal;font-variant:normal;font-weight:600;font-stretch:normal;font-size:3.52777767px;font-family:'Yu Gothic UI';-inkscape-font-specification:'Yu Gothic UI Semi-Bold';fill:#ffffff;stroke-width:0.26458332"
         id="path931"
         inkscape:connector-curvature="0" />
      <path
         d="m 15.642456,200.08243 q -0.385851,0 -0.602892,-0.31522 -0.215318,-0.31523 -0.215318,-0.91123 0,-0.65457 0.225654,-0.99047 0.225653,-0.33589 0.651123,-0.33589 0.814765,0 0.814765,1.26607 0,0.62701 -0.230822,0.95774 -0.229099,0.329 -0.64251,0.329 z m 0.03962,-2.23414 q -0.449585,0 -0.449585,0.99046 0,0.92673 0.440972,0.92673 0.434082,0 0.434082,-0.94223 0,-0.97496 -0.425469,-0.97496 z"
         style="font-style:normal;font-variant:normal;font-weight:600;font-stretch:normal;font-size:3.52777767px;font-family:'Yu Gothic UI';-inkscape-font-specification:'Yu Gothic UI Semi-Bold';fill:#ffffff;stroke-width:0.26458332"
         id="path933"
         inkscape:connector-curvature="0" />
      <path
         d="m 17.706068,197.51584 v 2.52525 h -0.399631 v -2.03605 q -0.108521,0.0775 -0.234267,0.13264 -0.124023,0.0534 -0.28422,0.0947 v -0.34107 q 0.09991,-0.0327 0.192925,-0.0689 0.09302,-0.0362 0.18259,-0.081 0.0913,-0.0448 0.18259,-0.0999 0.09302,-0.0551 0.191203,-0.12574 z"
         style="font-style:normal;font-variant:normal;font-weight:600;font-stretch:normal;font-size:3.52777767px;font-family:'Yu Gothic UI';-inkscape-font-specification:'Yu Gothic UI Semi-Bold';fill:#ffffff;stroke-width:0.26458332"
         id="path935"
         inkscape:connector-curvature="0" />
      <path
         d="m 19.869588,198.67167 q 0,0.37034 -0.08096,0.63734 -0.07924,0.26699 -0.220486,0.43925 -0.139527,0.17225 -0.329007,0.25494 -0.187758,0.081 -0.404799,0.081 -0.07062,0 -0.142971,-0.009 -0.07062,-0.009 -0.136081,-0.0224 -0.06374,-0.0138 -0.117134,-0.0293 -0.05168,-0.0172 -0.08613,-0.0327 v -0.36001 q 0.03617,0.0224 0.08957,0.0465 0.0534,0.0224 0.115411,0.0413 0.06373,0.0172 0.130914,0.0293 0.0689,0.0103 0.132636,0.0103 0.146417,0 0.265272,-0.0568 0.120579,-0.0568 0.204984,-0.16881 0.0844,-0.11197 0.129191,-0.27733 0.04651,-0.16709 0.04651,-0.38585 h -0.0069 q -0.03101,0.0551 -0.08268,0.10507 -0.04995,0.0482 -0.115411,0.0861 -0.06546,0.0362 -0.146416,0.0586 -0.07924,0.0224 -0.170533,0.0224 -0.155029,0 -0.289388,-0.0534 -0.132636,-0.0551 -0.230821,-0.15503 -0.09819,-0.0999 -0.155029,-0.24288 -0.05512,-0.14297 -0.05512,-0.31867 0,-0.19292 0.06373,-0.34795 0.06374,-0.15675 0.1757,-0.26527 0.111966,-0.11025 0.26355,-0.16881 0.151584,-0.0603 0.329007,-0.0603 0.167087,0 0.315226,0.0637 0.149862,0.062 0.261827,0.19982 0.113688,0.13608 0.179145,0.35312 0.06718,0.21704 0.06718,0.52538 z m -0.416857,-0.26355 q 0,-0.12403 -0.03273,-0.22566 -0.03101,-0.10163 -0.08785,-0.17397 -0.05684,-0.0724 -0.136082,-0.11197 -0.07751,-0.0396 -0.170532,-0.0396 -0.08268,0 -0.158474,0.0344 -0.07407,0.0327 -0.130914,0.0947 -0.05512,0.062 -0.08785,0.14986 -0.03273,0.0879 -0.03273,0.19465 0,0.11714 0.03101,0.20671 0.03273,0.0896 0.08957,0.15158 0.05684,0.0603 0.136081,0.093 0.08096,0.031 0.177423,0.031 0.08613,0 0.158474,-0.031 0.07407,-0.0327 0.127469,-0.0861 0.05512,-0.0551 0.08613,-0.12919 0.03101,-0.0741 0.03101,-0.15847 z"
         style="font-style:normal;font-variant:normal;font-weight:600;font-stretch:normal;font-size:3.52777767px;font-family:'Yu Gothic UI';-inkscape-font-specification:'Yu Gothic UI Semi-Bold';fill:#ffffff;stroke-width:0.26458332"
         id="path938"
         inkscape:connector-curvature="0" />
    </g>
    <g
       aria-label="QUAD AND-OR SELECT GATE"
       style="font-style:normal;font-variant:normal;font-weight:normal;font-stretch:normal;font-size:2.11666656px;line-height:1.25;font-family:'Yu Gothic UI';-inkscape-font-specification:'Yu Gothic UI';letter-spacing:0px;word-spacing:0px;fill:#ffffff;fill-opacity:1;stroke:none;stroke-width:0.26458332"
       id="text925"
       transform="translate(4.8296799)">
      <path
         d="m 6.0833494,202.22334 q -0.3141927,0 -0.5053955,-0.20774 -0.1891357,-0.20774 -0.1891357,-0.54054 0,-0.35863 0.1932698,-0.57051 0.1943034,-0.2129 0.5260661,-0.2129 0.3059245,0 0.4940267,0.2067 0.1881022,0.20671 0.1881022,0.54054 0,0.36277 -0.1922364,0.57361 -0.045475,0.0506 -0.097152,0.0868 L 6.917407,202.398 H 6.6021808 L 6.323128,202.18923 q -0.109554,0.0341 -0.2397786,0.0341 z m 0.012402,-1.3746 q -0.2335775,0 -0.379305,0.16847 -0.1457276,0.16846 -0.1457276,0.44235 0,0.27285 0.1415934,0.44132 0.142627,0.16639 0.3710368,0.16639 0.2439128,0 0.3844726,-0.15916 0.1405599,-0.15916 0.1405599,-0.44545 0,-0.29456 -0.1364257,-0.45372 -0.1364258,-0.1602 -0.3762044,-0.1602 z"
         style="font-size:2.11666656px;fill:#ffffff;stroke-width:0.26458332"
         id="path942"
         inkscape:connector-curvature="0" />
      <path
         d="m 8.1659095,201.59909 q 0,0.62425 -0.5632731,0.62425 -0.5395019,0 -0.5395019,-0.60048 v -0.90641 h 0.1736328 v 0.89504 q 0,0.45578 0.3844726,0.45578 0.3710368,0 0.3710368,-0.44028 v -0.91054 h 0.1736328 z"
         style="font-size:2.11666656px;fill:#ffffff;stroke-width:0.26458332"
         id="path944"
         inkscape:connector-curvature="0" />
      <path
         d="M 9.6841629,202.19853 H 9.4919266 L 9.3348302,201.78305 H 8.7064448 l -0.1477945,0.41548 H 8.3653804 l 0.5684407,-1.48208 h 0.179834 z m -0.4061767,-0.57154 -0.232544,-0.63149 q -0.011369,-0.031 -0.022738,-0.0992 h -0.00413 q -0.010335,0.063 -0.023771,0.0992 l -0.2304769,0.63149 z"
         style="font-size:2.11666656px;fill:#ffffff;stroke-width:0.26458332"
         id="path946"
         inkscape:connector-curvature="0" />
      <path
         d="m 9.901204,202.19853 v -1.48208 h 0.409277 q 0.783415,0 0.783415,0.72244 0,0.34313 -0.218075,0.5519 -0.217041,0.20774 -0.581876,0.20774 z m 0.173633,-1.32498 v 1.16789 h 0.221175 q 0.291455,0 0.453719,-0.15607 0.162264,-0.15606 0.162264,-0.44235 0,-0.56947 -0.605648,-0.56947 z"
         style="font-size:2.11666656px;fill:#ffffff;stroke-width:0.26458332"
         id="path948"
         inkscape:connector-curvature="0" />
      <path
         d="m 13.111344,202.19853 h -0.192237 l -0.157096,-0.41548 h -0.628385 l -0.147795,0.41548 h -0.19327 l 0.568441,-1.48208 h 0.179834 z m -0.406177,-0.57154 -0.232544,-0.63149 q -0.01137,-0.031 -0.02274,-0.0992 h -0.0041 q -0.01033,0.063 -0.02377,0.0992 l -0.230477,0.63149 z"
         style="font-size:2.11666656px;fill:#ffffff;stroke-width:0.26458332"
         id="path950"
         inkscape:connector-curvature="0" />
      <path
         d="m 14.523144,202.19853 h -0.212907 l -0.762744,-1.18132 q -0.02894,-0.0444 -0.04754,-0.093 h -0.0062 q 0.0083,0.0475 0.0083,0.20361 v 1.07073 H 13.32842 v -1.48208 h 0.225309 l 0.742074,1.16272 q 0.04651,0.0724 0.05994,0.0992 h 0.0041 q -0.01033,-0.0641 -0.01033,-0.21807 v -1.04387 h 0.173633 z"
         style="font-size:2.11666656px;fill:#ffffff;stroke-width:0.26458332"
         id="path952"
         inkscape:connector-curvature="0" />
      <path
         d="m 14.91175,202.19853 v -1.48208 h 0.409278 q 0.783414,0 0.783414,0.72244 0,0.34313 -0.218074,0.5519 -0.217041,0.20774 -0.581877,0.20774 z m 0.173633,-1.32498 v 1.16789 h 0.221175 q 0.291455,0 0.453719,-0.15607 0.162264,-0.15606 0.162264,-0.44235 0,-0.56947 -0.605648,-0.56947 z"
         style="font-size:2.11666656px;fill:#ffffff;stroke-width:0.26458332"
         id="path954"
         inkscape:connector-curvature="0" />
      <path
         d="m 16.914729,201.67557 h -0.564307 v -0.13333 h 0.564307 z"
         style="font-size:2.11666656px;fill:#ffffff;stroke-width:0.26458332"
         id="path956"
         inkscape:connector-curvature="0" />
      <path
         d="m 17.840771,202.22334 q -0.315226,0 -0.505396,-0.20774 -0.189135,-0.20774 -0.189135,-0.54054 0,-0.3576 0.19327,-0.57051 0.193269,-0.2129 0.526066,-0.2129 0.306958,0 0.494026,0.2067 0.188102,0.20671 0.188102,0.54054 0,0.36277 -0.192236,0.57361 -0.192236,0.21084 -0.514697,0.21084 z m 0.0124,-1.3746 q -0.233577,0 -0.379305,0.16847 -0.145727,0.16846 -0.145727,0.44235 0,0.27388 0.141593,0.44132 0.142627,0.16639 0.371037,0.16639 0.243913,0 0.384473,-0.15916 0.140559,-0.15916 0.140559,-0.44545 0,-0.29352 -0.136425,-0.45372 -0.136426,-0.1602 -0.376205,-0.1602 z"
         style="font-size:2.11666656px;fill:#ffffff;stroke-width:0.26458332"
         id="path959"
         inkscape:connector-curvature="0" />
      <path
         d="m 19.901627,202.19853 h -0.206706 l -0.248047,-0.41548 q -0.03411,-0.0579 -0.06615,-0.0982 -0.03204,-0.0413 -0.06615,-0.0672 -0.03307,-0.0258 -0.07235,-0.0372 -0.03824,-0.0124 -0.08682,-0.0124 h -0.142627 v 0.63045 h -0.173633 v -1.48208 h 0.442351 q 0.09715,0 0.1788,0.0248 0.08268,0.0238 0.142627,0.0734 0.06098,0.0496 0.09509,0.12402 0.03411,0.0734 0.03411,0.1726 0,0.0775 -0.02377,0.14263 -0.02274,0.0641 -0.06615,0.11472 -0.04237,0.0506 -0.103353,0.0868 -0.05994,0.0351 -0.135392,0.0548 v 0.004 q 0.03721,0.0165 0.06408,0.0382 0.02791,0.0207 0.05271,0.0496 0.0248,0.0289 0.04858,0.0661 0.0248,0.0362 0.05478,0.0848 z m -0.888835,-1.32498 v 0.53743 h 0.235645 q 0.06511,0 0.119889,-0.0196 0.05581,-0.0196 0.09612,-0.0558 0.04031,-0.0372 0.06304,-0.0899 0.02274,-0.0537 0.02274,-0.11989 0,-0.11886 -0.07751,-0.185 -0.07648,-0.0672 -0.222208,-0.0672 z"
         style="font-size:2.11666656px;fill:#ffffff;stroke-width:0.26458332"
         id="path961"
         inkscape:connector-curvature="0" />
      <path
         d="m 20.613728,202.13859 v -0.20464 q 0.03514,0.031 0.08372,0.0558 0.04961,0.0248 0.103352,0.0424 0.05478,0.0165 0.109554,0.0258 0.05478,0.009 0.101286,0.009 0.160197,0 0.238745,-0.0589 0.07958,-0.0599 0.07958,-0.17156 0,-0.06 -0.02687,-0.10439 -0.02584,-0.0444 -0.07235,-0.0806 -0.04651,-0.0372 -0.110587,-0.0703 -0.06304,-0.0341 -0.136426,-0.0713 -0.07751,-0.0393 -0.144694,-0.0796 -0.06718,-0.0403 -0.116789,-0.0889 -0.04961,-0.0486 -0.07855,-0.10956 -0.02791,-0.062 -0.02791,-0.14469 0,-0.10129 0.04444,-0.1757 0.04444,-0.0754 0.116788,-0.12402 0.07235,-0.0486 0.164331,-0.0724 0.09302,-0.0238 0.189136,-0.0238 0.219108,0 0.31936,0.0527 v 0.19533 q -0.131258,-0.091 -0.33693,-0.091 -0.05684,0 -0.113688,0.0124 -0.05684,0.0114 -0.101286,0.0382 -0.04444,0.0269 -0.07235,0.0692 -0.02791,0.0424 -0.02791,0.10336 0,0.0568 0.02067,0.0982 0.0217,0.0413 0.06305,0.0754 0.04134,0.0341 0.100252,0.0661 0.05995,0.032 0.137459,0.0703 0.07958,0.0393 0.150895,0.0827 0.07131,0.0434 0.125057,0.0961 0.05374,0.0527 0.08475,0.11679 0.03204,0.0641 0.03204,0.14676 0,0.10956 -0.04341,0.18604 -0.04237,0.0754 -0.115755,0.12299 -0.07235,0.0475 -0.167432,0.0682 -0.09509,0.0217 -0.200504,0.0217 -0.03514,0 -0.08682,-0.006 -0.05168,-0.005 -0.10542,-0.0165 -0.05374,-0.0103 -0.102319,-0.0258 -0.04754,-0.0165 -0.07648,-0.0362 z"
         style="font-size:2.11666656px;fill:#ffffff;stroke-width:0.26458332"
         id="path963"
         inkscape:connector-curvature="0" />
      <path
         d="m 22.592935,202.19853 h -0.785482 v -1.48208 h 0.752409 v 0.1571 h -0.578776 v 0.49299 h 0.535368 v 0.15606 h -0.535368 v 0.51884 h 0.611849 z"
         style="font-size:2.11666656px;fill:#ffffff;stroke-width:0.26458332"
         id="path965"
         inkscape:connector-curvature="0" />
      <path
         d="m 23.647135,202.19853 h -0.768946 v -1.48208 h 0.173633 v 1.32499 h 0.595313 z"
         style="font-size:2.11666656px;fill:#ffffff;stroke-width:0.26458332"
         id="path967"
         inkscape:connector-curvature="0" />
      <path
         d="M 24.659992,202.19853 H 23.87451 v -1.48208 h 0.752409 v 0.1571 h -0.578776 v 0.49299 h 0.535368 v 0.15606 h -0.535368 v 0.51884 h 0.611849 z"
         style="font-size:2.11666656px;fill:#ffffff;stroke-width:0.26458332"
         id="path969"
         inkscape:connector-curvature="0" />
      <path
         d="m 25.95397,202.13652 q -0.164331,0.0868 -0.409277,0.0868 -0.31626,0 -0.506429,-0.20361 -0.19017,-0.2036 -0.19017,-0.53433 0,-0.35554 0.213941,-0.57464 0.21394,-0.21911 0.542602,-0.21911 0.21084,0 0.349333,0.061 v 0.185 q -0.159163,-0.0889 -0.3514,-0.0889 -0.255281,0 -0.414445,0.17054 -0.15813,0.17053 -0.15813,0.45578 0,0.27079 0.147795,0.43202 0.148828,0.16019 0.38964,0.16019 0.223242,0 0.38654,-0.0992 z"
         style="font-size:2.11666656px;fill:#ffffff;stroke-width:0.26458332"
         id="path971"
         inkscape:connector-curvature="0" />
      <path
         d="m 27.132193,200.87355 h -0.427881 v 1.32498 h -0.173633 v -1.32498 h -0.426847 v -0.1571 h 1.028361 z"
         style="font-size:2.11666656px;fill:#ffffff;stroke-width:0.26458332"
         id="path973"
         inkscape:connector-curvature="0" />
      <path
         d="m 29.050421,202.09725 q -0.223242,0.12609 -0.496094,0.12609 -0.317293,0 -0.513663,-0.20464 -0.195337,-0.20464 -0.195337,-0.54157 0,-0.34417 0.217041,-0.56431 0.218074,-0.22117 0.551904,-0.22117 0.241846,0 0.406177,0.0785 v 0.19223 q -0.179834,-0.11369 -0.425814,-0.11369 -0.24908,0 -0.408244,0.17157 -0.159163,0.17157 -0.159163,0.44442 0,0.28112 0.147794,0.44235 0.147795,0.16019 0.40101,0.16019 0.173632,0 0.300756,-0.0692 v -0.41548 H 28.55226 v -0.1571 h 0.498161 z"
         style="font-size:2.11666656px;fill:#ffffff;stroke-width:0.26458332"
         id="path975"
         inkscape:connector-curvature="0" />
      <path
         d="m 30.54077,202.19853 h -0.192236 l -0.157097,-0.41548 h -0.628385 l -0.147795,0.41548 h -0.19327 l 0.568441,-1.48208 h 0.179834 z m -0.406177,-0.57154 -0.232544,-0.63149 q -0.01137,-0.031 -0.02274,-0.0992 h -0.0041 q -0.01034,0.063 -0.02377,0.0992 l -0.230477,0.63149 z"
         style="font-size:2.11666656px;fill:#ffffff;stroke-width:0.26458332"
         id="path977"
         inkscape:connector-curvature="0" />
      <path
         d="m 31.559828,200.87355 h -0.427881 v 1.32498 h -0.173633 v -1.32498 h -0.426847 v -0.1571 h 1.028361 z"
         style="font-size:2.11666656px;fill:#ffffff;stroke-width:0.26458332"
         id="path979"
         inkscape:connector-curvature="0" />
      <path
         d="M 32.576822,202.19853 H 31.79134 v -1.48208 h 0.752409 v 0.1571 h -0.578776 v 0.49299 h 0.535368 v 0.15606 h -0.535368 v 0.51884 h 0.611849 z"
         style="font-size:2.11666656px;fill:#ffffff;stroke-width:0.26458332"
         id="path981"
         inkscape:connector-curvature="0" />
    </g>
    <g
       aria-label="A3"
       style="font-style:normal;font-variant:normal;font-weight:normal;font-stretch:normal;font-size:2.82222223px;line-height:1.25;font-family:'Yu Gothic UI';-inkscape-font-specification:'Yu Gothic UI';letter-spacing:0px;word-spacing:0px;fill:#ffffff;fill-opacity:1;stroke:none;stroke-width:0.26458332"
       id="text986"
       transform="translate(0,-16.635205)">
      <path
         d="M 8.1448957,259.19025 H 7.8885806 L 7.6791188,258.63628 H 6.8412716 l -0.1970595,0.55397 H 6.386519 l 0.757921,-1.97611 h 0.2397786 z m -0.541569,-0.76206 -0.3100586,-0.84198 q -0.015158,-0.0413 -0.030317,-0.13229 h -0.00551 q -0.01378,0.0841 -0.031695,0.13229 l -0.3073025,0.84198 z"
         style="fill:#ffffff;stroke-width:0.26458332"
         id="path2067"
         inkscape:connector-curvature="0" />
      <path
         d="m 9.4884829,258.63076 q 0,0.13367 -0.050987,0.24392 -0.049609,0.10886 -0.1419379,0.18741 -0.090951,0.0772 -0.2191081,0.11989 -0.1281576,0.0427 -0.2824978,0.0427 -0.2824979,0 -0.4492405,-0.10749 v -0.24253 q 0.1998155,0.15709 0.4575087,0.15709 0.1033528,0 0.1860351,-0.0262 0.08406,-0.0262 0.143316,-0.0758 0.060634,-0.0496 0.092329,-0.11989 0.033073,-0.0703 0.033073,-0.15848 0,-0.38723 -0.5512153,-0.38723 H 8.5417707 v -0.19154 H 8.697489 q 0.4878255,0 0.4878255,-0.3638 0,-0.33625 -0.3720703,-0.33625 -0.2094618,0 -0.3927409,0.14056 v -0.2191 q 0.1887912,-0.113 0.4492405,-0.113 0.1240234,0 0.2246202,0.0345 0.1005968,0.0344 0.1722548,0.0965 0.071658,0.062 0.110243,0.14883 0.039963,0.0868 0.039963,0.19155 0,0.38998 -0.3941189,0.5016 v 0.006 q 0.1005968,0.011 0.1860352,0.0496 0.085438,0.0372 0.14745,0.0978 0.062012,0.0606 0.096463,0.14332 0.035829,0.0813 0.035829,0.18052 z"
         style="fill:#ffffff;stroke-width:0.26458332"
         id="path2069"
         inkscape:connector-curvature="0" />
    </g>
    <g
       aria-label="B3
"
       style="font-style:normal;font-variant:normal;font-weight:normal;font-stretch:normal;font-size:2.82222223px;line-height:1.25;font-family:'Yu Gothic UI';-inkscape-font-specification:'Yu Gothic UI';letter-spacing:0px;word-spacing:0px;fill:#ffffff;fill-opacity:1;stroke:none;stroke-width:0.26458332"
       id="text990"
       transform="translate(0,-16.654675)">
      <path
         d="m 22.475115,259.20972 v -1.97611 h 0.562239 q 0.256315,0 0.406522,0.1254 0.150206,0.1254 0.150206,0.3266 0,0.16812 -0.09095,0.29214 -0.09095,0.12402 -0.250803,0.17639 v 0.006 q 0.199816,0.0234 0.319705,0.15159 0.119889,0.12678 0.119889,0.33073 0,0.25355 -0.181901,0.41065 -0.181901,0.1571 -0.458886,0.1571 z m 0.23151,-1.76665 v 0.63803 h 0.237023 q 0.190169,0 0.299034,-0.0909 0.108865,-0.0923 0.108865,-0.25907 0,-0.28801 -0.378961,-0.28801 z m 0,0.84612 v 0.71106 h 0.314193 q 0.203949,0 0.315571,-0.0965 0.112999,-0.0965 0.112999,-0.26458 0,-0.35002 -0.476802,-0.35002 z"
         style="fill:#ffffff;stroke-width:0.26458332"
         id="path2062"
         inkscape:connector-curvature="0" />
      <path
         d="m 25.149887,258.65023 q 0,0.13367 -0.05099,0.24392 -0.04961,0.10886 -0.141938,0.18741 -0.09095,0.0772 -0.219108,0.11989 -0.128157,0.0427 -0.282497,0.0427 -0.282498,0 -0.449241,-0.10749 v -0.24253 q 0.199816,0.15709 0.457509,0.15709 0.103353,0 0.186035,-0.0262 0.08406,-0.0262 0.143316,-0.0758 0.06063,-0.0496 0.09233,-0.11989 0.03307,-0.0703 0.03307,-0.15848 0,-0.38722 -0.551215,-0.38722 h -0.163986 v -0.19155 h 0.155718 q 0.487825,0 0.487825,-0.3638 0,-0.33625 -0.37207,-0.33625 -0.209462,0 -0.392741,0.14056 v -0.2191 q 0.188791,-0.113 0.449241,-0.113 0.124023,0 0.22462,0.0344 0.100597,0.0344 0.172255,0.0965 0.07166,0.062 0.110243,0.14883 0.03996,0.0868 0.03996,0.19155 0,0.38998 -0.394119,0.5016 v 0.006 q 0.100597,0.011 0.186035,0.0496 0.08544,0.0372 0.14745,0.0978 0.06201,0.0606 0.09646,0.14332 0.03583,0.0813 0.03583,0.18052 z"
         style="fill:#ffffff;stroke-width:0.26458332"
         id="path2064"
         inkscape:connector-curvature="0" />
    </g>
    <g
       aria-label="A2"
       style="font-style:normal;font-variant:normal;font-weight:normal;font-stretch:normal;font-size:2.82222223px;line-height:1.25;font-family:'Yu Gothic UI';-inkscape-font-specification:'Yu Gothic UI';letter-spacing:0px;word-spacing:0px;fill:#ffffff;fill-opacity:1;stroke:none;stroke-width:0.26458332"
       id="text1000"
       transform="translate(0,-16.63057)">
      <path
         d="M 8.1166469,242.55289 H 7.8603318 L 7.65087,241.99892 H 6.8130228 l -0.1970595,0.55397 H 6.3582702 l 0.757921,-1.97611 h 0.2397786 z m -0.541569,-0.76206 -0.3100586,-0.84198 q -0.015158,-0.0413 -0.030317,-0.13229 h -0.00551 q -0.01378,0.0841 -0.031695,0.13229 l -0.3073025,0.84198 z"
         style="fill:#ffffff;stroke-width:0.26458332"
         id="path2082"
         inkscape:connector-curvature="0" />
      <path
         d="m 9.2108092,241.09492 q 0,-0.0909 -0.028939,-0.15847 -0.027561,-0.0675 -0.07717,-0.11162 -0.048231,-0.0455 -0.1143772,-0.0675 -0.066146,-0.022 -0.143316,-0.022 -0.066146,0 -0.1295356,0.0179 -0.06339,0.0179 -0.1240234,0.0496 -0.059256,0.0317 -0.1157552,0.0758 -0.055121,0.0441 -0.1033529,0.0978 v -0.24253 q 0.095085,-0.0923 0.2122179,-0.14056 0.1185113,-0.0496 0.28801,-0.0496 0.1212673,0 0.2246202,0.0358 0.1033529,0.0344 0.179145,0.10197 0.075792,0.0675 0.1185113,0.16674 0.044097,0.0992 0.044097,0.22738 0,0.11713 -0.027561,0.21222 -0.026183,0.0951 -0.081304,0.17914 -0.053744,0.0841 -0.1364258,0.16123 -0.082682,0.0772 -0.1943034,0.1571 -0.1391819,0.0992 -0.2301324,0.1695 -0.089572,0.0703 -0.143316,0.13229 -0.052365,0.0606 -0.074414,0.12265 -0.020671,0.0606 -0.020671,0.14056 H 9.516733 v 0.20257 H 8.2971699 v -0.0978 q 0,-0.12678 0.027561,-0.22325 0.027561,-0.0965 0.090951,-0.18328 0.06339,-0.0868 0.1653645,-0.17363 0.1033529,-0.0868 0.252181,-0.19568 0.107487,-0.0772 0.179145,-0.14745 0.073036,-0.0703 0.1171333,-0.14056 0.044097,-0.0703 0.062012,-0.14194 0.019293,-0.073 0.019293,-0.15434 z"
         style="fill:#ffffff;stroke-width:0.26458332"
         id="path2084"
         inkscape:connector-curvature="0" />
    </g>
    <g
       aria-label="B2"
       style="font-style:normal;font-variant:normal;font-weight:normal;font-stretch:normal;font-size:2.82222223px;line-height:1.25;font-family:'Yu Gothic UI';-inkscape-font-specification:'Yu Gothic UI';letter-spacing:0px;word-spacing:0px;fill:#ffffff;fill-opacity:1;stroke:none;stroke-width:0.26458332"
       id="text1004"
       transform="translate(0,-16.657395)">
      <path
         d="m 22.446865,242.57947 v -1.97611 h 0.562239 q 0.256316,0 0.406522,0.1254 0.150206,0.1254 0.150206,0.3266 0,0.16812 -0.09095,0.29214 -0.09095,0.12403 -0.250803,0.17639 v 0.006 q 0.199816,0.0234 0.319705,0.15159 0.11989,0.12678 0.11989,0.33073 0,0.25356 -0.181901,0.41065 -0.181901,0.1571 -0.458887,0.1571 z m 0.23151,-1.76665 v 0.63803 h 0.237023 q 0.190169,0 0.299034,-0.0909 0.108865,-0.0923 0.108865,-0.25907 0,-0.28801 -0.37896,-0.28801 z m 0,0.84612 v 0.71107 h 0.314193 q 0.20395,0 0.315571,-0.0965 0.112999,-0.0965 0.112999,-0.26458 0,-0.35002 -0.476801,-0.35002 z"
         style="fill:#ffffff;stroke-width:0.26458332"
         id="path2077"
         inkscape:connector-curvature="0" />
      <path
         d="m 24.872212,241.1215 q 0,-0.0909 -0.02894,-0.15847 -0.02756,-0.0675 -0.07717,-0.11162 -0.04823,-0.0455 -0.114377,-0.0675 -0.06615,-0.022 -0.143316,-0.022 -0.06615,0 -0.129536,0.0179 -0.06339,0.0179 -0.124023,0.0496 -0.05926,0.0317 -0.115755,0.0758 -0.05512,0.0441 -0.103353,0.0978 v -0.24253 q 0.09509,-0.0923 0.212218,-0.14056 0.118511,-0.0496 0.28801,-0.0496 0.121267,0 0.22462,0.0358 0.103353,0.0344 0.179145,0.10197 0.07579,0.0675 0.118511,0.16674 0.0441,0.0992 0.0441,0.22738 0,0.11713 -0.02756,0.21222 -0.02618,0.0951 -0.0813,0.17914 -0.05374,0.0841 -0.136426,0.16123 -0.08268,0.0772 -0.194304,0.1571 -0.139182,0.0992 -0.230132,0.1695 -0.08957,0.0703 -0.143316,0.13229 -0.05236,0.0606 -0.07441,0.12265 -0.02067,0.0606 -0.02067,0.14056 h 0.98392 v 0.20257 h -1.219564 v -0.0978 q 0,-0.12678 0.02756,-0.22325 0.02756,-0.0965 0.09095,-0.18327 0.06339,-0.0868 0.165365,-0.17364 0.103353,-0.0868 0.252181,-0.19568 0.107487,-0.0772 0.179145,-0.14745 0.07304,-0.0703 0.117133,-0.14056 0.0441,-0.0703 0.06201,-0.14194 0.01929,-0.073 0.01929,-0.15434 z"
         style="fill:#ffffff;stroke-width:0.26458332"
         id="path2079"
         inkscape:connector-curvature="0" />
    </g>
    <g
       aria-label="A1"
       style="font-style:normal;font-variant:normal;font-weight:normal;font-stretch:normal;font-size:2.82222223px;line-height:1.25;font-family:'Yu Gothic UI';-inkscape-font-specification:'Yu Gothic UI';letter-spacing:0px;word-spacing:0px;fill:#ffffff;fill-opacity:1;stroke:none;stroke-width:0.26458332"
       id="text1012"
       transform="translate(0,-16.62768)">
      <path
         d="M 8.3026797,225.89832 H 8.0463646 L 7.8369028,225.34434 H 6.9990556 l -0.1970595,0.55398 H 6.544303 l 0.757921,-1.97611 h 0.2397786 z m -0.541569,-0.76206 -0.3100586,-0.84198 q -0.015158,-0.0413 -0.030317,-0.13229 h -0.00551 q -0.01378,0.0841 -0.031695,0.13229 l -0.3073025,0.84198 z"
         style="fill:#ffffff;stroke-width:0.26458332"
         id="path2097"
         inkscape:connector-curvature="0" />
      <path
         d="M 9.3306961,225.89832 H 9.1046979 v -1.70739 q -0.026183,0.0262 -0.07717,0.0606 -0.049609,0.0331 -0.1129991,0.0661 -0.062012,0.0331 -0.1322917,0.062 -0.068902,0.0289 -0.1350477,0.0455 v -0.22875 q 0.074414,-0.0207 0.1570964,-0.0551 0.08406,-0.0358 0.1639865,-0.0786 0.081304,-0.0441 0.1529622,-0.0909 0.071658,-0.0482 0.1240235,-0.0937 h 0.085438 z"
         style="fill:#ffffff;stroke-width:0.26458332"
         id="path2099"
         inkscape:connector-curvature="0" />
    </g>
    <g
       aria-label="B1"
       style="font-style:normal;font-variant:normal;font-weight:normal;font-stretch:normal;font-size:2.82222223px;line-height:1.25;font-family:'Yu Gothic UI';-inkscape-font-specification:'Yu Gothic UI';letter-spacing:0px;word-spacing:0px;fill:#ffffff;fill-opacity:1;stroke:none;stroke-width:0.26458332"
       id="text1016"
       transform="translate(0,-16.61133)">
      <path
         d="m 22.6329,225.88173 v -1.97611 h 0.56224 q 0.256315,0 0.406521,0.1254 0.150206,0.12541 0.150206,0.3266 0,0.16812 -0.09095,0.29214 -0.09095,0.12403 -0.250803,0.17639 v 0.006 q 0.199815,0.0234 0.319704,0.15159 0.11989,0.12678 0.11989,0.33073 0,0.25356 -0.181901,0.41065 -0.181901,0.1571 -0.458887,0.1571 z m 0.23151,-1.76665 v 0.63804 h 0.237023 q 0.190169,0 0.299034,-0.0909 0.108865,-0.0923 0.108865,-0.25908 0,-0.28801 -0.37896,-0.28801 z m 0,0.84612 v 0.71107 h 0.314193 q 0.20395,0 0.315571,-0.0965 0.112999,-0.0965 0.112999,-0.26458 0,-0.35002 -0.476801,-0.35002 z"
         style="fill:#ffffff;stroke-width:0.26458332"
         id="path2092"
         inkscape:connector-curvature="0" />
      <path
         d="m 24.992101,225.88173 h -0.225998 v -1.70739 q -0.02618,0.0262 -0.07717,0.0606 -0.04961,0.0331 -0.112999,0.0661 -0.06201,0.0331 -0.132292,0.062 -0.0689,0.0289 -0.135047,0.0455 v -0.22876 q 0.07441,-0.0207 0.157096,-0.0551 0.08406,-0.0358 0.163986,-0.0786 0.08131,-0.0441 0.152963,-0.0909 0.07166,-0.0482 0.124023,-0.0937 h 0.08544 z"
         style="fill:#ffffff;stroke-width:0.26458332"
         id="path2094"
         inkscape:connector-curvature="0" />
    </g>
    <text
       xml:space="preserve"
       style="font-style:normal;font-variant:normal;font-weight:normal;font-stretch:normal;font-size:2.82222223px;line-height:1.25;font-family:'Yu Gothic UI';-inkscape-font-specification:'Yu Gothic UI';letter-spacing:0px;word-spacing:0px;fill:#000000;fill-opacity:1;stroke:none;stroke-width:0.26458332"
       x="5.2916665"
       y="283.77081"
       id="text1036"><tspan
         sodipodi:role="line"
         id="tspan1034"
         x="5.2916665"
         y="286.31293"
         style="stroke-width:0.26458332"></tspan></text>
    <path
       inkscape:connector-curvature="0"
       id="path2027"
       d="m 34.395843,239.87151 v 11.37708 h 10.583338 l -4e-6,-11.37708 z"
       style="fill:none;stroke:#ffffff;stroke-width:0.26458332px;stroke-linecap:butt;stroke-linejoin:miter;stroke-opacity:1"
       sodipodi:nodetypes="ccccc" />
    <path
       sodipodi:nodetypes="cc"
       inkscape:connector-curvature="0"
       id="path2035"
       d="M 2.6458333,237.20416 H 44.979167"
       style="fill:none;stroke:#ffffff;stroke-width:0.26458332px;stroke-linecap:butt;stroke-linejoin:miter;stroke-opacity:1" />
    <path
       style="fill:none;stroke:#ffffff;stroke-width:0.26458332px;stroke-linecap:butt;stroke-linejoin:miter;stroke-opacity:1"
       d="M 2.6458333,253.8729 H 44.979167"
       id="path2037"
       inkscape:connector-curvature="0"
       sodipodi:nodetypes="cc" />
    <g
       aria-label="A4"
       style="font-style:normal;font-variant:normal;font-weight:normal;font-stretch:normal;font-size:2.82222223px;line-height:1.25;font-family:'Yu Gothic UI';-inkscape-font-specification:'Yu Gothic UI';letter-spacing:0px;word-spacing:0px;fill:#ffffff;fill-opacity:1;stroke:none;stroke-width:0.26458332"
       id="text2119"
       transform="translate(-5.6058585,-8.679365)">
      <path
         d="m 13.694944,267.89581 h -0.256316 l -0.209461,-0.55397 h -0.837848 l -0.197059,0.55397 h -0.257693 l 0.757921,-1.9761 h 0.239778 z m -0.541569,-0.76205 -0.310059,-0.84198 q -0.01516,-0.0413 -0.03032,-0.1323 h -0.0055 q -0.01378,0.0841 -0.0317,0.1323 l -0.307302,0.84198 z"
         style="fill:#ffffff;stroke-width:0.26458332"
         id="path2121"
         inkscape:connector-curvature="0" />
      <path
         d="m 14.896593,265.91971 v 1.305 h 0.253559 v 0.2067 h -0.253559 v 0.4644 h -0.223242 v -0.4644 h -0.928798 v -0.19568 q 0.129536,-0.14607 0.261827,-0.31143 0.132292,-0.16675 0.252181,-0.33762 0.121268,-0.17088 0.223242,-0.34038 0.103353,-0.17088 0.173633,-0.32659 z m -0.897103,1.305 h 0.673861 v -0.96738 q -0.103353,0.18052 -0.195682,0.32246 -0.09233,0.14193 -0.176389,0.25769 -0.08268,0.11575 -0.158474,0.20946 -0.07579,0.0937 -0.143316,0.17777 z"
         style="fill:#ffffff;stroke-width:0.26458332"
         id="path2123"
         inkscape:connector-curvature="0" />
    </g>
    <g
       aria-label="B4"
       style="font-style:normal;font-variant:normal;font-weight:normal;font-stretch:normal;font-size:2.82222223px;line-height:1.25;font-family:'Yu Gothic UI';-inkscape-font-specification:'Yu Gothic UI';letter-spacing:0px;word-spacing:0px;fill:#ffffff;fill-opacity:1;stroke:none;stroke-width:0.26458332"
       id="text2128"
       transform="translate(-0.3293505,-7.356705)">
      <path
         d="m 22.748655,266.57291 v -1.97611 h 0.56224 q 0.256315,0 0.406521,0.1254 0.150206,0.1254 0.150206,0.3266 0,0.16812 -0.09095,0.29214 -0.09095,0.12402 -0.250803,0.17639 v 0.006 q 0.199815,0.0234 0.319705,0.15159 0.119889,0.12678 0.119889,0.33072 0,0.25356 -0.181901,0.41066 -0.181901,0.1571 -0.458887,0.1571 z m 0.231511,-1.76665 v 0.63803 h 0.237022 q 0.190169,0 0.299034,-0.091 0.108865,-0.0923 0.108865,-0.25907 0,-0.28801 -0.37896,-0.28801 z m 0,0.84612 v 0.71106 h 0.314192 q 0.20395,0 0.315571,-0.0965 0.112999,-0.0965 0.112999,-0.26458 0,-0.35002 -0.476801,-0.35002 z"
         style="fill:#ffffff;stroke-width:0.26458332"
         id="path2130"
         inkscape:connector-curvature="0" />
      <path
         d="m 25.281489,264.5968 v 1.305 h 0.253559 v 0.20671 h -0.253559 v 0.4644 h -0.223242 v -0.4644 h -0.928798 v -0.19568 q 0.129536,-0.14608 0.261828,-0.31144 0.132291,-0.16674 0.252181,-0.33762 0.121267,-0.17088 0.223242,-0.34038 0.103353,-0.17087 0.173633,-0.32659 z m -0.897103,1.305 h 0.673861 v -0.96738 q -0.103353,0.18052 -0.195681,0.32246 -0.09233,0.14194 -0.176389,0.25769 -0.08268,0.11576 -0.158475,0.20946 -0.07579,0.0937 -0.143316,0.17777 z"
         style="fill:#ffffff;stroke-width:0.26458332"
         id="path2132"
         inkscape:connector-curvature="0" />
    </g>
    <g
       aria-label="D1"
       style="font-style:normal;font-variant:normal;font-weight:normal;font-stretch:normal;font-size:2.82222223px;line-height:1.25;font-family:'Yu Gothic UI';-inkscape-font-specification:'Yu Gothic UI';letter-spacing:0px;word-spacing:0px;fill:#ffffff;fill-opacity:1;stroke:none;stroke-width:0.26458332"
       id="text2137"
       transform="translate(6.3355465,-4.385595)">
      <path
         d="m 29.363237,213.65623 v -1.9761 h 0.545703 q 1.044553,0 1.044553,0.96325 0,0.45751 -0.290766,0.73587 -0.289388,0.27698 -0.775835,0.27698 z m 0.231511,-1.76664 v 1.55718 h 0.2949 q 0.388607,0 0.604959,-0.20808 0.216352,-0.20808 0.216352,-0.5898 0,-0.7593 -0.807531,-0.7593 z"
         style="fill:#ffffff;stroke-width:0.26458332"
         id="path2151"
         inkscape:connector-curvature="0" />
      <path
         d="M 32.080729,213.65623 H 31.85473 v -1.70738 q -0.02618,0.0262 -0.07717,0.0606 -0.04961,0.0331 -0.112999,0.0661 -0.06201,0.0331 -0.132292,0.062 -0.0689,0.0289 -0.135047,0.0455 v -0.22875 q 0.07441,-0.0207 0.157096,-0.0551 0.08406,-0.0358 0.163987,-0.0785 0.0813,-0.0441 0.152962,-0.091 0.07166,-0.0482 0.124023,-0.0937 h 0.08544 z"
         style="fill:#ffffff;stroke-width:0.26458332"
         id="path2153"
         inkscape:connector-curvature="0" />
    </g>
    <g
       aria-label="D2"
       style="font-style:normal;font-variant:normal;font-weight:normal;font-stretch:normal;font-size:2.82222223px;line-height:1.25;font-family:'Yu Gothic UI';-inkscape-font-specification:'Yu Gothic UI';letter-spacing:0px;word-spacing:0px;fill:#ffffff;fill-opacity:1;stroke:none;stroke-width:0.26458332"
       id="text2141"
       transform="translate(6.448542,-4.93179)">
      <path
         d="m 29.363237,230.85416 v -1.97611 h 0.545703 q 1.044553,0 1.044553,0.96325 0,0.45751 -0.290766,0.73587 -0.289388,0.27699 -0.775835,0.27699 z m 0.231511,-1.76665 v 1.55718 h 0.2949 q 0.388607,0 0.604959,-0.20808 0.216352,-0.20808 0.216352,-0.5898 0,-0.7593 -0.807531,-0.7593 z"
         style="fill:#ffffff;stroke-width:0.26458332"
         id="path2156"
         inkscape:connector-curvature="0" />
      <path
         d="m 32.146874,229.39619 q 0,-0.0909 -0.02894,-0.15847 -0.02756,-0.0675 -0.07717,-0.11162 -0.04823,-0.0455 -0.114377,-0.0675 -0.06615,-0.0221 -0.143316,-0.0221 -0.06615,0 -0.129535,0.0179 -0.06339,0.0179 -0.124024,0.0496 -0.05926,0.0317 -0.115755,0.0758 -0.05512,0.0441 -0.103353,0.0978 v -0.24253 q 0.09509,-0.0923 0.212218,-0.14056 0.118511,-0.0496 0.28801,-0.0496 0.121267,0 0.22462,0.0358 0.103353,0.0344 0.179145,0.10197 0.07579,0.0675 0.118512,0.16674 0.0441,0.0992 0.0441,0.22738 0,0.11713 -0.02756,0.21222 -0.02618,0.0951 -0.0813,0.17914 -0.05374,0.0841 -0.136426,0.16123 -0.08268,0.0772 -0.194303,0.1571 -0.139182,0.0992 -0.230133,0.1695 -0.08957,0.0703 -0.143316,0.13229 -0.05236,0.0606 -0.07441,0.12264 -0.02067,0.0606 -0.02067,0.14056 h 0.983919 v 0.20258 h -1.219564 v -0.0978 q 0,-0.12678 0.02756,-0.22325 0.02756,-0.0965 0.09095,-0.18328 0.06339,-0.0868 0.165365,-0.17363 0.103353,-0.0868 0.252181,-0.19568 0.107487,-0.0772 0.179145,-0.14745 0.07304,-0.0703 0.117133,-0.14056 0.0441,-0.0703 0.06201,-0.14194 0.01929,-0.073 0.01929,-0.15434 z"
         style="fill:#ffffff;stroke-width:0.26458332"
         id="path2158"
         inkscape:connector-curvature="0" />
    </g>
    <g
       aria-label="D3"
       style="font-style:normal;font-variant:normal;font-weight:normal;font-stretch:normal;font-size:2.82222223px;line-height:1.25;font-family:'Yu Gothic UI';-inkscape-font-specification:'Yu Gothic UI';letter-spacing:0px;word-spacing:0px;fill:#ffffff;fill-opacity:1;stroke:none;stroke-width:0.26458332"
       id="text2145"
       transform="translate(6.161921,-6.819945)">
      <path
         d="m 29.363237,249.37498 v -1.9761 h 0.545703 q 1.044553,0 1.044553,0.96325 0,0.45751 -0.290766,0.73587 -0.289388,0.27698 -0.775835,0.27698 z m 0.231511,-1.76664 v 1.55718 h 0.2949 q 0.388607,0 0.604959,-0.20808 0.216352,-0.20808 0.216352,-0.5898 0,-0.7593 -0.807531,-0.7593 z"
         style="fill:#ffffff;stroke-width:0.26458332"
         id="path2161"
         inkscape:connector-curvature="0" />
      <path
         d="m 32.396299,248.8155 q 0,0.13367 -0.05099,0.24391 -0.04961,0.10887 -0.141938,0.18742 -0.09095,0.0772 -0.219108,0.11989 -0.128158,0.0427 -0.282498,0.0427 -0.282498,0 -0.44924,-0.10749 v -0.24254 q 0.199815,0.1571 0.457508,0.1571 0.103353,0 0.186035,-0.0262 0.08406,-0.0262 0.143316,-0.0758 0.06063,-0.0496 0.09233,-0.11989 0.03307,-0.0703 0.03307,-0.15848 0,-0.38723 -0.551215,-0.38723 h -0.163987 v -0.19154 H 31.6053 q 0.487826,0 0.487826,-0.36381 0,-0.33624 -0.37207,-0.33624 -0.209462,0 -0.392741,0.14056 v -0.21911 q 0.188791,-0.11299 0.44924,-0.11299 0.124024,0 0.22462,0.0344 0.100597,0.0344 0.172255,0.0965 0.07166,0.062 0.110243,0.14883 0.03996,0.0868 0.03996,0.19154 0,0.38999 -0.394119,0.50161 v 0.006 q 0.100597,0.011 0.186036,0.0496 0.08544,0.0372 0.14745,0.0978 0.06201,0.0606 0.09646,0.14332 0.03583,0.0813 0.03583,0.18052 z"
         style="fill:#ffffff;stroke-width:0.26458332"
         id="path2163"
         inkscape:connector-curvature="0" />
    </g>
    <g
       aria-label="D4"
       style="font-style:normal;font-variant:normal;font-weight:normal;font-stretch:normal;font-size:2.82222223px;line-height:1.25;font-family:'Yu Gothic UI';-inkscape-font-specification:'Yu Gothic UI';letter-spacing:0px;word-spacing:0px;fill:#ffffff;fill-opacity:1;stroke:none;stroke-width:0.26458332"
       id="text2149"
       transform="translate(6.378953,-7.35646)">
      <path
         d="m 29.363237,266.57291 v -1.97611 h 0.545703 q 1.044553,0 1.044553,0.96325 0,0.45751 -0.290766,0.73587 -0.289388,0.27699 -0.775835,0.27699 z m 0.231511,-1.76665 v 1.55718 h 0.2949 q 0.388607,0 0.604959,-0.20808 0.216352,-0.20808 0.216352,-0.5898 0,-0.7593 -0.807531,-0.7593 z"
         style="fill:#ffffff;stroke-width:0.26458332"
         id="path2166"
         inkscape:connector-curvature="0" />
      <path
         d="m 32.254361,264.5968 v 1.305 h 0.253559 v 0.20671 h -0.253559 v 0.4644 h -0.223242 v -0.4644 h -0.928798 v -0.19568 q 0.129536,-0.14608 0.261828,-0.31144 0.132291,-0.16674 0.252181,-0.33762 0.121267,-0.17088 0.223242,-0.34038 0.103353,-0.17087 0.173633,-0.32659 z m -0.897102,1.305 h 0.67386 v -0.96738 q -0.103353,0.18052 -0.195681,0.32246 -0.09233,0.14194 -0.176389,0.25769 -0.08268,0.11576 -0.158475,0.20946 -0.07579,0.0937 -0.143315,0.17777 z"
         style="fill:#ffffff;stroke-width:0.26458332"
         id="path2168"
         inkscape:connector-curvature="0" />
    </g>
    <g
       aria-label="KA"
       style="font-style:normal;font-variant:normal;font-weight:normal;font-stretch:normal;font-size:2.82222223px;line-height:1.25;font-family:'Yu Gothic UI';-inkscape-font-specification:'Yu Gothic UI';letter-spacing:0px;word-spacing:0px;fill:#ffffff;fill-opacity:1;stroke:none;stroke-width:0.26458332"
       id="text2173"
       transform="translate(-9.7799395,-7.88699)">
      <path
         d="m 17.509353,283.77081 h -0.322461 l -0.763433,-0.90399 q -0.04272,-0.051 -0.05237,-0.0689 h -0.0055 v 0.97289 h -0.231511 v -1.9761 h 0.231511 v 0.92879 h 0.0055 q 0.01929,-0.0303 0.05237,-0.0675 l 0.738629,-0.86127 h 0.28801 l -0.847494,0.94809 z"
         style="fill:#ffffff;stroke-width:0.26458332"
         id="path2179"
         inkscape:connector-curvature="0" />
      <path
         d="m 19.300803,283.77081 h -0.256315 l -0.209462,-0.55397 h -0.837847 l -0.19706,0.55397 h -0.257693 l 0.757921,-1.9761 h 0.239779 z m -0.541569,-0.76205 -0.310059,-0.84198 q -0.01516,-0.0413 -0.03032,-0.1323 h -0.0055 q -0.01378,0.0841 -0.03169,0.1323 l -0.307303,0.84198 z"
         style="fill:#ffffff;stroke-width:0.26458332"
         id="path2181"
         inkscape:connector-curvature="0" />
    </g>
    <g
       aria-label="KB"
       style="font-style:normal;font-variant:normal;font-weight:normal;font-stretch:normal;font-size:2.82222223px;line-height:1.25;font-family:'Yu Gothic UI';-inkscape-font-specification:'Yu Gothic UI';letter-spacing:0px;word-spacing:0px;fill:#ffffff;fill-opacity:1;stroke:none;stroke-width:0.26458332"
       id="text2177"
       transform="translate(-9.6235325,-9.24391)">
      <path
         d="m 33.384353,285.09375 h -0.322461 l -0.763433,-0.90399 q -0.04272,-0.051 -0.05237,-0.0689 h -0.0055 v 0.97289 h -0.231511 v -1.97611 h 0.231511 v 0.9288 h 0.0055 q 0.01929,-0.0303 0.05237,-0.0675 l 0.738629,-0.86128 h 0.28801 l -0.847494,0.94809 z"
         style="fill:#ffffff;stroke-width:0.26458332"
         id="path2184"
         inkscape:connector-curvature="0" />
      <path
         d="m 33.646181,285.09375 v -1.97611 h 0.562239 q 0.256315,0 0.406521,0.1254 0.150207,0.12541 0.150207,0.3266 0,0.16812 -0.09095,0.29214 -0.09095,0.12403 -0.250803,0.17639 v 0.006 q 0.199816,0.0234 0.319705,0.15159 0.119889,0.12678 0.119889,0.33073 0,0.25356 -0.181901,0.41065 -0.181901,0.1571 -0.458886,0.1571 z m 0.23151,-1.76664 v 0.63803 h 0.237023 q 0.190169,0 0.299034,-0.091 0.108865,-0.0923 0.108865,-0.25907 0,-0.28801 -0.378961,-0.28801 z m 0,0.84611 v 0.71107 h 0.314193 q 0.203949,0 0.31557,-0.0965 0.113,-0.0965 0.113,-0.26459 0,-0.35002 -0.476802,-0.35002 z"
         style="fill:#ffffff;stroke-width:0.26458332"
         id="path2186"
         inkscape:connector-curvature="0" />
    </g>
    <path
       sodipodi:nodetypes="cc"
       inkscape:connector-curvature="0"
       id="path2189"
       d="M 2.6458333,270.54187 H 44.979167"
       style="fill:none;stroke:#ffffff;stroke-width:0.26458332px;stroke-linecap:butt;stroke-linejoin:miter;stroke-opacity:1" />
    <g
       aria-label="A"
       style="font-style:normal;font-variant:normal;font-weight:normal;font-stretch:normal;font-size:2.11666656px;line-height:1.25;font-family:'Yu Gothic UI';-inkscape-font-specification:'Yu Gothic UI';letter-spacing:0px;word-spacing:0px;fill:#ffffff;fill-opacity:1;stroke:none;stroke-width:0.26458332"
       id="text2193"
       transform="translate(0.64526555,1.0002604)">
      <path
         d="m 35.737352,277.15625 h -0.192236 l -0.157096,-0.41548 h -0.628386 l -0.147794,0.41548 h -0.19327 l 0.56844,-1.48208 h 0.179834 z m -0.406177,-0.57154 -0.232543,-0.63149 q -0.01137,-0.031 -0.02274,-0.0992 h -0.0041 q -0.01034,0.0631 -0.02377,0.0992 l -0.230477,0.63149 z"
         style="font-size:2.11666656px;fill:#ffffff;stroke-width:0.26458332"
         id="path2203"
         inkscape:connector-curvature="0" />
    </g>
    <g
       aria-label="B"
       style="font-style:normal;font-variant:normal;font-weight:normal;font-stretch:normal;font-size:2.11666656px;line-height:1.25;font-family:'Yu Gothic UI';-inkscape-font-specification:'Yu Gothic UI';letter-spacing:0px;word-spacing:0px;fill:#ffffff;fill-opacity:1;stroke:none;stroke-width:0.26458332"
       id="text2197"
       transform="translate(0.67678555,1.0002839)">
      <path
         d="m 34.590135,279.80206 v -1.48208 h 0.42168 q 0.192236,0 0.304891,0.0941 0.112655,0.0941 0.112655,0.24495 0,0.12609 -0.06821,0.21911 -0.06821,0.093 -0.188102,0.13229 v 0.004 q 0.149861,0.0176 0.239778,0.11369 0.08992,0.0951 0.08992,0.24805 0,0.19017 -0.136426,0.30799 -0.136425,0.11782 -0.344165,0.11782 z m 0.173633,-1.32498 v 0.47852 h 0.177767 q 0.142627,0 0.224276,-0.0682 0.08165,-0.0692 0.08165,-0.1943 0,-0.21601 -0.284221,-0.21601 z m 0,0.63459 v 0.5333 h 0.235645 q 0.152962,0 0.236678,-0.0724 0.08475,-0.0723 0.08475,-0.19844 0,-0.26251 -0.357601,-0.26251 z"
         style="font-size:2.11666656px;fill:#ffffff;stroke-width:0.26458332"
         id="path2206"
         inkscape:connector-curvature="0" />
    </g>
    <g
       aria-label="A+B"
       style="font-style:normal;font-variant:normal;font-weight:normal;font-stretch:normal;font-size:2.11666656px;line-height:1.25;font-family:'Yu Gothic UI';-inkscape-font-specification:'Yu Gothic UI';letter-spacing:0px;word-spacing:0px;fill:#ffffff;fill-opacity:1;stroke:none;stroke-width:0.26458332"
       id="text2201"
       transform="translate(-0.64303045,-1.6455726)">
      <path
         d="m 35.737352,285.09375 h -0.192236 l -0.157096,-0.41548 h -0.628386 l -0.147794,0.41548 h -0.19327 l 0.56844,-1.48208 h 0.179834 z m -0.406177,-0.57154 -0.232543,-0.63149 q -0.01137,-0.031 -0.02274,-0.0992 h -0.0041 q -0.01034,0.0631 -0.02377,0.0992 l -0.230477,0.63149 z"
         style="font-size:2.11666656px;fill:#ffffff;stroke-width:0.26458332"
         id="path2209"
         inkscape:connector-curvature="0" />
      <path
         d="M 36.971385,284.54598 H 36.55384 v 0.41651 h -0.13746 v -0.41651 h -0.416512 v -0.13849 h 0.416512 v -0.41652 h 0.13746 v 0.41652 h 0.417545 z"
         style="font-size:2.11666656px;fill:#ffffff;stroke-width:0.26458332"
         id="path2211"
         inkscape:connector-curvature="0" />
      <path
         d="m 37.401333,285.09375 v -1.48208 h 0.42168 q 0.192236,0 0.304891,0.094 0.112654,0.0941 0.112654,0.24495 0,0.12609 -0.06821,0.21911 -0.06821,0.093 -0.188103,0.13229 v 0.004 q 0.149862,0.0176 0.239779,0.11369 0.08992,0.0951 0.08992,0.24805 0,0.19017 -0.136426,0.30799 -0.136426,0.11782 -0.344165,0.11782 z m 0.173633,-1.32498 v 0.47852 h 0.177767 q 0.142627,0 0.224276,-0.0682 0.08165,-0.0693 0.08165,-0.19431 0,-0.216 -0.28422,-0.216 z m 0,0.63458 v 0.5333 h 0.235645 q 0.152962,0 0.236678,-0.0723 0.08475,-0.0723 0.08475,-0.19844 0,-0.26252 -0.357601,-0.26252 z"
         style="font-size:2.11666656px;fill:#ffffff;stroke-width:0.26458332"
         id="path2213"
         inkscape:connector-curvature="0" />
    </g>
    <g
       aria-label="STATUS"
       style="font-style:normal;font-variant:normal;font-weight:normal;font-stretch:normal;font-size:2.82222223px;line-height:1.25;font-family:'Yu Gothic UI';-inkscape-font-specification:'Yu Gothic UI';letter-spacing:0px;word-spacing:0px;fill:#ffffff;fill-opacity:1;stroke:none;stroke-width:0.26458332"
       id="text2218"
       transform="translate(-4.7590435,0.28143166)">
      <path
         d="m 39.854243,274.43048 v -0.27285 q 0.04685,0.0413 0.111621,0.0744 0.06615,0.0331 0.137804,0.0565 0.07304,0.022 0.146072,0.0344 0.07304,0.0124 0.135047,0.0124 0.213596,0 0.318327,-0.0786 0.106109,-0.0799 0.106109,-0.22876 0,-0.0799 -0.03583,-0.13918 -0.03445,-0.0593 -0.09646,-0.10749 -0.06201,-0.0496 -0.14745,-0.0937 -0.08406,-0.0455 -0.181901,-0.0951 -0.103353,-0.0524 -0.192925,-0.10611 -0.08957,-0.0537 -0.155718,-0.11851 -0.06615,-0.0648 -0.104731,-0.14607 -0.03721,-0.0827 -0.03721,-0.19292 0,-0.13505 0.05926,-0.23427 0.05926,-0.1006 0.155719,-0.16537 0.09646,-0.0648 0.219108,-0.0965 0.124023,-0.0317 0.252181,-0.0317 0.292144,0 0.425814,0.0703 v 0.26045 q -0.175011,-0.12127 -0.449241,-0.12127 -0.07579,0 -0.151584,0.0165 -0.07579,0.0152 -0.135048,0.051 -0.05926,0.0358 -0.09646,0.0923 -0.03721,0.0565 -0.03721,0.1378 0,0.0758 0.02756,0.13092 0.02894,0.0551 0.08406,0.1006 0.05512,0.0455 0.133669,0.0882 0.07993,0.0427 0.183279,0.0937 0.106109,0.0524 0.201194,0.11024 0.09508,0.0579 0.166743,0.12816 0.07166,0.0703 0.112999,0.15572 0.04272,0.0854 0.04272,0.19568 0,0.14607 -0.05788,0.24804 -0.0565,0.1006 -0.15434,0.16399 -0.09646,0.0634 -0.223242,0.091 -0.12678,0.0289 -0.26734,0.0289 -0.04685,0 -0.115755,-0.008 -0.0689,-0.007 -0.14056,-0.022 -0.07166,-0.0138 -0.136426,-0.0345 -0.06339,-0.022 -0.101974,-0.0482 z"
         style="fill:#ffffff;stroke-width:0.26458332"
         id="path2220"
         inkscape:connector-curvature="0" />
      <path
         d="m 42.586892,272.74376 h -0.570507 v 1.76665 h -0.231511 v -1.76665 h -0.56913 v -0.20946 h 1.371148 z"
         style="fill:#ffffff;stroke-width:0.26458332"
         id="path2222"
         inkscape:connector-curvature="0" />
      <path
         d="M 44.325977,274.51041 H 44.069661 L 43.8602,273.95644 h -0.837848 l -0.197059,0.55397 H 42.5676 l 0.757921,-1.97611 h 0.239778 z m -0.541569,-0.76206 -0.310059,-0.84198 q -0.01516,-0.0413 -0.03032,-0.13229 h -0.0055 q -0.01378,0.0841 -0.03169,0.13229 l -0.307302,0.84198 z"
         style="fill:#ffffff;stroke-width:0.26458332"
         id="path2224"
         inkscape:connector-curvature="0" />
      <path
         d="m 45.684722,272.74376 h -0.570508 v 1.76665 h -0.23151 v -1.76665 h -0.56913 v -0.20946 h 1.371148 z"
         style="fill:#ffffff;stroke-width:0.26458332"
         id="path2226"
         inkscape:connector-curvature="0" />
      <path
         d="m 47.438965,273.71114 q 0,0.83234 -0.751031,0.83234 -0.719336,0 -0.719336,-0.80064 v -1.20854 h 0.231511 v 1.19338 q 0,0.60772 0.51263,0.60772 0.494715,0 0.494715,-0.58705 v -1.21405 h 0.231511 z"
         style="fill:#ffffff;stroke-width:0.26458332"
         id="path2228"
         inkscape:connector-curvature="0" />
      <path
         d="m 47.841352,274.43048 v -0.27285 q 0.04685,0.0413 0.111621,0.0744 0.06615,0.0331 0.137804,0.0565 0.07304,0.022 0.146072,0.0344 0.07304,0.0124 0.135048,0.0124 0.213595,0 0.318326,-0.0786 0.106109,-0.0799 0.106109,-0.22876 0,-0.0799 -0.03583,-0.13918 -0.03445,-0.0593 -0.09646,-0.10749 -0.06201,-0.0496 -0.14745,-0.0937 -0.08406,-0.0455 -0.181902,-0.0951 -0.103352,-0.0524 -0.192925,-0.10611 -0.08957,-0.0537 -0.155718,-0.11851 -0.06615,-0.0648 -0.104731,-0.14607 -0.03721,-0.0827 -0.03721,-0.19292 0,-0.13505 0.05926,-0.23427 0.05925,-0.1006 0.155718,-0.16537 0.09646,-0.0648 0.219108,-0.0965 0.124023,-0.0317 0.252181,-0.0317 0.292144,0 0.425814,0.0703 v 0.26045 q -0.175011,-0.12127 -0.449241,-0.12127 -0.07579,0 -0.151584,0.0165 -0.07579,0.0152 -0.135048,0.051 -0.05926,0.0358 -0.09646,0.0923 -0.03721,0.0565 -0.03721,0.1378 0,0.0758 0.02756,0.13092 0.02894,0.0551 0.08406,0.1006 0.05512,0.0455 0.133669,0.0882 0.07993,0.0427 0.183279,0.0937 0.106109,0.0524 0.201194,0.11024 0.09508,0.0579 0.166743,0.12816 0.07166,0.0703 0.112999,0.15572 0.04272,0.0854 0.04272,0.19568 0,0.14607 -0.05788,0.24804 -0.0565,0.1006 -0.15434,0.16399 -0.09646,0.0634 -0.223242,0.091 -0.12678,0.0289 -0.267339,0.0289 -0.04685,0 -0.115756,-0.008 -0.0689,-0.007 -0.14056,-0.022 -0.07166,-0.0138 -0.136425,-0.0345 -0.06339,-0.022 -0.101975,-0.0482 z"
         style="fill:#ffffff;stroke-width:0.26458332"
         id="path2230"
         inkscape:connector-curvature="0" />
    </g>
  </g>
  <g
     inkscape:groupmode="layer"
     id="layer2"
     inkscape:label="Grid"
     style="display:none"
     sodipodi:insensitive="true">
    <g
       style="display:inline;stroke:#ffffff"
       id="g2708">
      <path
         style="fill:none;stroke:#ffffff;stroke-width:0.05;stroke-linecap:butt;stroke-linejoin:miter;stroke-miterlimit:4;stroke-dasharray:none;stroke-opacity:1"
         d="M 7.9375007,-5.0001865e-6 7.9374977,100.54166"
         id="path881-8-8-2"
         inkscape:connector-curvature="0"
         sodipodi:nodetypes="cc" />
      <path
         sodipodi:nodetypes="cc"
         inkscape:connector-curvature="0"
         id="path890-2-5-0"
         d="M 3.9687527,4.9998135e-6 3.9687487,100.54167"
         style="fill:none;stroke:#ffffff;stroke-width:0.05;stroke-linecap:butt;stroke-linejoin:miter;stroke-miterlimit:4;stroke-dasharray:none;stroke-opacity:1" />
      <path
         style="fill:none;stroke:#ffffff;stroke-width:0.05;stroke-linecap:butt;stroke-linejoin:miter;stroke-miterlimit:4;stroke-dasharray:none;stroke-opacity:1"
         d="M 11.906254,4.9998135e-6 11.90625,100.54167"
         id="path895-1-5-2"
         inkscape:connector-curvature="0"
         sodipodi:nodetypes="cc" />
      <path
         sodipodi:nodetypes="cc"
         inkscape:connector-curvature="0"
         id="path1107-7"
         d="M 7.2598426e-7,50.270605 15.875001,50.271066"
         style="fill:none;stroke:#ffffff;stroke-width:0.05;stroke-linecap:butt;stroke-linejoin:miter;stroke-miterlimit:4;stroke-dasharray:none;stroke-opacity:1" />
      <circle
         r="4.0999999"
         cy="50.270832"
         cx="7.9523048"
         id="circle1018-7"
         style="display:inline;opacity:1;fill:none;fill-opacity:1;stroke:#ffffff;stroke-width:0.05;stroke-linecap:square;stroke-linejoin:round;stroke-miterlimit:4;stroke-dasharray:none;stroke-dashoffset:0;stroke-opacity:1;paint-order:markers fill stroke" />
      <circle
         style="display:inline;opacity:1;fill:none;fill-opacity:1;stroke:#ffffff;stroke-width:0.05172414;stroke-linecap:square;stroke-linejoin:round;stroke-miterlimit:4;stroke-dasharray:none;stroke-dashoffset:0;stroke-opacity:1;paint-order:markers fill stroke"
         id="circle977-3"
         cx="7.9360805"
         cy="50.270832"
         r="5.4741378" />
      <path
         style="fill:none;stroke:#ffffff;stroke-width:0.05;stroke-linecap:butt;stroke-linejoin:miter;stroke-miterlimit:4;stroke-dasharray:none;stroke-opacity:1"
         d="M 7.2598426e-7,33.601974 15.875001,33.602435"
         id="path1010"
         inkscape:connector-curvature="0"
         sodipodi:nodetypes="cc" />
      <circle
         style="display:inline;opacity:1;fill:none;fill-opacity:1;stroke:#ffffff;stroke-width:0.05;stroke-linecap:square;stroke-linejoin:round;stroke-miterlimit:4;stroke-dasharray:none;stroke-dashoffset:0;stroke-opacity:1;paint-order:markers fill stroke"
         id="circle1012"
         cx="7.9523048"
         cy="33.602142"
         r="4.0999999" />
      <circle
         r="5.4741378"
         cy="33.602142"
         cx="7.9360805"
         id="circle1015"
         style="display:inline;opacity:1;fill:none;fill-opacity:1;stroke:#ffffff;stroke-width:0.05172414;stroke-linecap:square;stroke-linejoin:round;stroke-miterlimit:4;stroke-dasharray:none;stroke-dashoffset:0;stroke-opacity:1;paint-order:markers fill stroke" />
      <path
         style="fill:none;stroke:#ffffff;stroke-width:0.05;stroke-linecap:butt;stroke-linejoin:miter;stroke-miterlimit:4;stroke-dasharray:none;stroke-opacity:1"
         d="M 7.2598426e-7,66.940056 15.875001,66.940517"
         id="path1017"
         inkscape:connector-curvature="0"
         sodipodi:nodetypes="cc" />
      <circle
         style="display:inline;opacity:1;fill:none;fill-opacity:1;stroke:#ffffff;stroke-width:0.05;stroke-linecap:square;stroke-linejoin:round;stroke-miterlimit:4;stroke-dasharray:none;stroke-dashoffset:0;stroke-opacity:1;paint-order:markers fill stroke"
         id="circle1019"
         cx="7.9523048"
         cy="66.940338"
         r="4.0999999" />
      <circle
         r="5.4741378"
         cy="66.940338"
         cx="7.9360805"
         id="circle1021"
         style="display:inline;opacity:1;fill:none;fill-opacity:1;stroke:#ffffff;stroke-width:0.05172414;stroke-linecap:square;stroke-linejoin:round;stroke-miterlimit:4;stroke-dasharray:none;stroke-dashoffset:0;stroke-opacity:1;paint-order:markers fill stroke" />
      <path
         sodipodi:nodetypes="cc"
         inkscape:connector-curvature="0"
         id="path1023"
         d="M 7.2598426e-7,83.608108 15.875001,83.608569"
         style="fill:none;stroke:#ffffff;stroke-width:0.05;stroke-linecap:butt;stroke-linejoin:miter;stroke-miterlimit:4;stroke-dasharray:none;stroke-opacity:1" />
      <circle
         r="4.0999999"
         cy="83.60833"
         cx="7.9523048"
         id="circle1025"
         style="display:inline;opacity:1;fill:none;fill-opacity:1;stroke:#ffffff;stroke-width:0.05;stroke-linecap:square;stroke-linejoin:round;stroke-miterlimit:4;stroke-dasharray:none;stroke-dashoffset:0;stroke-opacity:1;paint-order:markers fill stroke" />
      <circle
         style="display:inline;opacity:1;fill:none;fill-opacity:1;stroke:#ffffff;stroke-width:0.05172414;stroke-linecap:square;stroke-linejoin:round;stroke-miterlimit:4;stroke-dasharray:none;stroke-dashoffset:0;stroke-opacity:1;paint-order:markers fill stroke"
         id="circle1027"
         cx="7.9360805"
         cy="83.60833"
         r="5.4741378" />
      <path
         sodipodi:nodetypes="cc"
         inkscape:connector-curvature="0"
         id="path1029"
         d="M 7.2598426e-7,16.933102 15.875001,16.933563"
         style="fill:none;stroke:#ffffff;stroke-width:0.05;stroke-linecap:butt;stroke-linejoin:miter;stroke-miterlimit:4;stroke-dasharray:none;stroke-opacity:1" />
      <circle
         r="4.0999999"
         cy="16.933331"
         cx="7.9523048"
         id="circle1031"
         style="display:inline;opacity:1;fill:none;fill-opacity:1;stroke:#ffffff;stroke-width:0.05;stroke-linecap:square;stroke-linejoin:round;stroke-miterlimit:4;stroke-dasharray:none;stroke-dashoffset:0;stroke-opacity:1;paint-order:markers fill stroke" />
      <circle
         style="display:inline;opacity:1;fill:none;fill-opacity:1;stroke:#ffffff;stroke-width:0.05172414;stroke-linecap:square;stroke-linejoin:round;stroke-miterlimit:4;stroke-dasharray:none;stroke-dashoffset:0;stroke-opacity:1;paint-order:markers fill stroke"
         id="circle1033"
         cx="7.9360805"
         cy="16.933331"
         r="5.4741378" />
    </g>
    <g
       id="g1987"
       style="display:inline;stroke:#ffffff"
       transform="translate(15.875004)">
      <path
         sodipodi:nodetypes="cc"
         inkscape:connector-curvature="0"
         id="path1951"
         d="M 7.9375007,-5.0001865e-6 7.9374977,100.54166"
         style="fill:none;stroke:#ffffff;stroke-width:0.05;stroke-linecap:butt;stroke-linejoin:miter;stroke-miterlimit:4;stroke-dasharray:none;stroke-opacity:1" />
      <path
         style="fill:none;stroke:#ffffff;stroke-width:0.05;stroke-linecap:butt;stroke-linejoin:miter;stroke-miterlimit:4;stroke-dasharray:none;stroke-opacity:1"
         d="M 3.9687527,4.9998135e-6 3.9687487,100.54167"
         id="path1953"
         inkscape:connector-curvature="0"
         sodipodi:nodetypes="cc" />
      <path
         sodipodi:nodetypes="cc"
         inkscape:connector-curvature="0"
         id="path1955"
         d="M 11.906254,4.9998135e-6 11.90625,100.54167"
         style="fill:none;stroke:#ffffff;stroke-width:0.05;stroke-linecap:butt;stroke-linejoin:miter;stroke-miterlimit:4;stroke-dasharray:none;stroke-opacity:1" />
      <path
         style="fill:none;stroke:#ffffff;stroke-width:0.05;stroke-linecap:butt;stroke-linejoin:miter;stroke-miterlimit:4;stroke-dasharray:none;stroke-opacity:1"
         d="M 7.2598426e-7,50.270605 15.875001,50.271066"
         id="path1957"
         inkscape:connector-curvature="0"
         sodipodi:nodetypes="cc" />
      <circle
         style="display:inline;opacity:1;fill:none;fill-opacity:1;stroke:#ffffff;stroke-width:0.05;stroke-linecap:square;stroke-linejoin:round;stroke-miterlimit:4;stroke-dasharray:none;stroke-dashoffset:0;stroke-opacity:1;paint-order:markers fill stroke"
         id="circle1959"
         cx="7.9523048"
         cy="50.270832"
         r="4.0999999" />
      <circle
         r="5.4741378"
         cy="50.270832"
         cx="7.9360805"
         id="circle1961"
         style="display:inline;opacity:1;fill:none;fill-opacity:1;stroke:#ffffff;stroke-width:0.05172414;stroke-linecap:square;stroke-linejoin:round;stroke-miterlimit:4;stroke-dasharray:none;stroke-dashoffset:0;stroke-opacity:1;paint-order:markers fill stroke" />
      <path
         sodipodi:nodetypes="cc"
         inkscape:connector-curvature="0"
         id="path1963"
         d="M 7.2598426e-7,33.601974 15.875001,33.602435"
         style="fill:none;stroke:#ffffff;stroke-width:0.05;stroke-linecap:butt;stroke-linejoin:miter;stroke-miterlimit:4;stroke-dasharray:none;stroke-opacity:1" />
      <circle
         r="4.0999999"
         cy="33.602142"
         cx="7.9523048"
         id="circle1965"
         style="display:inline;opacity:1;fill:none;fill-opacity:1;stroke:#ffffff;stroke-width:0.05;stroke-linecap:square;stroke-linejoin:round;stroke-miterlimit:4;stroke-dasharray:none;stroke-dashoffset:0;stroke-opacity:1;paint-order:markers fill stroke" />
      <circle
         style="display:inline;opacity:1;fill:none;fill-opacity:1;stroke:#ffffff;stroke-width:0.05172414;stroke-linecap:square;stroke-linejoin:round;stroke-miterlimit:4;stroke-dasharray:none;stroke-dashoffset:0;stroke-opacity:1;paint-order:markers fill stroke"
         id="circle1967"
         cx="7.9360805"
         cy="33.602142"
         r="5.4741378" />
      <path
         sodipodi:nodetypes="cc"
         inkscape:connector-curvature="0"
         id="path1969"
         d="M 7.2598426e-7,66.940056 15.875001,66.940517"
         style="fill:none;stroke:#ffffff;stroke-width:0.05;stroke-linecap:butt;stroke-linejoin:miter;stroke-miterlimit:4;stroke-dasharray:none;stroke-opacity:1" />
      <circle
         r="4.0999999"
         cy="66.940338"
         cx="7.9523048"
         id="circle1971"
         style="display:inline;opacity:1;fill:none;fill-opacity:1;stroke:#ffffff;stroke-width:0.05;stroke-linecap:square;stroke-linejoin:round;stroke-miterlimit:4;stroke-dasharray:none;stroke-dashoffset:0;stroke-opacity:1;paint-order:markers fill stroke" />
      <circle
         style="display:inline;opacity:1;fill:none;fill-opacity:1;stroke:#ffffff;stroke-width:0.05172414;stroke-linecap:square;stroke-linejoin:round;stroke-miterlimit:4;stroke-dasharray:none;stroke-dashoffset:0;stroke-opacity:1;paint-order:markers fill stroke"
         id="circle1973"
         cx="7.9360805"
         cy="66.940338"
         r="5.4741378" />
      <path
         style="fill:none;stroke:#ffffff;stroke-width:0.05;stroke-linecap:butt;stroke-linejoin:miter;stroke-miterlimit:4;stroke-dasharray:none;stroke-opacity:1"
         d="M 7.2598426e-7,83.608108 15.875001,83.608569"
         id="path1975"
         inkscape:connector-curvature="0"
         sodipodi:nodetypes="cc" />
      <circle
         style="display:inline;opacity:1;fill:none;fill-opacity:1;stroke:#ffffff;stroke-width:0.05;stroke-linecap:square;stroke-linejoin:round;stroke-miterlimit:4;stroke-dasharray:none;stroke-dashoffset:0;stroke-opacity:1;paint-order:markers fill stroke"
         id="circle1977"
         cx="7.9523048"
         cy="83.60833"
         r="4.0999999" />
      <circle
         r="5.4741378"
         cy="83.60833"
         cx="7.9360805"
         id="circle1979"
         style="display:inline;opacity:1;fill:none;fill-opacity:1;stroke:#ffffff;stroke-width:0.05172414;stroke-linecap:square;stroke-linejoin:round;stroke-miterlimit:4;stroke-dasharray:none;stroke-dashoffset:0;stroke-opacity:1;paint-order:markers fill stroke" />
      <path
         style="fill:none;stroke:#ffffff;stroke-width:0.05;stroke-linecap:butt;stroke-linejoin:miter;stroke-miterlimit:4;stroke-dasharray:none;stroke-opacity:1"
         d="M 7.2598426e-7,16.933102 15.875001,16.933563"
         id="path1981"
         inkscape:connector-curvature="0"
         sodipodi:nodetypes="cc" />
      <circle
         style="display:inline;opacity:1;fill:none;fill-opacity:1;stroke:#ffffff;stroke-width:0.05;stroke-linecap:square;stroke-linejoin:round;stroke-miterlimit:4;stroke-dasharray:none;stroke-dashoffset:0;stroke-opacity:1;paint-order:markers fill stroke"
         id="circle1983"
         cx="7.9523048"
         cy="16.933331"
         r="4.0999999" />
      <circle
         r="5.4741378"
         cy="16.933331"
         cx="7.9360805"
         id="circle1985"
         style="display:inline;opacity:1;fill:none;fill-opacity:1;stroke:#ffffff;stroke-width:0.05172414;stroke-linecap:square;stroke-linejoin:round;stroke-miterlimit:4;stroke-dasharray:none;stroke-dashoffset:0;stroke-opacity:1;paint-order:markers fill stroke" />
    </g>
    <g
       transform="translate(31.750014)"
       style="display:inline;stroke:#ffffff"
       id="g2025">
      <path
         style="fill:none;stroke:#ffffff;stroke-width:0.05;stroke-linecap:butt;stroke-linejoin:miter;stroke-miterlimit:4;stroke-dasharray:none;stroke-opacity:1"
         d="M 7.9375007,-5.0001865e-6 7.9374977,100.54166"
         id="path1989"
         inkscape:connector-curvature="0"
         sodipodi:nodetypes="cc" />
      <path
         sodipodi:nodetypes="cc"
         inkscape:connector-curvature="0"
         id="path1991"
         d="M 3.9687527,4.9998135e-6 3.9687487,100.54167"
         style="fill:none;stroke:#ffffff;stroke-width:0.05;stroke-linecap:butt;stroke-linejoin:miter;stroke-miterlimit:4;stroke-dasharray:none;stroke-opacity:1" />
      <path
         style="fill:none;stroke:#ffffff;stroke-width:0.05;stroke-linecap:butt;stroke-linejoin:miter;stroke-miterlimit:4;stroke-dasharray:none;stroke-opacity:1"
         d="M 11.906254,4.9998135e-6 11.90625,100.54167"
         id="path1993"
         inkscape:connector-curvature="0"
         sodipodi:nodetypes="cc" />
      <path
         sodipodi:nodetypes="cc"
         inkscape:connector-curvature="0"
         id="path1995"
         d="M 7.2598426e-7,50.270605 15.875001,50.271066"
         style="fill:none;stroke:#ffffff;stroke-width:0.05;stroke-linecap:butt;stroke-linejoin:miter;stroke-miterlimit:4;stroke-dasharray:none;stroke-opacity:1" />
      <circle
         r="4.0999999"
         cy="50.270832"
         cx="7.9523048"
         id="circle1997"
         style="display:inline;opacity:1;fill:none;fill-opacity:1;stroke:#ffffff;stroke-width:0.05;stroke-linecap:square;stroke-linejoin:round;stroke-miterlimit:4;stroke-dasharray:none;stroke-dashoffset:0;stroke-opacity:1;paint-order:markers fill stroke" />
      <circle
         style="display:inline;opacity:1;fill:none;fill-opacity:1;stroke:#ffffff;stroke-width:0.05172414;stroke-linecap:square;stroke-linejoin:round;stroke-miterlimit:4;stroke-dasharray:none;stroke-dashoffset:0;stroke-opacity:1;paint-order:markers fill stroke"
         id="circle1999"
         cx="7.9360805"
         cy="50.270832"
         r="5.4741378" />
      <path
         style="fill:none;stroke:#ffffff;stroke-width:0.05;stroke-linecap:butt;stroke-linejoin:miter;stroke-miterlimit:4;stroke-dasharray:none;stroke-opacity:1"
         d="M 7.2598426e-7,33.601974 15.875001,33.602435"
         id="path2001"
         inkscape:connector-curvature="0"
         sodipodi:nodetypes="cc" />
      <circle
         style="display:inline;opacity:1;fill:none;fill-opacity:1;stroke:#ffffff;stroke-width:0.05;stroke-linecap:square;stroke-linejoin:round;stroke-miterlimit:4;stroke-dasharray:none;stroke-dashoffset:0;stroke-opacity:1;paint-order:markers fill stroke"
         id="circle2003"
         cx="7.9523048"
         cy="33.602142"
         r="4.0999999" />
      <circle
         r="5.4741378"
         cy="33.602142"
         cx="7.9360805"
         id="circle2005"
         style="display:inline;opacity:1;fill:none;fill-opacity:1;stroke:#ffffff;stroke-width:0.05172414;stroke-linecap:square;stroke-linejoin:round;stroke-miterlimit:4;stroke-dasharray:none;stroke-dashoffset:0;stroke-opacity:1;paint-order:markers fill stroke" />
      <path
         style="fill:none;stroke:#ffffff;stroke-width:0.05;stroke-linecap:butt;stroke-linejoin:miter;stroke-miterlimit:4;stroke-dasharray:none;stroke-opacity:1"
         d="M 7.2598426e-7,66.940056 15.875001,66.940517"
         id="path2007"
         inkscape:connector-curvature="0"
         sodipodi:nodetypes="cc" />
      <circle
         style="display:inline;opacity:1;fill:none;fill-opacity:1;stroke:#ffffff;stroke-width:0.05;stroke-linecap:square;stroke-linejoin:round;stroke-miterlimit:4;stroke-dasharray:none;stroke-dashoffset:0;stroke-opacity:1;paint-order:markers fill stroke"
         id="circle2009"
         cx="7.9523048"
         cy="66.940338"
         r="4.0999999" />
      <circle
         r="5.4741378"
         cy="66.940338"
         cx="7.9360805"
         id="circle2011"
         style="display:inline;opacity:1;fill:none;fill-opacity:1;stroke:#ffffff;stroke-width:0.05172414;stroke-linecap:square;stroke-linejoin:round;stroke-miterlimit:4;stroke-dasharray:none;stroke-dashoffset:0;stroke-opacity:1;paint-order:markers fill stroke" />
      <path
         sodipodi:nodetypes="cc"
         inkscape:connector-curvature="0"
         id="path2013"
         d="M 7.2598426e-7,83.608108 15.875001,83.608569"
         style="fill:none;stroke:#ffffff;stroke-width:0.05;stroke-linecap:butt;stroke-linejoin:miter;stroke-miterlimit:4;stroke-dasharray:none;stroke-opacity:1" />
      <circle
         r="4.0999999"
         cy="83.60833"
         cx="7.9523048"
         id="circle2015"
         style="display:inline;opacity:1;fill:none;fill-opacity:1;stroke:#ffffff;stroke-width:0.05;stroke-linecap:square;stroke-linejoin:round;stroke-miterlimit:4;stroke-dasharray:none;stroke-dashoffset:0;stroke-opacity:1;paint-order:markers fill stroke" />
      <circle
         style="display:inline;opacity:1;fill:none;fill-opacity:1;stroke:#ffffff;stroke-width:0.05172414;stroke-linecap:square;stroke-linejoin:round;stroke-miterlimit:4;stroke-dasharray:none;stroke-dashoffset:0;stroke-opacity:1;paint-order:markers fill stroke"
         id="circle2017"
         cx="7.9360805"
         cy="83.60833"
         r="5.4741378" />
      <path
         sodipodi:nodetypes="cc"
         inkscape:connector-curvature="0"
         id="path2019"
         d="M 7.2598426e-7,16.933102 15.875001,16.933563"
         style="fill:none;stroke:#ffffff;stroke-width:0.05;stroke-linecap:butt;stroke-linejoin:miter;stroke-miterlimit:4;stroke-dasharray:none;stroke-opacity:1" />
      <circle
         r="4.0999999"
         cy="16.933331"
         cx="7.9523048"
         id="circle2021"
         style="display:inline;opacity:1;fill:none;fill-opacity:1;stroke:#ffffff;stroke-width:0.05;stroke-linecap:square;stroke-linejoin:round;stroke-miterlimit:4;stroke-dasharray:none;stroke-dashoffset:0;stroke-opacity:1;paint-order:markers fill stroke" />
      <circle
         style="display:inline;opacity:1;fill:none;fill-opacity:1;stroke:#ffffff;stroke-width:0.05172414;stroke-linecap:square;stroke-linejoin:round;stroke-miterlimit:4;stroke-dasharray:none;stroke-dashoffset:0;stroke-opacity:1;paint-order:markers fill stroke"
         id="circle2023"
         cx="7.9360805"
         cy="16.933331"
         r="5.4741378" />
    </g>
  </g>
</svg>
