<?xml version="1.0" encoding="UTF-8" standalone="no"?>
<!-- Created with Inkscape (http://www.inkscape.org/) -->

<svg
   xmlns:dc="http://purl.org/dc/elements/1.1/"
   xmlns:cc="http://creativecommons.org/ns#"
   xmlns:rdf="http://www.w3.org/1999/02/22-rdf-syntax-ns#"
   xmlns:svg="http://www.w3.org/2000/svg"
   xmlns="http://www.w3.org/2000/svg"
   xmlns:sodipodi="http://sodipodi.sourceforge.net/DTD/sodipodi-0.dtd"
   xmlns:inkscape="http://www.inkscape.org/namespaces/inkscape"
   width="120"
   height="380"
   viewBox="0 0 31.750002 100.54167"
   version="1.1"
   id="svg8"
   inkscape:version="0.92.5 (2060ec1f9f, 2020-04-08)"
   sodipodi:docname="CD4562.svg">
  <defs
     id="defs2" />
  <sodipodi:namedview
     id="base"
     pagecolor="#ffffff"
     bordercolor="#666666"
     borderopacity="1.0"
     inkscape:pageopacity="0.0"
     inkscape:pageshadow="2"
     inkscape:zoom="4"
     inkscape:cx="19.352056"
     inkscape:cy="187.66011"
     inkscape:document-units="mm"
     inkscape:current-layer="layer1"
     showgrid="true"
     units="px"
     inkscape:snap-bbox="true"
     inkscape:snap-page="true"
     inkscape:bbox-nodes="true"
     inkscape:snap-bbox-edge-midpoints="true"
     inkscape:window-width="1920"
     inkscape:window-height="1017"
     inkscape:window-x="-8"
     inkscape:window-y="-8"
     inkscape:window-maximized="1">
    <inkscape:grid
       type="xygrid"
       id="grid116" />
  </sodipodi:namedview>
  <metadata
     id="metadata5">
    <rdf:RDF>
      <cc:Work
         rdf:about="">
        <dc:format>image/svg+xml</dc:format>
        <dc:type
           rdf:resource="http://purl.org/dc/dcmitype/StillImage" />
        <dc:title />
      </cc:Work>
    </rdf:RDF>
  </metadata>
  <g
     inkscape:groupmode="layer"
     id="layer3"
     inkscape:label="Panel"
     sodipodi:insensitive="true"
     style="display:inline">
    <path
       sodipodi:type="inkscape:offset"
       inkscape:radius="0"
       inkscape:original="M 0 196.45898 L 0 297 L 15.875 297 L 15.875 196.45898 L 0 196.45898 z "
       style="fill:#894c26;fill-opacity:1;stroke-width:0.3310422"
       id="rect3855"
       d="M 0,196.45898 V 297 H 15.875 V 196.45898 Z"
       transform="matrix(2,0,0,1.0000064,0,-196.46023)" />
  </g>
  <g
     inkscape:label="Layer 1"
     inkscape:groupmode="layer"
     id="layer1"
     transform="translate(0,-196.45832)"
     style="display:inline">
    <text
       xml:space="preserve"
       style="font-style:normal;font-weight:normal;font-size:2.82222223px;line-height:1.25;font-family:sans-serif;letter-spacing:0px;word-spacing:0px;fill:#000000;fill-opacity:1;stroke:none;stroke-width:0.26458332"
       x="17.197916"
       y="201.74998"
       id="text3821"><tspan
         sodipodi:role="line"
         id="tspan3819"
         x="17.197916"
         y="204.32478"
         style="stroke-width:0.26458332" /></text>
    <g
       id="g4342">
      <g
         transform="translate(-9.481569,1.7166648)"
         id="text956"
         style="font-style:normal;font-variant:normal;font-weight:normal;font-stretch:normal;font-size:2.82222223px;line-height:1.25;font-family:'Copperplate Gothic Light';-inkscape-font-specification:'Copperplate Gothic Light, ';letter-spacing:0px;word-spacing:0px;fill:#ffe4b3;fill-opacity:1;stroke:#ffe4b3;stroke-width:0.2;stroke-miterlimit:4;stroke-dasharray:none;stroke-opacity:1"
         aria-label="/^M^\">
        <path
           inkscape:connector-curvature="0"
           id="path958"
           style="font-style:normal;font-variant:normal;font-weight:normal;font-stretch:normal;font-size:2.82222223px;line-height:1.25;font-family:'Copperplate Gothic Light';-inkscape-font-specification:'Copperplate Gothic Light, ';fill:#ffe4b3;stroke:#ffe4b3;stroke-width:0.2;stroke-miterlimit:4;stroke-dasharray:none;stroke-opacity:1"
           d="m 21.203855,291.40545 v 0.0386 h -0.434082 v -0.0386 q 0.09509,-0.006 0.224621,-0.17088 l 1.094162,-1.4621 q 0.07441,-0.1006 0.07441,-0.12402 0,-0.0372 -0.06615,-0.0482 v -0.0372 h 0.423058 v 0.0372 q -0.09508,0.006 -0.22462,0.17087 l -1.08176,1.46348 q -0.07579,0.10197 -0.07579,0.12402 0,0.0358 0.06615,0.0469 z" />
        <path
           inkscape:connector-curvature="0"
           id="path960"
           style="font-style:normal;font-variant:normal;font-weight:normal;font-stretch:normal;font-size:2.82222223px;line-height:1.25;font-family:'Copperplate Gothic Light';-inkscape-font-specification:'Copperplate Gothic Light, ';fill:#ffe4b3;stroke:#ffe4b3;stroke-width:0.2;stroke-miterlimit:4;stroke-dasharray:none;stroke-opacity:1"
           d="M 22.940183,290.3857 H 22.73899 l 0.493338,-0.8282 h 0.243912 l 0.493338,0.8282 h -0.20395 l -0.413411,-0.68075 z" />
        <path
           inkscape:connector-curvature="0"
           id="path962"
           style="font-style:normal;font-variant:normal;font-weight:normal;font-stretch:normal;font-size:2.82222223px;line-height:1.25;font-family:'Copperplate Gothic Light';-inkscape-font-specification:'Copperplate Gothic Light, ';fill:#ffe4b3;stroke:#ffe4b3;stroke-width:0.2;stroke-miterlimit:4;stroke-dasharray:none;stroke-opacity:1"
           d="m 25.342104,291.44403 -0.789616,-1.58061 v 1.418 q 0,0.0565 0.01791,0.0813 0.01791,0.0234 0.07028,0.0372 v 0.0441 h -0.373449 v -0.0441 q 0.05237,-0.0138 0.07028,-0.0372 0.01792,-0.0234 0.01792,-0.0813 v -1.5558 q 0,-0.0579 -0.01792,-0.0813 -0.01791,-0.0248 -0.07028,-0.0372 v -0.0441 h 0.487826 v 0.0441 q -0.06752,0.0234 -0.06752,0.0579 0,0.0165 0.04547,0.10611 l 0.62563,1.24161 0.628385,-1.25263 q 0.03307,-0.0661 0.03307,-0.0937 0,-0.0358 -0.06752,-0.0593 v -0.0441 h 0.49196 v 0.0441 q -0.05237,0.0138 -0.07028,0.0372 -0.01792,0.0234 -0.01792,0.0813 v 1.5558 q 0,0.0565 0.01792,0.0813 0.01791,0.0234 0.07028,0.0372 v 0.0441 h -0.392741 v -0.0441 q 0.05374,-0.0138 0.07028,-0.0372 0.01791,-0.0234 0.01791,-0.0813 v -1.418 z" />
        <path
           inkscape:connector-curvature="0"
           id="path964"
           style="font-style:normal;font-variant:normal;font-weight:normal;font-stretch:normal;font-size:2.82222223px;line-height:1.25;font-family:'Copperplate Gothic Light';-inkscape-font-specification:'Copperplate Gothic Light, ';fill:#ffe4b3;stroke:#ffe4b3;stroke-width:0.2;stroke-miterlimit:4;stroke-dasharray:none;stroke-opacity:1"
           d="m 26.942006,290.3857 h -0.201193 l 0.493338,-0.8282 h 0.243912 l 0.493338,0.8282 h -0.20395 l -0.413411,-0.68075 z" />
        <path
           inkscape:connector-curvature="0"
           id="path966"
           style="font-style:normal;font-variant:normal;font-weight:normal;font-stretch:normal;font-size:2.82222223px;line-height:1.25;font-family:'Copperplate Gothic Light';-inkscape-font-specification:'Copperplate Gothic Light, ';fill:#ffe4b3;stroke:#ffe4b3;stroke-width:0.2;stroke-miterlimit:4;stroke-dasharray:none;stroke-opacity:1"
           d="m 28.617701,289.56301 v 0.0372 q -0.06615,0.011 -0.06615,0.0482 0,0.0234 0.07441,0.12402 l 1.092784,1.4621 q 0.129536,0.16536 0.22462,0.17088 v 0.0386 h -0.434082 v -0.0386 q 0.06615,-0.011 0.06615,-0.0469 0,-0.0207 -0.07579,-0.12402 l -1.080382,-1.46348 q -0.129535,-0.16536 -0.22462,-0.17087 v -0.0372 z" />
      </g>
      <g
         id="text924"
         style="font-style:normal;font-variant:normal;font-weight:normal;font-stretch:normal;font-size:2.97226882px;line-height:1.25;font-family:'Yu Gothic UI';-inkscape-font-specification:'Yu Gothic UI';letter-spacing:0px;word-spacing:0px;fill:#ffe4b3;fill-opacity:1;stroke:none;stroke-width:0.24768905"
         aria-label="LUNETTA">
        <path
           id="path892"
           style="font-size:2.97226882px;fill:#ffe4b3;stroke-width:0.24768905"
           d="M 11.061028,295.90683 H 9.9812581 v -2.08117 h 0.2438189 v 1.86057 h 0.835951 z"
           inkscape:connector-curvature="0" />
        <path
           id="path894"
           style="font-size:2.97226882px;fill:#ffe4b3;stroke-width:0.24768905"
           d="m 12.902731,295.06507 q 0,0.87659 -0.79096,0.87659 -0.75758,0 -0.75758,-0.84321 v -1.27279 h 0.243819 v 1.25683 q 0,0.64002 0.539885,0.64002 0.521017,0 0.521017,-0.61825 v -1.2786 h 0.243819 z"
           inkscape:connector-curvature="0" />
        <path
           id="path896"
           style="font-size:2.97226882px;fill:#ffe4b3;stroke-width:0.24768905"
           d="m 15.101456,295.90683 h -0.298969 l -1.071062,-1.65884 q -0.04064,-0.0624 -0.06676,-0.13062 h -0.0087 q 0.01161,0.0668 0.01161,0.28591 v 1.50355 h -0.243819 v -2.08117 h 0.316384 l 1.042036,1.63272 q 0.06531,0.10159 0.08418,0.13932 h 0.0058 q -0.01451,-0.09 -0.01451,-0.30622 v -1.46582 h 0.243819 z"
           inkscape:connector-curvature="0" />
        <path
           id="path898"
           style="font-size:2.97226882px;fill:#ffe4b3;stroke-width:0.24768905"
           d="m 16.750136,295.90683 h -1.102991 v -2.08117 h 1.056549 v 0.2206 h -0.81273 v 0.69227 h 0.751775 v 0.21915 h -0.751775 v 0.72855 h 0.859172 z"
           inkscape:connector-curvature="0" />
        <path
           id="path900"
           style="font-size:2.97226882px;fill:#ffe4b3;stroke-width:0.24768905"
           d="m 18.381401,294.04626 h -0.60084 v 1.86057 h -0.243819 v -1.86057 h -0.599388 v -0.2206 h 1.444047 z"
           inkscape:connector-curvature="0" />
        <path
           id="path902"
           style="font-size:2.97226882px;fill:#ffe4b3;stroke-width:0.24768905"
           d="m 19.937197,294.04626 h -0.600839 v 1.86057 h -0.243819 v -1.86057 h -0.599388 v -0.2206 h 1.444046 z"
           inkscape:connector-curvature="0" />
        <path
           id="path904"
           style="font-size:2.97226882px;fill:#ffe4b3;stroke-width:0.24768905"
           d="M 21.768742,295.90683 H 21.4988 l -0.220598,-0.58342 h -0.882393 l -0.207536,0.58342 h -0.271394 l 0.798217,-2.08117 h 0.252527 z m -0.570362,-0.80257 -0.326543,-0.88675 q -0.01596,-0.0435 -0.03193,-0.13932 h -0.0058 q -0.01451,0.0885 -0.03338,0.13932 l -0.323641,0.88675 z"
           inkscape:connector-curvature="0" />
      </g>
    </g>
    <path
       inkscape:connector-curvature="0"
       id="path1089"
       d="m 17.197917,202.80832 v 87.04792 l 13.22917,10e-6 -4e-6,-87.04793 z"
       style="fill:none;stroke:#ffe4b3;stroke-width:0.26458332px;stroke-linecap:butt;stroke-linejoin:miter;stroke-opacity:1"
       sodipodi:nodetypes="ccccc" />
    <g
       aria-label="1"
       style="font-style:normal;font-variant:normal;font-weight:normal;font-stretch:normal;font-size:2.82222223px;line-height:1.25;font-family:'Yu Gothic UI';-inkscape-font-specification:'Yu Gothic UI';letter-spacing:0px;word-spacing:0px;fill:#ffe4b3;fill-opacity:1;stroke:none;stroke-width:0.26458332"
       id="text6673"
       transform="translate(-0.71977198,-4.0254695)">
      <path
         d="m 20.84145,209.68748 h -0.225999 v -1.70738 q -0.02618,0.0262 -0.07717,0.0606 -0.04961,0.0331 -0.112999,0.0661 -0.06201,0.0331 -0.132292,0.062 -0.0689,0.0289 -0.135047,0.0455 v -0.22875 q 0.07441,-0.0207 0.157096,-0.0551 0.08406,-0.0358 0.163987,-0.0785 0.0813,-0.0441 0.152962,-0.091 0.07166,-0.0482 0.124023,-0.0937 h 0.08544 z"
         style="fill:#ffe4b3;stroke-width:0.26458332"
         id="path6724"
         inkscape:connector-curvature="0" />
    </g>
    <g
       aria-label="2"
       style="font-style:normal;font-variant:normal;font-weight:normal;font-stretch:normal;font-size:2.82222223px;line-height:1.25;font-family:'Yu Gothic UI';-inkscape-font-specification:'Yu Gothic UI';letter-spacing:0px;word-spacing:0px;fill:#ffe4b3;fill-opacity:1;stroke:none;stroke-width:0.26458332"
       id="text6677"
       transform="translate(-2.14674,-0.85046893)">
      <path
         d="m 22.230512,216.16702 q 0,-0.091 -0.02894,-0.15847 -0.02756,-0.0675 -0.07717,-0.11163 -0.04823,-0.0455 -0.114378,-0.0675 -0.06614,-0.022 -0.143316,-0.022 -0.06614,0 -0.129535,0.0179 -0.06339,0.0179 -0.124024,0.0496 -0.05926,0.0317 -0.115755,0.0758 -0.05512,0.0441 -0.103353,0.0978 v -0.24254 q 0.09509,-0.0923 0.212218,-0.14056 0.118512,-0.0496 0.28801,-0.0496 0.121268,0 0.22462,0.0358 0.103353,0.0344 0.179145,0.10198 0.07579,0.0675 0.118512,0.16674 0.0441,0.0992 0.0441,0.22738 0,0.11713 -0.02756,0.21222 -0.02618,0.0951 -0.0813,0.17914 -0.05374,0.0841 -0.136426,0.16123 -0.08268,0.0772 -0.194303,0.1571 -0.139182,0.0992 -0.230133,0.1695 -0.08957,0.0703 -0.143316,0.13229 -0.05237,0.0606 -0.07441,0.12264 -0.02067,0.0606 -0.02067,0.14056 h 0.983919 v 0.20257 h -1.219564 v -0.0978 q 0,-0.12678 0.02756,-0.22324 0.02756,-0.0965 0.09095,-0.18328 0.06339,-0.0868 0.165365,-0.17363 0.103353,-0.0868 0.252181,-0.19568 0.107487,-0.0772 0.179145,-0.14745 0.07304,-0.0703 0.117133,-0.14056 0.0441,-0.0703 0.06201,-0.14194 0.01929,-0.073 0.01929,-0.15434 z"
         style="fill:#ffe4b3;stroke-width:0.26458332"
         id="path6721"
         inkscape:connector-curvature="0" />
    </g>
    <g
       aria-label="3"
       style="font-style:normal;font-variant:normal;font-weight:normal;font-stretch:normal;font-size:2.82222223px;line-height:1.25;font-family:'Yu Gothic UI';-inkscape-font-specification:'Yu Gothic UI';letter-spacing:0px;word-spacing:0px;fill:#ffe4b3;fill-opacity:1;stroke:none;stroke-width:0.26458332"
       id="text6681"
       transform="translate(-2.128124,-4.3157171)">
      <path
         d="m 22.479936,231.61758 q 0,0.13367 -0.05099,0.24391 -0.04961,0.10887 -0.141938,0.18742 -0.09095,0.0772 -0.219108,0.11988 -0.128158,0.0427 -0.282498,0.0427 -0.282498,0 -0.44924,-0.10748 v -0.24254 q 0.199815,0.1571 0.457508,0.1571 0.103353,0 0.186036,-0.0262 0.08406,-0.0262 0.143316,-0.0758 0.06063,-0.0496 0.09233,-0.11989 0.03307,-0.0703 0.03307,-0.15847 0,-0.38723 -0.551215,-0.38723 H 21.53322 v -0.19155 h 0.155719 q 0.487825,0 0.487825,-0.3638 0,-0.33624 -0.37207,-0.33624 -0.209462,0 -0.392741,0.14056 v -0.21911 q 0.188791,-0.113 0.44924,-0.113 0.124024,0 0.224621,0.0344 0.100596,0.0345 0.172254,0.0965 0.07166,0.062 0.110243,0.14883 0.03996,0.0868 0.03996,0.19154 0,0.38999 -0.394118,0.50161 v 0.006 q 0.100596,0.011 0.186035,0.0496 0.08544,0.0372 0.14745,0.0978 0.06201,0.0606 0.09646,0.14332 0.03583,0.0813 0.03583,0.18052 z"
         style="fill:#ffe4b3;stroke-width:0.26458332"
         id="path6718"
         inkscape:connector-curvature="0" />
    </g>
    <g
       aria-label="4"
       style="font-style:normal;font-variant:normal;font-weight:normal;font-stretch:normal;font-size:2.82222223px;line-height:1.25;font-family:'Yu Gothic UI';-inkscape-font-specification:'Yu Gothic UI';letter-spacing:0px;word-spacing:0px;fill:#ffe4b3;fill-opacity:1;stroke:none;stroke-width:0.26458332"
       id="text6685"
       transform="translate(-2.0468283,-5.1055711)">
      <path
         d="m 22.337999,242.10721 v 1.305 h 0.253559 v 0.2067 h -0.253559 v 0.4644 h -0.223243 v -0.4644 h -0.928797 v -0.19568 q 0.129535,-0.14607 0.261827,-0.31143 0.132291,-0.16675 0.252181,-0.33762 0.121267,-0.17088 0.223242,-0.34038 0.103353,-0.17088 0.173633,-0.32659 z m -0.897103,1.305 h 0.67386 v -0.96738 q -0.103353,0.18052 -0.195681,0.32246 -0.09233,0.14193 -0.176389,0.25769 -0.08268,0.11575 -0.158474,0.20946 -0.07579,0.0937 -0.143316,0.17777 z"
         style="fill:#ffe4b3;stroke-width:0.26458332"
         id="path6715"
         inkscape:connector-curvature="0" />
    </g>
    <g
       aria-label="5"
       style="font-style:normal;font-variant:normal;font-weight:normal;font-stretch:normal;font-size:2.82222223px;line-height:1.25;font-family:'Yu Gothic UI';-inkscape-font-specification:'Yu Gothic UI';letter-spacing:0px;word-spacing:0px;fill:#ffe4b3;fill-opacity:1;stroke:none;stroke-width:0.26458332"
       id="text6689"
       transform="translate(-2.167399,-0.61880643)">
      <path
         d="m 22.501985,250.09433 q 0,0.14469 -0.04961,0.26182 -0.04961,0.11714 -0.141938,0.2012 -0.09095,0.0841 -0.220486,0.12953 -0.129536,0.0455 -0.28801,0.0455 -0.275608,0 -0.409278,-0.0827 v -0.23978 q 0.201194,0.12953 0.412034,0.12953 0.107487,0 0.192925,-0.0317 0.08682,-0.0317 0.14745,-0.0882 0.06063,-0.0565 0.09233,-0.13642 0.03307,-0.0799 0.03307,-0.17501 0,-0.19293 -0.129536,-0.30179 -0.129536,-0.11025 -0.376204,-0.11025 -0.03996,0 -0.08406,0.001 -0.0441,0.001 -0.08819,0.004 -0.0441,10e-4 -0.08682,0.004 -0.04134,0.003 -0.07579,0.007 l 0.06752,-0.99081 h 0.91364 v 0.20395 h -0.717958 l -0.03996,0.58015 q 0.0441,-0.003 0.09371,-0.004 0.04961,-0.003 0.08819,-0.003 0.157096,0 0.281119,0.0413 0.124024,0.0414 0.209462,0.11852 0.08682,0.0758 0.130914,0.18741 0.04547,0.11024 0.04547,0.24805 z"
         style="fill:#ffe4b3;stroke-width:0.26458332"
         id="path6712"
         inkscape:connector-curvature="0" />
    </g>
    <g
       aria-label="6"
       style="font-style:normal;font-variant:normal;font-weight:normal;font-stretch:normal;font-size:2.82222223px;line-height:1.25;font-family:'Yu Gothic UI';-inkscape-font-specification:'Yu Gothic UI';letter-spacing:0px;word-spacing:0px;fill:#ffe4b3;fill-opacity:1;stroke:none;stroke-width:0.26458332"
       id="text6693"
       transform="translate(-3.4903184,-0.07512741)">
      <path
         d="m 23.897939,260.65424 q 0,0.1447 -0.04685,0.26596 -0.04685,0.12127 -0.129536,0.20947 -0.08268,0.0882 -0.197059,0.1378 -0.114378,0.0482 -0.248047,0.0482 -0.148828,0 -0.26734,-0.062 -0.117133,-0.062 -0.199815,-0.17777 -0.0813,-0.11713 -0.124024,-0.28525 -0.04272,-0.16812 -0.04272,-0.37896 0,-0.2577 0.0565,-0.46716 0.05788,-0.21084 0.162608,-0.35967 0.106109,-0.1502 0.254937,-0.23151 0.148828,-0.0813 0.332108,-0.0813 0.203949,0 0.327973,0.0565 v 0.2136 q -0.152963,-0.0786 -0.322461,-0.0786 -0.132292,0 -0.238401,0.0593 -0.106109,0.0593 -0.181901,0.16812 -0.07579,0.10749 -0.117133,0.26045 -0.03996,0.15297 -0.03996,0.34038 h 0.0055 q 0.136426,-0.24667 0.450618,-0.24667 0.129536,0 0.232889,0.0441 0.104731,0.0441 0.177767,0.1254 0.07441,0.0799 0.114377,0.19155 0.03996,0.11162 0.03996,0.24804 z m -0.23151,0.0289 q 0,-0.10335 -0.02618,-0.18603 -0.02618,-0.0827 -0.07579,-0.14056 -0.04823,-0.0579 -0.11989,-0.0882 -0.07166,-0.0317 -0.162608,-0.0317 -0.08406,0 -0.155718,0.0317 -0.07166,0.0317 -0.124024,0.0868 -0.05236,0.0537 -0.08268,0.12678 -0.02894,0.0717 -0.02894,0.15296 0,0.10197 0.02894,0.19155 0.02894,0.0882 0.0813,0.15434 0.05237,0.0661 0.124024,0.10473 0.07304,0.0372 0.16123,0.0372 0.08544,0 0.155718,-0.0317 0.07028,-0.0331 0.11989,-0.0909 0.04961,-0.0579 0.07717,-0.1378 0.02756,-0.0813 0.02756,-0.17915 z"
         style="fill:#ffe4b3;stroke-width:0.26458332"
         id="path6709"
         inkscape:connector-curvature="0" />
    </g>
    <g
       aria-label="7"
       style="font-style:normal;font-variant:normal;font-weight:normal;font-stretch:normal;font-size:2.82222223px;line-height:1.25;font-family:'Yu Gothic UI';-inkscape-font-specification:'Yu Gothic UI';letter-spacing:0px;word-spacing:0px;fill:#ffe4b3;fill-opacity:1;stroke:none;stroke-width:0.26458332"
       id="text6697"
       transform="translate(-2.1501745,3.099873)">
      <path
         d="m 22.558485,267.37356 q -0.04548,0.0786 -0.110243,0.19568 -0.06339,0.11713 -0.135048,0.2632 -0.07166,0.14608 -0.146072,0.3142 -0.07441,0.16812 -0.139182,0.34726 -0.06477,0.17915 -0.114377,0.3638 -0.04823,0.18328 -0.07028,0.36105 h -0.242535 q 0.02481,-0.17639 0.07579,-0.35967 0.05237,-0.18466 0.117133,-0.36104 0.06615,-0.17777 0.139182,-0.34176 0.07304,-0.16398 0.141938,-0.30179 0.0689,-0.1378 0.125402,-0.24253 0.05788,-0.10611 0.09233,-0.16537 h -0.990809 v -0.20395 h 1.256771 z"
         style="fill:#ffe4b3;stroke-width:0.26458332"
         id="path6706"
         inkscape:connector-curvature="0" />
    </g>
    <g
       aria-label="8"
       style="font-style:normal;font-variant:normal;font-weight:normal;font-stretch:normal;font-size:2.82222223px;line-height:1.25;font-family:'Yu Gothic UI';-inkscape-font-specification:'Yu Gothic UI';letter-spacing:0px;word-spacing:0px;fill:#ffe4b3;fill-opacity:1;stroke:none;stroke-width:0.26458332"
       id="text6701"
       transform="translate(-2.1515585,6.2748729)">
      <path
         d="m 21.290689,276.60503 q 0,-0.0785 0.02481,-0.15709 0.02481,-0.0799 0.07028,-0.14883 0.04685,-0.0689 0.114377,-0.1254 0.0689,-0.0565 0.155719,-0.0896 -0.128158,-0.0717 -0.20395,-0.18328 -0.07579,-0.113 -0.07579,-0.24943 0,-0.10886 0.04134,-0.20119 0.04272,-0.0923 0.117133,-0.15985 0.07441,-0.0675 0.176389,-0.10473 0.101975,-0.0386 0.220486,-0.0386 0.11989,0 0.221864,0.0386 0.101975,0.0386 0.176389,0.1061 0.07441,0.0675 0.115755,0.15986 0.04134,0.0923 0.04134,0.19981 0,0.13643 -0.07579,0.24943 -0.07579,0.11162 -0.201194,0.18328 0.08544,0.0331 0.152962,0.0896 0.06752,0.0565 0.112999,0.1254 0.04685,0.0689 0.07166,0.14883 0.02481,0.0786 0.02481,0.15709 0,0.12954 -0.04685,0.23703 -0.04685,0.10748 -0.132292,0.18465 -0.08406,0.0758 -0.202572,0.11852 -0.117133,0.0427 -0.259071,0.0427 -0.14056,0 -0.257693,-0.0427 -0.117133,-0.0427 -0.202572,-0.11852 -0.08544,-0.0772 -0.133669,-0.18465 -0.04685,-0.10749 -0.04685,-0.23703 z m 0.245291,-0.0193 q 0,0.0923 0.02756,0.16674 0.02894,0.0744 0.07993,0.12678 0.05237,0.0524 0.125402,0.0813 0.07441,0.0276 0.163986,0.0276 0.08682,0 0.159853,-0.0289 0.07304,-0.0289 0.125401,-0.0813 0.05374,-0.0524 0.08268,-0.12678 0.03032,-0.0744 0.03032,-0.16537 0,-0.0827 -0.02894,-0.15434 -0.02756,-0.073 -0.07993,-0.12816 -0.05236,-0.0551 -0.125401,-0.0868 -0.07304,-0.0317 -0.163987,-0.0317 -0.08544,0 -0.158474,0.0303 -0.07166,0.0289 -0.125402,0.0827 -0.05237,0.0524 -0.08268,0.12678 -0.03032,0.073 -0.03032,0.16123 z m 0.07028,-0.91639 q 0,0.0703 0.02481,0.13091 0.02618,0.0593 0.07028,0.10473 0.04547,0.0441 0.104731,0.0703 0.05926,0.0248 0.126779,0.0248 0.06752,0 0.12678,-0.0262 0.06063,-0.0262 0.104731,-0.0703 0.0441,-0.0455 0.07028,-0.10473 0.02618,-0.0606 0.02618,-0.12953 0,-0.0717 -0.02618,-0.13229 -0.02481,-0.0606 -0.0689,-0.10474 -0.0441,-0.0441 -0.104731,-0.0689 -0.05926,-0.0262 -0.128158,-0.0262 -0.07304,0 -0.133669,0.0262 -0.05926,0.0262 -0.103353,0.0717 -0.04272,0.0441 -0.06615,0.10473 -0.02343,0.0606 -0.02343,0.12954 z"
         style="fill:#ffe4b3;stroke-width:0.26458332"
         id="path6703"
         inkscape:connector-curvature="0" />
    </g>
    <g
       aria-label="128-BIT STATIC SHIFT REGISTER"
       style="font-style:normal;font-variant:normal;font-weight:normal;font-stretch:normal;font-size:2.11666656px;line-height:1.25;font-family:'Yu Gothic UI';-inkscape-font-specification:'Yu Gothic UI';letter-spacing:0px;word-spacing:0px;fill:#ffe4b3;fill-opacity:1;stroke:none;stroke-width:0.26458332"
       id="text1005">
      <path
         d="M 1.7445969,202.28999 H 1.5750982 v -1.28054 q -0.019637,0.0196 -0.057878,0.0455 -0.037207,0.0248 -0.084749,0.0496 -0.046509,0.0248 -0.099219,0.0465 -0.051676,0.0217 -0.1012858,0.0341 v -0.17156 q 0.055811,-0.0155 0.1178223,-0.0413 0.063045,-0.0269 0.1229899,-0.0589 0.060978,-0.0331 0.1147217,-0.0682 0.053743,-0.0362 0.093017,-0.0703 h 0.064079 z"
         style="font-size:2.11666656px;fill:#ffe4b3;stroke-width:0.26458332"
         id="path1007"
         inkscape:connector-curvature="0" />
      <path
         d="m 2.9352218,201.19652 q 0,-0.0682 -0.021704,-0.11886 -0.020671,-0.0506 -0.057878,-0.0837 -0.036173,-0.0341 -0.085783,-0.0506 -0.049609,-0.0165 -0.1074869,-0.0165 -0.049609,0 -0.097152,0.0134 -0.047542,0.0134 -0.093018,0.0372 -0.044442,0.0238 -0.086816,0.0568 -0.041341,0.0331 -0.077515,0.0734 v -0.1819 q 0.071313,-0.0692 0.1591634,-0.10542 0.088883,-0.0372 0.2160074,-0.0372 0.090951,0 0.1684652,0.0269 0.077515,0.0258 0.1343587,0.0765 0.056844,0.0506 0.088884,0.12506 0.033073,0.0744 0.033073,0.17053 0,0.0879 -0.020671,0.15916 -0.019637,0.0713 -0.060978,0.13436 -0.040308,0.0631 -0.1023193,0.12093 -0.062012,0.0579 -0.1457275,0.11782 -0.1043864,0.0744 -0.1725993,0.12712 -0.067179,0.0527 -0.107487,0.0992 -0.039274,0.0455 -0.055811,0.092 -0.015503,0.0455 -0.015503,0.10542 H 3.164664 v 0.15193 H 2.2499924 v -0.0734 q 0,-0.0951 0.020671,-0.16743 0.020671,-0.0724 0.068213,-0.13746 0.047542,-0.0651 0.1240235,-0.13022 0.077515,-0.0651 0.1891357,-0.14676 0.080615,-0.0579 0.1343587,-0.11059 0.054777,-0.0527 0.08785,-0.10542 0.033073,-0.0527 0.046509,-0.10645 0.014469,-0.0548 0.014469,-0.11576 z"
         style="font-size:2.11666656px;fill:#ffe4b3;stroke-width:0.26458332"
         id="path1009"
         inkscape:connector-curvature="0" />
      <path
         d="m 3.3713708,201.87658 q 0,-0.0589 0.018604,-0.11782 0.018604,-0.0599 0.05271,-0.11162 0.03514,-0.0517 0.085783,-0.0941 0.051676,-0.0424 0.1167887,-0.0672 -0.096118,-0.0537 -0.1529622,-0.13746 -0.056844,-0.0848 -0.056844,-0.18707 0,-0.0816 0.031006,-0.1509 0.032039,-0.0692 0.08785,-0.11988 0.055811,-0.0507 0.1322917,-0.0786 0.076481,-0.0289 0.1653645,-0.0289 0.089917,0 0.1663981,0.0289 0.076481,0.0289 0.1322917,0.0796 0.05581,0.0506 0.086816,0.11989 0.031006,0.0692 0.031006,0.14986 0,0.10232 -0.056844,0.18707 -0.056844,0.0837 -0.1508952,0.13746 0.064079,0.0248 0.1147217,0.0672 0.050643,0.0424 0.084749,0.0941 0.03514,0.0517 0.053743,0.11162 0.018604,0.0589 0.018604,0.11782 0,0.0971 -0.03514,0.17777 -0.03514,0.0806 -0.099219,0.13849 -0.063045,0.0568 -0.1519287,0.0889 -0.08785,0.032 -0.1943034,0.032 -0.1054199,0 -0.1932698,-0.032 -0.08785,-0.032 -0.1519287,-0.0889 -0.064079,-0.0579 -0.1002523,-0.13849 -0.03514,-0.0806 -0.03514,-0.17777 z m 0.1839681,-0.0145 q 0,0.0693 0.020671,0.12506 0.021704,0.0558 0.059945,0.0951 0.039274,0.0393 0.094051,0.061 0.05581,0.0207 0.1229899,0.0207 0.065112,0 0.1198893,-0.0217 0.054777,-0.0217 0.094051,-0.061 0.040308,-0.0393 0.062012,-0.0951 0.022738,-0.0558 0.022738,-0.12403 0,-0.062 -0.021704,-0.11575 -0.020671,-0.0548 -0.059945,-0.0961 -0.039274,-0.0413 -0.094051,-0.0651 -0.054777,-0.0238 -0.1229899,-0.0238 -0.064079,0 -0.1188558,0.0227 -0.053743,0.0217 -0.094051,0.062 -0.039274,0.0393 -0.062012,0.0951 -0.022738,0.0548 -0.022738,0.12092 z m 0.05271,-0.68729 q 0,0.0527 0.018604,0.0982 0.019637,0.0444 0.05271,0.0786 0.034106,0.0331 0.078548,0.0527 0.044442,0.0186 0.095085,0.0186 0.050643,0 0.095085,-0.0196 0.045475,-0.0196 0.078548,-0.0527 0.033073,-0.0341 0.05271,-0.0785 0.019637,-0.0455 0.019637,-0.0971 0,-0.0538 -0.019637,-0.0992 -0.018603,-0.0455 -0.051676,-0.0786 -0.033073,-0.0331 -0.078548,-0.0517 -0.044442,-0.0196 -0.096118,-0.0196 -0.054777,0 -0.1002523,0.0196 -0.044442,0.0196 -0.077515,0.0538 -0.032039,0.0331 -0.049609,0.0785 -0.01757,0.0455 -0.01757,0.0972 z"
         style="font-size:2.11666656px;fill:#ffe4b3;stroke-width:0.26458332"
         id="path1011"
         inkscape:connector-curvature="0" />
      <path
         d="M 5.1325035,201.76703 H 4.5681969 v -0.13333 h 0.5643066 z"
         style="font-size:2.11666656px;fill:#ffe4b3;stroke-width:0.26458332"
         id="path1013"
         inkscape:connector-curvature="0" />
      <path
         d="m 5.4611658,202.28999 v -1.48208 h 0.4216797 q 0.1922363,0 0.3048909,0.0941 0.1126546,0.0941 0.1126546,0.24495 0,0.12609 -0.068213,0.21911 -0.068213,0.093 -0.1881022,0.13229 v 0.004 q 0.1498616,0.0176 0.2397786,0.11369 0.089917,0.0951 0.089917,0.24805 0,0.19017 -0.1364258,0.30799 -0.1364258,0.11782 -0.344165,0.11782 z m 0.1736328,-1.32498 v 0.47852 h 0.1777669 q 0.142627,0 0.2242758,-0.0682 0.081649,-0.0692 0.081649,-0.1943 0,-0.21601 -0.2842204,-0.21601 z m 0,0.63459 v 0.5333 h 0.2356445 q 0.1529623,0 0.2366781,-0.0724 0.084749,-0.0724 0.084749,-0.19844 0,-0.26251 -0.3576009,-0.26251 z"
         style="font-size:2.11666656px;fill:#ffe4b3;stroke-width:0.26458332"
         id="path1015"
         inkscape:connector-curvature="0" />
      <path
         d="M 6.8502279,202.28999 H 6.6765951 v -1.48208 h 0.1736328 z"
         style="font-size:2.11666656px;fill:#ffe4b3;stroke-width:0.26458332"
         id="path1017"
         inkscape:connector-curvature="0" />
      <path
         d="M 8.115267,200.96501 H 7.6873862 v 1.32498 H 7.5137534 v -1.32498 H 7.0869061 v -0.1571 H 8.115267 Z"
         style="font-size:2.11666656px;fill:#ffe4b3;stroke-width:0.26458332"
         id="path1019"
         inkscape:connector-curvature="0" />
      <path
         d="m 8.8563073,202.23005 v -0.20464 q 0.03514,0.031 0.083716,0.0558 0.049609,0.0248 0.1033529,0.0424 0.054777,0.0165 0.109554,0.0258 0.054777,0.009 0.1012858,0.009 0.1601969,0 0.2387451,-0.0589 0.079582,-0.0599 0.079582,-0.17156 0,-0.0599 -0.026872,-0.10439 -0.025838,-0.0444 -0.072347,-0.0806 -0.046509,-0.0372 -0.1105876,-0.0703 -0.063045,-0.0341 -0.1364258,-0.0713 -0.077515,-0.0393 -0.144694,-0.0796 -0.067179,-0.0403 -0.1167887,-0.0889 -0.049609,-0.0486 -0.078548,-0.10956 -0.027905,-0.062 -0.027905,-0.14469 0,-0.10129 0.044442,-0.1757 0.044442,-0.0755 0.1167887,-0.12402 0.072347,-0.0486 0.1643311,-0.0724 0.093018,-0.0238 0.1891357,-0.0238 0.2191081,0 0.3193603,0.0527 v 0.19534 q -0.1312581,-0.091 -0.3369303,-0.091 -0.056844,0 -0.1136881,0.0124 -0.056844,0.0114 -0.1012858,0.0382 -0.044442,0.0269 -0.072347,0.0692 -0.027905,0.0424 -0.027905,0.10336 0,0.0568 0.020671,0.0982 0.021704,0.0413 0.063045,0.0754 0.041341,0.0341 0.1002523,0.0662 0.059945,0.032 0.1374593,0.0703 0.079582,0.0393 0.1508952,0.0827 0.071313,0.0434 0.1250569,0.0961 0.053744,0.0527 0.084749,0.11678 0.032039,0.0641 0.032039,0.14677 0,0.10955 -0.043408,0.18603 -0.042375,0.0754 -0.1157553,0.12299 -0.072347,0.0475 -0.1674316,0.0682 -0.095085,0.0217 -0.2005045,0.0217 -0.03514,0 -0.086816,-0.006 -0.051676,-0.005 -0.1054199,-0.0165 -0.053744,-0.0103 -0.1023194,-0.0258 -0.047542,-0.0165 -0.076481,-0.0362 z"
         style="font-size:2.11666656px;fill:#ffe4b3;stroke-width:0.26458332"
         id="path1021"
         inkscape:connector-curvature="0" />
      <path
         d="m 10.905794,200.96501 h -0.42788 v 1.32498 h -0.173633 v -1.32498 H 9.8774334 v -0.1571 h 1.0283606 z"
         style="font-size:2.11666656px;fill:#ffe4b3;stroke-width:0.26458332"
         id="path1023"
         inkscape:connector-curvature="0" />
      <path
         d="m 12.210107,202.28999 h -0.192236 l -0.157096,-0.41548 h -0.628386 l -0.147794,0.41548 h -0.19327 l 0.56844,-1.48208 h 0.179834 z m -0.406177,-0.57154 -0.232543,-0.63148 q -0.01137,-0.031 -0.02274,-0.0992 h -0.0041 q -0.01034,0.063 -0.02377,0.0992 l -0.230477,0.63148 z"
         style="font-size:2.11666656px;fill:#ffe4b3;stroke-width:0.26458332"
         id="path1025"
         inkscape:connector-curvature="0" />
      <path
         d="m 13.229166,200.96501 h -0.427881 v 1.32498 h -0.173632 v -1.32498 h -0.426848 v -0.1571 h 1.028361 z"
         style="font-size:2.11666656px;fill:#ffe4b3;stroke-width:0.26458332"
         id="path1027"
         inkscape:connector-curvature="0" />
      <path
         d="m 13.634309,202.28999 h -0.173632 v -1.48208 h 0.173632 z"
         style="font-size:2.11666656px;fill:#ffe4b3;stroke-width:0.26458332"
         id="path1029"
         inkscape:connector-curvature="0" />
      <path
         d="m 15.03164,202.22798 q -0.164331,0.0868 -0.409277,0.0868 -0.31626,0 -0.506429,-0.20361 -0.190169,-0.2036 -0.190169,-0.53433 0,-0.35554 0.21394,-0.57464 0.21394,-0.21911 0.542602,-0.21911 0.21084,0 0.349333,0.061 v 0.185 q -0.159163,-0.0889 -0.3514,-0.0889 -0.255281,0 -0.414445,0.17054 -0.158129,0.17053 -0.158129,0.45578 0,0.27079 0.147794,0.43202 0.148828,0.1602 0.38964,0.1602 0.223243,0 0.38654,-0.0992 z"
         style="font-size:2.11666656px;fill:#ffe4b3;stroke-width:0.26458332"
         id="path1031"
         inkscape:connector-curvature="0" />
      <path
         d="m 15.842961,202.23005 v -0.20464 q 0.03514,0.031 0.08371,0.0558 0.04961,0.0248 0.103353,0.0424 0.05478,0.0165 0.109554,0.0258 0.05478,0.009 0.101286,0.009 0.160197,0 0.238745,-0.0589 0.07958,-0.0599 0.07958,-0.17156 0,-0.0599 -0.02687,-0.10439 -0.02584,-0.0444 -0.07235,-0.0806 -0.04651,-0.0372 -0.110587,-0.0703 -0.06305,-0.0341 -0.136426,-0.0713 -0.07751,-0.0393 -0.144694,-0.0796 -0.06718,-0.0403 -0.116789,-0.0889 -0.04961,-0.0486 -0.07855,-0.10956 -0.02791,-0.062 -0.02791,-0.14469 0,-0.10129 0.04444,-0.1757 0.04444,-0.0755 0.116789,-0.12402 0.07235,-0.0486 0.164331,-0.0724 0.09302,-0.0238 0.189136,-0.0238 0.219108,0 0.31936,0.0527 v 0.19534 q -0.131258,-0.091 -0.33693,-0.091 -0.05684,0 -0.113688,0.0124 -0.05684,0.0114 -0.101286,0.0382 -0.04444,0.0269 -0.07235,0.0692 -0.02791,0.0424 -0.02791,0.10336 0,0.0568 0.02067,0.0982 0.0217,0.0413 0.06305,0.0754 0.04134,0.0341 0.100252,0.0662 0.05994,0.032 0.137459,0.0703 0.07958,0.0393 0.150895,0.0827 0.07131,0.0434 0.125057,0.0961 0.05374,0.0527 0.08475,0.11678 0.03204,0.0641 0.03204,0.14677 0,0.10955 -0.04341,0.18603 -0.04237,0.0754 -0.115755,0.12299 -0.07235,0.0475 -0.167432,0.0682 -0.09508,0.0217 -0.200505,0.0217 -0.03514,0 -0.08682,-0.006 -0.05168,-0.005 -0.10542,-0.0165 -0.05374,-0.0103 -0.102319,-0.0258 -0.04754,-0.0165 -0.07648,-0.0362 z"
         style="font-size:2.11666656px;fill:#ffe4b3;stroke-width:0.26458332"
         id="path1033"
         inkscape:connector-curvature="0" />
      <path
         d="m 18.150829,202.28999 h -0.173633 v -0.67592 h -0.766878 v 0.67592 h -0.173633 v -1.48208 h 0.173633 v 0.65009 h 0.766878 v -0.65009 h 0.173633 z"
         style="font-size:2.11666656px;fill:#ffe4b3;stroke-width:0.26458332"
         id="path1035"
         inkscape:connector-curvature="0" />
      <path
         d="m 18.715136,202.28999 h -0.173633 v -1.48208 h 0.173633 z"
         style="font-size:2.11666656px;fill:#ffe4b3;stroke-width:0.26458332"
         id="path1037"
         inkscape:connector-curvature="0" />
      <path
         d="m 19.856151,200.96501 h -0.578776 v 0.51263 h 0.535368 v 0.15606 h -0.535368 v 0.65629 h -0.173633 v -1.48208 h 0.752409 z"
         style="font-size:2.11666656px;fill:#ffe4b3;stroke-width:0.26458332"
         id="path1039"
         inkscape:connector-curvature="0" />
      <path
         d="m 21.013704,200.96501 h -0.427881 v 1.32498 H 20.41219 v -1.32498 h -0.426847 v -0.1571 h 1.028361 z"
         style="font-size:2.11666656px;fill:#ffe4b3;stroke-width:0.26458332"
         id="path1042"
         inkscape:connector-curvature="0" />
      <path
         d="m 22.886457,202.28999 h -0.206706 l -0.248047,-0.41548 q -0.03411,-0.0579 -0.06615,-0.0982 -0.03204,-0.0413 -0.06615,-0.0672 -0.03307,-0.0258 -0.07235,-0.0372 -0.03824,-0.0124 -0.08682,-0.0124 h -0.142627 v 0.63045 h -0.173633 v -1.48208 h 0.442351 q 0.09715,0 0.1788,0.0248 0.08268,0.0238 0.142627,0.0734 0.06098,0.0496 0.09509,0.12402 0.03411,0.0734 0.03411,0.1726 0,0.0775 -0.02377,0.14263 -0.02274,0.0641 -0.06615,0.11472 -0.04237,0.0506 -0.103353,0.0868 -0.05994,0.0351 -0.135392,0.0548 v 0.004 q 0.03721,0.0165 0.06408,0.0382 0.02791,0.0207 0.05271,0.0496 0.0248,0.0289 0.04857,0.0661 0.02481,0.0362 0.05478,0.0847 z m -0.888835,-1.32498 v 0.53743 h 0.235645 q 0.06511,0 0.119889,-0.0196 0.05581,-0.0196 0.09612,-0.0558 0.04031,-0.0372 0.06305,-0.0899 0.02274,-0.0537 0.02274,-0.11989 0,-0.11886 -0.07751,-0.185 -0.07648,-0.0672 -0.222208,-0.0672 z"
         style="font-size:2.11666656px;fill:#ffe4b3;stroke-width:0.26458332"
         id="path1044"
         inkscape:connector-curvature="0" />
      <path
         d="m 23.87451,202.28999 h -0.785481 v -1.48208 h 0.752409 v 0.1571 h -0.578776 v 0.49299 h 0.535367 v 0.15607 h -0.535367 v 0.51883 h 0.611848 z"
         style="font-size:2.11666656px;fill:#ffe4b3;stroke-width:0.26458332"
         id="path1046"
         inkscape:connector-curvature="0" />
      <path
         d="m 25.267707,202.18871 q -0.223242,0.12609 -0.496093,0.12609 -0.317294,0 -0.513664,-0.20464 -0.195337,-0.20464 -0.195337,-0.54157 0,-0.34416 0.217041,-0.56431 0.218075,-0.22117 0.551904,-0.22117 0.241846,0 0.406177,0.0786 v 0.19223 q -0.179834,-0.11369 -0.425814,-0.11369 -0.24908,0 -0.408244,0.17157 -0.159163,0.17157 -0.159163,0.44442 0,0.28112 0.147795,0.44235 0.147794,0.1602 0.401009,0.1602 0.173633,0 0.300757,-0.0692 v -0.41548 h -0.324528 v -0.1571 h 0.49816 z"
         style="font-size:2.11666656px;fill:#ffe4b3;stroke-width:0.26458332"
         id="path1048"
         inkscape:connector-curvature="0" />
      <path
         d="m 25.784472,202.28999 h -0.173633 v -1.48208 h 0.173633 z"
         style="font-size:2.11666656px;fill:#ffe4b3;stroke-width:0.26458332"
         id="path1050"
         inkscape:connector-curvature="0" />
      <path
         d="m 26.103832,202.23005 v -0.20464 q 0.03514,0.031 0.08371,0.0558 0.04961,0.0248 0.103353,0.0424 0.05478,0.0165 0.109554,0.0258 0.05478,0.009 0.101286,0.009 0.160197,0 0.238745,-0.0589 0.07958,-0.0599 0.07958,-0.17156 0,-0.0599 -0.02687,-0.10439 -0.02584,-0.0444 -0.07235,-0.0806 -0.04651,-0.0372 -0.110587,-0.0703 -0.06305,-0.0341 -0.136426,-0.0713 -0.07752,-0.0393 -0.144694,-0.0796 -0.06718,-0.0403 -0.116789,-0.0889 -0.04961,-0.0486 -0.07855,-0.10956 -0.02791,-0.062 -0.02791,-0.14469 0,-0.10129 0.04444,-0.1757 0.04444,-0.0755 0.116789,-0.12402 0.07235,-0.0486 0.164331,-0.0724 0.09302,-0.0238 0.189136,-0.0238 0.219108,0 0.31936,0.0527 v 0.19534 q -0.131258,-0.091 -0.33693,-0.091 -0.05684,0 -0.113688,0.0124 -0.05684,0.0114 -0.101286,0.0382 -0.04444,0.0269 -0.07235,0.0692 -0.02791,0.0424 -0.02791,0.10336 0,0.0568 0.02067,0.0982 0.0217,0.0413 0.06304,0.0754 0.04134,0.0341 0.100253,0.0662 0.05994,0.032 0.137459,0.0703 0.07958,0.0393 0.150895,0.0827 0.07131,0.0434 0.125057,0.0961 0.05374,0.0527 0.08475,0.11678 0.03204,0.0641 0.03204,0.14677 0,0.10955 -0.04341,0.18603 -0.04237,0.0754 -0.115755,0.12299 -0.07235,0.0475 -0.167432,0.0682 -0.09509,0.0217 -0.200505,0.0217 -0.03514,0 -0.08682,-0.006 -0.05168,-0.005 -0.10542,-0.0165 -0.05374,-0.0103 -0.102319,-0.0258 -0.04754,-0.0165 -0.07648,-0.0362 z"
         style="font-size:2.11666656px;fill:#ffe4b3;stroke-width:0.26458332"
         id="path1052"
         inkscape:connector-curvature="0" />
      <path
         d="m 28.15332,200.96501 h -0.427881 v 1.32498 h -0.173633 v -1.32498 h -0.426847 v -0.1571 h 1.028361 z"
         style="font-size:2.11666656px;fill:#ffe4b3;stroke-width:0.26458332"
         id="path1054"
         inkscape:connector-curvature="0" />
      <path
         d="M 29.170312,202.28999 H 28.38483 v -1.48208 h 0.752409 v 0.1571 h -0.578776 v 0.49299 h 0.535368 v 0.15607 h -0.535368 v 0.51883 h 0.611849 z"
         style="font-size:2.11666656px;fill:#ffe4b3;stroke-width:0.26458332"
         id="path1056"
         inkscape:connector-curvature="0" />
      <path
         d="m 30.518033,202.28999 h -0.206705 l -0.248047,-0.41548 q -0.03411,-0.0579 -0.06615,-0.0982 -0.03204,-0.0413 -0.06615,-0.0672 -0.03307,-0.0258 -0.07235,-0.0372 -0.03824,-0.0124 -0.08682,-0.0124 h -0.142627 v 0.63045 h -0.173633 v -1.48208 h 0.44235 q 0.09715,0 0.178801,0.0248 0.08268,0.0238 0.142626,0.0734 0.06098,0.0496 0.09509,0.12402 0.03411,0.0734 0.03411,0.1726 0,0.0775 -0.02377,0.14263 -0.02274,0.0641 -0.06615,0.11472 -0.04237,0.0506 -0.103353,0.0868 -0.05994,0.0351 -0.135393,0.0548 v 0.004 q 0.03721,0.0165 0.06408,0.0382 0.02791,0.0207 0.05271,0.0496 0.02481,0.0289 0.04858,0.0661 0.02481,0.0362 0.05478,0.0847 z m -0.888834,-1.32498 v 0.53743 h 0.235644 q 0.06511,0 0.119889,-0.0196 0.05581,-0.0196 0.09612,-0.0558 0.04031,-0.0372 0.06305,-0.0899 0.02274,-0.0537 0.02274,-0.11989 0,-0.11886 -0.07751,-0.185 -0.07648,-0.0672 -0.222209,-0.0672 z"
         style="font-size:2.11666656px;fill:#ffe4b3;stroke-width:0.26458332"
         id="path1058"
         inkscape:connector-curvature="0" />
    </g>
    <g
       aria-label="DATA"
       style="font-style:normal;font-variant:normal;font-weight:normal;font-stretch:normal;font-size:2.82222223px;line-height:1.25;font-family:'Yu Gothic UI';-inkscape-font-specification:'Yu Gothic UI';letter-spacing:0px;word-spacing:0px;fill:#ffe4b3;fill-opacity:1;stroke:none;stroke-width:0.26458332"
       id="text1063"
       transform="translate(-0.89434728,41.555652)">
      <path
         d="m 5.5507377,217.62498 v -1.9761 h 0.5457031 q 1.044553,0 1.044553,0.96325 0,0.45751 -0.2907661,0.73587 -0.289388,0.27698 -0.7758355,0.27698 z m 0.2315104,-1.76664 v 1.55718 h 0.2949002 q 0.3886068,0 0.6049588,-0.20808 0.2163519,-0.20808 0.2163519,-0.5898 0,-0.7593 -0.8075303,-0.7593 z"
         style="fill:#ffe4b3;stroke-width:0.26458332"
         id="path1069"
         inkscape:connector-curvature="0" />
      <path
         d="M 9.0151257,217.62498 H 8.7588106 L 8.5493488,217.07101 H 7.7115015 l -0.1970594,0.55397 H 7.2567489 l 0.757921,-1.9761 h 0.2397787 z m -0.541569,-0.76205 -0.3100586,-0.84198 q -0.015159,-0.0413 -0.030317,-0.13229 h -0.00551 q -0.01378,0.0841 -0.031695,0.13229 l -0.3073025,0.84198 z"
         style="fill:#ffe4b3;stroke-width:0.26458332"
         id="path1071"
         inkscape:connector-curvature="0" />
      <path
         d="M 10.373871,215.85834 H 9.8033635 v 1.76664 H 9.5718531 v -1.76664 H 9.0027233 v -0.20946 h 1.3711477 z"
         style="fill:#ffe4b3;stroke-width:0.26458332"
         id="path1073"
         inkscape:connector-curvature="0" />
      <path
         d="m 12.112956,217.62498 h -0.256315 l -0.209462,-0.55397 h -0.837847 l -0.19706,0.55397 h -0.257693 l 0.757921,-1.9761 h 0.239779 z m -0.541569,-0.76205 -0.310059,-0.84198 q -0.01516,-0.0413 -0.03032,-0.13229 h -0.0055 q -0.01378,0.0841 -0.03169,0.13229 l -0.307302,0.84198 z"
         style="fill:#ffe4b3;stroke-width:0.26458332"
         id="path1075"
         inkscape:connector-curvature="0" />
    </g>
    <g
       aria-label="CLOCK"
       style="font-style:normal;font-variant:normal;font-weight:normal;font-stretch:normal;font-size:2.82222223px;line-height:1.25;font-family:'Yu Gothic UI';-inkscape-font-specification:'Yu Gothic UI';letter-spacing:0px;word-spacing:0px;fill:#ffe4b3;fill-opacity:1;stroke:none;stroke-width:0.26458332"
       id="text1067"
       transform="translate(-1.6977435,-1.0115616)">
      <path
         d="m 6.895703,226.80272 q -0.2191081,0.11576 -0.5457032,0.11576 -0.4216796,0 -0.6752387,-0.27147 -0.253559,-0.27148 -0.253559,-0.71245 0,-0.47405 0.2852539,-0.76619 0.2852539,-0.29214 0.7234701,-0.29214 0.2811198,0 0.4657769,0.0813 v 0.24667 q -0.2122179,-0.11851 -0.468533,-0.11851 -0.3403755,0 -0.5525933,0.22737 -0.2108399,0.22738 -0.2108399,0.60772 0,0.36105 0.1970595,0.57602 0.1984375,0.2136 0.5195204,0.2136 0.2976562,0 0.5153863,-0.1323 z"
         style="fill:#ffe4b3;stroke-width:0.26458332"
         id="path1078"
         inkscape:connector-curvature="0" />
      <path
         d="M 8.3233506,226.88541 H 7.2980902 v -1.97611 h 0.2315104 v 1.76664 h 0.79375 z"
         style="fill:#ffe4b3;stroke-width:0.26458332"
         id="path1080"
         inkscape:connector-curvature="0" />
      <path
         d="m 9.3954644,226.91848 q -0.4203016,0 -0.6738607,-0.27699 -0.252181,-0.27698 -0.252181,-0.72071 0,-0.4768 0.2576932,-0.76068 0.2576931,-0.28387 0.7014214,-0.28387 0.4092774,0 0.6587027,0.2756 0.250803,0.27561 0.250803,0.72072 0,0.48369 -0.256316,0.76481 -0.2563147,0.28112 -0.6862626,0.28112 z m 0.016537,-1.83279 q -0.3114367,0 -0.5057401,0.22462 -0.1943033,0.22462 -0.1943033,0.5898 0,0.36518 0.1887912,0.58842 0.1901693,0.22187 0.4947157,0.22187 0.325217,0 0.5126302,-0.21222 0.1874139,-0.21222 0.1874139,-0.59394 0,-0.39136 -0.1819017,-0.60496 -0.1819011,-0.21359 -0.5016059,-0.21359 z"
         style="fill:#ffe4b3;stroke-width:0.26458332"
         id="path1082"
         inkscape:connector-curvature="0" />
      <path
         d="m 12.071614,226.80272 q -0.219108,0.11576 -0.545703,0.11576 -0.421679,0 -0.675238,-0.27147 -0.253559,-0.27148 -0.253559,-0.71245 0,-0.47405 0.285253,-0.76619 0.285254,-0.29214 0.72347,-0.29214 0.28112,0 0.465777,0.0813 v 0.24667 q -0.212217,-0.11851 -0.468533,-0.11851 -0.340375,0 -0.552593,0.22737 -0.21084,0.22738 -0.21084,0.60772 0,0.36105 0.19706,0.57602 0.198437,0.2136 0.51952,0.2136 0.297656,0 0.515386,-0.1323 z"
         style="fill:#ffe4b3;stroke-width:0.26458332"
         id="path1084"
         inkscape:connector-curvature="0" />
      <path
         d="m 13.849284,226.88541 h -0.322461 l -0.763433,-0.904 q -0.04272,-0.051 -0.05237,-0.0689 h -0.0055 v 0.9729 h -0.23151 v -1.97611 h 0.23151 v 0.9288 h 0.0055 q 0.01929,-0.0303 0.05237,-0.0675 l 0.738628,-0.86127 h 0.28801 l -0.847493,0.94809 z"
         style="fill:#ffe4b3;stroke-width:0.26458332"
         id="path1086"
         inkscape:connector-curvature="0" />
    </g>
    <g
       aria-label="CD4562"
       style="font-style:normal;font-variant:normal;font-weight:600;font-stretch:normal;font-size:3.52777767px;line-height:1.25;font-family:'Yu Gothic UI';-inkscape-font-specification:'Yu Gothic UI Semi-Bold';letter-spacing:0px;word-spacing:0px;fill:#ffe4b3;fill-opacity:1;stroke:none;stroke-width:0.26458332"
       id="text1091"
       transform="translate(-11.565184,-0.39365602)">
      <path
         d="m 23.194105,200.32371 q -0.279053,0.14469 -0.694187,0.14469 -0.537435,0 -0.861274,-0.33934 -0.323839,-0.33934 -0.323839,-0.89055 0,-0.59256 0.363458,-0.95774 0.36518,-0.36518 0.921563,-0.36518 0.35829,0 0.594279,0.10163 v 0.40652 q -0.24977,-0.14814 -0.551216,-0.14814 -0.401353,0 -0.651123,0.25666 -0.248046,0.25666 -0.248046,0.68557 0,0.40825 0.232543,0.65113 0.232544,0.24115 0.611505,0.24115 0.349677,0 0.606337,-0.16536 z"
         style="font-style:normal;font-variant:normal;font-weight:600;font-stretch:normal;font-size:3.52777767px;font-family:'Yu Gothic UI';-inkscape-font-specification:'Yu Gothic UI Semi-Bold';fill:#ffe4b3;stroke-width:0.26458332"
         id="path1093"
         inkscape:connector-curvature="0" />
      <path
         d="m 23.662638,200.42706 v -2.47013 h 0.713134 q 1.365981,0 1.365981,1.20406 0,0.57189 -0.378961,0.91984 -0.37896,0.34623 -1.016303,0.34623 z m 0.408243,-2.12218 v 1.77595 h 0.327284 q 0.43236,0 0.671794,-0.23771 0.241157,-0.23771 0.241157,-0.67179 0,-0.86645 -0.897448,-0.86645 z"
         style="font-style:normal;font-variant:normal;font-weight:600;font-stretch:normal;font-size:3.52777767px;font-family:'Yu Gothic UI';-inkscape-font-specification:'Yu Gothic UI Semi-Bold';fill:#ffe4b3;stroke-width:0.26458332"
         id="path1095"
         inkscape:connector-curvature="0" />
      <path
         d="m 27.481526,197.95693 v 1.59508 h 0.366903 v 0.33245 h -0.366903 v 0.5426 h -0.387573 v -0.5426 h -1.117934 v -0.3359 q 0.151585,-0.17053 0.310059,-0.36862 0.160197,-0.19982 0.306614,-0.40652 0.148139,-0.20843 0.273885,-0.41686 0.125746,-0.20843 0.211873,-0.39963 z m -0.387573,1.59508 v -1.03697 q -0.187758,0.33761 -0.37207,0.58911 -0.18259,0.25149 -0.342787,0.44786 z"
         style="font-style:normal;font-variant:normal;font-weight:600;font-stretch:normal;font-size:3.52777767px;font-family:'Yu Gothic UI';-inkscape-font-specification:'Yu Gothic UI Semi-Bold';fill:#ffe4b3;stroke-width:0.26458332"
         id="path1097"
         inkscape:connector-curvature="0" />
      <path
         d="m 28.186048,200.37022 v -0.38413 q 0.242879,0.16364 0.492649,0.16364 0.251492,0 0.404798,-0.12747 0.153307,-0.12919 0.153307,-0.34278 0,-0.21015 -0.156752,-0.32729 -0.155029,-0.11713 -0.44614,-0.11713 -0.09991,0 -0.404798,0.0207 l 0.08785,-1.2988 h 1.216118 v 0.34106 h -0.883667 l -0.04134,0.6184 q 0.118856,-0.007 0.215319,-0.007 0.39274,0 0.606336,0.20154 0.215319,0.20153 0.215319,0.55121 0,0.3669 -0.246324,0.58911 -0.244602,0.22049 -0.673517,0.22049 -0.361735,0 -0.539157,-0.10163 z"
         style="font-style:normal;font-variant:normal;font-weight:600;font-stretch:normal;font-size:3.52777767px;font-family:'Yu Gothic UI';-inkscape-font-specification:'Yu Gothic UI Semi-Bold';fill:#ffe4b3;stroke-width:0.26458332"
         id="path1099"
         inkscape:connector-curvature="0" />
      <path
         d="m 31.71038,199.63297 q 0,0.18603 -0.06201,0.33934 -0.06029,0.15331 -0.168809,0.26527 -0.108521,0.11025 -0.258382,0.17226 -0.148139,0.0603 -0.322117,0.0603 -0.186035,0 -0.342787,-0.0724 -0.155029,-0.0724 -0.268717,-0.21532 -0.111966,-0.14297 -0.173978,-0.35484 -0.06201,-0.2136 -0.06201,-0.49437 0,-0.34279 0.08096,-0.60806 0.08268,-0.26528 0.225654,-0.44442 0.142972,-0.17915 0.335897,-0.27216 0.192925,-0.093 0.416857,-0.093 0.139526,0 0.253214,0.0189 0.115411,0.0189 0.184313,0.0517 v 0.36002 q -0.08785,-0.0448 -0.187758,-0.0758 -0.09991,-0.031 -0.229099,-0.031 -0.144694,0 -0.266995,0.0586 -0.122301,0.0586 -0.211873,0.17226 -0.08785,0.11196 -0.139526,0.27905 -0.04995,0.16537 -0.05168,0.38241 h 0.01034 q 0.07924,-0.1223 0.213596,-0.19293 0.136082,-0.0706 0.318672,-0.0706 0.161919,0 0.29111,0.0534 0.130914,0.0517 0.222209,0.15158 0.09302,0.0982 0.142971,0.24116 0.04995,0.14125 0.04995,0.31867 z m -0.403076,0.0327 q 0,-0.1068 -0.02584,-0.19465 -0.02412,-0.0879 -0.07579,-0.14986 -0.04995,-0.0637 -0.127469,-0.0982 -0.07579,-0.0345 -0.179145,-0.0345 -0.103353,0 -0.18259,0.0379 -0.07751,0.0362 -0.130913,0.0965 -0.0534,0.0603 -0.08096,0.1378 -0.02584,0.0775 -0.02584,0.15848 0,0.0879 0.02411,0.18087 0.02584,0.0913 0.07752,0.16708 0.05168,0.0758 0.130914,0.12575 0.08096,0.0482 0.191202,0.0482 0.09819,0 0.173978,-0.0362 0.07579,-0.0362 0.125746,-0.0999 0.05168,-0.0637 0.07751,-0.14986 0.02756,-0.0879 0.02756,-0.18948 z"
         style="font-style:normal;font-variant:normal;font-weight:600;font-stretch:normal;font-size:3.52777767px;font-family:'Yu Gothic UI';-inkscape-font-specification:'Yu Gothic UI Semi-Bold';fill:#ffe4b3;stroke-width:0.26458332"
         id="path1101"
         inkscape:connector-curvature="0" />
      <path
         d="m 33.565565,200.42706 h -1.550293 v -0.1912 q 0,-0.11713 0.03273,-0.21876 0.03273,-0.10336 0.08785,-0.19293 0.05512,-0.0913 0.129191,-0.17053 0.07407,-0.081 0.158475,-0.15503 0.08441,-0.0758 0.172254,-0.14469 0.08785,-0.0706 0.172255,-0.14125 0.07924,-0.0672 0.144694,-0.13092 0.06546,-0.0654 0.111966,-0.13436 0.04651,-0.0689 0.07235,-0.14469 0.02584,-0.0775 0.02584,-0.16709 0,-0.0982 -0.03101,-0.17053 -0.02928,-0.0741 -0.08441,-0.1223 -0.0534,-0.0499 -0.127468,-0.0741 -0.07407,-0.0258 -0.16192,-0.0258 -0.151584,0 -0.308336,0.0706 -0.156751,0.0706 -0.301446,0.21187 v -0.38413 q 0.07579,-0.0568 0.153307,-0.0982 0.07752,-0.0431 0.160197,-0.0706 0.08268,-0.0293 0.173977,-0.0431 0.0913,-0.0138 0.194648,-0.0138 0.167088,0 0.303169,0.0448 0.136081,0.0431 0.232544,0.1292 0.09646,0.0844 0.148139,0.21187 0.0534,0.12747 0.0534,0.29283 0,0.14986 -0.0379,0.27044 -0.03617,0.11886 -0.105076,0.22221 -0.06718,0.10335 -0.163642,0.19637 -0.09646,0.093 -0.215318,0.1912 -0.09991,0.081 -0.199816,0.15848 -0.09819,0.0758 -0.177422,0.14986 -0.07924,0.0724 -0.129191,0.14642 -0.04823,0.0723 -0.04823,0.14641 v 0.009 h 1.114489 z"
         style="font-style:normal;font-variant:normal;font-weight:600;font-stretch:normal;font-size:3.52777767px;font-family:'Yu Gothic UI';-inkscape-font-specification:'Yu Gothic UI Semi-Bold';fill:#ffe4b3;stroke-width:0.26458332"
         id="path1103"
         inkscape:connector-curvature="0" />
    </g>
  </g>
  <g
     inkscape:groupmode="layer"
     id="layer2"
     inkscape:label="Grid"
     style="display:none"
     sodipodi:insensitive="true">
    <path
       sodipodi:nodetypes="cc"
       inkscape:connector-curvature="0"
       id="path881"
       d="M 7.9375152,-9.3516667e-5 7.9375122,100.54176"
       style="fill:none;stroke:#ffe4b3;stroke-width:0.05;stroke-linecap:butt;stroke-linejoin:miter;stroke-miterlimit:4;stroke-dasharray:none;stroke-opacity:1" />
    <path
       style="fill:none;stroke:#ffe4b3;stroke-width:0.05;stroke-linecap:butt;stroke-linejoin:miter;stroke-miterlimit:4;stroke-dasharray:none;stroke-opacity:1"
       d="M 3.9687674,3.333209e-6 3.9687634,100.54167"
       id="path890"
       inkscape:connector-curvature="0"
       sodipodi:nodetypes="cc" />
    <path
       sodipodi:nodetypes="cc"
       inkscape:connector-curvature="0"
       id="path895"
       d="M 11.906268,3.333209e-6 11.906264,100.54167"
       style="fill:none;stroke:#ffe4b3;stroke-width:0.05;stroke-linecap:butt;stroke-linejoin:miter;stroke-miterlimit:4;stroke-dasharray:none;stroke-opacity:1" />
    <path
       style="fill:none;stroke:#ffe4b3;stroke-width:0.05;stroke-linecap:butt;stroke-linejoin:miter;stroke-miterlimit:4;stroke-dasharray:none;stroke-opacity:1"
       d="M 1.5433068e-5,11.386483 15.875015,11.377083"
       id="path905"
       inkscape:connector-curvature="0"
       sodipodi:nodetypes="cc" />
    <path
       inkscape:connector-curvature="0"
       id="path907"
       d="M 1.5433068e-5,22.499053 15.875015,22.489553"
       style="fill:none;stroke:#ffe4b3;stroke-width:0.05;stroke-linecap:butt;stroke-linejoin:miter;stroke-miterlimit:4;stroke-dasharray:none;stroke-opacity:1"
       sodipodi:nodetypes="cc" />
    <path
       style="fill:none;stroke:#ffe4b3;stroke-width:0.05;stroke-linecap:butt;stroke-linejoin:miter;stroke-miterlimit:4;stroke-dasharray:none;stroke-opacity:1"
       d="M 1.5433068e-5,33.611623 15.875015,33.602123"
       id="path911"
       inkscape:connector-curvature="0"
       sodipodi:nodetypes="cc" />
    <path
       inkscape:connector-curvature="0"
       id="path917"
       d="M 1.5433068e-5,44.724193 15.875015,44.714593"
       style="fill:none;stroke:#ffe4b3;stroke-width:0.05;stroke-linecap:butt;stroke-linejoin:miter;stroke-miterlimit:4;stroke-dasharray:none;stroke-opacity:1"
       sodipodi:nodetypes="cc" />
    <path
       style="fill:none;stroke:#ffe4b3;stroke-width:0.05;stroke-linecap:butt;stroke-linejoin:miter;stroke-miterlimit:4;stroke-dasharray:none;stroke-opacity:1"
       d="M 1.5433068e-5,55.836763 15.875015,55.827063"
       id="path925"
       inkscape:connector-curvature="0"
       sodipodi:nodetypes="cc" />
    <path
       inkscape:connector-curvature="0"
       id="path935"
       d="M 1.5433068e-5,66.949333 15.875015,66.939633"
       style="fill:none;stroke:#ffe4b3;stroke-width:0.05;stroke-linecap:butt;stroke-linejoin:miter;stroke-miterlimit:4;stroke-dasharray:none;stroke-opacity:1"
       sodipodi:nodetypes="cc" />
    <path
       style="fill:none;stroke:#ffe4b3;stroke-width:0.05;stroke-linecap:butt;stroke-linejoin:miter;stroke-miterlimit:4;stroke-dasharray:none;stroke-opacity:1"
       d="M 1.5433068e-5,78.061903 15.875015,78.052103"
       id="path947"
       inkscape:connector-curvature="0"
       sodipodi:nodetypes="cc" />
    <circle
       style="display:inline;opacity:1;fill:none;fill-opacity:1;stroke:#ffe4b3;stroke-width:0.05;stroke-linecap:square;stroke-linejoin:round;stroke-miterlimit:4;stroke-dasharray:none;stroke-dashoffset:0;stroke-opacity:1;paint-order:markers fill stroke"
       id="path1041"
       cx="7.9347796"
       cy="22.489223"
       r="4.0999999" />
    <circle
       r="4.0999999"
       cy="44.720119"
       cx="7.9347796"
       id="circle1054"
       style="display:inline;opacity:1;fill:none;fill-opacity:1;stroke:#ffe4b3;stroke-width:0.05;stroke-linecap:square;stroke-linejoin:round;stroke-miterlimit:4;stroke-dasharray:none;stroke-dashoffset:0;stroke-opacity:1;paint-order:markers fill stroke" />
    <circle
       style="display:inline;opacity:1;fill:none;fill-opacity:1;stroke:#ffe4b3;stroke-width:0.05;stroke-linecap:square;stroke-linejoin:round;stroke-miterlimit:4;stroke-dasharray:none;stroke-dashoffset:0;stroke-opacity:1;paint-order:markers fill stroke"
       id="circle1056"
       cx="7.9347796"
       cy="33.60759"
       r="4.0999999" />
    <circle
       r="4.0999999"
       cy="66.939285"
       cx="7.9347796"
       id="circle1058"
       style="display:inline;opacity:1;fill:none;fill-opacity:1;stroke:#ffe4b3;stroke-width:0.05;stroke-linecap:square;stroke-linejoin:round;stroke-miterlimit:4;stroke-dasharray:none;stroke-dashoffset:0;stroke-opacity:1;paint-order:markers fill stroke" />
    <circle
       style="display:inline;opacity:1;fill:none;fill-opacity:1;stroke:#ffe4b3;stroke-width:0.05;stroke-linecap:square;stroke-linejoin:round;stroke-miterlimit:4;stroke-dasharray:none;stroke-dashoffset:0;stroke-opacity:1;paint-order:markers fill stroke"
       id="circle1060"
       cx="7.9347796"
       cy="55.83263"
       r="4.0999999" />
    <circle
       r="4.0999999"
       cy="78.05764"
       cx="7.9347796"
       id="circle1064"
       style="display:inline;opacity:1;fill:none;fill-opacity:1;stroke:#ffe4b3;stroke-width:0.05;stroke-linecap:square;stroke-linejoin:round;stroke-miterlimit:4;stroke-dasharray:none;stroke-dashoffset:0;stroke-opacity:1;paint-order:markers fill stroke" />
    <circle
       r="4.0999999"
       cy="11.382563"
       cx="7.9347796"
       id="circle1052"
       style="display:inline;opacity:1;fill:none;fill-opacity:1;stroke:#ffe4b3;stroke-width:0.05;stroke-linecap:square;stroke-linejoin:round;stroke-miterlimit:4;stroke-dasharray:none;stroke-dashoffset:0;stroke-opacity:1;paint-order:markers fill stroke" />
    <circle
       style="display:inline;opacity:1;fill:none;fill-opacity:1;stroke:#ffe4b3;stroke-width:0.05172414;stroke-linecap:square;stroke-linejoin:round;stroke-miterlimit:4;stroke-dasharray:none;stroke-dashoffset:0;stroke-opacity:1;paint-order:markers fill stroke"
       id="circle924"
       cx="7.9360948"
       cy="11.377258"
       r="5.4741378" />
    <circle
       r="5.4741378"
       cy="22.490795"
       cx="7.9360948"
       id="circle955"
       style="display:inline;opacity:1;fill:none;fill-opacity:1;stroke:#ffe4b3;stroke-width:0.05172414;stroke-linecap:square;stroke-linejoin:round;stroke-miterlimit:4;stroke-dasharray:none;stroke-dashoffset:0;stroke-opacity:1;paint-order:markers fill stroke" />
    <circle
       style="display:inline;opacity:1;fill:none;fill-opacity:1;stroke:#ffe4b3;stroke-width:0.05172414;stroke-linecap:square;stroke-linejoin:round;stroke-miterlimit:4;stroke-dasharray:none;stroke-dashoffset:0;stroke-opacity:1;paint-order:markers fill stroke"
       id="circle957"
       cx="7.9360948"
       cy="33.603306"
       r="5.4741378" />
    <circle
       r="5.4741378"
       cy="44.715816"
       cx="7.9360948"
       id="circle959"
       style="display:inline;opacity:1;fill:none;fill-opacity:1;stroke:#ffe4b3;stroke-width:0.05172414;stroke-linecap:square;stroke-linejoin:round;stroke-miterlimit:4;stroke-dasharray:none;stroke-dashoffset:0;stroke-opacity:1;paint-order:markers fill stroke" />
    <circle
       style="display:inline;opacity:1;fill:none;fill-opacity:1;stroke:#ffe4b3;stroke-width:0.05172414;stroke-linecap:square;stroke-linejoin:round;stroke-miterlimit:4;stroke-dasharray:none;stroke-dashoffset:0;stroke-opacity:1;paint-order:markers fill stroke"
       id="circle961"
       cx="7.9360948"
       cy="55.828327"
       r="5.4741378" />
    <circle
       r="5.4741378"
       cy="66.940834"
       cx="7.9360948"
       id="circle963"
       style="display:inline;opacity:1;fill:none;fill-opacity:1;stroke:#ffe4b3;stroke-width:0.05172414;stroke-linecap:square;stroke-linejoin:round;stroke-miterlimit:4;stroke-dasharray:none;stroke-dashoffset:0;stroke-opacity:1;paint-order:markers fill stroke" />
    <circle
       style="display:inline;opacity:1;fill:none;fill-opacity:1;stroke:#ffe4b3;stroke-width:0.05172414;stroke-linecap:square;stroke-linejoin:round;stroke-miterlimit:4;stroke-dasharray:none;stroke-dashoffset:0;stroke-opacity:1;paint-order:markers fill stroke"
       id="circle965"
       cx="7.9360948"
       cy="78.053345"
       r="5.4741378" />
    <path
       sodipodi:nodetypes="cc"
       inkscape:connector-curvature="0"
       id="path1074-6"
       d="M 1.5433068e-5,89.17441 15.875015,89.16461"
       style="fill:none;stroke:#ffe4b3;stroke-width:0.05;stroke-linecap:butt;stroke-linejoin:miter;stroke-miterlimit:4;stroke-dasharray:none;stroke-opacity:1" />
    <circle
       style="display:inline;opacity:1;fill:none;fill-opacity:1;stroke:#ffe4b3;stroke-width:0.05;stroke-linecap:square;stroke-linejoin:round;stroke-miterlimit:4;stroke-dasharray:none;stroke-dashoffset:0;stroke-opacity:1;paint-order:markers fill stroke"
       id="circle1076"
       cx="7.9347796"
       cy="89.170151"
       r="4.0999999" />
    <circle
       r="5.4741378"
       cy="89.165855"
       cx="7.9360948"
       id="circle1078"
       style="display:inline;opacity:1;fill:none;fill-opacity:1;stroke:#ffe4b3;stroke-width:0.05172414;stroke-linecap:square;stroke-linejoin:round;stroke-miterlimit:4;stroke-dasharray:none;stroke-dashoffset:0;stroke-opacity:1;paint-order:markers fill stroke" />
    <g
       id="g6631"
       style="display:inline;stroke:#ffe4b3"
       transform="translate(15.874985,3.333209e-6)">
      <path
         sodipodi:nodetypes="cc"
         inkscape:connector-curvature="0"
         id="path6577"
         d="m 7.9375,-1e-5 -3e-6,100.54167"
         style="fill:none;stroke:#ffe4b3;stroke-width:0.05;stroke-linecap:butt;stroke-linejoin:miter;stroke-miterlimit:4;stroke-dasharray:none;stroke-opacity:1" />
      <path
         style="fill:none;stroke:#ffe4b3;stroke-width:0.05;stroke-linecap:butt;stroke-linejoin:miter;stroke-miterlimit:4;stroke-dasharray:none;stroke-opacity:1"
         d="m 3.968752,0 -4e-6,100.54167"
         id="path6579"
         inkscape:connector-curvature="0"
         sodipodi:nodetypes="cc" />
      <path
         sodipodi:nodetypes="cc"
         inkscape:connector-curvature="0"
         id="path6581"
         d="m 11.906253,0 -4e-6,100.54167"
         style="fill:none;stroke:#ffe4b3;stroke-width:0.05;stroke-linecap:butt;stroke-linejoin:miter;stroke-miterlimit:4;stroke-dasharray:none;stroke-opacity:1" />
      <path
         style="fill:none;stroke:#ffe4b3;stroke-width:0.05;stroke-linecap:butt;stroke-linejoin:miter;stroke-miterlimit:4;stroke-dasharray:none;stroke-opacity:1"
         d="m 0,11.38648 15.875,-0.0094"
         id="path6583"
         inkscape:connector-curvature="0"
         sodipodi:nodetypes="cc" />
      <path
         inkscape:connector-curvature="0"
         id="path6585"
         d="m 0,22.49905 15.875,-0.0095"
         style="fill:none;stroke:#ffe4b3;stroke-width:0.05;stroke-linecap:butt;stroke-linejoin:miter;stroke-miterlimit:4;stroke-dasharray:none;stroke-opacity:1"
         sodipodi:nodetypes="cc" />
      <path
         style="fill:none;stroke:#ffe4b3;stroke-width:0.05;stroke-linecap:butt;stroke-linejoin:miter;stroke-miterlimit:4;stroke-dasharray:none;stroke-opacity:1"
         d="m 0,33.61162 15.875,-0.0095"
         id="path6587"
         inkscape:connector-curvature="0"
         sodipodi:nodetypes="cc" />
      <path
         inkscape:connector-curvature="0"
         id="path6589"
         d="m 0,44.72419 15.875,-0.0096"
         style="fill:none;stroke:#ffe4b3;stroke-width:0.05;stroke-linecap:butt;stroke-linejoin:miter;stroke-miterlimit:4;stroke-dasharray:none;stroke-opacity:1"
         sodipodi:nodetypes="cc" />
      <path
         style="fill:none;stroke:#ffe4b3;stroke-width:0.05;stroke-linecap:butt;stroke-linejoin:miter;stroke-miterlimit:4;stroke-dasharray:none;stroke-opacity:1"
         d="m 0,55.83676 15.875,-0.0097"
         id="path6591"
         inkscape:connector-curvature="0"
         sodipodi:nodetypes="cc" />
      <path
         inkscape:connector-curvature="0"
         id="path6593"
         d="m 0,66.94933 15.875,-0.0097"
         style="fill:none;stroke:#ffe4b3;stroke-width:0.05;stroke-linecap:butt;stroke-linejoin:miter;stroke-miterlimit:4;stroke-dasharray:none;stroke-opacity:1"
         sodipodi:nodetypes="cc" />
      <path
         style="fill:none;stroke:#ffe4b3;stroke-width:0.05;stroke-linecap:butt;stroke-linejoin:miter;stroke-miterlimit:4;stroke-dasharray:none;stroke-opacity:1"
         d="M 0,78.0619 15.875,78.0521"
         id="path6595"
         inkscape:connector-curvature="0"
         sodipodi:nodetypes="cc" />
      <circle
         style="display:inline;opacity:1;fill:none;fill-opacity:1;stroke:#ffe4b3;stroke-width:0.05;stroke-linecap:square;stroke-linejoin:round;stroke-miterlimit:4;stroke-dasharray:none;stroke-dashoffset:0;stroke-opacity:1;paint-order:markers fill stroke"
         id="circle6597"
         cx="7.9347644"
         cy="22.48922"
         r="4.0999999" />
      <circle
         r="4.0999999"
         cy="44.720116"
         cx="7.9347644"
         id="circle6599"
         style="display:inline;opacity:1;fill:none;fill-opacity:1;stroke:#ffe4b3;stroke-width:0.05;stroke-linecap:square;stroke-linejoin:round;stroke-miterlimit:4;stroke-dasharray:none;stroke-dashoffset:0;stroke-opacity:1;paint-order:markers fill stroke" />
      <circle
         style="display:inline;opacity:1;fill:none;fill-opacity:1;stroke:#ffe4b3;stroke-width:0.05;stroke-linecap:square;stroke-linejoin:round;stroke-miterlimit:4;stroke-dasharray:none;stroke-dashoffset:0;stroke-opacity:1;paint-order:markers fill stroke"
         id="circle6601"
         cx="7.9347644"
         cy="33.607586"
         r="4.0999999" />
      <circle
         r="4.0999999"
         cy="66.939285"
         cx="7.9347644"
         id="circle6603"
         style="display:inline;opacity:1;fill:none;fill-opacity:1;stroke:#ffe4b3;stroke-width:0.05;stroke-linecap:square;stroke-linejoin:round;stroke-miterlimit:4;stroke-dasharray:none;stroke-dashoffset:0;stroke-opacity:1;paint-order:markers fill stroke" />
      <circle
         style="display:inline;opacity:1;fill:none;fill-opacity:1;stroke:#ffe4b3;stroke-width:0.05;stroke-linecap:square;stroke-linejoin:round;stroke-miterlimit:4;stroke-dasharray:none;stroke-dashoffset:0;stroke-opacity:1;paint-order:markers fill stroke"
         id="circle6605"
         cx="7.9347644"
         cy="55.832626"
         r="4.0999999" />
      <circle
         r="4.0999999"
         cy="78.05764"
         cx="7.9347644"
         id="circle6607"
         style="display:inline;opacity:1;fill:none;fill-opacity:1;stroke:#ffe4b3;stroke-width:0.05;stroke-linecap:square;stroke-linejoin:round;stroke-miterlimit:4;stroke-dasharray:none;stroke-dashoffset:0;stroke-opacity:1;paint-order:markers fill stroke" />
      <circle
         r="4.0999999"
         cy="11.38256"
         cx="7.9347644"
         id="circle6609"
         style="display:inline;opacity:1;fill:none;fill-opacity:1;stroke:#ffe4b3;stroke-width:0.05;stroke-linecap:square;stroke-linejoin:round;stroke-miterlimit:4;stroke-dasharray:none;stroke-dashoffset:0;stroke-opacity:1;paint-order:markers fill stroke" />
      <circle
         style="display:inline;opacity:1;fill:none;fill-opacity:1;stroke:#ffe4b3;stroke-width:0.05172414;stroke-linecap:square;stroke-linejoin:round;stroke-miterlimit:4;stroke-dasharray:none;stroke-dashoffset:0;stroke-opacity:1;paint-order:markers fill stroke"
         id="circle6611"
         cx="7.9360795"
         cy="11.377255"
         r="5.4741378" />
      <circle
         r="5.4741378"
         cy="22.490791"
         cx="7.9360795"
         id="circle6613"
         style="display:inline;opacity:1;fill:none;fill-opacity:1;stroke:#ffe4b3;stroke-width:0.05172414;stroke-linecap:square;stroke-linejoin:round;stroke-miterlimit:4;stroke-dasharray:none;stroke-dashoffset:0;stroke-opacity:1;paint-order:markers fill stroke" />
      <circle
         style="display:inline;opacity:1;fill:none;fill-opacity:1;stroke:#ffe4b3;stroke-width:0.05172414;stroke-linecap:square;stroke-linejoin:round;stroke-miterlimit:4;stroke-dasharray:none;stroke-dashoffset:0;stroke-opacity:1;paint-order:markers fill stroke"
         id="circle6615"
         cx="7.9360795"
         cy="33.603302"
         r="5.4741378" />
      <circle
         r="5.4741378"
         cy="44.715813"
         cx="7.9360795"
         id="circle6617"
         style="display:inline;opacity:1;fill:none;fill-opacity:1;stroke:#ffe4b3;stroke-width:0.05172414;stroke-linecap:square;stroke-linejoin:round;stroke-miterlimit:4;stroke-dasharray:none;stroke-dashoffset:0;stroke-opacity:1;paint-order:markers fill stroke" />
      <circle
         style="display:inline;opacity:1;fill:none;fill-opacity:1;stroke:#ffe4b3;stroke-width:0.05172414;stroke-linecap:square;stroke-linejoin:round;stroke-miterlimit:4;stroke-dasharray:none;stroke-dashoffset:0;stroke-opacity:1;paint-order:markers fill stroke"
         id="circle6619"
         cx="7.9360795"
         cy="55.828323"
         r="5.4741378" />
      <circle
         r="5.4741378"
         cy="66.940834"
         cx="7.9360795"
         id="circle6621"
         style="display:inline;opacity:1;fill:none;fill-opacity:1;stroke:#ffe4b3;stroke-width:0.05172414;stroke-linecap:square;stroke-linejoin:round;stroke-miterlimit:4;stroke-dasharray:none;stroke-dashoffset:0;stroke-opacity:1;paint-order:markers fill stroke" />
      <circle
         style="display:inline;opacity:1;fill:none;fill-opacity:1;stroke:#ffe4b3;stroke-width:0.05172414;stroke-linecap:square;stroke-linejoin:round;stroke-miterlimit:4;stroke-dasharray:none;stroke-dashoffset:0;stroke-opacity:1;paint-order:markers fill stroke"
         id="circle6623"
         cx="7.9360795"
         cy="78.053345"
         r="5.4741378" />
      <path
         sodipodi:nodetypes="cc"
         inkscape:connector-curvature="0"
         id="path6625"
         d="m 0,89.174407 15.875,-0.0098"
         style="fill:none;stroke:#ffe4b3;stroke-width:0.05;stroke-linecap:butt;stroke-linejoin:miter;stroke-miterlimit:4;stroke-dasharray:none;stroke-opacity:1" />
      <circle
         style="display:inline;opacity:1;fill:none;fill-opacity:1;stroke:#ffe4b3;stroke-width:0.05;stroke-linecap:square;stroke-linejoin:round;stroke-miterlimit:4;stroke-dasharray:none;stroke-dashoffset:0;stroke-opacity:1;paint-order:markers fill stroke"
         id="circle6627"
         cx="7.9347644"
         cy="89.170151"
         r="4.0999999" />
      <circle
         r="5.4741378"
         cy="89.165855"
         cx="7.9360795"
         id="circle6629"
         style="display:inline;opacity:1;fill:none;fill-opacity:1;stroke:#ffe4b3;stroke-width:0.05172414;stroke-linecap:square;stroke-linejoin:round;stroke-miterlimit:4;stroke-dasharray:none;stroke-dashoffset:0;stroke-opacity:1;paint-order:markers fill stroke" />
    </g>
  </g>
</svg>
