<?xml version="1.0" encoding="UTF-8" standalone="no"?>
<!-- Created with Inkscape (http://www.inkscape.org/) -->

<svg
   xmlns:dc="http://purl.org/dc/elements/1.1/"
   xmlns:cc="http://creativecommons.org/ns#"
   xmlns:rdf="http://www.w3.org/1999/02/22-rdf-syntax-ns#"
   xmlns:svg="http://www.w3.org/2000/svg"
   xmlns="http://www.w3.org/2000/svg"
   xmlns:sodipodi="http://sodipodi.sourceforge.net/DTD/sodipodi-0.dtd"
   xmlns:inkscape="http://www.inkscape.org/namespaces/inkscape"
   width="180"
   height="380"
   viewBox="0 0 47.625004 100.54167"
   version="1.1"
   id="svg8"
   inkscape:version="0.92.5 (2060ec1f9f, 2020-04-08)"
   sodipodi:docname="CD4516.svg">
  <defs
     id="defs2" />
  <sodipodi:namedview
     id="base"
     pagecolor="#ffffff"
     bordercolor="#666666"
     borderopacity="1.0"
     inkscape:pageopacity="0.0"
     inkscape:pageshadow="2"
     inkscape:zoom="3.2229182"
     inkscape:cx="50.386131"
     inkscape:cy="100.22773"
     inkscape:document-units="mm"
     inkscape:current-layer="layer1"
     showgrid="true"
     units="px"
     inkscape:snap-bbox="true"
     inkscape:snap-page="true"
     inkscape:bbox-nodes="true"
     inkscape:snap-bbox-edge-midpoints="true"
     inkscape:window-width="1920"
     inkscape:window-height="1017"
     inkscape:window-x="-8"
     inkscape:window-y="-8"
     inkscape:window-maximized="1">
    <inkscape:grid
       type="xygrid"
       id="grid116" />
  </sodipodi:namedview>
  <metadata
     id="metadata5">
    <rdf:RDF>
      <cc:Work
         rdf:about="">
        <dc:format>image/svg+xml</dc:format>
        <dc:type
           rdf:resource="http://purl.org/dc/dcmitype/StillImage" />
        <dc:title />
      </cc:Work>
    </rdf:RDF>
  </metadata>
  <g
     inkscape:groupmode="layer"
     id="layer3"
     inkscape:label="Panel"
     style="display:inline"
     sodipodi:insensitive="true">
    <path
       sodipodi:type="inkscape:offset"
       inkscape:radius="0"
       inkscape:original="M 0 196.45898 L 0 297 L 15.875 297 L 15.875 196.45898 L 0 196.45898 z "
       style="fill:#894c26;fill-opacity:1;stroke-width:0.3310422"
       id="rect3855"
       d="M 0,196.45898 V 297 H 15.875 V 196.45898 Z"
       transform="matrix(3,0,0,1.0000064,0,-196.46023)" />
  </g>
  <g
     inkscape:label="Layer 1"
     inkscape:groupmode="layer"
     id="layer1"
     transform="translate(0,-196.45832)"
     style="display:inline">
    <text
       xml:space="preserve"
       style="font-style:normal;font-weight:normal;font-size:2.82222223px;line-height:1.25;font-family:sans-serif;letter-spacing:0px;word-spacing:0px;fill:#000000;fill-opacity:1;stroke:none;stroke-width:0.26458332"
       x="17.197916"
       y="201.74998"
       id="text3821"><tspan
         sodipodi:role="line"
         id="tspan3819"
         x="17.197916"
         y="204.32478"
         style="stroke-width:0.26458332" /></text>
    <g
       id="g4342"
       transform="translate(7.9374999)">
      <g
         transform="translate(-9.481569,1.7166648)"
         id="text956"
         style="font-style:normal;font-variant:normal;font-weight:normal;font-stretch:normal;font-size:2.82222223px;line-height:1.25;font-family:'Copperplate Gothic Light';-inkscape-font-specification:'Copperplate Gothic Light, ';letter-spacing:0px;word-spacing:0px;fill:#ffe4b3;fill-opacity:1;stroke:#ffe4b3;stroke-width:0.2;stroke-miterlimit:4;stroke-dasharray:none;stroke-opacity:1"
         aria-label="/^M^\">
        <path
           inkscape:connector-curvature="0"
           id="path958"
           style="font-style:normal;font-variant:normal;font-weight:normal;font-stretch:normal;font-size:2.82222223px;line-height:1.25;font-family:'Copperplate Gothic Light';-inkscape-font-specification:'Copperplate Gothic Light, ';fill:#ffe4b3;stroke:#ffe4b3;stroke-width:0.2;stroke-miterlimit:4;stroke-dasharray:none;stroke-opacity:1"
           d="m 21.203855,291.40545 v 0.0386 h -0.434082 v -0.0386 q 0.09509,-0.006 0.224621,-0.17088 l 1.094162,-1.4621 q 0.07441,-0.1006 0.07441,-0.12402 0,-0.0372 -0.06615,-0.0482 v -0.0372 h 0.423058 v 0.0372 q -0.09508,0.006 -0.22462,0.17087 l -1.08176,1.46348 q -0.07579,0.10197 -0.07579,0.12402 0,0.0358 0.06615,0.0469 z" />
        <path
           inkscape:connector-curvature="0"
           id="path960"
           style="font-style:normal;font-variant:normal;font-weight:normal;font-stretch:normal;font-size:2.82222223px;line-height:1.25;font-family:'Copperplate Gothic Light';-inkscape-font-specification:'Copperplate Gothic Light, ';fill:#ffe4b3;stroke:#ffe4b3;stroke-width:0.2;stroke-miterlimit:4;stroke-dasharray:none;stroke-opacity:1"
           d="M 22.940183,290.3857 H 22.73899 l 0.493338,-0.8282 h 0.243912 l 0.493338,0.8282 h -0.20395 l -0.413411,-0.68075 z" />
        <path
           inkscape:connector-curvature="0"
           id="path962"
           style="font-style:normal;font-variant:normal;font-weight:normal;font-stretch:normal;font-size:2.82222223px;line-height:1.25;font-family:'Copperplate Gothic Light';-inkscape-font-specification:'Copperplate Gothic Light, ';fill:#ffe4b3;stroke:#ffe4b3;stroke-width:0.2;stroke-miterlimit:4;stroke-dasharray:none;stroke-opacity:1"
           d="m 25.342104,291.44403 -0.789616,-1.58061 v 1.418 q 0,0.0565 0.01791,0.0813 0.01791,0.0234 0.07028,0.0372 v 0.0441 h -0.373449 v -0.0441 q 0.05237,-0.0138 0.07028,-0.0372 0.01792,-0.0234 0.01792,-0.0813 v -1.5558 q 0,-0.0579 -0.01792,-0.0813 -0.01791,-0.0248 -0.07028,-0.0372 v -0.0441 h 0.487826 v 0.0441 q -0.06752,0.0234 -0.06752,0.0579 0,0.0165 0.04547,0.10611 l 0.62563,1.24161 0.628385,-1.25263 q 0.03307,-0.0661 0.03307,-0.0937 0,-0.0358 -0.06752,-0.0593 v -0.0441 h 0.49196 v 0.0441 q -0.05237,0.0138 -0.07028,0.0372 -0.01792,0.0234 -0.01792,0.0813 v 1.5558 q 0,0.0565 0.01792,0.0813 0.01791,0.0234 0.07028,0.0372 v 0.0441 h -0.392741 v -0.0441 q 0.05374,-0.0138 0.07028,-0.0372 0.01791,-0.0234 0.01791,-0.0813 v -1.418 z" />
        <path
           inkscape:connector-curvature="0"
           id="path964"
           style="font-style:normal;font-variant:normal;font-weight:normal;font-stretch:normal;font-size:2.82222223px;line-height:1.25;font-family:'Copperplate Gothic Light';-inkscape-font-specification:'Copperplate Gothic Light, ';fill:#ffe4b3;stroke:#ffe4b3;stroke-width:0.2;stroke-miterlimit:4;stroke-dasharray:none;stroke-opacity:1"
           d="m 26.942006,290.3857 h -0.201193 l 0.493338,-0.8282 h 0.243912 l 0.493338,0.8282 h -0.20395 l -0.413411,-0.68075 z" />
        <path
           inkscape:connector-curvature="0"
           id="path966"
           style="font-style:normal;font-variant:normal;font-weight:normal;font-stretch:normal;font-size:2.82222223px;line-height:1.25;font-family:'Copperplate Gothic Light';-inkscape-font-specification:'Copperplate Gothic Light, ';fill:#ffe4b3;stroke:#ffe4b3;stroke-width:0.2;stroke-miterlimit:4;stroke-dasharray:none;stroke-opacity:1"
           d="m 28.617701,289.56301 v 0.0372 q -0.06615,0.011 -0.06615,0.0482 0,0.0234 0.07441,0.12402 l 1.092784,1.4621 q 0.129536,0.16536 0.22462,0.17088 v 0.0386 h -0.434082 v -0.0386 q 0.06615,-0.011 0.06615,-0.0469 0,-0.0207 -0.07579,-0.12402 l -1.080382,-1.46348 q -0.129535,-0.16536 -0.22462,-0.17087 v -0.0372 z" />
      </g>
      <g
         id="text924"
         style="font-style:normal;font-variant:normal;font-weight:normal;font-stretch:normal;font-size:2.97226882px;line-height:1.25;font-family:'Yu Gothic UI';-inkscape-font-specification:'Yu Gothic UI';letter-spacing:0px;word-spacing:0px;fill:#ffe4b3;fill-opacity:1;stroke:none;stroke-width:0.24768905"
         aria-label="LUNETTA">
        <path
           id="path892"
           style="font-size:2.97226882px;fill:#ffe4b3;stroke-width:0.24768905"
           d="M 11.061028,295.90683 H 9.9812581 v -2.08117 h 0.2438189 v 1.86057 h 0.835951 z"
           inkscape:connector-curvature="0" />
        <path
           id="path894"
           style="font-size:2.97226882px;fill:#ffe4b3;stroke-width:0.24768905"
           d="m 12.902731,295.06507 q 0,0.87659 -0.79096,0.87659 -0.75758,0 -0.75758,-0.84321 v -1.27279 h 0.243819 v 1.25683 q 0,0.64002 0.539885,0.64002 0.521017,0 0.521017,-0.61825 v -1.2786 h 0.243819 z"
           inkscape:connector-curvature="0" />
        <path
           id="path896"
           style="font-size:2.97226882px;fill:#ffe4b3;stroke-width:0.24768905"
           d="m 15.101456,295.90683 h -0.298969 l -1.071062,-1.65884 q -0.04064,-0.0624 -0.06676,-0.13062 h -0.0087 q 0.01161,0.0668 0.01161,0.28591 v 1.50355 h -0.243819 v -2.08117 h 0.316384 l 1.042036,1.63272 q 0.06531,0.10159 0.08418,0.13932 h 0.0058 q -0.01451,-0.09 -0.01451,-0.30622 v -1.46582 h 0.243819 z"
           inkscape:connector-curvature="0" />
        <path
           id="path898"
           style="font-size:2.97226882px;fill:#ffe4b3;stroke-width:0.24768905"
           d="m 16.750136,295.90683 h -1.102991 v -2.08117 h 1.056549 v 0.2206 h -0.81273 v 0.69227 h 0.751775 v 0.21915 h -0.751775 v 0.72855 h 0.859172 z"
           inkscape:connector-curvature="0" />
        <path
           id="path900"
           style="font-size:2.97226882px;fill:#ffe4b3;stroke-width:0.24768905"
           d="m 18.381401,294.04626 h -0.60084 v 1.86057 h -0.243819 v -1.86057 h -0.599388 v -0.2206 h 1.444047 z"
           inkscape:connector-curvature="0" />
        <path
           id="path902"
           style="font-size:2.97226882px;fill:#ffe4b3;stroke-width:0.24768905"
           d="m 19.937197,294.04626 h -0.600839 v 1.86057 h -0.243819 v -1.86057 h -0.599388 v -0.2206 h 1.444046 z"
           inkscape:connector-curvature="0" />
        <path
           id="path904"
           style="font-size:2.97226882px;fill:#ffe4b3;stroke-width:0.24768905"
           d="M 21.768742,295.90683 H 21.4988 l -0.220598,-0.58342 h -0.882393 l -0.207536,0.58342 h -0.271394 l 0.798217,-2.08117 h 0.252527 z m -0.570362,-0.80257 -0.326543,-0.88675 q -0.01596,-0.0435 -0.03193,-0.13932 h -0.0058 q -0.01451,0.0885 -0.03338,0.13932 l -0.323641,0.88675 z"
           inkscape:connector-curvature="0" />
      </g>
    </g>
    <text
       xml:space="preserve"
       style="font-style:normal;font-variant:normal;font-weight:normal;font-stretch:normal;font-size:2.82222223px;line-height:1.25;font-family:'Yu Gothic UI';-inkscape-font-specification:'Yu Gothic UI';letter-spacing:0px;word-spacing:0px;fill:#000000;fill-opacity:1;stroke:none;stroke-width:0.26458332"
       x="5.2916665"
       y="283.77081"
       id="text1036"><tspan
         sodipodi:role="line"
         id="tspan1034"
         x="5.2916665"
         y="286.31293"
         style="stroke-width:0.26458332" /></text>
    <path
       sodipodi:nodetypes="ccccc"
       style="fill:none;stroke:#ffe4b3;stroke-width:0.26458332px;stroke-linecap:butt;stroke-linejoin:miter;stroke-opacity:1"
       d="m 34.395843,261.84951 v 11.37708 h 10.583338 l -4e-6,-11.37708 z"
       id="path1138"
       inkscape:connector-curvature="0" />
    <path
       inkscape:connector-curvature="0"
       id="path1140"
       d="m 34.395843,218.00436 v 11.27708 h 10.583334 v -11.27708 z"
       style="fill:none;stroke:#ffe4b3;stroke-width:0.26499999;stroke-linecap:butt;stroke-linejoin:miter;stroke-miterlimit:4;stroke-dasharray:none;stroke-opacity:1"
       sodipodi:nodetypes="ccccc" />
    <path
       inkscape:connector-curvature="0"
       id="path1142"
       d="m 34.395843,232.71272 v 11.37708 h 10.583338 l -4e-6,-11.37708 z"
       style="fill:none;stroke:#ffe4b3;stroke-width:0.26458332px;stroke-linecap:butt;stroke-linejoin:miter;stroke-opacity:1"
       sodipodi:nodetypes="ccccc" />
    <path
       inkscape:connector-curvature="0"
       id="path1144"
       d="m 34.395843,247.27989 v 11.37708 h 10.583338 l -4e-6,-11.37708 z"
       style="fill:none;stroke:#ffe4b3;stroke-width:0.26458332px;stroke-linecap:butt;stroke-linejoin:miter;stroke-opacity:1"
       sodipodi:nodetypes="ccccc" />
    <g
       aria-label="CLOCK"
       style="font-style:normal;font-variant:normal;font-weight:normal;font-stretch:normal;font-size:2.82222223px;line-height:1.25;font-family:'Yu Gothic UI';-inkscape-font-specification:'Yu Gothic UI';letter-spacing:0px;word-spacing:0px;fill:#ffe4b3;fill-opacity:1;stroke:none;stroke-width:0.26458332"
       id="text1080"
       transform="translate(-4.3435758,-0.72508106)">
      <path
         d="m 9.5415365,221.51105 q -0.2191081,0.11576 -0.5457032,0.11576 -0.4216797,0 -0.6752387,-0.27148 -0.253559,-0.27147 -0.253559,-0.71244 0,-0.47405 0.2852539,-0.76619 0.2852539,-0.29214 0.7234701,-0.29214 0.2811197,0 0.4657769,0.0813 v 0.24667 q -0.2122179,-0.11851 -0.468533,-0.11851 -0.3403755,0 -0.5525933,0.22737 -0.2108399,0.22738 -0.2108399,0.60772 0,0.36104 0.1970595,0.57602 0.1984375,0.21359 0.5195204,0.21359 0.2976562,0 0.5153863,-0.13229 z"
         style="fill:#ffe4b3;stroke-width:0.26458332"
         id="path1124"
         inkscape:connector-curvature="0" />
      <path
         d="M 10.969184,221.59373 H 9.9439237 v -1.9761 h 0.2315103 v 1.76664 h 0.79375 z"
         style="fill:#ffe4b3;stroke-width:0.26458332"
         id="path1126"
         inkscape:connector-curvature="0" />
      <path
         d="m 12.041298,221.62681 q -0.420302,0 -0.673861,-0.27699 -0.252181,-0.27698 -0.252181,-0.72071 0,-0.4768 0.257693,-0.76068 0.257694,-0.28387 0.701422,-0.28387 0.409277,0 0.658702,0.2756 0.250803,0.27561 0.250803,0.72072 0,0.48369 -0.256315,0.76481 -0.256315,0.28112 -0.686263,0.28112 z m 0.01654,-1.83279 q -0.311436,0 -0.50574,0.22462 -0.194303,0.22462 -0.194303,0.5898 0,0.36518 0.188791,0.58842 0.190169,0.22186 0.494716,0.22186 0.325217,0 0.51263,-0.21221 0.187413,-0.21222 0.187413,-0.59394 0,-0.39136 -0.181901,-0.60496 -0.181901,-0.21359 -0.501606,-0.21359 z"
         style="fill:#ffe4b3;stroke-width:0.26458332"
         id="path1129"
         inkscape:connector-curvature="0" />
      <path
         d="m 14.717448,221.51105 q -0.219108,0.11576 -0.545703,0.11576 -0.42168,0 -0.675239,-0.27148 -0.253559,-0.27147 -0.253559,-0.71244 0,-0.47405 0.285254,-0.76619 0.285254,-0.29214 0.72347,-0.29214 0.28112,0 0.465777,0.0813 v 0.24667 q -0.212218,-0.11851 -0.468533,-0.11851 -0.340376,0 -0.552593,0.22737 -0.21084,0.22738 -0.21084,0.60772 0,0.36104 0.197059,0.57602 0.198438,0.21359 0.519521,0.21359 0.297656,0 0.515386,-0.13229 z"
         style="fill:#ffe4b3;stroke-width:0.26458332"
         id="path1131"
         inkscape:connector-curvature="0" />
      <path
         d="m 16.495117,221.59373 h -0.322461 l -0.763433,-0.90399 q -0.04272,-0.051 -0.05236,-0.0689 h -0.0055 v 0.97289 h -0.231511 v -1.9761 h 0.231511 v 0.9288 h 0.0055 q 0.01929,-0.0303 0.05236,-0.0675 l 0.738629,-0.86127 h 0.28801 l -0.847494,0.94809 z"
         style="fill:#ffe4b3;stroke-width:0.26458332"
         id="path1134"
         inkscape:connector-curvature="0" />
    </g>
    <g
       aria-label="RESET"
       style="font-style:normal;font-variant:normal;font-weight:normal;font-stretch:normal;font-size:2.82222223px;line-height:1.25;font-family:'Yu Gothic UI';-inkscape-font-specification:'Yu Gothic UI';letter-spacing:0px;word-spacing:0px;fill:#ffe4b3;fill-opacity:1;stroke:none;stroke-width:0.26458332"
       id="text1092"
       transform="translate(-1.2181848,1.9285789)">
      <path
         d="M 6.967361,248.05206 H 6.6917533 l -0.3307291,-0.55397 q -0.045475,-0.0772 -0.088195,-0.13091 -0.042719,-0.0551 -0.088194,-0.0896 -0.044097,-0.0345 -0.096463,-0.0496 -0.050987,-0.0165 -0.1157552,-0.0165 H 5.7822481 v 0.8406 H 5.5507377 v -1.9761 H 6.140538 q 0.1295356,0 0.2384006,0.0331 0.1102431,0.0317 0.1901693,0.0978 0.081304,0.0661 0.1267795,0.16536 0.045475,0.0978 0.045475,0.23014 0,0.10335 -0.031695,0.19017 -0.030317,0.0854 -0.088194,0.15296 -0.0565,0.0675 -0.1378038,0.11575 -0.079926,0.0469 -0.1805231,0.073 v 0.006 q 0.049609,0.022 0.085438,0.051 0.037207,0.0276 0.07028,0.0661 0.033073,0.0386 0.064768,0.0882 0.033073,0.0482 0.073036,0.113 z m -1.1851129,-1.76664 v 0.71658 h 0.3141927 q 0.086816,0 0.1598524,-0.0262 0.074414,-0.0262 0.1281576,-0.0744 0.053744,-0.0496 0.08406,-0.11989 0.030317,-0.0717 0.030317,-0.15985 0,-0.15848 -0.1033529,-0.24667 -0.1019748,-0.0896 -0.2962782,-0.0896 z"
         style="fill:#ffe4b3;stroke-width:0.26458332"
         id="path1100"
         inkscape:connector-curvature="0" />
      <path
         d="m 8.2847654,248.05206 h -1.047309 v -1.9761 h 1.0032118 v 0.20946 H 7.4689668 v 0.65732 h 0.7138238 v 0.20809 H 7.4689668 v 0.69177 h 0.8157986 z"
         style="fill:#ffe4b3;stroke-width:0.26458332"
         id="path1102"
         inkscape:connector-curvature="0" />
      <path
         d="m 8.5727754,247.97214 v -0.27285 q 0.046853,0.0413 0.1116211,0.0744 0.066146,0.0331 0.1378038,0.0565 0.073036,0.0221 0.1460721,0.0345 0.073036,0.0124 0.1350477,0.0124 0.213596,0 0.3183269,-0.0786 0.1061089,-0.0799 0.1061089,-0.22875 0,-0.0799 -0.035829,-0.13918 -0.034451,-0.0593 -0.096463,-0.10749 -0.062012,-0.0496 -0.1474501,-0.0937 -0.08406,-0.0455 -0.181901,-0.0951 -0.1033529,-0.0524 -0.1929253,-0.10611 -0.089573,-0.0537 -0.1557184,-0.11851 -0.066146,-0.0648 -0.1047309,-0.14607 -0.037207,-0.0827 -0.037207,-0.19293 0,-0.13505 0.059256,-0.23426 0.059256,-0.1006 0.1557184,-0.16537 0.096463,-0.0648 0.219108,-0.0965 0.1240235,-0.0317 0.252181,-0.0317 0.2921441,0 0.4258138,0.0703 v 0.26045 q -0.1750108,-0.12126 -0.4492404,-0.12126 -0.075792,0 -0.1515842,0.0165 -0.075792,0.0152 -0.1350478,0.051 -0.059256,0.0358 -0.096463,0.0923 -0.037207,0.0565 -0.037207,0.1378 0,0.0758 0.027561,0.13091 0.028939,0.0551 0.08406,0.1006 0.055122,0.0455 0.1336697,0.0882 0.079926,0.0427 0.1832791,0.0937 0.1061089,0.0524 0.2011936,0.11025 0.095085,0.0579 0.1667426,0.12815 0.071658,0.0703 0.1129991,0.15572 0.042719,0.0854 0.042719,0.19568 0,0.14608 -0.057878,0.24805 -0.0565,0.1006 -0.1543403,0.16399 -0.096463,0.0634 -0.2232422,0.0909 -0.1267795,0.0289 -0.2673394,0.0289 -0.046853,0 -0.1157552,-0.008 -0.068902,-0.007 -0.1405599,-0.0221 -0.071658,-0.0138 -0.1364258,-0.0344 -0.06339,-0.0221 -0.1019748,-0.0482 z"
         style="fill:#ffe4b3;stroke-width:0.26458332"
         id="path1104"
         inkscape:connector-curvature="0" />
      <path
         d="m 11.211719,248.05206 h -1.04731 v -1.9761 h 1.003212 v 0.20946 H 10.39592 v 0.65732 h 0.713824 v 0.20809 H 10.39592 v 0.69177 h 0.815799 z"
         style="fill:#ffe4b3;stroke-width:0.26458332"
         id="path1106"
         inkscape:connector-curvature="0" />
      <path
         d="m 12.760633,246.28542 h -0.570507 v 1.76664 h -0.231511 v -1.76664 h -0.56913 v -0.20946 h 1.371148 z"
         style="fill:#ffe4b3;stroke-width:0.26458332"
         id="path1108"
         inkscape:connector-curvature="0" />
    </g>
    <g
       transform="translate(30.085354,25.721483)"
       id="g958"
       style="font-style:normal;font-variant:normal;font-weight:normal;font-stretch:normal;font-size:2.82222223px;line-height:1.25;font-family:'Yu Gothic UI';-inkscape-font-specification:'Yu Gothic UI';letter-spacing:0px;word-spacing:0px;fill:#ffe4b3;fill-opacity:1;stroke:none;stroke-width:0.26458332"
       aria-label="CO">
      <path
         inkscape:connector-curvature="0"
         id="path954"
         style="fill:#ffe4b3;stroke-width:0.26458332"
         d="m 6.895703,253.26105 q -0.2191081,0.11576 -0.5457032,0.11576 -0.4216796,0 -0.6752387,-0.27148 -0.253559,-0.27147 -0.253559,-0.71244 0,-0.47405 0.2852539,-0.76619 0.2852539,-0.29214 0.7234701,-0.29214 0.2811198,0 0.4657769,0.0813 v 0.24667 q -0.2122179,-0.11851 -0.468533,-0.11851 -0.3403755,0 -0.5525933,0.22737 -0.2108399,0.22738 -0.2108399,0.60772 0,0.36104 0.1970595,0.57602 0.1984375,0.21359 0.5195204,0.21359 0.2976562,0 0.5153863,-0.13229 z" />
      <path
         inkscape:connector-curvature="0"
         id="path956"
         style="fill:#ffe4b3;stroke-width:0.26458332"
         d="m 8.0945962,253.37681 q -0.4203016,0 -0.6738606,-0.27699 -0.252181,-0.27698 -0.252181,-0.72071 0,-0.4768 0.2576931,-0.76068 0.2576932,-0.28387 0.7014215,-0.28387 0.4092773,0 0.6587022,0.2756 0.250803,0.27561 0.250803,0.72072 0,0.48369 -0.2563151,0.76481 -0.2563151,0.28112 -0.6862631,0.28112 z m 0.016537,-1.83279 q -0.3114366,0 -0.50574,0.22462 -0.1943034,0.22462 -0.1943034,0.5898 0,0.36518 0.1887912,0.58842 0.1901693,0.22186 0.4947157,0.22186 0.3252171,0 0.5126303,-0.21221 0.1874132,-0.21222 0.1874132,-0.59394 0,-0.39136 -0.1819011,-0.60496 -0.181901,-0.21359 -0.5016059,-0.21359 z" />
    </g>
    <path
       sodipodi:nodetypes="ccccc"
       style="fill:none;stroke:#ffe4b3;stroke-width:0.26458332px;stroke-linecap:butt;stroke-linejoin:miter;stroke-opacity:1"
       d="m 34.395843,276.35346 v 11.37708 h 10.583338 l -4e-6,-11.37708 z"
       id="path961"
       inkscape:connector-curvature="0" />
    <g
       aria-label="CI"
       style="font-style:normal;font-variant:normal;font-weight:normal;font-stretch:normal;font-size:2.82222223px;line-height:1.25;font-family:'Yu Gothic UI';-inkscape-font-specification:'Yu Gothic UI';letter-spacing:0px;word-spacing:0px;fill:#ffe4b3;fill-opacity:1;stroke:none;stroke-width:0.26458332"
       id="text965"
       transform="translate(17.866275,-65.826608)">
      <path
         d="m 22.241535,272.04647 q -0.219108,0.11575 -0.545703,0.11575 -0.421679,0 -0.675239,-0.27147 -0.253559,-0.27147 -0.253559,-0.71245 0,-0.47404 0.285254,-0.76619 0.285254,-0.29214 0.72347,-0.29214 0.28112,0 0.465777,0.0813 v 0.24667 q -0.212218,-0.11851 -0.468533,-0.11851 -0.340375,0 -0.552593,0.22738 -0.21084,0.22738 -0.21084,0.60771 0,0.36105 0.19706,0.57602 0.198437,0.2136 0.51952,0.2136 0.297656,0 0.515386,-0.13229 z"
         style="font-size:2.82222223px;fill:#ffe4b3;fill-opacity:1;stroke-width:0.26458332"
         id="path967"
         inkscape:connector-curvature="0" />
      <path
         d="m 22.875433,272.12915 h -0.23151 v -1.97611 h 0.23151 z"
         style="font-size:2.82222223px;fill:#ffe4b3;fill-opacity:1;stroke-width:0.26458332"
         id="path969"
         inkscape:connector-curvature="0" />
    </g>
    <g
       aria-label="Q1"
       style="font-style:normal;font-variant:normal;font-weight:normal;font-stretch:normal;font-size:2.82222223px;line-height:1.25;font-family:'Yu Gothic UI';-inkscape-font-specification:'Yu Gothic UI';letter-spacing:0px;word-spacing:0px;fill:#ffe4b3;fill-opacity:1;stroke:none;stroke-width:0.26575384"
       id="text974"
       transform="matrix(1,0,0,0.9912104,4.5447937,13.017541)">
      <path
         d="m 32.197862,209.72056 q -0.418924,0 -0.673861,-0.27699 -0.252181,-0.27698 -0.252181,-0.72071 0,-0.47818 0.257693,-0.76068 0.259071,-0.28387 0.701422,-0.28387 0.407899,0 0.658702,0.2756 0.250803,0.27561 0.250803,0.72072 0,0.48369 -0.256315,0.76481 -0.06063,0.0675 -0.129536,0.11575 l 0.555349,0.39826 h -0.420301 l -0.37207,-0.27837 q -0.146073,0.0455 -0.319705,0.0455 z m 0.01654,-1.83279 q -0.311437,0 -0.50574,0.22462 -0.194303,0.22462 -0.194303,0.5898 0,0.3638 0.188791,0.58842 0.190169,0.22186 0.494716,0.22186 0.325217,0 0.51263,-0.21221 0.187413,-0.21222 0.187413,-0.59394 0,-0.39274 -0.181901,-0.60496 -0.181901,-0.21359 -0.501606,-0.21359 z"
         style="font-size:2.82222223px;fill:#ffe4b3;fill-opacity:1;stroke-width:0.26575384"
         id="path1063"
         inkscape:connector-curvature="0" />
      <path
         d="m 34.267675,209.68748 h -0.225998 v -1.70738 q -0.02618,0.0262 -0.07717,0.0606 -0.04961,0.0331 -0.112999,0.0661 -0.06201,0.0331 -0.132292,0.062 -0.0689,0.0289 -0.135048,0.0455 v -0.22875 q 0.07441,-0.0207 0.157096,-0.0551 0.08406,-0.0358 0.163987,-0.0785 0.0813,-0.0441 0.152962,-0.091 0.07166,-0.0482 0.124024,-0.0937 h 0.08544 z"
         style="font-size:2.82222223px;fill:#ffe4b3;fill-opacity:1;stroke-width:0.26575384"
         id="path1065"
         inkscape:connector-curvature="0" />
    </g>
    <g
       aria-label="Q2"
       style="font-style:normal;font-variant:normal;font-weight:normal;font-stretch:normal;font-size:2.82222223px;line-height:1.25;font-family:'Yu Gothic UI';-inkscape-font-specification:'Yu Gothic UI';letter-spacing:0px;word-spacing:0px;fill:#ffe4b3;fill-opacity:1;stroke:none;stroke-width:0.26458332"
       id="text978"
       transform="translate(4.5447887,9.8628203)">
      <path
         d="m 32.011826,225.59556 q -0.418923,0 -0.67386,-0.27699 -0.252181,-0.27698 -0.252181,-0.72071 0,-0.47818 0.257693,-0.76068 0.259071,-0.28387 0.701421,-0.28387 0.4079,0 0.658703,0.2756 0.250803,0.27561 0.250803,0.72072 0,0.48369 -0.256315,0.76481 -0.06063,0.0675 -0.129536,0.11575 l 0.555349,0.39826 h -0.420301 l -0.372071,-0.27837 q -0.146072,0.0455 -0.319705,0.0455 z m 0.01654,-1.83279 q -0.311437,0 -0.50574,0.22462 -0.194303,0.22462 -0.194303,0.5898 0,0.3638 0.188791,0.58842 0.190169,0.22186 0.494715,0.22186 0.325218,0 0.512631,-0.21221 0.187413,-0.21222 0.187413,-0.59394 0,-0.39274 -0.181901,-0.60496 -0.181901,-0.21359 -0.501606,-0.21359 z"
         style="font-size:2.82222223px;fill:#ffe4b3;fill-opacity:1;stroke-width:0.26458332"
         id="path1058"
         inkscape:connector-curvature="0" />
      <path
         d="m 34.147786,224.10452 q 0,-0.091 -0.02894,-0.15847 -0.02756,-0.0675 -0.07717,-0.11163 -0.04823,-0.0455 -0.114377,-0.0675 -0.06615,-0.022 -0.143316,-0.022 -0.06615,0 -0.129536,0.0179 -0.06339,0.0179 -0.124023,0.0496 -0.05926,0.0317 -0.115756,0.0758 -0.05512,0.0441 -0.103352,0.0978 v -0.24254 q 0.09508,-0.0923 0.212217,-0.14056 0.118512,-0.0496 0.28801,-0.0496 0.121268,0 0.224621,0.0358 0.103353,0.0344 0.179145,0.10198 0.07579,0.0675 0.118511,0.16674 0.0441,0.0992 0.0441,0.22738 0,0.11713 -0.02756,0.21222 -0.02618,0.0951 -0.0813,0.17914 -0.05374,0.0841 -0.136426,0.16123 -0.08268,0.0772 -0.194303,0.1571 -0.139182,0.0992 -0.230132,0.1695 -0.08957,0.0703 -0.143316,0.13229 -0.05237,0.0606 -0.07441,0.12264 -0.02067,0.0606 -0.02067,0.14056 h 0.983919 v 0.20257 h -1.219564 v -0.0978 q 0,-0.12678 0.02756,-0.22324 0.02756,-0.0965 0.09095,-0.18328 0.06339,-0.0868 0.165364,-0.17363 0.103353,-0.0868 0.252181,-0.19568 0.107487,-0.0772 0.179145,-0.14745 0.07304,-0.0703 0.117134,-0.14056 0.0441,-0.0703 0.06201,-0.14194 0.01929,-0.073 0.01929,-0.15434 z"
         style="font-size:2.82222223px;fill:#ffe4b3;fill-opacity:1;stroke-width:0.26458332"
         id="path1060"
         inkscape:connector-curvature="0" />
    </g>
    <g
       aria-label="Q3"
       style="font-style:normal;font-variant:normal;font-weight:normal;font-stretch:normal;font-size:2.82222223px;line-height:1.25;font-family:'Yu Gothic UI';-inkscape-font-specification:'Yu Gothic UI';letter-spacing:0px;word-spacing:0px;fill:#ffe4b3;fill-opacity:1;stroke:none;stroke-width:0.26458332"
       id="text983"
       transform="translate(4.5447932,8.5431389)">
      <path
         d="m 32.040078,241.47056 q -0.418923,0 -0.673861,-0.27699 -0.252181,-0.27698 -0.252181,-0.72071 0,-0.47818 0.257694,-0.76068 0.259071,-0.28387 0.701421,-0.28387 0.407899,0 0.658702,0.2756 0.250803,0.27561 0.250803,0.72072 0,0.48369 -0.256315,0.76481 -0.06063,0.0675 -0.129535,0.11575 l 0.555349,0.39826 h -0.420302 l -0.37207,-0.27837 q -0.146072,0.0455 -0.319705,0.0455 z m 0.01654,-1.83279 q -0.311437,0 -0.50574,0.22462 -0.194304,0.22462 -0.194304,0.5898 0,0.3638 0.188791,0.58842 0.19017,0.22186 0.494716,0.22186 0.325217,0 0.51263,-0.21221 0.187414,-0.21222 0.187414,-0.59394 0,-0.39274 -0.181901,-0.60496 -0.181902,-0.21359 -0.501606,-0.21359 z"
         style="font-size:2.82222223px;fill:#ffe4b3;fill-opacity:1;stroke-width:0.26458332"
         id="path1053"
         inkscape:connector-curvature="0" />
      <path
         d="m 34.425462,240.878 q 0,0.13367 -0.05099,0.24391 -0.04961,0.10887 -0.141938,0.18742 -0.09095,0.0772 -0.219108,0.11989 -0.128158,0.0427 -0.282498,0.0427 -0.282498,0 -0.44924,-0.10749 v -0.24254 q 0.199815,0.1571 0.457508,0.1571 0.103353,0 0.186035,-0.0262 0.08406,-0.0262 0.143316,-0.0758 0.06063,-0.0496 0.09233,-0.11989 0.03307,-0.0703 0.03307,-0.15848 0,-0.38723 -0.551215,-0.38723 H 33.47875 v -0.19154 h 0.155718 q 0.487826,0 0.487826,-0.36381 0,-0.33624 -0.37207,-0.33624 -0.209462,0 -0.392741,0.14056 v -0.21911 q 0.188791,-0.11299 0.44924,-0.11299 0.124024,0 0.22462,0.0344 0.100597,0.0344 0.172255,0.0965 0.07166,0.062 0.110243,0.14883 0.03996,0.0868 0.03996,0.19154 0,0.38999 -0.394119,0.50161 v 0.006 q 0.100597,0.011 0.186036,0.0496 0.08544,0.0372 0.14745,0.0978 0.06201,0.0606 0.09646,0.14332 0.03583,0.0813 0.03583,0.18052 z"
         style="font-size:2.82222223px;fill:#ffe4b3;fill-opacity:1;stroke-width:0.26458332"
         id="path1055"
         inkscape:connector-curvature="0" />
    </g>
    <g
       aria-label="Q4"
       style="font-style:normal;font-variant:normal;font-weight:normal;font-stretch:normal;font-size:2.82222223px;line-height:1.25;font-family:'Yu Gothic UI';-inkscape-font-specification:'Yu Gothic UI';letter-spacing:0px;word-spacing:0px;fill:#ffe4b3;fill-opacity:1;stroke:none;stroke-width:0.26458332"
       id="text987"
       transform="translate(4.5447947,5.9077484)">
      <path
         d="m 31.984265,258.66848 q -0.418923,0 -0.67386,-0.27699 -0.252181,-0.27698 -0.252181,-0.72071 0,-0.47818 0.257693,-0.76068 0.259071,-0.28387 0.701421,-0.28387 0.4079,0 0.658702,0.2756 0.250803,0.27561 0.250803,0.72072 0,0.48369 -0.256315,0.76481 -0.06063,0.0675 -0.129535,0.11575 l 0.555349,0.39826 H 32.67604 L 32.30397,258.623 q -0.146072,0.0455 -0.319705,0.0455 z m 0.01654,-1.83279 q -0.311437,0 -0.50574,0.22462 -0.194304,0.22462 -0.194304,0.5898 0,0.3638 0.188792,0.58842 0.190169,0.22187 0.494715,0.22187 0.325217,0 0.512631,-0.21222 0.187413,-0.21222 0.187413,-0.59394 0,-0.39274 -0.181901,-0.60496 -0.181901,-0.21359 -0.501606,-0.21359 z"
         style="font-size:2.82222223px;fill:#ffe4b3;fill-opacity:1;stroke-width:0.26458332"
         id="path1048"
         inkscape:connector-curvature="0" />
      <path
         d="m 34.227712,256.6593 v 1.305 h 0.253559 v 0.20671 h -0.253559 v 0.4644 h -0.223243 v -0.4644 h -0.928797 v -0.19568 q 0.129535,-0.14608 0.261827,-0.31144 0.132292,-0.16674 0.252181,-0.33762 0.121267,-0.17088 0.223242,-0.34038 0.103353,-0.17087 0.173633,-0.32659 z m -0.897103,1.305 h 0.67386 v -0.96738 q -0.103353,0.18052 -0.195681,0.32246 -0.09233,0.14194 -0.176389,0.25769 -0.08268,0.11576 -0.158474,0.20946 -0.07579,0.0937 -0.143316,0.17777 z"
         style="font-size:2.82222223px;fill:#ffe4b3;fill-opacity:1;stroke-width:0.26458332"
         id="path1050"
         inkscape:connector-curvature="0" />
    </g>
    <g
       aria-label="P1"
       style="font-style:normal;font-variant:normal;font-weight:normal;font-stretch:normal;font-size:2.82222223px;line-height:1.25;font-family:'Yu Gothic UI';-inkscape-font-specification:'Yu Gothic UI';letter-spacing:0px;word-spacing:0px;fill:#ffe4b3;fill-opacity:1;stroke:none;stroke-width:0.26575384"
       id="text1013"
       transform="matrix(1,0,0,0.9912104,-1.3408276,13.017541)">
      <path
         d="m 24.224526,208.94059 v 0.74689 h -0.231511 v -1.9761 h 0.542947 q 0.316949,0 0.490582,0.15434 0.175011,0.15434 0.175011,0.43546 0,0.28112 -0.194304,0.46026 -0.192925,0.17915 -0.522276,0.17915 z m 0,-1.01975 v 0.81029 h 0.242534 q 0.239779,0 0.36518,-0.10887 0.12678,-0.11024 0.12678,-0.31006 0,-0.39136 -0.463021,-0.39136 z"
         style="font-size:2.82222223px;fill:#ffe4b3;fill-opacity:1;stroke-width:0.26575384"
         id="path1043"
         inkscape:connector-curvature="0" />
      <path
         d="m 26.313631,209.68748 h -0.225998 v -1.70738 q -0.02618,0.0262 -0.07717,0.0606 -0.04961,0.0331 -0.112999,0.0661 -0.06201,0.0331 -0.132292,0.062 -0.0689,0.0289 -0.135047,0.0455 v -0.22875 q 0.07441,-0.0207 0.157096,-0.0551 0.08406,-0.0358 0.163986,-0.0785 0.08131,-0.0441 0.152963,-0.091 0.07166,-0.0482 0.124023,-0.0937 h 0.08544 z"
         style="font-size:2.82222223px;fill:#ffe4b3;fill-opacity:1;stroke-width:0.26575384"
         id="path1045"
         inkscape:connector-curvature="0" />
    </g>
    <g
       aria-label="P2"
       style="font-style:normal;font-variant:normal;font-weight:normal;font-stretch:normal;font-size:2.82222223px;line-height:1.25;font-family:'Yu Gothic UI';-inkscape-font-specification:'Yu Gothic UI';letter-spacing:0px;word-spacing:0px;fill:#ffe4b3;fill-opacity:1;stroke:none;stroke-width:0.26458332"
       id="text1017"
       transform="translate(-1.3408281,9.8628103)">
      <path
         d="m 24.03849,224.81559 v 0.74689 h -0.23151 v -1.9761 h 0.542947 q 0.316949,0 0.490582,0.15434 0.17501,0.15434 0.17501,0.43546 0,0.28112 -0.194303,0.46026 -0.192925,0.17915 -0.522276,0.17915 z m 0,-1.01975 v 0.81029 h 0.242535 q 0.239779,0 0.36518,-0.10887 0.12678,-0.11024 0.12678,-0.31006 0,-0.39136 -0.463021,-0.39136 z"
         style="font-size:2.82222223px;fill:#ffe4b3;fill-opacity:1;stroke-width:0.26458332"
         id="path1038"
         inkscape:connector-curvature="0" />
      <path
         d="m 26.193742,224.10452 q 0,-0.091 -0.02894,-0.15847 -0.02756,-0.0675 -0.07717,-0.11163 -0.04823,-0.0455 -0.114377,-0.0675 -0.06615,-0.022 -0.143316,-0.022 -0.06615,0 -0.129536,0.0179 -0.06339,0.0179 -0.124023,0.0496 -0.05926,0.0317 -0.115755,0.0758 -0.05512,0.0441 -0.103353,0.0978 v -0.24254 q 0.09509,-0.0923 0.212218,-0.14056 0.118511,-0.0496 0.28801,-0.0496 0.121267,0 0.22462,0.0358 0.103353,0.0344 0.179145,0.10198 0.07579,0.0675 0.118511,0.16674 0.0441,0.0992 0.0441,0.22738 0,0.11713 -0.02756,0.21222 -0.02618,0.0951 -0.08131,0.17914 -0.05374,0.0841 -0.136425,0.16123 -0.08268,0.0772 -0.194304,0.1571 -0.139182,0.0992 -0.230132,0.1695 -0.08957,0.0703 -0.143316,0.13229 -0.05236,0.0606 -0.07441,0.12264 -0.02067,0.0606 -0.02067,0.14056 h 0.98392 v 0.20257 h -1.219564 v -0.0978 q 0,-0.12678 0.02756,-0.22324 0.02756,-0.0965 0.09095,-0.18328 0.06339,-0.0868 0.165365,-0.17363 0.103353,-0.0868 0.252181,-0.19568 0.107487,-0.0772 0.179145,-0.14745 0.07304,-0.0703 0.117133,-0.14056 0.0441,-0.0703 0.06201,-0.14194 0.01929,-0.073 0.01929,-0.15434 z"
         style="font-size:2.82222223px;fill:#ffe4b3;fill-opacity:1;stroke-width:0.26458332"
         id="path1040"
         inkscape:connector-curvature="0" />
    </g>
    <g
       aria-label="P3"
       style="font-style:normal;font-variant:normal;font-weight:normal;font-stretch:normal;font-size:2.82222223px;line-height:1.25;font-family:'Yu Gothic UI';-inkscape-font-specification:'Yu Gothic UI';letter-spacing:0px;word-spacing:0px;fill:#ffe4b3;fill-opacity:1;stroke:none;stroke-width:0.26458332"
       id="text1021"
       transform="translate(-1.3408291,8.5431389)">
      <path
         d="m 24.066742,240.69059 v 0.74689 h -0.23151 v -1.9761 h 0.542947 q 0.316948,0 0.490581,0.15434 0.175011,0.15434 0.175011,0.43546 0,0.28112 -0.194303,0.46026 -0.192926,0.17915 -0.522277,0.17915 z m 0,-1.01975 v 0.81029 h 0.242535 q 0.239778,0 0.36518,-0.10887 0.126779,-0.11024 0.126779,-0.31006 0,-0.39136 -0.46302,-0.39136 z"
         style="font-size:2.82222223px;fill:#ffe4b3;fill-opacity:1;stroke-width:0.26458332"
         id="path1033"
         inkscape:connector-curvature="0" />
      <path
         d="m 26.471419,240.878 q 0,0.13367 -0.05099,0.24391 -0.04961,0.10887 -0.141938,0.18742 -0.09095,0.0772 -0.219108,0.11989 -0.128157,0.0427 -0.282498,0.0427 -0.282497,0 -0.44924,-0.10749 v -0.24254 q 0.199816,0.1571 0.457509,0.1571 0.103353,0 0.186035,-0.0262 0.08406,-0.0262 0.143316,-0.0758 0.06063,-0.0496 0.09233,-0.11989 0.03307,-0.0703 0.03307,-0.15848 0,-0.38723 -0.551215,-0.38723 h -0.163987 v -0.19154 h 0.155719 q 0.487825,0 0.487825,-0.36381 0,-0.33624 -0.37207,-0.33624 -0.209462,0 -0.392741,0.14056 v -0.21911 q 0.188791,-0.11299 0.449241,-0.11299 0.124023,0 0.22462,0.0344 0.100597,0.0344 0.172255,0.0965 0.07166,0.062 0.110243,0.14883 0.03996,0.0868 0.03996,0.19154 0,0.38999 -0.394119,0.50161 v 0.006 q 0.100597,0.011 0.186035,0.0496 0.08544,0.0372 0.14745,0.0978 0.06201,0.0606 0.09646,0.14332 0.03583,0.0813 0.03583,0.18052 z"
         style="font-size:2.82222223px;fill:#ffe4b3;fill-opacity:1;stroke-width:0.26458332"
         id="path1035"
         inkscape:connector-curvature="0" />
    </g>
    <g
       aria-label="P4"
       style="font-style:normal;font-variant:normal;font-weight:normal;font-stretch:normal;font-size:2.82222223px;line-height:1.25;font-family:'Yu Gothic UI';-inkscape-font-specification:'Yu Gothic UI';letter-spacing:0px;word-spacing:0px;fill:#ffe4b3;fill-opacity:1;stroke:none;stroke-width:0.26458332"
       id="text1025"
       transform="translate(-1.3408266,5.8746784)">
      <path
         d="m 24.010929,257.88851 v 0.7469 h -0.23151 v -1.97611 h 0.542947 q 0.316949,0 0.490581,0.15434 0.175011,0.15434 0.175011,0.43546 0,0.28112 -0.194303,0.46026 -0.192925,0.17915 -0.522277,0.17915 z m 0,-1.01975 v 0.81029 h 0.242535 q 0.239779,0 0.36518,-0.10887 0.12678,-0.11024 0.12678,-0.31006 0,-0.39136 -0.463021,-0.39136 z"
         style="font-size:2.82222223px;fill:#ffe4b3;fill-opacity:1;stroke-width:0.26458332"
         id="path1027"
         inkscape:connector-curvature="0" />
      <path
         d="m 26.273668,256.6593 v 1.305 h 0.253559 v 0.20671 h -0.253559 v 0.4644 h -0.223242 v -0.4644 h -0.928798 v -0.19568 q 0.129536,-0.14608 0.261827,-0.31144 0.132292,-0.16674 0.252181,-0.33762 0.121268,-0.17088 0.223242,-0.34038 0.103353,-0.17087 0.173633,-0.32659 z m -0.897103,1.305 h 0.673861 v -0.96738 q -0.103353,0.18052 -0.195682,0.32246 -0.09233,0.14194 -0.176389,0.25769 -0.08268,0.11576 -0.158474,0.20946 -0.07579,0.0937 -0.143316,0.17777 z"
         style="font-size:2.82222223px;fill:#ffe4b3;fill-opacity:1;stroke-width:0.26458332"
         id="path1030"
         inkscape:connector-curvature="0" />
    </g>
    <g
       aria-label="PRESET EN."
       style="font-style:normal;font-variant:normal;font-weight:normal;font-stretch:normal;font-size:2.82222223px;line-height:1.25;font-family:'Yu Gothic UI';-inkscape-font-specification:'Yu Gothic UI';letter-spacing:0px;word-spacing:0px;fill:#ffe4b3;fill-opacity:1;stroke:none;stroke-width:0.26458332"
       id="text1070"
       transform="translate(0,-0.034328)">
      <path
         d="m 17.236498,205.5902 v 0.7469 h -0.23151 v -1.97611 h 0.542947 q 0.316948,0 0.490581,0.15434 0.175011,0.15434 0.175011,0.43546 0,0.28112 -0.194303,0.46027 -0.192926,0.17914 -0.522277,0.17914 z m 0,-1.01975 v 0.81029 h 0.242535 q 0.239778,0 0.36518,-0.10887 0.126779,-0.11024 0.126779,-0.31005 0,-0.39137 -0.463021,-0.39137 z"
         style="font-size:2.82222223px;fill:#ffe4b3;fill-opacity:1;stroke-width:0.26458332"
         id="path1304"
         inkscape:connector-curvature="0" />
      <path
         d="m 20.003599,206.3371 h -0.275608 l -0.330729,-0.55397 q -0.04547,-0.0772 -0.0882,-0.13092 -0.04272,-0.0551 -0.08819,-0.0896 -0.0441,-0.0344 -0.09646,-0.0496 -0.05099,-0.0165 -0.115755,-0.0165 h -0.190169 v 0.84061 h -0.231511 v -1.97611 h 0.589801 q 0.129535,0 0.2384,0.0331 0.110243,0.0317 0.19017,0.0978 0.0813,0.0662 0.126779,0.16537 0.04547,0.0978 0.04547,0.23013 0,0.10335 -0.03169,0.19017 -0.03032,0.0854 -0.0882,0.15296 -0.0565,0.0675 -0.137804,0.11576 -0.07993,0.0468 -0.180523,0.073 v 0.006 q 0.04961,0.022 0.08544,0.051 0.03721,0.0276 0.07028,0.0661 0.03307,0.0386 0.06477,0.0882 0.03307,0.0482 0.07304,0.113 z m -1.185113,-1.76665 v 0.71658 h 0.314193 q 0.08682,0 0.159852,-0.0262 0.07441,-0.0262 0.128158,-0.0744 0.05374,-0.0496 0.08406,-0.11989 0.03032,-0.0717 0.03032,-0.15986 0,-0.15847 -0.103353,-0.24667 -0.101975,-0.0896 -0.296278,-0.0896 z"
         style="font-size:2.82222223px;fill:#ffe4b3;fill-opacity:1;stroke-width:0.26458332"
         id="path1306"
         inkscape:connector-curvature="0" />
      <path
         d="m 21.321003,206.3371 h -1.047309 v -1.97611 h 1.003212 v 0.20946 h -0.771701 v 0.65733 h 0.713823 v 0.20808 h -0.713823 v 0.69178 h 0.815798 z"
         style="font-size:2.82222223px;fill:#ffe4b3;fill-opacity:1;stroke-width:0.26458332"
         id="path1308"
         inkscape:connector-curvature="0" />
      <path
         d="m 21.609013,206.25717 v -0.27285 q 0.04685,0.0413 0.111621,0.0744 0.06615,0.0331 0.137804,0.0565 0.07304,0.0221 0.146072,0.0344 0.07304,0.0124 0.135048,0.0124 0.213596,0 0.318326,-0.0786 0.106109,-0.0799 0.106109,-0.22876 0,-0.0799 -0.03583,-0.13918 -0.03445,-0.0592 -0.09646,-0.10749 -0.06201,-0.0496 -0.14745,-0.0937 -0.08406,-0.0455 -0.181901,-0.0951 -0.103353,-0.0524 -0.192926,-0.10611 -0.08957,-0.0537 -0.155718,-0.11851 -0.06615,-0.0648 -0.104731,-0.14607 -0.03721,-0.0827 -0.03721,-0.19292 0,-0.13505 0.05926,-0.23427 0.05926,-0.1006 0.155718,-0.16536 0.09646,-0.0648 0.219108,-0.0965 0.124023,-0.0317 0.252181,-0.0317 0.292144,0 0.425814,0.0703 v 0.26045 q -0.175011,-0.12127 -0.449241,-0.12127 -0.07579,0 -0.151584,0.0165 -0.07579,0.0152 -0.135048,0.051 -0.05926,0.0358 -0.09646,0.0923 -0.03721,0.0565 -0.03721,0.13781 0,0.0758 0.02756,0.13091 0.02894,0.0551 0.08406,0.1006 0.05512,0.0455 0.13367,0.0882 0.07993,0.0427 0.183279,0.0937 0.106109,0.0524 0.201193,0.11024 0.09509,0.0579 0.166743,0.12816 0.07166,0.0703 0.112999,0.15572 0.04272,0.0854 0.04272,0.19568 0,0.14607 -0.05788,0.24804 -0.0565,0.1006 -0.15434,0.16399 -0.09646,0.0634 -0.223242,0.0909 -0.126779,0.0289 -0.267339,0.0289 -0.04685,0 -0.115756,-0.008 -0.0689,-0.007 -0.140559,-0.022 -0.07166,-0.0138 -0.136426,-0.0345 -0.06339,-0.022 -0.101975,-0.0482 z"
         style="font-size:2.82222223px;fill:#ffe4b3;fill-opacity:1;stroke-width:0.26458332"
         id="path1310"
         inkscape:connector-curvature="0" />
      <path
         d="m 24.247956,206.3371 h -1.047309 v -1.97611 h 1.003212 v 0.20946 h -0.771701 v 0.65733 h 0.713823 v 0.20808 h -0.713823 v 0.69178 h 0.815798 z"
         style="font-size:2.82222223px;fill:#ffe4b3;fill-opacity:1;stroke-width:0.26458332"
         id="path1312"
         inkscape:connector-curvature="0" />
      <path
         d="m 25.796871,204.57045 h -0.570508 v 1.76665 h -0.23151 v -1.76665 h -0.56913 v -0.20946 h 1.371148 z"
         style="font-size:2.82222223px;fill:#ffe4b3;fill-opacity:1;stroke-width:0.26458332"
         id="path1314"
         inkscape:connector-curvature="0" />
      <path
         d="m 27.924562,206.3371 h -1.047309 v -1.97611 h 1.003212 v 0.20946 h -0.771701 v 0.65733 h 0.713824 v 0.20808 h -0.713824 v 0.69178 h 0.815798 z"
         style="font-size:2.82222223px;fill:#ffe4b3;fill-opacity:1;stroke-width:0.26458332"
         id="path1316"
         inkscape:connector-curvature="0" />
      <path
         d="m 29.897913,206.3371 h -0.283876 l -1.016992,-1.5751 q -0.03859,-0.0593 -0.06339,-0.12402 h -0.0083 q 0.01102,0.0634 0.01102,0.27147 v 1.42765 h -0.23151 v -1.97611 h 0.300412 l 0.989432,1.55029 q 0.06201,0.0965 0.07993,0.1323 h 0.0055 q -0.01378,-0.0854 -0.01378,-0.29077 v -1.39182 h 0.23151 z"
         style="font-size:2.82222223px;fill:#ffe4b3;fill-opacity:1;stroke-width:0.26458332"
         id="path1318"
         inkscape:connector-curvature="0" />
      <path
         d="m 30.464287,206.36741 q -0.06339,0 -0.108865,-0.0455 -0.0441,-0.0455 -0.0441,-0.10887 0,-0.0634 0.0441,-0.10886 0.04547,-0.0469 0.108865,-0.0469 0.06477,0 0.110243,0.0469 0.04547,0.0455 0.04547,0.10886 0,0.0634 -0.04547,0.10887 -0.04547,0.0455 -0.110243,0.0455 z"
         style="font-size:2.82222223px;fill:#ffe4b3;fill-opacity:1;stroke-width:0.26458332"
         id="path1320"
         inkscape:connector-curvature="0" />
    </g>
    <g
       aria-label="UP/DOWN"
       style="font-style:normal;font-variant:normal;font-weight:normal;font-stretch:normal;font-size:2.82222223px;line-height:1.25;font-family:'Yu Gothic UI';-inkscape-font-specification:'Yu Gothic UI';letter-spacing:0px;word-spacing:0px;fill:#ffe4b3;fill-opacity:1;stroke:none;stroke-width:0.26458332"
       id="text1074"
       transform="translate(-5.3812387,49.533983)">
      <path
         d="m 8.3192163,228.73197 q 0,0.83234 -0.7510309,0.83234 -0.7193359,0 -0.7193359,-0.80064 v -1.20854 h 0.2315104 v 1.19338 q 0,0.60771 0.5126302,0.60771 0.4947158,0 0.4947158,-0.58704 v -1.21405 h 0.2315104 z"
         style="font-size:2.82222223px;fill:#ffe4b3;fill-opacity:1;stroke-width:0.26458332"
         id="path1076"
         inkscape:connector-curvature="0" />
      <path
         d="m 9.0454424,228.78434 v 0.74689 H 8.813932 v -1.9761 h 0.5429471 q 0.3169487,0 0.4905816,0.15434 0.1750113,0.15434 0.1750113,0.43546 0,0.28112 -0.1943039,0.46026 -0.1929253,0.17915 -0.5222765,0.17915 z m 0,-1.01975 v 0.81029 h 0.2425348 q 0.2397786,0 0.3651801,-0.10887 0.1267795,-0.11024 0.1267795,-0.31006 0,-0.39136 -0.4630208,-0.39136 z"
         style="font-size:2.82222223px;fill:#ffe4b3;fill-opacity:1;stroke-width:0.26458332"
         id="path1078"
         inkscape:connector-curvature="0" />
      <path
         d="m 11.257194,227.55513 -0.948091,2.30408 h -0.210839 l 0.945334,-2.30408 z"
         style="font-size:2.82222223px;fill:#ffe4b3;fill-opacity:1;stroke-width:0.26458332"
         id="path1080"
         inkscape:connector-curvature="0" />
      <path
         d="m 11.49835,229.53123 v -1.9761 h 0.545704 q 1.044553,0 1.044553,0.96325 0,0.45751 -0.290767,0.73587 -0.289388,0.27698 -0.775835,0.27698 z m 0.231511,-1.76664 v 1.55718 h 0.2949 q 0.388607,0 0.604959,-0.20808 0.216352,-0.20808 0.216352,-0.5898 0,-0.7593 -0.807531,-0.7593 z"
         style="font-size:2.82222223px;fill:#ffe4b3;fill-opacity:1;stroke-width:0.26458332"
         id="path1082"
         inkscape:connector-curvature="0" />
      <path
         d="m 14.273719,229.56431 q -0.420301,0 -0.67386,-0.27699 -0.252181,-0.27698 -0.252181,-0.72071 0,-0.4768 0.257693,-0.76068 0.257693,-0.28387 0.701421,-0.28387 0.409278,0 0.658702,0.2756 0.250803,0.27561 0.250803,0.72072 0,0.48369 -0.256315,0.76481 -0.256315,0.28112 -0.686263,0.28112 z m 0.01654,-1.83279 q -0.311437,0 -0.50574,0.22462 -0.194304,0.22462 -0.194304,0.5898 0,0.36518 0.188792,0.58842 0.190169,0.22186 0.494715,0.22186 0.325217,0 0.512631,-0.21221 0.187413,-0.21222 0.187413,-0.59394 0,-0.39136 -0.181901,-0.60496 -0.181901,-0.21359 -0.501606,-0.21359 z"
         style="font-size:2.82222223px;fill:#ffe4b3;fill-opacity:1;stroke-width:0.26458332"
         id="path1084"
         inkscape:connector-curvature="0" />
      <path
         d="m 17.903472,227.55513 -0.558105,1.9761 h -0.271474 l -0.406521,-1.44418 q -0.02618,-0.0923 -0.03169,-0.20119 h -0.0055 q -0.0083,0.10197 -0.03583,0.19843 l -0.409278,1.44694 h -0.268717 l -0.578776,-1.9761 h 0.254937 l 0.420302,1.51584 q 0.02618,0.0951 0.03307,0.19844 h 0.0069 q 0.0069,-0.073 0.04272,-0.19844 l 0.436838,-1.51584 h 0.221864 l 0.418924,1.52686 q 0.02205,0.0786 0.03307,0.18466 h 0.0055 q 0.0055,-0.0717 0.03721,-0.19017 l 0.403765,-1.52135 z"
         style="font-size:2.82222223px;fill:#ffe4b3;fill-opacity:1;stroke-width:0.26458332"
         id="path1086"
         inkscape:connector-curvature="0" />
      <path
         d="m 19.788629,229.53123 h -0.283876 l -1.016992,-1.57509 q -0.03858,-0.0593 -0.06339,-0.12403 h -0.0083 q 0.01102,0.0634 0.01102,0.27148 v 1.42764 h -0.23151 v -1.9761 h 0.300412 l 0.989431,1.55029 q 0.06201,0.0965 0.07993,0.13229 h 0.0055 q -0.01378,-0.0854 -0.01378,-0.29076 v -1.39182 h 0.231511 z"
         style="font-size:2.82222223px;fill:#ffe4b3;fill-opacity:1;stroke-width:0.26458332"
         id="path1088"
         inkscape:connector-curvature="0" />
    </g>
    <g
       aria-label="CD4516"
       style="font-style:normal;font-variant:normal;font-weight:600;font-stretch:normal;font-size:3.52777767px;line-height:1.25;font-family:'Yu Gothic UI';-inkscape-font-specification:'Yu Gothic UI Semi-Bold';letter-spacing:0px;word-spacing:0px;fill:#ffe4b3;fill-opacity:1;stroke:none;stroke-width:0.26458332"
       id="text1131"
       transform="translate(-13.229166)">
      <path
         d="m 33.013488,199.93687 q -0.279052,0.14469 -0.694186,0.14469 -0.537435,0 -0.861274,-0.33934 -0.323839,-0.33934 -0.323839,-0.89056 0,-0.59255 0.363457,-0.95773 0.36518,-0.36518 0.921563,-0.36518 0.35829,0 0.594279,0.10163 v 0.40652 q -0.249769,-0.14814 -0.551215,-0.14814 -0.401354,0 -0.651123,0.25666 -0.248047,0.25666 -0.248047,0.68557 0,0.40825 0.232544,0.65113 0.232544,0.24115 0.611504,0.24115 0.349678,0 0.606337,-0.16536 z"
         style="font-style:normal;font-variant:normal;font-weight:600;font-stretch:normal;font-size:3.52777767px;font-family:'Yu Gothic UI';-inkscape-font-specification:'Yu Gothic UI Semi-Bold';fill:#ffe4b3;fill-opacity:1;stroke-width:0.26458332"
         id="path1200"
         inkscape:connector-curvature="0" />
      <path
         d="m 33.482021,200.04022 v -2.47013 h 0.713135 q 1.36598,0 1.36598,1.20406 0,0.57189 -0.37896,0.91984 -0.378961,0.34623 -1.016303,0.34623 z m 0.408244,-2.12218 v 1.77595 h 0.327284 q 0.432359,0 0.671794,-0.23771 0.241156,-0.23771 0.241156,-0.6718 0,-0.86644 -0.897447,-0.86644 z"
         style="font-style:normal;font-variant:normal;font-weight:600;font-stretch:normal;font-size:3.52777767px;font-family:'Yu Gothic UI';-inkscape-font-specification:'Yu Gothic UI Semi-Bold';fill:#ffe4b3;fill-opacity:1;stroke-width:0.26458332"
         id="path1202"
         inkscape:connector-curvature="0" />
      <path
         d="m 37.30091,197.57009 v 1.59508 h 0.366902 v 0.33245 H 37.30091 v 0.5426 h -0.387573 v -0.5426 h -1.117934 v -0.3359 q 0.151584,-0.17053 0.310059,-0.36862 0.160197,-0.19982 0.306613,-0.40652 0.148139,-0.20843 0.273885,-0.41686 0.125746,-0.20843 0.211874,-0.39963 z m -0.387573,1.59508 v -1.03698 q -0.187758,0.33762 -0.372071,0.58912 -0.18259,0.25149 -0.342787,0.44786 z"
         style="font-style:normal;font-variant:normal;font-weight:600;font-stretch:normal;font-size:3.52777767px;font-family:'Yu Gothic UI';-inkscape-font-specification:'Yu Gothic UI Semi-Bold';fill:#ffe4b3;fill-opacity:1;stroke-width:0.26458332"
         id="path1204"
         inkscape:connector-curvature="0" />
      <path
         d="m 38.005432,199.98338 v -0.38413 q 0.242879,0.16364 0.492648,0.16364 0.251492,0 0.404799,-0.12747 0.153307,-0.12919 0.153307,-0.34278 0,-0.21015 -0.156752,-0.32729 -0.155029,-0.11713 -0.44614,-0.11713 -0.09991,0 -0.404799,0.0207 l 0.08785,-1.2988 h 1.216119 v 0.34106 h -0.883667 l -0.04134,0.6184 q 0.118856,-0.007 0.215318,-0.007 0.392741,0 0.606337,0.20154 0.215318,0.20153 0.215318,0.55121 0,0.3669 -0.246324,0.58911 -0.244602,0.22049 -0.673516,0.22049 -0.361735,0 -0.539157,-0.10163 z"
         style="font-style:normal;font-variant:normal;font-weight:600;font-stretch:normal;font-size:3.52777767px;font-family:'Yu Gothic UI';-inkscape-font-specification:'Yu Gothic UI Semi-Bold';fill:#ffe4b3;fill-opacity:1;stroke-width:0.26458332"
         id="path1206"
         inkscape:connector-curvature="0" />
      <path
         d="m 40.754617,197.51497 v 2.52525 h -0.399631 v -2.03605 q -0.10852,0.0775 -0.234266,0.13264 -0.124024,0.0534 -0.284221,0.0947 v -0.34107 q 0.09991,-0.0327 0.192926,-0.0689 0.09302,-0.0362 0.18259,-0.081 0.0913,-0.0448 0.18259,-0.0999 0.09302,-0.0551 0.191203,-0.12574 z"
         style="font-style:normal;font-variant:normal;font-weight:600;font-stretch:normal;font-size:3.52777767px;font-family:'Yu Gothic UI';-inkscape-font-specification:'Yu Gothic UI Semi-Bold';fill:#ffe4b3;fill-opacity:1;stroke-width:0.26458332"
         id="path1208"
         inkscape:connector-curvature="0" />
      <path
         d="m 42.949143,199.24613 q 0,0.18603 -0.06201,0.33934 -0.06029,0.15331 -0.168809,0.26527 -0.108521,0.11024 -0.258383,0.17226 -0.148139,0.0603 -0.322116,0.0603 -0.186035,0 -0.342787,-0.0724 -0.155029,-0.0724 -0.268717,-0.21532 -0.111966,-0.14297 -0.173978,-0.35484 -0.06201,-0.2136 -0.06201,-0.49438 0,-0.34278 0.08096,-0.60805 0.08268,-0.26528 0.225654,-0.44442 0.142972,-0.17915 0.335897,-0.27216 0.192925,-0.093 0.416856,-0.093 0.139527,0 0.253215,0.0189 0.115411,0.0189 0.184313,0.0517 v 0.36001 q -0.08785,-0.0448 -0.187758,-0.0758 -0.09991,-0.031 -0.229099,-0.031 -0.144694,0 -0.266995,0.0586 -0.122301,0.0586 -0.211873,0.17226 -0.08785,0.11196 -0.139527,0.27905 -0.04995,0.16537 -0.05168,0.38241 h 0.01033 q 0.07924,-0.1223 0.213596,-0.19293 0.136081,-0.0706 0.318671,-0.0706 0.16192,0 0.291111,0.0534 0.130914,0.0517 0.222209,0.15158 0.09302,0.0982 0.142971,0.24116 0.04995,0.14125 0.04995,0.31867 z m -0.403076,0.0327 q 0,-0.1068 -0.02584,-0.19465 -0.02412,-0.0879 -0.07579,-0.14986 -0.04995,-0.0637 -0.127469,-0.0982 -0.07579,-0.0344 -0.179145,-0.0344 -0.103353,0 -0.18259,0.0379 -0.07751,0.0362 -0.130914,0.0965 -0.0534,0.0603 -0.08096,0.1378 -0.02584,0.0775 -0.02584,0.15848 0,0.0879 0.02412,0.18086 0.02584,0.0913 0.07752,0.16709 0.05168,0.0758 0.130913,0.12575 0.08096,0.0482 0.191203,0.0482 0.09819,0 0.173977,-0.0362 0.07579,-0.0362 0.125746,-0.0999 0.05168,-0.0637 0.07752,-0.14986 0.02756,-0.0879 0.02756,-0.18948 z"
         style="font-style:normal;font-variant:normal;font-weight:600;font-stretch:normal;font-size:3.52777767px;font-family:'Yu Gothic UI';-inkscape-font-specification:'Yu Gothic UI Semi-Bold';fill:#ffe4b3;fill-opacity:1;stroke-width:0.26458332"
         id="path1210"
         inkscape:connector-curvature="0" />
    </g>
    <g
       aria-label="PRESETTABLE BINARY UP/DOWN COUNTER"
       style="font-style:normal;font-variant:normal;font-weight:normal;font-stretch:normal;font-size:2.11666656px;line-height:1.25;font-family:'Yu Gothic UI';-inkscape-font-specification:'Yu Gothic UI';letter-spacing:0px;word-spacing:0px;fill:#ffe4b3;fill-opacity:1;stroke:none;stroke-width:0.26458332"
       id="text1135"
       transform="translate(-0.6821277,-2.1968626)">
      <path
         d="m 4.3366862,203.83564 v 0.56017 H 4.1630534 v -1.48208 h 0.4072102 q 0.2377116,0 0.3679362,0.11576 0.1312581,0.11575 0.1312581,0.32659 0,0.21084 -0.1457275,0.3452 -0.144694,0.13436 -0.3917073,0.13436 z m 0,-0.76481 v 0.60771 h 0.181901 q 0.179834,0 0.2738851,-0.0816 0.095085,-0.0827 0.095085,-0.23255 0,-0.29352 -0.3472656,-0.29352 z"
         style="font-size:2.11666656px;fill:#ffe4b3;fill-opacity:1;stroke-width:0.26458332"
         id="path1137"
         inkscape:connector-curvature="0" />
      <path
         d="M 6.4120115,204.39581 H 6.2053058 L 5.957259,203.98033 q -0.034107,-0.0579 -0.066146,-0.0982 -0.032039,-0.0413 -0.066146,-0.0672 -0.033073,-0.0258 -0.072347,-0.0372 -0.038241,-0.0124 -0.086816,-0.0124 H 5.523177 v 0.63045 H 5.3495441 v -1.48208 h 0.4423503 q 0.097152,0 0.1788004,0.0248 0.082682,0.0238 0.142627,0.0734 0.060978,0.0496 0.095085,0.12402 0.034107,0.0734 0.034107,0.1726 0,0.0775 -0.023771,0.14263 -0.022738,0.0641 -0.066146,0.11472 -0.042375,0.0506 -0.1033529,0.0868 -0.059945,0.0351 -0.1353922,0.0548 v 0.004 q 0.037207,0.0165 0.064079,0.0382 0.027905,0.0207 0.05271,0.0496 0.024805,0.0289 0.048576,0.0661 0.024805,0.0362 0.054777,0.0847 z M 5.523177,203.07083 v 0.53743 h 0.2356445 q 0.065112,0 0.1198893,-0.0196 0.05581,-0.0196 0.096118,-0.0558 0.040308,-0.0372 0.063045,-0.0899 0.022738,-0.0537 0.022738,-0.11989 0,-0.11886 -0.077515,-0.185 -0.076481,-0.0672 -0.2222087,-0.0672 z"
         style="font-size:2.11666656px;fill:#ffe4b3;fill-opacity:1;stroke-width:0.26458332"
         id="path1139"
         inkscape:connector-curvature="0" />
      <path
         d="M 7.4000648,204.39581 H 6.6145831 v -1.48208 h 0.7524088 v 0.1571 h -0.578776 v 0.49299 h 0.5353678 v 0.15607 H 6.7882159 v 0.51883 h 0.6118489 z"
         style="font-size:2.11666656px;fill:#ffe4b3;fill-opacity:1;stroke-width:0.26458332"
         id="path1141"
         inkscape:connector-curvature="0" />
      <path
         d="m 7.6160724,204.33587 v -0.20464 q 0.03514,0.031 0.083716,0.0558 0.049609,0.0248 0.1033529,0.0424 0.054777,0.0165 0.109554,0.0258 0.054777,0.009 0.1012858,0.009 0.1601969,0 0.2387451,-0.0589 0.079582,-0.0599 0.079582,-0.17156 0,-0.0599 -0.026872,-0.10439 -0.025838,-0.0444 -0.072347,-0.0806 -0.046509,-0.0372 -0.1105876,-0.0703 -0.063045,-0.0341 -0.1364258,-0.0713 -0.077515,-0.0393 -0.144694,-0.0796 -0.067179,-0.0403 -0.1167887,-0.0889 -0.049609,-0.0486 -0.078548,-0.10956 -0.027905,-0.062 -0.027905,-0.14469 0,-0.10129 0.044442,-0.1757 0.044442,-0.0754 0.1167887,-0.12402 0.072347,-0.0486 0.1643311,-0.0724 0.093017,-0.0238 0.1891357,-0.0238 0.2191081,0 0.3193603,0.0527 v 0.19534 q -0.1312581,-0.091 -0.3369303,-0.091 -0.056844,0 -0.1136881,0.0124 -0.056844,0.0114 -0.1012858,0.0382 -0.044442,0.0269 -0.072347,0.0692 -0.027905,0.0424 -0.027905,0.10336 0,0.0568 0.020671,0.0982 0.021704,0.0413 0.063045,0.0755 0.041341,0.0341 0.1002523,0.0661 0.059945,0.032 0.1374593,0.0703 0.079582,0.0393 0.1508951,0.0827 0.071314,0.0434 0.125057,0.0961 0.053743,0.0527 0.084749,0.11678 0.032039,0.0641 0.032039,0.14677 0,0.10955 -0.043408,0.18603 -0.042375,0.0755 -0.1157552,0.12299 -0.072347,0.0475 -0.1674316,0.0682 -0.095085,0.0217 -0.2005045,0.0217 -0.03514,0 -0.086816,-0.006 -0.051677,-0.005 -0.10542,-0.0165 -0.053743,-0.0103 -0.1023193,-0.0258 -0.047542,-0.0165 -0.076481,-0.0362 z"
         style="font-size:2.11666656px;fill:#ffe4b3;fill-opacity:1;stroke-width:0.26458332"
         id="path1143"
         inkscape:connector-curvature="0" />
      <path
         d="M 9.5952794,204.39581 H 8.8097976 v -1.48208 h 0.7524088 v 0.1571 h -0.578776 v 0.49299 h 0.5353678 v 0.15607 H 8.9834304 v 0.51883 h 0.611849 z"
         style="font-size:2.11666656px;fill:#ffe4b3;fill-opacity:1;stroke-width:0.26458332"
         id="path1145"
         inkscape:connector-curvature="0" />
      <path
         d="m 10.756965,203.07083 h -0.427881 v 1.32498 h -0.173632 v -1.32498 H 9.7286044 v -0.1571 h 1.0283606 z"
         style="font-size:2.11666656px;fill:#ffe4b3;fill-opacity:1;stroke-width:0.26458332"
         id="path1147"
         inkscape:connector-curvature="0" />
      <path
         d="m 11.864908,203.07083 h -0.42788 v 1.32498 h -0.173633 v -1.32498 h -0.426848 v -0.1571 h 1.028361 z"
         style="font-size:2.11666656px;fill:#ffe4b3;fill-opacity:1;stroke-width:0.26458332"
         id="path1149"
         inkscape:connector-curvature="0" />
      <path
         d="m 13.169221,204.39581 h -0.192236 l -0.157096,-0.41548 h -0.628386 l -0.147794,0.41548 h -0.19327 l 0.56844,-1.48208 h 0.179834 z m -0.406177,-0.57154 -0.232543,-0.63148 q -0.01137,-0.031 -0.02274,-0.0992 h -0.0041 q -0.01033,0.063 -0.02377,0.0992 l -0.230477,0.63148 z"
         style="font-size:2.11666656px;fill:#ffe4b3;fill-opacity:1;stroke-width:0.26458332"
         id="path1151"
         inkscape:connector-curvature="0" />
      <path
         d="m 13.386263,204.39581 v -1.48208 h 0.421679 q 0.192237,0 0.304891,0.0941 0.112655,0.0941 0.112655,0.24495 0,0.12609 -0.06821,0.21911 -0.06821,0.093 -0.188102,0.13229 v 0.004 q 0.149862,0.0176 0.239779,0.11369 0.08992,0.0951 0.08992,0.24805 0,0.19017 -0.136426,0.30799 -0.136426,0.11782 -0.344165,0.11782 z m 0.173633,-1.32498 v 0.47852 h 0.177766 q 0.142627,0 0.224276,-0.0682 0.08165,-0.0693 0.08165,-0.1943 0,-0.21601 -0.28422,-0.21601 z m 0,0.63459 v 0.5333 h 0.235644 q 0.152962,0 0.236678,-0.0724 0.08475,-0.0724 0.08475,-0.19844 0,-0.26251 -0.3576,-0.26251 z"
         style="font-size:2.11666656px;fill:#ffe4b3;fill-opacity:1;stroke-width:0.26458332"
         id="path1153"
         inkscape:connector-curvature="0" />
      <path
         d="m 15.370637,204.39581 h -0.768945 v -1.48208 h 0.173633 v 1.32499 h 0.595312 z"
         style="font-size:2.11666656px;fill:#ffe4b3;fill-opacity:1;stroke-width:0.26458332"
         id="path1155"
         inkscape:connector-curvature="0" />
      <path
         d="m 16.383495,204.39581 h -0.785481 v -1.48208 h 0.752409 v 0.1571 h -0.578776 v 0.49299 h 0.535367 v 0.15607 h -0.535367 v 0.51883 h 0.611848 z"
         style="font-size:2.11666656px;fill:#ffe4b3;fill-opacity:1;stroke-width:0.26458332"
         id="path1157"
         inkscape:connector-curvature="0" />
      <path
         d="m 17.247525,204.39581 v -1.48208 h 0.42168 q 0.192236,0 0.304891,0.0941 0.112654,0.0941 0.112654,0.24495 0,0.12609 -0.06821,0.21911 -0.06821,0.093 -0.188102,0.13229 v 0.004 q 0.149862,0.0176 0.239779,0.11369 0.08992,0.0951 0.08992,0.24805 0,0.19017 -0.136426,0.30799 -0.136426,0.11782 -0.344165,0.11782 z m 0.173633,-1.32498 v 0.47852 h 0.177767 q 0.142627,0 0.224276,-0.0682 0.08165,-0.0693 0.08165,-0.1943 0,-0.21601 -0.28422,-0.21601 z m 0,0.63459 v 0.5333 h 0.235644 q 0.152963,0 0.236678,-0.0724 0.08475,-0.0724 0.08475,-0.19844 0,-0.26251 -0.357601,-0.26251 z"
         style="font-size:2.11666656px;fill:#ffe4b3;fill-opacity:1;stroke-width:0.26458332"
         id="path1159"
         inkscape:connector-curvature="0" />
      <path
         d="m 18.636587,204.39581 h -0.173633 v -1.48208 h 0.173633 z"
         style="font-size:2.11666656px;fill:#ffe4b3;fill-opacity:1;stroke-width:0.26458332"
         id="path1161"
         inkscape:connector-curvature="0" />
      <path
         d="m 20.219953,204.39581 h -0.212907 l -0.762744,-1.18132 q -0.02894,-0.0444 -0.04754,-0.093 h -0.0062 q 0.0083,0.0475 0.0083,0.20361 v 1.07073 h -0.173633 v -1.48208 h 0.225309 l 0.742074,1.16272 q 0.04651,0.0724 0.05994,0.0992 h 0.0041 q -0.01034,-0.0641 -0.01034,-0.21807 v -1.04387 h 0.173633 z"
         style="font-size:2.11666656px;fill:#ffe4b3;fill-opacity:1;stroke-width:0.26458332"
         id="path1163"
         inkscape:connector-curvature="0" />
      <path
         d="m 21.755777,204.39581 h -0.192236 l -0.157097,-0.41548 h -0.628385 l -0.147794,0.41548 h -0.19327 l 0.56844,-1.48208 h 0.179834 z m -0.406177,-0.57154 -0.232544,-0.63148 q -0.01137,-0.031 -0.02274,-0.0992 h -0.0041 q -0.01034,0.063 -0.02377,0.0992 l -0.230477,0.63148 z"
         style="font-size:2.11666656px;fill:#ffe4b3;fill-opacity:1;stroke-width:0.26458332"
         id="path1165"
         inkscape:connector-curvature="0" />
      <path
         d="M 23.035286,204.39581 H 22.82858 l -0.248047,-0.41548 q -0.03411,-0.0579 -0.06615,-0.0982 -0.03204,-0.0413 -0.06615,-0.0672 -0.03307,-0.0258 -0.07235,-0.0372 -0.03824,-0.0124 -0.08682,-0.0124 h -0.142627 v 0.63045 h -0.173633 v -1.48208 h 0.44235 q 0.09715,0 0.178801,0.0248 0.08268,0.0238 0.142627,0.0734 0.06098,0.0496 0.09508,0.12402 0.03411,0.0734 0.03411,0.1726 0,0.0775 -0.02377,0.14263 -0.02274,0.0641 -0.06615,0.11472 -0.04237,0.0506 -0.103353,0.0868 -0.05994,0.0351 -0.135392,0.0548 v 0.004 q 0.03721,0.0165 0.06408,0.0382 0.02791,0.0207 0.05271,0.0496 0.0248,0.0289 0.04857,0.0661 0.02481,0.0362 0.05478,0.0847 z m -0.888835,-1.32498 v 0.53743 h 0.235645 q 0.06511,0 0.119889,-0.0196 0.05581,-0.0196 0.09612,-0.0558 0.04031,-0.0372 0.06305,-0.0899 0.02274,-0.0537 0.02274,-0.11989 0,-0.11886 -0.07752,-0.185 -0.07648,-0.0672 -0.222208,-0.0672 z"
         style="font-size:2.11666656px;fill:#ffe4b3;fill-opacity:1;stroke-width:0.26458332"
         id="path1167"
         inkscape:connector-curvature="0" />
      <path
         d="m 24.201104,202.91373 -0.488859,0.93431 v 0.54777 h -0.173632 v -0.54363 l -0.476457,-0.93845 h 0.197404 l 0.331763,0.66973 q 0.0062,0.0124 0.03617,0.0909 h 0.0031 q 0.01033,-0.0351 0.03927,-0.0909 l 0.347265,-0.66973 z"
         style="font-size:2.11666656px;fill:#ffe4b3;fill-opacity:1;stroke-width:0.26458332"
         id="path1169"
         inkscape:connector-curvature="0" />
      <path
         d="m 26.070759,203.79637 q 0,0.62425 -0.563273,0.62425 -0.539502,0 -0.539502,-0.60048 v -0.90641 h 0.173633 v 0.89504 q 0,0.45578 0.384472,0.45578 0.371037,0 0.371037,-0.44028 v -0.91054 h 0.173633 z"
         style="font-size:2.11666656px;fill:#ffe4b3;fill-opacity:1;stroke-width:0.26458332"
         id="path1171"
         inkscape:connector-curvature="0" />
      <path
         d="m 26.615428,203.83564 v 0.56017 h -0.173633 v -1.48208 h 0.40721 q 0.237712,0 0.367937,0.11576 0.131258,0.11575 0.131258,0.32659 0,0.21084 -0.145728,0.3452 -0.144694,0.13436 -0.391707,0.13436 z m 0,-0.76481 v 0.60771 h 0.181901 q 0.179834,0 0.273885,-0.0816 0.09508,-0.0827 0.09508,-0.23255 0,-0.29352 -0.347266,-0.29352 z"
         style="font-size:2.11666656px;fill:#ffe4b3;fill-opacity:1;stroke-width:0.26458332"
         id="path1173"
         inkscape:connector-curvature="0" />
      <path
         d="m 28.274242,202.91373 -0.711068,1.72806 h -0.15813 l 0.709001,-1.72806 z"
         style="font-size:2.11666656px;fill:#ffe4b3;fill-opacity:1;stroke-width:0.26458332"
         id="path1175"
         inkscape:connector-curvature="0" />
      <path
         d="m 28.455109,204.39581 v -1.48208 h 0.409277 q 0.783414,0 0.783414,0.72244 0,0.34313 -0.218074,0.5519 -0.217041,0.20774 -0.581877,0.20774 z m 0.173632,-1.32498 v 1.16789 h 0.221175 q 0.291455,0 0.453719,-0.15607 0.162264,-0.15606 0.162264,-0.44235 0,-0.56947 -0.605647,-0.56947 z"
         style="font-size:2.11666656px;fill:#ffe4b3;fill-opacity:1;stroke-width:0.26458332"
         id="path1177"
         inkscape:connector-curvature="0" />
      <path
         d="m 30.536636,204.42062 q -0.315226,0 -0.505395,-0.20774 -0.189136,-0.20774 -0.189136,-0.54054 0,-0.3576 0.19327,-0.5705 0.19327,-0.21291 0.526066,-0.21291 0.306958,0 0.494026,0.2067 0.188103,0.20671 0.188103,0.54054 0,0.36277 -0.192237,0.57361 -0.192236,0.21084 -0.514697,0.21084 z m 0.0124,-1.3746 q -0.233577,0 -0.379305,0.16847 -0.145727,0.16846 -0.145727,0.44235 0,0.27389 0.141593,0.44132 0.142627,0.16639 0.371037,0.16639 0.243913,0 0.384473,-0.15916 0.14056,-0.15916 0.14056,-0.44545 0,-0.29352 -0.136426,-0.45372 -0.136426,-0.1602 -0.376205,-0.1602 z"
         style="font-size:2.11666656px;fill:#ffe4b3;fill-opacity:1;stroke-width:0.26458332"
         id="path1179"
         inkscape:connector-curvature="0" />
      <path
         d="m 33.25895,202.91373 -0.418579,1.48208 h -0.203606 l -0.30489,-1.08313 q -0.01964,-0.0693 -0.02377,-0.1509 h -0.0041 q -0.0062,0.0765 -0.02687,0.14883 l -0.306958,1.0852 h -0.201539 l -0.434082,-1.48208 h 0.191203 l 0.315226,1.13688 q 0.01964,0.0713 0.02481,0.14883 h 0.0052 q 0.0052,-0.0548 0.03204,-0.14883 l 0.327629,-1.13688 h 0.166398 l 0.314193,1.14515 q 0.01654,0.0589 0.0248,0.1385 h 0.0041 q 0.0041,-0.0538 0.02791,-0.14263 l 0.302823,-1.14102 z"
         style="font-size:2.11666656px;fill:#ffe4b3;fill-opacity:1;stroke-width:0.26458332"
         id="path1181"
         inkscape:connector-curvature="0" />
      <path
         d="M 34.672817,204.39581 H 34.45991 l -0.762744,-1.18132 q -0.02894,-0.0444 -0.04754,-0.093 h -0.0062 q 0.0083,0.0475 0.0083,0.20361 v 1.07073 h -0.173633 v -1.48208 h 0.225309 l 0.742073,1.16272 q 0.04651,0.0724 0.05994,0.0992 h 0.0041 q -0.01033,-0.0641 -0.01033,-0.21807 v -1.04387 h 0.173633 z"
         style="font-size:2.11666656px;fill:#ffe4b3;fill-opacity:1;stroke-width:0.26458332"
         id="path1183"
         inkscape:connector-curvature="0" />
      <path
         d="m 36.648923,204.3338 q -0.164331,0.0868 -0.409277,0.0868 -0.31626,0 -0.506429,-0.20361 -0.190169,-0.2036 -0.190169,-0.53433 0,-0.35554 0.21394,-0.57464 0.213941,-0.21911 0.542603,-0.21911 0.21084,0 0.349332,0.061 v 0.185 q -0.159163,-0.0889 -0.351399,-0.0889 -0.255282,0 -0.414445,0.17054 -0.15813,0.17053 -0.15813,0.45578 0,0.27079 0.147794,0.43202 0.148829,0.16019 0.389641,0.16019 0.223242,0 0.386539,-0.0992 z"
         style="font-size:2.11666656px;fill:#ffe4b3;fill-opacity:1;stroke-width:0.26458332"
         id="path1185"
         inkscape:connector-curvature="0" />
      <path
         d="m 37.548095,204.42062 q -0.315226,0 -0.505395,-0.20774 -0.189136,-0.20774 -0.189136,-0.54054 0,-0.3576 0.19327,-0.5705 0.19327,-0.21291 0.526066,-0.21291 0.306958,0 0.494027,0.2067 0.188102,0.20671 0.188102,0.54054 0,0.36277 -0.192236,0.57361 -0.192237,0.21084 -0.514698,0.21084 z m 0.0124,-1.3746 q -0.233578,0 -0.379305,0.16847 -0.145728,0.16846 -0.145728,0.44235 0,0.27389 0.141594,0.44132 0.142627,0.16639 0.371036,0.16639 0.243913,0 0.384473,-0.15916 0.14056,-0.15916 0.14056,-0.44545 0,-0.29352 -0.136426,-0.45372 -0.136426,-0.1602 -0.376204,-0.1602 z"
         style="font-size:2.11666656px;fill:#ffe4b3;fill-opacity:1;stroke-width:0.26458332"
         id="path1187"
         inkscape:connector-curvature="0" />
      <path
         d="m 39.630655,203.79637 q 0,0.62425 -0.563273,0.62425 -0.539502,0 -0.539502,-0.60048 v -0.90641 h 0.173633 v 0.89504 q 0,0.45578 0.384473,0.45578 0.371037,0 0.371037,-0.44028 v -0.91054 h 0.173632 z"
         style="font-size:2.11666656px;fill:#ffe4b3;fill-opacity:1;stroke-width:0.26458332"
         id="path1189"
         inkscape:connector-curvature="0" />
      <path
         d="M 41.196451,204.39581 H 40.983544 L 40.2208,203.21449 q -0.02894,-0.0444 -0.04754,-0.093 h -0.0062 q 0.0083,0.0475 0.0083,0.20361 v 1.07073 h -0.173632 v -1.48208 h 0.225309 l 0.742073,1.16272 q 0.04651,0.0724 0.05994,0.0992 h 0.0041 q -0.01033,-0.0641 -0.01033,-0.21807 v -1.04387 h 0.173633 z"
         style="font-size:2.11666656px;fill:#ffe4b3;fill-opacity:1;stroke-width:0.26458332"
         id="path1191"
         inkscape:connector-curvature="0" />
      <path
         d="m 42.46149,203.07083 h -0.427881 v 1.32498 h -0.173632 v -1.32498 h -0.426848 v -0.1571 h 1.028361 z"
         style="font-size:2.11666656px;fill:#ffe4b3;fill-opacity:1;stroke-width:0.26458332"
         id="path1193"
         inkscape:connector-curvature="0" />
      <path
         d="m 43.47848,204.39581 h -0.785481 v -1.48208 h 0.752409 v 0.1571 h -0.578776 v 0.49299 h 0.535367 v 0.15607 h -0.535367 v 0.51883 h 0.611848 z"
         style="font-size:2.11666656px;fill:#ffe4b3;fill-opacity:1;stroke-width:0.26458332"
         id="path1195"
         inkscape:connector-curvature="0" />
      <path
         d="m 44.826202,204.39581 h -0.206706 l -0.248047,-0.41548 q -0.03411,-0.0579 -0.06614,-0.0982 -0.03204,-0.0413 -0.06615,-0.0672 -0.03307,-0.0258 -0.07235,-0.0372 -0.03824,-0.0124 -0.08682,-0.0124 h -0.142627 v 0.63045 H 43.76373 v -1.48208 h 0.44235 q 0.09715,0 0.1788,0.0248 0.08268,0.0238 0.142627,0.0734 0.06098,0.0496 0.09508,0.12402 0.03411,0.0734 0.03411,0.1726 0,0.0775 -0.02377,0.14263 -0.02274,0.0641 -0.06615,0.11472 -0.04237,0.0506 -0.103352,0.0868 -0.05994,0.0351 -0.135393,0.0548 v 0.004 q 0.03721,0.0165 0.06408,0.0382 0.02791,0.0207 0.05271,0.0496 0.0248,0.0289 0.04858,0.0661 0.02481,0.0362 0.05478,0.0847 z m -0.888835,-1.32498 v 0.53743 h 0.235645 q 0.06511,0 0.119889,-0.0196 0.05581,-0.0196 0.09612,-0.0558 0.04031,-0.0372 0.06305,-0.0899 0.02274,-0.0537 0.02274,-0.11989 0,-0.11886 -0.07751,-0.185 -0.07648,-0.0672 -0.222209,-0.0672 z"
         style="font-size:2.11666656px;fill:#ffe4b3;fill-opacity:1;stroke-width:0.26458332"
         id="path1197"
         inkscape:connector-curvature="0" />
    </g>
    <g
       aria-label="UP"
       style="font-style:normal;font-variant:normal;font-weight:normal;font-stretch:normal;font-size:2.11666656px;line-height:1.25;font-family:'Yu Gothic UI';-inkscape-font-specification:'Yu Gothic UI';letter-spacing:0px;word-spacing:0px;fill:#ffe4b3;fill-opacity:1;stroke:none;stroke-width:0.26458332"
       id="text1325"
       transform="translate(11.863355,13.42862)">
      <path
         d="m 11.861808,264.65055 q 0,0.62425 -0.563273,0.62425 -0.539502,0 -0.539502,-0.60048 v -0.9064 h 0.173633 v 0.89504 q 0,0.45578 0.384472,0.45578 0.371037,0 0.371037,-0.44028 v -0.91054 h 0.173633 z"
         style="font-size:2.11666656px;fill:#ffe4b3;fill-opacity:1;stroke-width:0.26458332"
         id="path1340"
         inkscape:connector-curvature="0" />
      <path
         d="M 12.406477,264.68983 V 265.25 h -0.173632 v -1.48208 h 0.40721 q 0.237712,0 0.367936,0.11576 0.131258,0.11575 0.131258,0.32659 0,0.21084 -0.145727,0.3452 -0.144694,0.13436 -0.391708,0.13436 z m 0,-0.76481 v 0.60771 h 0.181902 q 0.179834,0 0.273885,-0.0817 0.09508,-0.0827 0.09508,-0.23254 0,-0.29352 -0.347265,-0.29352 z"
         style="font-size:2.11666656px;fill:#ffe4b3;fill-opacity:1;stroke-width:0.26458332"
         id="path1342"
         inkscape:connector-curvature="0" />
    </g>
    <g
       aria-label="DOWN"
       style="font-style:normal;font-variant:normal;font-weight:normal;font-stretch:normal;font-size:2.11666656px;line-height:1.25;font-family:'Yu Gothic UI';-inkscape-font-specification:'Yu Gothic UI';letter-spacing:0px;word-spacing:0px;fill:#ffe4b3;fill-opacity:1;stroke:none;stroke-width:0.26458332"
       id="text1329"
       transform="translate(9.9260049,15.293107)">
      <path
         d="m 10.777636,269.21875 v -1.48208 h 0.409278 q 0.783414,0 0.783414,0.72244 0,0.34313 -0.218074,0.5519 -0.217041,0.20774 -0.581877,0.20774 z m 0.173633,-1.32498 v 1.16788 h 0.221175 q 0.291455,0 0.453719,-0.15606 0.162264,-0.15606 0.162264,-0.44235 0,-0.56947 -0.605647,-0.56947 z"
         style="font-size:2.11666656px;fill:#ffe4b3;fill-opacity:1;stroke-width:0.26458332"
         id="path1331"
         inkscape:connector-curvature="0" />
      <path
         d="m 12.859163,269.24355 q -0.315226,0 -0.505395,-0.20773 -0.189136,-0.20774 -0.189136,-0.54054 0,-0.3576 0.19327,-0.57051 0.193269,-0.2129 0.526066,-0.2129 0.306958,0 0.494026,0.2067 0.188103,0.20671 0.188103,0.54054 0,0.36277 -0.192237,0.5736 -0.192236,0.21084 -0.514697,0.21084 z m 0.0124,-1.37459 q -0.233577,0 -0.379305,0.16847 -0.145727,0.16846 -0.145727,0.44235 0,0.27388 0.141593,0.44131 0.142627,0.1664 0.371037,0.1664 0.243913,0 0.384473,-0.15916 0.14056,-0.15916 0.14056,-0.44545 0,-0.29352 -0.136426,-0.45372 -0.136426,-0.1602 -0.376205,-0.1602 z"
         style="font-size:2.11666656px;fill:#ffe4b3;fill-opacity:1;stroke-width:0.26458332"
         id="path1333"
         inkscape:connector-curvature="0" />
      <path
         d="m 15.581477,267.73667 -0.418579,1.48208 h -0.203605 l -0.304891,-1.08314 q -0.01964,-0.0692 -0.02377,-0.15089 h -0.0041 q -0.0062,0.0765 -0.02687,0.14882 l -0.306958,1.08521 h -0.201538 l -0.434082,-1.48208 h 0.191203 l 0.315226,1.13688 q 0.01964,0.0713 0.02481,0.14883 h 0.0052 q 0.0052,-0.0548 0.03204,-0.14883 l 0.327628,-1.13688 h 0.166398 l 0.314193,1.14515 q 0.01654,0.0589 0.02481,0.13849 h 0.0041 q 0.0041,-0.0537 0.0279,-0.14262 l 0.302824,-1.14102 z"
         style="font-size:2.11666656px;fill:#ffe4b3;fill-opacity:1;stroke-width:0.26458332"
         id="path1335"
         inkscape:connector-curvature="0" />
      <path
         d="m 16.995345,269.21875 h -0.212907 l -0.762744,-1.18132 q -0.02894,-0.0444 -0.04754,-0.093 h -0.0062 q 0.0083,0.0475 0.0083,0.2036 v 1.07074 h -0.173632 v -1.48208 h 0.225309 l 0.742073,1.16272 q 0.04651,0.0724 0.05994,0.0992 h 0.0041 q -0.01033,-0.0641 -0.01033,-0.21808 v -1.04386 h 0.173633 z"
         style="font-size:2.11666656px;fill:#ffe4b3;fill-opacity:1;stroke-width:0.26458332"
         id="path1337"
         inkscape:connector-curvature="0" />
    </g>
    <path
       style="fill:none;stroke:#ffe4b3;stroke-width:0.26458332px;stroke-linecap:butt;stroke-linejoin:miter;stroke-opacity:1"
       d="M 31.75,287.73957 V 204.39582"
       id="path1417"
       inkscape:connector-curvature="0" />
    <path
       style="fill:none;stroke:#ffe4b3;stroke-width:0.26458332px;stroke-linecap:butt;stroke-linejoin:miter;stroke-opacity:1"
       d="M 2.6458333,275.83332 H 31.75"
       id="path1419"
       inkscape:connector-curvature="0" />
    <path
       style="fill:none;stroke:#ffe4b3;stroke-width:0.26458332px;stroke-linecap:butt;stroke-linejoin:miter;stroke-opacity:1"
       d="m 15.875,204.39582 v 71.4375"
       id="path1421"
       inkscape:connector-curvature="0" />
  </g>
  <g
     inkscape:groupmode="layer"
     id="layer2"
     inkscape:label="Grid"
     style="display:none"
     sodipodi:insensitive="true">
    <g
       id="g4009"
       style="display:inline;stroke:#ffe4b3"
       transform="translate(7.2598426e-7,3.333209e-6)">
      <path
         sodipodi:nodetypes="cc"
         inkscape:connector-curvature="0"
         id="path3967"
         d="m 7.9375,-1e-5 -3e-6,100.54167"
         style="fill:none;stroke:#ffe4b3;stroke-width:0.05;stroke-linecap:butt;stroke-linejoin:miter;stroke-miterlimit:4;stroke-dasharray:none;stroke-opacity:1" />
      <path
         style="fill:none;stroke:#ffe4b3;stroke-width:0.05;stroke-linecap:butt;stroke-linejoin:miter;stroke-miterlimit:4;stroke-dasharray:none;stroke-opacity:1"
         d="m 3.968752,0 -4e-6,100.54167"
         id="path3969"
         inkscape:connector-curvature="0"
         sodipodi:nodetypes="cc" />
      <path
         sodipodi:nodetypes="cc"
         inkscape:connector-curvature="0"
         id="path3971"
         d="m 11.906253,0 -4e-6,100.54167"
         style="fill:none;stroke:#ffe4b3;stroke-width:0.05;stroke-linecap:butt;stroke-linejoin:miter;stroke-miterlimit:4;stroke-dasharray:none;stroke-opacity:1" />
      <path
         style="fill:none;stroke:#ffe4b3;stroke-width:0.05;stroke-linecap:butt;stroke-linejoin:miter;stroke-miterlimit:4;stroke-dasharray:none;stroke-opacity:1"
         d="m 0,14.022551 15.875,3.66e-4"
         id="path3973"
         inkscape:connector-curvature="0"
         sodipodi:nodetypes="cc" />
      <path
         inkscape:connector-curvature="0"
         id="path3975"
         d="M 0,28.57465 15.875,28.575"
         style="fill:none;stroke:#ffe4b3;stroke-width:0.05;stroke-linecap:butt;stroke-linejoin:miter;stroke-miterlimit:4;stroke-dasharray:none;stroke-opacity:1"
         sodipodi:nodetypes="cc" />
      <path
         style="fill:none;stroke:#ffe4b3;stroke-width:0.05;stroke-linecap:butt;stroke-linejoin:miter;stroke-miterlimit:4;stroke-dasharray:none;stroke-opacity:1"
         d="m 0,43.126622 15.875,4.61e-4"
         id="path3977"
         inkscape:connector-curvature="0"
         sodipodi:nodetypes="cc" />
      <path
         inkscape:connector-curvature="0"
         id="path3979"
         d="m 0,57.678723 15.875,4.44e-4"
         style="fill:none;stroke:#ffe4b3;stroke-width:0.05;stroke-linecap:butt;stroke-linejoin:miter;stroke-miterlimit:4;stroke-dasharray:none;stroke-opacity:1"
         sodipodi:nodetypes="cc" />
      <path
         style="fill:none;stroke:#ffe4b3;stroke-width:0.05;stroke-linecap:butt;stroke-linejoin:miter;stroke-miterlimit:4;stroke-dasharray:none;stroke-opacity:1"
         d="m 0,72.230955 15.875,2.95e-4"
         id="path3981"
         inkscape:connector-curvature="0"
         sodipodi:nodetypes="cc" />
      <path
         inkscape:connector-curvature="0"
         id="path3983"
         d="m 0,86.782927 15.875,4.06e-4"
         style="fill:none;stroke:#ffe4b3;stroke-width:0.05;stroke-linecap:butt;stroke-linejoin:miter;stroke-miterlimit:4;stroke-dasharray:none;stroke-opacity:1"
         sodipodi:nodetypes="cc" />
      <circle
         style="display:inline;opacity:1;fill:none;fill-opacity:1;stroke:#ffe4b3;stroke-width:0.05;stroke-linecap:square;stroke-linejoin:round;stroke-miterlimit:4;stroke-dasharray:none;stroke-dashoffset:0;stroke-opacity:1;paint-order:markers fill stroke"
         id="circle3985"
         cx="7.9523039"
         cy="28.574995"
         r="4.0999999" />
      <circle
         style="display:inline;opacity:1;fill:none;fill-opacity:1;stroke:#ffe4b3;stroke-width:0.05;stroke-linecap:square;stroke-linejoin:round;stroke-miterlimit:4;stroke-dasharray:none;stroke-dashoffset:0;stroke-opacity:1;paint-order:markers fill stroke"
         id="circle3987"
         cx="7.9523039"
         cy="43.127026"
         r="4.0999999" />
      <circle
         r="4.0999999"
         cy="57.679188"
         cx="7.9523039"
         id="circle3989"
         style="display:inline;opacity:1;fill:none;fill-opacity:1;stroke:#ffe4b3;stroke-width:0.05;stroke-linecap:square;stroke-linejoin:round;stroke-miterlimit:4;stroke-dasharray:none;stroke-dashoffset:0;stroke-opacity:1;paint-order:markers fill stroke" />
      <circle
         r="4.0999999"
         cy="72.231216"
         cx="7.9523039"
         id="circle3991"
         style="display:inline;opacity:1;fill:none;fill-opacity:1;stroke:#ffe4b3;stroke-width:0.05;stroke-linecap:square;stroke-linejoin:round;stroke-miterlimit:4;stroke-dasharray:none;stroke-dashoffset:0;stroke-opacity:1;paint-order:markers fill stroke" />
      <circle
         style="display:inline;opacity:1;fill:none;fill-opacity:1;stroke:#ffe4b3;stroke-width:0.05;stroke-linecap:square;stroke-linejoin:round;stroke-miterlimit:4;stroke-dasharray:none;stroke-dashoffset:0;stroke-opacity:1;paint-order:markers fill stroke"
         id="circle3993"
         cx="7.9523039"
         cy="86.783379"
         r="4.0999999" />
      <circle
         style="display:inline;opacity:1;fill:none;fill-opacity:1;stroke:#ffe4b3;stroke-width:0.05172414;stroke-linecap:square;stroke-linejoin:round;stroke-miterlimit:4;stroke-dasharray:none;stroke-dashoffset:0;stroke-opacity:1;paint-order:markers fill stroke"
         id="circle3995"
         cx="7.9360795"
         cy="14.023303"
         r="5.4741378" />
      <circle
         r="5.4741378"
         cy="28.575275"
         cx="7.9360795"
         id="circle3997"
         style="display:inline;opacity:1;fill:none;fill-opacity:1;stroke:#ffe4b3;stroke-width:0.05172414;stroke-linecap:square;stroke-linejoin:round;stroke-miterlimit:4;stroke-dasharray:none;stroke-dashoffset:0;stroke-opacity:1;paint-order:markers fill stroke" />
      <circle
         r="5.4741378"
         cy="43.127495"
         cx="7.9360795"
         id="circle3999"
         style="display:inline;opacity:1;fill:none;fill-opacity:1;stroke:#ffe4b3;stroke-width:0.05172414;stroke-linecap:square;stroke-linejoin:round;stroke-miterlimit:4;stroke-dasharray:none;stroke-dashoffset:0;stroke-opacity:1;paint-order:markers fill stroke" />
      <circle
         style="display:inline;opacity:1;fill:none;fill-opacity:1;stroke:#ffe4b3;stroke-width:0.05172414;stroke-linecap:square;stroke-linejoin:round;stroke-miterlimit:4;stroke-dasharray:none;stroke-dashoffset:0;stroke-opacity:1;paint-order:markers fill stroke"
         id="circle4001"
         cx="7.9360795"
         cy="57.67947"
         r="5.4741378" />
      <circle
         style="display:inline;opacity:1;fill:none;fill-opacity:1;stroke:#ffe4b3;stroke-width:0.05172414;stroke-linecap:square;stroke-linejoin:round;stroke-miterlimit:4;stroke-dasharray:none;stroke-dashoffset:0;stroke-opacity:1;paint-order:markers fill stroke"
         id="circle4003"
         cx="7.9360795"
         cy="72.231689"
         r="5.4741378" />
      <circle
         r="5.4741378"
         cy="86.783661"
         cx="7.9360795"
         id="circle4005"
         style="display:inline;opacity:1;fill:none;fill-opacity:1;stroke:#ffe4b3;stroke-width:0.05172414;stroke-linecap:square;stroke-linejoin:round;stroke-miterlimit:4;stroke-dasharray:none;stroke-dashoffset:0;stroke-opacity:1;paint-order:markers fill stroke" />
      <circle
         r="4.0999999"
         cy="14.022678"
         cx="7.9523039"
         id="circle4007"
         style="display:inline;opacity:1;fill:none;fill-opacity:1;stroke:#ffe4b3;stroke-width:0.05;stroke-linecap:square;stroke-linejoin:round;stroke-miterlimit:4;stroke-dasharray:none;stroke-dashoffset:0;stroke-opacity:1;paint-order:markers fill stroke" />
    </g>
    <g
       transform="translate(15.875,3.333209e-6)"
       style="display:inline;stroke:#ffe4b3"
       id="g1258">
      <path
         style="fill:none;stroke:#ffe4b3;stroke-width:0.05;stroke-linecap:butt;stroke-linejoin:miter;stroke-miterlimit:4;stroke-dasharray:none;stroke-opacity:1"
         d="m 7.9375,-1e-5 -3e-6,100.54167"
         id="path1216"
         inkscape:connector-curvature="0"
         sodipodi:nodetypes="cc" />
      <path
         sodipodi:nodetypes="cc"
         inkscape:connector-curvature="0"
         id="path1218"
         d="m 3.968752,0 -4e-6,100.54167"
         style="fill:none;stroke:#ffe4b3;stroke-width:0.05;stroke-linecap:butt;stroke-linejoin:miter;stroke-miterlimit:4;stroke-dasharray:none;stroke-opacity:1" />
      <path
         style="fill:none;stroke:#ffe4b3;stroke-width:0.05;stroke-linecap:butt;stroke-linejoin:miter;stroke-miterlimit:4;stroke-dasharray:none;stroke-opacity:1"
         d="m 11.906253,0 -4e-6,100.54167"
         id="path1220"
         inkscape:connector-curvature="0"
         sodipodi:nodetypes="cc" />
      <path
         sodipodi:nodetypes="cc"
         inkscape:connector-curvature="0"
         id="path1222"
         d="m 0,14.022551 15.875,3.66e-4"
         style="fill:none;stroke:#ffe4b3;stroke-width:0.05;stroke-linecap:butt;stroke-linejoin:miter;stroke-miterlimit:4;stroke-dasharray:none;stroke-opacity:1" />
      <path
         sodipodi:nodetypes="cc"
         style="fill:none;stroke:#ffe4b3;stroke-width:0.05;stroke-linecap:butt;stroke-linejoin:miter;stroke-miterlimit:4;stroke-dasharray:none;stroke-opacity:1"
         d="M 0,28.57465 15.875,28.575"
         id="path1224"
         inkscape:connector-curvature="0" />
      <path
         sodipodi:nodetypes="cc"
         inkscape:connector-curvature="0"
         id="path1226"
         d="m 0,43.126622 15.875,4.61e-4"
         style="fill:none;stroke:#ffe4b3;stroke-width:0.05;stroke-linecap:butt;stroke-linejoin:miter;stroke-miterlimit:4;stroke-dasharray:none;stroke-opacity:1" />
      <path
         sodipodi:nodetypes="cc"
         style="fill:none;stroke:#ffe4b3;stroke-width:0.05;stroke-linecap:butt;stroke-linejoin:miter;stroke-miterlimit:4;stroke-dasharray:none;stroke-opacity:1"
         d="m 0,57.678723 15.875,4.44e-4"
         id="path1228"
         inkscape:connector-curvature="0" />
      <path
         sodipodi:nodetypes="cc"
         inkscape:connector-curvature="0"
         id="path1230"
         d="m 0,72.230955 15.875,2.95e-4"
         style="fill:none;stroke:#ffe4b3;stroke-width:0.05;stroke-linecap:butt;stroke-linejoin:miter;stroke-miterlimit:4;stroke-dasharray:none;stroke-opacity:1" />
      <path
         sodipodi:nodetypes="cc"
         style="fill:none;stroke:#ffe4b3;stroke-width:0.05;stroke-linecap:butt;stroke-linejoin:miter;stroke-miterlimit:4;stroke-dasharray:none;stroke-opacity:1"
         d="m 0,86.782927 15.875,4.06e-4"
         id="path1232"
         inkscape:connector-curvature="0" />
      <circle
         r="4.0999999"
         cy="28.574995"
         cx="7.9523039"
         id="circle1234"
         style="display:inline;opacity:1;fill:none;fill-opacity:1;stroke:#ffe4b3;stroke-width:0.05;stroke-linecap:square;stroke-linejoin:round;stroke-miterlimit:4;stroke-dasharray:none;stroke-dashoffset:0;stroke-opacity:1;paint-order:markers fill stroke" />
      <circle
         r="4.0999999"
         cy="43.127026"
         cx="7.9523039"
         id="circle1236"
         style="display:inline;opacity:1;fill:none;fill-opacity:1;stroke:#ffe4b3;stroke-width:0.05;stroke-linecap:square;stroke-linejoin:round;stroke-miterlimit:4;stroke-dasharray:none;stroke-dashoffset:0;stroke-opacity:1;paint-order:markers fill stroke" />
      <circle
         style="display:inline;opacity:1;fill:none;fill-opacity:1;stroke:#ffe4b3;stroke-width:0.05;stroke-linecap:square;stroke-linejoin:round;stroke-miterlimit:4;stroke-dasharray:none;stroke-dashoffset:0;stroke-opacity:1;paint-order:markers fill stroke"
         id="circle1238"
         cx="7.9523039"
         cy="57.679188"
         r="4.0999999" />
      <circle
         style="display:inline;opacity:1;fill:none;fill-opacity:1;stroke:#ffe4b3;stroke-width:0.05;stroke-linecap:square;stroke-linejoin:round;stroke-miterlimit:4;stroke-dasharray:none;stroke-dashoffset:0;stroke-opacity:1;paint-order:markers fill stroke"
         id="circle1240"
         cx="7.9523039"
         cy="72.231216"
         r="4.0999999" />
      <circle
         r="4.0999999"
         cy="86.783379"
         cx="7.9523039"
         id="circle1242"
         style="display:inline;opacity:1;fill:none;fill-opacity:1;stroke:#ffe4b3;stroke-width:0.05;stroke-linecap:square;stroke-linejoin:round;stroke-miterlimit:4;stroke-dasharray:none;stroke-dashoffset:0;stroke-opacity:1;paint-order:markers fill stroke" />
      <circle
         r="5.4741378"
         cy="14.023303"
         cx="7.9360795"
         id="circle1244"
         style="display:inline;opacity:1;fill:none;fill-opacity:1;stroke:#ffe4b3;stroke-width:0.05172414;stroke-linecap:square;stroke-linejoin:round;stroke-miterlimit:4;stroke-dasharray:none;stroke-dashoffset:0;stroke-opacity:1;paint-order:markers fill stroke" />
      <circle
         style="display:inline;opacity:1;fill:none;fill-opacity:1;stroke:#ffe4b3;stroke-width:0.05172414;stroke-linecap:square;stroke-linejoin:round;stroke-miterlimit:4;stroke-dasharray:none;stroke-dashoffset:0;stroke-opacity:1;paint-order:markers fill stroke"
         id="circle1246"
         cx="7.9360795"
         cy="28.575275"
         r="5.4741378" />
      <circle
         style="display:inline;opacity:1;fill:none;fill-opacity:1;stroke:#ffe4b3;stroke-width:0.05172414;stroke-linecap:square;stroke-linejoin:round;stroke-miterlimit:4;stroke-dasharray:none;stroke-dashoffset:0;stroke-opacity:1;paint-order:markers fill stroke"
         id="circle1248"
         cx="7.9360795"
         cy="43.127495"
         r="5.4741378" />
      <circle
         r="5.4741378"
         cy="57.67947"
         cx="7.9360795"
         id="circle1250"
         style="display:inline;opacity:1;fill:none;fill-opacity:1;stroke:#ffe4b3;stroke-width:0.05172414;stroke-linecap:square;stroke-linejoin:round;stroke-miterlimit:4;stroke-dasharray:none;stroke-dashoffset:0;stroke-opacity:1;paint-order:markers fill stroke" />
      <circle
         r="5.4741378"
         cy="72.231689"
         cx="7.9360795"
         id="circle1252"
         style="display:inline;opacity:1;fill:none;fill-opacity:1;stroke:#ffe4b3;stroke-width:0.05172414;stroke-linecap:square;stroke-linejoin:round;stroke-miterlimit:4;stroke-dasharray:none;stroke-dashoffset:0;stroke-opacity:1;paint-order:markers fill stroke" />
      <circle
         style="display:inline;opacity:1;fill:none;fill-opacity:1;stroke:#ffe4b3;stroke-width:0.05172414;stroke-linecap:square;stroke-linejoin:round;stroke-miterlimit:4;stroke-dasharray:none;stroke-dashoffset:0;stroke-opacity:1;paint-order:markers fill stroke"
         id="circle1254"
         cx="7.9360795"
         cy="86.783661"
         r="5.4741378" />
      <circle
         style="display:inline;opacity:1;fill:none;fill-opacity:1;stroke:#ffe4b3;stroke-width:0.05;stroke-linecap:square;stroke-linejoin:round;stroke-miterlimit:4;stroke-dasharray:none;stroke-dashoffset:0;stroke-opacity:1;paint-order:markers fill stroke"
         id="circle1256"
         cx="7.9523039"
         cy="14.022678"
         r="4.0999999" />
    </g>
    <g
       id="g1302"
       style="display:inline;stroke:#ffe4b3"
       transform="translate(31.749999,3.333209e-6)">
      <path
         sodipodi:nodetypes="cc"
         inkscape:connector-curvature="0"
         id="path1260"
         d="m 7.9375,-1e-5 -3e-6,100.54167"
         style="fill:none;stroke:#ffe4b3;stroke-width:0.05;stroke-linecap:butt;stroke-linejoin:miter;stroke-miterlimit:4;stroke-dasharray:none;stroke-opacity:1" />
      <path
         style="fill:none;stroke:#ffe4b3;stroke-width:0.05;stroke-linecap:butt;stroke-linejoin:miter;stroke-miterlimit:4;stroke-dasharray:none;stroke-opacity:1"
         d="m 3.968752,0 -4e-6,100.54167"
         id="path1262"
         inkscape:connector-curvature="0"
         sodipodi:nodetypes="cc" />
      <path
         sodipodi:nodetypes="cc"
         inkscape:connector-curvature="0"
         id="path1264"
         d="m 11.906253,0 -4e-6,100.54167"
         style="fill:none;stroke:#ffe4b3;stroke-width:0.05;stroke-linecap:butt;stroke-linejoin:miter;stroke-miterlimit:4;stroke-dasharray:none;stroke-opacity:1" />
      <path
         style="fill:none;stroke:#ffe4b3;stroke-width:0.05;stroke-linecap:butt;stroke-linejoin:miter;stroke-miterlimit:4;stroke-dasharray:none;stroke-opacity:1"
         d="m 0,14.022551 15.875,3.66e-4"
         id="path1266"
         inkscape:connector-curvature="0"
         sodipodi:nodetypes="cc" />
      <path
         inkscape:connector-curvature="0"
         id="path1268"
         d="M 0,28.57465 15.875,28.575"
         style="fill:none;stroke:#ffe4b3;stroke-width:0.05;stroke-linecap:butt;stroke-linejoin:miter;stroke-miterlimit:4;stroke-dasharray:none;stroke-opacity:1"
         sodipodi:nodetypes="cc" />
      <path
         style="fill:none;stroke:#ffe4b3;stroke-width:0.05;stroke-linecap:butt;stroke-linejoin:miter;stroke-miterlimit:4;stroke-dasharray:none;stroke-opacity:1"
         d="m 0,43.126622 15.875,4.61e-4"
         id="path1270"
         inkscape:connector-curvature="0"
         sodipodi:nodetypes="cc" />
      <path
         inkscape:connector-curvature="0"
         id="path1272"
         d="m 0,57.678723 15.875,4.44e-4"
         style="fill:none;stroke:#ffe4b3;stroke-width:0.05;stroke-linecap:butt;stroke-linejoin:miter;stroke-miterlimit:4;stroke-dasharray:none;stroke-opacity:1"
         sodipodi:nodetypes="cc" />
      <path
         style="fill:none;stroke:#ffe4b3;stroke-width:0.05;stroke-linecap:butt;stroke-linejoin:miter;stroke-miterlimit:4;stroke-dasharray:none;stroke-opacity:1"
         d="m 0,72.230955 15.875,2.95e-4"
         id="path1274"
         inkscape:connector-curvature="0"
         sodipodi:nodetypes="cc" />
      <path
         inkscape:connector-curvature="0"
         id="path1276"
         d="m 0,86.782927 15.875,4.06e-4"
         style="fill:none;stroke:#ffe4b3;stroke-width:0.05;stroke-linecap:butt;stroke-linejoin:miter;stroke-miterlimit:4;stroke-dasharray:none;stroke-opacity:1"
         sodipodi:nodetypes="cc" />
      <circle
         style="display:inline;opacity:1;fill:none;fill-opacity:1;stroke:#ffe4b3;stroke-width:0.05;stroke-linecap:square;stroke-linejoin:round;stroke-miterlimit:4;stroke-dasharray:none;stroke-dashoffset:0;stroke-opacity:1;paint-order:markers fill stroke"
         id="circle1278"
         cx="7.9523039"
         cy="28.574995"
         r="4.0999999" />
      <circle
         style="display:inline;opacity:1;fill:none;fill-opacity:1;stroke:#ffe4b3;stroke-width:0.05;stroke-linecap:square;stroke-linejoin:round;stroke-miterlimit:4;stroke-dasharray:none;stroke-dashoffset:0;stroke-opacity:1;paint-order:markers fill stroke"
         id="circle1280"
         cx="7.9523039"
         cy="43.127026"
         r="4.0999999" />
      <circle
         r="4.0999999"
         cy="57.679188"
         cx="7.9523039"
         id="circle1282"
         style="display:inline;opacity:1;fill:none;fill-opacity:1;stroke:#ffe4b3;stroke-width:0.05;stroke-linecap:square;stroke-linejoin:round;stroke-miterlimit:4;stroke-dasharray:none;stroke-dashoffset:0;stroke-opacity:1;paint-order:markers fill stroke" />
      <circle
         r="4.0999999"
         cy="72.231216"
         cx="7.9523039"
         id="circle1284"
         style="display:inline;opacity:1;fill:none;fill-opacity:1;stroke:#ffe4b3;stroke-width:0.05;stroke-linecap:square;stroke-linejoin:round;stroke-miterlimit:4;stroke-dasharray:none;stroke-dashoffset:0;stroke-opacity:1;paint-order:markers fill stroke" />
      <circle
         style="display:inline;opacity:1;fill:none;fill-opacity:1;stroke:#ffe4b3;stroke-width:0.05;stroke-linecap:square;stroke-linejoin:round;stroke-miterlimit:4;stroke-dasharray:none;stroke-dashoffset:0;stroke-opacity:1;paint-order:markers fill stroke"
         id="circle1286"
         cx="7.9523039"
         cy="86.783379"
         r="4.0999999" />
      <circle
         style="display:inline;opacity:1;fill:none;fill-opacity:1;stroke:#ffe4b3;stroke-width:0.05172414;stroke-linecap:square;stroke-linejoin:round;stroke-miterlimit:4;stroke-dasharray:none;stroke-dashoffset:0;stroke-opacity:1;paint-order:markers fill stroke"
         id="circle1288"
         cx="7.9360795"
         cy="14.023303"
         r="5.4741378" />
      <circle
         r="5.4741378"
         cy="28.575275"
         cx="7.9360795"
         id="circle1290"
         style="display:inline;opacity:1;fill:none;fill-opacity:1;stroke:#ffe4b3;stroke-width:0.05172414;stroke-linecap:square;stroke-linejoin:round;stroke-miterlimit:4;stroke-dasharray:none;stroke-dashoffset:0;stroke-opacity:1;paint-order:markers fill stroke" />
      <circle
         r="5.4741378"
         cy="43.127495"
         cx="7.9360795"
         id="circle1292"
         style="display:inline;opacity:1;fill:none;fill-opacity:1;stroke:#ffe4b3;stroke-width:0.05172414;stroke-linecap:square;stroke-linejoin:round;stroke-miterlimit:4;stroke-dasharray:none;stroke-dashoffset:0;stroke-opacity:1;paint-order:markers fill stroke" />
      <circle
         style="display:inline;opacity:1;fill:none;fill-opacity:1;stroke:#ffe4b3;stroke-width:0.05172414;stroke-linecap:square;stroke-linejoin:round;stroke-miterlimit:4;stroke-dasharray:none;stroke-dashoffset:0;stroke-opacity:1;paint-order:markers fill stroke"
         id="circle1294"
         cx="7.9360795"
         cy="57.67947"
         r="5.4741378" />
      <circle
         style="display:inline;opacity:1;fill:none;fill-opacity:1;stroke:#ffe4b3;stroke-width:0.05172414;stroke-linecap:square;stroke-linejoin:round;stroke-miterlimit:4;stroke-dasharray:none;stroke-dashoffset:0;stroke-opacity:1;paint-order:markers fill stroke"
         id="circle1296"
         cx="7.9360795"
         cy="72.231689"
         r="5.4741378" />
      <circle
         r="5.4741378"
         cy="86.783661"
         cx="7.9360795"
         id="circle1298"
         style="display:inline;opacity:1;fill:none;fill-opacity:1;stroke:#ffe4b3;stroke-width:0.05172414;stroke-linecap:square;stroke-linejoin:round;stroke-miterlimit:4;stroke-dasharray:none;stroke-dashoffset:0;stroke-opacity:1;paint-order:markers fill stroke" />
      <circle
         r="4.0999999"
         cy="14.022678"
         cx="7.9523039"
         id="circle1300"
         style="display:inline;opacity:1;fill:none;fill-opacity:1;stroke:#ffe4b3;stroke-width:0.05;stroke-linecap:square;stroke-linejoin:round;stroke-miterlimit:4;stroke-dasharray:none;stroke-dashoffset:0;stroke-opacity:1;paint-order:markers fill stroke" />
    </g>
    <path
       sodipodi:nodetypes="cc"
       inkscape:connector-curvature="0"
       id="path1345"
       d="M -13.75834,-6.666791e-6 -13.758343,100.54166"
       style="fill:none;stroke:#ffe4b3;stroke-width:0.05;stroke-linecap:butt;stroke-linejoin:miter;stroke-miterlimit:4;stroke-dasharray:none;stroke-opacity:1" />
    <path
       style="fill:none;stroke:#ffe4b3;stroke-width:0.05;stroke-linecap:butt;stroke-linejoin:miter;stroke-miterlimit:4;stroke-dasharray:none;stroke-opacity:1"
       d="M -17.727088,3.333209e-6 -17.727092,100.54167"
       id="path1347"
       inkscape:connector-curvature="0"
       sodipodi:nodetypes="cc" />
    <path
       sodipodi:nodetypes="cc"
       inkscape:connector-curvature="0"
       id="path1349"
       d="M -9.789587,3.333209e-6 -9.789591,100.54167"
       style="fill:none;stroke:#ffe4b3;stroke-width:0.05;stroke-linecap:butt;stroke-linejoin:miter;stroke-miterlimit:4;stroke-dasharray:none;stroke-opacity:1" />
    <g
       id="g1413"
       transform="translate(14.287503,-7.4083337)">
      <path
         sodipodi:nodetypes="cc"
         style="fill:none;stroke:#ffe4b3;stroke-width:0.05;stroke-linecap:butt;stroke-linejoin:miter;stroke-miterlimit:4;stroke-dasharray:none;stroke-opacity:1"
         d="M -14.287502,57.678726 1.5874937,57.67917"
         id="path1357"
         inkscape:connector-curvature="0" />
      <circle
         style="display:inline;opacity:1;fill:none;fill-opacity:1;stroke:#ffe4b3;stroke-width:0.05;stroke-linecap:square;stroke-linejoin:round;stroke-miterlimit:4;stroke-dasharray:none;stroke-dashoffset:0;stroke-opacity:1;paint-order:markers fill stroke"
         id="circle1367"
         cx="-6.335207"
         cy="57.679192"
         r="4.0999999" />
      <circle
         r="5.4741378"
         cy="57.679474"
         cx="-6.3514318"
         id="circle1379"
         style="display:inline;opacity:1;fill:none;fill-opacity:1;stroke:#ffe4b3;stroke-width:0.05172414;stroke-linecap:square;stroke-linejoin:round;stroke-miterlimit:4;stroke-dasharray:none;stroke-dashoffset:0;stroke-opacity:1;paint-order:markers fill stroke" />
    </g>
  </g>
</svg>
