<?xml version="1.0" encoding="UTF-8" standalone="no"?>
<!-- Created with Inkscape (http://www.inkscape.org/) -->

<svg
   xmlns:dc="http://purl.org/dc/elements/1.1/"
   xmlns:cc="http://creativecommons.org/ns#"
   xmlns:rdf="http://www.w3.org/1999/02/22-rdf-syntax-ns#"
   xmlns:svg="http://www.w3.org/2000/svg"
   xmlns="http://www.w3.org/2000/svg"
   xmlns:sodipodi="http://sodipodi.sourceforge.net/DTD/sodipodi-0.dtd"
   xmlns:inkscape="http://www.inkscape.org/namespaces/inkscape"
   width="120"
   height="380"
   viewBox="0 0 31.750003 100.54167"
   version="1.1"
   id="svg8"
   inkscape:version="0.92.4 (5da689c313, 2019-01-14)"
   sodipodi:docname="CD4532.svg">
  <defs
     id="defs2">
    <inkscape:perspective
       sodipodi:type="inkscape:persp3d"
       inkscape:vp_x="0 : 50.270835 : 1"
       inkscape:vp_y="0 : 1000 : 0"
       inkscape:vp_z="31.750003 : 50.270835 : 1"
       inkscape:persp3d-origin="15.875001 : 33.51389 : 1"
       id="perspective2081" />
  </defs>
  <sodipodi:namedview
     id="base"
     pagecolor="#ffffff"
     bordercolor="#666666"
     borderopacity="1.0"
     inkscape:pageopacity="0.0"
     inkscape:pageshadow="2"
     inkscape:zoom="1.6114591"
     inkscape:cx="28.144777"
     inkscape:cy="182.18447"
     inkscape:document-units="mm"
     inkscape:current-layer="layer1"
     showgrid="true"
     units="px"
     inkscape:snap-bbox="true"
     inkscape:snap-page="true"
     inkscape:bbox-nodes="true"
     inkscape:snap-bbox-edge-midpoints="true"
     inkscape:window-width="1920"
     inkscape:window-height="1017"
     inkscape:window-x="-8"
     inkscape:window-y="-8"
     inkscape:window-maximized="1">
    <inkscape:grid
       type="xygrid"
       id="grid116" />
  </sodipodi:namedview>
  <metadata
     id="metadata5">
    <rdf:RDF>
      <cc:Work
         rdf:about="">
        <dc:format>image/svg+xml</dc:format>
        <dc:type
           rdf:resource="http://purl.org/dc/dcmitype/StillImage" />
        <dc:title></dc:title>
      </cc:Work>
    </rdf:RDF>
  </metadata>
  <g
     inkscape:groupmode="layer"
     id="layer3"
     inkscape:label="Panel"
     sodipodi:insensitive="true">
    <path
       sodipodi:type="inkscape:offset"
       inkscape:radius="0"
       inkscape:original="M 0 196.45898 L 0 297 L 15.875 297 L 15.875 196.45898 L 0 196.45898 z "
       style="fill:#894c26;fill-opacity:1;stroke-width:0.3310422"
       id="rect3855"
       d="M 0,196.45898 V 297 H 15.875 V 196.45898 Z"
       transform="matrix(2,0,0,1.0000064,0,-196.46023)" />
  </g>
  <g
     inkscape:label="Layer 1"
     inkscape:groupmode="layer"
     id="layer1"
     transform="translate(0,-196.45832)"
     style="display:inline">
    <text
       xml:space="preserve"
       style="font-style:normal;font-weight:normal;font-size:2.82222223px;line-height:1.25;font-family:sans-serif;letter-spacing:0px;word-spacing:0px;fill:#000000;fill-opacity:1;stroke:none;stroke-width:0.26458332"
       x="17.197916"
       y="201.74998"
       id="text3821"><tspan
         sodipodi:role="line"
         id="tspan3819"
         x="17.197916"
         y="204.24699"
         style="stroke-width:0.26458332" /></text>
    <g
       id="g4342">
      <g
         transform="translate(-9.481569,1.7166648)"
         id="text956"
         style="font-style:normal;font-variant:normal;font-weight:normal;font-stretch:normal;font-size:2.82222223px;line-height:1.25;font-family:'Copperplate Gothic Light';-inkscape-font-specification:'Copperplate Gothic Light, ';letter-spacing:0px;word-spacing:0px;fill:#ffe4b3;fill-opacity:1;stroke:#ffe4b3;stroke-width:0.2;stroke-miterlimit:4;stroke-dasharray:none;stroke-opacity:1"
         aria-label="/^M^\">
        <path
           inkscape:connector-curvature="0"
           id="path958"
           style="font-style:normal;font-variant:normal;font-weight:normal;font-stretch:normal;font-size:2.82222223px;line-height:1.25;font-family:'Copperplate Gothic Light';-inkscape-font-specification:'Copperplate Gothic Light, ';fill:#ffe4b3;stroke:#ffe4b3;stroke-width:0.2;stroke-miterlimit:4;stroke-dasharray:none;stroke-opacity:1"
           d="m 21.203855,291.40545 v 0.0386 h -0.434082 v -0.0386 q 0.09509,-0.006 0.224621,-0.17088 l 1.094162,-1.4621 q 0.07441,-0.1006 0.07441,-0.12402 0,-0.0372 -0.06615,-0.0482 v -0.0372 h 0.423058 v 0.0372 q -0.09508,0.006 -0.22462,0.17087 l -1.08176,1.46348 q -0.07579,0.10197 -0.07579,0.12402 0,0.0358 0.06615,0.0469 z" />
        <path
           inkscape:connector-curvature="0"
           id="path960"
           style="font-style:normal;font-variant:normal;font-weight:normal;font-stretch:normal;font-size:2.82222223px;line-height:1.25;font-family:'Copperplate Gothic Light';-inkscape-font-specification:'Copperplate Gothic Light, ';fill:#ffe4b3;stroke:#ffe4b3;stroke-width:0.2;stroke-miterlimit:4;stroke-dasharray:none;stroke-opacity:1"
           d="M 22.940183,290.3857 H 22.73899 l 0.493338,-0.8282 h 0.243912 l 0.493338,0.8282 h -0.20395 l -0.413411,-0.68075 z" />
        <path
           inkscape:connector-curvature="0"
           id="path962"
           style="font-style:normal;font-variant:normal;font-weight:normal;font-stretch:normal;font-size:2.82222223px;line-height:1.25;font-family:'Copperplate Gothic Light';-inkscape-font-specification:'Copperplate Gothic Light, ';fill:#ffe4b3;stroke:#ffe4b3;stroke-width:0.2;stroke-miterlimit:4;stroke-dasharray:none;stroke-opacity:1"
           d="m 25.342104,291.44403 -0.789616,-1.58061 v 1.418 q 0,0.0565 0.01791,0.0813 0.01791,0.0234 0.07028,0.0372 v 0.0441 h -0.373449 v -0.0441 q 0.05237,-0.0138 0.07028,-0.0372 0.01792,-0.0234 0.01792,-0.0813 v -1.5558 q 0,-0.0579 -0.01792,-0.0813 -0.01791,-0.0248 -0.07028,-0.0372 v -0.0441 h 0.487826 v 0.0441 q -0.06752,0.0234 -0.06752,0.0579 0,0.0165 0.04547,0.10611 l 0.62563,1.24161 0.628385,-1.25263 q 0.03307,-0.0661 0.03307,-0.0937 0,-0.0358 -0.06752,-0.0593 v -0.0441 h 0.49196 v 0.0441 q -0.05237,0.0138 -0.07028,0.0372 -0.01792,0.0234 -0.01792,0.0813 v 1.5558 q 0,0.0565 0.01792,0.0813 0.01791,0.0234 0.07028,0.0372 v 0.0441 h -0.392741 v -0.0441 q 0.05374,-0.0138 0.07028,-0.0372 0.01791,-0.0234 0.01791,-0.0813 v -1.418 z" />
        <path
           inkscape:connector-curvature="0"
           id="path964"
           style="font-style:normal;font-variant:normal;font-weight:normal;font-stretch:normal;font-size:2.82222223px;line-height:1.25;font-family:'Copperplate Gothic Light';-inkscape-font-specification:'Copperplate Gothic Light, ';fill:#ffe4b3;stroke:#ffe4b3;stroke-width:0.2;stroke-miterlimit:4;stroke-dasharray:none;stroke-opacity:1"
           d="m 26.942006,290.3857 h -0.201193 l 0.493338,-0.8282 h 0.243912 l 0.493338,0.8282 h -0.20395 l -0.413411,-0.68075 z" />
        <path
           inkscape:connector-curvature="0"
           id="path966"
           style="font-style:normal;font-variant:normal;font-weight:normal;font-stretch:normal;font-size:2.82222223px;line-height:1.25;font-family:'Copperplate Gothic Light';-inkscape-font-specification:'Copperplate Gothic Light, ';fill:#ffe4b3;stroke:#ffe4b3;stroke-width:0.2;stroke-miterlimit:4;stroke-dasharray:none;stroke-opacity:1"
           d="m 28.617701,289.56301 v 0.0372 q -0.06615,0.011 -0.06615,0.0482 0,0.0234 0.07441,0.12402 l 1.092784,1.4621 q 0.129536,0.16536 0.22462,0.17088 v 0.0386 h -0.434082 v -0.0386 q 0.06615,-0.011 0.06615,-0.0469 0,-0.0207 -0.07579,-0.12402 l -1.080382,-1.46348 q -0.129535,-0.16536 -0.22462,-0.17087 v -0.0372 z" />
      </g>
      <g
         id="text924"
         style="font-style:normal;font-variant:normal;font-weight:normal;font-stretch:normal;font-size:2.97226882px;line-height:1.25;font-family:'Yu Gothic UI';-inkscape-font-specification:'Yu Gothic UI';letter-spacing:0px;word-spacing:0px;fill:#ffe4b3;fill-opacity:1;stroke:none;stroke-width:0.24768905"
         aria-label="LUNETTA">
        <path
           id="path892"
           style="font-size:2.97226882px;fill:#ffe4b3;stroke-width:0.24768905"
           d="M 11.061028,295.90683 H 9.9812581 v -2.08117 h 0.2438189 v 1.86057 h 0.835951 z"
           inkscape:connector-curvature="0" />
        <path
           id="path894"
           style="font-size:2.97226882px;fill:#ffe4b3;stroke-width:0.24768905"
           d="m 12.902731,295.06507 q 0,0.87659 -0.79096,0.87659 -0.75758,0 -0.75758,-0.84321 v -1.27279 h 0.243819 v 1.25683 q 0,0.64002 0.539885,0.64002 0.521017,0 0.521017,-0.61825 v -1.2786 h 0.243819 z"
           inkscape:connector-curvature="0" />
        <path
           id="path896"
           style="font-size:2.97226882px;fill:#ffe4b3;stroke-width:0.24768905"
           d="m 15.101456,295.90683 h -0.298969 l -1.071062,-1.65884 q -0.04064,-0.0624 -0.06676,-0.13062 h -0.0087 q 0.01161,0.0668 0.01161,0.28591 v 1.50355 h -0.243819 v -2.08117 h 0.316384 l 1.042036,1.63272 q 0.06531,0.10159 0.08418,0.13932 h 0.0058 q -0.01451,-0.09 -0.01451,-0.30622 v -1.46582 h 0.243819 z"
           inkscape:connector-curvature="0" />
        <path
           id="path898"
           style="font-size:2.97226882px;fill:#ffe4b3;stroke-width:0.24768905"
           d="m 16.750136,295.90683 h -1.102991 v -2.08117 h 1.056549 v 0.2206 h -0.81273 v 0.69227 h 0.751775 v 0.21915 h -0.751775 v 0.72855 h 0.859172 z"
           inkscape:connector-curvature="0" />
        <path
           id="path900"
           style="font-size:2.97226882px;fill:#ffe4b3;stroke-width:0.24768905"
           d="m 18.381401,294.04626 h -0.60084 v 1.86057 h -0.243819 v -1.86057 h -0.599388 v -0.2206 h 1.444047 z"
           inkscape:connector-curvature="0" />
        <path
           id="path902"
           style="font-size:2.97226882px;fill:#ffe4b3;stroke-width:0.24768905"
           d="m 19.937197,294.04626 h -0.600839 v 1.86057 h -0.243819 v -1.86057 h -0.599388 v -0.2206 h 1.444046 z"
           inkscape:connector-curvature="0" />
        <path
           id="path904"
           style="font-size:2.97226882px;fill:#ffe4b3;stroke-width:0.24768905"
           d="M 21.768742,295.90683 H 21.4988 l -0.220598,-0.58342 h -0.882393 l -0.207536,0.58342 h -0.271394 l 0.798217,-2.08117 h 0.252527 z m -0.570362,-0.80257 -0.326543,-0.88675 q -0.01596,-0.0435 -0.03193,-0.13932 h -0.0058 q -0.01451,0.0885 -0.03338,0.13932 l -0.323641,0.88675 z"
           inkscape:connector-curvature="0" />
      </g>
    </g>
    <path
       inkscape:connector-curvature="0"
       id="path1089"
       d="m 18.520833,247.25832 2e-6,40.47539 h 10.583338 l -6e-6,-40.47539 z"
       style="display:inline;fill:none;stroke:#ffe4b3;stroke-width:0.26458332px;stroke-linecap:butt;stroke-linejoin:miter;stroke-opacity:1"
       sodipodi:nodetypes="ccccc" />
    <g
       aria-label="CD4532"
       style="font-style:normal;font-variant:normal;font-weight:600;font-stretch:normal;font-size:3.52777767px;line-height:1.25;font-family:'Yu Gothic UI';-inkscape-font-specification:'Yu Gothic UI Semi-Bold';letter-spacing:0px;word-spacing:0px;fill:#ffe4b3;fill-opacity:1;stroke:none;stroke-width:0.26458332"
       id="text994"
       transform="translate(-3.620794,-8.331156)">
      <path
         d="m 15.256605,208.26121 q -0.279053,0.14469 -0.694187,0.14469 -0.537435,0 -0.861274,-0.33934 -0.323839,-0.33934 -0.323839,-0.89055 0,-0.59256 0.363458,-0.95774 0.36518,-0.36518 0.921563,-0.36518 0.35829,0 0.594279,0.10163 v 0.40652 q -0.24977,-0.14814 -0.551216,-0.14814 -0.401353,0 -0.651123,0.25666 -0.248046,0.25666 -0.248046,0.68557 0,0.40825 0.232543,0.65113 0.232544,0.24115 0.611505,0.24115 0.349677,0 0.606337,-0.16536 z"
         style="font-style:normal;font-variant:normal;font-weight:600;font-stretch:normal;font-size:3.52777767px;font-family:'Yu Gothic UI';-inkscape-font-specification:'Yu Gothic UI Semi-Bold';fill:#ffe4b3;stroke-width:0.26458332"
         id="path996"
         inkscape:connector-curvature="0" />
      <path
         d="m 15.725138,208.36456 v -2.47013 h 0.713134 q 1.365981,0 1.365981,1.20406 0,0.57189 -0.378961,0.91984 -0.37896,0.34623 -1.016303,0.34623 z m 0.408243,-2.12218 v 1.77595 h 0.327284 q 0.43236,0 0.671794,-0.23771 0.241157,-0.23771 0.241157,-0.67179 0,-0.86645 -0.897448,-0.86645 z"
         style="font-style:normal;font-variant:normal;font-weight:600;font-stretch:normal;font-size:3.52777767px;font-family:'Yu Gothic UI';-inkscape-font-specification:'Yu Gothic UI Semi-Bold';fill:#ffe4b3;stroke-width:0.26458332"
         id="path998"
         inkscape:connector-curvature="0" />
      <path
         d="m 19.544026,205.89443 v 1.59508 h 0.366903 v 0.33245 h -0.366903 v 0.5426 h -0.387573 v -0.5426 h -1.117934 v -0.3359 q 0.151585,-0.17053 0.310059,-0.36862 0.160197,-0.19982 0.306614,-0.40652 0.148139,-0.20843 0.273885,-0.41686 0.125746,-0.20843 0.211873,-0.39963 z m -0.387573,1.59508 v -1.03697 q -0.187758,0.33761 -0.37207,0.58911 -0.18259,0.25149 -0.342787,0.44786 z"
         style="font-style:normal;font-variant:normal;font-weight:600;font-stretch:normal;font-size:3.52777767px;font-family:'Yu Gothic UI';-inkscape-font-specification:'Yu Gothic UI Semi-Bold';fill:#ffe4b3;stroke-width:0.26458332"
         id="path1000"
         inkscape:connector-curvature="0" />
      <path
         d="m 20.248548,208.30772 v -0.38413 q 0.242879,0.16364 0.492649,0.16364 0.251492,0 0.404798,-0.12747 0.153307,-0.12919 0.153307,-0.34278 0,-0.21015 -0.156752,-0.32729 -0.155029,-0.11713 -0.44614,-0.11713 -0.09991,0 -0.404798,0.0207 l 0.08785,-1.2988 h 1.216118 v 0.34106 h -0.883667 l -0.04134,0.6184 q 0.118856,-0.007 0.215319,-0.007 0.39274,0 0.606336,0.20154 0.215319,0.20153 0.215319,0.55121 0,0.3669 -0.246324,0.58911 -0.244602,0.22049 -0.673517,0.22049 -0.361735,0 -0.539157,-0.10163 z"
         style="font-style:normal;font-variant:normal;font-weight:600;font-stretch:normal;font-size:3.52777767px;font-family:'Yu Gothic UI';-inkscape-font-specification:'Yu Gothic UI Semi-Bold';fill:#ffe4b3;stroke-width:0.26458332"
         id="path1002"
         inkscape:connector-curvature="0" />
      <path
         d="m 22.15024,208.27327 v -0.37552 q 0.241157,0.19121 0.544325,0.19121 0.246325,0 0.392741,-0.11197 0.148139,-0.11197 0.148139,-0.30317 0,-0.4203 -0.64251,-0.4203 h -0.191203 v -0.32039 h 0.18259 q 0.570164,0 0.570164,-0.39619 0,-0.36518 -0.444418,-0.36518 -0.248047,0 -0.46681,0.17742 v -0.35484 q 0.251492,-0.14125 0.594279,-0.14125 0.329006,0 0.527099,0.16536 0.198093,0.16537 0.198093,0.42375 0,0.48748 -0.496093,0.62701 v 0.007 q 0.266995,0.0258 0.422024,0.18776 0.155029,0.16019 0.155029,0.40135 0,0.33245 -0.249769,0.53743 -0.24977,0.20326 -0.658014,0.20326 -0.366902,0 -0.585666,-0.13263 z"
         style="font-style:normal;font-variant:normal;font-weight:600;font-stretch:normal;font-size:3.52777767px;font-family:'Yu Gothic UI';-inkscape-font-specification:'Yu Gothic UI Semi-Bold';fill:#ffe4b3;stroke-width:0.26458332"
         id="path1004"
         inkscape:connector-curvature="0" />
      <path
         d="m 25.614284,208.36456 h -1.550293 v -0.1912 q 0,-0.11713 0.03273,-0.21876 0.03273,-0.10336 0.08785,-0.19293 0.05512,-0.0913 0.129191,-0.17053 0.07407,-0.081 0.158474,-0.15503 0.08441,-0.0758 0.172255,-0.14469 0.08785,-0.0706 0.172255,-0.14125 0.07924,-0.0672 0.144694,-0.13092 0.06546,-0.0654 0.111965,-0.13436 0.04651,-0.0689 0.07235,-0.14469 0.02584,-0.0775 0.02584,-0.16709 0,-0.0982 -0.03101,-0.17053 -0.02928,-0.0741 -0.08441,-0.1223 -0.0534,-0.0499 -0.127469,-0.0741 -0.07407,-0.0258 -0.161919,-0.0258 -0.151584,0 -0.308336,0.0706 -0.156752,0.0706 -0.301446,0.21187 v -0.38413 q 0.07579,-0.0568 0.153307,-0.0982 0.07751,-0.0431 0.160197,-0.0706 0.08268,-0.0293 0.173977,-0.0431 0.09129,-0.0138 0.194648,-0.0138 0.167087,0 0.303168,0.0448 0.136081,0.0431 0.232544,0.1292 0.09646,0.0844 0.148139,0.21187 0.0534,0.12747 0.0534,0.29283 0,0.14986 -0.0379,0.27044 -0.03617,0.11886 -0.105075,0.22221 -0.06718,0.10335 -0.163642,0.19637 -0.09646,0.093 -0.215319,0.1912 -0.09991,0.081 -0.199815,0.15848 -0.09819,0.0758 -0.177423,0.14986 -0.07924,0.0724 -0.129191,0.14642 -0.04823,0.0723 -0.04823,0.14641 v 0.009 h 1.114488 z"
         style="font-style:normal;font-variant:normal;font-weight:600;font-stretch:normal;font-size:3.52777767px;font-family:'Yu Gothic UI';-inkscape-font-specification:'Yu Gothic UI Semi-Bold';fill:#ffe4b3;stroke-width:0.26458332"
         id="path1006"
         inkscape:connector-curvature="0" />
    </g>
    <g
       aria-label="E"
       style="font-style:normal;font-variant:normal;font-weight:normal;font-stretch:normal;font-size:2.82222223px;line-height:1.25;font-family:'Yu Gothic UI';-inkscape-font-specification:'Yu Gothic UI';letter-spacing:0px;word-spacing:0px;fill:#ffe4b3;fill-opacity:1;stroke:none;stroke-width:0.26458332"
       id="text1019"
       transform="translate(1.8631085,-33.787917)">
      <path
         d="m 22.47305,240.11456 h -1.047309 v -1.9761 h 1.003212 v 0.20946 h -0.771702 v 0.65732 h 0.713824 v 0.20809 h -0.713824 v 0.69177 h 0.815799 z"
         style="fill:#ffe4b3;stroke-width:0.26458332"
         id="path1126"
         inkscape:connector-curvature="0" />
    </g>
    <g
       aria-label="GS"
       style="font-style:normal;font-variant:normal;font-weight:normal;font-stretch:normal;font-size:2.82222223px;line-height:1.25;font-family:'Yu Gothic UI';-inkscape-font-specification:'Yu Gothic UI';letter-spacing:0px;word-spacing:0px;fill:#ffe4b3;fill-opacity:1;stroke:none;stroke-width:0.26458332"
       id="text1023"
       transform="translate(1.1120566,-9.9941633)">
      <path
         d="m 20.257162,245.27119 q -0.297656,0.16812 -0.661458,0.16812 -0.423058,0 -0.684885,-0.27285 -0.260449,-0.27286 -0.260449,-0.7221 0,-0.45888 0.289388,-0.7524 0.290766,-0.2949 0.735872,-0.2949 0.322461,0 0.541569,0.10473 v 0.25631 q -0.239779,-0.15158 -0.567752,-0.15158 -0.332107,0 -0.544325,0.22875 -0.212218,0.22876 -0.212218,0.59256 0,0.37482 0.19706,0.5898 0.197059,0.21359 0.534679,0.21359 0.23151,0 0.401009,-0.0923 v -0.55398 h -0.432704 v -0.20946 h 0.664214 z"
         style="fill:#ffe4b3;stroke-width:0.26458332"
         id="path1120"
         inkscape:connector-curvature="0" />
      <path
         d="m 20.622342,245.32631 v -0.27285 q 0.04685,0.0413 0.111621,0.0744 0.06615,0.0331 0.137804,0.0565 0.07304,0.0221 0.146072,0.0344 0.07304,0.0124 0.135048,0.0124 0.213596,0 0.318327,-0.0785 0.106109,-0.0799 0.106109,-0.22876 0,-0.0799 -0.03583,-0.13918 -0.03445,-0.0593 -0.09646,-0.10749 -0.06201,-0.0496 -0.14745,-0.0937 -0.08406,-0.0455 -0.181901,-0.0951 -0.103353,-0.0524 -0.192926,-0.10611 -0.08957,-0.0537 -0.155718,-0.11851 -0.06615,-0.0648 -0.104731,-0.14607 -0.03721,-0.0827 -0.03721,-0.19293 0,-0.13504 0.05926,-0.23426 0.05926,-0.1006 0.155718,-0.16537 0.09646,-0.0648 0.219108,-0.0965 0.124024,-0.0317 0.252181,-0.0317 0.292144,0 0.425814,0.0703 v 0.26045 q -0.175011,-0.12126 -0.44924,-0.12126 -0.07579,0 -0.151585,0.0165 -0.07579,0.0152 -0.135047,0.051 -0.05926,0.0358 -0.09646,0.0923 -0.03721,0.0565 -0.03721,0.1378 0,0.0758 0.02756,0.13092 0.02894,0.0551 0.08406,0.10059 0.05512,0.0455 0.13367,0.0882 0.07993,0.0427 0.183279,0.0937 0.106109,0.0524 0.201193,0.11025 0.09509,0.0579 0.166743,0.12816 0.07166,0.0703 0.112999,0.15571 0.04272,0.0854 0.04272,0.19568 0,0.14608 -0.05788,0.24805 -0.0565,0.1006 -0.154341,0.16399 -0.09646,0.0634 -0.223242,0.0909 -0.126779,0.0289 -0.267339,0.0289 -0.04685,0 -0.115755,-0.008 -0.0689,-0.007 -0.14056,-0.0221 -0.07166,-0.0138 -0.136426,-0.0344 -0.06339,-0.0221 -0.101975,-0.0482 z"
         style="fill:#ffe4b3;stroke-width:0.26458332"
         id="path1122"
         inkscape:connector-curvature="0" />
    </g>
    <g
       aria-label="O2"
       style="font-style:normal;font-variant:normal;font-weight:normal;font-stretch:normal;font-size:2.82222223px;line-height:1.25;font-family:'Yu Gothic UI';-inkscape-font-specification:'Yu Gothic UI';letter-spacing:0px;word-spacing:0px;fill:#ffe4b3;fill-opacity:1;stroke:none;stroke-width:0.26458332"
       id="text1031"
       transform="translate(-0.2108594,23.062436)">
      <path
         d="m 20.899327,256.02264 q -0.420301,0 -0.67386,-0.27699 -0.252181,-0.27699 -0.252181,-0.72071 0,-0.4768 0.257693,-0.76068 0.257693,-0.28388 0.701421,-0.28388 0.409278,0 0.658702,0.27561 0.250803,0.27561 0.250803,0.72071 0,0.4837 -0.256315,0.76482 -0.256315,0.28112 -0.686263,0.28112 z m 0.01654,-1.83279 q -0.311437,0 -0.50574,0.22462 -0.194304,0.22462 -0.194304,0.5898 0,0.36518 0.188792,0.58842 0.190169,0.22186 0.494715,0.22186 0.325217,0 0.51263,-0.21222 0.187414,-0.21221 0.187414,-0.59393 0,-0.39136 -0.181901,-0.60496 -0.181901,-0.21359 -0.501606,-0.21359 z"
         style="fill:#ffe4b3;stroke-width:0.26458332"
         id="path1110"
         inkscape:connector-curvature="0" />
      <path
         d="m 23.035287,254.5316 q 0,-0.0909 -0.02894,-0.15848 -0.02756,-0.0675 -0.07717,-0.11162 -0.04823,-0.0455 -0.114378,-0.0675 -0.06615,-0.0221 -0.143316,-0.0221 -0.06614,0 -0.129535,0.0179 -0.06339,0.0179 -0.124024,0.0496 -0.05926,0.0317 -0.115755,0.0758 -0.05512,0.0441 -0.103353,0.0978 v -0.24254 q 0.09509,-0.0923 0.212218,-0.14056 0.118512,-0.0496 0.28801,-0.0496 0.121268,0 0.22462,0.0358 0.103353,0.0344 0.179145,0.10198 0.07579,0.0675 0.118512,0.16674 0.0441,0.0992 0.0441,0.22738 0,0.11713 -0.02756,0.21221 -0.02618,0.0951 -0.0813,0.17915 -0.05374,0.0841 -0.136426,0.16123 -0.08268,0.0772 -0.194303,0.1571 -0.139182,0.0992 -0.230133,0.16949 -0.08957,0.0703 -0.143316,0.1323 -0.05237,0.0606 -0.07441,0.12264 -0.02067,0.0606 -0.02067,0.14056 h 0.983919 v 0.20257 h -1.219564 v -0.0978 q 0,-0.12678 0.02756,-0.22324 0.02756,-0.0965 0.09095,-0.18328 0.06339,-0.0868 0.165365,-0.17363 0.103353,-0.0868 0.252181,-0.19568 0.107487,-0.0772 0.179145,-0.14745 0.07304,-0.0703 0.117133,-0.14056 0.0441,-0.0703 0.06201,-0.14194 0.01929,-0.073 0.01929,-0.15434 z"
         style="fill:#ffe4b3;stroke-width:0.26458332"
         id="path1112"
         inkscape:connector-curvature="0" />
    </g>
    <g
       aria-label="D0"
       style="font-style:normal;font-variant:normal;font-weight:normal;font-stretch:normal;font-size:2.82222223px;line-height:1.25;font-family:'Yu Gothic UI';-inkscape-font-specification:'Yu Gothic UI';letter-spacing:0px;word-spacing:0px;fill:#ffe4b3;fill-opacity:1;stroke:none;stroke-width:0.26458332"
       id="text1039"
       transform="translate(-10.769123,-77.790425)">
      <path
         d="m 12.165321,283.42972 v -1.97611 h 0.545703 q 1.044553,0 1.044553,0.96325 0,0.45751 -0.290766,0.73587 -0.289388,0.27699 -0.775835,0.27699 z m 0.231511,-1.76665 v 1.55719 h 0.2949 q 0.388607,0 0.604959,-0.20809 0.216352,-0.20808 0.216352,-0.5898 0,-0.7593 -0.807531,-0.7593 z"
         style="fill:#ffe4b3;stroke-width:0.26458332"
         id="path1129"
         inkscape:connector-curvature="0" />
      <path
         d="m 15.290712,282.4334 q 0,0.24804 -0.04547,0.43959 -0.0441,0.19155 -0.129536,0.32384 -0.08406,0.13091 -0.208084,0.19982 -0.122645,0.0675 -0.279742,0.0675 -0.148828,0 -0.265961,-0.0648 -0.115755,-0.0661 -0.195681,-0.19155 -0.07993,-0.1254 -0.121268,-0.3073 -0.04134,-0.18328 -0.04134,-0.41892 0,-0.25907 0.04272,-0.45751 0.0441,-0.19844 0.128158,-0.33211 0.08406,-0.13505 0.208084,-0.20257 0.125401,-0.0689 0.286632,-0.0689 0.621495,0 0.621495,1.01286 z m -0.231511,0.022 q 0,-0.84336 -0.401009,-0.84336 -0.423057,0 -0.423057,0.85851 0,0.80064 0.414789,0.80064 0.409277,0 0.409277,-0.81579 z"
         style="fill:#ffe4b3;stroke-width:0.26458332"
         id="path1131"
         inkscape:connector-curvature="0" />
    </g>
    <g
       aria-label="D1"
       style="font-style:normal;font-variant:normal;font-weight:normal;font-stretch:normal;font-size:2.82222223px;line-height:1.25;font-family:'Yu Gothic UI';-inkscape-font-specification:'Yu Gothic UI';letter-spacing:0px;word-spacing:0px;fill:#ffe4b3;fill-opacity:1;stroke:none;stroke-width:0.26458332"
       id="text1043"
       transform="translate(-11.888086,-55.560624)">
      <path
         d="m 13.488237,272.34067 v -1.97611 h 0.545703 q 1.044553,0 1.044553,0.96325 0,0.45751 -0.290766,0.73587 -0.289388,0.27699 -0.775835,0.27699 z m 0.231511,-1.76665 v 1.55719 h 0.2949 q 0.388607,0 0.604959,-0.20809 0.216352,-0.20808 0.216352,-0.5898 0,-0.7593 -0.807531,-0.7593 z"
         style="fill:#ffe4b3;stroke-width:0.26458332"
         id="path1100"
         inkscape:connector-curvature="0" />
      <path
         d="M 16.205729,272.34067 H 15.97973 v -1.70739 q -0.02618,0.0262 -0.07717,0.0606 -0.04961,0.0331 -0.112999,0.0661 -0.06201,0.0331 -0.132292,0.062 -0.0689,0.0289 -0.135047,0.0455 v -0.22875 q 0.07441,-0.0207 0.157096,-0.0551 0.08406,-0.0358 0.163987,-0.0786 0.0813,-0.0441 0.152962,-0.0909 0.07166,-0.0482 0.124023,-0.0937 h 0.08544 z"
         style="fill:#ffe4b3;stroke-width:0.26458332"
         id="path1102"
         inkscape:connector-curvature="0" />
    </g>
    <g
       aria-label="D2"
       style="font-style:normal;font-variant:normal;font-weight:normal;font-stretch:normal;font-size:2.82222223px;line-height:1.25;font-family:'Yu Gothic UI';-inkscape-font-specification:'Yu Gothic UI';letter-spacing:0px;word-spacing:0px;fill:#ffe4b3;fill-opacity:1;stroke:none;stroke-width:0.26458332"
       id="text1047"
       transform="translate(-12.074126,-33.344807)">
      <path
         d="m 13.488237,261.22333 v -1.97611 h 0.545703 q 1.044553,0 1.044553,0.96325 0,0.45751 -0.290766,0.73587 -0.289388,0.27699 -0.775835,0.27699 z m 0.231511,-1.76665 v 1.55719 h 0.2949 q 0.388607,0 0.604959,-0.20809 0.216352,-0.20808 0.216352,-0.5898 0,-0.7593 -0.807531,-0.7593 z"
         style="fill:#ffe4b3;stroke-width:0.26458332"
         id="path1095"
         inkscape:connector-curvature="0" />
      <path
         d="m 16.271874,259.76536 q 0,-0.0909 -0.02894,-0.15847 -0.02756,-0.0675 -0.07717,-0.11162 -0.04823,-0.0455 -0.114377,-0.0675 -0.06615,-0.022 -0.143316,-0.022 -0.06615,0 -0.129535,0.0179 -0.06339,0.0179 -0.124024,0.0496 -0.05926,0.0317 -0.115755,0.0758 -0.05512,0.0441 -0.103353,0.0978 v -0.24253 q 0.09509,-0.0923 0.212218,-0.14056 0.118511,-0.0496 0.28801,-0.0496 0.121267,0 0.22462,0.0358 0.103353,0.0344 0.179145,0.10197 0.07579,0.0675 0.118512,0.16674 0.0441,0.0992 0.0441,0.22738 0,0.11713 -0.02756,0.21222 -0.02618,0.0951 -0.0813,0.17914 -0.05374,0.0841 -0.136426,0.16123 -0.08268,0.0772 -0.194303,0.1571 -0.139182,0.0992 -0.230133,0.1695 -0.08957,0.0703 -0.143316,0.13229 -0.05236,0.0606 -0.07441,0.12265 -0.02067,0.0606 -0.02067,0.14056 h 0.983919 v 0.20257 h -1.219564 v -0.0978 q 0,-0.12678 0.02756,-0.22325 0.02756,-0.0965 0.09095,-0.18327 0.06339,-0.0868 0.165365,-0.17364 0.103353,-0.0868 0.252181,-0.19568 0.107487,-0.0772 0.179145,-0.14745 0.07304,-0.0703 0.117133,-0.14056 0.0441,-0.0703 0.06201,-0.14194 0.01929,-0.073 0.01929,-0.15434 z"
         style="fill:#ffe4b3;stroke-width:0.26458332"
         id="path1097"
         inkscape:connector-curvature="0" />
    </g>
    <g
       aria-label="D3"
       style="font-style:normal;font-variant:normal;font-weight:normal;font-stretch:normal;font-size:2.82222223px;line-height:1.25;font-family:'Yu Gothic UI';-inkscape-font-specification:'Yu Gothic UI';letter-spacing:0px;word-spacing:0px;fill:#ffe4b3;fill-opacity:1;stroke:none;stroke-width:0.26458332"
       id="text1051"
       transform="translate(-12.045871,-11.118281)">
      <path
         d="m 13.488237,250.09537 v -1.97611 h 0.545703 q 1.044553,0 1.044553,0.96325 0,0.45751 -0.290766,0.73587 -0.289388,0.27699 -0.775835,0.27699 z m 0.231511,-1.76665 v 1.55719 h 0.2949 q 0.388607,0 0.604959,-0.20809 0.216352,-0.20808 0.216352,-0.5898 0,-0.7593 -0.807531,-0.7593 z"
         style="fill:#ffe4b3;stroke-width:0.26458332"
         id="path1090"
         inkscape:connector-curvature="0" />
      <path
         d="m 16.521299,249.53588 q 0,0.13367 -0.05099,0.24392 -0.04961,0.10886 -0.141938,0.18741 -0.09095,0.0772 -0.219108,0.11989 -0.128158,0.0427 -0.282498,0.0427 -0.282498,0 -0.44924,-0.10749 v -0.24253 q 0.199815,0.15709 0.457508,0.15709 0.103353,0 0.186035,-0.0262 0.08406,-0.0262 0.143316,-0.0758 0.06063,-0.0496 0.09233,-0.11989 0.03307,-0.0703 0.03307,-0.15848 0,-0.38722 -0.551215,-0.38722 h -0.163987 v -0.19155 H 15.7303 q 0.487826,0 0.487826,-0.3638 0,-0.33624 -0.37207,-0.33624 -0.209462,0 -0.392741,0.14055 v -0.2191 q 0.188791,-0.113 0.44924,-0.113 0.124024,0 0.22462,0.0345 0.100597,0.0344 0.172255,0.0965 0.07166,0.062 0.110243,0.14883 0.03996,0.0868 0.03996,0.19155 0,0.38998 -0.394119,0.5016 v 0.006 q 0.100597,0.011 0.186036,0.0496 0.08544,0.0372 0.14745,0.0978 0.06201,0.0606 0.09646,0.14332 0.03583,0.0813 0.03583,0.18052 z"
         style="fill:#ffe4b3;stroke-width:0.26458332"
         id="path1092"
         inkscape:connector-curvature="0" />
    </g>
    <g
       aria-label="D4"
       style="font-style:normal;font-variant:normal;font-weight:normal;font-stretch:normal;font-size:2.82222223px;line-height:1.25;font-family:'Yu Gothic UI';-inkscape-font-specification:'Yu Gothic UI';letter-spacing:0px;word-spacing:0px;fill:#ffe4b3;fill-opacity:1;stroke:none;stroke-width:0.26458332"
       id="text1055"
       transform="translate(-10.778765,11.118324)">
      <path
         d="m 12.165321,238.97774 v -1.97611 h 0.545703 q 1.044553,0 1.044553,0.96325 0,0.45751 -0.290766,0.73587 -0.289388,0.27699 -0.775835,0.27699 z m 0.231511,-1.76665 v 1.55719 h 0.2949 q 0.388607,0 0.604959,-0.20809 0.216352,-0.20808 0.216352,-0.5898 0,-0.7593 -0.807531,-0.7593 z"
         style="fill:#ffe4b3;stroke-width:0.26458332"
         id="path1084"
         inkscape:connector-curvature="0" />
      <path
         d="m 15.056445,237.00163 v 1.305 h 0.253559 v 0.20671 h -0.253559 v 0.4644 h -0.223242 v -0.4644 h -0.928798 v -0.19568 q 0.129536,-0.14607 0.261828,-0.31144 0.132291,-0.16674 0.252181,-0.33762 0.121267,-0.17088 0.223242,-0.34037 0.103353,-0.17088 0.173633,-0.3266 z m -0.897103,1.305 h 0.673861 v -0.96738 q -0.103353,0.18052 -0.195681,0.32246 -0.09233,0.14194 -0.176389,0.25769 -0.08268,0.11576 -0.158475,0.20947 -0.07579,0.0937 -0.143316,0.17776 z"
         style="fill:#ffe4b3;stroke-width:0.26458332"
         id="path1086"
         inkscape:connector-curvature="0" />
    </g>
    <g
       aria-label="D5"
       style="font-style:normal;font-variant:normal;font-weight:normal;font-stretch:normal;font-size:2.82222223px;line-height:1.25;font-family:'Yu Gothic UI';-inkscape-font-specification:'Yu Gothic UI';letter-spacing:0px;word-spacing:0px;fill:#ffe4b3;fill-opacity:1;stroke:none;stroke-width:0.26458332"
       id="text1059"
       transform="translate(-9.4110625,33.345043)">
      <path
         d="m 10.842404,227.84477 v -1.9761 h 0.545703 q 1.044553,0 1.044553,0.96324 0,0.45751 -0.290766,0.73588 -0.289388,0.27698 -0.775835,0.27698 z m 0.231511,-1.76664 v 1.55718 h 0.2949 q 0.388607,0 0.604959,-0.20808 0.216352,-0.20809 0.216352,-0.5898 0,-0.7593 -0.807531,-0.7593 z"
         style="fill:#ffe4b3;stroke-width:0.26458332"
         id="path1079"
         inkscape:connector-curvature="0" />
      <path
         d="m 13.897515,227.24119 q 0,0.1447 -0.04961,0.26183 -0.04961,0.11713 -0.141938,0.20119 -0.09095,0.0841 -0.220487,0.12954 -0.129535,0.0455 -0.288009,0.0455 -0.275608,0 -0.409278,-0.0827 v -0.23978 q 0.201194,0.12954 0.412034,0.12954 0.107487,0 0.192925,-0.0317 0.08682,-0.0317 0.14745,-0.0882 0.06063,-0.0565 0.09233,-0.13643 0.03307,-0.0799 0.03307,-0.17501 0,-0.19292 -0.129535,-0.30179 -0.129536,-0.11024 -0.376205,-0.11024 -0.03996,0 -0.08406,0.001 -0.0441,0.001 -0.08819,0.004 -0.0441,0.001 -0.08682,0.004 -0.04134,0.003 -0.07579,0.007 l 0.06752,-0.99081 h 0.913639 v 0.20395 h -0.717958 l -0.03996,0.58015 q 0.0441,-0.003 0.09371,-0.004 0.04961,-0.003 0.08819,-0.003 0.157097,0 0.28112,0.0413 0.124024,0.0413 0.209462,0.11851 0.08682,0.0758 0.130914,0.18741 0.04547,0.11025 0.04547,0.24805 z"
         style="fill:#ffe4b3;stroke-width:0.26458332"
         id="path1081"
         inkscape:connector-curvature="0" />
    </g>
    <g
       aria-label="D6"
       style="font-style:normal;font-variant:normal;font-weight:normal;font-stretch:normal;font-size:2.82222223px;line-height:1.25;font-family:'Yu Gothic UI';-inkscape-font-specification:'Yu Gothic UI';letter-spacing:0px;word-spacing:0px;fill:#ffe4b3;fill-opacity:1;stroke:none;stroke-width:0.26458332"
       id="text1063"
       transform="translate(-9.4475805,55.560663)">
      <path
         d="m 10.842404,216.75729 v -1.9761 h 0.545703 q 1.044553,0 1.044553,0.96325 0,0.4575 -0.290766,0.73587 -0.289388,0.27698 -0.775835,0.27698 z m 0.231511,-1.76664 v 1.55718 h 0.2949 q 0.388607,0 0.604959,-0.20808 0.216352,-0.20809 0.216352,-0.5898 0,-0.7593 -0.807531,-0.7593 z"
         style="fill:#ffe4b3;stroke-width:0.26458332"
         id="path1074"
         inkscape:connector-curvature="0" />
      <path
         d="m 13.970551,216.13029 q 0,0.14469 -0.04685,0.26596 -0.04685,0.12127 -0.129536,0.20946 -0.08268,0.0882 -0.197059,0.1378 -0.114378,0.0482 -0.248047,0.0482 -0.148828,0 -0.26734,-0.062 -0.117133,-0.062 -0.199815,-0.17776 -0.0813,-0.11714 -0.124024,-0.28526 -0.04272,-0.16812 -0.04272,-0.37896 0,-0.25769 0.0565,-0.46715 0.05788,-0.21084 0.162608,-0.35967 0.106109,-0.15021 0.254937,-0.23151 0.148828,-0.0813 0.332107,-0.0813 0.20395,0 0.327974,0.0565 v 0.2136 q -0.152963,-0.0786 -0.322461,-0.0786 -0.132292,0 -0.238401,0.0593 -0.106109,0.0592 -0.181901,0.16812 -0.07579,0.10748 -0.117133,0.26045 -0.03996,0.15296 -0.03996,0.34037 h 0.0055 q 0.136426,-0.24667 0.450618,-0.24667 0.129536,0 0.232889,0.0441 0.104731,0.0441 0.177767,0.1254 0.07441,0.0799 0.114377,0.19155 0.03996,0.11162 0.03996,0.24805 z m -0.23151,0.0289 q 0,-0.10336 -0.02618,-0.18604 -0.02618,-0.0827 -0.07579,-0.14056 -0.04823,-0.0579 -0.11989,-0.0882 -0.07166,-0.0317 -0.162608,-0.0317 -0.08406,0 -0.155718,0.0317 -0.07166,0.0317 -0.124024,0.0868 -0.05236,0.0537 -0.08268,0.12678 -0.02894,0.0717 -0.02894,0.15296 0,0.10198 0.02894,0.19155 0.02894,0.0882 0.0813,0.15434 0.05237,0.0661 0.124024,0.10473 0.07304,0.0372 0.16123,0.0372 0.08544,0 0.155718,-0.0317 0.07028,-0.0331 0.11989,-0.0909 0.04961,-0.0579 0.07717,-0.1378 0.02756,-0.0813 0.02756,-0.17914 z"
         style="fill:#ffe4b3;stroke-width:0.26458332"
         id="path1076"
         inkscape:connector-curvature="0" />
    </g>
    <g
       aria-label="D7"
       style="font-style:normal;font-variant:normal;font-weight:normal;font-stretch:normal;font-size:2.82222223px;line-height:1.25;font-family:'Yu Gothic UI';-inkscape-font-specification:'Yu Gothic UI';letter-spacing:0px;word-spacing:0px;fill:#ffe4b3;fill-opacity:1;stroke:none;stroke-width:0.26458332"
       id="text1067"
       transform="translate(-10.762229,77.790453)">
      <path
         d="m 12.165321,205.63995 v -1.9761 h 0.545703 q 1.044553,0 1.044553,0.96325 0,0.4575 -0.290766,0.73587 -0.289388,0.27698 -0.775835,0.27698 z m 0.231511,-1.76664 v 1.55718 h 0.2949 q 0.388607,0 0.604959,-0.20808 0.216352,-0.20809 0.216352,-0.5898 0,-0.7593 -0.807531,-0.7593 z"
         style="fill:#ffe4b3;stroke-width:0.26458332"
         id="path1069"
         inkscape:connector-curvature="0" />
      <path
         d="m 15.276931,203.79476 q -0.04547,0.0786 -0.110243,0.19568 -0.06339,0.11714 -0.135047,0.26321 -0.07166,0.14607 -0.146072,0.31419 -0.07441,0.16812 -0.139182,0.34727 -0.06477,0.17914 -0.114377,0.3638 -0.04823,0.18328 -0.07028,0.36104 h -0.242535 q 0.0248,-0.17639 0.07579,-0.35966 0.05236,-0.18466 0.117133,-0.36105 0.06615,-0.17777 0.139182,-0.34175 0.07304,-0.16399 0.141938,-0.30179 0.0689,-0.13781 0.125402,-0.24254 0.05788,-0.10611 0.09233,-0.16536 h -0.990809 v -0.20395 h 1.25677 z"
         style="fill:#ffe4b3;stroke-width:0.26458332"
         id="path1071"
         inkscape:connector-curvature="0" />
    </g>
    <g
       aria-label="O0"
       style="font-style:normal;font-variant:normal;font-weight:normal;font-stretch:normal;font-size:2.82222223px;line-height:1.25;font-family:'Yu Gothic UI';-inkscape-font-specification:'Yu Gothic UI';letter-spacing:0px;word-spacing:0px;fill:#ffe4b3;fill-opacity:1;stroke:none;stroke-width:0.26458332"
       id="text1136"
       transform="translate(-2.8566934,-14.029083)">
      <path
         d="m 23.545161,263.96014 q -0.420301,0 -0.67386,-0.27699 -0.252181,-0.27699 -0.252181,-0.72071 0,-0.4768 0.257693,-0.76068 0.257693,-0.28388 0.701421,-0.28388 0.409277,0 0.658702,0.27561 0.250803,0.27561 0.250803,0.72071 0,0.4837 -0.256315,0.76482 -0.256315,0.28112 -0.686263,0.28112 z m 0.01654,-1.83279 q -0.311437,0 -0.50574,0.22462 -0.194304,0.22462 -0.194304,0.5898 0,0.36518 0.188792,0.58842 0.190169,0.22186 0.494715,0.22186 0.325217,0 0.51263,-0.21222 0.187414,-0.21221 0.187414,-0.59393 0,-0.39136 -0.181901,-0.60496 -0.181901,-0.21359 -0.501606,-0.21359 z"
         style="fill:#ffe4b3;stroke-width:0.26458332"
         id="path1138"
         inkscape:connector-curvature="0" />
      <path
         d="m 26.022874,262.93074 q 0,0.24805 -0.04548,0.4396 -0.0441,0.19154 -0.129536,0.32383 -0.08406,0.13092 -0.208084,0.19982 -0.122645,0.0675 -0.279741,0.0675 -0.148829,0 -0.265962,-0.0648 -0.115755,-0.0661 -0.195681,-0.19155 -0.07993,-0.1254 -0.121268,-0.3073 -0.04134,-0.18328 -0.04134,-0.41893 0,-0.25907 0.04272,-0.45751 0.0441,-0.19843 0.128158,-0.3321 0.08406,-0.13505 0.208084,-0.20257 0.125401,-0.0689 0.286632,-0.0689 0.621495,0 0.621495,1.01286 z m -0.23151,0.022 q 0,-0.84336 -0.40101,-0.84336 -0.423057,0 -0.423057,0.85852 0,0.80064 0.414789,0.80064 0.409278,0 0.409278,-0.8158 z"
         style="fill:#ffe4b3;stroke-width:0.26458332"
         id="path1140"
         inkscape:connector-curvature="0" />
    </g>
    <g
       aria-label="8-BIT PRIORITY ENCODER"
       style="font-style:normal;font-variant:normal;font-weight:normal;font-stretch:normal;font-size:2.11666656px;line-height:1.25;font-family:'Yu Gothic UI';-inkscape-font-specification:'Yu Gothic UI';letter-spacing:0px;word-spacing:0px;fill:#ffe4b3;fill-opacity:1;stroke:none;stroke-width:0.26458332"
       id="text1145"
       transform="translate(-5.4911368,-4.7557814)">
      <path
         d="m 9.3534346,206.62825 q 0,-0.0589 0.018603,-0.11783 0.018604,-0.0599 0.05271,-0.11162 0.03514,-0.0517 0.085783,-0.094 0.051676,-0.0424 0.1167887,-0.0672 -0.096118,-0.0537 -0.1529622,-0.13746 -0.056844,-0.0848 -0.056844,-0.18707 0,-0.0816 0.031006,-0.15089 0.032039,-0.0692 0.08785,-0.11989 0.055811,-0.0506 0.1322917,-0.0786 0.076481,-0.0289 0.1653646,-0.0289 0.089917,0 0.1663976,0.0289 0.07648,0.0289 0.132292,0.0796 0.05581,0.0506 0.08682,0.11989 0.03101,0.0692 0.03101,0.14986 0,0.10232 -0.05684,0.18707 -0.05684,0.0837 -0.150895,0.13746 0.06408,0.0248 0.114722,0.0672 0.05064,0.0424 0.08475,0.094 0.03514,0.0517 0.05374,0.11162 0.0186,0.0589 0.0186,0.11783 0,0.0971 -0.03514,0.17776 -0.03514,0.0806 -0.09922,0.13849 -0.06304,0.0568 -0.151928,0.0889 -0.08785,0.032 -0.1943036,0.032 -0.10542,0 -0.1932699,-0.032 -0.08785,-0.032 -0.1519287,-0.0889 -0.064079,-0.0579 -0.1002523,-0.13849 -0.03514,-0.0806 -0.03514,-0.17776 z m 0.183968,-0.0145 q 0,0.0692 0.020671,0.12505 0.021704,0.0558 0.059945,0.0951 0.039274,0.0393 0.094051,0.061 0.05581,0.0207 0.1229899,0.0207 0.065112,0 0.1198893,-0.0217 0.054777,-0.0217 0.094051,-0.061 0.04031,-0.0393 0.06201,-0.0951 0.02274,-0.0558 0.02274,-0.12402 0,-0.062 -0.0217,-0.11576 -0.02067,-0.0548 -0.05995,-0.0961 -0.03927,-0.0413 -0.094051,-0.0651 -0.054777,-0.0238 -0.1229899,-0.0238 -0.064079,0 -0.1188558,0.0227 -0.053743,0.0217 -0.094051,0.062 -0.039274,0.0393 -0.062012,0.0951 -0.022738,0.0548 -0.022737,0.12093 z m 0.05271,-0.6873 q 0,0.0527 0.018604,0.0982 0.019637,0.0444 0.05271,0.0785 0.034106,0.0331 0.078548,0.0527 0.044442,0.0186 0.095085,0.0186 0.050643,0 0.095085,-0.0196 0.045475,-0.0196 0.078549,-0.0527 0.03307,-0.0341 0.05271,-0.0786 0.01964,-0.0455 0.01964,-0.0971 0,-0.0537 -0.01964,-0.0992 -0.0186,-0.0455 -0.05168,-0.0786 -0.033073,-0.0331 -0.078548,-0.0517 -0.044442,-0.0196 -0.096118,-0.0196 -0.054777,0 -0.1002523,0.0196 -0.044442,0.0196 -0.077515,0.0537 -0.032039,0.0331 -0.049609,0.0786 -0.01757,0.0455 -0.01757,0.0971 z"
         style="font-size:2.11666656px;fill:#ffe4b3;stroke-width:0.26458332"
         id="path1147"
         inkscape:connector-curvature="0" />
      <path
         d="m 11.114567,206.51869 h -0.564306 v -0.13332 h 0.564306 z"
         style="font-size:2.11666656px;fill:#ffe4b3;stroke-width:0.26458332"
         id="path1149"
         inkscape:connector-curvature="0" />
      <path
         d="m 11.443229,207.04166 v -1.48208 h 0.42168 q 0.192236,0 0.304891,0.094 0.112655,0.0941 0.112655,0.24494 0,0.12609 -0.06821,0.21911 -0.06821,0.093 -0.188103,0.13229 v 0.004 q 0.149862,0.0176 0.239779,0.11369 0.08992,0.0951 0.08992,0.24804 0,0.19017 -0.136426,0.30799 -0.136426,0.11783 -0.344165,0.11783 z m 0.173633,-1.32499 v 0.47853 h 0.177767 q 0.142627,0 0.224276,-0.0682 0.08165,-0.0692 0.08165,-0.1943 0,-0.21601 -0.28422,-0.21601 z m 0,0.63459 v 0.5333 h 0.235645 q 0.152962,0 0.236678,-0.0724 0.08475,-0.0723 0.08475,-0.19843 0,-0.26252 -0.357601,-0.26252 z"
         style="font-size:2.11666656px;fill:#ffe4b3;stroke-width:0.26458332"
         id="path1151"
         inkscape:connector-curvature="0" />
      <path
         d="m 12.832292,207.04166 h -0.173633 v -1.48208 h 0.173633 z"
         style="font-size:2.11666656px;fill:#ffe4b3;stroke-width:0.26458332"
         id="path1153"
         inkscape:connector-curvature="0" />
      <path
         d="M 14.097331,205.71667 H 13.66945 v 1.32499 h -0.173633 v -1.32499 H 13.06897 v -0.15709 h 1.028361 z"
         style="font-size:2.11666656px;fill:#ffe4b3;stroke-width:0.26458332"
         id="path1155"
         inkscape:connector-curvature="0" />
      <path
         d="m 15.08125,206.48148 v 0.56018 h -0.173633 v -1.48208 h 0.407211 q 0.237711,0 0.367936,0.11575 0.131258,0.11576 0.131258,0.3266 0,0.21084 -0.145728,0.3452 -0.144694,0.13435 -0.391707,0.13435 z m 0,-0.76481 v 0.60772 h 0.181901 q 0.179834,0 0.273885,-0.0816 0.09508,-0.0827 0.09508,-0.23255 0,-0.29352 -0.347266,-0.29352 z"
         style="font-size:2.11666656px;fill:#ffe4b3;stroke-width:0.26458332"
         id="path1157"
         inkscape:connector-curvature="0" />
      <path
         d="M 17.156575,207.04166 H 16.94987 l -0.248047,-0.41548 q -0.03411,-0.0579 -0.06615,-0.0982 -0.03204,-0.0413 -0.06615,-0.0672 -0.03307,-0.0258 -0.07235,-0.0372 -0.03824,-0.0124 -0.08682,-0.0124 h -0.142627 v 0.63046 h -0.173633 v -1.48208 h 0.44235 q 0.09715,0 0.178801,0.0248 0.08268,0.0238 0.142627,0.0734 0.06098,0.0496 0.09508,0.12403 0.03411,0.0734 0.03411,0.17259 0,0.0775 -0.02377,0.14263 -0.02274,0.0641 -0.06615,0.11472 -0.04237,0.0507 -0.103353,0.0868 -0.05995,0.0351 -0.135392,0.0548 v 0.004 q 0.03721,0.0165 0.06408,0.0382 0.02791,0.0207 0.05271,0.0496 0.0248,0.0289 0.04858,0.0661 0.02481,0.0362 0.05478,0.0848 z m -0.888834,-1.32499 v 0.53744 h 0.235644 q 0.06511,0 0.11989,-0.0196 0.05581,-0.0196 0.09612,-0.0558 0.04031,-0.0372 0.06304,-0.0899 0.02274,-0.0537 0.02274,-0.11989 0,-0.11885 -0.07751,-0.185 -0.07648,-0.0672 -0.222209,-0.0672 z"
         style="font-size:2.11666656px;fill:#ffe4b3;stroke-width:0.26458332"
         id="path1159"
         inkscape:connector-curvature="0" />
      <path
         d="m 17.53278,207.04166 h -0.173633 v -1.48208 h 0.173633 z"
         style="font-size:2.11666656px;fill:#ffe4b3;stroke-width:0.26458332"
         id="path1161"
         inkscape:connector-curvature="0" />
      <path
         d="m 18.518766,207.06646 q -0.315226,0 -0.505395,-0.20774 -0.189136,-0.20774 -0.189136,-0.54053 0,-0.3576 0.19327,-0.57051 0.19327,-0.21291 0.526066,-0.21291 0.306958,0 0.494026,0.20671 0.188103,0.2067 0.188103,0.54053 0,0.36277 -0.192237,0.57361 -0.192236,0.21084 -0.514697,0.21084 z m 0.0124,-1.37459 q -0.233577,0 -0.379305,0.16846 -0.145727,0.16847 -0.145727,0.44235 0,0.27389 0.141593,0.44132 0.142627,0.1664 0.371037,0.1664 0.243913,0 0.384473,-0.15917 0.14056,-0.15916 0.14056,-0.44545 0,-0.29352 -0.136426,-0.45371 -0.136426,-0.1602 -0.376205,-0.1602 z"
         style="font-size:2.11666656px;fill:#ffe4b3;stroke-width:0.26458332"
         id="path1163"
         inkscape:connector-curvature="0" />
      <path
         d="m 20.579622,207.04166 h -0.206706 l -0.248047,-0.41548 q -0.03411,-0.0579 -0.06614,-0.0982 -0.03204,-0.0413 -0.06615,-0.0672 -0.03307,-0.0258 -0.07235,-0.0372 -0.03824,-0.0124 -0.08682,-0.0124 h -0.142627 v 0.63046 H 19.51715 v -1.48208 h 0.44235 q 0.09715,0 0.1788,0.0248 0.08268,0.0238 0.142627,0.0734 0.06098,0.0496 0.09509,0.12403 0.03411,0.0734 0.03411,0.17259 0,0.0775 -0.02377,0.14263 -0.02274,0.0641 -0.06615,0.11472 -0.04237,0.0507 -0.103353,0.0868 -0.05994,0.0351 -0.135392,0.0548 v 0.004 q 0.03721,0.0165 0.06408,0.0382 0.02791,0.0207 0.05271,0.0496 0.0248,0.0289 0.04858,0.0661 0.0248,0.0362 0.05478,0.0848 z m -0.888835,-1.32499 v 0.53744 h 0.235645 q 0.06511,0 0.119889,-0.0196 0.05581,-0.0196 0.09612,-0.0558 0.04031,-0.0372 0.06305,-0.0899 0.02274,-0.0537 0.02274,-0.11989 0,-0.11885 -0.07751,-0.185 -0.07648,-0.0672 -0.222209,-0.0672 z"
         style="font-size:2.11666656px;fill:#ffe4b3;stroke-width:0.26458332"
         id="path1165"
         inkscape:connector-curvature="0" />
      <path
         d="m 20.955827,207.04166 h -0.173633 v -1.48208 h 0.173633 z"
         style="font-size:2.11666656px;fill:#ffe4b3;stroke-width:0.26458332"
         id="path1167"
         inkscape:connector-curvature="0" />
      <path
         d="m 22.220865,205.71667 h -0.427881 v 1.32499 h -0.173633 v -1.32499 h -0.426847 v -0.15709 h 1.028361 z"
         style="font-size:2.11666656px;fill:#ffe4b3;stroke-width:0.26458332"
         id="path1169"
         inkscape:connector-curvature="0" />
      <path
         d="m 23.415625,205.55958 -0.488859,0.93431 v 0.54777 h -0.173633 v -0.54364 l -0.476457,-0.93844 h 0.197404 l 0.331763,0.66972 q 0.0062,0.0124 0.03617,0.0909 h 0.0031 q 0.01034,-0.0351 0.03927,-0.0909 l 0.347266,-0.66972 z"
         style="font-size:2.11666656px;fill:#ffe4b3;stroke-width:0.26458332"
         id="path1171"
         inkscape:connector-curvature="0" />
      <path
         d="m 24.986588,207.04166 h -0.785482 v -1.48208 h 0.752409 v 0.15709 h -0.578776 v 0.493 h 0.535368 v 0.15606 h -0.535368 v 0.51883 h 0.611849 z"
         style="font-size:2.11666656px;fill:#ffe4b3;stroke-width:0.26458332"
         id="path1173"
         inkscape:connector-curvature="0" />
      <path
         d="m 26.466601,207.04166 h -0.212907 l -0.762744,-1.18133 q -0.02894,-0.0444 -0.04754,-0.093 h -0.0062 q 0.0083,0.0475 0.0083,0.2036 v 1.07074 h -0.173633 v -1.48208 h 0.225309 l 0.742074,1.16272 q 0.04651,0.0723 0.05994,0.0992 h 0.0041 q -0.01034,-0.0641 -0.01034,-0.21807 v -1.04386 h 0.173633 z"
         style="font-size:2.11666656px;fill:#ffe4b3;stroke-width:0.26458332"
         id="path1175"
         inkscape:connector-curvature="0" />
      <path
         d="m 27.863932,206.97964 q -0.164331,0.0868 -0.409277,0.0868 -0.31626,0 -0.506429,-0.2036 -0.190169,-0.20361 -0.190169,-0.53434 0,-0.35553 0.21394,-0.57464 0.21394,-0.21911 0.542603,-0.21911 0.210839,0 0.349332,0.061 v 0.185 q -0.159163,-0.0889 -0.3514,-0.0889 -0.255281,0 -0.414445,0.17053 -0.158129,0.17053 -0.158129,0.45579 0,0.27078 0.147794,0.43201 0.148828,0.1602 0.38964,0.1602 0.223243,0 0.38654,-0.0992 z"
         style="font-size:2.11666656px;fill:#ffe4b3;stroke-width:0.26458332"
         id="path1177"
         inkscape:connector-curvature="0" />
      <path
         d="m 28.763102,207.06646 q -0.315226,0 -0.505395,-0.20774 -0.189136,-0.20774 -0.189136,-0.54053 0,-0.3576 0.19327,-0.57051 0.19327,-0.21291 0.526066,-0.21291 0.306958,0 0.494027,0.20671 0.188102,0.2067 0.188102,0.54053 0,0.36277 -0.192237,0.57361 -0.192236,0.21084 -0.514697,0.21084 z m 0.0124,-1.37459 q -0.233578,0 -0.379305,0.16846 -0.145728,0.16847 -0.145728,0.44235 0,0.27389 0.141593,0.44132 0.142627,0.1664 0.371037,0.1664 0.243913,0 0.384473,-0.15917 0.14056,-0.15916 0.14056,-0.44545 0,-0.29352 -0.136426,-0.45371 -0.136426,-0.1602 -0.376204,-0.1602 z"
         style="font-size:2.11666656px;fill:#ffe4b3;stroke-width:0.26458332"
         id="path1179"
         inkscape:connector-curvature="0" />
      <path
         d="m 29.761491,207.04166 v -1.48208 h 0.409277 q 0.783415,0 0.783415,0.72243 0,0.34313 -0.218075,0.55191 -0.217041,0.20774 -0.581876,0.20774 z m 0.173632,-1.32499 v 1.16789 h 0.221176 q 0.291455,0 0.453719,-0.15606 0.162264,-0.15607 0.162264,-0.44235 0,-0.56948 -0.605648,-0.56948 z"
         style="font-size:2.11666656px;fill:#ffe4b3;stroke-width:0.26458332"
         id="path1181"
         inkscape:connector-curvature="0" />
      <path
         d="m 32.031119,207.04166 h -0.785482 v -1.48208 h 0.752409 v 0.15709 H 31.41927 v 0.493 h 0.535367 v 0.15606 H 31.41927 v 0.51883 h 0.611849 z"
         style="font-size:2.11666656px;fill:#ffe4b3;stroke-width:0.26458332"
         id="path1183"
         inkscape:connector-curvature="0" />
      <path
         d="m 33.37884,207.04166 h -0.206706 l -0.248046,-0.41548 q -0.03411,-0.0579 -0.06615,-0.0982 -0.03204,-0.0413 -0.06615,-0.0672 -0.03307,-0.0258 -0.07235,-0.0372 -0.03824,-0.0124 -0.08682,-0.0124 h -0.142626 v 0.63046 h -0.173633 v -1.48208 h 0.44235 q 0.09715,0 0.1788,0.0248 0.08268,0.0238 0.142627,0.0734 0.06098,0.0496 0.09508,0.12403 0.03411,0.0734 0.03411,0.17259 0,0.0775 -0.02377,0.14263 -0.02274,0.0641 -0.06615,0.11472 -0.04237,0.0507 -0.103352,0.0868 -0.05994,0.0351 -0.135393,0.0548 v 0.004 q 0.03721,0.0165 0.06408,0.0382 0.0279,0.0207 0.05271,0.0496 0.02481,0.0289 0.04858,0.0661 0.02481,0.0362 0.05478,0.0848 z m -0.888834,-1.32499 v 0.53744 h 0.235644 q 0.06511,0 0.119889,-0.0196 0.05581,-0.0196 0.09612,-0.0558 0.04031,-0.0372 0.06305,-0.0899 0.02274,-0.0537 0.02274,-0.11989 0,-0.11885 -0.07751,-0.185 -0.07648,-0.0672 -0.222209,-0.0672 z"
         style="font-size:2.11666656px;fill:#ffe4b3;stroke-width:0.26458332"
         id="path1185"
         inkscape:connector-curvature="0" />
    </g>
    <g
       transform="translate(-0.74002838,13.540964)"
       id="g2095"
       style="font-style:normal;font-variant:normal;font-weight:normal;font-stretch:normal;font-size:2.82222223px;line-height:1.25;font-family:'Yu Gothic UI';-inkscape-font-specification:'Yu Gothic UI';letter-spacing:0px;word-spacing:0px;fill:#ffe4b3;fill-opacity:1;stroke:none;stroke-width:0.26458332"
       aria-label="O1">
      <path
         inkscape:connector-curvature="0"
         id="path2091"
         style="fill:#ffe4b3;stroke-width:0.26458332"
         d="m 21.428496,250.99557 q -0.420301,0 -0.67386,-0.27699 -0.252181,-0.27698 -0.252181,-0.72071 0,-0.4768 0.257693,-0.76068 0.257693,-0.28388 0.701421,-0.28388 0.409278,0 0.658703,0.27561 0.250802,0.27561 0.250802,0.72072 0,0.48369 -0.256315,0.76481 -0.256315,0.28112 -0.686263,0.28112 z m 0.01654,-1.83279 q -0.311437,0 -0.50574,0.22462 -0.194304,0.22462 -0.194304,0.5898 0,0.36518 0.188792,0.58842 0.190169,0.22186 0.494715,0.22186 0.325217,0 0.512631,-0.21221 0.187413,-0.21222 0.187413,-0.59394 0,-0.39136 -0.181901,-0.60496 -0.181901,-0.21359 -0.501606,-0.21359 z" />
      <path
         inkscape:connector-curvature="0"
         id="path2093"
         style="fill:#ffe4b3;stroke-width:0.26458332"
         d="m 23.49831,250.96249 h -0.225998 v -1.70739 q -0.02618,0.0262 -0.07717,0.0606 -0.04961,0.0331 -0.112999,0.0661 -0.06201,0.0331 -0.132291,0.062 -0.0689,0.0289 -0.135048,0.0455 v -0.22875 q 0.07441,-0.0207 0.157096,-0.0551 0.08406,-0.0358 0.163987,-0.0786 0.0813,-0.0441 0.152962,-0.0909 0.07166,-0.0482 0.124023,-0.0937 h 0.08544 z" />
    </g>
    <path
       inkscape:connector-curvature="0"
       id="path1089-8"
       d="m 18.520835,218.15412 v 11.37708 h 10.583338 l -4e-6,-11.37708 z"
       style="display:inline;fill:none;stroke:#ffe4b3;stroke-width:0.26458332px;stroke-linecap:butt;stroke-linejoin:miter;stroke-opacity:1"
       sodipodi:nodetypes="ccccc" />
    <path
       sodipodi:nodetypes="ccccc"
       style="display:inline;fill:none;stroke:#ffe4b3;stroke-width:0.26458332px;stroke-linecap:butt;stroke-linejoin:miter;stroke-opacity:1"
       d="m 18.520835,232.57158 v 11.37708 h 10.583338 l -4e-6,-11.37708 z"
       id="path2809"
       inkscape:connector-curvature="0" />
    <g
       transform="translate(-1.6633144,-19.149138)"
       id="g2817"
       style="font-style:normal;font-variant:normal;font-weight:normal;font-stretch:normal;font-size:2.82222223px;line-height:1.25;font-family:'Yu Gothic UI';-inkscape-font-specification:'Yu Gothic UI';letter-spacing:0px;word-spacing:0px;fill:#ffe4b3;fill-opacity:1;stroke:none;stroke-width:0.26458332"
       aria-label="E">
      <path
         inkscape:connector-curvature="0"
         id="path2815"
         style="fill:#ffe4b3;stroke-width:0.26458332"
         d="m 22.47305,240.11456 h -1.047309 v -1.9761 h 1.003212 v 0.20946 h -0.771702 v 0.65732 h 0.713824 v 0.20809 h -0.713824 v 0.69177 h 0.815799 z" />
    </g>
  </g>
  <g
     inkscape:groupmode="layer"
     id="layer2"
     inkscape:label="Grid"
     style="display:none"
     sodipodi:insensitive="true">
    <path
       sodipodi:nodetypes="cc"
       inkscape:connector-curvature="0"
       id="path881"
       d="M 7.9375152,-8.1966667e-5 7.9375122,100.54175"
       style="fill:none;stroke:#ffe4b3;stroke-width:0.05;stroke-linecap:butt;stroke-linejoin:miter;stroke-miterlimit:4;stroke-dasharray:none;stroke-opacity:1" />
    <path
       style="fill:none;stroke:#ffe4b3;stroke-width:0.05;stroke-linecap:butt;stroke-linejoin:miter;stroke-miterlimit:4;stroke-dasharray:none;stroke-opacity:1"
       d="M 3.9687674,3.333209e-6 3.9687634,100.54167"
       id="path890"
       inkscape:connector-curvature="0"
       sodipodi:nodetypes="cc" />
    <path
       sodipodi:nodetypes="cc"
       inkscape:connector-curvature="0"
       id="path895"
       d="M 11.906268,3.333209e-6 11.906264,100.54167"
       style="fill:none;stroke:#ffe4b3;stroke-width:0.05;stroke-linecap:butt;stroke-linejoin:miter;stroke-miterlimit:4;stroke-dasharray:none;stroke-opacity:1" />
    <path
       style="fill:none;stroke:#ffe4b3;stroke-width:0.05;stroke-linecap:butt;stroke-linejoin:miter;stroke-miterlimit:4;stroke-dasharray:none;stroke-opacity:1"
       d="M 1.5433068e-5,11.386483 15.875015,11.377083"
       id="path905"
       inkscape:connector-curvature="0"
       sodipodi:nodetypes="cc" />
    <path
       inkscape:connector-curvature="0"
       id="path907"
       d="M 1.5433068e-5,22.499053 15.875015,22.489553"
       style="fill:none;stroke:#ffe4b3;stroke-width:0.05;stroke-linecap:butt;stroke-linejoin:miter;stroke-miterlimit:4;stroke-dasharray:none;stroke-opacity:1"
       sodipodi:nodetypes="cc" />
    <path
       style="fill:none;stroke:#ffe4b3;stroke-width:0.05;stroke-linecap:butt;stroke-linejoin:miter;stroke-miterlimit:4;stroke-dasharray:none;stroke-opacity:1"
       d="M 1.5433068e-5,33.611623 15.875015,33.602123"
       id="path911"
       inkscape:connector-curvature="0"
       sodipodi:nodetypes="cc" />
    <path
       inkscape:connector-curvature="0"
       id="path917"
       d="M 1.5433068e-5,44.724193 15.875015,44.714593"
       style="fill:none;stroke:#ffe4b3;stroke-width:0.05;stroke-linecap:butt;stroke-linejoin:miter;stroke-miterlimit:4;stroke-dasharray:none;stroke-opacity:1"
       sodipodi:nodetypes="cc" />
    <path
       style="fill:none;stroke:#ffe4b3;stroke-width:0.05;stroke-linecap:butt;stroke-linejoin:miter;stroke-miterlimit:4;stroke-dasharray:none;stroke-opacity:1"
       d="M 1.5433068e-5,55.836763 15.875015,55.827063"
       id="path925"
       inkscape:connector-curvature="0"
       sodipodi:nodetypes="cc" />
    <path
       inkscape:connector-curvature="0"
       id="path935"
       d="M 1.5433068e-5,66.949333 15.875015,66.939633"
       style="fill:none;stroke:#ffe4b3;stroke-width:0.05;stroke-linecap:butt;stroke-linejoin:miter;stroke-miterlimit:4;stroke-dasharray:none;stroke-opacity:1"
       sodipodi:nodetypes="cc" />
    <path
       style="fill:none;stroke:#ffe4b3;stroke-width:0.05;stroke-linecap:butt;stroke-linejoin:miter;stroke-miterlimit:4;stroke-dasharray:none;stroke-opacity:1"
       d="M 1.5433068e-5,78.061903 15.875015,78.052103"
       id="path947"
       inkscape:connector-curvature="0"
       sodipodi:nodetypes="cc" />
    <circle
       style="display:inline;opacity:1;fill:none;fill-opacity:1;stroke:#ffe4b3;stroke-width:0.05;stroke-linecap:square;stroke-linejoin:round;stroke-miterlimit:4;stroke-dasharray:none;stroke-dashoffset:0;stroke-opacity:1;paint-order:markers fill stroke"
       id="path1041"
       cx="7.9347796"
       cy="22.489223"
       r="4.0999999" />
    <circle
       r="4.0999999"
       cy="44.720119"
       cx="7.9347796"
       id="circle1054"
       style="display:inline;opacity:1;fill:none;fill-opacity:1;stroke:#ffe4b3;stroke-width:0.05;stroke-linecap:square;stroke-linejoin:round;stroke-miterlimit:4;stroke-dasharray:none;stroke-dashoffset:0;stroke-opacity:1;paint-order:markers fill stroke" />
    <circle
       style="display:inline;opacity:1;fill:none;fill-opacity:1;stroke:#ffe4b3;stroke-width:0.05;stroke-linecap:square;stroke-linejoin:round;stroke-miterlimit:4;stroke-dasharray:none;stroke-dashoffset:0;stroke-opacity:1;paint-order:markers fill stroke"
       id="circle1056"
       cx="7.9347796"
       cy="33.60759"
       r="4.0999999" />
    <circle
       r="4.0999999"
       cy="66.939285"
       cx="7.9347796"
       id="circle1058"
       style="display:inline;opacity:1;fill:none;fill-opacity:1;stroke:#ffe4b3;stroke-width:0.05;stroke-linecap:square;stroke-linejoin:round;stroke-miterlimit:4;stroke-dasharray:none;stroke-dashoffset:0;stroke-opacity:1;paint-order:markers fill stroke" />
    <circle
       style="display:inline;opacity:1;fill:none;fill-opacity:1;stroke:#ffe4b3;stroke-width:0.05;stroke-linecap:square;stroke-linejoin:round;stroke-miterlimit:4;stroke-dasharray:none;stroke-dashoffset:0;stroke-opacity:1;paint-order:markers fill stroke"
       id="circle1060"
       cx="7.9347796"
       cy="55.83263"
       r="4.0999999" />
    <circle
       r="4.0999999"
       cy="78.05764"
       cx="7.9347796"
       id="circle1064"
       style="display:inline;opacity:1;fill:none;fill-opacity:1;stroke:#ffe4b3;stroke-width:0.05;stroke-linecap:square;stroke-linejoin:round;stroke-miterlimit:4;stroke-dasharray:none;stroke-dashoffset:0;stroke-opacity:1;paint-order:markers fill stroke" />
    <circle
       r="4.0999999"
       cy="11.382563"
       cx="7.9347796"
       id="circle1052"
       style="display:inline;opacity:1;fill:none;fill-opacity:1;stroke:#ffe4b3;stroke-width:0.05;stroke-linecap:square;stroke-linejoin:round;stroke-miterlimit:4;stroke-dasharray:none;stroke-dashoffset:0;stroke-opacity:1;paint-order:markers fill stroke" />
    <circle
       style="display:inline;opacity:1;fill:none;fill-opacity:1;stroke:#ffe4b3;stroke-width:0.05172414;stroke-linecap:square;stroke-linejoin:round;stroke-miterlimit:4;stroke-dasharray:none;stroke-dashoffset:0;stroke-opacity:1;paint-order:markers fill stroke"
       id="circle924"
       cx="7.9360948"
       cy="11.377258"
       r="5.4741378" />
    <circle
       r="5.4741378"
       cy="22.490795"
       cx="7.9360948"
       id="circle955"
       style="display:inline;opacity:1;fill:none;fill-opacity:1;stroke:#ffe4b3;stroke-width:0.05172414;stroke-linecap:square;stroke-linejoin:round;stroke-miterlimit:4;stroke-dasharray:none;stroke-dashoffset:0;stroke-opacity:1;paint-order:markers fill stroke" />
    <circle
       style="display:inline;opacity:1;fill:none;fill-opacity:1;stroke:#ffe4b3;stroke-width:0.05172414;stroke-linecap:square;stroke-linejoin:round;stroke-miterlimit:4;stroke-dasharray:none;stroke-dashoffset:0;stroke-opacity:1;paint-order:markers fill stroke"
       id="circle957"
       cx="7.9360948"
       cy="33.603306"
       r="5.4741378" />
    <circle
       r="5.4741378"
       cy="44.715816"
       cx="7.9360948"
       id="circle959"
       style="display:inline;opacity:1;fill:none;fill-opacity:1;stroke:#ffe4b3;stroke-width:0.05172414;stroke-linecap:square;stroke-linejoin:round;stroke-miterlimit:4;stroke-dasharray:none;stroke-dashoffset:0;stroke-opacity:1;paint-order:markers fill stroke" />
    <circle
       style="display:inline;opacity:1;fill:none;fill-opacity:1;stroke:#ffe4b3;stroke-width:0.05172414;stroke-linecap:square;stroke-linejoin:round;stroke-miterlimit:4;stroke-dasharray:none;stroke-dashoffset:0;stroke-opacity:1;paint-order:markers fill stroke"
       id="circle961"
       cx="7.9360948"
       cy="55.828327"
       r="5.4741378" />
    <circle
       r="5.4741378"
       cy="66.940834"
       cx="7.9360948"
       id="circle963"
       style="display:inline;opacity:1;fill:none;fill-opacity:1;stroke:#ffe4b3;stroke-width:0.05172414;stroke-linecap:square;stroke-linejoin:round;stroke-miterlimit:4;stroke-dasharray:none;stroke-dashoffset:0;stroke-opacity:1;paint-order:markers fill stroke" />
    <circle
       style="display:inline;opacity:1;fill:none;fill-opacity:1;stroke:#ffe4b3;stroke-width:0.05172414;stroke-linecap:square;stroke-linejoin:round;stroke-miterlimit:4;stroke-dasharray:none;stroke-dashoffset:0;stroke-opacity:1;paint-order:markers fill stroke"
       id="circle965"
       cx="7.9360948"
       cy="78.053345"
       r="5.4741378" />
    <path
       sodipodi:nodetypes="cc"
       inkscape:connector-curvature="0"
       id="path1074-6"
       d="M 1.5433068e-5,89.17441 15.875015,89.16461"
       style="fill:none;stroke:#ffe4b3;stroke-width:0.05;stroke-linecap:butt;stroke-linejoin:miter;stroke-miterlimit:4;stroke-dasharray:none;stroke-opacity:1" />
    <circle
       style="display:inline;opacity:1;fill:none;fill-opacity:1;stroke:#ffe4b3;stroke-width:0.05;stroke-linecap:square;stroke-linejoin:round;stroke-miterlimit:4;stroke-dasharray:none;stroke-dashoffset:0;stroke-opacity:1;paint-order:markers fill stroke"
       id="circle1076"
       cx="7.9347796"
       cy="89.170151"
       r="4.0999999" />
    <circle
       r="5.4741378"
       cy="89.165855"
       cx="7.9360948"
       id="circle1078"
       style="display:inline;opacity:1;fill:none;fill-opacity:1;stroke:#ffe4b3;stroke-width:0.05172414;stroke-linecap:square;stroke-linejoin:round;stroke-miterlimit:4;stroke-dasharray:none;stroke-dashoffset:0;stroke-opacity:1;paint-order:markers fill stroke" />
    <path
       sodipodi:nodetypes="cc"
       inkscape:connector-curvature="0"
       id="path6973"
       d="M 1.5433068e-5,55.836763 15.875015,55.827063"
       style="fill:none;stroke:#ffe4b3;stroke-width:0.05;stroke-linecap:butt;stroke-linejoin:miter;stroke-miterlimit:4;stroke-dasharray:none;stroke-opacity:1" />
    <circle
       r="4.0999999"
       cy="55.83263"
       cx="7.9347796"
       id="circle6975"
       style="display:inline;opacity:1;fill:none;fill-opacity:1;stroke:#ffe4b3;stroke-width:0.05;stroke-linecap:square;stroke-linejoin:round;stroke-miterlimit:4;stroke-dasharray:none;stroke-dashoffset:0;stroke-opacity:1;paint-order:markers fill stroke" />
    <circle
       r="5.4741378"
       cy="55.828327"
       cx="7.9360948"
       id="circle6977"
       style="display:inline;opacity:1;fill:none;fill-opacity:1;stroke:#ffe4b3;stroke-width:0.05172414;stroke-linecap:square;stroke-linejoin:round;stroke-miterlimit:4;stroke-dasharray:none;stroke-dashoffset:0;stroke-opacity:1;paint-order:markers fill stroke" />
    <g
       transform="translate(15.874999,3.333209e-6)"
       style="display:inline;stroke:#ffe4b3"
       id="g1112">
      <path
         style="fill:none;stroke:#ffe4b3;stroke-width:0.05;stroke-linecap:butt;stroke-linejoin:miter;stroke-miterlimit:4;stroke-dasharray:none;stroke-opacity:1"
         d="m 7.9375,-1e-5 -3e-6,100.54167"
         id="path881-8-8"
         inkscape:connector-curvature="0"
         sodipodi:nodetypes="cc" />
      <path
         sodipodi:nodetypes="cc"
         inkscape:connector-curvature="0"
         id="path890-2-5"
         d="m 3.968752,0 -4e-6,100.54167"
         style="fill:none;stroke:#ffe4b3;stroke-width:0.05;stroke-linecap:butt;stroke-linejoin:miter;stroke-miterlimit:4;stroke-dasharray:none;stroke-opacity:1" />
      <path
         style="fill:none;stroke:#ffe4b3;stroke-width:0.05;stroke-linecap:butt;stroke-linejoin:miter;stroke-miterlimit:4;stroke-dasharray:none;stroke-opacity:1"
         d="m 11.906253,0 -4e-6,100.54167"
         id="path895-1-5"
         inkscape:connector-curvature="0"
         sodipodi:nodetypes="cc" />
      <path
         sodipodi:nodetypes="cc"
         inkscape:connector-curvature="0"
         id="path905-6-4"
         d="m 0,14.022551 15.875,3.66e-4"
         style="fill:none;stroke:#ffe4b3;stroke-width:0.05;stroke-linecap:butt;stroke-linejoin:miter;stroke-miterlimit:4;stroke-dasharray:none;stroke-opacity:1" />
      <path
         sodipodi:nodetypes="cc"
         style="fill:none;stroke:#ffe4b3;stroke-width:0.05;stroke-linecap:butt;stroke-linejoin:miter;stroke-miterlimit:4;stroke-dasharray:none;stroke-opacity:1"
         d="M 0,28.57465 15.875,28.575"
         id="path1103"
         inkscape:connector-curvature="0" />
      <path
         sodipodi:nodetypes="cc"
         inkscape:connector-curvature="0"
         id="path1107"
         d="m 0,43.126622 15.875,4.61e-4"
         style="fill:none;stroke:#ffe4b3;stroke-width:0.05;stroke-linecap:butt;stroke-linejoin:miter;stroke-miterlimit:4;stroke-dasharray:none;stroke-opacity:1" />
      <path
         sodipodi:nodetypes="cc"
         style="fill:none;stroke:#ffe4b3;stroke-width:0.05;stroke-linecap:butt;stroke-linejoin:miter;stroke-miterlimit:4;stroke-dasharray:none;stroke-opacity:1"
         d="m 0,57.678723 15.875,4.44e-4"
         id="path1111"
         inkscape:connector-curvature="0" />
      <path
         sodipodi:nodetypes="cc"
         inkscape:connector-curvature="0"
         id="path1115-2"
         d="m 0,72.230955 15.875,2.95e-4"
         style="fill:none;stroke:#ffe4b3;stroke-width:0.05;stroke-linecap:butt;stroke-linejoin:miter;stroke-miterlimit:4;stroke-dasharray:none;stroke-opacity:1" />
      <path
         sodipodi:nodetypes="cc"
         style="fill:none;stroke:#ffe4b3;stroke-width:0.05;stroke-linecap:butt;stroke-linejoin:miter;stroke-miterlimit:4;stroke-dasharray:none;stroke-opacity:1"
         d="m 0,86.782927 15.875,4.06e-4"
         id="path1119"
         inkscape:connector-curvature="0" />
      <circle
         r="4.0999999"
         cy="28.574995"
         cx="7.9523039"
         id="circle1014"
         style="display:inline;opacity:1;fill:none;fill-opacity:1;stroke:#ffe4b3;stroke-width:0.05;stroke-linecap:square;stroke-linejoin:round;stroke-miterlimit:4;stroke-dasharray:none;stroke-dashoffset:0;stroke-opacity:1;paint-order:markers fill stroke" />
      <circle
         r="4.0999999"
         cy="43.127026"
         cx="7.9523039"
         id="circle1018"
         style="display:inline;opacity:1;fill:none;fill-opacity:1;stroke:#ffe4b3;stroke-width:0.05;stroke-linecap:square;stroke-linejoin:round;stroke-miterlimit:4;stroke-dasharray:none;stroke-dashoffset:0;stroke-opacity:1;paint-order:markers fill stroke" />
      <circle
         style="display:inline;opacity:1;fill:none;fill-opacity:1;stroke:#ffe4b3;stroke-width:0.05;stroke-linecap:square;stroke-linejoin:round;stroke-miterlimit:4;stroke-dasharray:none;stroke-dashoffset:0;stroke-opacity:1;paint-order:markers fill stroke"
         id="circle1022"
         cx="7.9523039"
         cy="57.679188"
         r="4.0999999" />
      <circle
         style="display:inline;opacity:1;fill:none;fill-opacity:1;stroke:#ffe4b3;stroke-width:0.05;stroke-linecap:square;stroke-linejoin:round;stroke-miterlimit:4;stroke-dasharray:none;stroke-dashoffset:0;stroke-opacity:1;paint-order:markers fill stroke"
         id="circle1026"
         cx="7.9523039"
         cy="72.231216"
         r="4.0999999" />
      <circle
         r="4.0999999"
         cy="86.783379"
         cx="7.9523039"
         id="circle1030"
         style="display:inline;opacity:1;fill:none;fill-opacity:1;stroke:#ffe4b3;stroke-width:0.05;stroke-linecap:square;stroke-linejoin:round;stroke-miterlimit:4;stroke-dasharray:none;stroke-dashoffset:0;stroke-opacity:1;paint-order:markers fill stroke" />
      <circle
         r="5.4741378"
         cy="14.023303"
         cx="7.9360795"
         id="circle943"
         style="display:inline;opacity:1;fill:none;fill-opacity:1;stroke:#ffe4b3;stroke-width:0.05172414;stroke-linecap:square;stroke-linejoin:round;stroke-miterlimit:4;stroke-dasharray:none;stroke-dashoffset:0;stroke-opacity:1;paint-order:markers fill stroke" />
      <circle
         style="display:inline;opacity:1;fill:none;fill-opacity:1;stroke:#ffe4b3;stroke-width:0.05172414;stroke-linecap:square;stroke-linejoin:round;stroke-miterlimit:4;stroke-dasharray:none;stroke-dashoffset:0;stroke-opacity:1;paint-order:markers fill stroke"
         id="circle975"
         cx="7.9360795"
         cy="28.575275"
         r="5.4741378" />
      <circle
         style="display:inline;opacity:1;fill:none;fill-opacity:1;stroke:#ffe4b3;stroke-width:0.05172414;stroke-linecap:square;stroke-linejoin:round;stroke-miterlimit:4;stroke-dasharray:none;stroke-dashoffset:0;stroke-opacity:1;paint-order:markers fill stroke"
         id="circle977"
         cx="7.9360795"
         cy="43.127495"
         r="5.4741378" />
      <circle
         r="5.4741378"
         cy="57.67947"
         cx="7.9360795"
         id="circle979"
         style="display:inline;opacity:1;fill:none;fill-opacity:1;stroke:#ffe4b3;stroke-width:0.05172414;stroke-linecap:square;stroke-linejoin:round;stroke-miterlimit:4;stroke-dasharray:none;stroke-dashoffset:0;stroke-opacity:1;paint-order:markers fill stroke" />
      <circle
         r="5.4741378"
         cy="72.231689"
         cx="7.9360795"
         id="circle981"
         style="display:inline;opacity:1;fill:none;fill-opacity:1;stroke:#ffe4b3;stroke-width:0.05172414;stroke-linecap:square;stroke-linejoin:round;stroke-miterlimit:4;stroke-dasharray:none;stroke-dashoffset:0;stroke-opacity:1;paint-order:markers fill stroke" />
      <circle
         style="display:inline;opacity:1;fill:none;fill-opacity:1;stroke:#ffe4b3;stroke-width:0.05172414;stroke-linecap:square;stroke-linejoin:round;stroke-miterlimit:4;stroke-dasharray:none;stroke-dashoffset:0;stroke-opacity:1;paint-order:markers fill stroke"
         id="circle983"
         cx="7.9360795"
         cy="86.783661"
         r="5.4741378" />
      <circle
         style="display:inline;opacity:1;fill:none;fill-opacity:1;stroke:#ffe4b3;stroke-width:0.05;stroke-linecap:square;stroke-linejoin:round;stroke-miterlimit:4;stroke-dasharray:none;stroke-dashoffset:0;stroke-opacity:1;paint-order:markers fill stroke"
         id="circle1089"
         cx="7.9523039"
         cy="14.022678"
         r="4.0999999" />
    </g>
  </g>
</svg>
