<?xml version="1.0" encoding="UTF-8" standalone="no"?>
<!-- Created with Inkscape (http://www.inkscape.org/) -->

<svg
   xmlns:dc="http://purl.org/dc/elements/1.1/"
   xmlns:cc="http://creativecommons.org/ns#"
   xmlns:rdf="http://www.w3.org/1999/02/22-rdf-syntax-ns#"
   xmlns:svg="http://www.w3.org/2000/svg"
   xmlns="http://www.w3.org/2000/svg"
   xmlns:sodipodi="http://sodipodi.sourceforge.net/DTD/sodipodi-0.dtd"
   xmlns:inkscape="http://www.inkscape.org/namespaces/inkscape"
   width="120"
   height="380"
   viewBox="0 0 31.750002 100.54167"
   version="1.1"
   id="svg8"
   inkscape:version="0.92.4 (5da689c313, 2019-01-14)"
   sodipodi:docname="ConstantZeroes.svg">
  <defs
     id="defs2" />
  <sodipodi:namedview
     id="base"
     pagecolor="#ffffff"
     bordercolor="#666666"
     borderopacity="1.0"
     inkscape:pageopacity="0.0"
     inkscape:pageshadow="2"
     inkscape:zoom="4.5578948"
     inkscape:cx="-6.6172466"
     inkscape:cy="337.35418"
     inkscape:document-units="mm"
     inkscape:current-layer="layer1"
     showgrid="true"
     units="px"
     inkscape:snap-bbox="true"
     inkscape:snap-page="true"
     inkscape:bbox-nodes="true"
     inkscape:snap-bbox-edge-midpoints="true"
     inkscape:window-width="1920"
     inkscape:window-height="1017"
     inkscape:window-x="-8"
     inkscape:window-y="-8"
     inkscape:window-maximized="1">
    <inkscape:grid
       type="xygrid"
       id="grid116" />
  </sodipodi:namedview>
  <metadata
     id="metadata5">
    <rdf:RDF>
      <cc:Work
         rdf:about="">
        <dc:format>image/svg+xml</dc:format>
        <dc:type
           rdf:resource="http://purl.org/dc/dcmitype/StillImage" />
        <dc:title />
      </cc:Work>
    </rdf:RDF>
  </metadata>
  <g
     inkscape:groupmode="layer"
     id="layer3"
     inkscape:label="Panel"
     sodipodi:insensitive="true">
    <path
       sodipodi:type="inkscape:offset"
       inkscape:radius="0"
       inkscape:original="M 0 196.45898 L 0 297 L 15.875 297 L 15.875 196.45898 L 0 196.45898 z "
       style="fill:#894c26;fill-opacity:1;stroke-width:0.3310422"
       id="rect3855"
       d="M 0,196.45898 V 297 H 15.875 V 196.45898 Z"
       transform="matrix(2,0,0,1.0000064,0,-196.46023)" />
  </g>
  <g
     inkscape:label="Layer 1"
     inkscape:groupmode="layer"
     id="layer1"
     transform="translate(0,-196.45832)"
     style="display:inline">
    <text
       xml:space="preserve"
       style="font-style:normal;font-weight:normal;font-size:2.82222223px;line-height:1.25;font-family:sans-serif;letter-spacing:0px;word-spacing:0px;fill:#000000;fill-opacity:1;stroke:none;stroke-width:0.26458332"
       x="17.197916"
       y="201.74998"
       id="text3821"><tspan
         sodipodi:role="line"
         id="tspan3819"
         x="17.197916"
         y="204.24699"
         style="stroke-width:0.26458332" /></text>
    <g
       id="g4342">
      <g
         transform="translate(-9.481569,1.7166648)"
         id="text956"
         style="font-style:normal;font-variant:normal;font-weight:normal;font-stretch:normal;font-size:2.82222223px;line-height:1.25;font-family:'Copperplate Gothic Light';-inkscape-font-specification:'Copperplate Gothic Light, ';letter-spacing:0px;word-spacing:0px;fill:#ffe4b3;fill-opacity:1;stroke:#ffe4b3;stroke-width:0.2;stroke-miterlimit:4;stroke-dasharray:none;stroke-opacity:1"
         aria-label="/^M^\">
        <path
           inkscape:connector-curvature="0"
           id="path958"
           style="font-style:normal;font-variant:normal;font-weight:normal;font-stretch:normal;font-size:2.82222223px;line-height:1.25;font-family:'Copperplate Gothic Light';-inkscape-font-specification:'Copperplate Gothic Light, ';fill:#ffe4b3;stroke:#ffe4b3;stroke-width:0.2;stroke-miterlimit:4;stroke-dasharray:none;stroke-opacity:1"
           d="m 21.203855,291.40545 v 0.0386 h -0.434082 v -0.0386 q 0.09509,-0.006 0.224621,-0.17088 l 1.094162,-1.4621 q 0.07441,-0.1006 0.07441,-0.12402 0,-0.0372 -0.06615,-0.0482 v -0.0372 h 0.423058 v 0.0372 q -0.09508,0.006 -0.22462,0.17087 l -1.08176,1.46348 q -0.07579,0.10197 -0.07579,0.12402 0,0.0358 0.06615,0.0469 z" />
        <path
           inkscape:connector-curvature="0"
           id="path960"
           style="font-style:normal;font-variant:normal;font-weight:normal;font-stretch:normal;font-size:2.82222223px;line-height:1.25;font-family:'Copperplate Gothic Light';-inkscape-font-specification:'Copperplate Gothic Light, ';fill:#ffe4b3;stroke:#ffe4b3;stroke-width:0.2;stroke-miterlimit:4;stroke-dasharray:none;stroke-opacity:1"
           d="M 22.940183,290.3857 H 22.73899 l 0.493338,-0.8282 h 0.243912 l 0.493338,0.8282 h -0.20395 l -0.413411,-0.68075 z" />
        <path
           inkscape:connector-curvature="0"
           id="path962"
           style="font-style:normal;font-variant:normal;font-weight:normal;font-stretch:normal;font-size:2.82222223px;line-height:1.25;font-family:'Copperplate Gothic Light';-inkscape-font-specification:'Copperplate Gothic Light, ';fill:#ffe4b3;stroke:#ffe4b3;stroke-width:0.2;stroke-miterlimit:4;stroke-dasharray:none;stroke-opacity:1"
           d="m 25.342104,291.44403 -0.789616,-1.58061 v 1.418 q 0,0.0565 0.01791,0.0813 0.01791,0.0234 0.07028,0.0372 v 0.0441 h -0.373449 v -0.0441 q 0.05237,-0.0138 0.07028,-0.0372 0.01792,-0.0234 0.01792,-0.0813 v -1.5558 q 0,-0.0579 -0.01792,-0.0813 -0.01791,-0.0248 -0.07028,-0.0372 v -0.0441 h 0.487826 v 0.0441 q -0.06752,0.0234 -0.06752,0.0579 0,0.0165 0.04547,0.10611 l 0.62563,1.24161 0.628385,-1.25263 q 0.03307,-0.0661 0.03307,-0.0937 0,-0.0358 -0.06752,-0.0593 v -0.0441 h 0.49196 v 0.0441 q -0.05237,0.0138 -0.07028,0.0372 -0.01792,0.0234 -0.01792,0.0813 v 1.5558 q 0,0.0565 0.01792,0.0813 0.01791,0.0234 0.07028,0.0372 v 0.0441 h -0.392741 v -0.0441 q 0.05374,-0.0138 0.07028,-0.0372 0.01791,-0.0234 0.01791,-0.0813 v -1.418 z" />
        <path
           inkscape:connector-curvature="0"
           id="path964"
           style="font-style:normal;font-variant:normal;font-weight:normal;font-stretch:normal;font-size:2.82222223px;line-height:1.25;font-family:'Copperplate Gothic Light';-inkscape-font-specification:'Copperplate Gothic Light, ';fill:#ffe4b3;stroke:#ffe4b3;stroke-width:0.2;stroke-miterlimit:4;stroke-dasharray:none;stroke-opacity:1"
           d="m 26.942006,290.3857 h -0.201193 l 0.493338,-0.8282 h 0.243912 l 0.493338,0.8282 h -0.20395 l -0.413411,-0.68075 z" />
        <path
           inkscape:connector-curvature="0"
           id="path966"
           style="font-style:normal;font-variant:normal;font-weight:normal;font-stretch:normal;font-size:2.82222223px;line-height:1.25;font-family:'Copperplate Gothic Light';-inkscape-font-specification:'Copperplate Gothic Light, ';fill:#ffe4b3;stroke:#ffe4b3;stroke-width:0.2;stroke-miterlimit:4;stroke-dasharray:none;stroke-opacity:1"
           d="m 28.617701,289.56301 v 0.0372 q -0.06615,0.011 -0.06615,0.0482 0,0.0234 0.07441,0.12402 l 1.092784,1.4621 q 0.129536,0.16536 0.22462,0.17088 v 0.0386 h -0.434082 v -0.0386 q 0.06615,-0.011 0.06615,-0.0469 0,-0.0207 -0.07579,-0.12402 l -1.080382,-1.46348 q -0.129535,-0.16536 -0.22462,-0.17087 v -0.0372 z" />
      </g>
      <g
         id="text924"
         style="font-style:normal;font-variant:normal;font-weight:normal;font-stretch:normal;font-size:2.97226882px;line-height:1.25;font-family:'Yu Gothic UI';-inkscape-font-specification:'Yu Gothic UI';letter-spacing:0px;word-spacing:0px;fill:#ffe4b3;fill-opacity:1;stroke:none;stroke-width:0.24768905"
         aria-label="LUNETTA">
        <path
           id="path892"
           style="font-size:2.97226882px;fill:#ffe4b3;stroke-width:0.24768905"
           d="M 11.061028,295.90683 H 9.9812581 v -2.08117 h 0.2438189 v 1.86057 h 0.835951 z"
           inkscape:connector-curvature="0" />
        <path
           id="path894"
           style="font-size:2.97226882px;fill:#ffe4b3;stroke-width:0.24768905"
           d="m 12.902731,295.06507 q 0,0.87659 -0.79096,0.87659 -0.75758,0 -0.75758,-0.84321 v -1.27279 h 0.243819 v 1.25683 q 0,0.64002 0.539885,0.64002 0.521017,0 0.521017,-0.61825 v -1.2786 h 0.243819 z"
           inkscape:connector-curvature="0" />
        <path
           id="path896"
           style="font-size:2.97226882px;fill:#ffe4b3;stroke-width:0.24768905"
           d="m 15.101456,295.90683 h -0.298969 l -1.071062,-1.65884 q -0.04064,-0.0624 -0.06676,-0.13062 h -0.0087 q 0.01161,0.0668 0.01161,0.28591 v 1.50355 h -0.243819 v -2.08117 h 0.316384 l 1.042036,1.63272 q 0.06531,0.10159 0.08418,0.13932 h 0.0058 q -0.01451,-0.09 -0.01451,-0.30622 v -1.46582 h 0.243819 z"
           inkscape:connector-curvature="0" />
        <path
           id="path898"
           style="font-size:2.97226882px;fill:#ffe4b3;stroke-width:0.24768905"
           d="m 16.750136,295.90683 h -1.102991 v -2.08117 h 1.056549 v 0.2206 h -0.81273 v 0.69227 h 0.751775 v 0.21915 h -0.751775 v 0.72855 h 0.859172 z"
           inkscape:connector-curvature="0" />
        <path
           id="path900"
           style="font-size:2.97226882px;fill:#ffe4b3;stroke-width:0.24768905"
           d="m 18.381401,294.04626 h -0.60084 v 1.86057 h -0.243819 v -1.86057 h -0.599388 v -0.2206 h 1.444047 z"
           inkscape:connector-curvature="0" />
        <path
           id="path902"
           style="font-size:2.97226882px;fill:#ffe4b3;stroke-width:0.24768905"
           d="m 19.937197,294.04626 h -0.600839 v 1.86057 h -0.243819 v -1.86057 h -0.599388 v -0.2206 h 1.444046 z"
           inkscape:connector-curvature="0" />
        <path
           id="path904"
           style="font-size:2.97226882px;fill:#ffe4b3;stroke-width:0.24768905"
           d="M 21.768742,295.90683 H 21.4988 l -0.220598,-0.58342 h -0.882393 l -0.207536,0.58342 h -0.271394 l 0.798217,-2.08117 h 0.252527 z m -0.570362,-0.80257 -0.326543,-0.88675 q -0.01596,-0.0435 -0.03193,-0.13932 h -0.0058 q -0.01451,0.0885 -0.03338,0.13932 l -0.323641,0.88675 z"
           inkscape:connector-curvature="0" />
      </g>
    </g>
    <path
       inkscape:connector-curvature="0"
       id="path1089"
       d="m 18.520833,276.36249 v 11.37708 h 10.583338 l -4e-6,-11.37708 z"
       style="fill:none;stroke:#ffe4b3;stroke-width:0.26458332px;stroke-linecap:butt;stroke-linejoin:miter;stroke-opacity:1"
       sodipodi:nodetypes="ccccc" />
    <path
       sodipodi:nodetypes="ccccc"
       style="fill:none;stroke:#ffe4b3;stroke-width:0.26458332px;stroke-linecap:butt;stroke-linejoin:miter;stroke-opacity:1"
       d="m 18.520833,232.70624 v 11.37708 h 10.583334 v -11.37708 z"
       id="path1102"
       inkscape:connector-curvature="0" />
    <path
       sodipodi:nodetypes="ccccc"
       inkscape:connector-curvature="0"
       id="path937"
       d="M 18.520839,261.73632 V 273.1134 H 29.104177 V 261.73632 Z"
       style="fill:none;stroke:#ffe4b3;stroke-width:0.26458332px;stroke-linecap:butt;stroke-linejoin:miter;stroke-opacity:1" />
    <path
       sodipodi:nodetypes="ccccc"
       style="fill:none;stroke:#ffe4b3;stroke-width:0.26458332px;stroke-linecap:butt;stroke-linejoin:miter;stroke-opacity:1"
       d="m 18.520833,247.25814 v 11.37708 h 10.583338 l -4e-6,-11.37708 z"
       id="path939"
       inkscape:connector-curvature="0" />
    <path
       inkscape:connector-curvature="0"
       id="path941"
       d="m 18.520833,203.60189 v 11.37708 h 10.583334 v -11.37708 z"
       style="fill:none;stroke:#ffe4b3;stroke-width:0.265;stroke-linecap:butt;stroke-linejoin:miter;stroke-opacity:1;stroke-miterlimit:4;stroke-dasharray:none"
       sodipodi:nodetypes="ccccc" />
    <path
       inkscape:connector-curvature="0"
       id="path943"
       d="m 18.520833,218.15379 v 11.37708 h 10.583338 l -4e-6,-11.37708 z"
       style="fill:none;stroke:#ffe4b3;stroke-width:0.26458332px;stroke-linecap:butt;stroke-linejoin:miter;stroke-opacity:1"
       sodipodi:nodetypes="ccccc" />
    <path
       sodipodi:nodetypes="ccccc"
       style="fill:none;stroke:#ffe4b3;stroke-width:0.26458332px;stroke-linecap:butt;stroke-linejoin:miter;stroke-opacity:1"
       d="m 2.6458272,276.36249 v 11.37708 H 13.229161 l -4e-6,-11.37708 z"
       id="path919"
       inkscape:connector-curvature="0" />
    <path
       inkscape:connector-curvature="0"
       id="path921"
       d="m 2.6458272,232.70624 v 11.37708 H 13.229157 v -11.37708 z"
       style="fill:none;stroke:#ffe4b3;stroke-width:0.26458332px;stroke-linecap:butt;stroke-linejoin:miter;stroke-opacity:1"
       sodipodi:nodetypes="ccccc" />
    <path
       style="fill:none;stroke:#ffe4b3;stroke-width:0.26458332px;stroke-linecap:butt;stroke-linejoin:miter;stroke-opacity:1"
       d="M 2.6458332,261.73632 V 273.1134 H 13.229167 v -11.37708 z"
       id="path923"
       inkscape:connector-curvature="0"
       sodipodi:nodetypes="ccccc" />
    <path
       inkscape:connector-curvature="0"
       id="path925"
       d="m 2.6458272,247.25814 v 11.37708 H 13.229161 l -4e-6,-11.37708 z"
       style="fill:none;stroke:#ffe4b3;stroke-width:0.26458332px;stroke-linecap:butt;stroke-linejoin:miter;stroke-opacity:1"
       sodipodi:nodetypes="ccccc" />
    <path
       sodipodi:nodetypes="ccccc"
       style="fill:none;stroke:#ffe4b3;stroke-width:0.26499999;stroke-linecap:butt;stroke-linejoin:miter;stroke-miterlimit:4;stroke-dasharray:none;stroke-opacity:1"
       d="m 2.6458272,203.60189 v 11.37708 H 13.229157 v -11.37708 z"
       id="path927"
       inkscape:connector-curvature="0" />
    <path
       sodipodi:nodetypes="ccccc"
       style="fill:none;stroke:#ffe4b3;stroke-width:0.26458332px;stroke-linecap:butt;stroke-linejoin:miter;stroke-opacity:1"
       d="m 2.6458272,218.15379 v 11.37708 H 13.229161 l -4e-6,-11.37708 z"
       id="path929"
       inkscape:connector-curvature="0" />
    <g
       aria-label="ZEROES"
       style="font-style:normal;font-variant:normal;font-weight:600;font-stretch:normal;font-size:3.52777767px;line-height:1.25;font-family:'Yu Gothic UI';-inkscape-font-specification:'Yu Gothic UI Semi-Bold';letter-spacing:0px;word-spacing:0px;fill:#ffe4b3;fill-opacity:1;stroke:none;stroke-width:0.26458332"
       id="text964"
       transform="translate(-4.8722235,-32.142051)">
      <path
         d="m 16.541626,229.88607 -1.353923,1.94476 H 16.5244 v 0.34623 h -1.910305 v -0.18775 l 1.35909,-1.93443 H 14.71917 v -0.34795 h 1.822456 z"
         style="font-style:normal;font-variant:normal;font-weight:600;font-stretch:normal;font-size:3.52777767px;font-family:'Yu Gothic UI';-inkscape-font-specification:'Yu Gothic UI Semi-Bold';fill:#ffe4b3;stroke-width:0.26458332"
         id="path967"
         inkscape:connector-curvature="0" />
      <path
         d="m 18.317572,232.17706 h -1.386651 v -2.47013 h 1.33153 v 0.34795 h -0.921563 v 0.69936 h 0.849216 v 0.34623 h -0.849216 v 0.73036 h 0.976684 z"
         style="font-style:normal;font-variant:normal;font-weight:600;font-stretch:normal;font-size:3.52777767px;font-family:'Yu Gothic UI';-inkscape-font-specification:'Yu Gothic UI Semi-Bold';fill:#ffe4b3;stroke-width:0.26458332"
         id="path969"
         inkscape:connector-curvature="0" />
      <path
         d="m 20.665405,232.17706 h -0.478868 l -0.394464,-0.66146 q -0.0534,-0.0913 -0.105075,-0.15502 -0.04995,-0.0655 -0.103353,-0.1068 -0.05168,-0.0413 -0.113688,-0.0603 -0.06201,-0.0189 -0.139527,-0.0189 h -0.165364 v 1.00252 h -0.408244 v -2.47013 h 0.813042 q 0.173978,0 0.320394,0.0413 0.146417,0.0413 0.254937,0.12575 0.108521,0.0827 0.16881,0.20842 0.06201,0.12403 0.06201,0.29112 0,0.13091 -0.03962,0.24115 -0.0379,0.10852 -0.110243,0.19465 -0.07062,0.0844 -0.172255,0.14469 -0.09991,0.0603 -0.225653,0.093 v 0.007 q 0.06718,0.0379 0.117133,0.0844 0.04995,0.0448 0.09474,0.093 0.04479,0.0482 0.08785,0.11025 0.04479,0.0603 0.09818,0.14125 z m -1.500339,-2.13768 v 0.80271 h 0.341064 q 0.09474,0 0.173978,-0.0293 0.08096,-0.0293 0.139526,-0.0844 0.05857,-0.0551 0.09129,-0.13436 0.03273,-0.0792 0.03273,-0.17742 0,-0.17742 -0.111965,-0.27733 -0.111966,-0.0999 -0.322117,-0.0999 z"
         style="font-style:normal;font-variant:normal;font-weight:600;font-stretch:normal;font-size:3.52777767px;font-family:'Yu Gothic UI';-inkscape-font-specification:'Yu Gothic UI Semi-Bold';fill:#ffe4b3;stroke-width:0.26458332"
         id="path971"
         inkscape:connector-curvature="0" />
      <path
         d="m 21.938367,232.2184 q -0.533989,0 -0.856106,-0.34623 -0.320394,-0.34623 -0.320394,-0.90089 0,-0.596 0.327284,-0.95085 0.327285,-0.35484 0.888835,-0.35484 0.520209,0 0.837158,0.34451 0.318672,0.34451 0.318672,0.90089 0,0.60461 -0.325562,0.95601 -0.325561,0.3514 -0.869887,0.3514 z m 0.01895,-2.1928 q -0.339342,0 -0.552938,0.25322 -0.211874,0.25321 -0.211874,0.66662 0,0.41169 0.206706,0.66318 0.206706,0.25149 0.54088,0.25149 0.354845,0 0.559828,-0.23943 0.204983,-0.23943 0.204983,-0.67007 0,-0.4427 -0.199815,-0.68385 -0.198093,-0.24116 -0.54777,-0.24116 z"
         style="font-style:normal;font-variant:normal;font-weight:600;font-stretch:normal;font-size:3.52777767px;font-family:'Yu Gothic UI';-inkscape-font-specification:'Yu Gothic UI Semi-Bold';fill:#ffe4b3;stroke-width:0.26458332"
         id="path973"
         inkscape:connector-curvature="0" />
      <path
         d="m 24.973497,232.17706 h -1.386651 v -2.47013 h 1.331529 v 0.34795 h -0.921563 v 0.69936 h 0.849216 v 0.34623 h -0.849216 v 0.73036 h 0.976685 z"
         style="font-style:normal;font-variant:normal;font-weight:600;font-stretch:normal;font-size:3.52777767px;font-family:'Yu Gothic UI';-inkscape-font-specification:'Yu Gothic UI Semi-Bold';fill:#ffe4b3;stroke-width:0.26458332"
         id="path975"
         inkscape:connector-curvature="0" />
      <path
         d="m 25.299059,232.07888 v -0.42203 q 0.05684,0.0517 0.134358,0.093 0.07924,0.0413 0.167087,0.0706 0.08785,0.0276 0.1757,0.0431 0.08785,0.0155 0.16192,0.0155 0.258382,0 0.384128,-0.0861 0.127468,-0.0861 0.127468,-0.24976 0,-0.0879 -0.04306,-0.15159 -0.04134,-0.0655 -0.117133,-0.11885 -0.07579,-0.0534 -0.179145,-0.10163 -0.101631,-0.05 -0.218764,-0.10336 -0.125746,-0.0672 -0.234266,-0.13608 -0.108521,-0.0689 -0.189481,-0.15158 -0.07924,-0.0844 -0.125746,-0.18948 -0.04479,-0.10508 -0.04479,-0.24633 0,-0.17398 0.07751,-0.30144 0.07924,-0.12919 0.206705,-0.21188 0.129191,-0.0844 0.292834,-0.12402 0.163642,-0.0413 0.334174,-0.0413 0.387573,0 0.564995,0.0879 v 0.4048 q -0.21015,-0.15159 -0.54088,-0.15159 -0.0913,0 -0.18259,0.0172 -0.08957,0.0172 -0.161919,0.0568 -0.07062,0.0396 -0.115411,0.10163 -0.04479,0.062 -0.04479,0.14986 0,0.0827 0.03445,0.14298 0.03445,0.0603 0.09991,0.11024 0.06718,0.0499 0.161919,0.0982 0.09646,0.0465 0.222209,0.10163 0.129191,0.0672 0.242879,0.14125 0.115411,0.0741 0.201538,0.16365 0.08785,0.0896 0.137804,0.19981 0.05168,0.10852 0.05168,0.24805 0,0.18776 -0.07579,0.31695 -0.07579,0.12919 -0.204983,0.21015 -0.127468,0.081 -0.294556,0.11713 -0.167087,0.0362 -0.353122,0.0362 -0.06201,0 -0.153307,-0.0103 -0.08957,-0.009 -0.184312,-0.0276 -0.09474,-0.0172 -0.179145,-0.0431 -0.08441,-0.0258 -0.136081,-0.0586 z"
         style="font-style:normal;font-variant:normal;font-weight:600;font-stretch:normal;font-size:3.52777767px;font-family:'Yu Gothic UI';-inkscape-font-specification:'Yu Gothic UI Semi-Bold';fill:#ffe4b3;stroke-width:0.26458332"
         id="path977"
         inkscape:connector-curvature="0" />
    </g>
    <g
       aria-label="CONSTANT LOGICAL ZEROES"
       style="font-style:normal;font-variant:normal;font-weight:normal;font-stretch:normal;font-size:2.11666656px;line-height:1.25;font-family:'Yu Gothic UI';-inkscape-font-specification:'Yu Gothic UI';letter-spacing:0px;word-spacing:0px;fill:#ffe4b3;fill-opacity:1;stroke:none;stroke-width:0.26458332"
       id="text917"
       transform="translate(-1.7962679,-15.338906)">
      <path
         d="m 5.1717773,217.56297 q -0.1643311,0.0868 -0.4092773,0.0868 -0.3162598,0 -0.5064291,-0.20361 -0.1901692,-0.2036 -0.1901692,-0.53433 0,-0.35553 0.2139404,-0.57464 0.2139404,-0.21911 0.5426025,-0.21911 0.2108398,0 0.3493327,0.061 v 0.185 q -0.1591634,-0.0889 -0.3513997,-0.0889 -0.2552816,0 -0.414445,0.17053 -0.1581299,0.17053 -0.1581299,0.45578 0,0.27079 0.1477946,0.43202 0.1488281,0.1602 0.3896403,0.1602 0.2232422,0 0.3865397,-0.0992 z"
         style="font-size:2.11666656px;fill:#ffe4b3;stroke-width:0.26458332"
         id="path931"
         inkscape:connector-curvature="0" />
      <path
         d="m 6.0709471,217.64979 q -0.3152262,0 -0.5053955,-0.20774 -0.1891357,-0.20774 -0.1891357,-0.54054 0,-0.3576 0.1932698,-0.5705 0.1932699,-0.21291 0.5260661,-0.21291 0.306958,0 0.4940267,0.20671 0.1881022,0.2067 0.1881022,0.54053 0,0.36277 -0.1922363,0.57361 -0.1922364,0.21084 -0.5146973,0.21084 z m 0.012402,-1.37459 q -0.2335775,0 -0.379305,0.16846 -0.1457276,0.16847 -0.1457276,0.44235 0,0.27389 0.1415934,0.44132 0.142627,0.1664 0.3710368,0.1664 0.2439128,0 0.3844726,-0.15917 0.1405599,-0.15916 0.1405599,-0.44545 0,-0.29352 -0.1364257,-0.45372 -0.1364258,-0.16019 -0.3762044,-0.16019 z"
         style="font-size:2.11666656px;fill:#ffe4b3;stroke-width:0.26458332"
         id="path933"
         inkscape:connector-curvature="0" />
      <path
         d="M 8.2640949,217.62498 H 8.051188 l -0.7627441,-1.18132 q -0.028939,-0.0444 -0.047542,-0.093 h -0.0062 q 0.00827,0.0476 0.00827,0.20361 V 217.625 H 7.0693358 v -1.4821 H 7.294645 l 0.7420736,1.16272 q 0.046509,0.0724 0.059945,0.0992 h 0.00413 q -0.010335,-0.0641 -0.010335,-0.21807 v -1.04387 h 0.1736329 z"
         style="font-size:2.11666656px;fill:#ffe4b3;stroke-width:0.26458332"
         id="path935"
         inkscape:connector-curvature="0" />
      <path
         d="m 8.5834548,217.56504 v -0.20464 q 0.03514,0.031 0.083716,0.0558 0.049609,0.0248 0.1033529,0.0424 0.054777,0.0165 0.109554,0.0258 0.054777,0.009 0.1012858,0.009 0.160197,0 0.2387451,-0.0589 0.079582,-0.06 0.079582,-0.17157 0,-0.0599 -0.026872,-0.10439 -0.025838,-0.0444 -0.072347,-0.0806 -0.046509,-0.0372 -0.1105876,-0.0703 -0.063045,-0.0341 -0.1364257,-0.0713 -0.077515,-0.0393 -0.144694,-0.0796 -0.067179,-0.0403 -0.1167888,-0.0889 -0.049609,-0.0486 -0.078548,-0.10955 -0.027905,-0.062 -0.027905,-0.1447 0,-0.10128 0.044442,-0.1757 0.044442,-0.0755 0.1167887,-0.12402 0.072347,-0.0486 0.1643311,-0.0724 0.093018,-0.0238 0.1891357,-0.0238 0.2191081,0 0.3193604,0.0527 v 0.19534 q -0.1312582,-0.0909 -0.3369304,-0.0909 -0.056844,0 -0.1136881,0.0124 -0.056844,0.0114 -0.1012858,0.0382 -0.044442,0.0269 -0.072347,0.0693 -0.027905,0.0424 -0.027905,0.10335 0,0.0568 0.020671,0.0982 0.021704,0.0413 0.063045,0.0754 0.041341,0.0341 0.1002523,0.0662 0.059945,0.032 0.1374593,0.0703 0.079582,0.0393 0.1508952,0.0827 0.071314,0.0434 0.1250569,0.0961 0.053743,0.0527 0.084749,0.11679 0.032039,0.0641 0.032039,0.14676 0,0.10955 -0.043408,0.18603 -0.042375,0.0754 -0.1157552,0.12299 -0.072347,0.0475 -0.1674317,0.0682 -0.095085,0.0217 -0.2005045,0.0217 -0.03514,0 -0.086816,-0.006 -0.051676,-0.005 -0.1054199,-0.0165 -0.053743,-0.0103 -0.1023194,-0.0258 -0.047542,-0.0165 -0.076481,-0.0362 z"
         style="font-size:2.11666656px;fill:#ffe4b3;stroke-width:0.26458332"
         id="path938"
         inkscape:connector-curvature="0" />
      <path
         d="m 10.632942,216.3 h -0.42788 v 1.32498 H 10.031429 V 216.3 H 9.6045814 v -0.1571 h 1.0283606 z"
         style="font-size:2.11666656px;fill:#ffe4b3;stroke-width:0.26458332"
         id="path940"
         inkscape:connector-curvature="0" />
      <path
         d="m 11.937255,217.62498 h -0.192236 l -0.157096,-0.41547 h -0.628386 l -0.147794,0.41547 h -0.19327 l 0.56844,-1.48208 h 0.179834 z m -0.406177,-0.57154 -0.232543,-0.63148 q -0.01137,-0.031 -0.02274,-0.0992 h -0.0041 q -0.01034,0.063 -0.02377,0.0992 l -0.230477,0.63148 z"
         style="font-size:2.11666656px;fill:#ffe4b3;stroke-width:0.26458332"
         id="path942"
         inkscape:connector-curvature="0" />
      <path
         d="m 13.349055,217.62498 h -0.212907 l -0.762744,-1.18132 q -0.02894,-0.0444 -0.04754,-0.093 h -0.0062 q 0.0083,0.0476 0.0083,0.20361 v 1.07073 h -0.173633 v -1.48208 h 0.225309 l 0.742074,1.16272 q 0.04651,0.0724 0.05994,0.0992 h 0.0041 q -0.01033,-0.0641 -0.01033,-0.21807 v -1.04387 h 0.173632 z"
         style="font-size:2.11666656px;fill:#ffe4b3;stroke-width:0.26458332"
         id="path945"
         inkscape:connector-curvature="0" />
      <path
         d="m 14.614094,216.3 h -0.42788 v 1.32498 H 14.012581 V 216.3 h -0.426848 v -0.1571 h 1.028361 z"
         style="font-size:2.11666656px;fill:#ffe4b3;stroke-width:0.26458332"
         id="path947"
         inkscape:connector-curvature="0" />
      <path
         d="m 16.193326,217.62498 h -0.768945 v -1.48208 h 0.173633 v 1.32499 h 0.595312 z"
         style="font-size:2.11666656px;fill:#ffe4b3;stroke-width:0.26458332"
         id="path949"
         inkscape:connector-curvature="0" />
      <path
         d="m 16.997411,217.64979 q -0.315226,0 -0.505395,-0.20774 -0.189136,-0.20774 -0.189136,-0.54054 0,-0.3576 0.19327,-0.5705 0.19327,-0.21291 0.526066,-0.21291 0.306958,0 0.494027,0.20671 0.188102,0.2067 0.188102,0.54053 0,0.36277 -0.192236,0.57361 -0.192237,0.21084 -0.514698,0.21084 z m 0.0124,-1.37459 q -0.233578,0 -0.379305,0.16846 -0.145728,0.16847 -0.145728,0.44235 0,0.27389 0.141594,0.44132 0.142627,0.1664 0.371036,0.1664 0.243913,0 0.384473,-0.15917 0.14056,-0.15916 0.14056,-0.44545 0,-0.29352 -0.136426,-0.45372 -0.136426,-0.16019 -0.376204,-0.16019 z"
         style="font-size:2.11666656px;fill:#ffe4b3;stroke-width:0.26458332"
         id="path951"
         inkscape:connector-curvature="0" />
      <path
         d="m 19.103743,217.5237 q -0.223243,0.12609 -0.496094,0.12609 -0.317293,0 -0.513664,-0.20464 -0.195337,-0.20464 -0.195337,-0.54157 0,-0.34416 0.217041,-0.5643 0.218075,-0.22118 0.551904,-0.22118 0.241846,0 0.406177,0.0786 v 0.19223 q -0.179834,-0.11368 -0.425814,-0.11368 -0.24908,0 -0.408243,0.17156 -0.159164,0.17157 -0.159164,0.44442 0,0.28112 0.147795,0.44235 0.147794,0.1602 0.401009,0.1602 0.173633,0 0.300757,-0.0693 V 217.009 h -0.324528 v -0.15709 h 0.498161 z"
         style="font-size:2.11666656px;fill:#ffe4b3;stroke-width:0.26458332"
         id="path953"
         inkscape:connector-curvature="0" />
      <path
         d="m 19.620506,217.62498 h -0.173632 v -1.48208 h 0.173632 z"
         style="font-size:2.11666656px;fill:#ffe4b3;stroke-width:0.26458332"
         id="path955"
         inkscape:connector-curvature="0" />
      <path
         d="m 21.017837,217.56297 q -0.164331,0.0868 -0.409277,0.0868 -0.31626,0 -0.506429,-0.20361 -0.19017,-0.2036 -0.19017,-0.53433 0,-0.35553 0.213941,-0.57464 0.21394,-0.21911 0.542602,-0.21911 0.21084,0 0.349333,0.061 v 0.185 q -0.159163,-0.0889 -0.3514,-0.0889 -0.255281,0 -0.414445,0.17053 -0.158129,0.17053 -0.158129,0.45578 0,0.27079 0.147794,0.43202 0.148828,0.1602 0.38964,0.1602 0.223243,0 0.38654,-0.0992 z"
         style="font-size:2.11666656px;fill:#ffe4b3;stroke-width:0.26458332"
         id="path957"
         inkscape:connector-curvature="0" />
      <path
         d="m 22.466844,217.62498 h -0.192236 l -0.157096,-0.41547 h -0.628386 l -0.147794,0.41547 h -0.19327 l 0.568441,-1.48208 h 0.179834 z m -0.406176,-0.57154 -0.232544,-0.63148 q -0.01137,-0.031 -0.02274,-0.0992 h -0.0041 q -0.01034,0.063 -0.02377,0.0992 l -0.230477,0.63148 z"
         style="font-size:2.11666656px;fill:#ffe4b3;stroke-width:0.26458332"
         id="path961"
         inkscape:connector-curvature="0" />
      <path
         d="m 23.452831,217.62498 h -0.768946 v -1.48208 h 0.173633 v 1.32499 h 0.595313 z"
         style="font-size:2.11666656px;fill:#ffe4b3;stroke-width:0.26458332"
         id="path963"
         inkscape:connector-curvature="0" />
      <path
         d="m 25.226366,216.18425 -0.868164,1.28364 h 0.847494 v 0.15709 h -1.106909 v -0.0486 L 24.959716,216.3 h -0.791683 v -0.1571 h 1.058333 z"
         style="font-size:2.11666656px;fill:#ffe4b3;stroke-width:0.26458332"
         id="path965"
         inkscape:connector-curvature="0" />
      <path
         d="m 26.251626,217.62498 h -0.785482 v -1.48208 h 0.752409 V 216.3 h -0.578776 v 0.49299 h 0.535368 v 0.15607 h -0.535368 v 0.51883 h 0.611849 z"
         style="font-size:2.11666656px;fill:#ffe4b3;stroke-width:0.26458332"
         id="path968"
         inkscape:connector-curvature="0" />
      <path
         d="m 27.599348,217.62498 h -0.206706 l -0.248047,-0.41547 q -0.03411,-0.0579 -0.06615,-0.0982 -0.03204,-0.0413 -0.06614,-0.0672 -0.03307,-0.0258 -0.07235,-0.0372 -0.03824,-0.0124 -0.08682,-0.0124 h -0.142627 v 0.63045 H 26.53688 v -1.48208 h 0.442351 q 0.09715,0 0.1788,0.0248 0.08268,0.0238 0.142627,0.0734 0.06098,0.0496 0.09509,0.12402 0.03411,0.0734 0.03411,0.1726 0,0.0775 -0.02377,0.14263 -0.02274,0.0641 -0.06615,0.11472 -0.04237,0.0506 -0.103353,0.0868 -0.05994,0.0351 -0.135392,0.0548 v 0.004 q 0.03721,0.0165 0.06408,0.0382 0.02791,0.0207 0.05271,0.0496 0.0248,0.0289 0.04858,0.0661 0.0248,0.0362 0.05478,0.0848 z M 26.710513,216.3 v 0.53744 h 0.235645 q 0.06511,0 0.119889,-0.0196 0.05581,-0.0196 0.09612,-0.0558 0.04031,-0.0372 0.06304,-0.0899 0.02274,-0.0537 0.02274,-0.11989 0,-0.11885 -0.07752,-0.185 Q 27.093952,216.3 26.948225,216.3 Z"
         style="font-size:2.11666656px;fill:#ffe4b3;stroke-width:0.26458332"
         id="path970"
         inkscape:connector-curvature="0" />
      <path
         d="m 28.378627,217.64979 q -0.315226,0 -0.505395,-0.20774 -0.189136,-0.20774 -0.189136,-0.54054 0,-0.3576 0.19327,-0.5705 0.19327,-0.21291 0.526066,-0.21291 0.306958,0 0.494027,0.20671 0.188102,0.2067 0.188102,0.54053 0,0.36277 -0.192236,0.57361 -0.192237,0.21084 -0.514698,0.21084 z m 0.0124,-1.37459 q -0.233578,0 -0.379305,0.16846 -0.145728,0.16847 -0.145728,0.44235 0,0.27389 0.141594,0.44132 0.142627,0.1664 0.371036,0.1664 0.243913,0 0.384473,-0.15917 0.14056,-0.15916 0.14056,-0.44545 0,-0.29352 -0.136426,-0.45372 -0.136426,-0.16019 -0.376204,-0.16019 z"
         style="font-size:2.11666656px;fill:#ffe4b3;stroke-width:0.26458332"
         id="path972"
         inkscape:connector-curvature="0" />
      <path
         d="m 30.162498,217.62498 h -0.785482 v -1.48208 h 0.752409 V 216.3 h -0.578776 v 0.49299 h 0.535368 v 0.15607 h -0.535368 v 0.51883 h 0.611849 z"
         style="font-size:2.11666656px;fill:#ffe4b3;stroke-width:0.26458332"
         id="path974"
         inkscape:connector-curvature="0" />
      <path
         d="m 30.378505,217.56504 v -0.20464 q 0.03514,0.031 0.08372,0.0558 0.04961,0.0248 0.103353,0.0424 0.05478,0.0165 0.109554,0.0258 0.05478,0.009 0.101286,0.009 0.160197,0 0.238745,-0.0589 0.07958,-0.06 0.07958,-0.17157 0,-0.0599 -0.02687,-0.10439 -0.02584,-0.0444 -0.07235,-0.0806 -0.04651,-0.0372 -0.110588,-0.0703 -0.06305,-0.0341 -0.136425,-0.0713 -0.07751,-0.0393 -0.144694,-0.0796 -0.06718,-0.0403 -0.116789,-0.0889 -0.04961,-0.0486 -0.07855,-0.10955 -0.02791,-0.062 -0.02791,-0.1447 0,-0.10128 0.04444,-0.1757 0.04444,-0.0755 0.116789,-0.12402 0.07235,-0.0486 0.164331,-0.0724 0.09302,-0.0238 0.189136,-0.0238 0.219108,0 0.31936,0.0527 v 0.19534 q -0.131258,-0.0909 -0.33693,-0.0909 -0.05684,0 -0.113688,0.0124 -0.05684,0.0114 -0.101286,0.0382 -0.04444,0.0269 -0.07235,0.0693 -0.0279,0.0424 -0.0279,0.10335 0,0.0568 0.02067,0.0982 0.0217,0.0413 0.06304,0.0754 0.04134,0.0341 0.100253,0.0662 0.05994,0.032 0.137459,0.0703 0.07958,0.0393 0.150895,0.0827 0.07131,0.0434 0.125057,0.0961 0.05374,0.0527 0.08475,0.11679 0.03204,0.0641 0.03204,0.14676 0,0.10955 -0.04341,0.18603 -0.04237,0.0754 -0.115756,0.12299 -0.07235,0.0475 -0.167431,0.0682 -0.09509,0.0217 -0.200505,0.0217 -0.03514,0 -0.08682,-0.006 -0.05168,-0.005 -0.10542,-0.0165 -0.05374,-0.0103 -0.102319,-0.0258 -0.04754,-0.0165 -0.07648,-0.0362 z"
         style="font-size:2.11666656px;fill:#ffe4b3;stroke-width:0.26458332"
         id="path976"
         inkscape:connector-curvature="0" />
    </g>
  </g>
  <g
     inkscape:groupmode="layer"
     id="layer2"
     inkscape:label="Grid"
     style="display:none"
     sodipodi:insensitive="true">
    <g
       transform="translate(7.2598426e-7,3.333209e-6)"
       style="display:inline;stroke:#ffe4b3"
       id="g1112">
      <path
         style="fill:none;stroke:#ffe4b3;stroke-width:0.05;stroke-linecap:butt;stroke-linejoin:miter;stroke-miterlimit:4;stroke-dasharray:none;stroke-opacity:1"
         d="m 7.9375,-1e-5 -3e-6,100.54167"
         id="path881-8-8"
         inkscape:connector-curvature="0"
         sodipodi:nodetypes="cc" />
      <path
         sodipodi:nodetypes="cc"
         inkscape:connector-curvature="0"
         id="path890-2-5"
         d="m 3.968752,0 -4e-6,100.54167"
         style="fill:none;stroke:#ffe4b3;stroke-width:0.05;stroke-linecap:butt;stroke-linejoin:miter;stroke-miterlimit:4;stroke-dasharray:none;stroke-opacity:1" />
      <path
         style="fill:none;stroke:#ffe4b3;stroke-width:0.05;stroke-linecap:butt;stroke-linejoin:miter;stroke-miterlimit:4;stroke-dasharray:none;stroke-opacity:1"
         d="m 11.906253,0 -4e-6,100.54167"
         id="path895-1-5"
         inkscape:connector-curvature="0"
         sodipodi:nodetypes="cc" />
      <path
         sodipodi:nodetypes="cc"
         inkscape:connector-curvature="0"
         id="path905-6-4"
         d="m 0,14.022551 15.875,3.66e-4"
         style="fill:none;stroke:#ffe4b3;stroke-width:0.05;stroke-linecap:butt;stroke-linejoin:miter;stroke-miterlimit:4;stroke-dasharray:none;stroke-opacity:1" />
      <path
         sodipodi:nodetypes="cc"
         style="fill:none;stroke:#ffe4b3;stroke-width:0.05;stroke-linecap:butt;stroke-linejoin:miter;stroke-miterlimit:4;stroke-dasharray:none;stroke-opacity:1"
         d="M 0,28.57465 15.875,28.575"
         id="path1103"
         inkscape:connector-curvature="0" />
      <path
         sodipodi:nodetypes="cc"
         inkscape:connector-curvature="0"
         id="path1107"
         d="m 0,43.126622 15.875,4.61e-4"
         style="fill:none;stroke:#ffe4b3;stroke-width:0.05;stroke-linecap:butt;stroke-linejoin:miter;stroke-miterlimit:4;stroke-dasharray:none;stroke-opacity:1" />
      <path
         sodipodi:nodetypes="cc"
         style="fill:none;stroke:#ffe4b3;stroke-width:0.05;stroke-linecap:butt;stroke-linejoin:miter;stroke-miterlimit:4;stroke-dasharray:none;stroke-opacity:1"
         d="m 0,57.678723 15.875,4.44e-4"
         id="path1111"
         inkscape:connector-curvature="0" />
      <path
         sodipodi:nodetypes="cc"
         inkscape:connector-curvature="0"
         id="path1115"
         d="m 0,72.230955 15.875,2.95e-4"
         style="fill:none;stroke:#ffe4b3;stroke-width:0.05;stroke-linecap:butt;stroke-linejoin:miter;stroke-miterlimit:4;stroke-dasharray:none;stroke-opacity:1" />
      <path
         sodipodi:nodetypes="cc"
         style="fill:none;stroke:#ffe4b3;stroke-width:0.05;stroke-linecap:butt;stroke-linejoin:miter;stroke-miterlimit:4;stroke-dasharray:none;stroke-opacity:1"
         d="m 0,86.782927 15.875,4.06e-4"
         id="path1119"
         inkscape:connector-curvature="0" />
      <circle
         r="4.0999999"
         cy="28.574995"
         cx="7.9523039"
         id="circle1014"
         style="display:inline;opacity:1;fill:none;fill-opacity:1;stroke:#ffe4b3;stroke-width:0.05;stroke-linecap:square;stroke-linejoin:round;stroke-miterlimit:4;stroke-dasharray:none;stroke-dashoffset:0;stroke-opacity:1;paint-order:markers fill stroke" />
      <circle
         r="4.0999999"
         cy="43.127026"
         cx="7.9523039"
         id="circle1018"
         style="display:inline;opacity:1;fill:none;fill-opacity:1;stroke:#ffe4b3;stroke-width:0.05;stroke-linecap:square;stroke-linejoin:round;stroke-miterlimit:4;stroke-dasharray:none;stroke-dashoffset:0;stroke-opacity:1;paint-order:markers fill stroke" />
      <circle
         style="display:inline;opacity:1;fill:none;fill-opacity:1;stroke:#ffe4b3;stroke-width:0.05;stroke-linecap:square;stroke-linejoin:round;stroke-miterlimit:4;stroke-dasharray:none;stroke-dashoffset:0;stroke-opacity:1;paint-order:markers fill stroke"
         id="circle1022"
         cx="7.9523039"
         cy="57.679188"
         r="4.0999999" />
      <circle
         style="display:inline;opacity:1;fill:none;fill-opacity:1;stroke:#ffe4b3;stroke-width:0.05;stroke-linecap:square;stroke-linejoin:round;stroke-miterlimit:4;stroke-dasharray:none;stroke-dashoffset:0;stroke-opacity:1;paint-order:markers fill stroke"
         id="circle1026"
         cx="7.9523039"
         cy="72.231216"
         r="4.0999999" />
      <circle
         r="4.0999999"
         cy="86.783379"
         cx="7.9523039"
         id="circle1030"
         style="display:inline;opacity:1;fill:none;fill-opacity:1;stroke:#ffe4b3;stroke-width:0.05;stroke-linecap:square;stroke-linejoin:round;stroke-miterlimit:4;stroke-dasharray:none;stroke-dashoffset:0;stroke-opacity:1;paint-order:markers fill stroke" />
      <circle
         r="5.4741378"
         cy="14.023303"
         cx="7.9360795"
         id="circle943"
         style="display:inline;opacity:1;fill:none;fill-opacity:1;stroke:#ffe4b3;stroke-width:0.05172414;stroke-linecap:square;stroke-linejoin:round;stroke-miterlimit:4;stroke-dasharray:none;stroke-dashoffset:0;stroke-opacity:1;paint-order:markers fill stroke" />
      <circle
         style="display:inline;opacity:1;fill:none;fill-opacity:1;stroke:#ffe4b3;stroke-width:0.05172414;stroke-linecap:square;stroke-linejoin:round;stroke-miterlimit:4;stroke-dasharray:none;stroke-dashoffset:0;stroke-opacity:1;paint-order:markers fill stroke"
         id="circle975"
         cx="7.9360795"
         cy="28.575275"
         r="5.4741378" />
      <circle
         style="display:inline;opacity:1;fill:none;fill-opacity:1;stroke:#ffe4b3;stroke-width:0.05172414;stroke-linecap:square;stroke-linejoin:round;stroke-miterlimit:4;stroke-dasharray:none;stroke-dashoffset:0;stroke-opacity:1;paint-order:markers fill stroke"
         id="circle977"
         cx="7.9360795"
         cy="43.127495"
         r="5.4741378" />
      <circle
         r="5.4741378"
         cy="57.67947"
         cx="7.9360795"
         id="circle979"
         style="display:inline;opacity:1;fill:none;fill-opacity:1;stroke:#ffe4b3;stroke-width:0.05172414;stroke-linecap:square;stroke-linejoin:round;stroke-miterlimit:4;stroke-dasharray:none;stroke-dashoffset:0;stroke-opacity:1;paint-order:markers fill stroke" />
      <circle
         r="5.4741378"
         cy="72.231689"
         cx="7.9360795"
         id="circle981"
         style="display:inline;opacity:1;fill:none;fill-opacity:1;stroke:#ffe4b3;stroke-width:0.05172414;stroke-linecap:square;stroke-linejoin:round;stroke-miterlimit:4;stroke-dasharray:none;stroke-dashoffset:0;stroke-opacity:1;paint-order:markers fill stroke" />
      <circle
         style="display:inline;opacity:1;fill:none;fill-opacity:1;stroke:#ffe4b3;stroke-width:0.05172414;stroke-linecap:square;stroke-linejoin:round;stroke-miterlimit:4;stroke-dasharray:none;stroke-dashoffset:0;stroke-opacity:1;paint-order:markers fill stroke"
         id="circle983"
         cx="7.9360795"
         cy="86.783661"
         r="5.4741378" />
      <circle
         style="display:inline;opacity:1;fill:none;fill-opacity:1;stroke:#ffe4b3;stroke-width:0.05;stroke-linecap:square;stroke-linejoin:round;stroke-miterlimit:4;stroke-dasharray:none;stroke-dashoffset:0;stroke-opacity:1;paint-order:markers fill stroke"
         id="circle1089"
         cx="7.9523039"
         cy="14.022678"
         r="4.0999999" />
    </g>
    <g
       id="g4009"
       style="display:inline;stroke:#ffe4b3"
       transform="translate(15.874999,3.333209e-6)">
      <path
         sodipodi:nodetypes="cc"
         inkscape:connector-curvature="0"
         id="path3967"
         d="m 7.9375,-1e-5 -3e-6,100.54167"
         style="fill:none;stroke:#ffe4b3;stroke-width:0.05;stroke-linecap:butt;stroke-linejoin:miter;stroke-miterlimit:4;stroke-dasharray:none;stroke-opacity:1" />
      <path
         style="fill:none;stroke:#ffe4b3;stroke-width:0.05;stroke-linecap:butt;stroke-linejoin:miter;stroke-miterlimit:4;stroke-dasharray:none;stroke-opacity:1"
         d="m 3.968752,0 -4e-6,100.54167"
         id="path3969"
         inkscape:connector-curvature="0"
         sodipodi:nodetypes="cc" />
      <path
         sodipodi:nodetypes="cc"
         inkscape:connector-curvature="0"
         id="path3971"
         d="m 11.906253,0 -4e-6,100.54167"
         style="fill:none;stroke:#ffe4b3;stroke-width:0.05;stroke-linecap:butt;stroke-linejoin:miter;stroke-miterlimit:4;stroke-dasharray:none;stroke-opacity:1" />
      <path
         style="fill:none;stroke:#ffe4b3;stroke-width:0.05;stroke-linecap:butt;stroke-linejoin:miter;stroke-miterlimit:4;stroke-dasharray:none;stroke-opacity:1"
         d="m 0,14.022551 15.875,3.66e-4"
         id="path3973"
         inkscape:connector-curvature="0"
         sodipodi:nodetypes="cc" />
      <path
         inkscape:connector-curvature="0"
         id="path3975"
         d="M 0,28.57465 15.875,28.575"
         style="fill:none;stroke:#ffe4b3;stroke-width:0.05;stroke-linecap:butt;stroke-linejoin:miter;stroke-miterlimit:4;stroke-dasharray:none;stroke-opacity:1"
         sodipodi:nodetypes="cc" />
      <path
         style="fill:none;stroke:#ffe4b3;stroke-width:0.05;stroke-linecap:butt;stroke-linejoin:miter;stroke-miterlimit:4;stroke-dasharray:none;stroke-opacity:1"
         d="m 0,43.126622 15.875,4.61e-4"
         id="path3977"
         inkscape:connector-curvature="0"
         sodipodi:nodetypes="cc" />
      <path
         inkscape:connector-curvature="0"
         id="path3979"
         d="m 0,57.678723 15.875,4.44e-4"
         style="fill:none;stroke:#ffe4b3;stroke-width:0.05;stroke-linecap:butt;stroke-linejoin:miter;stroke-miterlimit:4;stroke-dasharray:none;stroke-opacity:1"
         sodipodi:nodetypes="cc" />
      <path
         style="fill:none;stroke:#ffe4b3;stroke-width:0.05;stroke-linecap:butt;stroke-linejoin:miter;stroke-miterlimit:4;stroke-dasharray:none;stroke-opacity:1"
         d="m 0,72.230955 15.875,2.95e-4"
         id="path3981"
         inkscape:connector-curvature="0"
         sodipodi:nodetypes="cc" />
      <path
         inkscape:connector-curvature="0"
         id="path3983"
         d="m 0,86.782927 15.875,4.06e-4"
         style="fill:none;stroke:#ffe4b3;stroke-width:0.05;stroke-linecap:butt;stroke-linejoin:miter;stroke-miterlimit:4;stroke-dasharray:none;stroke-opacity:1"
         sodipodi:nodetypes="cc" />
      <circle
         style="display:inline;opacity:1;fill:none;fill-opacity:1;stroke:#ffe4b3;stroke-width:0.05;stroke-linecap:square;stroke-linejoin:round;stroke-miterlimit:4;stroke-dasharray:none;stroke-dashoffset:0;stroke-opacity:1;paint-order:markers fill stroke"
         id="circle3985"
         cx="7.9523039"
         cy="28.574995"
         r="4.0999999" />
      <circle
         style="display:inline;opacity:1;fill:none;fill-opacity:1;stroke:#ffe4b3;stroke-width:0.05;stroke-linecap:square;stroke-linejoin:round;stroke-miterlimit:4;stroke-dasharray:none;stroke-dashoffset:0;stroke-opacity:1;paint-order:markers fill stroke"
         id="circle3987"
         cx="7.9523039"
         cy="43.127026"
         r="4.0999999" />
      <circle
         r="4.0999999"
         cy="57.679188"
         cx="7.9523039"
         id="circle3989"
         style="display:inline;opacity:1;fill:none;fill-opacity:1;stroke:#ffe4b3;stroke-width:0.05;stroke-linecap:square;stroke-linejoin:round;stroke-miterlimit:4;stroke-dasharray:none;stroke-dashoffset:0;stroke-opacity:1;paint-order:markers fill stroke" />
      <circle
         r="4.0999999"
         cy="72.231216"
         cx="7.9523039"
         id="circle3991"
         style="display:inline;opacity:1;fill:none;fill-opacity:1;stroke:#ffe4b3;stroke-width:0.05;stroke-linecap:square;stroke-linejoin:round;stroke-miterlimit:4;stroke-dasharray:none;stroke-dashoffset:0;stroke-opacity:1;paint-order:markers fill stroke" />
      <circle
         style="display:inline;opacity:1;fill:none;fill-opacity:1;stroke:#ffe4b3;stroke-width:0.05;stroke-linecap:square;stroke-linejoin:round;stroke-miterlimit:4;stroke-dasharray:none;stroke-dashoffset:0;stroke-opacity:1;paint-order:markers fill stroke"
         id="circle3993"
         cx="7.9523039"
         cy="86.783379"
         r="4.0999999" />
      <circle
         style="display:inline;opacity:1;fill:none;fill-opacity:1;stroke:#ffe4b3;stroke-width:0.05172414;stroke-linecap:square;stroke-linejoin:round;stroke-miterlimit:4;stroke-dasharray:none;stroke-dashoffset:0;stroke-opacity:1;paint-order:markers fill stroke"
         id="circle3995"
         cx="7.9360795"
         cy="14.023303"
         r="5.4741378" />
      <circle
         r="5.4741378"
         cy="28.575275"
         cx="7.9360795"
         id="circle3997"
         style="display:inline;opacity:1;fill:none;fill-opacity:1;stroke:#ffe4b3;stroke-width:0.05172414;stroke-linecap:square;stroke-linejoin:round;stroke-miterlimit:4;stroke-dasharray:none;stroke-dashoffset:0;stroke-opacity:1;paint-order:markers fill stroke" />
      <circle
         r="5.4741378"
         cy="43.127495"
         cx="7.9360795"
         id="circle3999"
         style="display:inline;opacity:1;fill:none;fill-opacity:1;stroke:#ffe4b3;stroke-width:0.05172414;stroke-linecap:square;stroke-linejoin:round;stroke-miterlimit:4;stroke-dasharray:none;stroke-dashoffset:0;stroke-opacity:1;paint-order:markers fill stroke" />
      <circle
         style="display:inline;opacity:1;fill:none;fill-opacity:1;stroke:#ffe4b3;stroke-width:0.05172414;stroke-linecap:square;stroke-linejoin:round;stroke-miterlimit:4;stroke-dasharray:none;stroke-dashoffset:0;stroke-opacity:1;paint-order:markers fill stroke"
         id="circle4001"
         cx="7.9360795"
         cy="57.67947"
         r="5.4741378" />
      <circle
         style="display:inline;opacity:1;fill:none;fill-opacity:1;stroke:#ffe4b3;stroke-width:0.05172414;stroke-linecap:square;stroke-linejoin:round;stroke-miterlimit:4;stroke-dasharray:none;stroke-dashoffset:0;stroke-opacity:1;paint-order:markers fill stroke"
         id="circle4003"
         cx="7.9360795"
         cy="72.231689"
         r="5.4741378" />
      <circle
         r="5.4741378"
         cy="86.783661"
         cx="7.9360795"
         id="circle4005"
         style="display:inline;opacity:1;fill:none;fill-opacity:1;stroke:#ffe4b3;stroke-width:0.05172414;stroke-linecap:square;stroke-linejoin:round;stroke-miterlimit:4;stroke-dasharray:none;stroke-dashoffset:0;stroke-opacity:1;paint-order:markers fill stroke" />
      <circle
         r="4.0999999"
         cy="14.022678"
         cx="7.9523039"
         id="circle4007"
         style="display:inline;opacity:1;fill:none;fill-opacity:1;stroke:#ffe4b3;stroke-width:0.05;stroke-linecap:square;stroke-linejoin:round;stroke-miterlimit:4;stroke-dasharray:none;stroke-dashoffset:0;stroke-opacity:1;paint-order:markers fill stroke" />
    </g>
  </g>
</svg>
