<?xml version="1.0" encoding="UTF-8" standalone="no"?>
<!-- Created with Inkscape (http://www.inkscape.org/) -->

<svg
   xmlns:dc="http://purl.org/dc/elements/1.1/"
   xmlns:cc="http://creativecommons.org/ns#"
   xmlns:rdf="http://www.w3.org/1999/02/22-rdf-syntax-ns#"
   xmlns:svg="http://www.w3.org/2000/svg"
   xmlns="http://www.w3.org/2000/svg"
   xmlns:sodipodi="http://sodipodi.sourceforge.net/DTD/sodipodi-0.dtd"
   xmlns:inkscape="http://www.inkscape.org/namespaces/inkscape"
   width="120"
   height="380"
   viewBox="0 0 31.750002 100.54167"
   version="1.1"
   id="svg8"
   inkscape:version="0.92.4 (5da689c313, 2019-01-14)"
   sodipodi:docname="DAC.svg">
  <defs
     id="defs2" />
  <sodipodi:namedview
     id="base"
     pagecolor="#ffffff"
     bordercolor="#666666"
     borderopacity="1.0"
     inkscape:pageopacity="0.0"
     inkscape:pageshadow="2"
     inkscape:zoom="6.4458365"
     inkscape:cx="86.298846"
     inkscape:cy="130.07327"
     inkscape:document-units="mm"
     inkscape:current-layer="layer1"
     showgrid="true"
     units="px"
     inkscape:snap-bbox="true"
     inkscape:snap-page="true"
     inkscape:bbox-nodes="true"
     inkscape:snap-bbox-edge-midpoints="true"
     inkscape:window-width="1920"
     inkscape:window-height="1017"
     inkscape:window-x="-8"
     inkscape:window-y="-8"
     inkscape:window-maximized="1">
    <inkscape:grid
       type="xygrid"
       id="grid116" />
  </sodipodi:namedview>
  <metadata
     id="metadata5">
    <rdf:RDF>
      <cc:Work
         rdf:about="">
        <dc:format>image/svg+xml</dc:format>
        <dc:type
           rdf:resource="http://purl.org/dc/dcmitype/StillImage" />
        <dc:title />
      </cc:Work>
    </rdf:RDF>
  </metadata>
  <g
     inkscape:groupmode="layer"
     id="layer3"
     inkscape:label="Panel"
     sodipodi:insensitive="true">
    <path
       sodipodi:type="inkscape:offset"
       inkscape:radius="0"
       inkscape:original="M 0 196.45898 L 0 297 L 15.875 297 L 15.875 196.45898 L 0 196.45898 z "
       style="fill:#894c26;fill-opacity:1;stroke-width:0.3310422"
       id="rect3855"
       d="M 0,196.45898 V 297 H 15.875 V 196.45898 Z"
       transform="matrix(2,0,0,1.0000064,0,-196.46023)" />
  </g>
  <g
     inkscape:label="Layer 1"
     inkscape:groupmode="layer"
     id="layer1"
     transform="translate(0,-196.45832)"
     style="display:inline">
    <text
       xml:space="preserve"
       style="font-style:normal;font-weight:normal;font-size:2.82222223px;line-height:1.25;font-family:sans-serif;letter-spacing:0px;word-spacing:0px;fill:#000000;fill-opacity:1;stroke:none;stroke-width:0.26458332"
       x="17.197916"
       y="201.74998"
       id="text3821"><tspan
         sodipodi:role="line"
         id="tspan3819"
         x="17.197916"
         y="204.24699"
         style="stroke-width:0.26458332" /></text>
    <g
       id="g4342">
      <g
         transform="translate(-9.481569,1.7166648)"
         id="text956"
         style="font-style:normal;font-variant:normal;font-weight:normal;font-stretch:normal;font-size:2.82222223px;line-height:1.25;font-family:'Copperplate Gothic Light';-inkscape-font-specification:'Copperplate Gothic Light, ';letter-spacing:0px;word-spacing:0px;fill:#ffe4b3;fill-opacity:1;stroke:#ffe4b3;stroke-width:0.2;stroke-miterlimit:4;stroke-dasharray:none;stroke-opacity:1"
         aria-label="/^M^\">
        <path
           inkscape:connector-curvature="0"
           id="path958"
           style="font-style:normal;font-variant:normal;font-weight:normal;font-stretch:normal;font-size:2.82222223px;line-height:1.25;font-family:'Copperplate Gothic Light';-inkscape-font-specification:'Copperplate Gothic Light, ';fill:#ffe4b3;stroke:#ffe4b3;stroke-width:0.2;stroke-miterlimit:4;stroke-dasharray:none;stroke-opacity:1"
           d="m 21.203855,291.40545 v 0.0386 h -0.434082 v -0.0386 q 0.09509,-0.006 0.224621,-0.17088 l 1.094162,-1.4621 q 0.07441,-0.1006 0.07441,-0.12402 0,-0.0372 -0.06615,-0.0482 v -0.0372 h 0.423058 v 0.0372 q -0.09508,0.006 -0.22462,0.17087 l -1.08176,1.46348 q -0.07579,0.10197 -0.07579,0.12402 0,0.0358 0.06615,0.0469 z" />
        <path
           inkscape:connector-curvature="0"
           id="path960"
           style="font-style:normal;font-variant:normal;font-weight:normal;font-stretch:normal;font-size:2.82222223px;line-height:1.25;font-family:'Copperplate Gothic Light';-inkscape-font-specification:'Copperplate Gothic Light, ';fill:#ffe4b3;stroke:#ffe4b3;stroke-width:0.2;stroke-miterlimit:4;stroke-dasharray:none;stroke-opacity:1"
           d="M 22.940183,290.3857 H 22.73899 l 0.493338,-0.8282 h 0.243912 l 0.493338,0.8282 h -0.20395 l -0.413411,-0.68075 z" />
        <path
           inkscape:connector-curvature="0"
           id="path962"
           style="font-style:normal;font-variant:normal;font-weight:normal;font-stretch:normal;font-size:2.82222223px;line-height:1.25;font-family:'Copperplate Gothic Light';-inkscape-font-specification:'Copperplate Gothic Light, ';fill:#ffe4b3;stroke:#ffe4b3;stroke-width:0.2;stroke-miterlimit:4;stroke-dasharray:none;stroke-opacity:1"
           d="m 25.342104,291.44403 -0.789616,-1.58061 v 1.418 q 0,0.0565 0.01791,0.0813 0.01791,0.0234 0.07028,0.0372 v 0.0441 h -0.373449 v -0.0441 q 0.05237,-0.0138 0.07028,-0.0372 0.01792,-0.0234 0.01792,-0.0813 v -1.5558 q 0,-0.0579 -0.01792,-0.0813 -0.01791,-0.0248 -0.07028,-0.0372 v -0.0441 h 0.487826 v 0.0441 q -0.06752,0.0234 -0.06752,0.0579 0,0.0165 0.04547,0.10611 l 0.62563,1.24161 0.628385,-1.25263 q 0.03307,-0.0661 0.03307,-0.0937 0,-0.0358 -0.06752,-0.0593 v -0.0441 h 0.49196 v 0.0441 q -0.05237,0.0138 -0.07028,0.0372 -0.01792,0.0234 -0.01792,0.0813 v 1.5558 q 0,0.0565 0.01792,0.0813 0.01791,0.0234 0.07028,0.0372 v 0.0441 h -0.392741 v -0.0441 q 0.05374,-0.0138 0.07028,-0.0372 0.01791,-0.0234 0.01791,-0.0813 v -1.418 z" />
        <path
           inkscape:connector-curvature="0"
           id="path964"
           style="font-style:normal;font-variant:normal;font-weight:normal;font-stretch:normal;font-size:2.82222223px;line-height:1.25;font-family:'Copperplate Gothic Light';-inkscape-font-specification:'Copperplate Gothic Light, ';fill:#ffe4b3;stroke:#ffe4b3;stroke-width:0.2;stroke-miterlimit:4;stroke-dasharray:none;stroke-opacity:1"
           d="m 26.942006,290.3857 h -0.201193 l 0.493338,-0.8282 h 0.243912 l 0.493338,0.8282 h -0.20395 l -0.413411,-0.68075 z" />
        <path
           inkscape:connector-curvature="0"
           id="path966"
           style="font-style:normal;font-variant:normal;font-weight:normal;font-stretch:normal;font-size:2.82222223px;line-height:1.25;font-family:'Copperplate Gothic Light';-inkscape-font-specification:'Copperplate Gothic Light, ';fill:#ffe4b3;stroke:#ffe4b3;stroke-width:0.2;stroke-miterlimit:4;stroke-dasharray:none;stroke-opacity:1"
           d="m 28.617701,289.56301 v 0.0372 q -0.06615,0.011 -0.06615,0.0482 0,0.0234 0.07441,0.12402 l 1.092784,1.4621 q 0.129536,0.16536 0.22462,0.17088 v 0.0386 h -0.434082 v -0.0386 q 0.06615,-0.011 0.06615,-0.0469 0,-0.0207 -0.07579,-0.12402 l -1.080382,-1.46348 q -0.129535,-0.16536 -0.22462,-0.17087 v -0.0372 z" />
      </g>
      <g
         id="text924"
         style="font-style:normal;font-variant:normal;font-weight:normal;font-stretch:normal;font-size:2.97226882px;line-height:1.25;font-family:'Yu Gothic UI';-inkscape-font-specification:'Yu Gothic UI';letter-spacing:0px;word-spacing:0px;fill:#ffe4b3;fill-opacity:1;stroke:none;stroke-width:0.24768905"
         aria-label="LUNETTA">
        <path
           id="path892"
           style="font-size:2.97226882px;fill:#ffe4b3;stroke-width:0.24768905"
           d="M 11.061028,295.90683 H 9.9812581 v -2.08117 h 0.2438189 v 1.86057 h 0.835951 z"
           inkscape:connector-curvature="0" />
        <path
           id="path894"
           style="font-size:2.97226882px;fill:#ffe4b3;stroke-width:0.24768905"
           d="m 12.902731,295.06507 q 0,0.87659 -0.79096,0.87659 -0.75758,0 -0.75758,-0.84321 v -1.27279 h 0.243819 v 1.25683 q 0,0.64002 0.539885,0.64002 0.521017,0 0.521017,-0.61825 v -1.2786 h 0.243819 z"
           inkscape:connector-curvature="0" />
        <path
           id="path896"
           style="font-size:2.97226882px;fill:#ffe4b3;stroke-width:0.24768905"
           d="m 15.101456,295.90683 h -0.298969 l -1.071062,-1.65884 q -0.04064,-0.0624 -0.06676,-0.13062 h -0.0087 q 0.01161,0.0668 0.01161,0.28591 v 1.50355 h -0.243819 v -2.08117 h 0.316384 l 1.042036,1.63272 q 0.06531,0.10159 0.08418,0.13932 h 0.0058 q -0.01451,-0.09 -0.01451,-0.30622 v -1.46582 h 0.243819 z"
           inkscape:connector-curvature="0" />
        <path
           id="path898"
           style="font-size:2.97226882px;fill:#ffe4b3;stroke-width:0.24768905"
           d="m 16.750136,295.90683 h -1.102991 v -2.08117 h 1.056549 v 0.2206 h -0.81273 v 0.69227 h 0.751775 v 0.21915 h -0.751775 v 0.72855 h 0.859172 z"
           inkscape:connector-curvature="0" />
        <path
           id="path900"
           style="font-size:2.97226882px;fill:#ffe4b3;stroke-width:0.24768905"
           d="m 18.381401,294.04626 h -0.60084 v 1.86057 h -0.243819 v -1.86057 h -0.599388 v -0.2206 h 1.444047 z"
           inkscape:connector-curvature="0" />
        <path
           id="path902"
           style="font-size:2.97226882px;fill:#ffe4b3;stroke-width:0.24768905"
           d="m 19.937197,294.04626 h -0.600839 v 1.86057 h -0.243819 v -1.86057 h -0.599388 v -0.2206 h 1.444046 z"
           inkscape:connector-curvature="0" />
        <path
           id="path904"
           style="font-size:2.97226882px;fill:#ffe4b3;stroke-width:0.24768905"
           d="M 21.768742,295.90683 H 21.4988 l -0.220598,-0.58342 h -0.882393 l -0.207536,0.58342 h -0.271394 l 0.798217,-2.08117 h 0.252527 z m -0.570362,-0.80257 -0.326543,-0.88675 q -0.01596,-0.0435 -0.03193,-0.13932 h -0.0058 q -0.01451,0.0885 -0.03338,0.13932 l -0.323641,0.88675 z"
           inkscape:connector-curvature="0" />
      </g>
    </g>
    <g
       aria-label="BITS"
       style="font-style:normal;font-variant:normal;font-weight:600;font-stretch:normal;font-size:2.82222223px;line-height:1.25;font-family:'Yu Gothic UI';-inkscape-font-specification:'Yu Gothic UI Semi-Bold';letter-spacing:0px;word-spacing:0px;fill:#ffe4b3;fill-opacity:1;stroke:none;stroke-width:0.26458332"
       id="text6635"
       transform="translate(15.875004,-53.188587)">
      <path
         d="m 5.3219829,268.93604 v -1.97611 h 0.6270074 q 0.286632,0 0.4533746,0.1254 0.1681206,0.1254 0.1681206,0.32659 0,0.16813 -0.095085,0.29215 -0.095085,0.12402 -0.2632053,0.17639 v 0.006 q 0.2039497,0.0234 0.325217,0.15158 0.1226454,0.12678 0.1226454,0.33073 0,0.25356 -0.1998155,0.41066 -0.1998156,0.1571 -0.504362,0.1571 z m 0.3265951,-1.71291 v 0.56224 h 0.2122179 q 0.1708767,0 0.2673394,-0.0799 0.097841,-0.0813 0.097841,-0.22876 0,-0.25356 -0.3389974,-0.25356 z m 0,0.82545 v 0.62563 h 0.2797417 q 0.1832791,0 0.2824979,-0.0841 0.1005968,-0.0854 0.1005968,-0.23427 0,-0.3073 -0.4258139,-0.3073 z"
         style="font-style:normal;font-variant:normal;font-weight:600;font-stretch:normal;font-size:2.82222223px;font-family:'Yu Gothic UI';-inkscape-font-specification:'Yu Gothic UI Semi-Bold';fill:#ffe4b3;stroke-width:0.26458332"
         id="path6727"
         inkscape:connector-curvature="0" />
      <path
         d="M 7.3614794,268.93604 H 7.0238601 v -1.97611 h 0.3376193 z"
         style="font-style:normal;font-variant:normal;font-weight:600;font-stretch:normal;font-size:2.82222223px;font-family:'Yu Gothic UI';-inkscape-font-specification:'Yu Gothic UI Semi-Bold';fill:#ffe4b3;stroke-width:0.26458332"
         id="path6729"
         inkscape:connector-curvature="0" />
      <path
         d="M 9.114344,267.23829 H 8.5465923 v 1.69775 H 8.2186192 v -1.69775 H 7.6522455 v -0.27836 H 9.114344 Z"
         style="font-style:normal;font-variant:normal;font-weight:600;font-stretch:normal;font-size:2.82222223px;font-family:'Yu Gothic UI';-inkscape-font-specification:'Yu Gothic UI Semi-Bold';fill:#ffe4b3;stroke-width:0.26458332"
         id="path6731"
         inkscape:connector-curvature="0" />
      <path
         d="m 9.2879768,268.85749 v -0.33762 q 0.045475,0.0413 0.107487,0.0744 0.06339,0.0331 0.1336697,0.0565 0.07028,0.022 0.1405599,0.0344 0.07028,0.0124 0.1295355,0.0124 0.2067061,0 0.3073021,-0.0689 0.101975,-0.0689 0.101975,-0.19981 0,-0.0703 -0.03445,-0.12127 -0.03307,-0.0524 -0.09371,-0.0951 -0.06063,-0.0427 -0.1433162,-0.0813 -0.081304,-0.04 -0.1750109,-0.0827 -0.1005968,-0.0537 -0.1874132,-0.10887 -0.086816,-0.0551 -0.1515842,-0.12126 -0.06339,-0.0675 -0.1005968,-0.15159 -0.035829,-0.0841 -0.035829,-0.19706 0,-0.13918 0.062012,-0.24115 0.06339,-0.10336 0.1653645,-0.1695 0.1033529,-0.0675 0.2342665,-0.0992 0.1309137,-0.0331 0.2673393,-0.0331 0.310059,0 0.451996,0.0703 v 0.32383 q -0.16812,-0.12126 -0.432704,-0.12126 -0.073035,0 -0.1460714,0.0138 -0.071658,0.0138 -0.1295356,0.0455 -0.056499,0.0317 -0.092328,0.0813 -0.035829,0.0496 -0.035829,0.11989 0,0.0661 0.027561,0.11437 0.027561,0.0482 0.079926,0.0882 0.053743,0.04 0.1295356,0.0786 0.07717,0.0372 0.1777674,0.0813 0.103353,0.0537 0.194303,0.113 0.09233,0.0593 0.161231,0.13091 0.07028,0.0717 0.110243,0.15986 0.04134,0.0868 0.04134,0.19843 0,0.15021 -0.06063,0.25356 -0.06063,0.10335 -0.163986,0.16812 -0.101975,0.0648 -0.235645,0.0937 -0.1336699,0.0289 -0.282498,0.0289 -0.049609,0 -0.1226454,-0.008 -0.071658,-0.007 -0.1474501,-0.0221 -0.075792,-0.0138 -0.143316,-0.0344 -0.067524,-0.0207 -0.108865,-0.0469 z"
         style="font-style:normal;font-variant:normal;font-weight:600;font-stretch:normal;font-size:2.82222223px;font-family:'Yu Gothic UI';-inkscape-font-specification:'Yu Gothic UI Semi-Bold';fill:#ffe4b3;stroke-width:0.26458332"
         id="path6733"
         inkscape:connector-curvature="0" />
    </g>
    <g
       aria-label="1"
       style="font-style:normal;font-variant:normal;font-weight:normal;font-stretch:normal;font-size:2.82222223px;line-height:1.25;font-family:'Yu Gothic UI';-inkscape-font-specification:'Yu Gothic UI';letter-spacing:0px;word-spacing:0px;fill:#ffe4b3;fill-opacity:1;stroke:none;stroke-width:0.26458332"
       id="text6673"
       transform="translate(-16.594776,-4.0254695)">
      <path
         d="m 20.84145,209.68748 h -0.225999 v -1.70738 q -0.02618,0.0262 -0.07717,0.0606 -0.04961,0.0331 -0.112999,0.0661 -0.06201,0.0331 -0.132292,0.062 -0.0689,0.0289 -0.135047,0.0455 v -0.22875 q 0.07441,-0.0207 0.157096,-0.0551 0.08406,-0.0358 0.163987,-0.0785 0.0813,-0.0441 0.152962,-0.091 0.07166,-0.0482 0.124023,-0.0937 h 0.08544 z"
         style="fill:#ffe4b3;stroke-width:0.26458332"
         id="path6724"
         inkscape:connector-curvature="0" />
    </g>
    <g
       aria-label="2"
       style="font-style:normal;font-variant:normal;font-weight:normal;font-stretch:normal;font-size:2.82222223px;line-height:1.25;font-family:'Yu Gothic UI';-inkscape-font-specification:'Yu Gothic UI';letter-spacing:0px;word-spacing:0px;fill:#ffe4b3;fill-opacity:1;stroke:none;stroke-width:0.26458332"
       id="text6677"
       transform="translate(-18.021745,-0.85046893)">
      <path
         d="m 22.230512,216.16702 q 0,-0.091 -0.02894,-0.15847 -0.02756,-0.0675 -0.07717,-0.11163 -0.04823,-0.0455 -0.114378,-0.0675 -0.06614,-0.022 -0.143316,-0.022 -0.06614,0 -0.129535,0.0179 -0.06339,0.0179 -0.124024,0.0496 -0.05926,0.0317 -0.115755,0.0758 -0.05512,0.0441 -0.103353,0.0978 v -0.24254 q 0.09509,-0.0923 0.212218,-0.14056 0.118512,-0.0496 0.28801,-0.0496 0.121268,0 0.22462,0.0358 0.103353,0.0344 0.179145,0.10198 0.07579,0.0675 0.118512,0.16674 0.0441,0.0992 0.0441,0.22738 0,0.11713 -0.02756,0.21222 -0.02618,0.0951 -0.0813,0.17914 -0.05374,0.0841 -0.136426,0.16123 -0.08268,0.0772 -0.194303,0.1571 -0.139182,0.0992 -0.230133,0.1695 -0.08957,0.0703 -0.143316,0.13229 -0.05237,0.0606 -0.07441,0.12264 -0.02067,0.0606 -0.02067,0.14056 h 0.983919 v 0.20257 h -1.219564 v -0.0978 q 0,-0.12678 0.02756,-0.22324 0.02756,-0.0965 0.09095,-0.18328 0.06339,-0.0868 0.165365,-0.17363 0.103353,-0.0868 0.252181,-0.19568 0.107487,-0.0772 0.179145,-0.14745 0.07304,-0.0703 0.117133,-0.14056 0.0441,-0.0703 0.06201,-0.14194 0.01929,-0.073 0.01929,-0.15434 z"
         style="fill:#ffe4b3;stroke-width:0.26458332"
         id="path6721"
         inkscape:connector-curvature="0" />
    </g>
    <g
       aria-label="3"
       style="font-style:normal;font-variant:normal;font-weight:normal;font-stretch:normal;font-size:2.82222223px;line-height:1.25;font-family:'Yu Gothic UI';-inkscape-font-specification:'Yu Gothic UI';letter-spacing:0px;word-spacing:0px;fill:#ffe4b3;fill-opacity:1;stroke:none;stroke-width:0.26458332"
       id="text6681"
       transform="translate(-18.003129,-4.3157171)">
      <path
         d="m 22.479936,231.61758 q 0,0.13367 -0.05099,0.24391 -0.04961,0.10887 -0.141938,0.18742 -0.09095,0.0772 -0.219108,0.11988 -0.128158,0.0427 -0.282498,0.0427 -0.282498,0 -0.44924,-0.10748 v -0.24254 q 0.199815,0.1571 0.457508,0.1571 0.103353,0 0.186036,-0.0262 0.08406,-0.0262 0.143316,-0.0758 0.06063,-0.0496 0.09233,-0.11989 0.03307,-0.0703 0.03307,-0.15847 0,-0.38723 -0.551215,-0.38723 H 21.53322 v -0.19155 h 0.155719 q 0.487825,0 0.487825,-0.3638 0,-0.33624 -0.37207,-0.33624 -0.209462,0 -0.392741,0.14056 v -0.21911 q 0.188791,-0.113 0.44924,-0.113 0.124024,0 0.224621,0.0344 0.100596,0.0345 0.172254,0.0965 0.07166,0.062 0.110243,0.14883 0.03996,0.0868 0.03996,0.19154 0,0.38999 -0.394118,0.50161 v 0.006 q 0.100596,0.011 0.186035,0.0496 0.08544,0.0372 0.14745,0.0978 0.06201,0.0606 0.09646,0.14332 0.03583,0.0813 0.03583,0.18052 z"
         style="fill:#ffe4b3;stroke-width:0.26458332"
         id="path6718"
         inkscape:connector-curvature="0" />
    </g>
    <g
       aria-label="4"
       style="font-style:normal;font-variant:normal;font-weight:normal;font-stretch:normal;font-size:2.82222223px;line-height:1.25;font-family:'Yu Gothic UI';-inkscape-font-specification:'Yu Gothic UI';letter-spacing:0px;word-spacing:0px;fill:#ffe4b3;fill-opacity:1;stroke:none;stroke-width:0.26458332"
       id="text6685"
       transform="translate(-17.921833,-5.1055711)">
      <path
         d="m 22.337999,242.10721 v 1.305 h 0.253559 v 0.2067 h -0.253559 v 0.4644 h -0.223243 v -0.4644 h -0.928797 v -0.19568 q 0.129535,-0.14607 0.261827,-0.31143 0.132291,-0.16675 0.252181,-0.33762 0.121267,-0.17088 0.223242,-0.34038 0.103353,-0.17088 0.173633,-0.32659 z m -0.897103,1.305 h 0.67386 v -0.96738 q -0.103353,0.18052 -0.195681,0.32246 -0.09233,0.14193 -0.176389,0.25769 -0.08268,0.11575 -0.158474,0.20946 -0.07579,0.0937 -0.143316,0.17777 z"
         style="fill:#ffe4b3;stroke-width:0.26458332"
         id="path6715"
         inkscape:connector-curvature="0" />
    </g>
    <g
       aria-label="5"
       style="font-style:normal;font-variant:normal;font-weight:normal;font-stretch:normal;font-size:2.82222223px;line-height:1.25;font-family:'Yu Gothic UI';-inkscape-font-specification:'Yu Gothic UI';letter-spacing:0px;word-spacing:0px;fill:#ffe4b3;fill-opacity:1;stroke:none;stroke-width:0.26458332"
       id="text6689"
       transform="translate(-18.042404,-0.61880643)">
      <path
         d="m 22.501985,250.09433 q 0,0.14469 -0.04961,0.26182 -0.04961,0.11714 -0.141938,0.2012 -0.09095,0.0841 -0.220486,0.12953 -0.129536,0.0455 -0.28801,0.0455 -0.275608,0 -0.409278,-0.0827 v -0.23978 q 0.201194,0.12953 0.412034,0.12953 0.107487,0 0.192925,-0.0317 0.08682,-0.0317 0.14745,-0.0882 0.06063,-0.0565 0.09233,-0.13642 0.03307,-0.0799 0.03307,-0.17501 0,-0.19293 -0.129536,-0.30179 -0.129536,-0.11025 -0.376204,-0.11025 -0.03996,0 -0.08406,0.001 -0.0441,0.001 -0.08819,0.004 -0.0441,10e-4 -0.08682,0.004 -0.04134,0.003 -0.07579,0.007 l 0.06752,-0.99081 h 0.91364 v 0.20395 h -0.717958 l -0.03996,0.58015 q 0.0441,-0.003 0.09371,-0.004 0.04961,-0.003 0.08819,-0.003 0.157096,0 0.281119,0.0413 0.124024,0.0414 0.209462,0.11852 0.08682,0.0758 0.130914,0.18741 0.04547,0.11024 0.04547,0.24805 z"
         style="fill:#ffe4b3;stroke-width:0.26458332"
         id="path6712"
         inkscape:connector-curvature="0" />
    </g>
    <g
       aria-label="6"
       style="font-style:normal;font-variant:normal;font-weight:normal;font-stretch:normal;font-size:2.82222223px;line-height:1.25;font-family:'Yu Gothic UI';-inkscape-font-specification:'Yu Gothic UI';letter-spacing:0px;word-spacing:0px;fill:#ffe4b3;fill-opacity:1;stroke:none;stroke-width:0.26458332"
       id="text6693"
       transform="translate(-19.365324,-0.07512741)">
      <path
         d="m 23.897939,260.65424 q 0,0.1447 -0.04685,0.26596 -0.04685,0.12127 -0.129536,0.20947 -0.08268,0.0882 -0.197059,0.1378 -0.114378,0.0482 -0.248047,0.0482 -0.148828,0 -0.26734,-0.062 -0.117133,-0.062 -0.199815,-0.17777 -0.0813,-0.11713 -0.124024,-0.28525 -0.04272,-0.16812 -0.04272,-0.37896 0,-0.2577 0.0565,-0.46716 0.05788,-0.21084 0.162608,-0.35967 0.106109,-0.1502 0.254937,-0.23151 0.148828,-0.0813 0.332108,-0.0813 0.203949,0 0.327973,0.0565 v 0.2136 q -0.152963,-0.0786 -0.322461,-0.0786 -0.132292,0 -0.238401,0.0593 -0.106109,0.0593 -0.181901,0.16812 -0.07579,0.10749 -0.117133,0.26045 -0.03996,0.15297 -0.03996,0.34038 h 0.0055 q 0.136426,-0.24667 0.450618,-0.24667 0.129536,0 0.232889,0.0441 0.104731,0.0441 0.177767,0.1254 0.07441,0.0799 0.114377,0.19155 0.03996,0.11162 0.03996,0.24804 z m -0.23151,0.0289 q 0,-0.10335 -0.02618,-0.18603 -0.02618,-0.0827 -0.07579,-0.14056 -0.04823,-0.0579 -0.11989,-0.0882 -0.07166,-0.0317 -0.162608,-0.0317 -0.08406,0 -0.155718,0.0317 -0.07166,0.0317 -0.124024,0.0868 -0.05236,0.0537 -0.08268,0.12678 -0.02894,0.0717 -0.02894,0.15296 0,0.10197 0.02894,0.19155 0.02894,0.0882 0.0813,0.15434 0.05237,0.0661 0.124024,0.10473 0.07304,0.0372 0.16123,0.0372 0.08544,0 0.155718,-0.0317 0.07028,-0.0331 0.11989,-0.0909 0.04961,-0.0579 0.07717,-0.1378 0.02756,-0.0813 0.02756,-0.17915 z"
         style="fill:#ffe4b3;stroke-width:0.26458332"
         id="path6709"
         inkscape:connector-curvature="0" />
    </g>
    <g
       aria-label="7"
       style="font-style:normal;font-variant:normal;font-weight:normal;font-stretch:normal;font-size:2.82222223px;line-height:1.25;font-family:'Yu Gothic UI';-inkscape-font-specification:'Yu Gothic UI';letter-spacing:0px;word-spacing:0px;fill:#ffe4b3;fill-opacity:1;stroke:none;stroke-width:0.26458332"
       id="text6697"
       transform="translate(-18.02518,3.099873)">
      <path
         d="m 22.558485,267.37356 q -0.04548,0.0786 -0.110243,0.19568 -0.06339,0.11713 -0.135048,0.2632 -0.07166,0.14608 -0.146072,0.3142 -0.07441,0.16812 -0.139182,0.34726 -0.06477,0.17915 -0.114377,0.3638 -0.04823,0.18328 -0.07028,0.36105 h -0.242535 q 0.02481,-0.17639 0.07579,-0.35967 0.05237,-0.18466 0.117133,-0.36104 0.06615,-0.17777 0.139182,-0.34176 0.07304,-0.16398 0.141938,-0.30179 0.0689,-0.1378 0.125402,-0.24253 0.05788,-0.10611 0.09233,-0.16537 h -0.990809 v -0.20395 h 1.256771 z"
         style="fill:#ffe4b3;stroke-width:0.26458332"
         id="path6706"
         inkscape:connector-curvature="0" />
    </g>
    <g
       aria-label="8"
       style="font-style:normal;font-variant:normal;font-weight:normal;font-stretch:normal;font-size:2.82222223px;line-height:1.25;font-family:'Yu Gothic UI';-inkscape-font-specification:'Yu Gothic UI';letter-spacing:0px;word-spacing:0px;fill:#ffe4b3;fill-opacity:1;stroke:none;stroke-width:0.26458332"
       id="text6701"
       transform="translate(-18.026564,6.2748729)">
      <path
         d="m 21.290689,276.60503 q 0,-0.0785 0.02481,-0.15709 0.02481,-0.0799 0.07028,-0.14883 0.04685,-0.0689 0.114377,-0.1254 0.0689,-0.0565 0.155719,-0.0896 -0.128158,-0.0717 -0.20395,-0.18328 -0.07579,-0.113 -0.07579,-0.24943 0,-0.10886 0.04134,-0.20119 0.04272,-0.0923 0.117133,-0.15985 0.07441,-0.0675 0.176389,-0.10473 0.101975,-0.0386 0.220486,-0.0386 0.11989,0 0.221864,0.0386 0.101975,0.0386 0.176389,0.1061 0.07441,0.0675 0.115755,0.15986 0.04134,0.0923 0.04134,0.19981 0,0.13643 -0.07579,0.24943 -0.07579,0.11162 -0.201194,0.18328 0.08544,0.0331 0.152962,0.0896 0.06752,0.0565 0.112999,0.1254 0.04685,0.0689 0.07166,0.14883 0.02481,0.0786 0.02481,0.15709 0,0.12954 -0.04685,0.23703 -0.04685,0.10748 -0.132292,0.18465 -0.08406,0.0758 -0.202572,0.11852 -0.117133,0.0427 -0.259071,0.0427 -0.14056,0 -0.257693,-0.0427 -0.117133,-0.0427 -0.202572,-0.11852 -0.08544,-0.0772 -0.133669,-0.18465 -0.04685,-0.10749 -0.04685,-0.23703 z m 0.245291,-0.0193 q 0,0.0923 0.02756,0.16674 0.02894,0.0744 0.07993,0.12678 0.05237,0.0524 0.125402,0.0813 0.07441,0.0276 0.163986,0.0276 0.08682,0 0.159853,-0.0289 0.07304,-0.0289 0.125401,-0.0813 0.05374,-0.0524 0.08268,-0.12678 0.03032,-0.0744 0.03032,-0.16537 0,-0.0827 -0.02894,-0.15434 -0.02756,-0.073 -0.07993,-0.12816 -0.05236,-0.0551 -0.125401,-0.0868 -0.07304,-0.0317 -0.163987,-0.0317 -0.08544,0 -0.158474,0.0303 -0.07166,0.0289 -0.125402,0.0827 -0.05237,0.0524 -0.08268,0.12678 -0.03032,0.073 -0.03032,0.16123 z m 0.07028,-0.91639 q 0,0.0703 0.02481,0.13091 0.02618,0.0593 0.07028,0.10473 0.04547,0.0441 0.104731,0.0703 0.05926,0.0248 0.126779,0.0248 0.06752,0 0.12678,-0.0262 0.06063,-0.0262 0.104731,-0.0703 0.0441,-0.0455 0.07028,-0.10473 0.02618,-0.0606 0.02618,-0.12953 0,-0.0717 -0.02618,-0.13229 -0.02481,-0.0606 -0.0689,-0.10474 -0.0441,-0.0441 -0.104731,-0.0689 -0.05926,-0.0262 -0.128158,-0.0262 -0.07304,0 -0.133669,0.0262 -0.05926,0.0262 -0.103353,0.0717 -0.04272,0.0441 -0.06615,0.10473 -0.02343,0.0606 -0.02343,0.12954 z"
         style="fill:#ffe4b3;stroke-width:0.26458332"
         id="path6703"
         inkscape:connector-curvature="0" />
    </g>
    <path
       id="path2151"
       d="m 20.684982,230.34683 c 0,-0.0423 0,-0.0847 -0.02117,-0.127 0,-0.0212 -0.02117,-0.0423 -0.04233,-0.0847 -0.04233,-0.0212 -0.0635,-0.0212 -0.08467,-0.0423 -0.04233,0 -0.08467,-0.0212 -0.126999,-0.0212 -0.02117,0 -0.0635,0.0212 -0.08467,0.0212 -0.04233,0 -0.0635,0.0212 -0.105832,0.0423 -0.02117,0 -0.04233,0.0212 -0.08467,0.0423 -0.02117,0.0212 -0.04233,0.0635 -0.0635,0.0847 v -0.1905 c 0.04233,-0.0423 0.08467,-0.0847 0.148166,-0.10584 0.0635,-0.0212 0.126999,-0.0212 0.211665,-0.0212 0.0635,0 0.126999,0 0.169331,0.0212 0.0635,0.0212 0.105832,0.0423 0.148165,0.0635 0.04233,0.0423 0.0635,0.0847 0.08467,0.127 0.02117,0.0635 0.04233,0.10584 0.04233,0.16934 0,0.0635 -0.02117,0.12699 -0.02117,0.16933 -0.02117,0.0423 -0.04233,0.0847 -0.0635,0.127 -0.04233,0.0423 -0.0635,0.0847 -0.105831,0.127 -0.04233,0.0423 -0.08467,0.0847 -0.148166,0.12699 -0.0635,0.0423 -0.126999,0.0847 -0.169332,0.127 -0.04233,0.0212 -0.08467,0.0635 -0.105832,0.0847 -0.04233,0.0423 -0.04233,0.0635 -0.0635,0.10583 0,0.0212 -0.02117,0.0635 -0.02117,0.10583 h 0.740827 v 0.14817 h -0.910159 v -0.0847 c 0,-0.0635 0,-0.10583 0.02117,-0.16933 0.02117,-0.0423 0.04233,-0.0847 0.0635,-0.127 0.04233,-0.0423 0.08467,-0.0847 0.126999,-0.127 0.0635,-0.0423 0.105833,-0.10583 0.190499,-0.14816 0.0635,-0.0423 0.105833,-0.0847 0.126999,-0.10583 0.04233,-0.0423 0.0635,-0.0847 0.08467,-0.10584 0.04233,-0.0423 0.04233,-0.0847 0.0635,-0.10583 0,-0.0423 0,-0.0847 0,-0.127 z"
       style="display:inline;fill:#ffe4b3;fill-opacity:1;fill-rule:nonzero;stroke:none;stroke-width:0.26458332"
       inkscape:connector-curvature="0" />
    <path
       id="path2153"
       d="m 18.376088,219.26551 v 0.99483 h 0.190498 v 0.14816 h -0.190498 v 0.33867 h -0.169332 v -0.33867 h -0.698495 v -0.14816 c 0.0635,-0.0635 0.126999,-0.14816 0.190499,-0.23284 0.0635,-0.0847 0.126999,-0.16933 0.190498,-0.25398 0.0635,-0.0847 0.126999,-0.16935 0.169332,-0.254 0.0635,-0.0847 0.105833,-0.16933 0.126999,-0.254 z m -0.677328,0.99483 h 0.507996 v -0.74082 c -0.0635,0.10583 -0.105833,0.16933 -0.148166,0.254 -0.04233,0.0635 -0.08467,0.127 -0.126999,0.19049 -0.04233,0.0635 -0.08467,0.10584 -0.126999,0.14817 -0.04233,0.0635 -0.0635,0.10583 -0.105832,0.14816 z"
       style="display:inline;fill:#ffe4b3;fill-opacity:1;fill-rule:nonzero;stroke:none;stroke-width:0.26458332"
       inkscape:connector-curvature="0" />
    <path
       id="path2155"
       d="m 29.924167,220.27096 c 0,0.0847 0,0.14816 -0.02117,0.21166 -0.04233,0.0423 -0.0635,0.10583 -0.105833,0.14817 -0.04233,0.0423 -0.08467,0.0847 -0.148165,0.10583 -0.0635,0.0212 -0.126999,0.0423 -0.190499,0.0423 -0.0635,0 -0.148165,-0.0212 -0.190499,-0.0635 -0.0635,-0.0212 -0.105832,-0.0635 -0.148165,-0.127 -0.04233,-0.0635 -0.08467,-0.127 -0.105833,-0.21166 -0.02117,-0.0847 -0.02117,-0.1905 -0.02117,-0.27517 0,-0.14816 0,-0.25399 0.04233,-0.35983 0.02117,-0.10583 0.0635,-0.19049 0.105833,-0.27516 0.0635,-0.0635 0.126998,-0.127 0.190498,-0.16933 0.08467,-0.0423 0.169332,-0.0635 0.253998,-0.0635 0.105833,0 0.190499,0.0212 0.253998,0.0423 v 0.16933 c -0.08467,-0.0423 -0.169332,-0.0635 -0.253998,-0.0635 -0.0635,0 -0.105832,0.0212 -0.169332,0.0423 -0.04233,0.0212 -0.105832,0.0635 -0.126999,0.127 -0.04233,0.0635 -0.08467,0.12699 -0.105833,0.19049 -0.02117,0.0847 -0.02117,0.16934 -0.02117,0.254 v 0 c 0.0635,-0.127 0.190499,-0.16933 0.338664,-0.16933 0.0635,0 0.126999,0 0.169332,0.0212 0.0635,0.0212 0.105833,0.0635 0.148166,0.10583 0.02117,0.0212 0.0635,0.0847 0.08467,0.127 0.02117,0.0635 0.02117,0.127 0.02117,0.1905 z m -0.169332,0.0212 c 0,-0.0423 0,-0.10583 -0.02117,-0.127 -0.02117,-0.0423 -0.02117,-0.0847 -0.0635,-0.10583 -0.02117,-0.0423 -0.04233,-0.0635 -0.08467,-0.0847 -0.04233,0 -0.0635,-0.0212 -0.126999,-0.0212 -0.04233,0 -0.0635,0.0212 -0.105832,0.0212 -0.04233,0.0212 -0.0635,0.0423 -0.105833,0.0847 -0.02117,0.0212 -0.04233,0.0423 -0.04233,0.0847 -0.02117,0.0423 -0.04233,0.0635 -0.04233,0.10583 0,0.0635 0.02117,0.10583 0.04233,0.14817 0,0.0423 0.02117,0.0847 0.04233,0.12699 0.04233,0.0212 0.0635,0.0423 0.105833,0.0635 0.04233,0.0212 0.0635,0.0423 0.126999,0.0423 0.04233,0 0.0635,-0.0212 0.105832,-0.0212 0.04233,-0.0212 0.0635,-0.0423 0.08467,-0.0847 0.02117,-0.0212 0.04233,-0.0635 0.0635,-0.10583 0.02117,-0.0212 0.02117,-0.0847 0.02117,-0.127 z"
       style="display:inline;fill:#ffe4b3;fill-opacity:1;fill-rule:nonzero;stroke:none;stroke-width:0.26458332"
       inkscape:connector-curvature="0" />
    <path
       id="path2157"
       d="m 26.579863,231.03468 c 0,-0.0423 0.02117,-0.0847 0.02117,-0.127 0.02117,-0.0423 0.04233,-0.0635 0.0635,-0.10583 0.02117,-0.0423 0.04233,-0.0635 0.08467,-0.0847 0.02117,-0.0423 0.0635,-0.0635 0.105832,-0.0847 -0.0635,-0.0212 -0.105832,-0.0635 -0.148164,-0.127 -0.04233,-0.0635 -0.0635,-0.127 -0.0635,-0.1905 0,-0.0635 0.02117,-0.10583 0.04233,-0.14816 0.02117,-0.0423 0.04233,-0.0847 0.08467,-0.127 0.04233,-0.0212 0.08467,-0.0635 0.126999,-0.0635 0.0635,-0.0212 0.105832,-0.0423 0.169332,-0.0423 0.0635,0 0.105832,0.0212 0.169332,0.0423 0.04233,0 0.08467,0.0423 0.126999,0.0635 0.04233,0.0423 0.0635,0.0847 0.08467,0.127 0.02117,0.0423 0.04233,0.10583 0.04233,0.14816 0,0.0635 -0.02117,0.127 -0.0635,0.1905 -0.04233,0.0635 -0.08467,0.10583 -0.148165,0.127 0.04233,0.0212 0.08467,0.0423 0.105832,0.0847 0.04233,0.0212 0.0635,0.0423 0.08467,0.0847 0.02117,0.0423 0.04233,0.0635 0.0635,0.10583 0,0.0423 0.02117,0.0847 0.02117,0.127 0,0.0635 -0.02117,0.127 -0.04233,0.16933 -0.02117,0.0635 -0.0635,0.10584 -0.105832,0.14817 -0.04233,0.0423 -0.08467,0.0635 -0.148166,0.0847 -0.0635,0.0212 -0.126999,0.0212 -0.190498,0.0212 -0.0635,0 -0.126999,0 -0.1905,-0.0212 -0.0635,-0.0212 -0.105832,-0.0423 -0.148165,-0.0847 -0.04233,-0.0423 -0.08467,-0.0847 -0.105833,-0.14817 -0.02117,-0.0423 -0.04233,-0.10583 -0.04233,-0.16933 z m 0.190499,-0.0212 c 0,0.0423 0,0.0847 0.02117,0.127 0.02117,0.0423 0.04233,0.0635 0.0635,0.10583 0.02117,0.0212 0.04233,0.0423 0.08467,0.0423 0.04233,0.0212 0.08467,0.0212 0.126999,0.0212 0.04233,0 0.08467,0 0.126999,-0.0212 0.02117,0 0.0635,-0.0212 0.08467,-0.0635 0.02117,-0.0212 0.04233,-0.0423 0.0635,-0.0847 0.02117,-0.0423 0.02117,-0.0847 0.02117,-0.127 0,-0.0423 0,-0.0847 -0.02117,-0.10584 -0.02117,-0.0423 -0.02117,-0.0847 -0.0635,-0.10583 -0.02117,-0.0212 -0.04233,-0.0423 -0.08467,-0.0635 -0.04233,-0.0212 -0.08467,-0.0212 -0.126999,-0.0212 -0.04233,0 -0.08467,0 -0.126999,0.0212 -0.02117,0.0212 -0.0635,0.0423 -0.08467,0.0635 -0.02117,0.0212 -0.04233,0.0635 -0.0635,0.0847 -0.02117,0.0423 -0.02117,0.0847 -0.02117,0.127 z m 0.04233,-0.67733 c 0,0.0212 0.02117,0.0635 0.02117,0.0847 0.02117,0.0423 0.04233,0.0635 0.0635,0.0847 0.02117,0.0212 0.04233,0.0423 0.08467,0.0635 0.02117,0 0.04233,0 0.08467,0 0.04233,0 0.0635,0 0.105832,-0.0212 0.02117,0 0.04233,-0.0212 0.0635,-0.0423 0.02117,-0.0212 0.04233,-0.0423 0.0635,-0.0847 0,-0.0212 0.02117,-0.0635 0.02117,-0.0847 0,-0.0423 -0.02117,-0.0847 -0.02117,-0.10583 -0.02117,-0.0212 -0.04233,-0.0635 -0.0635,-0.0847 -0.02117,-0.0212 -0.04233,-0.0423 -0.0635,-0.0423 -0.04233,-0.0212 -0.0635,-0.0212 -0.105832,-0.0212 -0.04233,0 -0.0635,0 -0.105833,0.0212 -0.02117,0 -0.04233,0.0212 -0.0635,0.0423 -0.02117,0.0212 -0.04233,0.0635 -0.0635,0.0847 0,0.0423 -0.02117,0.0635 -0.02117,0.10583 z"
       style="display:inline;fill:#ffe4b3;fill-opacity:1;fill-rule:nonzero;stroke:none;stroke-width:0.26458332"
       inkscape:connector-curvature="0" />
    <path
       id="path2161"
       d="m 17.288712,226.22941 c 0,0.0635 0,0.12699 -0.04233,0.16933 -0.02117,0.0635 -0.04233,0.10583 -0.105832,0.14816 -0.04233,0.0423 -0.08467,0.0635 -0.148165,0.0847 -0.0635,0.0212 -0.148165,0.0423 -0.211665,0.0423 -0.148165,0 -0.253998,-0.0423 -0.338664,-0.0847 v -0.1905 c 0.08467,0.0847 0.211665,0.127 0.338664,0.127 0.04233,0 0.105833,-0.0212 0.148166,-0.0212 0.02117,-0.0212 0.0635,-0.0423 0.105832,-0.0635 0.02117,-0.0212 0.04233,-0.0423 0.0635,-0.0847 0.02117,-0.0423 0.02117,-0.0847 0.02117,-0.12699 0,-0.1905 -0.126998,-0.27517 -0.423329,-0.27517 h -0.105833 v -0.14816 h 0.105832 c 0.253998,0 0.359831,-0.10584 0.359831,-0.27517 0,-0.16933 -0.08467,-0.254 -0.275165,-0.254 -0.105832,0 -0.190498,0.0423 -0.296331,0.10584 v -0.16934 c 0.105833,-0.0423 0.211665,-0.0847 0.338664,-0.0847 0.0635,0 0.126999,0.0212 0.169332,0.0212 0.0635,0.0212 0.105831,0.0423 0.126997,0.0847 0.04233,0.0212 0.0635,0.0635 0.08467,0.10583 0.02117,0.0423 0.04233,0.0847 0.04233,0.14817 0,0.1905 -0.105832,0.3175 -0.296329,0.38099 v 0 c 0.04233,0 0.08467,0.0212 0.126998,0.0423 0.04233,0 0.08467,0.0423 0.126998,0.0635 0.02117,0.0212 0.04233,0.0635 0.0635,0.10583 0.02117,0.0423 0.02117,0.0847 0.02117,0.14817 z"
       style="display:inline;fill:#ffe4b3;fill-opacity:1;fill-rule:nonzero;stroke:none;stroke-width:0.26458332"
       inkscape:connector-curvature="0" />
    <path
       id="path2163"
       d="m 24.223761,217.60737 c 0,0.0847 0,0.14816 -0.02117,0.1905 -0.04233,0.0635 -0.0635,0.127 -0.126999,0.16933 -0.04233,0.0423 -0.08467,0.0635 -0.148166,0.0847 -0.0635,0.0212 -0.148165,0.0423 -0.232831,0.0423 -0.126999,0 -0.232832,-0.0212 -0.296331,-0.0635 v -0.1905 c 0.105832,0.0635 0.211665,0.10583 0.317497,0.10583 0.04233,0 0.08467,0 0.126999,-0.0212 0.04233,-0.0212 0.08467,-0.0423 0.126999,-0.0635 0.02117,-0.0423 0.04233,-0.0635 0.0635,-0.10584 0.02117,-0.0423 0.02117,-0.0847 0.02117,-0.12699 0,-0.10584 -0.02117,-0.16934 -0.105832,-0.23284 -0.0635,-0.0635 -0.148166,-0.0847 -0.275165,-0.0847 -0.02117,0 -0.04233,0 -0.0635,0 -0.02117,0 -0.04233,0 -0.0635,0 -0.02117,0 -0.04233,0 -0.0635,0 -0.02117,0 -0.04233,0.0212 -0.0635,0.0212 l 0.0635,-0.74082 h 0.677329 v 0.14816 h -0.529162 l -0.04233,0.42333 c 0.02117,0 0.04233,0 0.08467,0 0.02117,0 0.04233,0 0.0635,0 0.0635,0 0.148165,0.0212 0.211665,0.0423 0.0635,0.0212 0.105832,0.0423 0.148165,0.0847 0.04233,0.0423 0.08467,0.0847 0.105833,0.127 0.02117,0.0635 0.02117,0.127 0.02117,0.1905 z"
       style="display:inline;fill:#ffe4b3;fill-opacity:1;fill-rule:nonzero;stroke:none;stroke-width:0.26458332"
       inkscape:connector-curvature="0" />
    <path
       id="path2165"
       d="m 31.257666,225.26627 c -0.02117,0.0423 -0.0635,0.0847 -0.08467,0.14816 -0.04233,0.0635 -0.0635,0.127 -0.105833,0.1905 -0.04233,0.0847 -0.0635,0.14817 -0.105832,0.23283 -0.04233,0.0847 -0.08467,0.16933 -0.105833,0.27517 -0.04233,0.0847 -0.0635,0.16933 -0.08467,0.254 -0.02117,0.10583 -0.04233,0.19049 -0.0635,0.27516 h -0.169323 c 0,-0.0847 0.02117,-0.16933 0.04233,-0.254 0.04233,-0.10583 0.0635,-0.1905 0.105832,-0.27516 0.02117,-0.0847 0.0635,-0.1905 0.105833,-0.254 0.02117,-0.0847 0.0635,-0.16933 0.105832,-0.23283 0.02117,-0.0635 0.0635,-0.127 0.08467,-0.1905 0.02117,-0.0423 0.04233,-0.0847 0.0635,-0.127 h -0.740828 v -0.14817 h 0.952493 z"
       style="display:inline;fill:#ffe4b3;fill-opacity:1;fill-rule:nonzero;stroke:none;stroke-width:0.26458332"
       inkscape:connector-curvature="0" />
    <path
       id="path6803"
       d="m 23.811018,218.68668 v 5.82083"
       style="display:inline;fill:none;stroke:#ffe4b3;stroke-width:0.19049859px;stroke-linecap:round;stroke-linejoin:miter;stroke-miterlimit:4;stroke-dasharray:none;stroke-opacity:1"
       inkscape:connector-curvature="0"
       sodipodi:nodetypes="cc"
       inkscape:transform-center-x="-0.00025241678"
       inkscape:transform-center-y="-2.9106723" />
    <path
       inkscape:transform-center-y="-1.8707472"
       inkscape:transform-center-x="-2.2298666"
       sodipodi:nodetypes="cc"
       inkscape:connector-curvature="0"
       style="display:inline;fill:none;stroke:#ffe4b3;stroke-width:0.19049859px;stroke-linecap:round;stroke-linejoin:miter;stroke-miterlimit:4;stroke-dasharray:none;stroke-opacity:1"
       d="m 28.270162,220.76345 -4.459037,3.74156"
       id="path6833" />
    <path
       id="path6835"
       d="m 29.543394,225.51605 -5.732423,-1.01078"
       style="display:inline;fill:none;stroke:#ffe4b3;stroke-width:0.19049859px;stroke-linecap:round;stroke-linejoin:miter;stroke-miterlimit:4;stroke-dasharray:none;stroke-opacity:1"
       inkscape:connector-curvature="0"
       sodipodi:nodetypes="cc"
       inkscape:transform-center-x="-2.8664059"
       inkscape:transform-center-y="0.50568295" />
    <path
       inkscape:transform-center-y="2.5208381"
       inkscape:transform-center-x="-1.4551144"
       sodipodi:nodetypes="cc"
       inkscape:connector-curvature="0"
       style="display:inline;fill:none;stroke:#ffe4b3;stroke-width:0.19049859px;stroke-linecap:round;stroke-linejoin:miter;stroke-miterlimit:4;stroke-dasharray:none;stroke-opacity:1"
       d="m 26.721109,229.54631 -2.910436,-5.04099"
       id="path6837" />
    <path
       inkscape:transform-center-y="-1.8711372"
       inkscape:transform-center-x="2.2295421"
       sodipodi:nodetypes="cc"
       inkscape:connector-curvature="0"
       style="display:inline;fill:none;stroke:#ffe4b3;stroke-width:0.19049859px;stroke-linecap:round;stroke-linejoin:miter;stroke-miterlimit:4;stroke-dasharray:none;stroke-opacity:1"
       d="m 19.351714,220.76306 4.459017,3.74156"
       id="path6839" />
    <path
       id="path6841"
       d="m 18.078066,225.51555 5.732404,-1.01078"
       style="display:inline;fill:none;stroke:#ffe4b3;stroke-width:0.19049859px;stroke-linecap:round;stroke-linejoin:miter;stroke-miterlimit:4;stroke-dasharray:none;stroke-opacity:1"
       inkscape:connector-curvature="0"
       sodipodi:nodetypes="cc"
       inkscape:transform-center-x="2.8664963"
       inkscape:transform-center-y="0.50518295" />
    <path
       inkscape:transform-center-y="2.5205881"
       inkscape:transform-center-x="1.4555557"
       sodipodi:nodetypes="cc"
       inkscape:connector-curvature="0"
       style="display:inline;fill:none;stroke:#ffe4b3;stroke-width:0.19049859px;stroke-linecap:round;stroke-linejoin:miter;stroke-miterlimit:4;stroke-dasharray:none;stroke-opacity:1"
       d="m 20.900001,229.54606 2.910416,-5.04099"
       id="path6843" />
    <g
       aria-label="0"
       style="font-style:normal;font-variant:normal;font-weight:normal;font-stretch:normal;font-size:2.11666656px;line-height:1.25;font-family:'Yu Gothic UI';-inkscape-font-specification:'Yu Gothic UI';letter-spacing:0px;word-spacing:0px;fill:#ffe4b3;fill-opacity:1;stroke:none;stroke-width:0.26458332"
       id="text6866"
       transform="translate(15.665174,-3.0860192)">
      <path
         d="m 5.0229492,249.95067 q 0,0.18603 -0.034107,0.32969 -0.033073,0.14366 -0.097152,0.24288 -0.063045,0.0982 -0.1560628,0.14986 -0.091984,0.0506 -0.2098063,0.0506 -0.1116211,0 -0.199471,-0.0486 -0.086816,-0.0496 -0.1467611,-0.14366 -0.059945,-0.0941 -0.09095,-0.23048 -0.031006,-0.13746 -0.031006,-0.31419 0,-0.1943 0.032039,-0.34313 0.033073,-0.14883 0.096118,-0.24908 0.063045,-0.10129 0.1560628,-0.15193 0.094051,-0.0517 0.214974,-0.0517 0.4661214,0 0.4661214,0.75965 z m -0.1736328,0.0165 q 0,-0.63252 -0.3007569,-0.63252 -0.3172932,0 -0.3172932,0.64389 0,0.60048 0.3110921,0.60048 0.306958,0 0.306958,-0.61185 z"
         style="font-size:2.11666656px;fill:#ffe4b3;stroke-width:0.26458332"
         id="path6868"
         inkscape:connector-curvature="0" />
    </g>
    <g
       aria-label="10"
       style="font-style:normal;font-variant:normal;font-weight:normal;font-stretch:normal;font-size:2.11666656px;line-height:1.25;font-family:'Yu Gothic UI';-inkscape-font-specification:'Yu Gothic UI';letter-spacing:0px;word-spacing:0px;fill:#ffe4b3;fill-opacity:1;stroke:none;stroke-width:0.26458332"
       id="text6873"
       transform="translate(15.760883,-3.0819542)">
      <path
         d="m 11.331608,250.69791 h -0.169499 v -1.28055 q -0.01964,0.0196 -0.05788,0.0455 -0.03721,0.0248 -0.08475,0.0496 -0.04651,0.0248 -0.09922,0.0465 -0.05168,0.0217 -0.101285,0.0341 v -0.17156 q 0.05581,-0.0155 0.117822,-0.0413 0.06305,-0.0269 0.12299,-0.0589 0.06098,-0.0331 0.114721,-0.0682 0.05374,-0.0362 0.09302,-0.0703 h 0.06408 z"
         style="font-size:2.11666656px;fill:#ffe4b3;stroke-width:0.26458332"
         id="path6875"
         inkscape:connector-curvature="0" />
      <path
         d="m 12.778548,249.95067 q 0,0.18603 -0.03411,0.32969 -0.03307,0.14366 -0.09715,0.24288 -0.06305,0.0982 -0.156063,0.14986 -0.09198,0.0506 -0.209807,0.0506 -0.111621,0 -0.199471,-0.0486 -0.08682,-0.0496 -0.146761,-0.14366 -0.05994,-0.0941 -0.09095,-0.23048 -0.03101,-0.13746 -0.03101,-0.31419 0,-0.1943 0.03204,-0.34313 0.03307,-0.14883 0.09612,-0.24908 0.06305,-0.10129 0.156062,-0.15193 0.09405,-0.0517 0.214974,-0.0517 0.466122,0 0.466122,0.75965 z m -0.173633,0.0165 q 0,-0.63252 -0.300757,-0.63252 -0.317293,0 -0.317293,0.64389 0,0.60048 0.311092,0.60048 0.306958,0 0.306958,-0.61185 z"
         style="font-size:2.11666656px;fill:#ffe4b3;stroke-width:0.26458332"
         id="path6877"
         inkscape:connector-curvature="0" />
    </g>
    <g
       aria-label="DAC"
       style="font-style:normal;font-variant:normal;font-weight:600;font-stretch:normal;font-size:3.52777767px;line-height:1.25;font-family:'Yu Gothic UI';-inkscape-font-specification:'Yu Gothic UI Semi-Bold';letter-spacing:0px;word-spacing:0px;fill:#ffe4b3;fill-opacity:1;stroke:none;stroke-width:0.26458332"
       id="text1005"
       transform="translate(3.0540776,0.93089898)">
      <path
         d="m 9.5653079,199.10416 v -2.47014 h 0.7131351 q 1.36598,0 1.36598,1.20406 0,0.57189 -0.378961,0.91984 -0.37896,0.34624 -1.016303,0.34624 z m 0.4082438,-2.12218 v 1.77594 h 0.3272843 q 0.432359,0 0.671793,-0.23771 0.241157,-0.23771 0.241157,-0.67179 0,-0.86644 -0.897447,-0.86644 z"
         style="font-style:normal;font-variant:normal;font-weight:600;font-stretch:normal;font-size:3.52777767px;font-family:'Yu Gothic UI';-inkscape-font-specification:'Yu Gothic UI Semi-Bold';fill:#ffe4b3;stroke-width:0.26458332"
         id="path1007"
         inkscape:connector-curvature="0" />
      <path
         d="m 14.068048,199.10416 h -0.449585 l -0.222209,-0.62873 h -0.971517 l -0.213596,0.62873 h -0.447862 l 0.925008,-2.47014 h 0.461643 z m -0.780315,-0.96291 -0.342787,-0.98529 q -0.0155,-0.0482 -0.03273,-0.15503 h -0.0069 q -0.0155,0.0982 -0.03445,0.15503 l -0.339342,0.98529 z"
         style="font-style:normal;font-variant:normal;font-weight:600;font-stretch:normal;font-size:3.52777767px;font-family:'Yu Gothic UI';-inkscape-font-specification:'Yu Gothic UI Semi-Bold';fill:#ffe4b3;stroke-width:0.26458332"
         id="path1009"
         inkscape:connector-curvature="0" />
      <path
         d="m 16.076538,199.0008 q -0.279053,0.1447 -0.694187,0.1447 -0.537435,0 -0.861273,-0.33934 -0.323839,-0.33935 -0.323839,-0.89056 0,-0.59256 0.363457,-0.95774 0.36518,-0.36518 0.921563,-0.36518 0.35829,0 0.594279,0.10163 v 0.40652 q -0.249769,-0.14814 -0.551215,-0.14814 -0.401354,0 -0.651123,0.25666 -0.248047,0.25666 -0.248047,0.68558 0,0.40824 0.232544,0.65112 0.232544,0.24116 0.611504,0.24116 0.349677,0 0.606337,-0.16537 z"
         style="font-style:normal;font-variant:normal;font-weight:600;font-stretch:normal;font-size:3.52777767px;font-family:'Yu Gothic UI';-inkscape-font-specification:'Yu Gothic UI Semi-Bold';fill:#ffe4b3;stroke-width:0.26458332"
         id="path1011"
         inkscape:connector-curvature="0" />
    </g>
    <g
       aria-label="DIGITAL TO ANALOG CONVERTER"
       style="font-style:normal;font-variant:normal;font-weight:normal;font-stretch:normal;font-size:2.11666656px;line-height:1.25;font-family:'Yu Gothic UI';-inkscape-font-specification:'Yu Gothic UI';letter-spacing:0px;word-spacing:0px;fill:#ffe4b3;fill-opacity:1;stroke:none;stroke-width:0.26458332"
       id="text1016"
       transform="matrix(0.94647304,0,0,1,-1.7620706,-2.1099414)">
      <path
         d="m 2.8401366,204.39581 v -1.48208 H 3.249414 q 0.7834146,0 0.7834146,0.72244 0,0.34313 -0.2180745,0.5519 -0.217041,0.20774 -0.5818766,0.20774 z m 0.1736328,-1.32498 v 1.16789 h 0.2211752 q 0.291455,0 0.453719,-0.15607 0.162264,-0.15606 0.162264,-0.44235 0,-0.56947 -0.6056478,-0.56947 z"
         style="font-size:2.11666656px;fill:#ffe4b3;stroke-width:0.26458332"
         id="path1018"
         inkscape:connector-curvature="0" />
      <path
         d="M 4.4979165,204.39581 H 4.3242837 v -1.48208 h 0.1736328 z"
         style="font-size:2.11666656px;fill:#ffe4b3;stroke-width:0.26458332"
         id="path1020"
         inkscape:connector-curvature="0" />
      <path
         d="m 5.994466,204.29453 q -0.2232422,0.12609 -0.4960937,0.12609 -0.3172933,0 -0.5136637,-0.20464 -0.1953369,-0.20464 -0.1953369,-0.54157 0,-0.34416 0.217041,-0.56431 0.2180745,-0.22117 0.5519042,-0.22117 0.2418457,0 0.4061768,0.0786 v 0.19223 q -0.179834,-0.11369 -0.4258138,-0.11369 -0.2490804,0 -0.4082438,0.17157 -0.1591634,0.17157 -0.1591634,0.44442 0,0.28112 0.1477946,0.44235 0.1477946,0.16019 0.4010091,0.16019 0.1736328,0 0.3007568,-0.0692 v -0.41548 h -0.324528 v -0.1571 H 5.994466 Z"
         style="font-size:2.11666656px;fill:#ffe4b3;stroke-width:0.26458332"
         id="path1022"
         inkscape:connector-curvature="0" />
      <path
         d="M 6.5112303,204.39581 H 6.3375975 v -1.48208 h 0.1736328 z"
         style="font-size:2.11666656px;fill:#ffe4b3;stroke-width:0.26458332"
         id="path1024"
         inkscape:connector-curvature="0" />
      <path
         d="M 7.7762689,203.07083 H 7.348388 v 1.32498 H 7.1747552 v -1.32498 H 6.7479079 v -0.1571 h 1.028361 z"
         style="font-size:2.11666656px;fill:#ffe4b3;stroke-width:0.26458332"
         id="path1026"
         inkscape:connector-curvature="0" />
      <path
         d="M 9.0805822,204.39581 H 8.8883459 L 8.7312495,203.98033 H 8.1028641 l -0.1477946,0.41548 H 7.7617997 l 0.5684407,-1.48208 h 0.179834 z m -0.4061768,-0.57154 -0.2325439,-0.63148 q -0.011369,-0.031 -0.022738,-0.0992 h -0.00413 q -0.010335,0.063 -0.023771,0.0992 l -0.2304769,0.63148 z"
         style="font-size:2.11666656px;fill:#ffe4b3;stroke-width:0.26458332"
         id="path1028"
         inkscape:connector-curvature="0" />
      <path
         d="M 10.066569,204.39581 H 9.2976233 v -1.48208 h 0.1736328 v 1.32499 h 0.5953129 z"
         style="font-size:2.11666656px;fill:#ffe4b3;stroke-width:0.26458332"
         id="path1030"
         inkscape:connector-curvature="0" />
      <path
         d="m 11.749153,203.07083 h -0.427881 v 1.32498 h -0.173633 v -1.32498 h -0.426847 v -0.1571 h 1.028361 z"
         style="font-size:2.11666656px;fill:#ffe4b3;stroke-width:0.26458332"
         id="path1032"
         inkscape:connector-curvature="0" />
      <path
         d="m 12.557372,204.42062 q -0.315226,0 -0.505395,-0.20774 -0.189136,-0.20774 -0.189136,-0.54054 0,-0.3576 0.19327,-0.5705 0.19327,-0.21291 0.526066,-0.21291 0.306958,0 0.494026,0.2067 0.188103,0.20671 0.188103,0.54054 0,0.36277 -0.192237,0.57361 -0.192236,0.21084 -0.514697,0.21084 z m 0.0124,-1.3746 q -0.233577,0 -0.379305,0.16847 -0.145727,0.16846 -0.145727,0.44235 0,0.27389 0.141593,0.44132 0.142627,0.16639 0.371037,0.16639 0.243913,0 0.384473,-0.15916 0.14056,-0.15916 0.14056,-0.44545 0,-0.29352 -0.136426,-0.45372 -0.136426,-0.1602 -0.376205,-0.1602 z"
         style="font-size:2.11666656px;fill:#ffe4b3;stroke-width:0.26458332"
         id="path1034"
         inkscape:connector-curvature="0" />
      <path
         d="m 15.281754,204.39581 h -0.192237 l -0.157096,-0.41548 h -0.628385 l -0.147795,0.41548 h -0.19327 l 0.568441,-1.48208 h 0.179834 z m -0.406177,-0.57154 -0.232544,-0.63148 q -0.01137,-0.031 -0.02274,-0.0992 h -0.0041 q -0.01033,0.063 -0.02377,0.0992 l -0.230477,0.63148 z"
         style="font-size:2.11666656px;fill:#ffe4b3;stroke-width:0.26458332"
         id="path1036"
         inkscape:connector-curvature="0" />
      <path
         d="m 16.693554,204.39581 h -0.212907 l -0.762744,-1.18132 q -0.02894,-0.0444 -0.04754,-0.093 h -0.0062 q 0.0083,0.0475 0.0083,0.20361 v 1.07073 h -0.173632 v -1.48208 h 0.225309 l 0.742073,1.16272 q 0.04651,0.0724 0.05995,0.0992 h 0.0041 q -0.01034,-0.0641 -0.01034,-0.21807 v -1.04387 h 0.173633 z"
         style="font-size:2.11666656px;fill:#ffe4b3;stroke-width:0.26458332"
         id="path1038"
         inkscape:connector-curvature="0" />
      <path
         d="m 18.229377,204.39581 h -0.192236 l -0.157097,-0.41548 h -0.628385 l -0.147795,0.41548 h -0.19327 l 0.568441,-1.48208 h 0.179834 z m -0.406177,-0.57154 -0.232544,-0.63148 q -0.01137,-0.031 -0.02274,-0.0992 h -0.0041 q -0.01033,0.063 -0.02377,0.0992 l -0.230477,0.63148 z"
         style="font-size:2.11666656px;fill:#ffe4b3;stroke-width:0.26458332"
         id="path1040"
         inkscape:connector-curvature="0" />
      <path
         d="m 19.215363,204.39581 h -0.768945 v -1.48208 h 0.173633 v 1.32499 h 0.595312 z"
         style="font-size:2.11666656px;fill:#ffe4b3;stroke-width:0.26458332"
         id="path1042"
         inkscape:connector-curvature="0" />
      <path
         d="m 20.019448,204.42062 q -0.315226,0 -0.505395,-0.20774 -0.189136,-0.20774 -0.189136,-0.54054 0,-0.3576 0.19327,-0.5705 0.19327,-0.21291 0.526066,-0.21291 0.306958,0 0.494027,0.2067 0.188102,0.20671 0.188102,0.54054 0,0.36277 -0.192237,0.57361 -0.192236,0.21084 -0.514697,0.21084 z m 0.0124,-1.3746 q -0.233578,0 -0.379305,0.16847 -0.145728,0.16846 -0.145728,0.44235 0,0.27389 0.141593,0.44132 0.142627,0.16639 0.371037,0.16639 0.243913,0 0.384473,-0.15916 0.14056,-0.15916 0.14056,-0.44545 0,-0.29352 -0.136426,-0.45372 -0.136426,-0.1602 -0.376204,-0.1602 z"
         style="font-size:2.11666656px;fill:#ffe4b3;stroke-width:0.26458332"
         id="path1044"
         inkscape:connector-curvature="0" />
      <path
         d="m 22.125779,204.29453 q -0.223242,0.12609 -0.496093,0.12609 -0.317294,0 -0.513664,-0.20464 -0.195337,-0.20464 -0.195337,-0.54157 0,-0.34416 0.217041,-0.56431 0.218075,-0.22117 0.551904,-0.22117 0.241846,0 0.406177,0.0786 v 0.19223 q -0.179834,-0.11369 -0.425814,-0.11369 -0.24908,0 -0.408244,0.17157 -0.159163,0.17157 -0.159163,0.44442 0,0.28112 0.147795,0.44235 0.147794,0.16019 0.401009,0.16019 0.173633,0 0.300757,-0.0692 v -0.41548 h -0.324528 v -0.1571 h 0.49816 z"
         style="font-size:2.11666656px;fill:#ffe4b3;stroke-width:0.26458332"
         id="path1046"
         inkscape:connector-curvature="0" />
      <path
         d="m 24.056411,204.3338 q -0.164331,0.0868 -0.409278,0.0868 -0.316259,0 -0.506429,-0.20361 -0.190169,-0.2036 -0.190169,-0.53433 0,-0.35554 0.21394,-0.57464 0.213941,-0.21911 0.542603,-0.21911 0.21084,0 0.349333,0.061 v 0.185 q -0.159164,-0.0889 -0.3514,-0.0889 -0.255282,0 -0.414445,0.17054 -0.15813,0.17053 -0.15813,0.45578 0,0.27079 0.147795,0.43202 0.148828,0.16019 0.38964,0.16019 0.223242,0 0.38654,-0.0992 z"
         style="font-size:2.11666656px;fill:#ffe4b3;stroke-width:0.26458332"
         id="path1048"
         inkscape:connector-curvature="0" />
      <path
         d="m 24.955581,204.42062 q -0.315227,0 -0.505396,-0.20774 -0.189136,-0.20774 -0.189136,-0.54054 0,-0.3576 0.19327,-0.5705 0.19327,-0.21291 0.526066,-0.21291 0.306958,0 0.494027,0.2067 0.188102,0.20671 0.188102,0.54054 0,0.36277 -0.192236,0.57361 -0.192236,0.21084 -0.514697,0.21084 z m 0.0124,-1.3746 q -0.233577,0 -0.379305,0.16847 -0.145728,0.16846 -0.145728,0.44235 0,0.27389 0.141594,0.44132 0.142627,0.16639 0.371037,0.16639 0.243912,0 0.384472,-0.15916 0.14056,-0.15916 0.14056,-0.44545 0,-0.29352 -0.136426,-0.45372 -0.136425,-0.1602 -0.376204,-0.1602 z"
         style="font-size:2.11666656px;fill:#ffe4b3;stroke-width:0.26458332"
         id="path1050"
         inkscape:connector-curvature="0" />
      <path
         d="m 27.148728,204.39581 h -0.212907 l -0.762744,-1.18132 q -0.02894,-0.0444 -0.04754,-0.093 h -0.0062 q 0.0083,0.0475 0.0083,0.20361 v 1.07073 h -0.173633 v -1.48208 h 0.225309 l 0.742074,1.16272 q 0.04651,0.0724 0.05995,0.0992 h 0.0041 q -0.01034,-0.0641 -0.01034,-0.21807 v -1.04387 h 0.173633 z"
         style="font-size:2.11666656px;fill:#ffe4b3;stroke-width:0.26458332"
         id="path1052"
         inkscape:connector-curvature="0" />
      <path
         d="m 28.639077,202.91373 -0.548804,1.48208 h -0.191202 l -0.537435,-1.48208 h 0.193269 l 0.410311,1.17512 q 0.01964,0.0568 0.02997,0.13126 h 0.0041 q 0.0083,-0.062 0.03411,-0.13332 l 0.418579,-1.17306 z"
         style="font-size:2.11666656px;fill:#ffe4b3;stroke-width:0.26458332"
         id="path1054"
         inkscape:connector-curvature="0" />
      <path
         d="m 29.637465,204.39581 h -0.785482 v -1.48208 h 0.752409 v 0.1571 h -0.578776 v 0.49299 h 0.535368 v 0.15607 h -0.535368 v 0.51883 h 0.611849 z"
         style="font-size:2.11666656px;fill:#ffe4b3;stroke-width:0.26458332"
         id="path1056"
         inkscape:connector-curvature="0" />
      <path
         d="m 30.985186,204.39581 h -0.206705 l -0.248047,-0.41548 q -0.03411,-0.0579 -0.06615,-0.0982 -0.03204,-0.0413 -0.06615,-0.0672 -0.03307,-0.0258 -0.07235,-0.0372 -0.03824,-0.0124 -0.08682,-0.0124 h -0.142627 v 0.63045 h -0.173633 v -1.48208 h 0.44235 q 0.09715,0 0.178801,0.0248 0.08268,0.0238 0.142627,0.0734 0.06098,0.0496 0.09508,0.12402 0.03411,0.0734 0.03411,0.1726 0,0.0775 -0.02377,0.14263 -0.02274,0.0641 -0.06615,0.11472 -0.04238,0.0506 -0.103353,0.0868 -0.05994,0.0351 -0.135392,0.0548 v 0.004 q 0.03721,0.0165 0.06408,0.0382 0.02791,0.0207 0.05271,0.0496 0.02481,0.0289 0.04858,0.0661 0.02481,0.0362 0.05478,0.0847 z m -0.888834,-1.32498 v 0.53743 h 0.235644 q 0.06511,0 0.11989,-0.0196 0.05581,-0.0196 0.09612,-0.0558 0.04031,-0.0372 0.06305,-0.0899 0.02274,-0.0537 0.02274,-0.11989 0,-0.11886 -0.07752,-0.185 -0.07648,-0.0672 -0.222209,-0.0672 z"
         style="font-size:2.11666656px;fill:#ffe4b3;stroke-width:0.26458332"
         id="path1058"
         inkscape:connector-curvature="0" />
      <path
         d="M 32.064191,203.07083 H 31.63631 v 1.32498 h -0.173633 v -1.32498 H 31.03583 v -0.1571 h 1.028361 z"
         style="font-size:2.11666656px;fill:#ffe4b3;stroke-width:0.26458332"
         id="path1060"
         inkscape:connector-curvature="0" />
      <path
         d="m 33.081183,204.39581 h -0.785482 v -1.48208 h 0.752409 v 0.1571 h -0.578776 v 0.49299 h 0.535368 v 0.15607 h -0.535368 v 0.51883 h 0.611849 z"
         style="font-size:2.11666656px;fill:#ffe4b3;stroke-width:0.26458332"
         id="path1062"
         inkscape:connector-curvature="0" />
      <path
         d="m 34.428904,204.39581 h -0.206705 l -0.248047,-0.41548 q -0.03411,-0.0579 -0.06615,-0.0982 -0.03204,-0.0413 -0.06615,-0.0672 -0.03307,-0.0258 -0.07235,-0.0372 -0.03824,-0.0124 -0.08682,-0.0124 H 33.54007 v 0.63045 h -0.173633 v -1.48208 h 0.44235 q 0.09715,0 0.178801,0.0248 0.08268,0.0238 0.142627,0.0734 0.06098,0.0496 0.09508,0.12402 0.03411,0.0734 0.03411,0.1726 0,0.0775 -0.02377,0.14263 -0.02274,0.0641 -0.06615,0.11472 -0.04237,0.0506 -0.103353,0.0868 -0.05994,0.0351 -0.135392,0.0548 v 0.004 q 0.03721,0.0165 0.06408,0.0382 0.02791,0.0207 0.05271,0.0496 0.02481,0.0289 0.04858,0.0661 0.02481,0.0362 0.05478,0.0847 z m -0.888834,-1.32498 v 0.53743 h 0.235644 q 0.06511,0 0.11989,-0.0196 0.05581,-0.0196 0.09612,-0.0558 0.04031,-0.0372 0.06304,-0.0899 0.02274,-0.0537 0.02274,-0.11989 0,-0.11886 -0.07752,-0.185 -0.07648,-0.0672 -0.222209,-0.0672 z"
         style="font-size:2.11666656px;fill:#ffe4b3;stroke-width:0.26458332"
         id="path1064"
         inkscape:connector-curvature="0" />
    </g>
    <g
       aria-label="SCALE"
       style="font-style:normal;font-variant:normal;font-weight:normal;font-stretch:normal;font-size:2.82222223px;line-height:1.25;font-family:'Yu Gothic UI';-inkscape-font-specification:'Yu Gothic UI';letter-spacing:0px;word-spacing:0px;fill:#ffe4b3;fill-opacity:1;stroke:none;stroke-width:0.26458332"
       id="text1071"
       transform="translate(0.03514285,10.116096)">
      <path
         d="m 20.010493,225.48256 v -0.27285 q 0.04685,0.0413 0.111621,0.0744 0.06615,0.0331 0.137804,0.0565 0.07304,0.0221 0.146072,0.0344 0.07304,0.0124 0.135047,0.0124 0.213596,0 0.318327,-0.0785 0.106109,-0.0799 0.106109,-0.22876 0,-0.0799 -0.03583,-0.13918 -0.03445,-0.0593 -0.09646,-0.10749 -0.06201,-0.0496 -0.14745,-0.0937 -0.08406,-0.0455 -0.181901,-0.0951 -0.103353,-0.0524 -0.192925,-0.10611 -0.08957,-0.0537 -0.155718,-0.11851 -0.06615,-0.0648 -0.104731,-0.14607 -0.03721,-0.0827 -0.03721,-0.19293 0,-0.13504 0.05926,-0.23426 0.05926,-0.1006 0.155719,-0.16537 0.09646,-0.0648 0.219108,-0.0965 0.124023,-0.0317 0.252181,-0.0317 0.292144,0 0.425814,0.0703 v 0.26045 q -0.175011,-0.12126 -0.449241,-0.12126 -0.07579,0 -0.151584,0.0165 -0.07579,0.0152 -0.135048,0.051 -0.05926,0.0358 -0.09646,0.0923 -0.03721,0.0565 -0.03721,0.1378 0,0.0758 0.02756,0.13092 0.02894,0.0551 0.08406,0.10059 0.05512,0.0455 0.133669,0.0882 0.07993,0.0427 0.183279,0.0937 0.106109,0.0524 0.201194,0.11025 0.09509,0.0579 0.166743,0.12816 0.07166,0.0703 0.112999,0.15571 0.04272,0.0854 0.04272,0.19568 0,0.14608 -0.05788,0.24805 -0.0565,0.1006 -0.15434,0.16399 -0.09646,0.0634 -0.223242,0.0909 -0.12678,0.0289 -0.26734,0.0289 -0.04685,0 -0.115755,-0.008 -0.0689,-0.007 -0.14056,-0.0221 -0.07166,-0.0138 -0.136426,-0.0344 -0.06339,-0.0221 -0.101974,-0.0482 z"
         style="fill:#ffe4b3;stroke-width:0.26458332"
         id="path1073"
         inkscape:connector-curvature="0" />
      <path
         d="m 22.947092,225.4798 q -0.219108,0.11576 -0.545703,0.11576 -0.42168,0 -0.675239,-0.27148 -0.253559,-0.27147 -0.253559,-0.71244 0,-0.47405 0.285254,-0.76619 0.285254,-0.29214 0.72347,-0.29214 0.28112,0 0.465777,0.0813 v 0.24667 q -0.212218,-0.11851 -0.468533,-0.11851 -0.340375,0 -0.552593,0.22737 -0.21084,0.22738 -0.21084,0.60772 0,0.36104 0.197059,0.57602 0.198438,0.21359 0.519521,0.21359 0.297656,0 0.515386,-0.13229 z"
         style="fill:#ffe4b3;stroke-width:0.26458332"
         id="path1075"
         inkscape:connector-curvature="0" />
      <path
         d="m 24.879102,225.56248 h -0.256315 l -0.209462,-0.55397 h -0.837847 l -0.19706,0.55397 h -0.257693 l 0.757921,-1.9761 h 0.239779 z m -0.541569,-0.76205 -0.310059,-0.84198 q -0.01516,-0.0413 -0.03032,-0.13229 h -0.0055 q -0.01378,0.0841 -0.03169,0.13229 l -0.307302,0.84198 z"
         style="fill:#ffe4b3;stroke-width:0.26458332"
         id="path1077"
         inkscape:connector-curvature="0" />
      <path
         d="m 26.19375,225.56248 h -1.02526 v -1.9761 H 25.4 v 1.76664 h 0.79375 z"
         style="fill:#ffe4b3;stroke-width:0.26458332"
         id="path1079"
         inkscape:connector-curvature="0" />
      <path
         d="m 27.544228,225.56248 h -1.047309 v -1.9761 h 1.003211 v 0.20946 h -0.771701 v 0.65732 h 0.713824 v 0.20809 h -0.713824 v 0.69177 h 0.815799 z"
         style="fill:#ffe4b3;stroke-width:0.26458332"
         id="path1081"
         inkscape:connector-curvature="0" />
    </g>
    <path
       inkscape:connector-curvature="0"
       id="path1089"
       d="M 18.520835,267.62192 V 278.999 h 10.583338 l -4e-6,-11.37708 z"
       style="display:inline;fill:none;stroke:#ffe4b3;stroke-width:0.26458332px;stroke-linecap:butt;stroke-linejoin:miter;stroke-opacity:1"
       sodipodi:nodetypes="ccccc" />
    <g
       aria-label="OUT"
       style="font-style:normal;font-variant:normal;font-weight:normal;font-stretch:normal;font-size:2.82222223px;line-height:1.25;font-family:'Yu Gothic UI';-inkscape-font-specification:'Yu Gothic UI';letter-spacing:0px;word-spacing:0px;fill:#ffe4b3;fill-opacity:1;stroke:none;stroke-width:0.26458332"
       id="text1119"
       transform="translate(-1.5337754,3.7444281)">
      <path
         d="m 22.222243,266.60598 q -0.420301,0 -0.67386,-0.27699 -0.252181,-0.27698 -0.252181,-0.72071 0,-0.4768 0.257693,-0.76068 0.257693,-0.28387 0.701421,-0.28387 0.409278,0 0.658702,0.2756 0.250803,0.27561 0.250803,0.72072 0,0.48369 -0.256315,0.76481 -0.256315,0.28112 -0.686263,0.28112 z m 0.01654,-1.83279 q -0.311437,0 -0.50574,0.22462 -0.194304,0.22462 -0.194304,0.5898 0,0.36518 0.188792,0.58842 0.190169,0.22187 0.494715,0.22187 0.325217,0 0.512631,-0.21222 0.187413,-0.21222 0.187413,-0.59394 0,-0.39136 -0.181901,-0.60496 -0.181901,-0.21359 -0.501606,-0.21359 z"
         style="fill:#ffe4b3;stroke-width:0.26458332"
         id="path1121"
         inkscape:connector-curvature="0" />
      <path
         d="m 24.99899,265.77364 q 0,0.83234 -0.751031,0.83234 -0.719335,0 -0.719335,-0.80064 v -1.20854 h 0.23151 v 1.19338 q 0,0.60772 0.51263,0.60772 0.494716,0 0.494716,-0.58705 v -1.21405 h 0.23151 z"
         style="fill:#ffe4b3;stroke-width:0.26458332"
         id="path1123"
         inkscape:connector-curvature="0" />
      <path
         d="m 26.662282,264.80626 h -0.570507 v 1.76665 h -0.231511 v -1.76665 h -0.56913 v -0.20946 h 1.371148 z"
         style="fill:#ffe4b3;stroke-width:0.26458332"
         id="path1125"
         inkscape:connector-curvature="0" />
    </g>
    <g
       aria-label="OFFSET"
       style="font-style:normal;font-variant:normal;font-weight:normal;font-stretch:normal;font-size:2.82222223px;line-height:1.25;font-family:'Yu Gothic UI';-inkscape-font-specification:'Yu Gothic UI';letter-spacing:0px;word-spacing:0px;fill:#ffe4b3;fill-opacity:1;stroke:none;stroke-width:0.26458332"
       id="text1160"
       transform="translate(0.87230135,-4.4393412)">
      <path
         d="m 19.311828,256.8164 q -0.420302,0 -0.673861,-0.27699 -0.252181,-0.27698 -0.252181,-0.72071 0,-0.4768 0.257693,-0.76068 0.257693,-0.28387 0.701422,-0.28387 0.409277,0 0.658702,0.2756 0.250803,0.27561 0.250803,0.72072 0,0.48369 -0.256315,0.76481 -0.256315,0.28112 -0.686263,0.28112 z m 0.01654,-1.83279 q -0.311437,0 -0.50574,0.22462 -0.194303,0.22462 -0.194303,0.5898 0,0.36518 0.188791,0.58842 0.190169,0.22186 0.494716,0.22186 0.325217,0 0.51263,-0.21221 0.187413,-0.21222 0.187413,-0.59394 0,-0.39136 -0.181901,-0.60496 -0.181901,-0.21359 -0.501606,-0.21359 z"
         style="fill:#ffe4b3;stroke-width:0.26458332"
         id="path1162"
         inkscape:connector-curvature="0" />
      <path
         d="m 21.646224,255.01668 h -0.771701 v 0.68351 h 0.713824 v 0.20808 h -0.713824 v 0.87506 h -0.23151 v -1.97611 h 1.003211 z"
         style="fill:#ffe4b3;stroke-width:0.26458332"
         id="path1164"
         inkscape:connector-curvature="0" />
      <path
         d="m 23.024263,255.01668 h -0.771702 v 0.68351 h 0.713824 v 0.20808 h -0.713824 v 0.87506 h -0.23151 v -1.97611 h 1.003212 z"
         style="fill:#ffe4b3;stroke-width:0.26458332"
         id="path1166"
         inkscape:connector-curvature="0" />
      <path
         d="m 23.30676,256.7034 v -0.27285 q 0.04685,0.0413 0.111621,0.0744 0.06615,0.0331 0.137804,0.0565 0.07304,0.022 0.146072,0.0344 0.07304,0.0124 0.135048,0.0124 0.213596,0 0.318327,-0.0785 0.106109,-0.0799 0.106109,-0.22876 0,-0.0799 -0.03583,-0.13918 -0.03445,-0.0593 -0.09646,-0.10749 -0.06201,-0.0496 -0.14745,-0.0937 -0.08406,-0.0455 -0.181901,-0.0951 -0.103353,-0.0524 -0.192926,-0.10611 -0.08957,-0.0537 -0.155718,-0.11851 -0.06615,-0.0648 -0.104731,-0.14607 -0.03721,-0.0827 -0.03721,-0.19293 0,-0.13504 0.05926,-0.23426 0.05926,-0.1006 0.155718,-0.16537 0.09646,-0.0648 0.219108,-0.0965 0.124024,-0.0317 0.252181,-0.0317 0.292144,0 0.425814,0.0703 v 0.26044 q -0.175011,-0.12126 -0.44924,-0.12126 -0.07579,0 -0.151585,0.0165 -0.07579,0.0152 -0.135047,0.051 -0.05926,0.0358 -0.09646,0.0923 -0.03721,0.0565 -0.03721,0.1378 0,0.0758 0.02756,0.13092 0.02894,0.0551 0.08406,0.10059 0.05512,0.0455 0.13367,0.0882 0.07993,0.0427 0.183279,0.0937 0.106109,0.0524 0.201193,0.11024 0.09509,0.0579 0.166743,0.12816 0.07166,0.0703 0.112999,0.15571 0.04272,0.0854 0.04272,0.19569 0,0.14607 -0.05788,0.24804 -0.0565,0.1006 -0.154341,0.16399 -0.09646,0.0634 -0.223242,0.091 -0.126779,0.0289 -0.267339,0.0289 -0.04685,0 -0.115755,-0.008 -0.0689,-0.007 -0.14056,-0.022 -0.07166,-0.0138 -0.136426,-0.0345 -0.06339,-0.022 -0.101975,-0.0482 z"
         style="fill:#ffe4b3;stroke-width:0.26458332"
         id="path1168"
         inkscape:connector-curvature="0" />
      <path
         d="m 25.945703,256.78333 h -1.047309 v -1.97611 h 1.003212 v 0.20946 h -0.771701 v 0.65732 h 0.713824 v 0.20809 h -0.713824 v 0.69177 h 0.815798 z"
         style="fill:#ffe4b3;stroke-width:0.26458332"
         id="path1170"
         inkscape:connector-curvature="0" />
      <path
         d="m 27.494618,255.01668 h -0.570507 v 1.76665 H 26.6926 v -1.76665 h -0.56913 v -0.20946 h 1.371148 z"
         style="fill:#ffe4b3;stroke-width:0.26458332"
         id="path1172"
         inkscape:connector-curvature="0" />
    </g>
    <g
       aria-label="-5"
       style="font-style:normal;font-variant:normal;font-weight:normal;font-stretch:normal;font-size:2.11666656px;line-height:1.25;font-family:'Yu Gothic UI';-inkscape-font-specification:'Yu Gothic UI';letter-spacing:0px;word-spacing:0px;fill:#ffe4b3;fill-opacity:1;stroke:none;stroke-width:0.26458332"
       id="text2898"
       transform="translate(-0.7400418,-1.249475)">
      <path
         d="m 20.292301,264.99159 h -0.564306 v -0.13332 h 0.564306 z"
         style="font-size:2.11666656px;fill:#ffe4b3;stroke-width:0.26458332"
         id="path2904"
         inkscape:connector-curvature="0" />
      <path
         d="m 21.428149,265.06187 q 0,0.10852 -0.03721,0.19637 -0.03721,0.0879 -0.106453,0.1509 -0.06821,0.063 -0.165365,0.0971 -0.09715,0.0341 -0.216007,0.0341 -0.206706,0 -0.306958,-0.062 v -0.17983 q 0.150895,0.0971 0.309025,0.0971 0.08062,0 0.144694,-0.0238 0.06511,-0.0238 0.110587,-0.0661 0.04547,-0.0424 0.06925,-0.10232 0.0248,-0.0599 0.0248,-0.13125 0,-0.1447 -0.09715,-0.22635 -0.09715,-0.0827 -0.282154,-0.0827 -0.02997,0 -0.06304,0.001 -0.03307,10e-4 -0.06615,0.003 -0.03307,10e-4 -0.06511,0.003 -0.03101,0.002 -0.05684,0.005 l 0.05064,-0.7431 h 0.685229 v 0.15296 h -0.538468 l -0.02997,0.43511 q 0.03307,-0.002 0.07028,-0.003 0.03721,-0.002 0.06615,-0.002 0.117823,0 0.21084,0.031 0.09302,0.031 0.157096,0.0889 0.06511,0.0568 0.09819,0.14056 0.03411,0.0827 0.03411,0.18603 z"
         style="font-size:2.11666656px;fill:#ffe4b3;stroke-width:0.26458332"
         id="path2906"
         inkscape:connector-curvature="0" />
    </g>
    <g
       aria-label="+5"
       style="font-style:normal;font-variant:normal;font-weight:normal;font-stretch:normal;font-size:2.11666656px;line-height:1.25;font-family:'Yu Gothic UI';-inkscape-font-specification:'Yu Gothic UI';letter-spacing:0px;word-spacing:0px;fill:#ffe4b3;fill-opacity:1;stroke:none;stroke-width:0.26458332"
       id="text2902"
       transform="translate(1.6092885,-0.455745)">
      <path
         d="m 25.817544,264.17306 h -0.417545 v 0.41651 H 25.26254 v -0.41651 h -0.416513 v -0.1385 h 0.416513 v -0.41651 h 0.137459 v 0.41651 h 0.417545 z"
         style="font-size:2.11666656px;fill:#ffe4b3;stroke-width:0.26458332"
         id="path2909"
         inkscape:connector-curvature="0" />
      <path
         d="m 27.054678,264.26814 q 0,0.10852 -0.03721,0.19637 -0.03721,0.0879 -0.106453,0.1509 -0.06821,0.063 -0.165365,0.0971 -0.09715,0.0341 -0.216007,0.0341 -0.206706,0 -0.306958,-0.062 v -0.17983 q 0.150895,0.0971 0.309025,0.0971 0.08062,0 0.144694,-0.0238 0.06511,-0.0238 0.110587,-0.0661 0.04547,-0.0424 0.06925,-0.10232 0.0248,-0.0599 0.0248,-0.13126 0,-0.14469 -0.09715,-0.22634 -0.09715,-0.0827 -0.282154,-0.0827 -0.02997,0 -0.06305,0.001 -0.03307,10e-4 -0.06615,0.003 -0.03307,10e-4 -0.06511,0.003 -0.03101,0.002 -0.05684,0.005 l 0.05064,-0.7431 h 0.685229 v 0.15296 h -0.538468 l -0.02997,0.43511 q 0.03307,-0.002 0.07028,-0.003 0.03721,-0.002 0.06615,-0.002 0.117823,0 0.21084,0.031 0.09302,0.031 0.157096,0.0889 0.06511,0.0568 0.09819,0.14056 0.03411,0.0827 0.03411,0.18604 z"
         style="font-size:2.11666656px;fill:#ffe4b3;stroke-width:0.26458332"
         id="path2911"
         inkscape:connector-curvature="0" />
    </g>
  </g>
  <g
     inkscape:groupmode="layer"
     id="layer2"
     inkscape:label="Grid"
     style="display:none"
     sodipodi:insensitive="true">
    <path
       sodipodi:nodetypes="cc"
       inkscape:connector-curvature="0"
       id="path881"
       d="m 7.9375152,5.5489063 -3e-6,100.5418537"
       style="fill:none;stroke:#ffe4b3;stroke-width:0.05;stroke-linecap:butt;stroke-linejoin:miter;stroke-miterlimit:4;stroke-dasharray:none;stroke-opacity:1" />
    <path
       style="fill:none;stroke:#ffe4b3;stroke-width:0.05;stroke-linecap:butt;stroke-linejoin:miter;stroke-miterlimit:4;stroke-dasharray:none;stroke-opacity:1"
       d="M 3.9687674,3.333209e-6 3.9687634,100.54167"
       id="path890"
       inkscape:connector-curvature="0"
       sodipodi:nodetypes="cc" />
    <path
       sodipodi:nodetypes="cc"
       inkscape:connector-curvature="0"
       id="path895"
       d="M 11.906268,3.333209e-6 11.906264,100.54167"
       style="fill:none;stroke:#ffe4b3;stroke-width:0.05;stroke-linecap:butt;stroke-linejoin:miter;stroke-miterlimit:4;stroke-dasharray:none;stroke-opacity:1" />
    <path
       style="fill:none;stroke:#ffe4b3;stroke-width:0.05;stroke-linecap:butt;stroke-linejoin:miter;stroke-miterlimit:4;stroke-dasharray:none;stroke-opacity:1"
       d="M 1.5433068e-5,11.386483 15.875015,11.377083"
       id="path905"
       inkscape:connector-curvature="0"
       sodipodi:nodetypes="cc" />
    <path
       inkscape:connector-curvature="0"
       id="path907"
       d="M 1.5433068e-5,22.499053 15.875015,22.489553"
       style="fill:none;stroke:#ffe4b3;stroke-width:0.05;stroke-linecap:butt;stroke-linejoin:miter;stroke-miterlimit:4;stroke-dasharray:none;stroke-opacity:1"
       sodipodi:nodetypes="cc" />
    <path
       style="fill:none;stroke:#ffe4b3;stroke-width:0.05;stroke-linecap:butt;stroke-linejoin:miter;stroke-miterlimit:4;stroke-dasharray:none;stroke-opacity:1"
       d="M 1.5433068e-5,33.611623 15.875015,33.602123"
       id="path911"
       inkscape:connector-curvature="0"
       sodipodi:nodetypes="cc" />
    <path
       inkscape:connector-curvature="0"
       id="path917"
       d="M 1.5433068e-5,44.724193 15.875015,44.714593"
       style="fill:none;stroke:#ffe4b3;stroke-width:0.05;stroke-linecap:butt;stroke-linejoin:miter;stroke-miterlimit:4;stroke-dasharray:none;stroke-opacity:1"
       sodipodi:nodetypes="cc" />
    <path
       style="fill:none;stroke:#ffe4b3;stroke-width:0.05;stroke-linecap:butt;stroke-linejoin:miter;stroke-miterlimit:4;stroke-dasharray:none;stroke-opacity:1"
       d="M 1.5433068e-5,55.836763 15.875015,55.827063"
       id="path925"
       inkscape:connector-curvature="0"
       sodipodi:nodetypes="cc" />
    <path
       inkscape:connector-curvature="0"
       id="path935"
       d="M 1.5433068e-5,66.949333 15.875015,66.939633"
       style="fill:none;stroke:#ffe4b3;stroke-width:0.05;stroke-linecap:butt;stroke-linejoin:miter;stroke-miterlimit:4;stroke-dasharray:none;stroke-opacity:1"
       sodipodi:nodetypes="cc" />
    <path
       style="fill:none;stroke:#ffe4b3;stroke-width:0.05;stroke-linecap:butt;stroke-linejoin:miter;stroke-miterlimit:4;stroke-dasharray:none;stroke-opacity:1"
       d="M 1.5433068e-5,78.061903 15.875015,78.052103"
       id="path947"
       inkscape:connector-curvature="0"
       sodipodi:nodetypes="cc" />
    <circle
       style="display:inline;opacity:1;fill:none;fill-opacity:1;stroke:#ffe4b3;stroke-width:0.05;stroke-linecap:square;stroke-linejoin:round;stroke-miterlimit:4;stroke-dasharray:none;stroke-dashoffset:0;stroke-opacity:1;paint-order:markers fill stroke"
       id="path1041"
       cx="7.9347796"
       cy="22.489223"
       r="4.0999999" />
    <circle
       r="4.0999999"
       cy="44.720119"
       cx="7.9347796"
       id="circle1054"
       style="display:inline;opacity:1;fill:none;fill-opacity:1;stroke:#ffe4b3;stroke-width:0.05;stroke-linecap:square;stroke-linejoin:round;stroke-miterlimit:4;stroke-dasharray:none;stroke-dashoffset:0;stroke-opacity:1;paint-order:markers fill stroke" />
    <circle
       style="display:inline;opacity:1;fill:none;fill-opacity:1;stroke:#ffe4b3;stroke-width:0.05;stroke-linecap:square;stroke-linejoin:round;stroke-miterlimit:4;stroke-dasharray:none;stroke-dashoffset:0;stroke-opacity:1;paint-order:markers fill stroke"
       id="circle1056"
       cx="7.9347796"
       cy="33.60759"
       r="4.0999999" />
    <circle
       r="4.0999999"
       cy="66.939285"
       cx="7.9347796"
       id="circle1058"
       style="display:inline;opacity:1;fill:none;fill-opacity:1;stroke:#ffe4b3;stroke-width:0.05;stroke-linecap:square;stroke-linejoin:round;stroke-miterlimit:4;stroke-dasharray:none;stroke-dashoffset:0;stroke-opacity:1;paint-order:markers fill stroke" />
    <circle
       style="display:inline;opacity:1;fill:none;fill-opacity:1;stroke:#ffe4b3;stroke-width:0.05;stroke-linecap:square;stroke-linejoin:round;stroke-miterlimit:4;stroke-dasharray:none;stroke-dashoffset:0;stroke-opacity:1;paint-order:markers fill stroke"
       id="circle1060"
       cx="7.9347796"
       cy="55.83263"
       r="4.0999999" />
    <circle
       r="4.0999999"
       cy="78.05764"
       cx="7.9347796"
       id="circle1064"
       style="display:inline;opacity:1;fill:none;fill-opacity:1;stroke:#ffe4b3;stroke-width:0.05;stroke-linecap:square;stroke-linejoin:round;stroke-miterlimit:4;stroke-dasharray:none;stroke-dashoffset:0;stroke-opacity:1;paint-order:markers fill stroke" />
    <circle
       r="4.0999999"
       cy="11.382563"
       cx="7.9347796"
       id="circle1052"
       style="display:inline;opacity:1;fill:none;fill-opacity:1;stroke:#ffe4b3;stroke-width:0.05;stroke-linecap:square;stroke-linejoin:round;stroke-miterlimit:4;stroke-dasharray:none;stroke-dashoffset:0;stroke-opacity:1;paint-order:markers fill stroke" />
    <circle
       style="display:inline;opacity:1;fill:none;fill-opacity:1;stroke:#ffe4b3;stroke-width:0.05172414;stroke-linecap:square;stroke-linejoin:round;stroke-miterlimit:4;stroke-dasharray:none;stroke-dashoffset:0;stroke-opacity:1;paint-order:markers fill stroke"
       id="circle924"
       cx="7.9360948"
       cy="11.377258"
       r="5.4741378" />
    <circle
       r="5.4741378"
       cy="22.490795"
       cx="7.9360948"
       id="circle955"
       style="display:inline;opacity:1;fill:none;fill-opacity:1;stroke:#ffe4b3;stroke-width:0.05172414;stroke-linecap:square;stroke-linejoin:round;stroke-miterlimit:4;stroke-dasharray:none;stroke-dashoffset:0;stroke-opacity:1;paint-order:markers fill stroke" />
    <circle
       style="display:inline;opacity:1;fill:none;fill-opacity:1;stroke:#ffe4b3;stroke-width:0.05172414;stroke-linecap:square;stroke-linejoin:round;stroke-miterlimit:4;stroke-dasharray:none;stroke-dashoffset:0;stroke-opacity:1;paint-order:markers fill stroke"
       id="circle957"
       cx="7.9360948"
       cy="33.603306"
       r="5.4741378" />
    <circle
       r="5.4741378"
       cy="44.715816"
       cx="7.9360948"
       id="circle959"
       style="display:inline;opacity:1;fill:none;fill-opacity:1;stroke:#ffe4b3;stroke-width:0.05172414;stroke-linecap:square;stroke-linejoin:round;stroke-miterlimit:4;stroke-dasharray:none;stroke-dashoffset:0;stroke-opacity:1;paint-order:markers fill stroke" />
    <circle
       style="display:inline;opacity:1;fill:none;fill-opacity:1;stroke:#ffe4b3;stroke-width:0.05172414;stroke-linecap:square;stroke-linejoin:round;stroke-miterlimit:4;stroke-dasharray:none;stroke-dashoffset:0;stroke-opacity:1;paint-order:markers fill stroke"
       id="circle961"
       cx="7.9360948"
       cy="55.828327"
       r="5.4741378" />
    <circle
       r="5.4741378"
       cy="66.940834"
       cx="7.9360948"
       id="circle963"
       style="display:inline;opacity:1;fill:none;fill-opacity:1;stroke:#ffe4b3;stroke-width:0.05172414;stroke-linecap:square;stroke-linejoin:round;stroke-miterlimit:4;stroke-dasharray:none;stroke-dashoffset:0;stroke-opacity:1;paint-order:markers fill stroke" />
    <circle
       style="display:inline;opacity:1;fill:none;fill-opacity:1;stroke:#ffe4b3;stroke-width:0.05172414;stroke-linecap:square;stroke-linejoin:round;stroke-miterlimit:4;stroke-dasharray:none;stroke-dashoffset:0;stroke-opacity:1;paint-order:markers fill stroke"
       id="circle965"
       cx="7.9360948"
       cy="78.053345"
       r="5.4741378" />
    <path
       sodipodi:nodetypes="cc"
       inkscape:connector-curvature="0"
       id="path1074-6"
       d="M 1.5433068e-5,89.17441 15.875015,89.16461"
       style="fill:none;stroke:#ffe4b3;stroke-width:0.05;stroke-linecap:butt;stroke-linejoin:miter;stroke-miterlimit:4;stroke-dasharray:none;stroke-opacity:1" />
    <circle
       style="display:inline;opacity:1;fill:none;fill-opacity:1;stroke:#ffe4b3;stroke-width:0.05;stroke-linecap:square;stroke-linejoin:round;stroke-miterlimit:4;stroke-dasharray:none;stroke-dashoffset:0;stroke-opacity:1;paint-order:markers fill stroke"
       id="circle1076"
       cx="7.9347796"
       cy="89.170151"
       r="4.0999999" />
    <circle
       r="5.4741378"
       cy="89.165855"
       cx="7.9360948"
       id="circle1078"
       style="display:inline;opacity:1;fill:none;fill-opacity:1;stroke:#ffe4b3;stroke-width:0.05172414;stroke-linecap:square;stroke-linejoin:round;stroke-miterlimit:4;stroke-dasharray:none;stroke-dashoffset:0;stroke-opacity:1;paint-order:markers fill stroke" />
    <g
       id="g6631"
       style="display:inline;stroke:#ffe4b3"
       transform="translate(15.874985,3.333209e-6)">
      <path
         sodipodi:nodetypes="cc"
         inkscape:connector-curvature="0"
         id="path6577"
         d="m 7.9375,-1e-5 -3e-6,100.54167"
         style="fill:none;stroke:#ffe4b3;stroke-width:0.05;stroke-linecap:butt;stroke-linejoin:miter;stroke-miterlimit:4;stroke-dasharray:none;stroke-opacity:1" />
      <path
         style="fill:none;stroke:#ffe4b3;stroke-width:0.05;stroke-linecap:butt;stroke-linejoin:miter;stroke-miterlimit:4;stroke-dasharray:none;stroke-opacity:1"
         d="m 3.968752,0 -4e-6,100.54167"
         id="path6579"
         inkscape:connector-curvature="0"
         sodipodi:nodetypes="cc" />
      <path
         sodipodi:nodetypes="cc"
         inkscape:connector-curvature="0"
         id="path6581"
         d="m 11.906253,0 -4e-6,100.54167"
         style="fill:none;stroke:#ffe4b3;stroke-width:0.05;stroke-linecap:butt;stroke-linejoin:miter;stroke-miterlimit:4;stroke-dasharray:none;stroke-opacity:1" />
      <path
         style="fill:none;stroke:#ffe4b3;stroke-width:0.05;stroke-linecap:butt;stroke-linejoin:miter;stroke-miterlimit:4;stroke-dasharray:none;stroke-opacity:1"
         d="m 0,11.38648 15.875,-0.0094"
         id="path6583"
         inkscape:connector-curvature="0"
         sodipodi:nodetypes="cc" />
      <path
         inkscape:connector-curvature="0"
         id="path6585"
         d="m 0,22.49905 15.875,-0.0095"
         style="fill:none;stroke:#ffe4b3;stroke-width:0.05;stroke-linecap:butt;stroke-linejoin:miter;stroke-miterlimit:4;stroke-dasharray:none;stroke-opacity:1"
         sodipodi:nodetypes="cc" />
      <path
         style="fill:none;stroke:#ffe4b3;stroke-width:0.05;stroke-linecap:butt;stroke-linejoin:miter;stroke-miterlimit:4;stroke-dasharray:none;stroke-opacity:1"
         d="m 0,33.61162 15.875,-0.0095"
         id="path6587"
         inkscape:connector-curvature="0"
         sodipodi:nodetypes="cc" />
      <path
         inkscape:connector-curvature="0"
         id="path6589"
         d="m 0,44.72419 15.875,-0.0096"
         style="fill:none;stroke:#ffe4b3;stroke-width:0.05;stroke-linecap:butt;stroke-linejoin:miter;stroke-miterlimit:4;stroke-dasharray:none;stroke-opacity:1"
         sodipodi:nodetypes="cc" />
      <path
         style="fill:none;stroke:#ffe4b3;stroke-width:0.05;stroke-linecap:butt;stroke-linejoin:miter;stroke-miterlimit:4;stroke-dasharray:none;stroke-opacity:1"
         d="m 0,55.83676 15.875,-0.0097"
         id="path6591"
         inkscape:connector-curvature="0"
         sodipodi:nodetypes="cc" />
      <path
         inkscape:connector-curvature="0"
         id="path6593"
         d="m 0,66.94933 15.875,-0.0097"
         style="fill:none;stroke:#ffe4b3;stroke-width:0.05;stroke-linecap:butt;stroke-linejoin:miter;stroke-miterlimit:4;stroke-dasharray:none;stroke-opacity:1"
         sodipodi:nodetypes="cc" />
      <path
         style="fill:none;stroke:#ffe4b3;stroke-width:0.05;stroke-linecap:butt;stroke-linejoin:miter;stroke-miterlimit:4;stroke-dasharray:none;stroke-opacity:1"
         d="M 0,78.0619 15.875,78.0521"
         id="path6595"
         inkscape:connector-curvature="0"
         sodipodi:nodetypes="cc" />
      <circle
         style="display:inline;opacity:1;fill:none;fill-opacity:1;stroke:#ffe4b3;stroke-width:0.05;stroke-linecap:square;stroke-linejoin:round;stroke-miterlimit:4;stroke-dasharray:none;stroke-dashoffset:0;stroke-opacity:1;paint-order:markers fill stroke"
         id="circle6597"
         cx="7.9347644"
         cy="22.48922"
         r="4.0999999" />
      <circle
         r="4.0999999"
         cy="44.720116"
         cx="7.9347644"
         id="circle6599"
         style="display:inline;opacity:1;fill:none;fill-opacity:1;stroke:#ffe4b3;stroke-width:0.05;stroke-linecap:square;stroke-linejoin:round;stroke-miterlimit:4;stroke-dasharray:none;stroke-dashoffset:0;stroke-opacity:1;paint-order:markers fill stroke" />
      <circle
         style="display:inline;opacity:1;fill:none;fill-opacity:1;stroke:#ffe4b3;stroke-width:0.05;stroke-linecap:square;stroke-linejoin:round;stroke-miterlimit:4;stroke-dasharray:none;stroke-dashoffset:0;stroke-opacity:1;paint-order:markers fill stroke"
         id="circle6601"
         cx="7.9347644"
         cy="33.607586"
         r="4.0999999" />
      <circle
         r="4.0999999"
         cy="66.939285"
         cx="7.9347644"
         id="circle6603"
         style="display:inline;opacity:1;fill:none;fill-opacity:1;stroke:#ffe4b3;stroke-width:0.05;stroke-linecap:square;stroke-linejoin:round;stroke-miterlimit:4;stroke-dasharray:none;stroke-dashoffset:0;stroke-opacity:1;paint-order:markers fill stroke" />
      <circle
         style="display:inline;opacity:1;fill:none;fill-opacity:1;stroke:#ffe4b3;stroke-width:0.05;stroke-linecap:square;stroke-linejoin:round;stroke-miterlimit:4;stroke-dasharray:none;stroke-dashoffset:0;stroke-opacity:1;paint-order:markers fill stroke"
         id="circle6605"
         cx="7.9347644"
         cy="55.832626"
         r="4.0999999" />
      <circle
         r="4.0999999"
         cy="78.05764"
         cx="7.9347644"
         id="circle6607"
         style="display:inline;opacity:1;fill:none;fill-opacity:1;stroke:#ffe4b3;stroke-width:0.05;stroke-linecap:square;stroke-linejoin:round;stroke-miterlimit:4;stroke-dasharray:none;stroke-dashoffset:0;stroke-opacity:1;paint-order:markers fill stroke" />
      <circle
         r="4.0999999"
         cy="11.38256"
         cx="7.9347644"
         id="circle6609"
         style="display:inline;opacity:1;fill:none;fill-opacity:1;stroke:#ffe4b3;stroke-width:0.05;stroke-linecap:square;stroke-linejoin:round;stroke-miterlimit:4;stroke-dasharray:none;stroke-dashoffset:0;stroke-opacity:1;paint-order:markers fill stroke" />
      <circle
         style="display:inline;opacity:1;fill:none;fill-opacity:1;stroke:#ffe4b3;stroke-width:0.05172414;stroke-linecap:square;stroke-linejoin:round;stroke-miterlimit:4;stroke-dasharray:none;stroke-dashoffset:0;stroke-opacity:1;paint-order:markers fill stroke"
         id="circle6611"
         cx="7.9360795"
         cy="11.377255"
         r="5.4741378" />
      <circle
         r="5.4741378"
         cy="22.490791"
         cx="7.9360795"
         id="circle6613"
         style="display:inline;opacity:1;fill:none;fill-opacity:1;stroke:#ffe4b3;stroke-width:0.05172414;stroke-linecap:square;stroke-linejoin:round;stroke-miterlimit:4;stroke-dasharray:none;stroke-dashoffset:0;stroke-opacity:1;paint-order:markers fill stroke" />
      <circle
         style="display:inline;opacity:1;fill:none;fill-opacity:1;stroke:#ffe4b3;stroke-width:0.05172414;stroke-linecap:square;stroke-linejoin:round;stroke-miterlimit:4;stroke-dasharray:none;stroke-dashoffset:0;stroke-opacity:1;paint-order:markers fill stroke"
         id="circle6615"
         cx="7.9360795"
         cy="33.603302"
         r="5.4741378" />
      <circle
         r="5.4741378"
         cy="44.715813"
         cx="7.9360795"
         id="circle6617"
         style="display:inline;opacity:1;fill:none;fill-opacity:1;stroke:#ffe4b3;stroke-width:0.05172414;stroke-linecap:square;stroke-linejoin:round;stroke-miterlimit:4;stroke-dasharray:none;stroke-dashoffset:0;stroke-opacity:1;paint-order:markers fill stroke" />
      <circle
         style="display:inline;opacity:1;fill:none;fill-opacity:1;stroke:#ffe4b3;stroke-width:0.05172414;stroke-linecap:square;stroke-linejoin:round;stroke-miterlimit:4;stroke-dasharray:none;stroke-dashoffset:0;stroke-opacity:1;paint-order:markers fill stroke"
         id="circle6619"
         cx="7.9360795"
         cy="55.828323"
         r="5.4741378" />
      <circle
         r="5.4741378"
         cy="66.940834"
         cx="7.9360795"
         id="circle6621"
         style="display:inline;opacity:1;fill:none;fill-opacity:1;stroke:#ffe4b3;stroke-width:0.05172414;stroke-linecap:square;stroke-linejoin:round;stroke-miterlimit:4;stroke-dasharray:none;stroke-dashoffset:0;stroke-opacity:1;paint-order:markers fill stroke" />
      <circle
         style="display:inline;opacity:1;fill:none;fill-opacity:1;stroke:#ffe4b3;stroke-width:0.05172414;stroke-linecap:square;stroke-linejoin:round;stroke-miterlimit:4;stroke-dasharray:none;stroke-dashoffset:0;stroke-opacity:1;paint-order:markers fill stroke"
         id="circle6623"
         cx="7.9360795"
         cy="78.053345"
         r="5.4741378" />
      <path
         sodipodi:nodetypes="cc"
         inkscape:connector-curvature="0"
         id="path6625"
         d="m 0,89.174407 15.875,-0.0098"
         style="fill:none;stroke:#ffe4b3;stroke-width:0.05;stroke-linecap:butt;stroke-linejoin:miter;stroke-miterlimit:4;stroke-dasharray:none;stroke-opacity:1" />
      <circle
         style="display:inline;opacity:1;fill:none;fill-opacity:1;stroke:#ffe4b3;stroke-width:0.05;stroke-linecap:square;stroke-linejoin:round;stroke-miterlimit:4;stroke-dasharray:none;stroke-dashoffset:0;stroke-opacity:1;paint-order:markers fill stroke"
         id="circle6627"
         cx="7.9347644"
         cy="89.170151"
         r="4.0999999" />
      <circle
         r="5.4741378"
         cy="89.165855"
         cx="7.9360795"
         id="circle6629"
         style="display:inline;opacity:1;fill:none;fill-opacity:1;stroke:#ffe4b3;stroke-width:0.05172414;stroke-linecap:square;stroke-linejoin:round;stroke-miterlimit:4;stroke-dasharray:none;stroke-dashoffset:0;stroke-opacity:1;paint-order:markers fill stroke" />
    </g>
    <path
       sodipodi:nodetypes="cc"
       inkscape:connector-curvature="0"
       id="path6907"
       d="M 1.5433068e-5,16.934003 15.875015,16.924603"
       style="fill:none;stroke:#ffe4b3;stroke-width:0.05;stroke-linecap:butt;stroke-linejoin:miter;stroke-miterlimit:4;stroke-dasharray:none;stroke-opacity:1" />
    <circle
       style="display:inline;opacity:1;fill:none;fill-opacity:1;stroke:#ffe4b3;stroke-width:0.05;stroke-linecap:square;stroke-linejoin:round;stroke-miterlimit:4;stroke-dasharray:none;stroke-dashoffset:0;stroke-opacity:1;paint-order:markers fill stroke"
       id="circle6909"
       cx="7.9347796"
       cy="16.929907"
       r="4.0999999" />
    <circle
       r="5.4741378"
       cy="16.924603"
       cx="7.9360948"
       id="circle6911"
       style="display:inline;opacity:1;fill:none;fill-opacity:1;stroke:#ffe4b3;stroke-width:0.05172414;stroke-linecap:square;stroke-linejoin:round;stroke-miterlimit:4;stroke-dasharray:none;stroke-dashoffset:0;stroke-opacity:1;paint-order:markers fill stroke" />
    <path
       sodipodi:nodetypes="cc"
       inkscape:connector-curvature="0"
       id="path6915"
       d="M 1.5463333e-5,83.610841 15.875015,83.601041"
       style="fill:none;stroke:#ffe4b3;stroke-width:0.05;stroke-linecap:butt;stroke-linejoin:miter;stroke-miterlimit:4;stroke-dasharray:none;stroke-opacity:1" />
    <circle
       r="5.4741378"
       cy="83.602158"
       cx="7.9360948"
       id="circle6917"
       style="display:inline;opacity:1;fill:none;fill-opacity:1;stroke:#ffe4b3;stroke-width:0.05172414;stroke-linecap:square;stroke-linejoin:round;stroke-miterlimit:4;stroke-dasharray:none;stroke-dashoffset:0;stroke-opacity:1;paint-order:markers fill stroke" />
    <path
       sodipodi:nodetypes="cc"
       inkscape:connector-curvature="0"
       id="path6973"
       d="M 1.5433068e-5,55.836763 15.875015,55.827063"
       style="fill:none;stroke:#ffe4b3;stroke-width:0.05;stroke-linecap:butt;stroke-linejoin:miter;stroke-miterlimit:4;stroke-dasharray:none;stroke-opacity:1" />
    <circle
       r="4.0999999"
       cy="55.83263"
       cx="7.9347796"
       id="circle6975"
       style="display:inline;opacity:1;fill:none;fill-opacity:1;stroke:#ffe4b3;stroke-width:0.05;stroke-linecap:square;stroke-linejoin:round;stroke-miterlimit:4;stroke-dasharray:none;stroke-dashoffset:0;stroke-opacity:1;paint-order:markers fill stroke" />
    <circle
       r="5.4741378"
       cy="55.828327"
       cx="7.9360948"
       id="circle6977"
       style="display:inline;opacity:1;fill:none;fill-opacity:1;stroke:#ffe4b3;stroke-width:0.05172414;stroke-linecap:square;stroke-linejoin:round;stroke-miterlimit:4;stroke-dasharray:none;stroke-dashoffset:0;stroke-opacity:1;paint-order:markers fill stroke" />
    <path
       sodipodi:nodetypes="cc"
       style="fill:none;stroke:#ffe4b3;stroke-width:0.05;stroke-linecap:butt;stroke-linejoin:miter;stroke-miterlimit:4;stroke-dasharray:none;stroke-opacity:1"
       d="M 1.5433068e-5,61.384929 15.875015,61.375329"
       id="path6979"
       inkscape:connector-curvature="0" />
    <circle
       style="display:inline;opacity:1;fill:none;fill-opacity:1;stroke:#ffe4b3;stroke-width:0.05;stroke-linecap:square;stroke-linejoin:round;stroke-miterlimit:4;stroke-dasharray:none;stroke-dashoffset:0;stroke-opacity:1;paint-order:markers fill stroke"
       id="circle6981"
       cx="7.9347796"
       cy="61.380878"
       r="4.0999999" />
    <circle
       style="display:inline;opacity:1;fill:none;fill-opacity:1;stroke:#ffe4b3;stroke-width:0.05172414;stroke-linecap:square;stroke-linejoin:round;stroke-miterlimit:4;stroke-dasharray:none;stroke-dashoffset:0;stroke-opacity:1;paint-order:markers fill stroke"
       id="circle6983"
       cx="7.9360948"
       cy="61.376575"
       r="5.4741378" />
  </g>
</svg>
